<svg width="428" height="220" viewBox="0 0 428 220" fill="none" xmlns="http://www.w3.org/2000/svg">
<path d="M210.148 0.498114C184.424 0.498114 158.115 2.08193 133.185 4.71633C89.6792 9.31126 53.3019 17.875 35.0454 36.2229C31.823 39.4675 29.1058 42.7996 26.635 46.1636C12.0816 65.9759 3.8807 86.624 1.36682 107.375C-1.75705 133.183 4.36129 159.856 31.4594 182.921C43.9672 193.568 61.5336 203.553 85.8961 209.247C110.579 215.014 139.661 215.855 167.708 216.574C203.309 217.484 238.904 218.397 274.505 219.307C290.309 219.71 306.723 220.073 321.381 217.5C336.28 214.884 347.161 209.576 355.664 203.866C364.247 198.107 373.199 191.96 380.279 185.871C388.042 179.199 397.79 173.272 403.803 166.163C410.181 158.623 414.087 150.728 416.552 142.787C421.068 128.225 420.914 113.475 423.699 98.8356C426.595 83.6314 432.43 67.7216 419.145 53.576C411.099 45.0122 396.514 37.8147 379.848 31.9888C352.109 22.2922 319.256 15.9516 288.368 8.40926C266.249 3.00517 235.626 0.102822 210.148 0.498114Z" fill="#F3F3F3"/>
</svg>
