<svg width="268" height="142" viewBox="0 0 268 142" fill="none" xmlns="http://www.w3.org/2000/svg">
<path d="M151.574 105.519C152.767 105.785 153.801 106.813 155.263 106.068C160.213 103.57 165.013 102.728 169.883 100.981C171.737 100.313 173.032 99.2014 172.984 96.8733C172.931 95.0561 171.636 95.4009 170.391 95.5161C166.208 95.9094 161.89 99.3797 157.661 100.29C155.983 100.663 154.186 101.027 152.48 102.359C151.236 103.322 150.639 104.468 151.574 105.519Z" fill="#FABF4B"/>
<path d="M22.8159 124.459C15.4579 124.469 8.87156 130.767 2.14634 135.562C0.185817 136.965 -0.182711 139.051 0.275092 140.517C0.717739 141.95 2.36922 141.181 3.53939 140.076C9.2226 134.791 15.4202 131.23 21.34 126.78C21.9792 126.298 22.5125 125.756 22.8159 124.459Z" fill="#FABF4B"/>
<path d="M189.057 91.5233C189.61 91.8919 190.506 91.7993 191.471 91.5087C195.126 90.3799 198.715 88.37 202.327 86.3711C204.245 85.3051 205.132 83.8219 204.893 81.756C204.591 79.3211 203.172 80.0846 201.409 81.2108C198.463 83.1197 195.505 85.0776 192.438 85.9529C191.068 86.3369 189.926 87.4275 189.084 88.9546C188.588 89.8721 188.327 90.8087 189.057 91.5233Z" fill="#FABF4B"/>
<path d="M249.174 43.72C250.846 39.4799 254.079 34.9809 256.776 30.1996C257.237 29.3951 257.3 28.3512 257.408 27.4635C257.516 26.5196 257.292 25.6894 256.441 25.7041C255.822 25.713 255.173 26.4219 254.756 27.1485C251.666 32.4378 248.578 37.7285 245.582 43.0663C244.807 44.4501 244.003 46.3854 245.241 46.953C246.464 47.4919 247.605 45.7877 249.174 43.72Z" fill="#FABF4B"/>
<path d="M52.2759 110.002C51.8554 109.884 51.2297 109.58 50.5377 109.475C46.7433 108.922 42.549 110.921 38.4636 112.416C37.3545 112.832 35.6732 113.769 35.6859 115.718C35.7094 117.703 37.0526 116.922 38.4244 116.361C42.5891 114.675 46.5456 114.395 50.5404 113.878C51.5638 113.747 52.589 114.413 53.3781 112.472C53.9722 111.068 53.0812 110.677 52.2759 110.002Z" fill="#FABF4B"/>
<path d="M103.939 110.513C100.865 108.344 96.8265 108.585 93.3117 107.743C92.2767 107.506 91.4551 108.354 91.0398 109.699C90.5688 111.189 90.0335 112.881 91.749 112.883C95.1975 112.9 98.0495 114.236 101.215 114.87C102.299 115.079 103.49 115.728 104.605 113.805C105.683 111.938 104.395 111.366 103.939 110.513Z" fill="#FABF4B"/>
<path d="M121.151 111.746C124.391 113.136 128.238 112.924 132.355 111.907C133.307 111.664 133.93 110.915 134.094 109.877C134.305 108.552 134.262 106.919 133.245 106.951C129.599 107.061 126.176 106.066 122.131 107.99C120.315 108.829 119.858 110.74 121.151 111.746Z" fill="#FABF4B"/>
<path d="M227.477 69.5288C229.208 67.5443 231.126 65.7115 231.218 62.9419C231.284 60.7781 230.281 60.2811 228.673 62.1499C225.792 65.477 223.189 69.1279 220.202 72.3994C219.26 73.4161 218.195 75.2871 219.198 76.3729C220.029 77.2713 221.199 76.0165 222.264 75.3197C224.417 73.8886 225.785 71.4827 227.477 69.5288Z" fill="#FABF4B"/>
<path d="M266.743 0.936035C263.75 5.33059 262.917 9.16486 262.013 12.9663C261.586 14.71 261.695 16.3534 263.518 16.029C265 15.7797 266.023 14.2175 266.27 12.6869C266.887 8.86504 268.697 4.5426 266.743 0.936035Z" fill="#FABF4B"/>
<path d="M78.1157 111.271C76.6335 106.38 72.6833 106.562 69.0017 106.35C68.3917 106.313 67.8114 107.109 67.438 107.883C66.674 109.452 67.5783 110.057 68.2659 110.107C71.4173 110.298 73.8417 112.259 78.1157 111.271Z" fill="#FABF4B"/>
</svg>
