<svg width="217" height="86" viewBox="0 0 217 86" fill="none" xmlns="http://www.w3.org/2000/svg">
<path d="M127.211 18.6651C127.984 17.7451 128.164 16.3251 129.77 16.0331C135.196 15.0267 139.485 12.8172 144.385 11.2721C146.253 10.6863 147.955 10.7805 149.351 12.6267C150.428 14.0772 149.199 14.5813 148.149 15.2354C144.622 17.4266 139.093 17.2967 135.211 19.1122C133.663 19.8235 132.028 20.6119 129.867 20.5913C128.297 20.5825 127.123 20.0444 127.211 18.6651Z" fill="#FEA273"/>
<path d="M165.27 7.20247C165.477 6.58471 166.238 6.12153 167.175 5.77203C170.741 4.47008 174.797 3.89566 178.865 3.29852C181.028 2.98508 182.638 3.61317 183.722 5.36892C184.984 7.45059 183.399 7.70193 181.321 7.87562C177.831 8.14539 174.303 8.3832 171.355 9.53204C170.042 10.0505 168.474 9.88126 166.872 9.19181C165.918 8.77173 165.136 8.19638 165.27 7.20247Z" fill="#FEA273"/>
<path d="M46.4545 74.4776C46.1968 74.8209 45.8928 75.4323 45.4139 75.9276C42.7741 78.6259 38.2486 79.5704 34.1188 80.843C32.9918 81.1811 31.0944 81.4541 29.9041 79.9246C28.7007 78.3611 30.2363 78.1681 31.6589 77.7864C35.9686 76.6155 39.2489 74.471 42.705 72.4885C43.5892 71.979 43.9845 70.8469 45.7991 71.8905C47.1307 72.6324 46.6712 73.4693 46.4545 74.4776Z" fill="#FEA273"/>
<path d="M17.5591 82.9962C17.2016 83.2337 16.711 83.7086 16.0941 84.0157C12.705 85.678 8.1239 85.0577 3.80613 84.8788C2.63092 84.8213 0.751278 84.4452 0.139796 82.6061C-0.472747 80.7306 1.03924 81.0613 2.50767 81.1763C6.96108 81.5112 10.769 80.5847 14.6886 79.8695C15.6922 79.6844 16.4427 78.7492 17.8049 80.3388C18.8125 81.4826 18.1 82.1181 17.5591 82.9962Z" fill="#FEA273"/>
<path d="M86.7191 43.2197C85.6405 46.7491 82.3204 48.9738 80.0777 51.7301C79.4109 52.5336 78.2434 52.3622 77.0891 51.5604C75.8014 50.6781 74.3395 49.6773 75.6854 48.6505C78.3839 46.5777 79.8017 43.8314 81.8971 41.4453C82.6203 40.6342 83.1564 39.4163 85.2156 40.2516C87.2121 41.0654 86.5528 42.2814 86.7191 43.2197Z" fill="#FEA273"/>
<path d="M99.4799 31.9762C101.169 28.9556 104.321 26.8236 108.181 25.1584C109.078 24.7794 110.029 24.992 110.797 25.7046C111.778 26.6135 112.75 27.9129 111.932 28.4957C109 30.5878 106.924 33.4095 102.562 34.3239C100.62 34.753 99.0836 33.534 99.4799 31.9762Z" fill="#FEA273"/>
<path d="M208.989 1.42554C211.571 1.94102 214.206 2.22582 215.983 4.33365C217.368 5.98315 216.886 6.97041 214.472 6.47202C210.161 5.59547 205.868 4.29961 201.508 3.52961C200.142 3.29843 198.154 2.4739 198.272 1.02757C198.372 -0.170644 200.064 0.110244 201.33 0.0179079C203.901 -0.150466 206.457 0.91084 208.989 1.42554Z" fill="#FEA273"/>
<path d="M65.9692 58.0524C67.8164 62.7562 64.6019 64.9741 61.8408 67.3389C61.3844 67.7321 60.4382 67.4568 59.6685 67.0758C58.1024 66.3073 58.4403 65.2949 58.9492 64.8447C61.3072 62.8136 62.0039 59.8341 65.9692 58.0524Z" fill="#FEA273"/>
</svg>
