<svg width="403" height="651" viewBox="0 0 403 651" fill="none" xmlns="http://www.w3.org/2000/svg">
<path d="M139.635 286.219C138.103 287.126 135.95 287.463 135.179 289.179C132.548 294.976 128.362 299.707 125.038 305.008C123.775 307.029 123.561 308.804 126.02 310.075C127.956 311.053 128.964 309.711 130.157 308.541C134.157 304.612 135.117 298.826 138.632 294.564C140.014 292.866 141.53 291.067 141.95 288.803C142.264 287.158 141.708 285.982 139.635 286.219Z" fill="#FABF4B"/>
<path d="M255.715 161.392C263.459 154.864 263.882 145.472 266.008 136.806C266.622 134.277 264.852 132.773 262.852 132.352C260.903 131.936 259.959 133.834 259.869 135.495C259.348 143.514 256.502 151.016 254.869 158.774C254.694 159.613 254.693 160.391 255.715 161.392Z" fill="#FABF4B"/>
<path d="M253.93 106.644C254.47 108.819 254.932 111.049 255.628 113.189C256.216 114.909 257.411 115.777 259.461 115.283C261.382 114.839 262.225 113.847 262.117 111.85C261.887 106.845 260.412 102.206 258.099 97.8035C257.408 96.5334 256.323 95.4333 254.614 95.9203C252.879 96.4188 252.539 97.8523 252.755 99.3488C253.123 101.782 253.647 104.181 254.087 106.61C254.043 106.627 253.974 106.627 253.93 106.644Z" fill="#FABF4B"/>
<path d="M114.618 327.341C113.655 327.623 112.806 328.47 112.09 329.489C109.406 333.366 107.704 337.681 105.966 342.011C105.048 344.313 105.648 345.936 108.037 346.889C110.875 347.994 111.58 346.306 112.273 344.108C113.402 340.419 114.493 336.693 116.819 333.48C117.865 332.049 117.941 330.421 117.248 328.814C116.821 327.857 116.127 327.097 114.618 327.341Z" fill="#FABF4B"/>
<path d="M245.417 79.6254C244.61 74.9551 241.899 71.0373 240.057 66.7269C239.808 66.1896 239.406 65.6856 238.923 65.3074C237.641 64.3267 236.187 62.9534 234.587 63.8112C232.815 64.7855 233.41 66.7927 234.034 68.2089C235.94 72.6919 238.152 77.0307 240.12 81.4911C240.994 83.5175 242.083 84.4942 244.311 83.5721C246.355 82.7414 246.476 81.3649 245.417 79.6254Z" fill="#FABF4B"/>
<path d="M221.603 558.742C221.231 557.666 220.918 556.692 220.541 555.74C220.054 554.565 219.424 553.391 217.884 553.746C216.521 554.057 215.188 554.452 215.205 556.46C215.239 560.541 215.012 564.651 214.997 568.73C215.012 570.469 215.653 571.876 217.491 572.578C219.869 573.49 221.61 573.356 221.647 570.309C221.736 566.424 221.629 562.536 221.603 558.742Z" fill="#FABF4B"/>
<path d="M100.732 407.598C103.357 411.472 104.607 416.875 106.712 421.963C107.057 422.826 108.072 423.47 108.876 424.067C109.739 424.695 110.834 424.965 111.716 424.202C112.358 423.649 112.309 422.673 111.996 421.894C109.78 416.171 107.56 410.449 105.194 404.782C104.579 403.315 103.424 401.51 101.532 402.288C99.6854 403.068 100.246 405.041 100.732 407.598Z" fill="#FABF4B"/>
<path d="M239.63 195.663C240.195 195.356 241.169 194.973 242.007 194.419C246.578 191.367 248.929 186.522 251.686 182.056C252.425 180.839 253.228 178.82 251.197 177.731C249.119 176.633 248.511 178.264 247.646 179.796C245.002 184.439 241.123 188.105 237.449 191.938C236.505 192.919 234.736 193.452 235.912 195.246C236.74 196.565 238.083 195.996 239.63 195.663Z" fill="#FABF4B"/>
<path d="M184.663 241.173C190.146 239.671 194.153 235.956 198.727 233.315C200.063 232.531 200.051 231.324 199.098 230.197C198.052 228.939 196.866 227.511 195.055 229.03C191.404 232.078 187.017 233.852 183.025 236.3C181.666 237.144 179.74 237.834 180.555 239.906C181.351 241.915 183.3 241.096 184.663 241.173Z" fill="#FABF4B"/>
<path d="M211.334 525.077C209.525 520.851 208.159 516.509 205.609 512.776C204.347 510.942 202.629 509.834 200.473 511.672C198.603 513.238 199.761 514.532 200.924 515.772C203.363 518.43 203.884 521.996 205.438 525.079C205.625 525.448 205.661 525.869 205.719 526.284C206.126 528.824 207.472 530.82 210.185 530.157C213.39 529.381 210.747 526.698 211.334 525.077Z" fill="#FABF4B"/>
<path d="M165.25 255.736C160.398 257.824 156.564 261.353 153.278 265.576C152.526 266.557 152.645 267.533 153.546 268.263C154.695 269.198 156.428 270.081 157.468 269.161C161.196 265.867 165.832 263.394 168.105 258.723C169.149 256.64 167.654 255.157 165.25 255.736Z" fill="#FABF4B"/>
<path d="M206.571 35.7277C205.348 36.4249 204.658 37.5057 205.804 38.6326C209.707 42.4208 213.428 46.4463 218.396 48.9201C219.735 49.5863 221.473 49.3067 222.306 48.0774C223.363 46.5453 221.876 45.3527 220.789 44.6405C216.881 42.0882 214.13 37.9947 209.508 36.384C208.538 36.065 207.665 35.5416 206.571 35.7277Z" fill="#FABF4B"/>
<path d="M96.8921 373.806C97.1215 376.459 96.9961 379.194 99.7656 380.837C101.934 382.117 103.506 381.508 103.267 379.028C102.86 374.597 101.825 370.231 101.587 365.738C101.528 364.329 100.714 362.33 98.5348 362.606C96.7289 362.836 96.7945 364.581 96.3929 365.918C95.6055 368.634 96.6535 371.203 96.8921 373.806Z" fill="#FABF4B"/>
<path d="M171.652 486.847C172.004 488.584 180.443 495.586 182.205 495.564C184.427 495.54 185.295 494.154 184.408 492.347C182.675 488.844 180.024 485.951 176.529 484.238C174.026 482.985 171.202 484.784 171.652 486.847Z" fill="#FABF4B"/>
<path d="M139.199 465.646C137.928 466.211 137.057 466.804 136.939 467.915C136.811 469.146 137.005 470.458 138.298 471.068C142.18 472.903 146.045 474.694 149.959 476.417C150.848 476.792 151.994 477.068 152.775 476.102C153.548 475.111 152.806 474.149 152.381 473.265C151.762 471.921 150.746 470.625 149.42 470.318C146.526 469.645 144.267 467.936 141.812 466.541C140.956 466.062 139.919 465.889 139.199 465.646Z" fill="#FABF4B"/>
<path d="M215.484 603.159C215.121 601.646 215.046 600.075 213.287 599.708C211.658 599.369 210.491 600.285 209.92 601.682C208.686 604.635 206.858 607.496 207.606 610.95C207.928 612.406 208.61 613.659 210.278 613.913C211.922 614.151 213.086 613.308 213.615 611.851C214.652 609.017 215.663 606.122 215.484 603.159Z" fill="#FABF4B"/>
<path d="M208.316 626.164C206.897 625.523 205.61 624.619 204.242 625.784C202.975 626.863 202.984 628.346 203.737 629.654C205.313 632.439 206.452 635.638 209.639 637.164C210.987 637.803 212.395 638.033 213.619 636.87C214.814 635.718 214.862 634.282 214.036 632.971C212.433 630.413 210.765 627.839 208.316 626.164Z" fill="#FABF4B"/>
<path d="M174.726 22.639C173.2 23.6908 171.032 23.4012 170.809 25.5456C170.554 28.0659 172.657 27.7229 174.122 28.0744C177.269 28.8477 180.288 30.0542 183.56 30.3705C185.261 30.5136 186.509 29.9556 186.861 28.4211C187.144 27.1513 186.129 26.1202 184.864 25.7173C181.453 24.6312 178.002 23.6304 174.726 22.639Z" fill="#FABF4B"/>
<path d="M141.554 32.729C144.12 32.1913 146.324 30.2821 149.223 30.905C150.039 31.0866 150.92 30.446 150.843 29.5276C150.783 28.7754 150.408 27.8965 149.876 27.3659C147.269 24.7209 138.999 25.7005 136.987 28.8484C136.27 29.9863 136.041 31.2073 136.95 32.2781C138.273 33.825 139.971 32.9013 141.554 32.729Z" fill="#FABF4B"/>
<path d="M126.486 447.306C125.093 442.174 122.003 439.273 119.023 436.328C117.669 434.965 115.854 434.135 114.269 435.934C112.965 437.388 113.503 439.176 114.827 440.258C118.131 442.961 120.696 447.004 126.486 447.306Z" fill="#FABF4B"/>
<path d="M211.089 217.854C217.711 219.299 221.686 215.694 225.785 212.55C226.466 212.031 226.253 211.067 225.846 210.299C225.028 208.737 223.449 209.198 222.672 209.779C219.154 212.465 214.57 213.508 211.089 217.854Z" fill="#FABF4B"/>
</svg>
