<svg width="12" height="14" viewBox="0 0 12 14" fill="none" xmlns="http://www.w3.org/2000/svg">
<path d="M5.72727 3.81818C6.06482 3.81818 6.38854 3.68409 6.62723 3.44541C6.86591 3.20673 7 2.883 7 2.54545C7 2.30364 6.93636 2.08091 6.81545 1.89L5.72727 0L4.63909 1.89C4.51818 2.08091 4.45455 2.30364 4.45455 2.54545C4.45455 2.883 4.58864 3.20673 4.82732 3.44541C5.066 3.68409 5.38972 3.81818 5.72727 3.81818ZM8.65455 10.1818L7.97364 9.49454L7.28636 10.1818C6.45909 11.0027 5.00818 11.0091 4.17455 10.1818L3.5 9.49454L2.8 10.1818C2.43494 10.5423 1.95567 10.7643 1.44464 10.8095C0.933611 10.8548 0.422772 10.7206 0 10.43V13.3636C0 13.5324 0.0670452 13.6943 0.186387 13.8136C0.305728 13.933 0.467589 14 0.636364 14H10.8182C10.987 14 11.1488 13.933 11.2682 13.8136C11.3875 13.6943 11.4545 13.5324 11.4545 13.3636V10.43C11.0318 10.7206 10.5209 10.8548 10.0099 10.8095C9.49888 10.7643 9.01961 10.5423 8.65455 10.1818ZM9.54545 5.72727H6.36364V4.45455H5.09091V5.72727H1.90909C1.40277 5.72727 0.917184 5.92841 0.55916 6.28643C0.201136 6.64446 0 7.13004 0 7.63636V8.61636C0 9.30364 0.56 9.86364 1.24727 9.86364C1.59091 9.86364 1.90909 9.73636 2.12545 9.50091L3.5 8.14545L4.84273 9.50091C5.31364 9.97182 6.13455 9.97182 6.60545 9.50091L7.95455 8.14545L9.32273 9.50091C9.54545 9.73636 9.86364 9.86364 10.2009 9.86364C10.8882 9.86364 11.4545 9.30364 11.4545 8.61636V7.63636C11.4545 7.13004 11.2534 6.64446 10.8954 6.28643C10.5374 5.92841 10.0518 5.72727 9.54545 5.72727Z" fill="#FD8344"/>
</svg>
