<svg width="73" height="67" viewBox="0 0 73 67" fill="none" xmlns="http://www.w3.org/2000/svg">
<path fill-rule="evenodd" clip-rule="evenodd" d="M32.6495 1.4071C33.5507 0.506134 34.7729 0 36.0472 0C37.3216 0 38.5437 0.506134 39.445 1.4071L71.3897 33.3471C71.841 33.7983 72.0944 34.4102 72.0944 35.0483C72.0944 35.6864 71.841 36.2984 71.3897 36.7496C70.9385 37.2008 70.3266 37.4543 69.6885 37.4543C69.0504 37.4543 68.4384 37.2008 67.9872 36.7496L36.0472 4.80487L4.10727 36.7496C3.65606 37.2008 3.04409 37.4543 2.40598 37.4543C1.76788 37.4543 1.1559 37.2008 0.704696 36.7496C0.253487 36.2984 0 35.6864 0 35.0483C0 34.4102 0.253487 33.7983 0.704696 33.3471L32.6495 1.4071ZM36.0466 10.0239L64.882 38.8593V59.0776C64.882 60.9895 64.1225 62.8231 62.7706 64.1751C61.4186 65.527 59.585 66.2865 57.6731 66.2865H14.4201C12.5082 66.2865 10.6746 65.527 9.3227 64.1751C7.97078 62.8231 7.21128 60.9895 7.21128 59.0776V38.8593L36.0466 10.0239ZM41.6841 33.1705C41.6841 36.026 39.3911 38.3409 36.5625 38.3409C33.734 38.3409 31.441 36.026 31.441 33.1705C31.441 30.3149 33.734 28 36.5625 28C39.3911 28 41.6841 30.3149 41.6841 33.1705ZM24.6477 34.8777C27.2146 34.8777 29.2962 36.9788 29.2962 39.5698C29.2962 42.1627 27.2151 44.2628 24.6477 44.2628C22.0802 44.2628 20 42.1627 20 39.5698C20 36.9788 22.0807 34.8777 24.6477 34.8777ZM43.1846 40.4863C43.1846 37.8953 45.2657 35.7943 47.8322 35.7943C50.3996 35.7943 52.4803 37.8953 52.4803 40.4863C52.4803 43.0792 50.3991 45.1784 47.8322 45.1784C45.2657 45.1784 43.1846 43.0792 43.1846 40.4863ZM43.6106 45.7096C43.2875 45.3075 42.8301 44.8421 42.3049 44.3539C40.9034 42.5203 38.7114 41.334 36.2402 41.334C34.0408 41.334 32.0637 42.2742 30.6663 43.7723C29.8726 44.4696 29.1668 45.1502 28.7176 45.71L28.417 46.0807L28.4158 46.0821C27.0136 47.8081 25.2689 49.9557 25.2817 53.5992C25.2941 56.9837 28.0242 59.739 31.3671 59.739C32.2948 59.741 33.2104 59.5267 34.0425 59.1126C34.8746 58.6986 35.6007 58.096 36.1641 57.352C36.7277 58.0963 37.454 58.699 38.2863 59.1131C39.1187 59.5271 40.0346 59.7414 40.9625 59.739C44.304 59.739 47.0337 56.9842 47.0465 53.5992C47.0593 49.957 45.3154 47.8096 43.9139 46.0839L43.9139 46.0839L43.9113 46.0807L43.6106 45.7096Z" fill="#434343"/>
</svg>
