<svg width="76" height="70" viewBox="0 0 76 70" fill="none" xmlns="http://www.w3.org/2000/svg">
<path fill-rule="evenodd" clip-rule="evenodd" d="M37.9995 10.5669L68.3969 40.9643V62.278C68.3969 64.2935 67.5963 66.2264 66.1711 67.6516C64.746 69.0767 62.813 69.8774 60.7976 69.8774H15.2014C13.1859 69.8774 11.253 69.0767 9.82785 67.6516C8.4027 66.2264 7.60205 64.2935 7.60205 62.278V40.9643L37.9995 10.5669Z" fill="#445E93"/>
<path fill-rule="evenodd" clip-rule="evenodd" d="M34.4182 1.48333C35.3682 0.533553 36.6566 0 38 0C39.3434 0 40.6318 0.533553 41.5818 1.48333L75.2571 35.1536C75.7328 35.6292 76 36.2743 76 36.947C76 37.6197 75.7328 38.2648 75.2571 38.7405C74.7815 39.2161 74.1364 39.4833 73.4637 39.4833C72.791 39.4833 72.1459 39.2161 71.6702 38.7405L38 5.06516L4.32977 38.7405C3.85412 39.2161 3.20899 39.4833 2.53632 39.4833C1.86365 39.4833 1.21852 39.2161 0.742871 38.7405C0.267219 38.2648 0 37.6197 0 36.947C0 36.2743 0.267219 35.6292 0.742871 35.1536L34.4182 1.48333Z" fill="#445E93"/>
<path d="M30.7627 43.9427C30.7627 41.2113 28.5683 38.9964 25.8623 38.9964C23.1563 38.9964 20.9629 41.2113 20.9629 43.9427C20.9629 46.676 23.1558 48.8899 25.8623 48.8899C28.5688 48.8899 30.7627 46.676 30.7627 43.9427Z" fill="white"/>
<path d="M50.3028 39.9626C47.5973 39.9626 45.4034 42.1775 45.4034 44.9088C45.4034 47.6422 47.5973 49.8551 50.3028 49.8551C53.0088 49.8551 55.2027 47.6422 55.2027 44.9088C55.2027 42.1775 53.0093 39.9626 50.3028 39.9626Z" fill="white"/>
<path d="M45.8526 50.4151C45.512 49.9912 45.0298 49.5005 44.4761 48.986C42.9987 47.053 40.6879 45.8024 38.0829 45.8024C35.7643 45.8024 33.6801 46.7935 32.207 48.3729C31.3703 49.1079 30.6263 49.8254 30.1528 50.4155L29.8358 50.8062C28.3575 52.626 26.5172 54.8901 26.5308 58.7321C26.5438 62.3 29.4218 65.2045 32.9458 65.2045C33.9237 65.2066 34.8889 64.9806 35.7661 64.5442C36.6433 64.1077 37.4087 63.4725 38.0027 62.6882C38.5967 63.4728 39.3624 64.1081 40.2398 64.5446C41.1173 64.9811 42.0828 65.207 43.061 65.2045C46.5835 65.2045 49.4611 62.3004 49.4746 58.7321C49.4881 54.8901 47.6474 52.626 46.1695 50.8062L45.8526 50.4151Z" fill="white"/>
<path d="M38.4227 42.6472C41.4044 42.6472 43.8216 40.2069 43.8216 37.1967C43.8216 34.1864 41.4044 31.7461 38.4227 31.7461C35.4409 31.7461 33.0237 34.1864 33.0237 37.1967C33.0237 40.2069 35.4409 42.6472 38.4227 42.6472Z" fill="white"/>
</svg>
