<svg width="37" height="33" viewBox="0 0 37 33" fill="none" xmlns="http://www.w3.org/2000/svg">
<path d="M35.1751 6.60957C34.6158 5.31615 33.8093 4.14407 32.8009 3.15894C31.7917 2.17087 30.6018 1.38566 29.2959 0.846017C27.9418 0.284219 26.4894 -0.00334138 25.0231 2.92923e-05C22.966 2.92923e-05 20.959 0.562632 19.2149 1.62533C18.7976 1.87954 18.4012 2.15876 18.0257 2.46298C17.6501 2.15876 17.2537 1.87954 16.8365 1.62533C15.0923 0.562632 13.0853 2.92923e-05 11.0282 2.92923e-05C9.54693 2.92923e-05 8.11155 0.283414 6.75546 0.846017C5.44526 1.38778 4.26441 2.16709 3.25046 3.15894C2.24068 4.14296 1.43403 5.31532 0.876248 6.60957C0.296255 7.95564 0 9.38507 0 10.8562C0 12.2439 0.283738 13.69 0.84704 15.1611C1.31854 16.3905 1.99451 17.6657 2.85824 18.9535C4.22685 20.9914 6.1087 23.1167 8.44536 25.2713C12.3175 28.8428 16.1522 31.3099 16.3149 31.4099L17.3038 32.0434C17.7419 32.3226 18.3052 32.3226 18.7434 32.0434L19.7323 31.4099C19.895 31.3057 23.7255 28.8428 27.6018 25.2713C29.9385 23.1167 31.8203 20.9914 33.1889 18.9535C34.0527 17.6657 34.7328 16.3905 35.2001 15.1611C35.7634 13.69 36.0472 12.2439 36.0472 10.8562C36.0514 9.38507 35.7551 7.95564 35.1751 6.60957Z" fill="#D3D3D3"/>
</svg>
