<svg width="11" height="14" viewBox="0 0 11 14" fill="none" xmlns="http://www.w3.org/2000/svg">
<path d="M5.50001 0C4.04184 0.00172024 2.6439 0.581735 1.61282 1.61281C0.581741 2.64389 0.00172609 4.04184 5.85144e-06 5.5C-0.00174059 6.69161 0.387496 7.85089 1.10801 8.8C1.10801 8.8 1.25801 8.9975 1.28251 9.026L5.50001 14L9.7195 9.0235C9.7415 8.997 9.892 8.8 9.892 8.8L9.8925 8.7985C10.6127 7.84981 11.0017 6.69107 11 5.5C10.9983 4.04184 10.4183 2.64389 9.38719 1.61281C8.35611 0.581735 6.95817 0.00172024 5.50001 0ZM5.50001 7.5C5.10444 7.5 4.71776 7.3827 4.38886 7.16294C4.05997 6.94318 3.80362 6.63082 3.65225 6.26537C3.50087 5.89991 3.46126 5.49778 3.53843 5.10982C3.61561 4.72186 3.80609 4.36549 4.08579 4.08579C4.3655 3.80608 4.72186 3.6156 5.10982 3.53843C5.49779 3.46126 5.89992 3.50087 6.26537 3.65224C6.63082 3.80362 6.94318 4.05996 7.16294 4.38886C7.38271 4.71776 7.50001 5.10444 7.50001 5.5C7.49934 6.03023 7.28842 6.53855 6.91349 6.91348C6.53856 7.28841 6.03024 7.49934 5.50001 7.5Z" fill="#FD8344"/>
</svg>
