<svg width="15" height="23" viewBox="0 0 15 23" fill="none" xmlns="http://www.w3.org/2000/svg">
<path fill-rule="evenodd" clip-rule="evenodd" d="M7.5 1.43742C5.9087 1.43742 4.38258 2.04322 3.25736 3.12156C2.13214 4.1999 1.5 5.66244 1.5 7.18744C1.5 8.71244 2.13214 10.175 3.25736 11.2533C4.38258 12.3317 5.9087 12.9375 7.5 12.9375C9.0913 12.9375 10.6174 12.3317 11.7426 11.2533C12.8679 10.175 13.5 8.71244 13.5 7.18744C13.5 5.66244 12.8679 4.1999 11.7426 3.12156C10.6174 2.04322 9.0913 1.43742 7.5 1.43742ZM5.92509e-10 7.18744C1.82341e-05 5.79653 0.421157 4.4355 1.21234 3.26943C2.00352 2.10335 3.13076 1.18232 4.45734 0.618048C5.78392 0.0537723 7.25284 -0.129509 8.68596 0.0904333C10.1191 0.310375 11.4548 0.924091 12.5312 1.85715C13.6076 2.79021 14.3783 4.00252 14.7499 5.34706C15.1216 6.69159 15.0782 8.11059 14.625 9.43195C14.1717 10.7533 13.3282 11.9203 12.1966 12.7913C11.0651 13.6623 9.6941 14.1999 8.25 14.339V17.25H11.25C11.4489 17.25 11.6397 17.3257 11.7803 17.4605C11.921 17.5953 12 17.7781 12 17.9687C12 18.1594 11.921 18.3422 11.7803 18.477C11.6397 18.6118 11.4489 18.6875 11.25 18.6875H8.25V22.2812C8.25 22.4719 8.17098 22.6547 8.03033 22.7895C7.88968 22.9243 7.69891 23 7.5 23C7.30109 23 7.11032 22.9243 6.96967 22.7895C6.82902 22.6547 6.75 22.4719 6.75 22.2812V18.6875H3.75C3.55109 18.6875 3.36032 18.6118 3.21967 18.477C3.07902 18.3422 3 18.1594 3 17.9687C3 17.7781 3.07902 17.5953 3.21967 17.4605C3.36032 17.3257 3.55109 17.25 3.75 17.25H6.75V14.339C4.90003 14.1608 3.18506 13.3305 1.93782 12.009C0.690576 10.6876 -2.33575e-05 8.96927 5.92509e-10 7.18744Z" fill="#FFA8A1"/>
</svg>
