<svg width="79" height="79" viewBox="0 0 79 79" fill="none" xmlns="http://www.w3.org/2000/svg">
<path d="M74.0625 39.5C74.0625 46.3358 72.0354 53.0181 68.2377 58.7019C64.4399 64.3857 59.042 68.8156 52.7265 71.4316C46.411 74.0475 39.4617 74.732 32.7572 73.3984C26.0527 72.0648 19.8943 68.773 15.0606 63.9394C10.227 59.1057 6.93521 52.9473 5.60161 46.2428C4.26801 39.5383 4.95246 32.589 7.56841 26.2735C10.1844 19.958 14.6143 14.5601 20.2981 10.7623C25.9819 6.96456 32.6642 4.9375 39.5 4.9375C48.6665 4.9375 57.4577 8.5789 63.9394 15.0606C70.4211 21.5423 74.0625 30.3335 74.0625 39.5ZM59.25 37.0312H29.2547L43.0303 23.189L39.5 19.75L19.75 39.5L39.5 59.25L43.0303 55.7271L29.2547 41.9688H59.25V37.0312Z" fill="#8F7FAC"/>
</svg>
