<svg width="32" height="33" viewBox="0 0 32 33" fill="none" xmlns="http://www.w3.org/2000/svg">
<path d="M31.3074 3.87057C31.5091 4.0729 31.6224 4.34694 31.6224 4.63264C31.6224 4.91833 31.5091 5.19238 31.3074 5.39471L29.0558 7.64854L24.7381 3.33086L26.9898 1.07703C27.1922 0.874666 27.4667 0.760986 27.7529 0.760986C28.0391 0.760986 28.3136 0.874666 28.5161 1.07703L31.3074 3.86841V3.87057ZM27.5295 9.17268L23.2118 4.855L8.50359 19.5653C8.38477 19.6841 8.29533 19.829 8.24237 19.9885L6.5045 25.1999C6.47298 25.2949 6.46851 25.3968 6.49158 25.4942C6.51465 25.5916 6.56435 25.6807 6.63513 25.7515C6.70591 25.8223 6.79498 25.872 6.89238 25.895C6.98979 25.9181 7.09169 25.9136 7.1867 25.8821L12.3981 24.1443C12.5574 24.0919 12.7023 24.0032 12.8213 23.8852L27.5295 9.17484V9.17268Z" fill="#434343"/>
<path fill-rule="evenodd" clip-rule="evenodd" d="M0 28.8268C0 29.6857 0.341173 30.5093 0.948465 31.1166C1.55576 31.7239 2.37942 32.0651 3.23826 32.0651H26.9855C27.8444 32.0651 28.668 31.7239 29.2753 31.1166C29.8826 30.5093 30.2238 29.6857 30.2238 28.8268V15.8738C30.2238 15.5875 30.1101 15.3129 29.9076 15.1105C29.7052 14.9081 29.4306 14.7944 29.1444 14.7944C28.8581 14.7944 28.5835 14.9081 28.3811 15.1105C28.1787 15.3129 28.0649 15.5875 28.0649 15.8738V28.8268C28.0649 29.1131 27.9512 29.3877 27.7488 29.5901C27.5464 29.7925 27.2718 29.9063 26.9855 29.9063H3.23826C2.95198 29.9063 2.67743 29.7925 2.475 29.5901C2.27257 29.3877 2.15884 29.1131 2.15884 28.8268V5.07957C2.15884 4.79329 2.27257 4.51874 2.475 4.31631C2.67743 4.11387 2.95198 4.00015 3.23826 4.00015H17.2707C17.557 4.00015 17.8316 3.88643 18.034 3.684C18.2364 3.48156 18.3502 3.20701 18.3502 2.92073C18.3502 2.63445 18.2364 2.35989 18.034 2.15746C17.8316 1.95503 17.557 1.84131 17.2707 1.84131H3.23826C2.37942 1.84131 1.55576 2.18248 0.948465 2.78977C0.341173 3.39707 0 4.22073 0 5.07957V28.8268Z" fill="#434343"/>
</svg>
