<svg width="19" height="14" viewBox="0 0 19 14" fill="none" xmlns="http://www.w3.org/2000/svg">
<path d="M17.141 -0.000488281H1.74469C1.40441 -0.000488281 1.07807 0.139987 0.837459 0.390036C0.596845 0.640084 0.46167 0.979222 0.46167 1.33284V11.9995C0.46167 12.3531 0.596845 12.6923 0.837459 12.9423C1.07807 13.1924 1.40441 13.3328 1.74469 13.3328H17.141C17.4812 13.3328 17.8076 13.1924 18.0482 12.9423C18.2888 12.6923 18.424 12.3531 18.424 11.9995V1.33284C18.424 0.979222 18.2888 0.640084 18.0482 0.390036C17.8076 0.139987 17.4812 -0.000488281 17.141 -0.000488281ZM15.7296 1.33284L9.44283 5.85284L3.15602 1.33284H15.7296ZM1.74469 11.9995V1.93951L9.07717 7.21284C9.18456 7.29026 9.31213 7.33174 9.44283 7.33174C9.57353 7.33174 9.70111 7.29026 9.80849 7.21284L17.141 1.93951V11.9995H1.74469Z" fill="white"/>
</svg>
