<svg width="34" height="33" viewBox="0 0 34 33" fill="none" xmlns="http://www.w3.org/2000/svg">
<path d="M31.8181 14.3366H7.44576L18.0936 3.72406C18.9446 2.87593 18.9446 1.48411 18.0936 0.635979C17.8918 0.434376 17.652 0.274432 17.3881 0.165302C17.1241 0.0561721 16.8411 0 16.5554 0C16.2696 0 15.9866 0.0561721 15.7227 0.165302C15.4587 0.274432 15.219 0.434376 15.0171 0.635979L0.638097 14.9673C0.435823 15.1685 0.275346 15.4075 0.165853 15.6705C0.05636 15.9336 0 16.2156 0 16.5005C0 16.7853 0.05636 17.0673 0.165853 17.3304C0.275346 17.5935 0.435823 17.8324 0.638097 18.0336L15.0171 32.3649C15.2191 32.5663 15.4589 32.726 15.7229 32.835C15.9868 32.9439 16.2697 33 16.5554 33C16.8411 33 17.1239 32.9439 17.3879 32.835C17.6518 32.726 17.8916 32.5663 18.0936 32.3649C18.2956 32.1636 18.4559 31.9246 18.5652 31.6615C18.6745 31.3985 18.7308 31.1165 18.7308 30.8318C18.7308 30.547 18.6745 30.2651 18.5652 30.002C18.4559 29.739 18.2956 29.4999 18.0936 29.2986L7.44576 18.686H31.8181C33.0181 18.686 34 17.7074 34 16.5113C34 15.3152 33.0181 14.3366 31.8181 14.3366Z" fill="black"/>
</svg>
