<svg width="18" height="18" viewBox="0 0 18 18" fill="none" xmlns="http://www.w3.org/2000/svg">
<path d="M16.9163 2.22642C17.0252 2.33568 17.0864 2.48365 17.0864 2.63792C17.0864 2.79218 17.0252 2.94015 16.9163 3.04941L15.7005 4.26639L13.3691 1.935L14.5849 0.718013C14.6942 0.608746 14.8424 0.547363 14.997 0.547363C15.1515 0.547363 15.2998 0.608746 15.4091 0.718013L16.9163 2.22526V2.22642ZM14.8763 5.08938L12.5449 2.75798L4.60305 10.701C4.53889 10.7652 4.49059 10.8434 4.462 10.9295L3.52361 13.7435C3.50659 13.7948 3.50418 13.8498 3.51663 13.9024C3.52909 13.955 3.55593 14.0031 3.59415 14.0413C3.63236 14.0796 3.68046 14.1064 3.73305 14.1188C3.78565 14.1313 3.84067 14.1289 3.89197 14.1119L6.70596 13.1735C6.79195 13.1452 6.87018 13.0973 6.93444 13.0336L14.8763 5.09054V5.08938Z" fill="black"/>
<path fill-rule="evenodd" clip-rule="evenodd" d="M0.0109863 15.7021C0.0109863 16.1658 0.195208 16.6106 0.523123 16.9385C0.851039 17.2664 1.29579 17.4506 1.75953 17.4506H14.5822C15.0459 17.4506 15.4907 17.2664 15.8186 16.9385C16.1465 16.6106 16.3307 16.1658 16.3307 15.7021V8.70789C16.3307 8.55331 16.2693 8.40506 16.16 8.29575C16.0507 8.18645 15.9025 8.12504 15.7479 8.12504C15.5933 8.12504 15.4451 8.18645 15.3358 8.29575C15.2264 8.40506 15.165 8.55331 15.165 8.70789V15.7021C15.165 15.8566 15.1036 16.0049 14.9943 16.1142C14.885 16.2235 14.7368 16.2849 14.5822 16.2849H1.75953C1.60495 16.2849 1.4567 16.2235 1.3474 16.1142C1.23809 16.0049 1.17668 15.8566 1.17668 15.7021V2.8794C1.17668 2.72482 1.23809 2.57657 1.3474 2.46727C1.4567 2.35796 1.60495 2.29656 1.75953 2.29656H9.33656C9.49114 2.29656 9.63939 2.23515 9.74869 2.12584C9.858 2.01654 9.91941 1.86829 9.91941 1.71371C9.91941 1.55913 9.858 1.41088 9.74869 1.30157C9.63939 1.19227 9.49114 1.13086 9.33656 1.13086H1.75953C1.29579 1.13086 0.851039 1.31508 0.523123 1.643C0.195208 1.97091 0.0109863 2.41566 0.0109863 2.8794V15.7021Z" fill="black"/>
</svg>
