<svg width="17" height="17" viewBox="0 0 17 17" fill="none" xmlns="http://www.w3.org/2000/svg">
<path fill-rule="evenodd" clip-rule="evenodd" d="M12.3551 7.17911L12.3571 4.64948C12.3588 2.55431 10.6609 0.853668 8.56569 0.851985C6.47052 0.850302 4.76988 2.54821 4.7682 4.64338L4.76616 7.17301L2.86894 7.17148L2.86183 16.0252L14.2452 16.0343L14.2523 7.18063L12.3551 7.17911ZM9.18881 12.0608L9.18766 13.5008L7.92284 13.4998L7.924 12.0598C7.54789 11.8401 7.29209 11.437 7.29247 10.9697C7.29303 10.2715 7.86012 9.70531 8.5583 9.70587C9.25648 9.70643 9.82266 10.2735 9.8221 10.9717C9.82172 11.4384 9.56591 11.8417 9.18881 12.0608ZM6.0325 4.64444L6.03047 7.17406L11.0897 7.17813L11.0918 4.6485C11.0929 3.25341 9.95862 2.11796 8.56417 2.11684C7.16908 2.11572 6.03363 3.24935 6.0325 4.64444Z" fill="#1A1A1A"/>
</svg>
