<svg width="437" height="273" viewBox="0 0 437 273" fill="none" xmlns="http://www.w3.org/2000/svg">
<path d="M220.113 162V130.096C97.9984 92.7093 118.506 24.4155 202.402 8.46367C286.297 -7.48816 444.457 -3.41879 435.647 76.6775C430.427 124.134 318.613 142.559 263.925 135.081L220.113 162Z" fill="white" stroke="#C8C8C8"/>
<path d="M168.363 129.067C167.545 126.651 164.875 124.581 161.946 124.696C158.759 124.811 156.692 126.536 155.529 129.067C151.437 137.886 147.302 146.744 143.211 155.563C142.22 157.672 141.273 159.743 140.282 161.852C139.636 163.27 139.981 162.427 140.153 162.158C139.981 162.465 139.722 162.81 139.55 163.117C137.439 163.194 135.2 162.887 133.133 162.734C130.29 162.542 127.447 162.35 124.562 162.197C113.88 161.507 103.199 160.816 92.4749 160.126C87.5219 159.819 82.2675 159.858 77.3576 159.129C77.5299 159.129 76.4961 158.938 76.3239 158.899C76.1516 158.861 76.0224 158.822 76.0224 158.861C75.9363 158.822 75.8932 158.784 75.8071 158.746C75.9363 158.822 76.0224 158.861 76.0224 158.861C75.9793 158.861 75.6779 158.669 75.5056 158.554C75.5487 158.592 75.118 158.132 74.8595 157.864C74.6442 157.557 74.2566 157.02 74.2996 157.059C74.0843 156.714 73.869 156.407 73.6967 156.062C73.1368 155.103 72.6199 154.144 72.103 153.186C66.8486 143.408 61.551 133.668 56.2966 123.89C55.1768 121.782 52.0758 120.746 49.6639 121.053C46.9505 121.36 44.9693 123.047 44.1079 125.309C32.2638 156.56 23.5638 188.693 18.094 221.286C16.845 228.61 15.7682 235.972 14.8638 243.334C32.6945 257.675 55.2199 266.954 79.0804 270.636C111.426 275.582 145.278 271.287 175.211 259.439C189.726 253.687 202.56 245.405 211.907 233.901C206.824 223.663 202.13 213.617 197.478 203.149C186.582 178.838 176.891 154.106 168.363 129.067Z" fill="#FBCF78"/>
<path d="M218.195 183.44C216.515 180.909 211.95 179.375 209.064 181.293C192.526 192.259 175.427 202.459 157.726 211.853C154.625 213.502 153.505 217.183 155.314 219.982C157.123 222.743 161.343 223.779 164.444 222.13C182.146 212.735 199.245 202.536 215.783 191.569C218.712 189.652 220.176 186.431 218.195 183.44Z" fill="#434343"/>
<path d="M220.132 210.281C218.28 207.444 214.188 206.6 211.001 208.134C197.262 214.767 183.222 220.826 168.879 226.309C165.563 227.575 164.831 231.908 166.468 234.438C168.492 237.506 172.282 237.851 175.598 236.586C189.94 231.102 204.024 225.044 217.72 218.41C220.907 216.876 221.898 213.004 220.132 210.281Z" fill="#434343"/>
<path d="M52.7637 226.616C39.8429 216.109 26.9221 205.603 14.0012 195.096C11.3309 192.949 7.1963 192.757 4.56906 195.096C2.1141 197.282 1.89876 201.347 4.56906 203.494C17.4899 214 30.4107 224.507 43.3316 235.013C46.0019 237.161 50.1365 237.352 52.7637 235.013C55.2618 232.828 55.434 228.763 52.7637 226.616Z" fill="#434343"/>
<path d="M40.2748 239.96C30.6272 233.058 21.0227 226.156 11.3751 219.254C8.5756 217.26 4.65632 216.8 1.94295 219.254C-0.382804 221.324 -0.899637 225.619 1.94295 227.651C11.5905 234.553 21.195 241.455 30.8426 248.357C33.6421 250.351 37.5614 250.811 40.2748 248.357C42.6005 246.287 43.0743 241.992 40.2748 239.96Z" fill="#434343"/>
<path d="M52.6355 194.713C49.1469 194.713 45.7874 197.436 45.9597 200.657C46.132 203.878 48.8884 206.6 52.6355 206.6C56.1241 206.6 59.4835 203.878 59.3113 200.657C59.139 197.436 56.3825 194.713 52.6355 194.713Z" fill="#434343"/>
<path d="M164.013 195.71C163.754 194.981 163.28 194.33 162.634 193.793C162.031 193.218 161.299 192.796 160.481 192.566C159.706 192.182 158.844 192.029 157.897 192.067C157.294 192.144 156.734 192.221 156.131 192.297C155.011 192.566 154.02 193.103 153.202 193.831C152.858 194.215 152.513 194.636 152.168 195.02C151.566 195.94 151.264 196.937 151.264 198.011V198.547C151.221 199.353 151.436 200.12 151.824 200.848C152.082 201.577 152.556 202.229 153.202 202.765C153.805 203.341 154.537 203.762 155.356 203.992C156.131 204.376 156.992 204.529 157.94 204.491C158.543 204.414 159.103 204.338 159.706 204.261C160.825 203.992 161.816 203.456 162.634 202.727C162.979 202.344 163.323 201.922 163.668 201.538C164.271 200.618 164.573 199.621 164.573 198.547V198.011C164.616 197.205 164.4 196.439 164.013 195.71Z" fill="#434343"/>
<path d="M57.0286 142.603C56.8994 142.373 56.7272 142.181 56.5549 141.989C55.7797 140.724 54.5306 139.765 52.7217 139.382C49.4915 138.73 45.0985 140.264 44.4955 143.523C43.591 148.508 42.988 153.531 42.8157 158.631C42.6865 162.81 47.1658 164.996 51.2574 164.344C55.995 163.615 61.1634 161.161 62.2832 156.637C63.4891 151.767 59.6989 146.59 57.0286 142.603Z" fill="#FEA273"/>
<path d="M168.192 144.712C168.105 144.443 168.019 144.175 167.89 143.945C167.718 143.216 167.546 142.526 167.373 141.836C166.77 139.727 165.047 138.385 163.023 137.848C159.578 136.544 154.969 137.58 153.849 141.529C153.591 142.373 153.376 143.255 153.117 144.098C152.859 144.635 152.643 145.21 152.471 145.785C150.921 148.815 150.102 151.997 150.016 155.372C149.973 157.672 152.127 160.74 154.926 161.085C160.353 161.737 167.589 163.616 170.345 157.787C172.197 153.838 169.441 148.623 168.192 144.712Z" fill="#FEA273"/>
<path d="M120.254 234.074C117.363 230.438 114.911 226.569 112.825 222.5C114.215 221.699 115.24 220.365 115.46 218.797C115.862 216.095 114.069 214.06 111.397 213.126C108.213 211.992 104.956 211.992 101.625 212.459C100.454 212.626 99.4661 213.293 98.7341 214.16C97.4531 215.128 96.6114 216.562 96.6846 218.096C96.7578 219.864 97.7459 221.432 99.2099 222.399C98.0021 224.468 96.7944 226.536 95.5866 228.637L92.8417 233.307C92.4025 234.074 91.8901 234.842 91.4875 235.642C90.6457 237.177 90.4993 238.377 90.7555 240.045C91.0849 242.113 93.9762 244.015 96.2088 243.848C97.4165 243.748 98.4047 243.648 99.4295 243.014C100.893 242.147 101.845 240.812 102.138 239.345C103.382 237.177 104.663 235.042 105.907 232.873C107.298 235.075 108.799 237.243 110.409 239.311C112.202 241.58 115.35 242.68 118.168 241.179C120.657 239.845 122.048 236.343 120.254 234.074Z" fill="#434343"/>
<path d="M113.364 209.552C110.694 208.709 107.722 208.325 104.879 208.287C102.037 208.249 98.4189 208.364 95.9208 209.706C91.9154 211.853 90.8386 216.263 93.552 219.599C95.2317 221.669 97.902 223.203 100.228 224.622C101.821 225.581 103.975 225.657 105.827 225.082C108.669 225.542 111.727 225.197 114.484 224.047C117.154 222.935 119.48 220.787 120.212 218.218C121.547 213.77 117.585 210.856 113.364 209.552Z" fill="#FEA273"/>
<path d="M178.703 196.908C179.378 195.021 178.309 192.716 176.443 191.673C168.386 187.184 160.492 182.35 152.762 177.169C150.975 175.97 148.668 177.098 148.06 178.773C147.338 180.824 148.534 182.81 150.32 184.009C158.05 189.19 165.959 194.046 174.001 198.513C175.868 199.556 178.051 198.714 178.703 196.908Z" fill="#434343"/>
<path d="M34.0081 198.176C33.3328 196.289 34.4016 193.984 36.2682 192.941C44.3253 188.452 52.2189 183.617 59.9492 178.436C61.7355 177.238 64.0432 178.365 64.651 180.041C65.3731 182.092 64.1772 184.078 62.3909 185.277C54.6606 190.457 46.7515 195.313 38.7099 199.781C36.8433 200.824 34.6601 199.981 34.0081 198.176Z" fill="#434343"/>
<path d="M205.984 44C205.517 44 205.157 43.8733 204.904 43.62C204.65 43.3667 204.524 43.0067 204.524 42.54V31.36C204.524 30.8933 204.65 30.5333 204.904 30.28C205.157 30.0267 205.517 29.9 205.984 29.9H210.004C211.537 29.9 212.857 30.18 213.964 30.74C215.07 31.3 215.917 32.1067 216.504 33.16C217.09 34.2133 217.384 35.4733 217.384 36.94C217.384 38.4067 217.09 39.6733 216.504 40.74C215.93 41.7933 215.09 42.6 213.984 43.16C212.877 43.72 211.55 44 210.004 44H205.984ZM209.784 41.48C212.784 41.48 214.284 39.9667 214.284 36.94C214.284 33.9267 212.784 32.42 209.784 32.42H207.644V41.48H209.784ZM221.438 44C220.971 44 220.611 43.8733 220.358 43.62C220.104 43.3667 219.978 43.0067 219.978 42.54V31.36C219.978 30.8933 220.104 30.5333 220.358 30.28C220.611 30.0267 220.971 29.9 221.438 29.9H228.518C229.504 29.9 229.998 30.3 229.998 31.1C229.998 31.9133 229.504 32.32 228.518 32.32H223.018V35.62H228.118C229.104 35.62 229.598 36.0267 229.598 36.84C229.598 37.64 229.104 38.04 228.118 38.04H223.018V41.58H228.518C229.504 41.58 229.998 41.9867 229.998 42.8C229.998 43.6 229.504 44 228.518 44H221.438ZM236.918 44.18C235.865 44.18 234.885 44.06 233.978 43.82C233.071 43.5667 232.331 43.2133 231.758 42.76C231.558 42.6133 231.411 42.46 231.318 42.3C231.238 42.1267 231.198 41.9133 231.198 41.66C231.198 41.3267 231.298 41.0333 231.498 40.78C231.711 40.5267 231.951 40.4 232.218 40.4C232.365 40.4 232.505 40.4267 232.638 40.48C232.785 40.52 232.958 40.6 233.158 40.72C233.731 41.08 234.311 41.3467 234.898 41.52C235.485 41.68 236.131 41.76 236.838 41.76C237.718 41.76 238.391 41.6133 238.858 41.32C239.325 41.0267 239.558 40.6067 239.558 40.06C239.558 39.6467 239.338 39.3133 238.898 39.06C238.471 38.8067 237.705 38.5667 236.598 38.34C235.358 38.0867 234.365 37.78 233.618 37.42C232.885 37.06 232.345 36.6133 231.998 36.08C231.665 35.5467 231.498 34.9 231.498 34.14C231.498 33.3 231.738 32.5467 232.218 31.88C232.711 31.2 233.385 30.6733 234.238 30.3C235.105 29.9133 236.078 29.72 237.158 29.72C239.051 29.72 240.611 30.1933 241.838 31.14C242.038 31.3 242.178 31.4667 242.258 31.64C242.351 31.8 242.398 32 242.398 32.24C242.398 32.5733 242.291 32.8667 242.078 33.12C241.878 33.3733 241.645 33.5 241.378 33.5C241.231 33.5 241.091 33.48 240.958 33.44C240.838 33.4 240.665 33.3133 240.438 33.18C239.891 32.8333 239.385 32.5733 238.918 32.4C238.465 32.2267 237.885 32.14 237.178 32.14C236.365 32.14 235.725 32.3 235.258 32.62C234.791 32.9267 234.558 33.3533 234.558 33.9C234.558 34.22 234.645 34.4867 234.818 34.7C235.005 34.9 235.305 35.08 235.718 35.24C236.145 35.4 236.745 35.5667 237.518 35.74C239.331 36.14 240.631 36.6533 241.418 37.28C242.218 37.9067 242.618 38.7667 242.618 39.86C242.618 40.7133 242.378 41.4667 241.898 42.12C241.431 42.7733 240.765 43.28 239.898 43.64C239.045 44 238.051 44.18 236.918 44.18ZM251.545 44.18C250.159 44.18 248.945 43.8867 247.905 43.3C246.865 42.7133 246.065 41.8733 245.505 40.78C244.945 39.6867 244.665 38.4067 244.665 36.94C244.665 35.4733 244.945 34.2 245.505 33.12C246.065 32.0267 246.865 31.1867 247.905 30.6C248.945 30.0133 250.159 29.72 251.545 29.72C253.292 29.72 254.799 30.2 256.065 31.16C256.265 31.32 256.405 31.48 256.485 31.64C256.565 31.8 256.605 32 256.605 32.24C256.605 32.5867 256.505 32.8867 256.305 33.14C256.119 33.38 255.885 33.5 255.605 33.5C255.419 33.5 255.252 33.48 255.105 33.44C254.972 33.3867 254.819 33.3 254.645 33.18C254.112 32.8333 253.619 32.5867 253.165 32.44C252.712 32.28 252.225 32.2 251.705 32.2C250.425 32.2 249.459 32.6 248.805 33.4C248.165 34.1867 247.845 35.3667 247.845 36.94C247.845 40.1133 249.132 41.7 251.705 41.7C252.199 41.7 252.665 41.6267 253.105 41.48C253.545 41.32 254.059 41.0667 254.645 40.72C254.845 40.6 255.012 40.52 255.145 40.48C255.279 40.4267 255.432 40.4 255.605 40.4C255.885 40.4 256.119 40.5267 256.305 40.78C256.505 41.02 256.605 41.3133 256.605 41.66C256.605 41.9 256.559 42.1067 256.465 42.28C256.385 42.44 256.252 42.5933 256.065 42.74C254.799 43.7 253.292 44.18 251.545 44.18ZM264.8 44.18C262.827 44.18 261.32 43.6733 260.28 42.66C259.253 41.6333 258.74 40.14 258.74 38.18V31.34C258.74 30.8733 258.88 30.5 259.16 30.22C259.44 29.94 259.813 29.8 260.28 29.8C260.747 29.8 261.113 29.94 261.38 30.22C261.66 30.5 261.8 30.8733 261.8 31.34V38.32C261.8 39.44 262.053 40.2933 262.56 40.88C263.08 41.4667 263.827 41.76 264.8 41.76C265.773 41.76 266.52 41.4667 267.04 40.88C267.56 40.28 267.82 39.4267 267.82 38.32V31.34C267.82 30.8733 267.953 30.5 268.22 30.22C268.5 29.94 268.873 29.8 269.34 29.8C269.807 29.8 270.18 29.94 270.46 30.22C270.74 30.5 270.88 30.8733 270.88 31.34V38.18C270.88 40.1267 270.36 41.6133 269.32 42.64C268.28 43.6667 266.773 44.18 264.8 44.18ZM275.265 44C274.798 44 274.438 43.8733 274.185 43.62C273.932 43.3667 273.805 43.0067 273.805 42.54V31.34C273.805 30.8733 273.945 30.5 274.225 30.22C274.505 29.94 274.885 29.8 275.365 29.8C275.845 29.8 276.225 29.94 276.505 30.22C276.785 30.5 276.925 30.8733 276.925 31.34V41.46H282.045C283.018 41.46 283.505 41.8867 283.505 42.74C283.505 43.58 283.018 44 282.045 44H275.265ZM286.835 44.12C286.355 44.12 285.975 43.98 285.695 43.7C285.415 43.42 285.275 43.04 285.275 42.56V31.36C285.275 30.8933 285.401 30.5333 285.655 30.28C285.908 30.0267 286.268 29.9 286.735 29.9H291.755C293.288 29.9 294.481 30.2867 295.335 31.06C296.188 31.8333 296.615 32.9133 296.615 34.3C296.615 35.6867 296.188 36.7667 295.335 37.54C294.481 38.3133 293.288 38.7 291.755 38.7H288.395V42.56C288.395 43.04 288.255 43.42 287.975 43.7C287.695 43.98 287.315 44.12 286.835 44.12ZM291.355 36.34C292.915 36.34 293.695 35.6667 293.695 34.32C293.695 32.96 292.915 32.28 291.355 32.28H288.395V36.34H291.355ZM300.294 44C299.827 44 299.467 43.8733 299.214 43.62C298.961 43.3667 298.834 43.0067 298.834 42.54V31.36C298.834 30.8933 298.961 30.5333 299.214 30.28C299.467 30.0267 299.827 29.9 300.294 29.9H307.374C308.361 29.9 308.854 30.3 308.854 31.1C308.854 31.9133 308.361 32.32 307.374 32.32H301.874V35.62H306.974C307.961 35.62 308.454 36.0267 308.454 36.84C308.454 37.64 307.961 38.04 306.974 38.04H301.874V41.58H307.374C308.361 41.58 308.854 41.9867 308.854 42.8C308.854 43.6 308.361 44 307.374 44H300.294ZM312.225 40.68C312.758 40.68 313.185 40.8733 313.505 41.26C313.825 41.6333 313.985 42.18 313.985 42.9C313.985 44.2867 313.485 45.5 312.485 46.54C312.285 46.74 312.071 46.84 311.845 46.84C311.618 46.84 311.418 46.76 311.245 46.6C311.085 46.4533 311.005 46.2733 311.005 46.06C311.005 45.86 311.078 45.6867 311.225 45.54C311.665 45.0867 311.958 44.58 312.105 44.02C311.651 43.98 311.285 43.8133 311.005 43.52C310.725 43.2267 310.585 42.8533 310.585 42.4C310.585 41.9067 310.738 41.5 311.045 41.18C311.365 40.8467 311.758 40.68 312.225 40.68ZM333.026 29.8C333.466 29.8 333.819 29.9467 334.086 30.24C334.366 30.52 334.506 30.8867 334.506 31.34V42.56C334.506 43.0267 334.366 43.4067 334.086 43.7C333.819 43.98 333.466 44.12 333.026 44.12C332.546 44.12 332.159 43.9467 331.866 43.6L325.166 35.02V42.56C325.166 43.0267 325.033 43.4067 324.766 43.7C324.513 43.98 324.166 44.12 323.726 44.12C323.286 44.12 322.933 43.98 322.666 43.7C322.399 43.4067 322.266 43.0267 322.266 42.56V31.34C322.266 30.8867 322.399 30.52 322.666 30.24C322.946 29.9467 323.306 29.8 323.746 29.8C324.239 29.8 324.619 29.9733 324.886 30.32L331.586 38.84V31.34C331.586 30.8867 331.719 30.52 331.986 30.24C332.253 29.9467 332.599 29.8 333.026 29.8ZM350.645 42.1C350.752 42.34 350.805 42.5533 350.805 42.74C350.805 43.1133 350.652 43.4333 350.345 43.7C350.052 43.9533 349.712 44.08 349.325 44.08C349.072 44.08 348.832 44.0133 348.605 43.88C348.378 43.7333 348.205 43.52 348.085 43.24L347.025 40.88H340.245L339.185 43.24C339.065 43.52 338.892 43.7333 338.665 43.88C338.452 44.0133 338.212 44.08 337.945 44.08C337.558 44.08 337.212 43.9533 336.905 43.7C336.598 43.4333 336.445 43.1133 336.445 42.74C336.445 42.5533 336.498 42.34 336.605 42.1L342.005 30.76C342.152 30.44 342.372 30.2 342.665 30.04C342.958 29.8667 343.272 29.78 343.605 29.78C343.952 29.78 344.272 29.8667 344.565 30.04C344.858 30.2133 345.085 30.4533 345.245 30.76L350.645 42.1ZM341.305 38.52H345.965L343.645 33.32L341.305 38.52ZM345.105 28.38C344.798 28.38 344.472 28.3333 344.125 28.24C343.792 28.1467 343.598 28.0933 343.545 28.08C342.945 27.88 342.472 27.78 342.125 27.78C341.978 27.78 341.858 27.8067 341.765 27.86C341.672 27.9133 341.572 27.9933 341.465 28.1C341.345 28.22 341.238 28.3067 341.145 28.36C341.065 28.4133 340.952 28.44 340.805 28.44C340.618 28.44 340.465 28.38 340.345 28.26C340.238 28.1267 340.185 27.9533 340.185 27.74C340.185 27.46 340.265 27.1733 340.425 26.88C340.598 26.5867 340.832 26.3467 341.125 26.16C341.418 25.96 341.745 25.86 342.105 25.86C342.412 25.86 342.732 25.9067 343.065 26C343.412 26.0933 343.612 26.1467 343.665 26.16C344.265 26.36 344.738 26.46 345.085 26.46C345.232 26.46 345.345 26.4333 345.425 26.38C345.518 26.3267 345.625 26.2467 345.745 26.14C345.852 26.0333 345.952 25.9533 346.045 25.9C346.138 25.8467 346.258 25.82 346.405 25.82C346.605 25.82 346.758 25.88 346.865 26C346.972 26.12 347.025 26.2867 347.025 26.5C347.025 26.78 346.938 27.0667 346.765 27.36C346.605 27.6533 346.378 27.9 346.085 28.1C345.792 28.2867 345.465 28.38 345.105 28.38ZM358.814 44.18C357.414 44.18 356.194 43.8867 355.154 43.3C354.127 42.7 353.334 41.86 352.774 40.78C352.214 39.6867 351.934 38.4067 351.934 36.94C351.934 35.4733 352.214 34.2 352.774 33.12C353.334 32.0267 354.127 31.1867 355.154 30.6C356.194 30.0133 357.414 29.72 358.814 29.72C360.214 29.72 361.427 30.0133 362.454 30.6C363.494 31.1867 364.294 32.0267 364.854 33.12C365.414 34.2 365.694 35.4733 365.694 36.94C365.694 38.4067 365.414 39.6867 364.854 40.78C364.294 41.86 363.494 42.7 362.454 43.3C361.427 43.8867 360.214 44.18 358.814 44.18ZM358.814 41.76C359.987 41.76 360.907 41.3467 361.574 40.52C362.254 39.6933 362.594 38.5 362.594 36.94C362.594 35.38 362.261 34.1933 361.594 33.38C360.927 32.5533 360.001 32.14 358.814 32.14C357.627 32.14 356.701 32.5533 356.034 33.38C355.381 34.1933 355.054 35.38 355.054 36.94C355.054 38.5 355.387 39.6933 356.054 40.52C356.721 41.3467 357.641 41.76 358.814 41.76ZM172.596 71C172.129 71 171.769 70.8733 171.516 70.62C171.262 70.3667 171.136 70.0067 171.136 69.54V58.36C171.136 57.8933 171.262 57.5333 171.516 57.28C171.769 57.0267 172.129 56.9 172.596 56.9H179.676C180.662 56.9 181.156 57.3 181.156 58.1C181.156 58.9133 180.662 59.32 179.676 59.32H174.176V62.62H179.276C180.262 62.62 180.756 63.0267 180.756 63.84C180.756 64.64 180.262 65.04 179.276 65.04H174.176V68.58H179.676C180.662 68.58 181.156 68.9867 181.156 69.8C181.156 70.6 180.662 71 179.676 71H172.596ZM193.951 56.8C194.391 56.8 194.744 56.9467 195.011 57.24C195.291 57.52 195.431 57.8867 195.431 58.34V69.56C195.431 70.0267 195.291 70.4067 195.011 70.7C194.744 70.98 194.391 71.12 193.951 71.12C193.471 71.12 193.084 70.9467 192.791 70.6L186.091 62.02V69.56C186.091 70.0267 185.958 70.4067 185.691 70.7C185.438 70.98 185.091 71.12 184.651 71.12C184.211 71.12 183.858 70.98 183.591 70.7C183.324 70.4067 183.191 70.0267 183.191 69.56V58.34C183.191 57.8867 183.324 57.52 183.591 57.24C183.871 56.9467 184.231 56.8 184.671 56.8C185.164 56.8 185.544 56.9733 185.811 57.32L192.511 65.84V58.34C192.511 57.8867 192.644 57.52 192.911 57.24C193.178 56.9467 193.524 56.8 193.951 56.8ZM204.91 71.18C203.523 71.18 202.31 70.8867 201.27 70.3C200.23 69.7133 199.43 68.8733 198.87 67.78C198.31 66.6867 198.03 65.4067 198.03 63.94C198.03 62.4733 198.31 61.2 198.87 60.12C199.43 59.0267 200.23 58.1867 201.27 57.6C202.31 57.0133 203.523 56.72 204.91 56.72C206.657 56.72 208.163 57.2 209.43 58.16C209.63 58.32 209.77 58.48 209.85 58.64C209.93 58.8 209.97 59 209.97 59.24C209.97 59.5867 209.87 59.8867 209.67 60.14C209.483 60.38 209.25 60.5 208.97 60.5C208.783 60.5 208.617 60.48 208.47 60.44C208.337 60.3867 208.183 60.3 208.01 60.18C207.477 59.8333 206.983 59.5867 206.53 59.44C206.077 59.28 205.59 59.2 205.07 59.2C203.79 59.2 202.823 59.6 202.17 60.4C201.53 61.1867 201.21 62.3667 201.21 63.94C201.21 67.1133 202.497 68.7 205.07 68.7C205.563 68.7 206.03 68.6267 206.47 68.48C206.91 68.32 207.423 68.0667 208.01 67.72C208.21 67.6 208.377 67.52 208.51 67.48C208.643 67.4267 208.797 67.4 208.97 67.4C209.25 67.4 209.483 67.5267 209.67 67.78C209.87 68.02 209.97 68.3133 209.97 68.66C209.97 68.9 209.923 69.1067 209.83 69.28C209.75 69.44 209.617 69.5933 209.43 69.74C208.163 70.7 206.657 71.18 204.91 71.18ZM218.372 71.18C216.972 71.18 215.752 70.8867 214.712 70.3C213.685 69.7 212.892 68.86 212.332 67.78C211.772 66.6867 211.492 65.4067 211.492 63.94C211.492 62.4733 211.772 61.2 212.332 60.12C212.892 59.0267 213.685 58.1867 214.712 57.6C215.752 57.0133 216.972 56.72 218.372 56.72C219.772 56.72 220.985 57.0133 222.012 57.6C223.052 58.1867 223.852 59.0267 224.412 60.12C224.972 61.2 225.252 62.4733 225.252 63.94C225.252 65.4067 224.972 66.6867 224.412 67.78C223.852 68.86 223.052 69.7 222.012 70.3C220.985 70.8867 219.772 71.18 218.372 71.18ZM218.372 68.76C219.545 68.76 220.465 68.3467 221.132 67.52C221.812 66.6933 222.152 65.5 222.152 63.94C222.152 62.38 221.818 61.1933 221.152 60.38C220.485 59.5533 219.558 59.14 218.372 59.14C217.185 59.14 216.258 59.5533 215.592 60.38C214.938 61.1933 214.612 62.38 214.612 63.94C214.612 65.5 214.945 66.6933 215.612 67.52C216.278 68.3467 217.198 68.76 218.372 68.76ZM238.594 56.8C239.034 56.8 239.387 56.9467 239.654 57.24C239.934 57.52 240.074 57.8867 240.074 58.34V69.56C240.074 70.0267 239.934 70.4067 239.654 70.7C239.387 70.98 239.034 71.12 238.594 71.12C238.114 71.12 237.727 70.9467 237.434 70.6L230.734 62.02V69.56C230.734 70.0267 230.601 70.4067 230.334 70.7C230.081 70.98 229.734 71.12 229.294 71.12C228.854 71.12 228.501 70.98 228.234 70.7C227.967 70.4067 227.834 70.0267 227.834 69.56V58.34C227.834 57.8867 227.967 57.52 228.234 57.24C228.514 56.9467 228.874 56.8 229.314 56.8C229.807 56.8 230.187 56.9733 230.454 57.32L237.154 65.84V58.34C237.154 57.8867 237.287 57.52 237.554 57.24C237.821 56.9467 238.167 56.8 238.594 56.8ZM247.893 71.1C247.426 71.1 247.046 70.96 246.753 70.68C246.473 70.4 246.333 70.0267 246.333 69.56V59.44H243.093C242.106 59.44 241.613 59.0133 241.613 58.16C241.613 57.32 242.106 56.9 243.093 56.9H252.693C253.68 56.9 254.173 57.32 254.173 58.16C254.173 59.0133 253.68 59.44 252.693 59.44H249.453V69.56C249.453 70.0267 249.313 70.4 249.033 70.68C248.753 70.96 248.373 71.1 247.893 71.1ZM267.274 69.02C267.474 69.3133 267.574 69.6 267.574 69.88C267.574 70.2533 267.421 70.56 267.114 70.8C266.821 71.04 266.474 71.16 266.074 71.16C265.821 71.16 265.574 71.1 265.334 70.98C265.094 70.86 264.894 70.6733 264.734 70.42L262.094 66.5C261.868 66.1533 261.628 65.9067 261.374 65.76C261.121 65.6 260.801 65.52 260.414 65.52H258.794V69.56C258.794 70.04 258.654 70.42 258.374 70.7C258.108 70.98 257.741 71.12 257.274 71.12C256.794 71.12 256.414 70.98 256.134 70.7C255.854 70.42 255.714 70.04 255.714 69.56V58.36C255.714 57.8933 255.841 57.5333 256.094 57.28C256.348 57.0267 256.708 56.9 257.174 56.9H262.194C263.848 56.9 265.094 57.2667 265.934 58C266.788 58.72 267.214 59.7667 267.214 61.14C267.214 62.22 266.914 63.12 266.314 63.84C265.714 64.56 264.868 65.0333 263.774 65.26C264.174 65.34 264.528 65.5 264.834 65.74C265.154 65.9667 265.461 66.3 265.754 66.74L267.274 69.02ZM261.734 63.16C262.628 63.16 263.274 63.0067 263.674 62.7C264.074 62.38 264.274 61.8867 264.274 61.22C264.274 60.54 264.074 60.0467 263.674 59.74C263.274 59.4333 262.628 59.28 261.734 59.28H258.754V63.16H261.734ZM282.883 69.1C282.989 69.34 283.043 69.5533 283.043 69.74C283.043 70.1133 282.889 70.4333 282.583 70.7C282.289 70.9533 281.949 71.08 281.563 71.08C281.309 71.08 281.069 71.0133 280.843 70.88C280.616 70.7333 280.443 70.52 280.323 70.24L279.263 67.88H272.483L271.423 70.24C271.303 70.52 271.129 70.7333 270.903 70.88C270.689 71.0133 270.449 71.08 270.183 71.08C269.796 71.08 269.449 70.9533 269.143 70.7C268.836 70.4333 268.683 70.1133 268.683 69.74C268.683 69.5533 268.736 69.34 268.843 69.1L274.243 57.76C274.389 57.44 274.609 57.2 274.903 57.04C275.196 56.8667 275.509 56.78 275.843 56.78C276.189 56.78 276.509 56.8667 276.803 57.04C277.096 57.2133 277.323 57.4533 277.483 57.76L282.883 69.1ZM273.543 65.52H278.203L275.883 60.32L273.543 65.52ZM297.482 56.8C297.922 56.8 298.275 56.9467 298.542 57.24C298.822 57.52 298.962 57.8867 298.962 58.34V69.7C298.962 70.14 298.835 70.4867 298.582 70.74C298.329 70.9933 297.995 71.12 297.582 71.12C297.182 71.12 296.855 70.9933 296.602 70.74C296.349 70.4867 296.222 70.14 296.222 69.7V62.64L293.382 67.98C293.195 68.3267 292.989 68.58 292.762 68.74C292.549 68.9 292.289 68.98 291.982 68.98C291.689 68.98 291.429 68.9 291.202 68.74C290.975 68.58 290.769 68.3267 290.582 67.98L287.742 62.74V69.7C287.742 70.1267 287.615 70.4733 287.362 70.74C287.109 70.9933 286.775 71.12 286.362 71.12C285.962 71.12 285.635 70.9933 285.382 70.74C285.129 70.4867 285.002 70.14 285.002 69.7V58.34C285.002 57.8867 285.135 57.52 285.402 57.24C285.682 56.9467 286.042 56.8 286.482 56.8C287.122 56.8 287.609 57.14 287.942 57.82L292.002 65.52L296.042 57.82C296.402 57.14 296.882 56.8 297.482 56.8ZM308.478 71.18C307.078 71.18 305.858 70.8867 304.818 70.3C303.791 69.7 302.998 68.86 302.438 67.78C301.878 66.6867 301.598 65.4067 301.598 63.94C301.598 62.4733 301.878 61.2 302.438 60.12C302.998 59.0267 303.791 58.1867 304.818 57.6C305.858 57.0133 307.078 56.72 308.478 56.72C309.878 56.72 311.091 57.0133 312.118 57.6C313.158 58.1867 313.958 59.0267 314.518 60.12C315.078 61.2 315.358 62.4733 315.358 63.94C315.358 65.4067 315.078 66.6867 314.518 67.78C313.958 68.86 313.158 69.7 312.118 70.3C311.091 70.8867 309.878 71.18 308.478 71.18ZM308.478 68.76C309.651 68.76 310.571 68.3467 311.238 67.52C311.918 66.6933 312.258 65.5 312.258 63.94C312.258 62.38 311.925 61.1933 311.258 60.38C310.591 59.5533 309.665 59.14 308.478 59.14C307.291 59.14 306.365 59.5533 305.698 60.38C305.045 61.1933 304.718 62.38 304.718 63.94C304.718 65.5 305.051 66.6933 305.718 67.52C306.385 68.3467 307.305 68.76 308.478 68.76ZM323.02 71.18C321.967 71.18 320.987 71.06 320.08 70.82C319.174 70.5667 318.434 70.2133 317.86 69.76C317.66 69.6133 317.514 69.46 317.42 69.3C317.34 69.1267 317.3 68.9133 317.3 68.66C317.3 68.3267 317.4 68.0333 317.6 67.78C317.814 67.5267 318.054 67.4 318.32 67.4C318.467 67.4 318.607 67.4267 318.74 67.48C318.887 67.52 319.06 67.6 319.26 67.72C319.834 68.08 320.414 68.3467 321 68.52C321.587 68.68 322.234 68.76 322.94 68.76C323.82 68.76 324.494 68.6133 324.96 68.32C325.427 68.0267 325.66 67.6067 325.66 67.06C325.66 66.6467 325.44 66.3133 325 66.06C324.574 65.8067 323.807 65.5667 322.7 65.34C321.46 65.0867 320.467 64.78 319.72 64.42C318.987 64.06 318.447 63.6133 318.1 63.08C317.767 62.5467 317.6 61.9 317.6 61.14C317.6 60.3 317.84 59.5467 318.32 58.88C318.814 58.2 319.487 57.6733 320.34 57.3C321.207 56.9133 322.18 56.72 323.26 56.72C325.154 56.72 326.714 57.1933 327.94 58.14C328.14 58.3 328.28 58.4667 328.36 58.64C328.454 58.8 328.5 59 328.5 59.24C328.5 59.5733 328.394 59.8667 328.18 60.12C327.98 60.3733 327.747 60.5 327.48 60.5C327.334 60.5 327.194 60.48 327.06 60.44C326.94 60.4 326.767 60.3133 326.54 60.18C325.994 59.8333 325.487 59.5733 325.02 59.4C324.567 59.2267 323.987 59.14 323.28 59.14C322.467 59.14 321.827 59.3 321.36 59.62C320.894 59.9267 320.66 60.3533 320.66 60.9C320.66 61.22 320.747 61.4867 320.92 61.7C321.107 61.9 321.407 62.08 321.82 62.24C322.247 62.4 322.847 62.5667 323.62 62.74C325.434 63.14 326.734 63.6533 327.52 64.28C328.32 64.9067 328.72 65.7667 328.72 66.86C328.72 67.7133 328.48 68.4667 328 69.12C327.534 69.7733 326.867 70.28 326 70.64C325.147 71 324.154 71.18 323.02 71.18ZM343.434 71.18C342.034 71.18 340.814 70.8867 339.774 70.3C338.747 69.7 337.954 68.86 337.394 67.78C336.834 66.6867 336.554 65.4067 336.554 63.94C336.554 62.4733 336.834 61.2 337.394 60.12C337.954 59.0267 338.747 58.1867 339.774 57.6C340.814 57.0133 342.034 56.72 343.434 56.72C344.834 56.72 346.047 57.0133 347.074 57.6C348.114 58.1867 348.914 59.0267 349.474 60.12C350.034 61.2 350.314 62.4733 350.314 63.94C350.314 65.4067 350.034 66.6867 349.474 67.78C348.914 68.86 348.114 69.7 347.074 70.3C346.047 70.8867 344.834 71.18 343.434 71.18ZM343.434 68.76C344.607 68.76 345.527 68.3467 346.194 67.52C346.874 66.6933 347.214 65.5 347.214 63.94C347.214 62.38 346.88 61.1933 346.214 60.38C345.547 59.5533 344.62 59.14 343.434 59.14C342.247 59.14 341.32 59.5533 340.654 60.38C340 61.1933 339.674 62.38 339.674 63.94C339.674 65.5 340.007 66.6933 340.674 67.52C341.34 68.3467 342.26 68.76 343.434 68.76ZM370.682 72.6C370.868 72.8933 370.962 73.18 370.962 73.46C370.962 73.82 370.808 74.12 370.502 74.36C370.208 74.6 369.862 74.72 369.462 74.72C369.182 74.72 368.915 74.6533 368.662 74.52C368.422 74.3867 368.228 74.1933 368.082 73.94L366.882 71.94C366.722 71.6733 366.508 71.48 366.242 71.36C365.975 71.24 365.615 71.18 365.162 71.18C363.762 71.18 362.542 70.8867 361.502 70.3C360.475 69.7 359.682 68.86 359.122 67.78C358.562 66.6867 358.282 65.4067 358.282 63.94C358.282 62.4733 358.562 61.2 359.122 60.12C359.682 59.0267 360.475 58.1867 361.502 57.6C362.542 57.0133 363.762 56.72 365.162 56.72C366.562 56.72 367.775 57.0133 368.802 57.6C369.842 58.1867 370.642 59.0267 371.202 60.12C371.762 61.2 372.042 62.4733 372.042 63.94C372.042 65.4733 371.735 66.8 371.122 67.92C370.522 69.0267 369.662 69.8533 368.542 70.4C369.195 70.6 369.722 71.0267 370.122 71.68L370.682 72.6ZM365.162 68.76C366.335 68.76 367.255 68.3467 367.922 67.52C368.602 66.6933 368.942 65.5 368.942 63.94C368.942 62.38 368.608 61.1933 367.942 60.38C367.275 59.5533 366.348 59.14 365.162 59.14C363.975 59.14 363.048 59.5533 362.382 60.38C361.728 61.1933 361.402 62.38 361.402 63.94C361.402 65.5 361.735 66.6933 362.402 67.52C363.068 68.3467 363.988 68.76 365.162 68.76ZM380.604 71.18C378.63 71.18 377.124 70.6733 376.084 69.66C375.057 68.6333 374.544 67.14 374.544 65.18V58.34C374.544 57.8733 374.684 57.5 374.964 57.22C375.244 56.94 375.617 56.8 376.084 56.8C376.55 56.8 376.917 56.94 377.184 57.22C377.464 57.5 377.604 57.8733 377.604 58.34V65.32C377.604 66.44 377.857 67.2933 378.364 67.88C378.884 68.4667 379.63 68.76 380.604 68.76C381.577 68.76 382.324 68.4667 382.844 67.88C383.364 67.28 383.624 66.4267 383.624 65.32V58.34C383.624 57.8733 383.757 57.5 384.024 57.22C384.304 56.94 384.677 56.8 385.144 56.8C385.61 56.8 385.984 56.94 386.264 57.22C386.544 57.5 386.684 57.8733 386.684 58.34V65.18C386.684 67.1267 386.164 68.6133 385.124 69.64C384.084 70.6667 382.577 71.18 380.604 71.18ZM391.069 71C390.602 71 390.242 70.8733 389.989 70.62C389.736 70.3667 389.609 70.0067 389.609 69.54V58.36C389.609 57.8933 389.736 57.5333 389.989 57.28C390.242 57.0267 390.602 56.9 391.069 56.9H398.149C399.136 56.9 399.629 57.3 399.629 58.1C399.629 58.9133 399.136 59.32 398.149 59.32H392.649V62.62H397.749C398.736 62.62 399.229 63.0267 399.229 63.84C399.229 64.64 398.736 65.04 397.749 65.04H392.649V68.58H398.149C399.136 68.58 399.629 68.9867 399.629 69.8C399.629 70.6 399.136 71 398.149 71H391.069ZM214.943 84.62C215.063 84.34 215.237 84.1333 215.463 84C215.69 83.8533 215.943 83.78 216.223 83.78C216.623 83.78 216.983 83.9133 217.303 84.18C217.623 84.4467 217.783 84.7733 217.783 85.16C217.783 85.36 217.737 85.56 217.643 85.76L212.243 97.16C212.097 97.4667 211.877 97.7067 211.583 97.88C211.29 98.04 210.97 98.12 210.623 98.12C210.277 98.12 209.957 98.04 209.663 97.88C209.37 97.7067 209.15 97.4667 209.003 97.16L203.603 85.76C203.51 85.5733 203.463 85.38 203.463 85.18C203.463 84.78 203.63 84.4467 203.963 84.18C204.297 83.9133 204.67 83.78 205.083 83.78C205.363 83.78 205.617 83.8533 205.843 84C206.083 84.1333 206.263 84.34 206.383 84.62L210.663 93.98L214.943 84.62ZM225.584 98.18C224.184 98.18 222.964 97.8867 221.924 97.3C220.897 96.7 220.104 95.86 219.544 94.78C218.984 93.6867 218.704 92.4067 218.704 90.94C218.704 89.4733 218.984 88.2 219.544 87.12C220.104 86.0267 220.897 85.1867 221.924 84.6C222.964 84.0133 224.184 83.72 225.584 83.72C226.984 83.72 228.197 84.0133 229.224 84.6C230.264 85.1867 231.064 86.0267 231.624 87.12C232.184 88.2 232.464 89.4733 232.464 90.94C232.464 92.4067 232.184 93.6867 231.624 94.78C231.064 95.86 230.264 96.7 229.224 97.3C228.197 97.8867 226.984 98.18 225.584 98.18ZM225.584 95.76C226.757 95.76 227.677 95.3467 228.344 94.52C229.024 93.6933 229.364 92.5 229.364 90.94C229.364 89.38 229.03 88.1933 228.364 87.38C227.697 86.5533 226.77 86.14 225.584 86.14C224.397 86.14 223.47 86.5533 222.804 87.38C222.15 88.1933 221.824 89.38 221.824 90.94C221.824 92.5 222.157 93.6933 222.824 94.52C223.49 95.3467 224.41 95.76 225.584 95.76ZM241.526 98.18C240.139 98.18 238.926 97.8867 237.886 97.3C236.846 96.7133 236.046 95.8733 235.486 94.78C234.926 93.6867 234.646 92.4067 234.646 90.94C234.646 89.4733 234.926 88.2 235.486 87.12C236.046 86.0267 236.846 85.1867 237.886 84.6C238.926 84.0133 240.139 83.72 241.526 83.72C243.272 83.72 244.779 84.2 246.046 85.16C246.246 85.32 246.386 85.48 246.466 85.64C246.546 85.8 246.586 86 246.586 86.24C246.586 86.5867 246.486 86.8867 246.286 87.14C246.099 87.38 245.866 87.5 245.586 87.5C245.399 87.5 245.232 87.48 245.086 87.44C244.952 87.3867 244.799 87.3 244.626 87.18C244.092 86.8333 243.599 86.5867 243.146 86.44C242.692 86.28 242.206 86.2 241.686 86.2C240.406 86.2 239.439 86.6 238.786 87.4C238.146 88.1867 237.826 89.3667 237.826 90.94C237.826 94.1133 239.112 95.7 241.686 95.7C242.179 95.7 242.646 95.6267 243.086 95.48C243.526 95.32 244.039 95.0667 244.626 94.72C244.826 94.6 244.992 94.52 245.126 94.48C245.259 94.4267 245.412 94.4 245.586 94.4C245.866 94.4 246.099 94.5267 246.286 94.78C246.486 95.02 246.586 95.3133 246.586 95.66C246.586 95.9 246.539 96.1067 246.446 96.28C246.366 96.44 246.232 96.5933 246.046 96.74C244.779 97.7 243.272 98.18 241.526 98.18ZM250.26 98C249.794 98 249.434 97.8733 249.18 97.62C248.927 97.3667 248.8 97.0067 248.8 96.54V85.36C248.8 84.8933 248.927 84.5333 249.18 84.28C249.434 84.0267 249.794 83.9 250.26 83.9H257.34C258.327 83.9 258.82 84.3 258.82 85.1C258.82 85.9133 258.327 86.32 257.34 86.32H251.84V89.62H256.94C257.927 89.62 258.42 90.0267 258.42 90.84C258.42 91.64 257.927 92.04 256.94 92.04H251.84V95.58H257.34C258.327 95.58 258.82 95.9867 258.82 96.8C258.82 97.6 258.327 98 257.34 98H250.26ZM252.64 82.48C252.44 82.68 252.207 82.78 251.94 82.78C251.687 82.78 251.474 82.7 251.3 82.54C251.127 82.3667 251.04 82.1667 251.04 81.94C251.04 81.6867 251.16 81.46 251.4 81.26L253 79.9C253.307 79.6333 253.647 79.5 254.02 79.5C254.394 79.5 254.734 79.6333 255.04 79.9L256.64 81.26C256.88 81.46 257 81.6867 257 81.94C257 82.1667 256.914 82.3667 256.74 82.54C256.567 82.7 256.36 82.78 256.12 82.78C255.854 82.78 255.614 82.68 255.4 82.48L254.02 81.14L252.64 82.48ZM268.202 98.12C267.722 98.12 267.342 97.98 267.062 97.7C266.782 97.42 266.642 97.04 266.642 96.56V85.36C266.642 84.8933 266.768 84.5333 267.022 84.28C267.275 84.0267 267.635 83.9 268.102 83.9H273.122C274.655 83.9 275.848 84.2867 276.702 85.06C277.555 85.8333 277.982 86.9133 277.982 88.3C277.982 89.6867 277.555 90.7667 276.702 91.54C275.848 92.3133 274.655 92.7 273.122 92.7H269.762V96.56C269.762 97.04 269.622 97.42 269.342 97.7C269.062 97.98 268.682 98.12 268.202 98.12ZM272.722 90.34C274.282 90.34 275.062 89.6667 275.062 88.32C275.062 86.96 274.282 86.28 272.722 86.28H269.762V90.34H272.722ZM291.761 96.02C291.961 96.3133 292.061 96.6 292.061 96.88C292.061 97.2533 291.908 97.56 291.601 97.8C291.308 98.04 290.961 98.16 290.561 98.16C290.308 98.16 290.061 98.1 289.821 97.98C289.581 97.86 289.381 97.6733 289.221 97.42L286.581 93.5C286.355 93.1533 286.115 92.9067 285.861 92.76C285.608 92.6 285.288 92.52 284.901 92.52H283.281V96.56C283.281 97.04 283.141 97.42 282.861 97.7C282.595 97.98 282.228 98.12 281.761 98.12C281.281 98.12 280.901 97.98 280.621 97.7C280.341 97.42 280.201 97.04 280.201 96.56V85.36C280.201 84.8933 280.328 84.5333 280.581 84.28C280.835 84.0267 281.195 83.9 281.661 83.9H286.681C288.335 83.9 289.581 84.2667 290.421 85C291.275 85.72 291.701 86.7667 291.701 88.14C291.701 89.22 291.401 90.12 290.801 90.84C290.201 91.56 289.355 92.0333 288.261 92.26C288.661 92.34 289.015 92.5 289.321 92.74C289.641 92.9667 289.948 93.3 290.241 93.74L291.761 96.02ZM286.221 90.16C287.115 90.16 287.761 90.0067 288.161 89.7C288.561 89.38 288.761 88.8867 288.761 88.22C288.761 87.54 288.561 87.0467 288.161 86.74C287.761 86.4333 287.115 86.28 286.221 86.28H283.241V90.16H286.221ZM300.807 98.18C299.407 98.18 298.187 97.8867 297.147 97.3C296.12 96.7 295.327 95.86 294.767 94.78C294.207 93.6867 293.927 92.4067 293.927 90.94C293.927 89.4733 294.207 88.2 294.767 87.12C295.327 86.0267 296.12 85.1867 297.147 84.6C298.187 84.0133 299.407 83.72 300.807 83.72C302.207 83.72 303.42 84.0133 304.447 84.6C305.487 85.1867 306.287 86.0267 306.847 87.12C307.407 88.2 307.687 89.4733 307.687 90.94C307.687 92.4067 307.407 93.6867 306.847 94.78C306.287 95.86 305.487 96.7 304.447 97.3C303.42 97.8867 302.207 98.18 300.807 98.18ZM300.807 95.76C301.98 95.76 302.9 95.3467 303.567 94.52C304.247 93.6933 304.587 92.5 304.587 90.94C304.587 89.38 304.254 88.1933 303.587 87.38C302.92 86.5533 301.994 86.14 300.807 86.14C299.62 86.14 298.694 86.5533 298.027 87.38C297.374 88.1933 297.047 89.38 297.047 90.94C297.047 92.5 297.38 93.6933 298.047 94.52C298.714 95.3467 299.634 95.76 300.807 95.76ZM316.749 98.18C315.362 98.18 314.149 97.8867 313.109 97.3C312.069 96.7133 311.269 95.8733 310.709 94.78C310.149 93.6867 309.869 92.4067 309.869 90.94C309.869 89.4733 310.149 88.2 310.709 87.12C311.269 86.0267 312.069 85.1867 313.109 84.6C314.149 84.0133 315.362 83.72 316.749 83.72C318.496 83.72 320.002 84.2 321.269 85.16C321.469 85.32 321.609 85.48 321.689 85.64C321.769 85.8 321.809 86 321.809 86.24C321.809 86.5867 321.709 86.8867 321.509 87.14C321.322 87.38 321.089 87.5 320.809 87.5C320.622 87.5 320.456 87.48 320.309 87.44C320.176 87.3867 320.022 87.3 319.849 87.18C319.316 86.8333 318.822 86.5867 318.369 86.44C317.916 86.28 317.429 86.2 316.909 86.2C315.629 86.2 314.662 86.6 314.009 87.4C313.369 88.1867 313.049 89.3667 313.049 90.94C313.049 94.1133 314.336 95.7 316.909 95.7C317.402 95.7 317.869 95.6267 318.309 95.48C318.749 95.32 319.262 95.0667 319.849 94.72C320.049 94.6 320.216 94.52 320.349 94.48C320.482 94.4267 320.636 94.4 320.809 94.4C321.089 94.4 321.322 94.5267 321.509 94.78C321.709 95.02 321.809 95.3133 321.809 95.66C321.809 95.9 321.762 96.1067 321.669 96.28C321.589 96.44 321.456 96.5933 321.269 96.74C320.002 97.7 318.496 98.18 316.749 98.18ZM330.004 98.18C328.031 98.18 326.524 97.6733 325.484 96.66C324.457 95.6333 323.944 94.14 323.944 92.18V85.34C323.944 84.8733 324.084 84.5 324.364 84.22C324.644 83.94 325.017 83.8 325.484 83.8C325.951 83.8 326.317 83.94 326.584 84.22C326.864 84.5 327.004 84.8733 327.004 85.34V92.32C327.004 93.44 327.257 94.2933 327.764 94.88C328.284 95.4667 329.031 95.76 330.004 95.76C330.977 95.76 331.724 95.4667 332.244 94.88C332.764 94.28 333.024 93.4267 333.024 92.32V85.34C333.024 84.8733 333.157 84.5 333.424 84.22C333.704 83.94 334.077 83.8 334.544 83.8C335.011 83.8 335.384 83.94 335.664 84.22C335.944 84.5 336.084 84.8733 336.084 85.34V92.18C336.084 94.1267 335.564 95.6133 334.524 96.64C333.484 97.6667 331.977 98.18 330.004 98.18ZM350.569 96.02C350.769 96.3133 350.869 96.6 350.869 96.88C350.869 97.2533 350.716 97.56 350.409 97.8C350.116 98.04 349.769 98.16 349.369 98.16C349.116 98.16 348.869 98.1 348.629 97.98C348.389 97.86 348.189 97.6733 348.029 97.42L345.389 93.5C345.162 93.1533 344.922 92.9067 344.669 92.76C344.416 92.6 344.096 92.52 343.709 92.52H342.089V96.56C342.089 97.04 341.949 97.42 341.669 97.7C341.402 97.98 341.036 98.12 340.569 98.12C340.089 98.12 339.709 97.98 339.429 97.7C339.149 97.42 339.009 97.04 339.009 96.56V85.36C339.009 84.8933 339.136 84.5333 339.389 84.28C339.642 84.0267 340.002 83.9 340.469 83.9H345.489C347.142 83.9 348.389 84.2667 349.229 85C350.082 85.72 350.509 86.7667 350.509 88.14C350.509 89.22 350.209 90.12 349.609 90.84C349.009 91.56 348.162 92.0333 347.069 92.26C347.469 92.34 347.822 92.5 348.129 92.74C348.449 92.9667 348.756 93.3 349.049 93.74L350.569 96.02ZM345.029 90.16C345.922 90.16 346.569 90.0067 346.969 89.7C347.369 89.38 347.569 88.8867 347.569 88.22C347.569 87.54 347.369 87.0467 346.969 86.74C346.569 86.4333 345.922 86.28 345.029 86.28H342.049V90.16H345.029ZM366.177 96.1C366.284 96.34 366.337 96.5533 366.337 96.74C366.337 97.1133 366.184 97.4333 365.877 97.7C365.584 97.9533 365.244 98.08 364.857 98.08C364.604 98.08 364.364 98.0133 364.137 97.88C363.91 97.7333 363.737 97.52 363.617 97.24L362.557 94.88H355.777L354.717 97.24C354.597 97.52 354.424 97.7333 354.197 97.88C353.984 98.0133 353.744 98.08 353.477 98.08C353.09 98.08 352.744 97.9533 352.437 97.7C352.13 97.4333 351.977 97.1133 351.977 96.74C351.977 96.5533 352.03 96.34 352.137 96.1L357.537 84.76C357.684 84.44 357.904 84.2 358.197 84.04C358.49 83.8667 358.804 83.78 359.137 83.78C359.484 83.78 359.804 83.8667 360.097 84.04C360.39 84.2133 360.617 84.4533 360.777 84.76L366.177 96.1ZM356.837 92.52H361.497L359.177 87.32L356.837 92.52Z" fill="#434343"/>
</svg>
