<svg width="13" height="13" viewBox="0 0 13 13" fill="none" xmlns="http://www.w3.org/2000/svg">
<path d="M10.4533 2.31442C9.38863 1.1583 7.9708 0.52243 6.46403 0.52243C3.35394 0.52243 0.82318 3.26409 0.82318 6.63335C0.82318 7.70964 1.08235 8.76116 1.57529 9.68881L0.774902 12.8544L3.76557 12.0038C4.58883 12.491 5.51626 12.747 6.46149 12.747H6.46403C9.57158 12.747 12.1582 10.0054 12.1582 6.6361C12.1582 5.00377 11.5179 3.47054 10.4533 2.31442ZM6.46403 11.7175C5.62044 11.7175 4.79464 11.4725 4.07556 11.0101L3.90532 10.9L2.13175 11.4037L2.60437 9.52915L2.49257 9.33647C2.0225 8.52718 1.77603 7.59403 1.77603 6.63335C1.77603 3.83389 3.87991 1.55468 6.46657 1.55468C7.71924 1.55468 8.89569 2.08319 9.77993 3.04387C10.6642 4.00455 11.2079 5.27904 11.2054 6.6361C11.2054 9.43832 9.04815 11.7175 6.46403 11.7175ZM9.03544 7.91334C8.89569 7.83626 8.20202 7.46741 8.07243 7.41786C7.94285 7.36556 7.84883 7.34078 7.75482 7.49493C7.6608 7.64908 7.39147 7.99041 7.30761 8.09502C7.22631 8.19686 7.14245 8.21063 7.0027 8.13355C6.17436 7.68487 5.63061 7.33253 5.08431 6.31679C4.93948 6.04703 5.22914 6.0663 5.49848 5.48273C5.54421 5.38089 5.52135 5.2928 5.48577 5.21573C5.4502 5.13865 5.16816 4.38717 5.05128 4.08163C4.93693 3.78434 4.82005 3.82563 4.73366 3.82012C4.65235 3.81462 4.55834 3.81462 4.46432 3.81462C4.37031 3.81462 4.21785 3.85316 4.08827 4.00455C3.95868 4.1587 3.59533 4.52756 3.59533 5.27904C3.59533 6.03052 4.10097 6.75722 4.16958 6.85907C4.24072 6.96092 5.16308 8.50241 6.57837 9.1658C7.47277 9.58421 7.82342 9.61999 8.27062 9.54842C8.5425 9.50438 9.10405 9.17957 9.22093 8.82172C9.33781 8.46387 9.33781 8.15833 9.30224 8.09502C9.26921 8.0262 9.17519 7.98766 9.03544 7.91334Z" fill="#8675A5"/>
</svg>
