<svg width="18" height="17" viewBox="0 0 18 17" fill="none" xmlns="http://www.w3.org/2000/svg">
<path d="M4.96793 6.18295C4.96793 4.7983 3.85552 3.6755 2.48373 3.6755C1.11194 3.6755 0 4.7983 0 6.18295C0 7.56859 1.11169 8.6909 2.48373 8.6909C3.85576 8.6909 4.96793 7.56859 4.96793 6.18295Z" fill="#434343"/>
<path d="M14.8736 4.1653C13.5021 4.1653 12.3899 5.2881 12.3899 6.67275C12.3899 8.05839 13.5021 9.1802 14.8736 9.1802C16.2454 9.1802 17.3576 8.05839 17.3576 6.67275C17.3576 5.2881 16.2457 4.1653 14.8736 4.1653Z" fill="#434343"/>
<path d="M12.6176 9.46408C12.445 9.24921 12.2005 9.00047 11.9198 8.73961C11.1709 7.75972 9.99944 7.12575 8.67884 7.12575C7.50348 7.12575 6.44689 7.62818 5.70013 8.4288C5.27594 8.80142 4.89877 9.16514 4.65874 9.46432L4.49807 9.66238C3.74862 10.5849 2.81573 11.7327 2.82259 13.6803C2.8292 15.489 4.28818 16.9615 6.07462 16.9615C6.57037 16.9625 7.05968 16.848 7.50436 16.6267C7.94904 16.4054 8.33707 16.0835 8.63818 15.6859C8.93933 16.0836 9.32747 16.4057 9.77229 16.627C10.2171 16.8482 10.7066 16.9627 11.2025 16.9615C12.9882 16.9615 14.4469 15.4893 14.4538 13.6803C14.4606 11.7327 13.5275 10.5849 12.7783 9.66238L12.6176 9.46408Z" fill="#434343"/>
<path d="M8.85109 5.52624C10.3627 5.52624 11.5881 4.28915 11.5881 2.76312C11.5881 1.23709 10.3627 0 8.85109 0C7.3395 0 6.11412 1.23709 6.11412 2.76312C6.11412 4.28915 7.3395 5.52624 8.85109 5.52624Z" fill="#434343"/>
</svg>
