<svg width="424" height="492" viewBox="0 0 424 492" fill="none" xmlns="http://www.w3.org/2000/svg">
<path d="M169.125 273.347C170.257 273.752 171.128 274.888 172.663 274.33C177.856 272.464 182.674 272.21 187.685 271.075C189.594 270.639 191.016 269.7 191.29 267.402C191.489 265.606 190.174 265.79 188.938 265.754C184.787 265.64 180.077 268.539 175.81 268.928C174.114 269.094 172.304 269.238 170.449 270.345C169.097 271.144 168.354 272.2 169.125 273.347Z" fill="#FABF4B"/>
<path d="M40.392 276.556C33.1837 275.683 25.8622 281.095 18.6124 285.009C16.4982 286.155 15.8489 288.166 16.0947 289.664C16.3302 291.128 18.0541 290.569 19.353 289.621C25.6498 285.099 32.2123 282.336 38.6257 278.664C39.3183 278.266 39.9157 277.797 40.392 276.556Z" fill="#FABF4B"/>
<path d="M-1.07939 310.751C0.434612 309.101 2.01316 307.466 3.45622 305.739C4.60797 304.334 4.93352 303.066 3.97154 302.089C3.08435 301.162 2.08431 301.237 0.583625 302.511C-3.18823 305.679 -6.32604 309.4 -9.04391 313.5C-9.82126 314.697 -10.3564 316.037 -9.49671 316.806C-8.62105 317.584 -7.425 316.929 -6.33897 315.891C-4.57768 314.191 -2.88734 312.415 -1.15035 310.674C-1.12478 310.691 -1.10496 310.734 -1.07939 310.751Z" fill="#FABF4B"/>
<path d="M207.773 264.062C208.263 264.491 209.154 264.507 210.139 264.337C213.875 263.664 217.668 262.115 221.483 260.58C223.509 259.76 224.583 258.406 224.634 256.343C224.674 253.91 223.179 254.491 221.297 255.389C218.147 256.915 214.98 258.488 211.854 258.982C210.459 259.196 209.19 260.133 208.154 261.536C207.542 262.38 207.157 263.271 207.773 264.062Z" fill="#FABF4B"/>
<path d="M354.774 57.6577C354.056 58.5391 353.398 59.3231 352.775 60.1324C352.012 61.1461 351.291 62.2473 352.002 62.9911C352.628 63.6511 353.31 64.2415 354.845 63.0174C357.964 60.5303 361.18 58.188 364.312 55.7326C365.642 54.672 366.538 53.4226 366.553 51.8552C366.576 49.8248 365.978 48.8224 363.632 50.6405C360.627 52.9327 357.676 55.3488 354.774 57.6577Z" fill="#FABF4B"/>
<path d="M273.262 224.202C275.486 220.227 279.274 216.185 282.576 211.8C283.14 211.064 283.345 210.043 283.574 209.182C283.81 208.266 283.706 207.421 282.87 207.334C282.263 207.268 281.529 207.888 281.02 208.554C277.262 213.391 273.506 218.231 269.834 223.127C268.884 224.397 267.829 226.206 268.963 226.913C270.087 227.591 271.44 226.049 273.262 224.202Z" fill="#FABF4B"/>
<path d="M71.2455 265.854C70.85 265.687 70.2792 265.312 69.6159 265.126C65.9758 264.126 61.5913 265.592 57.3831 266.575C56.2393 266.851 54.463 267.571 54.206 269.492C53.9548 271.449 55.3784 270.842 56.7994 270.455C61.1118 269.293 65.0258 269.492 69.01 269.462C70.0305 269.456 70.9426 270.235 71.9837 268.418C72.7597 267.106 71.941 266.615 71.2455 265.854Z" fill="#FABF4B"/>
<path d="M121.777 272.552C119.066 270.048 115.078 269.8 111.751 268.55C110.77 268.192 109.848 268.929 109.256 270.203C108.588 271.615 107.83 273.216 109.51 273.424C112.886 273.854 115.495 275.511 118.507 276.516C119.541 276.852 120.617 277.633 121.975 275.874C123.289 274.164 122.106 273.447 121.777 272.552Z" fill="#FABF4B"/>
<path d="M331.882 84.3913C329.155 88.0707 326.215 91.5443 324.078 95.3873C323.03 97.2805 322.67 99.019 324.692 99.2498C326.425 99.4673 327.088 97.9645 327.708 96.4918C329.052 93.3678 331.638 90.8892 333.56 88.0584C333.789 87.7196 334.102 87.4429 334.404 87.1562C336.236 85.3678 337.383 83.3237 336.104 82.0363C334.597 80.5113 333.291 83.7769 331.882 84.3913Z" fill="#FABF4B"/>
<path d="M138.466 275.83C141.447 277.587 145.244 277.84 149.417 277.332C150.383 277.207 151.097 276.544 151.401 275.542C151.79 274.262 151.975 272.65 150.974 272.559C147.387 272.23 144.173 270.84 139.944 272.249C138.05 272.858 137.338 274.685 138.466 275.83Z" fill="#FABF4B"/>
<path d="M248.444 247.012C250.414 245.265 252.546 243.691 253.018 240.975C253.383 238.852 252.469 238.243 250.635 239.89C247.353 242.82 244.3 246.103 240.922 248.966C239.859 249.854 238.557 251.569 239.389 252.758C240.079 253.742 241.398 252.647 242.538 252.089C244.844 250.938 246.517 248.733 248.444 247.012Z" fill="#FABF4B"/>
<path d="M313.855 132.185C315.087 130.916 318.055 121.434 317.537 120.351C316.887 118.983 315.577 119.281 314.444 120.924C312.251 124.119 310.787 127.517 310.468 130.727C310.218 133.042 312.401 133.711 313.855 132.185Z" fill="#FABF4B"/>
<path d="M306.83 165.189C307.625 165.638 308.327 165.822 309.213 165.224C310.193 164.559 311.144 163.646 311.244 162.473C311.546 158.949 311.82 155.462 312.028 151.985C312.063 151.205 311.949 150.326 310.986 150.423C310.006 150.541 309.48 151.584 308.923 152.383C308.068 153.58 307.364 154.996 307.505 156.006C307.812 158.213 307.144 160.652 306.773 163.022C306.649 163.844 306.812 164.594 306.83 165.189Z" fill="#FABF4B"/>
<path d="M390.572 34.6228C389.515 35.7639 388.332 36.7599 388.552 38.0757C388.754 39.2944 389.789 39.4661 391.022 38.9781C393.638 37.9609 396.352 37.3693 398.787 34.817C399.812 33.7361 400.579 32.5553 400.299 31.3632C400.014 30.1972 399.037 29.9822 397.769 30.5334C395.301 31.6007 392.793 32.7216 390.572 34.6228Z" fill="#FABF4B"/>
<path d="M296.383 184.182C292.844 188.15 291.499 191.825 290.088 195.46C289.429 197.126 289.308 198.757 291.139 198.656C292.625 198.588 293.842 197.173 294.296 195.695C295.428 192.006 297.799 187.967 296.383 184.182Z" fill="#FABF4B"/>
<path d="M96.3794 270.202C95.6035 265.208 91.7093 264.913 88.1326 264.263C87.5402 264.153 86.8618 264.868 86.3891 265.585C85.424 267.038 86.2261 267.742 86.8926 267.875C89.953 268.44 92.0566 270.662 96.3794 270.202Z" fill="#FABF4B"/>
</svg>
