<svg width="15" height="15" viewBox="0 0 15 15" fill="none" xmlns="http://www.w3.org/2000/svg">
<path d="M14.997 0.54075C14.9962 0.5322 14.9945 0.523875 14.9933 0.515475C14.9918 0.504525 14.9906 0.493575 14.9884 0.4827C14.9864 0.472875 14.9837 0.463275 14.9813 0.4536C14.979 0.4443 14.9769 0.435 14.9741 0.425775C14.9712 0.41625 14.9677 0.4071 14.9644 0.3978C14.9611 0.38865 14.958 0.37935 14.9543 0.370275C14.9507 0.36165 14.9465 0.3534 14.9425 0.344925C14.9381 0.335625 14.934 0.32625 14.9291 0.317175C14.9248 0.309075 14.9198 0.301425 14.9151 0.29355C14.9099 0.28455 14.9048 0.27555 14.8989 0.266775C14.8932 0.2583 14.8869 0.250275 14.8808 0.2421C14.8751 0.2346 14.87 0.226875 14.864 0.2196C14.8525 0.205748 14.8404 0.19241 14.8278 0.179625C14.8265 0.17835 14.8256 0.176925 14.8243 0.175725C14.8228 0.174225 14.8213 0.1731 14.8198 0.171675C14.8072 0.159206 14.794 0.147295 14.7803 0.135975C14.7735 0.130425 14.7663 0.125475 14.7593 0.120225C14.7506 0.113775 14.742 0.107025 14.733 0.101025C14.725 0.09555 14.7166 0.0909 14.7083 0.086025C14.6998 0.080775 14.6914 0.0755251 14.6825 0.0707251C14.6744 0.0663751 14.666 0.0627001 14.6576 0.0587251C14.6482 0.0542251 14.6389 0.0495749 14.6291 0.0455249C14.6214 0.0423749 14.6135 0.039825 14.6057 0.036975C14.595 0.033075 14.5845 0.0290249 14.5736 0.0257249C14.5663 0.0234749 14.5589 0.0219749 14.5514 0.0200249C14.5399 0.0170249 14.5284 0.0138 14.5166 0.01155C14.5088 0.01005 14.5009 0.00914992 14.4931 0.00794992C14.4816 0.00614992 14.4702 0.00412511 14.4586 0.00292511C14.4467 0.00180011 14.4347 0.00157495 14.4228 0.00112495C14.4152 0.000899954 14.4077 0 14.4 0H10.8C10.6409 0 10.4883 0.0632142 10.3757 0.175736C10.2632 0.288258 10.2 0.44087 10.2 0.6C10.2 0.75913 10.2632 0.911742 10.3757 1.02426C10.4883 1.13679 10.6409 1.2 10.8 1.2H12.9515L9.7971 4.35435C8.60526 3.38021 7.08462 2.90139 5.54966 3.01692C4.01471 3.13246 2.58287 3.83351 1.55028 4.97508C0.517688 6.11666 -0.0366606 7.61142 0.00188325 9.15024C0.0404271 10.6891 0.668914 12.1542 1.75736 13.2426C2.84581 14.3311 4.31095 14.9596 5.84976 14.9981C7.38858 15.0367 8.88334 14.4823 10.0249 13.4497C11.1665 12.4171 11.8675 10.9853 11.9831 9.45034C12.0986 7.91538 11.6198 6.39474 10.6457 5.2029L13.8 2.04855V4.2C13.8 4.35913 13.8632 4.51174 13.9757 4.62426C14.0883 4.73679 14.2409 4.8 14.4 4.8C14.5591 4.8 14.7117 4.73679 14.8243 4.62426C14.9368 4.51174 15 4.35913 15 4.2V0.60015C15 0.58035 14.999 0.560475 14.997 0.540675V0.54075ZM9.39413 12.3941C8.72297 13.0646 7.86808 13.5211 6.93753 13.7059C6.00699 13.8906 5.04255 13.7954 4.16614 13.4321C3.28973 13.0688 2.54069 12.4539 2.01371 11.665C1.48673 10.8761 1.20546 9.94871 1.20546 9C1.20546 8.05129 1.48673 7.12387 2.01371 6.33498C2.54069 5.5461 3.28973 4.93115 4.16614 4.56789C5.04255 4.20463 6.00699 4.10935 6.93753 4.29411C7.86808 4.47886 8.72297 4.93535 9.39413 5.60588C10.293 6.50675 10.7978 7.72739 10.7978 9C10.7978 10.2726 10.293 11.4932 9.39413 12.3941Z" fill="#7386AE"/>
</svg>
