<svg width="383" height="618" viewBox="0 0 383 618" fill="none" xmlns="http://www.w3.org/2000/svg">
<path d="M132.584 272.316C131.131 273.176 129.088 273.497 128.358 275.124C125.862 280.623 121.891 285.111 118.737 290.14C117.54 292.057 117.336 293.741 119.669 294.946C121.506 295.874 122.462 294.601 123.593 293.492C127.388 289.764 128.299 284.275 131.633 280.232C132.944 278.622 134.382 276.915 134.78 274.768C135.079 273.207 134.551 272.092 132.584 272.316Z" fill="#FABF4B"/>
<path d="M242.699 153.904C250.045 147.712 250.447 138.803 252.463 130.582C253.046 128.182 251.366 126.756 249.47 126.356C247.621 125.962 246.725 127.762 246.64 129.338C246.146 136.944 243.446 144.062 241.896 151.421C241.731 152.216 241.729 152.955 242.699 153.904Z" fill="#FABF4B"/>
<path d="M241.006 101.97C241.518 104.032 241.956 106.148 242.617 108.178C243.175 109.81 244.308 110.633 246.252 110.164C248.075 109.743 248.875 108.802 248.772 106.908C248.554 102.161 247.155 97.7596 244.96 93.5832C244.305 92.3784 243.276 91.3348 241.655 91.7968C240.009 92.2697 239.686 93.6295 239.891 95.0491C240.24 97.3575 240.738 99.6333 241.155 101.937C241.113 101.953 241.048 101.953 241.006 101.97Z" fill="#FABF4B"/>
<path d="M108.853 311.325C107.939 311.593 107.134 312.396 106.455 313.363C103.909 317.041 102.295 321.134 100.646 325.241C99.7748 327.425 100.344 328.964 102.611 329.869C105.303 330.917 105.972 329.316 106.628 327.231C107.7 323.731 108.734 320.197 110.941 317.149C111.934 315.792 112.005 314.247 111.348 312.723C110.943 311.815 110.284 311.094 108.853 311.325Z" fill="#FABF4B"/>
<path d="M232.931 76.339C232.165 71.9087 229.593 68.1922 227.846 64.1034C227.61 63.5937 227.228 63.1156 226.77 62.7568C225.554 61.8266 224.174 60.5238 222.657 61.3375C220.976 62.2618 221.541 64.1658 222.133 65.5092C223.94 69.7619 226.039 73.8777 227.906 78.1089C228.735 80.0311 229.768 80.9576 231.882 80.0829C233.82 79.295 233.935 77.9892 232.931 76.339Z" fill="#FABF4B"/>
<path d="M210.341 530.834C209.988 529.814 209.69 528.89 209.333 527.987C208.871 526.872 208.273 525.758 206.812 526.095C205.519 526.39 204.255 526.766 204.271 528.67C204.303 532.541 204.088 536.44 204.073 540.309C204.088 541.959 204.696 543.294 206.44 543.959C208.695 544.824 210.346 544.697 210.382 541.807C210.467 538.122 210.365 534.433 210.341 530.834Z" fill="#FABF4B"/>
<path d="M95.6812 387.458C98.1713 391.133 99.3563 396.258 101.353 401.085C101.681 401.903 102.643 402.514 103.407 403.08C104.225 403.676 105.264 403.932 106.1 403.208C106.71 402.684 106.663 401.758 106.366 401.019C104.264 395.59 102.158 390.162 99.9133 384.787C99.33 383.395 98.2344 381.683 96.4395 382.42C94.6879 383.161 95.2202 385.032 95.6812 387.458Z" fill="#FABF4B"/>
<path d="M227.441 186.414C227.977 186.123 228.901 185.76 229.696 185.234C234.032 182.339 236.262 177.742 238.878 173.507C239.578 172.352 240.34 170.436 238.414 169.404C236.442 168.362 235.866 169.909 235.045 171.363C232.537 175.767 228.857 179.244 225.372 182.88C224.477 183.811 222.798 184.317 223.914 186.019C224.699 187.27 225.973 186.73 227.441 186.414Z" fill="#FABF4B"/>
<path d="M175.298 229.585C180.5 228.161 184.301 224.636 188.64 222.131C189.907 221.387 189.896 220.243 188.991 219.174C187.999 217.98 186.874 216.625 185.157 218.066C181.693 220.957 177.532 222.641 173.745 224.963C172.456 225.763 170.628 226.418 171.401 228.384C172.156 230.289 174.005 229.512 175.298 229.585Z" fill="#FABF4B"/>
<path d="M200.599 498.9C198.883 494.891 197.587 490.772 195.168 487.231C193.971 485.491 192.341 484.44 190.296 486.184C188.522 487.669 189.621 488.897 190.724 490.073C193.037 492.594 193.531 495.977 195.006 498.902C195.183 499.251 195.217 499.651 195.272 500.044C195.658 502.454 196.936 504.347 199.509 503.719C202.549 502.983 200.042 500.437 200.599 498.9Z" fill="#FABF4B"/>
<path d="M156.883 243.4C152.28 245.38 148.643 248.729 145.526 252.735C144.813 253.665 144.925 254.591 145.78 255.284C146.871 256.17 148.515 257.008 149.5 256.135C153.037 253.01 157.435 250.665 159.591 246.233C160.582 244.258 159.163 242.85 156.883 243.4Z" fill="#FABF4B"/>
<path d="M196.081 34.6978C194.92 35.3591 194.266 36.3844 195.353 37.4534C199.055 41.0469 202.585 44.8655 207.298 47.2122C208.568 47.8442 210.217 47.5789 211.007 46.4128C212.01 44.9595 210.599 43.8281 209.568 43.1525C205.861 40.7314 203.251 36.8483 198.867 35.3203C197.946 35.0177 197.118 34.5212 196.081 34.6978Z" fill="#FABF4B"/>
<path d="M92.0381 355.402C92.2558 357.92 92.1368 360.514 94.764 362.072C96.8211 363.286 98.3117 362.709 98.0851 360.356C97.6995 356.153 96.7174 352.011 96.4921 347.749C96.4357 346.413 95.6639 344.516 93.5965 344.778C91.8833 344.996 91.9455 346.652 91.5645 347.92C90.8177 350.496 91.8118 352.934 92.0381 355.402Z" fill="#FABF4B"/>
<path d="M162.956 462.634C163.29 464.282 171.295 470.924 172.967 470.903C175.074 470.881 175.898 469.566 175.056 467.852C173.413 464.528 170.898 461.785 167.582 460.16C165.208 458.97 162.529 460.678 162.956 462.634Z" fill="#FABF4B"/>
<path d="M132.171 442.523C130.966 443.058 130.139 443.621 130.027 444.674C129.906 445.843 130.09 447.087 131.317 447.666C134.999 449.406 138.665 451.105 142.378 452.74C143.222 453.096 144.308 453.357 145.049 452.442C145.783 451.501 145.079 450.589 144.675 449.75C144.088 448.475 143.124 447.246 141.866 446.954C139.122 446.316 136.979 444.694 134.65 443.372C133.838 442.917 132.854 442.753 132.171 442.523Z" fill="#FABF4B"/>
<path d="M204.536 572.969C204.191 571.533 204.12 570.043 202.451 569.695C200.906 569.373 199.8 570.243 199.257 571.567C198.087 574.369 196.353 577.083 197.062 580.359C197.368 581.741 198.015 582.929 199.598 583.17C201.156 583.396 202.26 582.596 202.762 581.214C203.746 578.526 204.705 575.779 204.536 572.969Z" fill="#FABF4B"/>
<path d="M197.736 594.792C196.39 594.184 195.169 593.326 193.871 594.432C192.67 595.455 192.678 596.862 193.392 598.102C194.887 600.745 195.968 603.779 198.991 605.227C200.27 605.833 201.605 606.051 202.766 604.948C203.9 603.855 203.946 602.493 203.162 601.249C201.641 598.823 200.059 596.381 197.736 594.792Z" fill="#FABF4B"/>
<path d="M165.872 22.2813C164.425 23.2791 162.368 23.0044 162.156 25.0385C161.915 27.4293 163.91 27.104 165.3 27.4374C168.285 28.1709 171.149 29.3154 174.253 29.6155C175.866 29.7512 177.05 29.222 177.384 27.7663C177.652 26.5618 176.689 25.5836 175.49 25.2014C172.254 24.1712 168.98 23.2218 165.872 22.2813Z" fill="#FABF4B"/>
<path d="M134.404 31.8532C136.839 31.3432 138.93 29.5321 141.679 30.1229C142.453 30.2952 143.29 29.6875 143.216 28.8163C143.159 28.1027 142.804 27.2691 142.299 26.7657C139.826 24.2566 131.981 25.1859 130.073 28.172C129.392 29.2515 129.175 30.4097 130.037 31.4255C131.292 32.8929 132.903 32.0167 134.404 31.8532Z" fill="#FABF4B"/>
<path d="M120.111 425.125C118.79 420.257 115.859 417.505 113.031 414.711C111.747 413.419 110.025 412.631 108.522 414.337C107.285 415.717 107.796 417.413 109.051 418.44C112.186 421.004 114.619 424.839 120.111 425.125Z" fill="#FABF4B"/>
<path d="M200.366 207.465C206.648 208.835 210.419 205.416 214.307 202.434C214.953 201.941 214.751 201.026 214.365 200.298C213.589 198.817 212.091 199.253 211.354 199.804C208.017 202.353 203.669 203.342 200.366 207.465Z" fill="#FABF4B"/>
</svg>
