<svg width="403" height="651" viewBox="0 0 403 651" fill="none" xmlns="http://www.w3.org/2000/svg">
<path d="M263.068 286.219C264.599 287.126 266.753 287.463 267.523 289.179C270.154 294.976 274.34 299.707 277.664 305.008C278.927 307.029 279.141 308.804 276.682 310.075C274.746 311.053 273.738 309.711 272.545 308.541C268.545 304.612 267.585 298.826 264.07 294.564C262.688 292.866 261.172 291.067 260.752 288.803C260.438 287.158 260.995 285.982 263.068 286.219Z" fill="#FABF4B"/>
<path d="M146.987 161.392C139.243 154.864 138.82 145.472 136.694 136.806C136.08 134.277 137.851 132.773 139.85 132.352C141.799 131.936 142.743 133.834 142.833 135.495C143.354 143.514 146.2 151.016 147.833 158.774C148.008 159.613 148.009 160.391 146.987 161.392Z" fill="#FABF4B"/>
<path d="M148.772 106.644C148.232 108.819 147.77 111.049 147.074 113.189C146.486 114.909 145.291 115.777 143.242 115.283C141.32 114.839 140.477 113.847 140.585 111.85C140.816 106.845 142.29 102.206 144.604 97.8035C145.294 96.5334 146.379 95.4333 148.088 95.9203C149.823 96.4188 150.163 97.8523 149.947 99.3488C149.579 101.782 149.055 104.181 148.615 106.61C148.659 106.627 148.728 106.627 148.772 106.644Z" fill="#FABF4B"/>
<path d="M288.084 327.341C289.048 327.623 289.896 328.47 290.612 329.489C293.296 333.366 294.998 337.681 296.736 342.011C297.654 344.313 297.054 345.936 294.665 346.889C291.827 347.994 291.122 346.306 290.43 344.108C289.3 340.419 288.209 336.693 285.883 333.48C284.837 332.049 284.762 330.421 285.455 328.814C285.881 327.857 286.575 327.097 288.084 327.341Z" fill="#FABF4B"/>
<path d="M157.285 79.6254C158.092 74.9551 160.804 71.0373 162.645 66.7269C162.894 66.1896 163.297 65.6856 163.78 65.3074C165.061 64.3267 166.516 62.9534 168.115 63.8112C169.888 64.7855 169.292 66.7927 168.668 68.2089C166.763 72.6919 164.55 77.0307 162.582 81.4911C161.708 83.5175 160.619 84.4942 158.391 83.5721C156.348 82.7414 156.226 81.3649 157.285 79.6254Z" fill="#FABF4B"/>
<path d="M181.099 558.742C181.471 557.666 181.785 556.692 182.161 555.74C182.648 554.565 183.278 553.391 184.819 553.746C186.181 554.057 187.514 554.452 187.497 556.46C187.463 560.541 187.69 564.651 187.706 568.73C187.69 570.469 187.049 571.876 185.211 572.578C182.833 573.49 181.092 573.356 181.055 570.309C180.966 566.424 181.073 562.536 181.099 558.742Z" fill="#FABF4B"/>
<path d="M301.97 407.598C299.345 411.472 298.096 416.875 295.99 421.963C295.645 422.826 294.63 423.47 293.826 424.067C292.963 424.695 291.868 424.965 290.986 424.202C290.344 423.649 290.393 422.673 290.706 421.894C292.922 416.171 295.142 410.449 297.508 404.782C298.123 403.315 299.278 401.51 301.17 402.288C303.017 403.068 302.456 405.041 301.97 407.598Z" fill="#FABF4B"/>
<path d="M163.072 195.663C162.507 195.356 161.533 194.973 160.695 194.419C156.124 191.367 153.773 186.522 151.016 182.056C150.277 180.839 149.475 178.82 151.505 177.731C153.583 176.633 154.191 178.264 155.056 179.796C157.7 184.439 161.579 188.105 165.254 191.938C166.197 192.919 167.966 193.452 166.79 195.246C165.962 196.565 164.62 195.996 163.072 195.663Z" fill="#FABF4B"/>
<path d="M218.039 241.173C212.556 239.671 208.549 235.956 203.975 233.315C202.639 232.531 202.651 231.324 203.605 230.197C204.65 228.939 205.836 227.511 207.647 229.03C211.298 232.078 215.685 233.852 219.677 236.3C221.036 237.144 222.962 237.834 222.147 239.906C221.352 241.915 219.402 241.096 218.039 241.173Z" fill="#FABF4B"/>
<path d="M191.368 525.077C193.177 520.851 194.543 516.509 197.093 512.776C198.355 510.942 200.073 509.834 202.229 511.672C204.099 513.238 202.941 514.532 201.778 515.772C199.339 518.43 198.819 521.996 197.264 525.079C197.077 525.448 197.041 525.869 196.984 526.284C196.576 528.824 195.23 530.82 192.517 530.157C189.312 529.381 191.955 526.698 191.368 525.077Z" fill="#FABF4B"/>
<path d="M237.452 255.736C242.304 257.824 246.138 261.353 249.424 265.576C250.176 266.557 250.058 267.533 249.156 268.263C248.007 269.198 246.274 270.081 245.235 269.161C241.506 265.867 236.87 263.394 234.597 258.723C233.553 256.64 235.049 255.157 237.452 255.736Z" fill="#FABF4B"/>
<path d="M196.131 35.7277C197.354 36.4249 198.044 37.5057 196.899 38.6326C192.995 42.4208 189.274 46.4463 184.306 48.9201C182.968 49.5863 181.229 49.3067 180.396 48.0774C179.339 46.5453 180.826 45.3527 181.913 44.6405C185.821 42.0882 188.572 37.9947 193.194 36.384C194.165 36.065 195.037 35.5416 196.131 35.7277Z" fill="#FABF4B"/>
<path d="M305.81 373.806C305.581 376.459 305.706 379.194 302.937 380.837C300.768 382.117 299.197 381.508 299.436 379.028C299.842 374.597 300.877 370.231 301.115 365.738C301.174 364.329 301.988 362.33 304.167 362.606C305.973 362.836 305.908 364.581 306.309 365.918C307.097 368.634 306.049 371.203 305.81 373.806Z" fill="#FABF4B"/>
<path d="M231.051 486.847C230.698 488.584 222.259 495.586 220.497 495.564C218.276 495.54 217.408 494.154 218.294 492.347C220.027 488.844 222.678 485.951 226.173 484.238C228.677 482.985 231.5 484.784 231.051 486.847Z" fill="#FABF4B"/>
<path d="M263.503 465.646C264.774 466.211 265.645 466.804 265.763 467.915C265.891 469.146 265.697 470.458 264.404 471.068C260.522 472.903 256.657 474.694 252.744 476.417C251.854 476.792 250.709 477.068 249.927 476.102C249.154 475.111 249.896 474.149 250.321 473.265C250.94 471.921 251.957 470.625 253.282 470.318C256.176 469.645 258.435 467.936 260.89 466.541C261.746 466.062 262.783 465.889 263.503 465.646Z" fill="#FABF4B"/>
<path d="M187.218 603.159C187.582 601.646 187.657 600.075 189.416 599.708C191.044 599.369 192.211 600.285 192.782 601.682C194.016 604.635 195.844 607.496 195.096 610.95C194.774 612.406 194.092 613.659 192.424 613.913C190.78 614.151 189.617 613.308 189.087 611.851C188.05 609.017 187.039 606.122 187.218 603.159Z" fill="#FABF4B"/>
<path d="M194.386 626.164C195.805 625.523 197.092 624.619 198.46 625.784C199.727 626.863 199.718 628.346 198.966 629.654C197.389 632.439 196.25 635.638 193.063 637.164C191.715 637.803 190.308 638.033 189.083 636.87C187.888 635.718 187.84 634.282 188.666 632.971C190.269 630.413 191.937 627.839 194.386 626.164Z" fill="#FABF4B"/>
<path d="M227.977 22.639C229.502 23.6908 231.67 23.4012 231.893 25.5456C232.148 28.0659 230.045 27.7229 228.58 28.0744C225.433 28.8477 222.414 30.0542 219.142 30.3705C217.441 30.5136 216.193 29.9556 215.841 28.4211C215.558 27.1513 216.573 26.1202 217.838 25.7173C221.249 24.6312 224.7 23.6304 227.977 22.639Z" fill="#FABF4B"/>
<path d="M261.149 32.729C258.582 32.1913 256.378 30.2821 253.479 30.905C252.664 31.0866 251.782 30.446 251.859 29.5276C251.919 28.7754 252.294 27.8965 252.827 27.3659C255.433 24.7209 263.703 25.7005 265.715 28.8484C266.432 29.9863 266.661 31.2073 265.752 32.2781C264.429 33.825 262.731 32.9013 261.149 32.729Z" fill="#FABF4B"/>
<path d="M276.216 447.306C277.609 442.174 280.699 439.273 283.68 436.328C285.033 434.965 286.849 434.135 288.434 435.934C289.738 437.388 289.199 439.176 287.875 440.258C284.571 442.961 282.006 447.004 276.216 447.306Z" fill="#FABF4B"/>
<path d="M191.613 217.854C184.991 219.299 181.016 215.694 176.917 212.55C176.236 212.031 176.449 211.067 176.856 210.299C177.674 208.737 179.253 209.198 180.03 209.779C183.548 212.465 188.132 213.508 191.613 217.854Z" fill="#FABF4B"/>
</svg>
