<svg width="383" height="618" viewBox="0 0 383 618" fill="none" xmlns="http://www.w3.org/2000/svg">
<path d="M249.956 272.316C251.409 273.176 253.452 273.497 254.182 275.124C256.678 280.623 260.649 285.111 263.803 290.14C265 292.057 265.204 293.741 262.871 294.946C261.034 295.874 260.078 294.601 258.947 293.492C255.152 289.764 254.241 284.275 250.907 280.232C249.596 278.622 248.158 276.915 247.76 274.768C247.461 273.207 247.99 272.092 249.956 272.316Z" fill="#FABF4B"/>
<path d="M139.841 153.904C132.495 147.712 132.093 138.803 130.077 130.582C129.494 128.182 131.174 126.756 133.07 126.356C134.919 125.962 135.815 127.762 135.9 129.338C136.394 136.944 139.094 144.062 140.644 151.421C140.81 152.216 140.811 152.955 139.841 153.904Z" fill="#FABF4B"/>
<path d="M141.534 101.97C141.022 104.032 140.584 106.148 139.923 108.178C139.365 109.81 138.232 110.633 136.288 110.164C134.465 109.743 133.666 108.802 133.768 106.908C133.986 102.161 135.385 97.7596 137.58 93.5832C138.235 92.3784 139.264 91.3348 140.885 91.7968C142.531 92.2697 142.854 93.6295 142.649 95.0491C142.3 97.3575 141.802 99.6333 141.385 101.937C141.427 101.953 141.493 101.953 141.534 101.97Z" fill="#FABF4B"/>
<path d="M273.687 311.325C274.601 311.593 275.406 312.396 276.085 313.363C278.631 317.041 280.245 321.134 281.894 325.241C282.765 327.425 282.196 328.964 279.929 329.869C277.237 330.917 276.568 329.316 275.912 327.231C274.84 323.731 273.806 320.197 271.599 317.149C270.606 315.792 270.535 314.247 271.192 312.723C271.597 311.815 272.256 311.094 273.687 311.325Z" fill="#FABF4B"/>
<path d="M149.609 76.339C150.375 71.9087 152.947 68.1922 154.694 64.1034C154.93 63.5937 155.312 63.1156 155.77 62.7568C156.986 61.8266 158.366 60.5238 159.883 61.3375C161.564 62.2618 160.999 64.1658 160.407 65.5092C158.6 69.7619 156.501 73.8777 154.634 78.1089C153.805 80.0311 152.772 80.9576 150.658 80.0829C148.72 79.295 148.605 77.9892 149.609 76.339Z" fill="#FABF4B"/>
<path d="M172.199 530.834C172.552 529.814 172.85 528.89 173.207 527.987C173.669 526.872 174.267 525.758 175.728 526.095C177.021 526.39 178.285 526.766 178.269 528.67C178.237 532.541 178.452 536.44 178.467 540.309C178.452 541.959 177.844 543.294 176.1 543.959C173.845 544.824 172.194 544.697 172.158 541.807C172.074 538.122 172.175 534.433 172.199 530.834Z" fill="#FABF4B"/>
<path d="M286.859 387.458C284.369 391.133 283.184 396.258 281.187 401.085C280.859 401.903 279.897 402.514 279.133 403.08C278.315 403.676 277.276 403.932 276.44 403.208C275.83 402.684 275.877 401.758 276.174 401.019C278.276 395.59 280.382 390.162 282.627 384.787C283.21 383.395 284.306 381.683 286.101 382.42C287.852 383.161 287.32 385.032 286.859 387.458Z" fill="#FABF4B"/>
<path d="M155.099 186.414C154.563 186.123 153.639 185.76 152.844 185.234C148.508 182.339 146.278 177.742 143.662 173.507C142.962 172.352 142.2 170.436 144.126 169.404C146.098 168.362 146.674 169.909 147.495 171.363C150.003 175.767 153.683 179.244 157.168 182.88C158.063 183.811 159.742 184.317 158.626 186.019C157.841 187.27 156.567 186.73 155.099 186.414Z" fill="#FABF4B"/>
<path d="M207.242 229.585C202.04 228.161 198.239 224.636 193.9 222.131C192.633 221.387 192.644 220.243 193.549 219.174C194.541 217.98 195.666 216.625 197.383 218.066C200.847 220.957 205.008 222.641 208.795 224.963C210.084 225.763 211.912 226.418 211.139 228.384C210.384 230.289 208.535 229.512 207.242 229.585Z" fill="#FABF4B"/>
<path d="M181.941 498.9C183.657 494.891 184.953 490.772 187.372 487.231C188.569 485.491 190.199 484.44 192.244 486.184C194.018 487.669 192.919 488.897 191.816 490.073C189.503 492.594 189.009 495.977 187.534 498.902C187.357 499.251 187.323 499.651 187.268 500.044C186.882 502.454 185.604 504.347 183.031 503.719C179.991 502.983 182.498 500.437 181.941 498.9Z" fill="#FABF4B"/>
<path d="M225.657 243.4C230.26 245.38 233.897 248.729 237.014 252.735C237.727 253.665 237.615 254.591 236.76 255.284C235.669 256.17 234.025 257.008 233.04 256.135C229.503 253.01 225.105 250.665 222.949 246.233C221.958 244.258 223.377 242.85 225.657 243.4Z" fill="#FABF4B"/>
<path d="M186.459 34.6978C187.62 35.3591 188.274 36.3844 187.188 37.4534C183.485 41.0469 179.955 44.8655 175.242 47.2122C173.972 47.8442 172.323 47.5789 171.533 46.4128C170.53 44.9595 171.941 43.8281 172.972 43.1525C176.679 40.7314 179.289 36.8483 183.673 35.3203C184.594 35.0177 185.422 34.5212 186.459 34.6978Z" fill="#FABF4B"/>
<path d="M290.502 355.402C290.284 357.92 290.403 360.514 287.776 362.072C285.719 363.286 284.228 362.709 284.455 360.356C284.841 356.153 285.823 352.011 286.048 347.749C286.104 346.413 286.876 344.516 288.944 344.778C290.657 344.996 290.595 346.652 290.975 347.92C291.722 350.496 290.728 352.934 290.502 355.402Z" fill="#FABF4B"/>
<path d="M219.584 462.634C219.25 464.282 211.245 470.924 209.573 470.903C207.466 470.881 206.642 469.566 207.484 467.852C209.127 464.528 211.642 461.785 214.958 460.16C217.332 458.97 220.011 460.678 219.584 462.634Z" fill="#FABF4B"/>
<path d="M250.369 442.523C251.574 443.058 252.401 443.621 252.513 444.674C252.634 445.843 252.45 447.087 251.223 447.666C247.541 449.406 243.875 451.105 240.162 452.74C239.318 453.096 238.232 453.357 237.491 452.442C236.757 451.501 237.461 450.589 237.865 449.75C238.452 448.475 239.416 447.246 240.674 446.954C243.418 446.316 245.561 444.694 247.89 443.372C248.702 442.917 249.686 442.753 250.369 442.523Z" fill="#FABF4B"/>
<path d="M178.004 572.969C178.349 571.533 178.42 570.043 180.089 569.695C181.634 569.373 182.74 570.243 183.283 571.567C184.453 574.369 186.187 577.083 185.478 580.359C185.172 581.741 184.525 582.929 182.942 583.17C181.384 583.396 180.28 582.596 179.778 581.214C178.794 578.526 177.835 575.779 178.004 572.969Z" fill="#FABF4B"/>
<path d="M184.804 594.792C186.15 594.184 187.371 593.326 188.669 594.432C189.871 595.455 189.862 596.862 189.148 598.102C187.653 600.745 186.572 603.779 183.549 605.227C182.27 605.833 180.935 606.051 179.774 604.948C178.64 603.855 178.594 602.493 179.378 601.249C180.899 598.823 182.481 596.381 184.804 594.792Z" fill="#FABF4B"/>
<path d="M216.668 22.2813C218.115 23.2791 220.172 23.0044 220.384 25.0385C220.625 27.4293 218.63 27.104 217.24 27.4374C214.255 28.1709 211.391 29.3154 208.287 29.6155C206.674 29.7512 205.49 29.222 205.157 27.7663C204.888 26.5618 205.851 25.5836 207.05 25.2014C210.286 24.1712 213.56 23.2218 216.668 22.2813Z" fill="#FABF4B"/>
<path d="M248.136 31.8532C245.701 31.3432 243.61 29.5321 240.861 30.1229C240.087 30.2952 239.25 29.6875 239.324 28.8163C239.381 28.1027 239.736 27.2691 240.241 26.7657C242.714 24.2566 250.559 25.1859 252.467 28.172C253.148 29.2515 253.365 30.4097 252.503 31.4255C251.248 32.8929 249.637 32.0167 248.136 31.8532Z" fill="#FABF4B"/>
<path d="M262.429 425.125C263.75 420.257 266.681 417.505 269.509 414.711C270.793 413.419 272.515 412.631 274.018 414.337C275.255 415.717 274.744 417.413 273.489 418.44C270.354 421.004 267.921 424.839 262.429 425.125Z" fill="#FABF4B"/>
<path d="M182.174 207.465C175.892 208.835 172.121 205.416 168.233 202.434C167.587 201.941 167.789 201.026 168.175 200.298C168.951 198.817 170.449 199.253 171.186 199.804C174.523 202.353 178.871 203.342 182.174 207.465Z" fill="#FABF4B"/>
</svg>
