<svg width="1440" height="130" viewBox="0 0 1440 130" fill="none" xmlns="http://www.w3.org/2000/svg">
<path fill-rule="evenodd" clip-rule="evenodd" d="M1617 163.825L1566.56 127.767C1514.6 91.7089 1413.73 19.5924 1311.33 7.57299C1208.93 -4.44644 1108.06 43.6312 1005.67 67.67C903.268 91.7089 802.398 91.7089 700 79.6894C597.602 67.67 496.732 43.6312 394.333 25.602C291.935 7.57291 191.065 -4.44652 88.6667 1.56318C-13.7317 7.57288 -114.602 31.6117 -166.565 43.6311L-217 55.6505L-217 272L-166.565 272C-114.602 272 -13.7317 272 88.6667 272C191.065 272 291.935 272 394.333 272C496.732 272 597.602 272 700 272C802.398 272 903.268 272 1005.67 272C1108.06 272 1208.93 272 1311.33 272C1413.73 272 1514.6 272 1566.56 272L1617 272L1617 163.825Z" fill="#FFBF41"/>
<path fill-rule="evenodd" clip-rule="evenodd" d="M1586 186.269L1539.3 147.692C1491.19 109.115 1397.81 31.961 1303 19.102C1208.2 6.24297 1114.81 57.679 1020 83.397C925.195 109.115 831.805 109.115 737 96.256C642.195 83.397 548.805 57.6789 454 38.3904C359.195 19.1019 265.805 6.2429 171 12.6724C76.1951 19.1019 -17.1949 44.8199 -65.3049 57.6789L-112 70.5379L-112 302L-65.305 302C-17.195 302 76.195 302 171 302C265.805 302 359.195 302 454 302C548.805 302 642.195 302 737 302C831.805 302 925.195 302 1020 302C1114.8 302 1208.19 302 1303 302C1397.8 302 1491.19 302 1539.3 302L1586 302L1586 186.269Z" fill="#FBCF78"/>
</svg>
