<svg width="544" height="316" viewBox="0 0 544 316" fill="none" xmlns="http://www.w3.org/2000/svg">
<path d="M211.6 211.349C212.372 212.269 212.552 213.689 214.159 213.981C219.585 214.988 223.874 217.197 228.774 218.742C230.642 219.328 232.344 219.234 233.74 217.388C234.817 215.937 233.587 215.433 232.538 214.779C229.011 212.588 223.482 212.718 219.6 210.902C218.052 210.191 216.416 209.402 214.256 209.423C212.686 209.432 211.512 209.97 211.6 211.349Z" fill="#FABF4B"/>
<path d="M98.8012 149.226C93.016 144.838 83.9646 145.821 75.7301 145.548C73.3264 145.472 71.7522 146.881 71.2091 148.299C70.6746 149.682 72.4454 150.068 74.0449 149.904C81.7625 149.173 88.8231 150.095 96.213 150.156C97.0117 150.162 97.7644 150.057 98.8012 149.226Z" fill="#FABF4B"/>
<path d="M45.7477 157.853C47.8869 157.191 50.0746 156.575 52.1913 155.811C53.8945 155.178 54.8147 154.247 54.4762 152.919C54.1775 151.671 53.276 151.231 51.3377 151.575C46.4833 152.409 41.8975 154.042 37.4835 156.212C36.2086 156.854 35.0711 157.742 35.4258 158.839C35.7899 159.953 37.1527 159.99 38.6143 159.641C40.9921 159.061 43.3473 158.379 45.7251 157.751C45.7387 157.779 45.7341 157.826 45.7477 157.853Z" fill="#FABF4B"/>
<path d="M249.658 222.811C249.866 223.429 250.627 223.892 251.563 224.242C255.13 225.544 259.186 226.118 263.254 226.715C265.417 227.029 267.027 226.401 268.111 224.645C269.373 222.563 267.788 222.312 265.71 222.138C262.22 221.869 258.692 221.631 255.744 220.482C254.431 219.963 252.863 220.133 251.261 220.822C250.307 221.242 249.525 221.818 249.658 222.811Z" fill="#FABF4B"/>
<path d="M19.0455 167.306C14.4751 168.488 10.5029 170.864 6.21013 172.702C5.67374 172.944 5.15907 173.286 4.76058 173.666C3.72532 174.671 2.29866 175.847 3.01924 176.82C3.84079 177.895 5.82196 177.217 7.23357 176.601C11.6975 174.697 16.0429 172.603 20.4893 170.66C22.5079 169.79 23.5263 168.917 22.7862 167.525C22.122 166.246 20.7993 166.35 19.0455 167.306Z" fill="#FABF4B"/>
<path d="M480.663 118.654C479.598 119.053 478.634 119.398 477.688 119.783C476.519 120.274 475.341 120.862 475.58 121.863C475.787 122.748 476.079 123.602 478.022 123.318C481.97 122.743 485.928 122.341 489.871 121.799C491.553 121.554 492.957 120.926 493.76 119.58C494.804 117.838 494.793 116.671 491.85 117.059C488.099 117.524 484.333 118.123 480.663 118.654Z" fill="#FABF4B"/>
<path d="M326.311 221.399C330.235 219.088 335.544 217.506 340.607 215.384C341.464 215.032 342.156 214.254 342.788 213.625C343.454 212.953 343.789 212.171 343.111 211.674C342.62 211.312 341.674 211.477 340.899 211.796C335.215 214.079 329.532 216.365 323.892 218.743C322.431 219.36 320.608 220.391 321.231 221.574C321.86 222.725 323.806 222.076 326.311 221.399Z" fill="#FABF4B"/>
<path d="M130.843 155.536C130.585 155.193 130.281 154.582 129.802 154.086C127.162 151.388 122.637 150.444 118.507 149.171C117.38 148.833 115.483 148.56 114.293 150.089C113.089 151.653 114.625 151.846 116.047 152.228C120.357 153.399 123.637 155.543 127.093 157.526C127.978 158.035 128.373 159.167 130.188 158.123C131.519 157.382 131.06 156.545 130.843 155.536Z" fill="#FABF4B"/>
<path d="M171.108 186.795C170.029 183.265 166.709 181.041 164.466 178.284C163.799 177.481 162.632 177.652 161.478 178.454C160.19 179.336 158.728 180.337 160.074 181.364C162.772 183.437 164.19 186.183 166.286 188.569C167.009 189.38 167.545 190.598 169.604 189.763C171.601 188.949 170.941 187.733 171.108 186.795Z" fill="#FABF4B"/>
<path d="M447.415 130.202C443.206 132.005 438.915 133.523 435.132 135.765C433.273 136.872 432.086 138.192 433.716 139.411C435.103 140.472 436.433 139.508 437.711 138.549C440.446 136.528 443.929 135.691 447.016 134.215C447.385 134.038 447.795 133.957 448.2 133.861C450.683 133.24 452.705 132.053 452.249 130.296C451.716 128.22 448.942 130.382 447.415 130.202Z" fill="#FABF4B"/>
<path d="M183.869 198.038C185.558 201.059 188.71 203.191 192.569 204.856C193.467 205.235 194.418 205.023 195.186 204.31C196.167 203.401 197.139 202.102 196.32 201.519C193.388 199.427 191.313 196.605 186.951 195.691C185.008 195.262 183.472 196.481 183.869 198.038Z" fill="#FABF4B"/>
<path d="M293.378 228.588C295.96 228.073 298.595 227.788 300.372 225.68C301.757 224.03 301.275 223.043 298.861 223.542C294.549 224.418 290.257 225.714 285.897 226.484C284.531 226.715 282.542 227.54 282.661 228.986C282.761 230.184 284.453 229.903 285.719 229.996C288.29 230.164 290.846 229.103 293.378 228.588Z" fill="#FABF4B"/>
<path d="M407.754 162.392C409.458 161.917 416.801 155.224 416.9 154.028C417.028 152.519 415.746 152.115 413.939 152.964C410.434 154.617 407.457 156.814 405.564 159.425C404.181 161.299 405.729 162.977 407.754 162.392Z" fill="#FABF4B"/>
<path d="M385.05 187.354C385.51 188.143 386.024 188.656 387.09 188.586C388.272 188.506 389.553 188.197 390.231 187.234C392.269 184.343 394.263 181.469 396.195 178.572C396.619 177.915 396.963 177.098 396.083 176.697C395.177 176.305 394.197 176.94 393.313 177.35C391.971 177.953 390.649 178.82 390.262 179.764C389.414 181.825 387.608 183.595 386.093 185.455C385.572 186.102 385.334 186.832 385.05 187.354Z" fill="#FABF4B"/>
<path d="M523.192 116.806C521.703 117.258 520.179 117.522 519.706 118.769C519.267 119.924 520.074 120.594 521.385 120.794C524.156 121.234 526.798 122.091 530.188 121.114C531.619 120.698 532.876 120.064 533.235 118.894C533.577 117.743 532.841 117.065 531.468 116.902C528.799 116.579 526.068 116.283 523.192 116.806Z" fill="#FABF4B"/>
<path d="M366.454 198.491C361.397 200.135 358.382 202.631 355.332 205.059C353.922 206.165 352.996 207.513 354.628 208.348C355.945 209.039 357.71 208.43 358.847 207.383C361.685 204.768 365.768 202.474 366.454 198.491Z" fill="#FABF4B"/>
<path d="M150.358 171.961C152.205 167.257 148.991 165.04 146.23 162.675C145.773 162.282 144.827 162.557 144.057 162.938C142.491 163.706 142.829 164.719 143.338 165.169C145.696 167.2 146.393 170.18 150.358 171.961Z" fill="#FABF4B"/>
</svg>
