<svg width="1440" height="207" viewBox="0 0 1440 207" fill="none" xmlns="http://www.w3.org/2000/svg">
<path fill-rule="evenodd" clip-rule="evenodd" d="M1611 217.284L1562.02 181.226C1511.56 145.168 1413.61 73.0514 1314.17 61.032C1214.73 49.0125 1116.77 97.0902 1017.33 121.129C917.894 145.168 819.939 145.168 720.5 133.148C621.061 121.129 523.106 97.0902 423.667 79.061C324.228 61.0319 226.273 49.0125 126.833 55.0222C27.3942 61.0319 -70.5608 85.0707 -121.022 97.0901L-170 109.11L-170 325.459L-121.022 325.459C-70.5608 325.459 27.3941 325.459 126.833 325.459C226.273 325.459 324.228 325.459 423.667 325.459C523.106 325.459 621.061 325.459 720.5 325.459C819.939 325.459 917.894 325.459 1017.33 325.459C1116.77 325.459 1214.73 325.459 1314.17 325.459C1413.61 325.459 1511.56 325.459 1562.02 325.459L1611 325.459L1611 217.284Z" fill="#FFBF41"/>
<path fill-rule="evenodd" clip-rule="evenodd" d="M1576.69 280.435L1533.92 238.918C1489.79 197.314 1404.26 114.282 1313.26 95.5467C1222.25 76.8116 1128.51 122.549 1035.04 142.445C941.571 162.341 851.115 156.571 760.11 137.836C669.105 119.101 580.292 87.5759 489.697 62.4024C399.103 37.2288 309.468 18.5812 217.231 19.1617C124.993 19.7422 32.8941 39.7257 -14.526 49.63L-60.5755 59.6217L-75.3622 291.408L-30.1342 294.293C16.4645 297.266 106.921 303.037 198.747 308.895C290.574 314.753 381.03 320.523 472.857 326.381C564.683 332.239 655.14 338.01 746.966 343.868C838.793 349.726 929.249 355.496 1021.08 361.354C1112.9 367.212 1203.36 372.983 1295.19 378.841C1387.01 384.699 1477.47 390.47 1524.07 393.442L1569.29 396.328L1576.69 280.435Z" fill="#FBCF78"/>
</svg>
