<svg width="303" height="297" viewBox="0 0 303 297" fill="none" xmlns="http://www.w3.org/2000/svg">
<ellipse cx="139.895" cy="235.398" rx="99.8945" ry="10.3979" fill="#7D7D7D"/>
<path d="M149.091 94.6441C152.368 118.268 197.714 148.227 211.562 169.798C235.258 206.056 219.125 240.146 173.559 231.856C134.31 224.684 108.254 193.351 93.7152 160.849C86.4446 144.6 79.1209 127.506 82.5309 110.883C84.9465 99.6697 92.9296 77.7988 106.608 75.4698" fill="#F2EBC7"/>
<path d="M122.696 109.011C110.264 103.188 102.492 88.9227 92.3539 80.4311C87.5718 75.6875 66.1223 58.5295 60.4572 57.9299C51.1051 57.1983 54.1796 62.0707 60.795 66.4242C67.9665 71.1464 73.9012 76.2922 76.3853 85.0269C79.3975 98.0493 84.9264 115.842 97.6135 125.135C98.1776 125.461 98.7446 125.785 99.3054 126.109" fill="#F2EBC7"/>
<path d="M221.102 203.115C226.744 210.345 234.955 218.361 248.891 213.104C266.305 206.323 257.657 180.75 261.226 166.652C262.221 161.248 265.056 149.63 274.211 153.389C280.63 156.185 280.167 170.001 280.484 175.046C281.385 189.34 276.557 204.641 267.881 215.578C248.166 242.386 218.923 220.328 214.972 212.702C211.021 205.076 215.457 195.882 221.102 203.115Z" fill="#231F20"/>
<path d="M202.35 225.82C194.255 238.88 177.204 230.164 165.109 236.341C161.214 238.268 166.794 241.868 160.166 242.835C157.063 243.114 151.536 240.358 148.801 239.401C141.542 237.403 109.51 229.093 118.483 223.237C127.455 217.38 131.048 230.136 140.003 227.075C143.389 225.914 138.753 221.596 139.152 209.413C139.553 197.228 142.27 186.207 157.077 187.606" fill="#F2EBC7"/>
<path d="M150.052 69.1876C151.656 72.2836 152.723 75.587 153.11 79.0201C153.942 86.4123 149.456 98.0795 143.782 102.929C122.363 121.229 82.0162 92.8449 82.528 68.3568C82.575 66.0006 84.0415 60.3274 86.0751 58.655C87.8462 57.1989 87.955 60.2752 91.3636 58.9048C94.7728 57.5403 105.696 44.5486 119.936 47.5188C132.328 50.0991 144.353 58.1957 150.052 69.1876Z" fill="#F2EBC7"/>
<path d="M147.502 67.0046C144.734 60.3513 143.41 46.5788 143.41 46.5788C143.41 46.5788 127.021 52.992 122.744 58.3838C120.743 60.9027 124.913 67.8886 131.46 70.2223C138.93 72.8874 148.978 70.5507 147.502 67.0046Z" fill="#231F20"/>
<path d="M84.8532 60.1224C84.5566 60.7729 89.7633 60.859 90.1003 59.8735C90.434 58.8849 87.6279 56.9632 87.0581 57.179C86.4856 57.3978 85.1497 59.4719 84.8532 60.1224Z" fill="#F26538"/>
<path d="M85.9672 68.3505C86.2513 68.6145 86.561 68.8309 86.8886 68.9818C88.0791 69.5288 89.3101 69.171 90.2674 67.9946C90.4154 67.8088 90.3693 67.5139 90.164 67.3506C89.9576 67.1753 89.6696 67.1872 89.5216 67.373C89.0203 67.9922 88.2101 68.6259 87.196 68.1606C86.0682 67.6389 85.2017 66.0011 85.2673 64.506C85.2795 64.2543 85.0795 64.0192 84.8258 63.9808C84.5749 63.9395 84.3561 64.1089 84.3466 64.3576C84.2798 65.8407 84.9497 67.4053 85.9672 68.3505Z" fill="#231F20"/>
<path d="M107.445 96.2046C110.293 98.8499 113.381 101.203 116.895 102.966C117.129 103.085 117.398 103.001 117.492 102.781C117.585 102.555 117.469 102.283 117.231 102.161C109.874 98.4662 104.338 92.0362 98.9856 85.8201C95.3897 81.6414 91.6692 77.3251 87.4236 73.8524C87.215 73.6861 86.927 73.698 86.7823 73.8869C86.6344 74.0727 86.669 74.3733 86.8857 74.5308C91.0653 77.9421 94.7494 82.2246 98.3144 86.3637C101.216 89.7329 104.168 93.1603 107.445 96.2046Z" fill="#231F20"/>
<path d="M57.7076 62.433C57.8496 62.565 58.0561 62.6143 58.2265 62.537C59.7716 61.8409 61.5788 62.8238 62.686 64.1098C62.8585 64.3084 63.1522 64.3566 63.3365 64.2045C63.5209 64.0524 63.5269 63.7677 63.3572 63.5661C62.0031 61.996 59.7485 60.8057 57.7701 61.6966C57.5477 61.7969 57.4735 62.0622 57.6012 62.2958C57.6271 62.3474 57.6646 62.3931 57.7076 62.433Z" fill="#231F20"/>
<path d="M119.521 226.392C119.696 226.555 119.952 226.584 120.125 226.45C122.273 224.768 125.222 226.39 127.315 228.039C127.527 228.208 127.814 228.184 127.956 227.998C128.101 227.809 128.046 227.517 127.837 227.351C124.487 224.71 121.528 224.125 119.504 225.708C119.316 225.851 119.301 226.139 119.474 226.343C119.488 226.362 119.504 226.377 119.521 226.392Z" fill="#231F20"/>
<path d="M103.5 60C104.328 60 105 59.3284 105 58.5C105 57.6716 104.328 57 103.5 57C102.672 57 102 57.6716 102 58.5C102 59.3284 102.672 60 103.5 60Z" fill="#3F3D56"/>
</svg>
