<svg width="715" height="582" viewBox="0 0 715 582" fill="none" xmlns="http://www.w3.org/2000/svg">
<path d="M411.447 534.55C587.285 520.15 638.354 588.982 713.007 545.588C713.674 545.2 714.339 544.806 715 544.407V172.583C703.807 168.503 695.474 166.572 693.549 166.144C613.76 148.375 559.605 198.898 527.665 172.169C506.922 154.806 523.893 128.58 507.19 90.8584C479.851 29.1224 394.838 9.9783 375.102 5.53395L375.097 5.53282C248.706 -22.929 53.0074 65.5256 9.53812 234.406C-27.6548 378.929 57.8819 540.71 165.185 575.708C238.011 599.457 264.904 546.548 411.447 534.55Z" fill="#FF7D73"/>
</svg>
