<svg width="218" height="86" viewBox="0 0 218 86" fill="none" xmlns="http://www.w3.org/2000/svg">
<path d="M128.179 19.482C128.951 18.562 129.131 17.1419 130.738 16.85C136.164 15.8436 140.453 13.6341 145.353 12.0889C147.221 11.5032 148.923 11.5974 150.318 13.4436C151.395 14.8941 150.166 15.3982 149.117 16.0523C145.59 18.2435 140.061 18.1136 136.179 19.9291C134.631 20.6404 132.995 21.4288 130.835 21.4082C129.265 21.3994 128.091 20.8613 128.179 19.482Z" fill="#FEA273"/>
<path d="M166.237 8.01936C166.445 7.40161 167.206 6.93843 168.142 6.58893C171.708 5.28697 175.765 4.71255 179.833 4.11541C181.996 3.80198 183.606 4.43007 184.69 6.18581C185.952 8.26748 184.367 8.51883 182.289 8.69251C178.799 8.96228 175.271 9.20009 172.323 10.3489C171.01 10.8674 169.442 10.6982 167.84 10.0087C166.886 9.58862 166.104 9.01328 166.237 8.01936Z" fill="#FEA273"/>
<path d="M47.4223 75.2945C47.1646 75.6378 46.8606 76.2492 46.3816 76.7445C43.7418 79.4428 39.2164 80.3873 35.0866 81.6599C33.9596 81.998 32.0622 82.271 30.8719 80.7415C29.6684 79.178 31.2041 78.985 32.6267 78.6033C36.9364 77.4324 40.2167 75.2879 43.6727 73.3054C44.557 72.7959 44.9523 71.6638 46.7669 72.7074C48.0985 73.4493 47.639 74.2862 47.4223 75.2945Z" fill="#FEA273"/>
<path d="M18.5269 83.8131C18.1694 84.0506 17.6787 84.5255 17.0619 84.8326C13.6728 86.4949 9.09167 85.8746 4.7739 85.6957C3.5987 85.6382 1.71905 85.2621 1.10757 83.423C0.495026 81.5475 2.00701 81.8782 3.47544 81.9932C7.92885 82.3281 11.7368 81.4016 15.6564 80.6864C16.66 80.5013 17.4105 79.5661 18.7727 81.1557C19.7802 82.2995 19.0678 82.935 18.5269 83.8131Z" fill="#FEA273"/>
<path d="M87.6869 44.0366C86.6083 47.566 83.2882 49.7907 81.0455 52.547C80.3786 53.3505 79.2111 53.1791 78.0569 52.3773C76.7692 51.495 75.3073 50.4942 76.6532 49.4674C79.3516 47.3946 80.7694 44.6483 82.8649 42.2622C83.588 41.4511 84.1241 40.2332 86.1834 41.0685C88.1798 41.8823 87.5205 43.0983 87.6869 44.0366Z" fill="#FEA273"/>
<path d="M100.448 32.7931C102.137 29.7725 105.289 27.6405 109.148 25.9753C110.046 25.5963 110.997 25.8089 111.765 26.5215C112.746 27.4304 113.718 28.7298 112.899 29.3126C109.967 31.4047 107.892 34.2264 103.53 35.1408C101.587 35.5699 100.051 34.3509 100.448 32.7931Z" fill="#FEA273"/>
<path d="M209.957 2.24244C212.539 2.75791 215.174 3.04272 216.951 5.15054C218.336 6.80005 217.854 7.7873 215.44 7.28892C211.128 6.41237 206.836 5.1165 202.476 4.3465C201.11 4.11532 199.121 3.29079 199.24 1.84447C199.34 0.646251 201.032 0.927139 202.298 0.834802C204.869 0.666429 207.425 1.72773 209.957 2.24244Z" fill="#FEA273"/>
<path d="M66.937 58.8693C68.7842 63.5731 65.5697 65.791 62.8086 68.1558C62.3521 68.549 61.4059 68.2737 60.6362 67.8927C59.0702 67.1242 59.408 66.1118 59.917 65.6616C62.275 63.6305 62.9716 60.651 66.937 58.8693Z" fill="#FEA273"/>
</svg>
