<svg width="530" height="109" viewBox="0 0 530 109" fill="none" xmlns="http://www.w3.org/2000/svg">
<path d="M305.808 90.4726C305.075 91.3453 304.904 92.6924 303.38 92.9694C298.233 93.924 294.164 96.02 289.516 97.4857C287.744 98.0414 286.13 97.9521 284.806 96.2007C283.784 94.8247 284.95 94.3465 285.945 93.7261C289.291 91.6475 294.536 91.7707 298.218 90.0485C299.687 89.3737 301.239 88.6259 303.288 88.6453C304.777 88.6538 305.891 89.1642 305.808 90.4726Z" fill="#FABF4B"/>
<path d="M412.81 31.5423C418.297 27.3799 426.884 28.3126 434.695 28.0528C436.975 27.9809 438.469 29.3174 438.984 30.6626C439.491 31.9745 437.811 32.3406 436.294 32.1853C428.973 31.492 422.275 32.3664 415.265 32.4248C414.507 32.4301 413.793 32.3309 412.81 31.5423Z" fill="#FABF4B"/>
<path d="M463.137 39.7243C461.107 39.0967 459.032 38.5117 457.024 37.7871C455.408 37.1865 454.535 36.3035 454.857 35.0434C455.14 33.8594 455.995 33.4427 457.834 33.7689C462.439 34.5604 466.789 36.1086 470.976 38.1678C472.185 38.777 473.264 39.6186 472.928 40.6599C472.583 41.716 471.29 41.7518 469.903 41.4202C467.648 40.8701 465.414 40.2232 463.158 39.6274C463.145 39.6536 463.149 39.6982 463.137 39.7243Z" fill="#FABF4B"/>
<path d="M269.705 101.345C269.508 101.931 268.786 102.371 267.898 102.702C264.515 103.937 260.667 104.482 256.808 105.048C254.756 105.346 253.229 104.75 252.2 103.084C251.004 101.11 252.507 100.871 254.478 100.707C257.788 100.451 261.135 100.225 263.932 99.1353C265.177 98.6435 266.665 98.804 268.184 99.458C269.09 99.8565 269.831 100.402 269.705 101.345Z" fill="#FABF4B"/>
<path d="M488.467 48.6924C492.802 49.8138 496.571 52.0677 500.643 53.8106C501.151 54.0405 501.64 54.365 502.018 54.7255C503 55.6788 504.353 56.7946 503.67 57.7173C502.89 58.7369 501.011 58.0944 499.672 57.5095C495.437 55.7035 491.315 53.7173 487.097 51.8738C485.182 51.0489 484.216 50.2205 484.918 48.9C485.548 47.6871 486.803 47.7857 488.467 48.6924Z" fill="#FABF4B"/>
<path d="M50.5713 2.54094C51.5815 2.91935 52.4955 3.24706 53.3927 3.61226C54.5023 4.078 55.6198 4.63538 55.3931 5.58466C55.196 6.42459 54.9191 7.23467 53.0765 6.96564C49.3314 6.41977 45.577 6.03847 41.8366 5.52471C40.2402 5.29155 38.9085 4.69651 38.1468 3.4195C37.157 1.76717 37.1674 0.660087 39.9593 1.02747C43.517 1.46861 47.0899 2.03695 50.5713 2.54094Z" fill="#FABF4B"/>
<path d="M196.991 100.006C193.268 97.8132 188.232 96.3126 183.43 94.2998C182.616 93.9657 181.96 93.2279 181.361 92.6318C180.729 91.9939 180.411 91.2523 181.054 90.7808C181.52 90.4369 182.418 90.594 183.153 90.896C188.545 93.0621 193.936 95.2306 199.285 97.4864C200.671 98.072 202.401 99.0496 201.81 100.172C201.213 101.264 199.368 100.648 196.991 100.006Z" fill="#FABF4B"/>
<path d="M382.414 37.5288C382.659 37.2032 382.947 36.6232 383.401 36.1533C385.906 33.5936 390.198 32.6977 394.116 31.4904C395.185 31.1697 396.985 30.9108 398.114 32.3617C399.256 33.8448 397.799 34.0279 396.449 34.39C392.361 35.5008 389.25 37.535 385.971 39.4157C385.132 39.899 384.757 40.9729 383.036 39.9829C381.773 39.2791 382.209 38.4852 382.414 37.5288Z" fill="#FABF4B"/>
<path d="M344.219 67.1785C345.242 63.8304 348.391 61.7201 350.519 59.1054C351.151 58.3432 352.259 58.5058 353.354 59.2664C354.575 60.1034 355.962 61.0527 354.685 62.0268C352.125 63.993 350.78 66.5983 348.793 68.8617C348.107 69.6311 347.598 70.7864 345.645 69.994C343.751 69.2221 344.376 68.0686 344.219 67.1785Z" fill="#FABF4B"/>
<path d="M82.1103 13.4961C86.1033 15.2068 90.1733 16.6465 93.7618 18.773C95.5253 19.8232 96.652 21.0751 95.1054 22.2313C93.7901 23.2379 92.5284 22.3237 91.3161 21.4137C88.721 19.4971 85.4171 18.7031 82.4888 17.303C82.1389 17.1351 81.7501 17.0581 81.366 16.9674C79.0103 16.3781 77.0925 15.2523 77.5252 13.5856C78.0303 11.6158 80.6617 13.6667 82.1103 13.4961Z" fill="#FABF4B"/>
<path d="M332.114 77.8463C330.511 80.7117 327.521 82.7342 323.86 84.3137C323.009 84.6733 322.107 84.4716 321.378 83.7956C320.447 82.9335 319.526 81.7009 320.302 81.148C323.083 79.1634 325.052 76.4868 329.19 75.6193C331.033 75.2123 332.49 76.3686 332.114 77.8463Z" fill="#FABF4B"/>
<path d="M531.234 79.4167C530.673 80.1172 529.726 80.4238 528.619 79.5394C524.893 76.5323 520.961 73.6123 518.371 70.0865C517.674 69.1365 517.818 68.0498 518.892 67.6697C520.229 67.1839 521.419 68.2971 522.142 69.0909C524.735 71.9418 528.667 74.2442 530.442 77.4358C530.798 78.1036 531.334 78.7343 531.234 79.4167Z" fill="#FABF4B"/>
<path d="M228.232 106.826C225.783 106.337 223.283 106.067 221.597 104.067C220.284 102.503 220.741 101.566 223.031 102.039C227.121 102.87 231.192 104.1 235.329 104.83C236.624 105.049 238.511 105.832 238.398 107.204C238.303 108.34 236.699 108.074 235.498 108.161C233.058 108.321 230.634 107.314 228.232 106.826Z" fill="#FABF4B"/>
<path d="M119.733 44.0313C118.117 43.5805 111.152 37.2318 111.058 36.0968C110.936 34.6651 112.152 34.2826 113.866 35.0873C117.191 36.656 120.015 38.7397 121.812 41.2168C123.123 42.9942 121.654 44.5864 119.733 44.0313Z" fill="#FABF4B"/>
<path d="M141.27 67.7106C140.834 68.4587 140.347 68.9452 139.336 68.8791C138.214 68.8032 136.999 68.5097 136.356 67.596C134.423 64.8537 132.531 62.128 130.698 59.3793C130.296 58.7565 129.97 57.9816 130.805 57.6011C131.664 57.2291 132.594 57.8316 133.432 58.2199C134.705 58.7923 135.959 59.6149 136.326 60.5105C137.131 62.4654 138.844 64.1439 140.281 65.9084C140.776 66.5224 141.001 67.2145 141.27 67.7106Z" fill="#FABF4B"/>
<path d="M10.2283 0.787764C11.6401 1.21706 13.0858 1.4673 13.5351 2.6502C13.9516 3.74566 13.1861 4.3811 11.9425 4.57097C9.31303 4.98852 6.80685 5.80148 3.5913 4.87499C2.2344 4.47972 1.04179 3.87884 0.700809 2.76855C0.376978 1.67683 1.07469 1.03347 2.37678 0.878832C4.9093 0.573009 7.49987 0.292116 10.2283 0.787764Z" fill="#FABF4B"/>
<path d="M158.911 78.2748C163.708 79.8334 166.568 82.2013 169.461 84.5045C170.798 85.5537 171.677 86.8326 170.129 87.6251C168.879 88.2804 167.205 87.7029 166.127 86.7091C163.435 84.2283 159.562 82.0528 158.911 78.2748Z" fill="#FABF4B"/>
<path d="M363.902 53.1087C362.149 48.6466 365.199 46.5427 367.818 44.2994C368.251 43.9264 369.148 44.1875 369.879 44.549C371.364 45.278 371.044 46.2384 370.561 46.6655C368.324 48.5922 367.663 51.4186 363.902 53.1087Z" fill="#FABF4B"/>
</svg>
