<svg width="517" height="301" viewBox="0 0 517 301" fill="none" xmlns="http://www.w3.org/2000/svg">
<path d="M201.572 201.472C202.305 202.345 202.475 203.692 204 203.969C209.147 204.924 213.215 207.02 217.864 208.486C219.636 209.041 221.25 208.952 222.574 207.201C223.595 205.825 222.429 205.346 221.434 204.726C218.088 202.647 212.843 202.771 209.161 201.048C207.693 200.374 206.141 199.626 204.092 199.645C202.602 199.654 201.489 200.164 201.572 201.472Z" fill="#FABF4B"/>
<path d="M94.57 142.54C89.0821 138.378 80.4959 139.311 72.6845 139.051C70.4043 138.979 68.911 140.315 68.3958 141.661C67.8888 142.972 69.5686 143.339 71.0859 143.183C78.4069 142.49 85.1046 143.364 92.1148 143.423C92.8724 143.428 93.5865 143.329 94.57 142.54Z" fill="#FABF4B"/>
<path d="M44.2428 150.727C46.2721 150.099 48.3474 149.514 50.3553 148.79C51.971 148.189 52.8439 147.306 52.5228 146.046C52.2394 144.862 51.3842 144.445 49.5455 144.771C44.9406 145.563 40.5905 147.111 36.4033 149.17C35.1939 149.779 34.1149 150.621 34.4513 151.662C34.7967 152.718 36.0895 152.754 37.476 152.423C39.7316 151.873 41.9658 151.226 44.2214 150.63C44.2343 150.656 44.23 150.701 44.2428 150.727Z" fill="#FABF4B"/>
<path d="M237.675 212.345C237.872 212.931 238.594 213.371 239.482 213.702C242.865 214.937 246.713 215.482 250.572 216.049C252.624 216.346 254.151 215.75 255.18 214.085C256.376 212.11 254.873 211.872 252.902 211.707C249.592 211.451 246.245 211.225 243.448 210.135C242.203 209.644 240.715 209.804 239.196 210.458C238.29 210.857 237.549 211.402 237.675 212.345Z" fill="#FABF4B"/>
<path d="M18.9132 159.694C14.5776 160.815 10.8095 163.069 6.73738 164.812C6.22855 165.042 5.74033 165.367 5.36232 165.727C4.38026 166.68 3.02691 167.796 3.71046 168.719C4.48979 169.739 6.36915 169.096 7.70822 168.511C11.9428 166.705 16.0649 164.719 20.2827 162.875C22.1976 162.051 23.1637 161.222 22.4616 159.902C21.8316 158.689 20.5769 158.787 18.9132 159.694Z" fill="#FABF4B"/>
<path d="M456.808 113.542C455.798 113.92 454.884 114.248 453.987 114.613C452.877 115.079 451.76 115.636 451.986 116.585C452.183 117.425 452.46 118.235 454.303 117.966C458.048 117.42 461.802 117.039 465.543 116.525C467.139 116.292 468.471 115.697 469.233 114.42C470.222 112.768 470.212 111.661 467.42 112.028C463.863 112.469 460.29 113.038 456.808 113.542Z" fill="#FABF4B"/>
<path d="M310.389 211.006C314.111 208.814 319.147 207.313 323.949 205.3C324.763 204.966 325.42 204.228 326.019 203.632C326.65 202.994 326.969 202.253 326.326 201.781C325.86 201.437 324.962 201.594 324.227 201.896C318.835 204.063 313.444 206.231 308.094 208.487C306.708 209.072 304.979 210.05 305.57 211.172C306.166 212.264 308.012 211.649 310.389 211.006Z" fill="#FABF4B"/>
<path d="M124.965 148.529C124.721 148.203 124.432 147.623 123.978 147.153C121.474 144.594 117.181 143.698 113.263 142.49C112.194 142.17 110.394 141.911 109.265 143.362C108.124 144.845 109.58 145.028 110.93 145.39C115.018 146.501 118.13 148.535 121.408 150.416C122.247 150.899 122.622 151.973 124.343 150.983C125.607 150.279 125.171 149.485 124.965 148.529Z" fill="#FABF4B"/>
<path d="M163.16 178.178C162.137 174.83 158.988 172.72 156.86 170.105C156.228 169.343 155.12 169.506 154.025 170.266C152.804 171.103 151.417 172.053 152.694 173.027C155.254 174.993 156.598 177.598 158.586 179.862C159.272 180.631 159.781 181.786 161.734 180.994C163.628 180.222 163.003 179.068 163.16 178.178Z" fill="#FABF4B"/>
<path d="M425.269 124.496C421.276 126.206 417.206 127.646 413.617 129.773C411.854 130.823 410.727 132.075 412.274 133.231C413.589 134.237 414.851 133.323 416.063 132.413C418.658 130.497 421.962 129.703 424.89 128.303C425.24 128.135 425.629 128.058 426.013 127.967C428.369 127.378 430.286 126.252 429.854 124.585C429.349 122.615 426.717 124.666 425.269 124.496Z" fill="#FABF4B"/>
<path d="M175.266 188.846C176.868 191.712 179.858 193.734 183.519 195.314C184.37 195.673 185.273 195.472 186.001 194.796C186.932 193.934 187.854 192.701 187.077 192.148C184.296 190.163 182.327 187.487 178.189 186.619C176.347 186.212 174.89 187.369 175.266 188.846Z" fill="#FABF4B"/>
<path d="M279.148 217.824C281.597 217.335 284.097 217.065 285.782 215.066C287.096 213.501 286.639 212.564 284.349 213.037C280.259 213.869 276.187 215.098 272.051 215.828C270.755 216.048 268.869 216.83 268.982 218.202C269.076 219.339 270.681 219.072 271.882 219.16C274.321 219.319 276.746 218.313 279.148 217.824Z" fill="#FABF4B"/>
<path d="M387.646 155.031C389.262 154.58 396.228 148.232 396.321 147.097C396.443 145.665 395.227 145.282 393.513 146.087C390.188 147.656 387.364 149.74 385.568 152.217C384.257 153.994 385.725 155.586 387.646 155.031Z" fill="#FABF4B"/>
<path d="M366.109 178.711C366.545 179.46 367.032 179.946 368.044 179.88C369.165 179.804 370.381 179.511 371.024 178.597C372.957 175.855 374.848 173.129 376.681 170.38C377.083 169.757 377.41 168.982 376.575 168.602C375.715 168.23 374.785 168.832 373.947 169.221C372.674 169.793 371.42 170.616 371.053 171.511C370.249 173.466 368.536 175.145 367.099 176.909C366.604 177.523 366.378 178.215 366.109 178.711Z" fill="#FABF4B"/>
<path d="M497.152 111.788C495.74 112.217 494.294 112.468 493.845 113.651C493.428 114.746 494.194 115.381 495.437 115.571C498.067 115.989 500.573 116.802 503.789 115.875C505.145 115.48 506.338 114.879 506.679 113.769C507.003 112.677 506.305 112.034 505.003 111.879C502.471 111.573 499.88 111.293 497.152 111.788Z" fill="#FABF4B"/>
<path d="M348.468 189.276C343.671 190.835 340.811 193.203 337.917 195.506C336.58 196.555 335.702 197.834 337.249 198.627C338.499 199.282 340.174 198.705 341.252 197.711C343.944 195.23 347.817 193.054 348.468 189.276Z" fill="#FABF4B"/>
<path d="M143.478 164.109C145.23 159.647 142.181 157.543 139.562 155.299C139.129 154.926 138.231 155.188 137.501 155.549C136.015 156.278 136.336 157.238 136.819 157.665C139.055 159.592 139.716 162.419 143.478 164.109Z" fill="#FABF4B"/>
</svg>
