<svg width="539" height="312" viewBox="0 0 539 312" fill="none" xmlns="http://www.w3.org/2000/svg">
<path d="M314.807 201.472C314.074 202.345 313.904 203.692 312.38 203.969C307.233 204.924 303.164 207.02 298.516 208.486C296.744 209.041 295.129 208.952 293.805 207.201C292.784 205.825 293.95 205.346 294.945 204.726C298.291 202.647 303.536 202.771 307.218 201.048C308.686 200.374 310.238 199.626 312.288 199.645C313.777 199.654 314.891 200.164 314.807 201.472Z" fill="#FABF4B"/>
<path d="M421.809 142.542C427.297 138.38 435.884 139.313 443.695 139.053C445.975 138.981 447.468 140.317 447.984 141.663C448.491 142.974 446.811 143.341 445.294 143.185C437.973 142.492 431.275 143.366 424.265 143.425C423.507 143.43 422.793 143.331 421.809 142.542Z" fill="#FABF4B"/>
<path d="M472.136 150.724C470.107 150.096 468.032 149.511 466.024 148.787C464.408 148.186 463.535 147.303 463.856 146.043C464.14 144.859 464.995 144.442 466.834 144.768C471.439 145.56 475.789 147.108 479.976 149.167C481.185 149.777 482.264 150.618 481.928 151.659C481.582 152.716 480.29 152.751 478.903 152.42C476.648 151.87 474.413 151.223 472.158 150.627C472.145 150.653 472.149 150.698 472.136 150.724Z" fill="#FABF4B"/>
<path d="M278.705 212.345C278.508 212.931 277.786 213.371 276.897 213.702C273.515 214.937 269.667 215.482 265.808 216.049C263.756 216.346 262.229 215.75 261.2 214.085C260.004 212.11 261.507 211.872 263.478 211.707C266.788 211.451 270.135 211.225 272.932 210.135C274.177 209.644 275.665 209.804 277.184 210.458C278.09 210.857 278.831 211.402 278.705 212.345Z" fill="#FABF4B"/>
<path d="M497.467 159.692C501.802 160.813 505.571 163.067 509.643 164.81C510.152 165.04 510.64 165.365 511.018 165.725C512 166.679 513.353 167.794 512.67 168.717C511.89 169.737 510.011 169.094 508.672 168.509C504.437 166.703 500.315 164.717 496.097 162.874C494.182 162.049 493.216 161.22 493.919 159.9C494.549 158.687 495.803 158.785 497.467 159.692Z" fill="#FABF4B"/>
<path d="M59.5712 113.541C60.5814 113.919 61.4954 114.247 62.3927 114.612C63.5022 115.078 64.6197 115.635 64.393 116.584C64.196 117.424 63.919 118.234 62.0764 117.965C58.3313 117.419 54.5769 117.038 50.8365 116.524C49.2401 116.291 47.9085 115.696 47.1467 114.419C46.1569 112.767 46.1673 111.66 48.9592 112.027C52.5169 112.468 56.0898 113.037 59.5712 113.541Z" fill="#FABF4B"/>
<path d="M205.991 211.006C202.268 208.814 197.232 207.313 192.43 205.3C191.616 204.966 190.96 204.228 190.361 203.632C189.729 202.994 189.411 202.253 190.054 201.781C190.52 201.437 191.418 201.594 192.153 201.896C197.545 204.063 202.936 206.231 208.285 208.487C209.671 209.072 211.401 210.05 210.81 211.172C210.213 212.264 208.368 211.649 205.991 211.006Z" fill="#FABF4B"/>
<path d="M391.414 148.529C391.659 148.203 391.947 147.623 392.401 147.153C394.906 144.594 399.198 143.698 403.116 142.49C404.185 142.17 405.985 141.911 407.114 143.362C408.256 144.845 406.799 145.028 405.449 145.39C401.361 146.501 398.25 148.535 394.971 150.416C394.132 150.899 393.757 151.973 392.036 150.983C390.773 150.279 391.209 149.485 391.414 148.529Z" fill="#FABF4B"/>
<path d="M353.218 178.178C354.241 174.83 357.391 172.72 359.518 170.105C360.151 169.343 361.258 169.506 362.353 170.266C363.575 171.103 364.962 172.053 363.685 173.027C361.125 174.993 359.78 177.598 357.792 179.862C357.106 180.631 356.598 181.786 354.644 180.994C352.751 180.222 353.376 179.068 353.218 178.178Z" fill="#FABF4B"/>
<path d="M91.1102 124.496C95.1032 126.206 99.1732 127.646 102.762 129.773C104.525 130.823 105.652 132.075 104.105 133.231C102.79 134.237 101.528 133.323 100.316 132.413C97.7209 130.497 94.417 129.703 91.4887 128.303C91.1388 128.135 90.75 128.058 90.3659 127.967C88.0102 127.378 86.0924 126.252 86.5251 124.585C87.0302 122.615 89.6616 124.666 91.1102 124.496Z" fill="#FABF4B"/>
<path d="M341.114 188.846C339.511 191.712 336.521 193.734 332.86 195.314C332.009 195.673 331.106 195.472 330.378 194.796C329.447 193.934 328.525 192.701 329.302 192.148C332.083 190.163 334.052 187.487 338.19 186.619C340.033 186.212 341.49 187.369 341.114 188.846Z" fill="#FABF4B"/>
<path d="M540.234 190.417C539.673 191.117 538.726 191.424 537.619 190.539C533.893 187.532 529.961 184.612 527.371 181.086C526.674 180.136 526.818 179.05 527.892 178.669C529.229 178.184 530.419 179.297 531.142 180.091C533.735 182.942 537.667 185.244 539.442 188.436C539.797 189.103 540.334 189.734 540.234 190.417Z" fill="#FABF4B"/>
<path d="M237.231 217.826C234.783 217.337 232.282 217.067 230.597 215.068C229.283 213.503 229.741 212.566 232.03 213.039C236.12 213.871 240.192 215.1 244.328 215.83C245.624 216.05 247.51 216.832 247.398 218.204C247.303 219.341 245.698 219.074 244.497 219.162C242.058 219.321 239.633 218.315 237.231 217.826Z" fill="#FABF4B"/>
<path d="M128.733 155.031C127.117 154.58 120.152 148.232 120.058 147.097C119.936 145.665 121.152 145.282 122.866 146.087C126.191 147.656 129.015 149.74 130.812 152.217C132.123 153.994 130.654 155.586 128.733 155.031Z" fill="#FABF4B"/>
<path d="M150.27 178.71C149.834 179.459 149.347 179.945 148.335 179.879C147.214 179.803 145.999 179.51 145.355 178.596C143.422 175.854 141.531 173.128 139.698 170.379C139.296 169.756 138.97 168.981 139.805 168.601C140.664 168.229 141.594 168.831 142.432 169.22C143.705 169.792 144.959 170.615 145.326 171.51C146.13 173.465 147.844 175.144 149.281 176.908C149.776 177.522 150.001 178.214 150.27 178.71Z" fill="#FABF4B"/>
<path d="M19.2281 111.788C20.6399 112.217 22.0856 112.468 22.5349 113.651C22.9514 114.746 22.1859 115.381 20.9423 115.571C18.3128 115.989 15.8067 116.802 12.5911 115.875C11.2342 115.48 10.0416 114.879 9.70061 113.769C9.37678 112.677 10.0745 112.034 11.3766 111.879C13.9091 111.573 16.4997 111.293 19.2281 111.788Z" fill="#FABF4B"/>
<path d="M167.911 189.275C172.708 190.833 175.568 193.201 178.461 195.504C179.798 196.553 180.677 197.832 179.129 198.625C177.879 199.28 176.205 198.703 175.127 197.709C172.435 195.228 168.562 193.053 167.911 189.275Z" fill="#FABF4B"/>
<path d="M372.902 164.109C371.15 159.647 374.199 157.543 376.818 155.299C377.251 154.926 378.149 155.188 378.879 155.549C380.364 156.278 380.044 157.238 379.561 157.665C377.324 159.592 376.663 162.419 372.902 164.109Z" fill="#FABF4B"/>
</svg>
