<svg width="504" height="109" viewBox="0 0 504 109" fill="none" xmlns="http://www.w3.org/2000/svg">
<path d="M198.572 90.4726C199.305 91.3453 199.476 92.6924 201 92.9694C206.147 93.924 210.215 96.02 214.864 97.4857C216.636 98.0414 218.25 97.9521 219.574 96.2007C220.596 94.8247 219.43 94.3465 218.434 93.7261C215.088 91.6475 209.844 91.7707 206.161 90.0485C204.693 89.3737 203.141 88.6259 201.092 88.6454C199.603 88.6538 198.489 89.1642 198.572 90.4726Z" fill="#FABF4B"/>
<path d="M91.57 31.5403C86.0821 27.3779 77.4958 28.3107 69.6845 28.0508C67.4043 27.979 65.911 29.3155 65.3958 30.6607C64.8888 31.9726 66.5686 32.3387 68.0859 32.1834C75.4069 31.4901 82.1046 32.3644 89.1148 32.4229C89.8724 32.4282 90.5865 32.3289 91.57 31.5403Z" fill="#FABF4B"/>
<path d="M41.243 39.7263C43.2723 39.0986 45.3476 38.5137 47.3555 37.7891C48.9711 37.1885 49.8441 36.3055 49.523 35.0454C49.2396 33.8614 48.3844 33.4447 46.5457 33.7708C41.9408 34.5624 37.5906 36.1105 33.4034 38.1698C32.1941 38.7789 31.1151 39.6205 31.4515 40.6619C31.7969 41.718 33.0897 41.7538 34.4762 41.4221C36.7318 40.8721 38.966 40.2252 41.2216 39.6294C41.2344 39.6555 41.2301 39.7002 41.243 39.7263Z" fill="#FABF4B"/>
<path d="M234.675 101.345C234.872 101.931 235.594 102.371 236.482 102.702C239.865 103.937 243.713 104.482 247.572 105.048C249.624 105.346 251.151 104.75 252.18 103.084C253.376 101.11 251.873 100.871 249.902 100.707C246.592 100.451 243.245 100.225 240.448 99.1353C239.203 98.6435 237.715 98.804 236.196 99.458C235.29 99.8565 234.549 100.402 234.675 101.345Z" fill="#FABF4B"/>
<path d="M15.9132 48.6934C11.5776 49.8147 7.80949 52.0687 3.73737 53.8116C3.22854 54.0415 2.74032 54.3659 2.3623 54.7265C1.38025 55.6798 0.0269036 56.7956 0.710454 57.7183C1.48978 58.7378 3.36914 58.0953 4.70821 57.5105C8.94279 55.7044 13.0649 53.7183 17.2827 51.8748C19.1976 51.0498 20.1637 50.2215 19.4616 48.901C18.8316 47.6881 17.5769 47.7866 15.9132 48.6934Z" fill="#FABF4B"/>
<path d="M453.808 2.54095C452.798 2.91935 451.884 3.24706 450.987 3.61226C449.877 4.07801 448.76 4.63538 448.986 5.58466C449.183 6.42459 449.46 7.23468 451.303 6.96565C455.048 6.41978 458.803 6.03848 462.543 5.52471C464.139 5.29156 465.471 4.69651 466.233 3.4195C467.223 1.76717 467.212 0.660092 464.42 1.02748C460.863 1.46861 457.29 2.03695 453.808 2.54095Z" fill="#FABF4B"/>
<path d="M307.389 100.006C311.111 97.8132 316.147 96.3127 320.949 94.2999C321.763 93.9657 322.42 93.2279 323.019 92.6318C323.65 91.9939 323.969 91.2523 323.326 90.7808C322.86 90.4369 321.962 90.594 321.227 90.896C315.835 93.0622 310.444 95.2306 305.094 97.4864C303.708 98.072 301.979 99.0496 302.57 100.172C303.166 101.264 305.012 100.648 307.389 100.006Z" fill="#FABF4B"/>
<path d="M121.965 37.5288C121.721 37.2032 121.432 36.6232 120.978 36.1533C118.474 33.5936 114.181 32.6977 110.264 31.4904C109.194 31.1697 107.395 30.9108 106.265 32.3617C105.124 33.8448 106.581 34.0279 107.93 34.39C112.018 35.5008 115.13 37.535 118.408 39.4157C119.247 39.899 119.622 40.9729 121.344 39.9829C122.607 39.2791 122.171 38.4852 121.965 37.5288Z" fill="#FABF4B"/>
<path d="M160.161 67.1785C159.137 63.8304 155.988 61.7201 153.86 59.1054C153.228 58.3432 152.12 58.5058 151.025 59.2664C149.804 60.1034 148.417 61.0527 149.694 62.0268C152.254 63.993 153.599 66.5983 155.586 68.8617C156.272 69.6311 156.781 70.7864 158.734 69.9941C160.628 69.2221 160.003 68.0686 160.161 67.1785Z" fill="#FABF4B"/>
<path d="M422.269 13.4951C418.276 15.2058 414.206 16.6456 410.617 18.7721C408.854 19.8222 407.727 21.0741 409.274 22.2303C410.589 23.2369 411.851 22.3227 413.063 21.4127C415.658 19.4962 418.962 18.7021 421.89 17.302C422.24 17.1341 422.629 17.0571 423.013 16.9665C425.369 16.3771 427.287 15.2513 426.854 13.5846C426.349 11.6148 423.717 13.6657 422.269 13.4951Z" fill="#FABF4B"/>
<path d="M172.266 77.8463C173.868 80.7117 176.858 82.7342 180.519 84.3138C181.371 84.6733 182.273 84.4716 183.001 83.7957C183.932 82.9335 184.854 81.7009 184.078 81.148C181.296 79.1634 179.328 76.4868 175.189 75.6193C173.347 75.2123 171.89 76.3686 172.266 77.8463Z" fill="#FABF4B"/>
<path d="M276.148 106.824C278.597 106.335 281.097 106.065 282.782 104.065C284.096 102.501 283.639 101.564 281.349 102.037C277.259 102.869 273.187 104.098 269.051 104.828C267.755 105.048 265.869 105.83 265.982 107.202C266.076 108.338 267.681 108.072 268.882 108.159C271.321 108.319 273.746 107.312 276.148 106.824Z" fill="#FABF4B"/>
<path d="M384.646 44.0313C386.262 43.5805 393.228 37.2318 393.322 36.0968C393.443 34.6651 392.228 34.2826 390.513 35.0873C387.188 36.656 384.364 38.7397 382.568 41.2168C381.257 42.9942 382.725 44.5864 384.646 44.0313Z" fill="#FABF4B"/>
<path d="M363.109 67.7116C363.545 68.4597 364.033 68.9462 365.044 68.8801C366.165 68.8042 367.381 68.5107 368.024 67.597C369.957 64.8547 371.849 62.129 373.681 59.3803C374.083 58.7575 374.41 57.9825 373.575 57.6021C372.715 57.2301 371.786 57.8326 370.947 58.2209C369.674 58.7933 368.42 59.6159 368.053 60.5115C367.249 62.4664 365.536 64.1449 364.099 65.9094C363.604 66.5234 363.378 67.2155 363.109 67.7116Z" fill="#FABF4B"/>
<path d="M494.152 0.787764C492.74 1.21706 491.294 1.4673 490.845 2.6502C490.428 3.74566 491.194 4.3811 492.438 4.57097C495.067 4.98852 497.573 5.80148 500.789 4.87499C502.146 4.47972 503.338 3.87884 503.679 2.76855C504.003 1.67683 503.305 1.03347 502.003 0.878832C499.471 0.573009 496.88 0.292116 494.152 0.787764Z" fill="#FABF4B"/>
<path d="M345.468 78.2758C340.671 79.8344 337.811 82.2023 334.918 84.5055C333.581 85.5547 332.702 86.8336 334.25 87.6261C335.5 88.2814 337.174 87.7038 338.252 86.7101C340.944 84.2293 344.817 82.0538 345.468 78.2758Z" fill="#FABF4B"/>
<path d="M140.478 53.1087C142.23 48.6466 139.181 46.5427 136.562 44.2994C136.129 43.9264 135.231 44.1875 134.501 44.549C133.015 45.278 133.336 46.2384 133.819 46.6655C136.055 48.5922 136.716 51.4186 140.478 53.1087Z" fill="#FABF4B"/>
</svg>
