<svg width="1440" height="270" viewBox="0 0 1440 270" fill="none" xmlns="http://www.w3.org/2000/svg">
<path d="M402.14 233.914C224.078 281.321 59.1876 272.033 -1 261.464V0H1440V180.894C1387.48 216.241 1291.95 267.702 1207.42 262.504C1122.89 257.305 1064.87 229.756 998.847 209.483C932.824 189.21 873.804 178.294 804.279 177.775C734.755 177.255 624.717 174.656 402.14 233.914Z" fill="#FFBF41"/>
<path d="M-1 0V223.5C26 237.5 105 254.5 269.5 241.5C434 228.5 659 128.5 820.5 152C982 175.5 1095.5 237.5 1203.5 241.5C1289.9 244.7 1396.83 161.5 1439.5 119.5V0H-1Z" fill="#FBCF78"/>
</svg>
