<svg width="108" height="245" viewBox="0 0 108 245" fill="none" xmlns="http://www.w3.org/2000/svg">
<path d="M96.5993 127.258C96.9451 126.087 98.0398 125.124 97.3956 123.615C95.2367 118.508 94.7195 113.662 93.3051 108.686C92.7631 106.791 91.7413 105.424 89.4153 105.315C87.5987 105.246 87.8555 106.561 87.8865 107.811C87.9972 112.011 91.1687 116.553 91.7918 120.834C92.0508 122.533 92.2938 124.35 93.5076 126.143C94.3846 127.448 95.4876 128.121 96.5993 127.258Z" fill="#FABF4B"/>
<path d="M85.1602 88.9181C85.5651 88.3917 85.5332 87.4911 85.3082 86.5088C84.4281 82.7859 82.6646 79.07 80.9135 75.3312C79.9791 73.3457 78.5591 72.3607 76.4818 72.4602C74.032 72.598 74.6982 74.0649 75.7031 75.8996C77.4092 78.9681 79.1635 82.0505 79.8301 85.1698C80.121 86.5625 81.1322 87.7755 82.5991 88.7182C83.4811 89.2748 84.398 89.5983 85.1602 88.9181Z" fill="#FABF4B"/>
<path d="M41.5152 25.7173C37.3974 23.7632 33.1263 20.2353 28.5375 17.2223C27.766 16.7074 26.7286 16.5748 25.8502 16.4072C24.9158 16.2359 24.0724 16.4031 24.0297 17.2535C23.9969 17.8712 24.6604 18.5669 25.3573 19.0315C30.4264 22.4712 35.4971 25.9089 40.621 29.2571C41.9494 30.1238 43.8262 31.0565 44.4759 29.8592C45.096 28.6752 43.4725 27.4221 41.5152 25.7173Z" fill="#FABF4B"/>
<path d="M94.3833 226.633C94.2373 227.045 93.8914 227.649 93.74 228.332C92.9325 232.081 94.6447 236.4 95.8617 240.577C96.2016 241.711 97.0229 243.452 98.9687 243.571C100.95 243.681 100.262 242.288 99.7953 240.882C98.3931 236.613 98.38 232.646 98.1333 228.626C98.0721 227.596 98.8054 226.618 96.9224 225.7C95.5608 225.013 95.1113 225.875 94.3833 226.633Z" fill="#FABF4B"/>
<path d="M98.3736 175.122C96.0023 178.043 95.97 182.088 94.8938 185.539C94.5873 186.555 95.3781 187.432 96.6919 187.937C98.1473 188.507 99.7988 189.155 99.917 187.444C100.166 184.004 101.691 181.249 102.537 178.134C102.819 177.066 103.546 175.921 101.703 174.679C99.9126 173.478 99.255 174.724 98.3736 175.122Z" fill="#FABF4B"/>
<path d="M100.763 158.032C102.368 154.893 102.415 151.04 101.678 146.865C101.5 145.898 100.794 145.226 99.7696 144.993C98.4615 144.693 96.8303 144.625 96.7934 145.642C96.6578 149.288 95.4337 152.636 97.0808 156.802C97.7959 158.669 99.6719 159.254 100.763 158.032Z" fill="#FABF4B"/>
<path d="M65.8039 49.1041C63.9405 47.2435 62.2412 45.2057 59.4839 44.9281C57.3295 44.7159 56.7661 45.6833 58.5223 47.4138C61.6478 50.5125 65.1151 53.355 68.178 56.5554C69.1289 57.5637 70.924 58.7524 72.0747 57.8255C73.0272 57.0563 71.854 55.8046 71.2305 54.6946C69.9477 52.4508 67.6394 50.924 65.8039 49.1041Z" fill="#FABF4B"/>
<path d="M0.01186 5.30681C4.19481 8.58918 7.96429 9.67816 11.6962 10.836C13.4072 11.3799 15.0542 11.3818 14.8533 9.54142C14.7044 8.0457 13.2146 6.92013 11.7041 6.57075C7.93253 5.69762 3.74183 3.60051 0.01186 5.30681Z" fill="#FABF4B"/>
<path d="M97.3903 200.938C92.4106 202.087 92.3255 206.041 91.8658 209.7C91.7879 210.306 92.5435 210.938 93.2903 211.363C94.8041 212.231 95.4686 211.369 95.5654 210.687C95.9677 207.555 98.0881 205.269 97.3903 200.938Z" fill="#FABF4B"/>
</svg>
