<svg width="230" height="286" viewBox="0 0 230 286" fill="none" xmlns="http://www.w3.org/2000/svg">
<path d="M110.6 151.258C110.946 150.087 112.04 149.124 111.396 147.615C109.237 142.508 108.72 137.662 107.306 132.686C106.764 130.791 105.742 129.424 103.416 129.315C101.599 129.246 101.856 130.561 101.887 131.811C101.998 136.011 105.169 140.553 105.792 144.834C106.051 146.533 106.294 148.35 107.508 150.143C108.385 151.448 109.488 152.121 110.6 151.258Z" fill="#FABF4B"/>
<path d="M120.823 281.001C120.337 288.342 126.177 295.338 130.508 302.371C131.776 304.422 133.833 304.93 135.326 304.572C136.786 304.227 136.13 302.527 135.106 301.285C130.216 295.259 127.081 288.836 123.039 282.629C122.602 281.959 122.097 281.391 120.823 281.001Z" fill="#FABF4B"/>
<path d="M99.1607 112.918C99.5656 112.392 99.5336 111.491 99.3087 110.509C98.4286 106.786 96.6651 103.07 94.914 99.3312C93.9796 97.3457 92.5595 96.3607 90.4823 96.4602C88.0325 96.598 88.6987 98.0649 89.7036 99.8996C91.4097 102.968 93.164 106.051 93.8306 109.17C94.1214 110.562 95.1327 111.776 96.5996 112.718C97.4816 113.275 98.3985 113.598 99.1607 112.918Z" fill="#FABF4B"/>
<path d="M55.5152 49.7178C51.3974 47.7637 47.1263 44.2358 42.5375 41.2228C41.766 40.7079 40.7286 40.5753 39.8502 40.4076C38.9158 40.2363 38.0724 40.4036 38.0297 41.254C37.9969 41.8717 38.6604 42.5674 39.3573 43.032C44.4264 46.4717 49.4971 49.9094 54.621 53.2576C55.9494 54.1242 57.8262 55.057 58.4759 53.8597C59.096 52.6757 57.4725 51.4226 55.5152 49.7178Z" fill="#FABF4B"/>
<path d="M108.383 250.634C108.237 251.045 107.891 251.649 107.74 252.332C106.933 256.081 108.645 260.4 109.862 264.577C110.202 265.712 111.023 267.452 112.969 267.571C114.95 267.681 114.262 266.289 113.795 264.882C112.393 260.613 112.38 256.647 112.133 252.626C112.072 251.596 112.805 250.619 110.922 249.7C109.561 249.013 109.111 249.876 108.383 250.634Z" fill="#FABF4B"/>
<path d="M112.374 199.122C110.002 202.043 109.97 206.088 108.894 209.539C108.587 210.555 109.378 211.432 110.692 211.937C112.147 212.507 113.799 213.155 113.917 211.444C114.166 208.004 115.691 205.249 116.537 202.134C116.819 201.066 117.546 199.921 115.703 198.679C113.913 197.478 113.255 198.724 112.374 199.122Z" fill="#FABF4B"/>
<path d="M114.763 182.032C116.368 178.893 116.416 175.041 115.679 170.865C115.5 169.899 114.795 169.226 113.77 168.993C112.462 168.694 110.831 168.626 110.794 169.643C110.658 173.288 109.434 176.636 111.081 180.802C111.796 182.67 113.672 183.255 114.763 182.032Z" fill="#FABF4B"/>
<path d="M79.8039 73.1041C77.9405 71.2435 76.2412 69.2057 73.4839 68.9281C71.3295 68.7159 70.7661 69.6833 72.5223 71.4138C75.6478 74.5125 79.1151 77.355 82.178 80.5554C83.1289 81.5637 84.924 82.7524 86.0747 81.8255C87.0272 81.0563 85.854 79.8046 85.2305 78.6946C83.9477 76.4508 81.6394 74.924 79.8039 73.1041Z" fill="#FABF4B"/>
<path d="M14.0119 29.3068C18.1948 32.5892 21.9643 33.6782 25.6962 34.836C27.4072 35.3799 29.0542 35.3818 28.8533 33.5414C28.7044 32.0457 27.2146 30.9201 25.7041 30.5708C21.9325 29.6976 17.7418 27.6005 14.0119 29.3068Z" fill="#FABF4B"/>
<path d="M111.39 224.938C106.411 226.087 106.326 230.041 105.866 233.7C105.788 234.306 106.543 234.938 107.29 235.363C108.804 236.231 109.469 235.369 109.565 234.687C109.968 231.555 112.088 229.269 111.39 224.938Z" fill="#FABF4B"/>
</svg>
