<svg width="1440" height="322" viewBox="0 0 1440 322" fill="none" xmlns="http://www.w3.org/2000/svg">
<path fill-rule="evenodd" clip-rule="evenodd" d="M1762 288V51C1606.1 63 1420.66 21 1255.82 15C1090.99 9 906.853 30.2848 739.347 51C525.063 77.5 371.906 89.5 248.281 82.5C84.6282 73.2335 -51.1666 60 -133.583 30L-216 0V288H-133.583C-51.1666 288 113.667 288 278.5 288C443.333 288 608.167 288 773 288C937.833 288 1102.67 288 1267.5 288C1432.33 288 1597.17 288 1679.58 288H1762Z" fill="#FD8344"/>
<path fill-rule="evenodd" clip-rule="evenodd" d="M-1 322.537V85.5371C112.579 97.5371 247.673 55.5371 367.756 49.5371C487.839 43.5371 621.986 64.8219 744.017 85.5371C900.125 112.037 1011.7 124.037 1101.77 117.037C1220.99 107.771 1319.92 94.5371 1379.96 64.5371L1440 34.5371V322.537H1379.96C1319.92 322.537 1199.83 322.537 1079.75 322.537C959.667 322.537 839.583 322.537 719.5 322.537C599.417 322.537 479.333 322.537 359.25 322.537C239.167 322.537 119.083 322.537 59.0417 322.537H-1Z" fill="#FEA273"/>
</svg>
