<svg width="1366" height="343" viewBox="0 0 1366 343" fill="none" xmlns="http://www.w3.org/2000/svg">
<path d="M0 342.4V92.995C179.861 127.608 515.445 111.961 585.023 99.6332C1036 33.2516 1293.58 49.2148 1366 65.4941V342.4H0Z" fill="#FF7D73"/>
<path d="M1166.35 145.643C1164.13 137.454 1157.24 130.899 1149.82 125.655C1145.36 122.503 1140.61 119.646 1136.09 116.553C1140.21 114.005 1144.55 111.736 1149.05 109.763C1150.39 109.173 1149.21 107.406 1147.87 107.98C1143.09 110.072 1138.52 112.502 1134.19 115.227C1132.63 114.122 1131.11 112.974 1129.66 111.751C1133.2 108.216 1136.99 104.887 1140.97 101.765C1142.1 100.896 1140.46 99.4373 1139.34 100.306C1135.33 103.429 1131.54 106.787 1128 110.322C1127.87 110.19 1127.72 110.072 1127.59 109.939C1126.48 108.923 1126.18 108.319 1124.1 106.861C1124.4 100.778 1124.41 94.6945 1124.11 88.6113C1118.37 93.8255 1113.46 99.7466 1109.57 106.169C1109.31 106.61 1109.03 107.082 1108.55 107.362C1107.79 107.818 1106.76 107.671 1105.85 107.538C1098.62 106.463 1090.99 107.612 1084.56 110.749L1068.44 90.261C1068.69 98.4799 1070.94 106.522 1072.5 114.638C1066.33 117.834 1062.45 124.006 1061.97 130.325C1057.24 129.397 1052.49 128.469 1047.76 127.526C1046.31 127.246 1045.7 129.235 1047.15 129.514C1052.08 130.487 1057.01 131.459 1061.94 132.416C1062.01 133.727 1062.22 135.038 1062.59 136.319C1058.73 138.131 1054.81 139.869 1050.86 141.519C1049.5 142.078 1050.68 143.861 1052.03 143.301C1055.84 141.71 1059.59 140.046 1063.31 138.308C1063.31 138.308 1063.31 138.308 1063.31 138.323C1064.04 139.943 1065.04 141.445 1066.26 142.8C1063.93 145.761 1061.59 148.736 1059.26 151.697C1058.4 152.787 1060.42 153.818 1061.26 152.742C1063.46 149.959 1065.65 147.16 1067.85 144.376C1073.08 149.045 1081.02 151.417 1088.28 149.9C1087.73 163.318 1091.72 176.869 1099.6 188.314C1095.81 190.199 1092 192.364 1089.74 195.649C1087.47 198.933 1087.24 203.632 1090.28 206.372C1093.95 209.656 1100.11 208.714 1105.04 207.226C1123.14 201.776 1139.63 192.143 1152.45 179.52C1161.88 170.226 1169.66 157.809 1166.35 145.643Z" fill="#434343"/>
<path d="M1078.4 127.658C1078.17 127.246 1077.87 126.981 1077.51 126.804C1076.07 125.773 1073.64 126.053 1072.78 127.688V127.702C1072.6 127.967 1072.48 128.277 1072.46 128.615C1072.38 130.221 1074.2 131.281 1075.84 131.002C1077.41 130.736 1079.25 129.16 1078.4 127.658Z" fill="#FEFEF8"/>
<path d="M1112.25 120.809C1111.61 120.249 1110.7 120.161 1109.77 120.308C1109.61 120.279 1109.41 120.279 1109.19 120.352C1108.68 120.5 1108.13 120.721 1107.67 121.001C1107.59 121.045 1107.5 121.089 1107.42 121.118C1107.24 121.221 1107.11 121.339 1107.02 121.472C1106.53 121.958 1106.26 122.562 1106.45 123.357C1106.89 125.139 1109.21 124.963 1110.65 124.359C1112.05 123.77 1113.74 122.105 1112.25 120.809ZM1108.98 122.694C1109.24 122.577 1109.51 122.473 1109.79 122.415C1109.75 122.444 1109.72 122.459 1109.7 122.459C1109.49 122.577 1109.24 122.65 1108.98 122.694Z" fill="#FEFEF8"/>
<path d="M1119.4 130.84C1119.05 130.295 1118.09 129.985 1117.48 130.398C1114.07 132.607 1109.67 132.799 1105.7 131.841C1102.03 130.943 1098.75 129.16 1095.61 127.275C1096.3 126.612 1096.83 125.846 1097.23 124.948C1097.59 124.138 1096.68 123.416 1095.87 123.357C1093.06 123.195 1090.2 124.285 1088.45 126.259C1087.68 127.113 1088.15 128.321 1089.44 128.395C1089.85 128.409 1090.28 128.439 1090.7 128.453C1088.71 133.564 1084.21 137.88 1078.5 139.854C1077.79 140.104 1077.31 140.693 1077.53 141.4C1077.71 142.004 1078.55 142.52 1079.26 142.269C1085.95 139.957 1091.26 135.023 1093.47 128.984C1097.18 131.237 1101.07 133.417 1105.47 134.375C1109.97 135.361 1115.06 135.052 1118.92 132.563C1119.5 132.165 1119.81 131.473 1119.4 130.84Z" fill="#FEFEF8"/>
<path fill-rule="evenodd" clip-rule="evenodd" d="M0 342.4V117.579C107.667 128.963 235.73 89.121 349.563 83.4294C463.397 77.7377 590.562 97.9287 706.241 117.579C854.224 142.718 959.995 154.101 1045.37 147.461C1158.39 138.67 1252.17 126.117 1309.08 97.6585L1366 69.2002V342.4H1309.08C1252.17 342.4 1138.33 342.4 1024.5 342.4C910.667 342.4 796.833 342.4 683 342.4C569.167 342.4 455.333 342.4 341.5 342.4C227.667 342.4 113.833 342.4 56.9167 342.4H0Z" fill="#FFA8A1"/>
<path d="M1149.82 88.6113V71.2305C1087.8 50.8623 1098.21 13.6565 1140.82 4.96604C1183.43 -3.72437 1263.76 -1.50742 1259.28 42.1284C1256.63 67.9823 1199.84 78.0198 1172.07 73.9462L1149.82 88.6113Z" fill="white" stroke="#C8C8C8" stroke-width="0.948611"/>
<path d="M1148.35 32.8387L1147.24 31.0515C1147.02 30.7024 1146.66 30.5279 1146.16 30.5279C1145.39 30.5279 1144.71 30.3571 1144.14 30.0156C1143.56 29.6741 1143.11 29.196 1142.79 28.5813C1142.47 27.9591 1142.31 27.2305 1142.31 26.3957C1142.31 25.5534 1142.47 24.8248 1142.79 24.2101C1143.11 23.5954 1143.56 23.1211 1144.14 22.7872C1144.71 22.4457 1145.39 22.275 1146.17 22.275C1146.95 22.275 1147.63 22.4457 1148.21 22.7872C1148.79 23.1211 1149.24 23.5954 1149.55 24.2101C1149.87 24.8248 1150.03 25.5496 1150.03 26.3844C1150.03 27.295 1149.84 28.0767 1149.46 28.7293C1149.09 29.382 1148.58 29.8601 1147.91 30.1636C1148.24 30.2699 1148.52 30.5241 1148.76 30.9263L1149.59 32.2468L1148.35 32.8387ZM1146.17 29.2757C1146.91 29.2757 1147.48 29.0215 1147.89 28.513C1148.3 28.0046 1148.51 27.2988 1148.51 26.3957C1148.51 25.4851 1148.3 24.7793 1147.89 24.2784C1147.49 23.7776 1146.92 23.5271 1146.17 23.5271C1145.44 23.5271 1144.86 23.7776 1144.45 24.2784C1144.04 24.7793 1143.84 25.4851 1143.84 26.3957C1143.84 27.2988 1144.04 28.0046 1144.45 28.513C1144.86 29.0215 1145.44 29.2757 1146.17 29.2757ZM1154.96 30.5279C1153.86 30.5279 1153.02 30.2433 1152.44 29.6741C1151.86 29.0974 1151.57 28.2474 1151.57 27.1243V22.3888H1153.03V27.1129C1153.03 27.8338 1153.19 28.3764 1153.52 28.7407C1153.85 29.0974 1154.33 29.2757 1154.96 29.2757C1156.25 29.2757 1156.89 28.5548 1156.89 27.1129V22.3888H1158.33V27.1243C1158.33 28.2474 1158.05 29.0974 1157.48 29.6741C1156.91 30.2433 1156.07 30.5279 1154.96 30.5279ZM1160.15 30.4141V22.3888H1165.48V23.5499H1161.55V25.7583H1165.23V26.9194H1161.55V29.253H1165.48V30.4141H1160.15ZM1167.05 30.4141V22.3888H1170.53C1171.42 22.3888 1172.09 22.6013 1172.57 23.0263C1173.05 23.4437 1173.29 24.0318 1173.29 24.7907C1173.29 25.3902 1173.13 25.8873 1172.82 26.2819C1172.51 26.6689 1172.06 26.9308 1171.48 27.0674C1171.87 27.1888 1172.19 27.481 1172.44 27.9439L1173.78 30.4141H1172.17L1170.79 27.8528C1170.65 27.6024 1170.49 27.4316 1170.3 27.3406C1170.11 27.2495 1169.88 27.204 1169.59 27.204H1168.51V30.4141H1167.05ZM1168.51 26.1225H1170.28C1171.35 26.1225 1171.88 25.69 1171.88 24.8248C1171.88 23.9673 1171.35 23.5385 1170.28 23.5385H1168.51V26.1225ZM1180.92 30.5279C1180.29 30.5279 1179.7 30.4482 1179.16 30.2888C1178.63 30.1219 1178.17 29.898 1177.8 29.6172L1178.24 28.4675C1178.61 28.7331 1179.02 28.938 1179.46 29.0822C1179.91 29.2264 1180.39 29.2985 1180.92 29.2985C1181.52 29.2985 1181.95 29.1998 1182.23 29.0025C1182.5 28.7976 1182.64 28.5358 1182.64 28.2171C1182.64 27.9515 1182.54 27.7428 1182.34 27.591C1182.15 27.4392 1181.82 27.314 1181.35 27.2153L1180.1 26.9535C1178.67 26.65 1177.96 25.9176 1177.96 24.7565C1177.96 24.2557 1178.09 23.8193 1178.36 23.4475C1178.62 23.0756 1178.99 22.7872 1179.46 22.5823C1179.93 22.3774 1180.47 22.275 1181.09 22.275C1181.63 22.275 1182.15 22.3585 1182.62 22.5254C1183.1 22.6848 1183.5 22.9124 1183.82 23.2084L1183.38 24.3012C1182.75 23.77 1181.98 23.5044 1181.08 23.5044C1180.55 23.5044 1180.14 23.6144 1179.85 23.8345C1179.55 24.0546 1179.4 24.343 1179.4 24.6996C1179.4 24.9728 1179.49 25.1929 1179.68 25.3599C1179.86 25.5192 1180.17 25.6444 1180.61 25.7355L1181.85 25.9973C1182.6 26.1567 1183.16 26.4071 1183.52 26.7486C1183.9 27.0901 1184.08 27.5455 1184.08 28.1146C1184.08 28.5927 1183.95 29.0139 1183.69 29.3782C1183.44 29.7424 1183.07 30.027 1182.59 30.2319C1182.12 30.4292 1181.56 30.5279 1180.92 30.5279ZM1188.78 30.5279C1187.68 30.5279 1186.84 30.2433 1186.25 29.6741C1185.68 29.0974 1185.39 28.2474 1185.39 27.1243V22.3888H1186.85V27.1129C1186.85 27.8338 1187.01 28.3764 1187.34 28.7407C1187.67 29.0974 1188.15 29.2757 1188.78 29.2757C1190.06 29.2757 1190.71 28.5548 1190.71 27.1129V22.3888H1192.15V27.1243C1192.15 28.2474 1191.87 29.0974 1191.3 29.6741C1190.73 30.2433 1189.89 30.5279 1188.78 30.5279ZM1193.96 30.4141V22.3888H1197.47C1198.31 22.3888 1198.97 22.5747 1199.43 22.9466C1199.89 23.3109 1200.12 23.8193 1200.12 24.472C1200.12 24.9045 1200.01 25.2764 1199.79 25.5875C1199.57 25.8987 1199.27 26.1263 1198.88 26.2705C1199.34 26.3995 1199.69 26.6272 1199.94 26.9535C1200.2 27.2723 1200.33 27.6783 1200.33 28.1715C1200.33 28.8849 1200.08 29.4389 1199.6 29.8335C1199.12 30.2205 1198.45 30.4141 1197.6 30.4141H1193.96ZM1195.36 25.7924H1197.22C1198.21 25.7924 1198.71 25.4092 1198.71 24.6427C1198.71 23.8762 1198.21 23.493 1197.22 23.493H1195.36V25.7924ZM1195.36 29.3099H1197.41C1198.42 29.3099 1198.92 28.9077 1198.92 28.1032C1198.92 27.2988 1198.42 26.8966 1197.41 26.8966H1195.36V29.3099ZM1201.92 30.4141V22.3888H1203.37V30.4141H1201.92ZM1205.23 30.4141V22.3888H1208.71C1209.59 22.3888 1210.27 22.6013 1210.75 23.0263C1211.23 23.4437 1211.47 24.0318 1211.47 24.7907C1211.47 25.3902 1211.31 25.8873 1211 26.2819C1210.69 26.6689 1210.24 26.9308 1209.66 27.0674C1210.05 27.1888 1210.36 27.481 1210.61 27.9439L1211.96 30.4141H1210.35L1208.96 27.8528C1208.83 27.6024 1208.66 27.4316 1208.47 27.3406C1208.29 27.2495 1208.06 27.204 1207.77 27.204H1206.69V30.4141H1205.23ZM1206.69 26.1225H1208.46C1209.53 26.1225 1210.06 25.69 1210.06 24.8248C1210.06 23.9673 1209.53 23.5385 1208.46 23.5385H1206.69V26.1225ZM1214.35 28.0349V27.5796C1214.35 27.2229 1214.42 26.8928 1214.55 26.5893C1214.68 26.2857 1214.91 25.9556 1215.23 25.5989C1215.47 25.3333 1215.64 25.1056 1215.73 24.9159C1215.83 24.7262 1215.88 24.5251 1215.88 24.3126C1215.88 24.0622 1215.79 23.8649 1215.61 23.7207C1215.42 23.5765 1215.17 23.5044 1214.83 23.5044C1214.09 23.5044 1213.4 23.7776 1212.77 24.324L1212.29 23.2312C1212.61 22.9428 1213.01 22.7113 1213.48 22.5368C1213.96 22.3623 1214.44 22.275 1214.92 22.275C1215.4 22.275 1215.82 22.3547 1216.18 22.514C1216.54 22.6734 1216.82 22.8935 1217.02 23.1743C1217.22 23.4551 1217.33 23.7852 1217.33 24.1646C1217.33 24.5137 1217.25 24.84 1217.09 25.1436C1216.94 25.4471 1216.66 25.7773 1216.27 26.1339C1215.91 26.4603 1215.66 26.7448 1215.53 26.9877C1215.39 27.2305 1215.3 27.4734 1215.27 27.7162L1215.22 28.0349H1214.35ZM1213.99 30.4141V28.8318H1215.58V30.4141H1213.99ZM1138.44 46.5279C1137.61 46.5279 1136.89 46.3609 1136.29 46.027C1135.7 45.6855 1135.24 45.2074 1134.92 44.5927C1134.6 43.9704 1134.45 43.2381 1134.45 42.3957C1134.45 41.5534 1134.6 40.8248 1134.92 40.2101C1135.24 39.5954 1135.7 39.1211 1136.29 38.7872C1136.89 38.4457 1137.61 38.275 1138.44 38.275C1138.98 38.275 1139.49 38.3585 1139.97 38.5254C1140.45 38.6924 1140.85 38.9314 1141.16 39.2426L1140.68 40.4037C1140.34 40.1153 1139.99 39.9066 1139.64 39.7776C1139.28 39.641 1138.9 39.5727 1138.49 39.5727C1137.67 39.5727 1137.06 39.8193 1136.63 40.3126C1136.21 40.7983 1135.99 41.4927 1135.99 42.3957C1135.99 43.2988 1136.21 43.997 1136.63 44.4903C1137.06 44.9836 1137.67 45.2302 1138.49 45.2302C1138.9 45.2302 1139.28 45.1657 1139.64 45.0367C1139.99 44.9001 1140.34 44.6876 1140.68 44.3992L1141.16 45.5603C1140.85 45.8639 1140.45 46.1029 1139.97 46.2775C1139.49 46.4444 1138.98 46.5279 1138.44 46.5279ZM1142.55 46.4141V38.3888H1144V45.1733H1147.85V46.4141H1142.55ZM1149.05 46.4141V38.3888H1150.51V46.4141H1149.05ZM1158.14 48.8387L1157.04 47.0515C1156.82 46.7024 1156.45 46.5279 1155.95 46.5279C1155.18 46.5279 1154.5 46.3571 1153.93 46.0156C1153.35 45.6741 1152.9 45.196 1152.58 44.5813C1152.27 43.9591 1152.11 43.2305 1152.11 42.3957C1152.11 41.5534 1152.27 40.8248 1152.58 40.2101C1152.9 39.5954 1153.35 39.1211 1153.93 38.7872C1154.5 38.4457 1155.18 38.275 1155.97 38.275C1156.75 38.275 1157.43 38.4457 1158 38.7872C1158.58 39.1211 1159.03 39.5954 1159.35 40.2101C1159.66 40.8248 1159.82 41.5496 1159.82 42.3844C1159.82 43.295 1159.63 44.0767 1159.26 44.7293C1158.88 45.382 1158.37 45.8601 1157.71 46.1636C1158.03 46.2699 1158.31 46.5241 1158.55 46.9263L1159.38 48.2468L1158.14 48.8387ZM1155.97 45.2757C1156.7 45.2757 1157.27 45.0215 1157.68 44.513C1158.09 44.0046 1158.3 43.2988 1158.3 42.3957C1158.3 41.4851 1158.09 40.7793 1157.68 40.2784C1157.28 39.7776 1156.71 39.5271 1155.97 39.5271C1155.23 39.5271 1154.66 39.7776 1154.25 40.2784C1153.84 40.7793 1153.63 41.4851 1153.63 42.3957C1153.63 43.2988 1153.84 44.0046 1154.25 44.513C1154.66 45.0215 1155.23 45.2757 1155.97 45.2757ZM1164.75 46.5279C1163.65 46.5279 1162.81 46.2433 1162.23 45.6741C1161.65 45.0974 1161.36 44.2474 1161.36 43.1243V38.3888H1162.82V43.1129C1162.82 43.8338 1162.98 44.3764 1163.31 44.7407C1163.64 45.0974 1164.13 45.2757 1164.75 45.2757C1166.04 45.2757 1166.68 44.5548 1166.68 43.1129V38.3888H1168.12V43.1243C1168.12 44.2474 1167.84 45.0974 1167.27 45.6741C1166.7 46.2433 1165.86 46.5279 1164.75 46.5279ZM1169.94 46.4141V38.3888H1175.28V39.5499H1171.34V41.7583H1175.03V42.9194H1171.34V45.253H1175.28V46.4141H1169.94ZM1180.03 46.4141V38.3888H1185.36V39.5499H1181.43V41.7583H1185.11V42.9194H1181.43V45.253H1185.36V46.4141H1180.03ZM1186.95 46.4141V38.3888H1188.17L1191.02 43.6365L1193.85 38.3888H1195.05V46.4141H1193.73V41.007L1191.43 45.196H1190.57L1188.27 41.0297V46.4141H1186.95ZM1200.13 46.4141V38.3888H1201.35L1204.2 43.6365L1207.03 38.3888H1208.23V46.4141H1206.91V41.007L1204.61 45.196H1203.75L1201.45 41.0297V46.4141H1200.13ZM1210.11 46.4141V38.3888H1211.56V46.4141H1210.11ZM1213.44 46.4141V38.3888H1214.66L1217.51 43.6365L1220.34 38.3888H1221.54V46.4141H1220.22V41.007L1217.92 45.196H1217.06L1214.77 41.0297V46.4141H1213.44ZM1223.85 47.928L1223.27 47.4727C1223.46 47.283 1223.6 47.1009 1223.69 46.9263C1223.79 46.7594 1223.86 46.5886 1223.9 46.4141H1223.16V44.8318H1224.75V45.879C1224.75 46.2661 1224.68 46.619 1224.55 46.9377C1224.42 47.264 1224.18 47.5941 1223.85 47.928ZM1163.91 62.4141V54.3888H1165.12L1167.97 59.6365L1170.8 54.3888H1172V62.4141H1170.68V57.007L1168.38 61.196H1167.53L1165.23 57.0297V62.4141H1163.91ZM1173.88 62.4141V54.3888H1175.34V62.4141H1173.88ZM1176.33 62.4141L1179.96 54.3888H1181.16L1184.79 62.4141H1183.31L1182.51 60.5586H1178.6L1177.81 62.4141H1176.33ZM1180.54 55.9711L1179.1 59.3975H1182.01L1180.56 55.9711H1180.54ZM1189.06 62.5279C1187.96 62.5279 1187.12 62.2433 1186.53 61.6741C1185.96 61.0974 1185.67 60.2474 1185.67 59.1243V54.3888H1187.12V59.1129C1187.12 59.8338 1187.29 60.3764 1187.61 60.7407C1187.95 61.0974 1188.43 61.2757 1189.06 61.2757C1190.34 61.2757 1190.98 60.5548 1190.98 59.1129V54.3888H1192.43V59.1243C1192.43 60.2474 1192.14 61.0974 1191.58 61.6741C1191.01 62.2433 1190.17 62.5279 1189.06 62.5279ZM1194.34 60.0349L1193.9 54.3888H1195.65L1195.21 60.0349H1194.34ZM1193.98 62.4141V60.8318H1195.57V62.4141H1193.98Z" fill="#434343"/>
</svg>
