<svg width="450" height="231" viewBox="0 0 450 231" fill="none" xmlns="http://www.w3.org/2000/svg">
<path d="M220.875 0.0376459C193.757 0.0376459 166.022 1.70727 139.743 4.48437C93.8795 9.32823 55.5316 18.3559 36.2861 37.6978C32.8891 41.1181 30.0247 44.6308 27.4201 48.177C12.0783 69.0626 3.4331 90.8292 0.783032 112.705C-2.51006 139.911 3.93973 168.029 32.5059 192.343C45.6912 203.566 64.2092 214.093 89.8915 220.095C115.911 226.175 146.569 227.061 176.135 227.819C213.665 228.778 251.188 229.74 288.718 230.7C305.378 231.125 322.681 231.508 338.134 228.795C353.839 226.038 365.31 220.441 374.273 214.423C383.321 208.351 392.759 201.871 400.222 195.453C408.406 188.419 418.681 182.172 425.021 174.677C431.743 166.728 435.861 158.405 438.459 150.035C443.22 134.684 443.058 119.134 445.994 103.702C449.047 87.6745 455.198 70.9028 441.194 55.9909C432.711 46.9632 417.337 39.3758 399.767 33.2343C370.526 23.0124 335.893 16.3283 303.332 8.37736C280.014 2.68051 247.733 -0.37906 220.875 0.0376459Z" fill="#F3F3F3"/>
</svg>
