<svg width="441" height="618" viewBox="0 0 441 618" fill="none" xmlns="http://www.w3.org/2000/svg">
<path d="M255.212 330.237C197.641 254.452 327.007 178.608 365.365 256.418C401.26 301.641 424.64 355.407 437.259 416.526C457.855 497.147 388.542 515.343 348.326 466.373L255.212 330.237Z" fill="#FBAF89"/>
<path d="M386.395 255.574C359.901 214.197 290.85 194.098 290.85 194.098C290.85 194.098 257.861 235.173 244.655 261.734C233.08 285.006 236.285 310.433 253.495 333.068L310.325 419.791L427.791 354.495C427.791 354.495 416.903 296.956 386.395 255.574Z" fill="#445E93"/>
<path d="M176.824 331.837C226.056 250.384 73.2385 237.616 49.2031 273.724C25.1632 309.831 2.50626 430.058 2.50626 430.058C-14.4198 513.802 58.4684 534.963 98.6389 477.062L176.824 331.837Z" fill="#FBAF89"/>
<path d="M42.0089 271.822C63.9744 227.873 130.512 200.579 130.512 200.579C130.512 200.579 167.668 237.933 183.605 262.945C197.579 284.861 197.082 310.483 182.366 334.816L135.028 427.066L11.3115 374.566C11.3115 374.566 16.0527 316.2 42.0089 271.822Z" fill="#445E93"/>
<path d="M149.644 42.0744C128.239 90.9632 124.849 150.369 149.644 160.186C156.965 163.395 170.701 164.109 170.701 164.109C171.835 175.53 168.314 184.19 157.856 188.727L170.701 208.352L226.007 219.059L274.178 188.727C274.178 188.727 260.619 181.234 257.405 178.382C254.192 175.525 244.56 133.778 244.56 133.778C244.56 133.778 268.826 131.283 267.751 107.374C266.684 83.4652 245.632 97.024 245.632 97.024L235.996 52.0672L208.521 37.4372H181.403L149.644 42.0744Z" fill="#FBAF89"/>
<path d="M243.58 135.537C240.521 135.537 235.617 134.208 233.126 128.979L236.191 127.519C238.677 132.758 244.114 132.12 244.344 132.102L244.792 135.46C244.435 135.51 244.028 135.537 243.58 135.537Z" fill="#F26538"/>
<circle cx="248.5" cy="137.5" r="8.76923" stroke="#DDDDDD" stroke-width="1.46154"/>
<path d="M250 132.5V127H259C259 129 253.333 131.167 250 132.5Z" fill="#FBAF89"/>
<path d="M70.0735 369.342C77.21 419.157 80.7806 480.112 80.7806 505.052C70.0735 559.469 49.5417 578.061 125.271 604.816C171.123 622.467 265.206 634.046 365.044 550.967C379.782 540.764 384.883 538.496 380.348 529.427C376.947 523.192 378.089 516.012 378.648 511.288C382.333 464.177 345.668 398.918 344.827 378.639C343.755 352.931 386.213 257.924 362.666 231.262C339.114 204.601 274.176 188.728 274.176 188.728C219.258 208.42 181.894 206.703 157.854 188.728C157.854 188.728 116.594 203.327 80.7806 229.355C44.9625 255.384 60.7947 314.749 70.0735 369.342Z" fill="#445E93"/>
<path d="M202.748 216.016C179.341 216.016 161.294 208.495 148.269 193.45L150.827 191.23C175.558 219.79 219.823 219.758 286.167 191.149L287.505 194.263C253.879 208.767 225.726 216.016 202.748 216.016Z" fill="#304B81"/>
<path d="M274.172 588.89C272.676 588.89 271.171 588.402 269.919 587.39C256.247 576.357 260.066 552.71 262.344 538.582L262.863 535.323C263.419 531.69 264.183 527.961 264.961 524.192C267.831 510.262 270.542 497.101 262.895 486.539C258.94 481.065 253.634 475.863 247.56 471.493C244.523 469.31 243.827 465.075 246.014 462.033C248.202 458.991 252.441 458.3 255.478 460.483C262.719 465.694 269.087 471.954 273.887 478.593C285.028 493.991 281.421 511.491 278.244 526.926C277.512 530.465 276.788 533.963 276.264 537.375L275.731 540.742C274.04 551.228 270.89 570.744 278.438 576.836C281.349 579.191 281.805 583.458 279.45 586.368C278.113 588.031 276.151 588.89 274.172 588.89Z" fill="white"/>
<path d="M198.549 344.554C182.55 345.964 177.203 354.935 161.018 355.771C161.018 355.771 150.244 353.986 152.386 359.437C159.956 378.686 193.438 362.813 193.438 362.813C193.438 362.813 214.544 343.139 198.549 344.554Z" fill="white"/>
<path d="M190.438 408.815C190.438 408.815 187.27 380.803 161.675 380.92C136.076 381.047 134.097 432.711 134.097 432.711C134.097 432.711 113.541 400.789 102.631 407.735C96.9497 413.859 110.888 428.77 131.312 446.609C151.732 464.448 193.552 458.509 193.552 458.509L190.438 408.815Z" fill="#646162"/>
<path d="M242.647 276.669C242.647 276.669 228.093 249.587 222.959 249.338C217.825 249.09 214.625 284.56 214.625 284.56C214.625 284.56 230.561 287.168 242.647 276.669Z" fill="white"/>
<path d="M285.991 337.451C285.991 337.451 300.951 420.978 263.411 467.589C226.49 516.98 139.663 474.843 155.912 415.143C160.657 383.352 204.05 345.966 205.383 328.186C206.708 310.405 264.997 292.878 285.991 337.451Z" fill="white"/>
<path d="M231.662 364.612C206.863 357.187 186.181 340.03 189.864 316.618C194.086 289.826 225.818 273.28 255.688 277.049C274.648 279.444 293.292 289.677 300.152 305.78C306.963 321.748 304.649 341.002 293.838 354.841C287.66 362.746 279.118 367.071 268.036 368.192C256.389 369.371 242.862 367.97 231.662 364.612Z" fill="white"/>
<path d="M265.64 284.195C265.649 288.081 267.633 291.308 270.29 293.98C272.97 296.673 276.03 298.825 278.331 301.893C280.441 304.714 281.892 307.886 283.248 311.118C284.749 314.707 286.15 318.277 288.599 321.35C291.09 324.487 294.321 327.271 297.96 328.993C299.767 329.852 301.684 330.263 303.65 330.403C304.581 322.083 303.464 313.545 300.152 305.78C294.624 292.8 281.436 283.643 266.593 279.322C266.033 280.9 265.635 282.509 265.64 284.195Z" fill="#646162"/>
<path d="M282.86 286.533C282.86 286.533 308.025 270.556 315.157 274.85C322.285 279.144 303.325 316.715 303.325 316.715C303.325 316.715 284.311 295.459 282.86 286.533Z" fill="#646162"/>
<path d="M287.746 290.692C287.746 290.692 298.792 283.682 301.915 285.566C305.042 287.451 296.726 303.934 296.726 303.934C296.726 303.934 288.387 294.61 287.746 290.692Z" fill="#FFA8A1"/>
<path d="M238.052 311.769C238.052 311.769 229.211 304.357 234.219 303.846C239.227 303.331 249.464 305.912 251.353 307.873C253.242 309.835 238.052 311.769 238.052 311.769Z" fill="#646162"/>
<path d="M226.941 300.527C226.797 302.108 225.396 303.279 223.814 303.134C222.223 302.994 221.057 301.593 221.202 300.007C221.342 298.42 222.743 297.254 224.329 297.394C225.911 297.539 227.082 298.94 226.941 300.527Z" fill="#646162"/>
<path d="M263.87 309.136C263.73 310.718 262.324 311.889 260.743 311.744C259.156 311.6 257.986 310.199 258.13 308.617C258.275 307.03 259.676 305.86 261.262 306.004C262.844 306.149 264.015 307.55 263.87 309.136Z" fill="#646162"/>
<path d="M237 319L236 318.5L237.5 311L239 311.5L237 319Z" fill="#646162"/>
<path d="M264.491 453.699C265.287 446.779 265.906 420.8 241.812 412.163C217.713 403.526 198.193 451.403 198.193 451.403C198.193 451.403 189.786 414.378 177.158 417.175C169.728 420.986 177.728 439.76 190.821 463.506C203.91 487.257 224.402 489.236 236.863 486.733C249.332 484.229 262.647 470.561 264.491 453.699Z" fill="#646162"/>
<path d="M272.397 370.996C259.516 380.596 259.182 390.711 245.618 399.588C245.618 399.588 235.413 403.47 240.009 407.104C256.239 419.921 283.868 386.693 283.868 386.693C288.781 381.812 287.728 359.575 272.397 370.996Z" fill="#646162"/>
<path d="M373.318 400.177C324.876 422.631 261.285 440.149 190.761 455.407L199.14 520.648C274.912 520.264 349.309 510.587 417.646 490.073C463.742 468.867 434.753 373.584 373.318 400.177Z" fill="#FBAF89"/>
<path d="M60.7332 411.651C116.167 434.809 170.877 451.36 224.245 455.807L221.836 521.541C146.344 528.054 39.839 509.808 39.839 509.808C-17.3434 501.686 -2.87153 390.761 60.7332 411.651Z" fill="#FBAF89"/>
<path d="M165.493 492.455C168.137 519.726 184.616 520.851 206.653 522.691C228.696 524.526 278.389 514.366 278.389 514.366C291.573 511.871 289.95 501.069 285.986 501.101C284.065 501.286 293.218 499.862 295.089 499.514C311.5 495.831 305.837 483.768 299.102 483.492C312.2 482.81 312.395 468.406 303.92 468.193C313.24 466.67 312.86 453.477 298.899 453.247C291.17 452.456 227.127 456.447 227.127 456.447C227.014 450.675 251.958 449.622 253.332 435.372C253.115 433.867 251.831 433.265 250.652 433.324C213.392 439.245 194.491 453.491 187.485 457.866C176.887 464.474 163.902 476.039 165.493 492.455Z" fill="#FBAF89"/>
<path d="M278.601 515.474L278.176 513.255C285.186 511.931 287.993 507.981 287.672 504.659C287.532 503.271 286.817 502.232 285.999 502.232C285.995 502.232 285.995 502.232 285.99 502.232L284.991 502.241L284.598 501.26C284.512 500.596 284.476 500.32 285.737 499.999V499.99C285.751 499.99 285.764 499.99 285.778 499.99C286.677 499.759 288.228 499.511 290.853 499.077C292.571 498.797 294.207 498.53 294.881 498.408C301.411 496.939 304.977 493.92 304.634 490.128C304.376 487.258 301.818 484.736 299.057 484.623L299.043 482.368C305.669 482.02 308.629 477.934 308.584 474.278C308.548 471.869 307.083 469.405 303.893 469.324L303.739 467.082C307.685 466.436 309.294 463.516 309.113 461.08C308.873 457.822 305.619 454.491 298.88 454.378C291.256 453.614 227.836 457.537 227.199 457.573L226.019 457.645L225.997 456.47C225.938 453.411 230.06 451.761 235.289 449.668C240.794 447.467 247.655 444.724 250.669 439.829L252.595 441.018C249.187 446.541 241.942 449.442 236.125 451.77C233.287 452.904 230.381 454.07 229.029 455.196C240.057 454.522 291.947 451.404 299.011 452.122C307.079 452.253 311.052 456.633 311.368 460.918C311.59 463.932 310.103 466.563 307.549 468.086C309.551 469.302 310.803 471.516 310.844 474.246C310.893 478.133 308.344 482.192 303.341 483.859C305.28 485.251 306.663 487.47 306.889 489.925C307.056 491.787 306.717 498.06 295.337 500.618C294.614 500.754 292.951 501.025 291.215 501.31C290.51 501.423 289.719 501.554 288.969 501.68C289.48 502.417 289.809 503.361 289.918 504.437C290.343 508.785 287.007 513.883 278.601 515.474Z" fill="#F26538"/>
<path d="M247.304 505.377L247.155 503.122L285.319 500.555L285.468 502.81L247.304 505.377Z" fill="#F26538"/>
<path d="M248.57 490.214L248.331 487.963L298.819 482.666L299.059 484.912L248.57 490.214Z" fill="#F26538"/>
<path d="M246.991 473.831L246.806 471.576L303.608 466.948L303.794 469.198L246.991 473.831Z" fill="#F26538"/>
<path d="M22.8665 427.663L20.9502 426.469C34.4458 404.802 71.1543 414.904 72.7136 415.342L72.0943 417.521C71.7327 417.417 35.4627 407.442 22.8665 427.663Z" fill="#F26538"/>
<path d="M353.618 409.926L352.673 407.874C354.224 407.164 390.932 390.523 409.82 408.073L408.283 409.727C390.503 393.217 353.989 409.759 353.618 409.926Z" fill="#F26538"/>
<path d="M70.8296 401.044C69.5687 397.307 40.069 309.083 57.2346 275.222L60.2627 276.755C43.7389 309.355 73.7402 399.056 74.043 399.96L70.8296 401.044Z" fill="#304B81"/>
<path d="M336.177 407.36L309.782 362.408L312.706 360.69L337.42 402.786L348.678 396.531L350.328 399.496L336.177 407.36Z" fill="#304B81"/>
<path d="M171.518 165.81C171.061 165.81 170.767 165.805 170.668 165.805L170.731 162.415C170.984 162.397 198.785 162.813 207.788 152.639L210.328 154.886C201.13 165.272 176.521 165.81 171.518 165.81Z" fill="#F26538"/>
<path d="M141.39 64.1852C141.39 64.1852 122.525 34.9432 143.582 25.3073C143.582 25.3073 151.076 -21.0777 218.156 11.7484C218.156 11.7484 249.201 4.978 254.548 32.0913C254.548 32.0913 290.226 41.6367 263.104 95.0271C256.333 90.3945 244.962 96.5457 240.813 100.505C228.777 90.9685 220.506 77.8254 221.812 55.5481C185.33 64.0134 163.726 59.6384 151.609 47.0738L141.39 64.1852Z" fill="#592423"/>
<path d="M160.011 125.832C144.906 125.832 141.702 116.905 141.544 116.435L144.757 115.36L143.153 115.897L144.753 115.346C144.916 115.798 149.006 126.406 171.92 120.842L172.725 124.132C167.758 125.343 163.559 125.832 160.011 125.832Z" fill="#F26538"/>
<path d="M157.815 110.204C156.658 109.205 150.841 104.075 149.675 101.133C148.69 98.6243 152.252 93.5036 160.256 85.9015L162.588 88.3602C157.381 93.3047 152.934 98.674 152.875 100.093C153.463 101.481 157.422 105.386 160.03 107.641L157.815 110.204Z" fill="#F26538"/>
<path d="M189.575 80.6226L178.606 78.6566L179.207 75.321L190.176 77.2826L189.575 80.6226Z" fill="#592423"/>
<path d="M152.694 75.8462L141.725 73.8846L142.322 70.5492L153.295 72.5106L152.694 75.8462Z" fill="#592423"/>
<path d="M152.664 82.0778C150.375 85.4619 143.388 84.8664 139.989 83.884C139.77 83.884 136.5 83 136.5 82.5C136.5 82.1 136.833 80.9999 137 80.4999C137.4 80.8999 140.879 81.7073 142.569 82.061C144.65 82.2844 146.834 82.1899 148.822 81.5348C149.996 81.1465 150.934 80.7067 152.177 80.7768C152.814 80.8125 152.953 81.6476 152.664 82.0778Z" fill="#592423"/>
<path d="M192.942 87.2515C190.259 90.7381 186.706 92.033 182.48 91.3527C179.155 90.8167 176.969 88.3454 173.954 87.3314C173.244 87.093 172.816 87.9228 173.077 88.5129C174.727 92.2547 180.477 93.6282 184.045 93.9091C188.276 94.2402 192.151 92.0111 194.071 88.1547C194.428 87.4396 193.474 86.5596 192.942 87.2515Z" fill="#592423"/>
<path d="M226.619 318.239C227.817 322.983 233.956 322.302 236.712 319.477C236.385 319.425 236.055 319.373 235.727 319.321C237.178 323.553 241.761 325.909 245.684 323.339C246.375 322.886 245.632 321.825 244.947 322.286C241.697 324.472 238.027 322.26 236.806 318.882C236.645 318.433 236.115 318.415 235.822 318.726C233.535 321.147 228.672 321.715 227.331 317.949C227.158 317.462 226.499 317.759 226.619 318.239Z" fill="#646162"/>
</svg>
