<svg width="1254" height="664" viewBox="0 0 1254 664" fill="none" xmlns="http://www.w3.org/2000/svg">
<path d="M1206.23 2.8231L1207.24 2.54153C1186.43 1.90696 1173.49 1.76828 1159.03 3.10467C1156.74 1.48671 1142.02 2.96178 1137.2 2.39865L1137.71 2.25997C1125.02 3.52491 1111.57 1.20515 1099.39 2.33141C1099.89 2.18853 1100.16 1.76828 1102.95 1.69684C1094.06 1.90696 1081.88 2.25997 1081.12 1.34383C1059.81 1.62539 1030.11 1.13371 1016.66 2.68022L1017.68 2.39865C1009.81 3.38623 1007.53 2.54153 998.901 3.03322C998.397 2.89034 997.883 2.8231 997.883 2.8231C997.631 2.8231 997.379 2.89034 997.127 2.89034C988.493 3.73504 973.017 2.96178 966.418 3.38623L965.914 2.75166L949.159 2.89034L955.507 3.03322C953.22 4.72262 942.822 1.9784 930.641 3.10467C919.216 2.89034 907.548 6.68937 895.619 5.84468C890.038 6.61793 900.697 4.50829 892.063 5.14286C891.811 4.22673 896.123 4.57973 893.846 3.87792C885.474 4.29817 880.144 2.96178 869.988 3.59635L869.484 2.89034C856.034 4.15949 844.357 1.9784 835.48 3.1719C821.778 3.73504 826.342 1.06226 811.874 2.47009L806.292 1.55815C800.207 1.41527 801.98 2.68022 795.129 2.25997C795.633 1.69684 786.505 1.76828 790.565 1.20515C773.81 0.36045 758.082 2.61298 737.781 1.06226C733.469 2.18853 723.061 1.55816 719.766 2.39865C719.252 1.90696 699.203 2.33141 710.88 1.20515C711.897 1.13371 713.671 1.13371 713.419 1.34383L714.688 0.642016C703.011 -0.622929 693.621 1.34383 682.206 1.13371C685.5 1.34383 690.074 1.27659 687.032 1.76828L676.372 1.69684L678.649 1.13371L662.922 0.780697L665.199 1.48671C657.34 1.13371 654.801 -0.131238 645.915 0.923582C641.854 1.48671 653.28 1.90696 645.159 2.11708C634.751 1.62539 619.276 0.923581 606.077 0.713458C607.347 1.48671 603.79 1.48671 599.982 1.62539L599.478 0.923582C585.524 1.90696 594.4 -0.622929 580.446 0.150326L577.907 1.13371C565.222 2.54153 571.056 -0.341363 557.102 1.55815C562.683 1.41527 559.64 3.10467 552.789 2.8231L554.563 2.11708C550.754 2.25997 549.485 2.54153 546.946 2.39865C549.233 2.04984 548.215 1.41527 542.633 1.55815L546.442 0.713458L536.034 1.9784C527.914 1.27659 515.229 2.18853 511.934 1.20515C511.934 1.20515 494.675 0.713459 490.615 1.76828C494.172 1.13371 484.52 0.852139 487.31 0.0788843C482.746 0.780698 469.548 1.41527 464.218 0.642016L465.236 0.570574C445.448 -0.202681 431.483 1.69684 413.983 0.713458C414.738 1.55815 405.348 1.06226 407.635 2.11708C389.359 3.17191 374.387 0.00744289 367.798 3.24335C359.415 3.38623 357.894 2.47009 353.582 2.33141L355.617 2.18853C340.131 2.47009 335.567 2.47009 323.89 2.39865C318.056 2.68022 317.291 4.22673 306.893 3.87792C310.188 3.31479 306.127 3.38623 302.067 3.38623C304.606 3.31479 305.372 3.10467 300.294 2.68022C299.528 2.89034 298.521 2.96178 297.503 3.10467C297.503 3.03322 297.251 3.03322 297.251 2.96178C290.904 3.1719 291.921 3.38623 294.964 3.45347C294.712 3.52491 294.964 3.6678 295.982 3.80648C289.382 3.03322 277.201 3.87792 276.436 2.8231C256.9 3.03322 243.197 4.08804 226.956 4.50829C224.921 3.87792 228.729 3.38623 233.555 3.1719L221.878 3.38623C221.878 2.61298 228.478 2.96178 232.034 2.8231C218.322 1.62539 203.864 4.0166 187.874 2.89034L184.58 3.45347L183.562 3.38623C183.562 3.6678 180.006 4.15949 177.729 4.22673C175.441 3.59635 177.98 2.68022 169.86 2.75166C163.512 2.11708 152.097 3.10467 143.725 3.45347C148.037 3.59635 146.767 3.94936 144.732 4.15949C140.672 4.15949 138.395 3.52491 135.342 3.80648L134.838 3.10467C134.586 3.80648 124.179 3.87792 122.909 4.15949C120.632 3.52491 129.005 3.59635 130.012 3.10467C114.789 3.1719 122.657 3.17191 106.92 3.24335C98.5473 3.87792 108.451 4.08804 104.391 4.8613C96.774 5.00418 89.671 5.63455 81.0365 5.14286L83.8273 5.91612C69.6213 6.47925 61.2487 6.40781 51.6067 5.63455C-35.9773 12.0349 29.5319 14.3547 29.5319 14.3547C70.8907 16.1113 92.2099 13.7916 141.186 13.2284C184.318 13.6529 195.743 15.1279 240.658 14.5648C261.978 14.7077 284.808 14.3547 305.624 14.1446C315.517 12.9469 333.028 14.1446 344.705 13.1612L349.27 13.863C353.33 13.51 358.146 13.2999 362.206 13.6529L361.954 13.863C368.05 13.3713 374.901 13.6529 377.692 13.3713L377.44 13.5814L384.795 13.51L383.525 13.7916C393.933 13.2284 404.845 13.2284 414.487 13.4427L413.721 12.5981C434.022 13.51 441.639 11.8248 460.168 12.8796L459.906 13.0897C483.26 10.9087 496.7 14.5648 520.811 12.5266C517.768 12.8082 522.08 12.9469 521.828 13.1612C532.991 12.9469 544.669 12.8082 544.921 11.1902C553.041 11.1902 551.52 11.6819 552.537 12.3165C552.537 11.6147 559.389 11.3331 565.726 11.2617L562.935 11.5432L580.95 11.3331L577.403 9.99672C587.045 10.3455 579.942 11.6147 589.07 11.2617V10.1354C602.269 10.3455 610.138 12.0349 622.822 12.8082C676.11 13.2999 733.217 10.4884 782.696 12.3879L784.983 13.2284C785.991 14.4261 798.686 11.4718 800.459 12.5266L806.292 11.9635C807.814 12.1736 811.37 12.3879 808.579 12.6695C813.909 12.7367 813.909 12.5266 817.97 12.1736L823.803 12.9469C844.87 13.51 862.633 12.1064 884.708 12.3879C911.357 13.9344 961.34 12.5266 990.024 11.6819C1030.62 9.85384 1077.57 14.7077 1119.19 12.5981C1120.46 12.7367 1124 12.3879 1124 12.245L1162.07 12.3879C1162.07 12.3879 1316.66 12.8796 1206.23 2.8231Z" fill="#FEA273"/>
<path d="M2.97445 28.4281L2.69769 27.9001C2.17999 38.8586 2.10539 45.6703 3.46343 53.2759C1.91025 54.4936 3.40348 62.2306 2.88136 64.7708L2.74501 64.5067C4.02581 71.174 1.84564 78.2747 2.9901 84.678C2.84969 84.414 2.44233 84.2796 2.36046 82.811C2.60437 87.4875 3.0015 93.8973 2.11956 94.3028C2.48963 105.524 2.15084 121.16 3.70728 128.228L3.43048 127.694C4.4211 131.829 3.61524 133.04 4.13006 137.576C3.99428 137.843 3.93166 138.114 3.93166 138.114C3.93281 138.246 3.99896 138.378 4.00011 138.511C4.85615 143.049 4.17993 151.203 4.62046 154.674L4.00949 154.944L4.2205 163.764L4.32943 160.421C5.97267 161.611 3.36826 167.108 4.51271 173.512C4.35807 179.528 8.08329 185.638 7.32173 191.926C8.0947 194.858 6.00683 189.264 6.65979 193.804C5.77554 193.944 6.0969 191.671 5.42908 192.876C5.8737 197.28 4.60662 200.097 5.26657 205.439L4.58655 205.71C5.87493 212.78 3.82064 218.946 5.0149 223.609C5.6221 230.818 3.01799 228.438 4.44508 236.043L3.58937 238.989C3.47924 242.194 4.69361 241.25 4.31893 244.86C3.77237 244.6 3.88336 249.405 3.32046 247.272C2.58107 256.1 4.83031 264.361 3.42487 275.062C4.53318 277.322 3.97176 282.807 4.79921 284.534C4.32637 284.809 4.8287 295.361 3.68656 289.223C3.61284 288.688 3.60469 287.754 3.80892 287.885L3.12482 287.222C1.95594 293.381 3.89988 298.308 3.74925 304.319C3.93719 302.583 3.85119 300.175 4.34037 301.773L4.3203 307.385L3.76559 306.191L3.49668 314.474L4.16856 313.27C3.86349 317.41 2.65264 318.757 3.71291 323.427C4.27581 325.559 4.62947 319.541 4.86985 323.814C4.44247 329.298 3.8353 337.451 3.69286 344.401C4.43435 343.726 4.45069 345.599 4.60221 347.602L3.92625 347.874C4.94076 355.212 2.45494 350.56 3.26637 357.9L4.22844 359.228C5.64732 365.894 2.83432 362.847 4.73424 370.178C4.5705 367.24 6.21721 368.828 5.97657 372.437L5.28608 371.51C5.44167 373.513 5.71963 374.179 5.5932 375.517C5.24559 374.316 4.63697 374.857 4.80071 377.795L3.96684 375.797L5.23718 381.265C4.59621 385.546 5.53584 392.217 4.60058 393.959C4.60058 393.959 4.20468 403.05 5.24277 405.178C4.61314 403.311 4.38537 408.395 3.62522 406.932C4.32447 409.329 4.9984 416.272 4.27556 419.085L4.20184 418.55C3.54543 428.974 5.4454 436.309 4.57541 445.531C5.3883 445.126 4.95218 450.074 5.96112 448.861C7.06453 458.474 4.07498 466.382 7.23263 469.824C7.40924 474.236 6.53082 475.045 6.4166 477.316L6.26915 476.246C6.61242 484.396 6.63339 486.799 6.61799 492.947C6.91692 496.016 8.41508 496.406 8.12574 501.883C7.56636 500.153 7.65406 502.29 7.67272 504.428C7.592 503.091 7.38541 502.69 6.99853 505.367C7.20512 505.768 7.2788 506.298 7.42156 506.833C7.35252 506.833 7.35367 506.966 7.28463 506.967C7.51687 510.306 7.71933 509.769 7.77033 508.166C7.84054 508.298 7.97747 508.165 8.10683 507.628C7.38983 511.108 8.26216 517.514 7.24623 517.926C7.53906 528.209 8.62146 535.414 9.10223 543.961C8.50235 545.038 8.00965 543.037 7.78034 540.498L8.04113 546.644C7.29381 546.65 7.6006 543.173 7.45023 541.302C6.35569 548.531 8.73312 556.122 7.7181 564.549L8.27748 566.279L8.21717 566.816C8.48929 566.813 8.98083 568.681 9.05628 569.88C8.45755 571.089 7.56048 569.76 7.66683 574.035C7.0827 577.382 8.08961 583.383 8.46518 587.788C8.58346 585.516 8.93046 586.182 9.14289 587.251C9.16154 589.389 8.55871 590.593 8.84486 592.198L8.1689 592.469C8.84833 592.596 8.96519 598.074 9.24315 598.74C8.64032 599.944 8.6709 595.536 8.19107 595.01C8.326 603.024 8.28985 598.881 8.4312 607.166C9.08295 611.568 9.24053 606.352 10.0065 608.483C10.1796 612.492 10.8215 616.226 10.3859 620.776L11.1204 619.3C11.7299 626.775 11.6994 631.183 10.9963 636.266C17.5844 682.321 19.5254 647.814 19.5254 647.814C21.0331 626.025 18.6932 614.821 17.924 589.042C18.136 566.331 19.5091 560.304 18.7585 536.662C18.7987 525.437 18.3526 513.421 18.0539 502.464C16.8509 497.266 17.928 488.037 16.9239 481.898L17.5812 479.489C17.2214 477.354 16.9962 474.821 17.3187 472.68L17.523 472.811C17.0198 469.606 17.2604 465.997 16.9755 464.53L17.1797 464.661L17.0769 460.789L17.3548 461.455C16.7628 455.981 16.7126 450.236 16.8755 445.158L16.0626 445.569C16.8507 434.873 15.187 430.877 16.1213 421.114L16.3256 421.25C14.1104 408.973 17.5822 401.867 15.5016 389.191C15.7877 390.79 15.9019 388.519 16.1102 388.65C15.8517 382.775 15.6641 376.628 14.0992 376.509C14.0619 372.234 14.5441 373.031 15.1527 372.49C14.4744 372.496 14.1708 368.891 14.0727 365.556L14.3576 367.022L14.0718 357.54L12.7965 359.419C13.0893 354.34 14.3485 358.068 13.9654 353.266L12.8769 353.275C13.0194 346.325 14.616 342.168 15.305 335.484C15.5354 307.426 12.5559 277.385 14.1643 251.32L14.9661 250.109C16.119 249.568 13.2055 242.91 14.2168 241.968L13.6457 238.901C13.8418 238.099 14.0326 236.224 14.3175 237.691C14.358 234.885 14.155 234.886 13.7951 232.752L14.5157 229.674C14.9631 218.578 13.525 209.239 13.6957 197.615C15.0679 183.572 13.4776 157.27 12.5295 142.176C10.5762 120.821 15.0516 96.0625 12.8215 74.1686C12.9497 73.4991 12.5962 71.635 12.4582 71.6362L12.4214 51.5957C12.4214 51.5957 12.1863 -29.796 2.97445 28.4281Z" fill="#FEA273"/>
<path d="M1236.48 23.7189L1236.2 23.1868C1235.69 34.2287 1235.61 41.0923 1236.97 48.7558C1235.42 49.9826 1236.91 57.7786 1236.39 60.3381L1236.25 60.072C1237.53 66.7901 1235.35 73.9447 1236.5 80.3968C1236.36 80.1307 1235.95 79.9953 1235.87 78.5155C1236.11 83.2276 1236.51 89.6862 1235.63 90.0948C1236 101.402 1235.66 117.156 1237.22 124.278L1236.94 123.741C1237.93 127.906 1237.13 129.127 1237.64 133.698C1237.51 133.966 1237.44 134.239 1237.44 134.239C1237.45 134.373 1237.51 134.506 1237.51 134.639C1238.37 139.213 1237.69 147.428 1238.13 150.925L1237.52 151.198L1237.73 160.085L1237.84 156.717C1239.49 157.916 1236.88 163.454 1238.03 169.906C1237.87 175.969 1241.6 182.126 1240.84 188.461C1241.61 191.415 1239.52 185.779 1240.18 190.353C1239.29 190.495 1239.61 188.204 1238.94 189.418C1239.39 193.856 1238.12 196.694 1238.78 202.076L1238.1 202.35C1239.39 209.474 1237.34 215.687 1238.53 220.385C1239.14 227.649 1236.54 225.25 1237.96 232.913L1237.11 235.882C1237 239.111 1238.21 238.16 1237.84 241.798C1237.29 241.535 1237.4 246.377 1236.84 244.228C1236.1 253.123 1238.35 261.447 1236.95 272.229C1238.05 274.507 1237.49 280.033 1238.32 281.774C1237.85 282.051 1238.35 292.683 1237.21 286.498C1237.14 285.959 1237.13 285.018 1237.33 285.15L1236.65 284.482C1235.48 290.687 1237.42 295.652 1237.27 301.709C1237.46 299.96 1237.37 297.534 1237.86 299.144L1237.84 304.799L1237.29 303.596L1237.02 311.942L1237.69 310.728C1237.39 314.9 1236.18 316.257 1237.24 320.962C1237.8 323.111 1238.15 317.047 1238.39 321.353C1237.97 326.878 1237.36 335.093 1237.22 342.096C1237.96 341.416 1237.98 343.303 1238.13 345.322L1237.45 345.595C1238.47 352.989 1235.98 348.302 1236.79 355.698L1237.76 357.036C1239.17 363.753 1236.36 360.683 1238.26 368.069C1238.1 365.109 1239.74 366.709 1239.5 370.346L1238.81 369.411C1238.97 371.43 1239.25 372.101 1239.12 373.449C1238.77 372.239 1238.16 372.784 1238.33 375.744L1237.49 373.731L1238.77 379.241C1238.12 383.555 1239.06 390.276 1238.13 392.032C1238.13 392.032 1237.73 401.191 1238.77 403.336C1238.14 401.455 1237.92 406.577 1237.16 405.103C1237.85 407.518 1238.53 414.514 1237.81 417.348L1237.73 416.809C1237.08 427.312 1238.98 434.704 1238.11 443.996C1238.92 443.588 1238.49 448.573 1239.49 447.351C1240.6 457.037 1237.61 465.006 1240.77 468.474C1240.94 472.919 1240.07 473.734 1239.95 476.023L1239.8 474.944C1240.15 483.157 1240.17 485.578 1240.15 491.773C1240.45 494.865 1241.95 495.258 1241.66 500.776C1241.1 499.033 1241.19 501.187 1241.21 503.341C1241.13 501.994 1240.92 501.59 1240.54 504.287C1240.74 504.692 1240.82 505.225 1240.96 505.764C1240.89 505.765 1240.89 505.898 1240.82 505.899C1241.05 509.264 1241.26 508.723 1241.31 507.108C1241.38 507.241 1241.51 507.106 1241.64 506.565C1240.93 510.072 1241.8 516.527 1240.78 516.942C1241.08 527.303 1242.16 534.563 1242.64 543.175C1242.04 544.26 1241.55 542.244 1241.32 539.685L1241.58 545.878C1240.83 545.884 1241.14 542.381 1240.99 540.495C1239.9 547.779 1242.27 555.429 1241.26 563.92L1241.82 565.663L1241.76 566.203C1242.03 566.201 1242.52 568.083 1242.6 569.291C1242 570.509 1241.1 569.17 1241.21 573.477C1240.62 576.85 1241.63 582.897 1242.01 587.335C1242.13 585.046 1242.47 585.717 1242.68 586.795C1242.7 588.949 1242.1 590.162 1242.39 591.779L1241.71 592.052C1242.39 592.18 1242.51 597.7 1242.79 598.371C1242.18 599.584 1242.21 595.142 1241.73 594.612C1241.87 602.687 1241.83 598.513 1241.97 606.861C1242.63 611.297 1242.78 606.041 1243.55 608.188C1243.72 612.228 1244.37 615.99 1243.93 620.575L1244.66 619.088C1245.27 626.619 1245.24 631.061 1244.54 636.182C1251.13 682.588 1253.07 647.818 1253.07 647.818C1254.58 625.864 1252.24 614.575 1251.47 588.6C1251.68 565.716 1253.05 559.643 1252.3 535.821C1252.34 524.511 1251.89 512.403 1251.59 501.363C1250.39 496.125 1251.46 486.826 1250.46 480.64L1251.12 478.213C1250.76 476.062 1250.53 473.509 1250.85 471.352L1251.06 471.484C1250.55 468.255 1250.79 464.618 1250.51 463.14L1250.71 463.272L1250.61 459.371L1250.89 460.042C1250.3 454.526 1250.25 448.738 1250.41 443.621L1249.6 444.034C1250.38 433.257 1248.72 429.231 1249.65 419.394L1249.86 419.531C1247.64 407.16 1251.11 400 1249.03 387.228C1249.32 388.839 1249.43 386.551 1249.64 386.682C1249.38 380.763 1249.19 374.569 1247.63 374.449C1247.59 370.142 1248.07 370.945 1248.68 370.399C1248 370.405 1247.7 366.773 1247.6 363.412L1247.89 364.89L1247.6 355.336L1246.32 357.229C1246.62 352.111 1247.88 355.868 1247.49 351.029L1246.4 351.038C1246.55 344.035 1248.14 339.847 1248.83 333.112C1249.06 304.84 1246.08 274.571 1247.68 248.308L1248.49 247.087C1249.64 246.543 1246.72 239.833 1247.74 238.884L1247.16 235.794C1247.36 234.985 1247.55 233.097 1247.84 234.575C1247.88 231.747 1247.67 231.749 1247.31 229.598L1248.03 226.497C1248.48 215.317 1247.04 205.906 1247.21 194.194C1248.58 180.044 1246.99 153.542 1246.04 138.333C1244.09 116.815 1248.56 91.8687 1246.33 69.8081C1246.46 69.1335 1246.1 67.2552 1245.97 67.2564L1245.93 47.0634C1245.93 47.0634 1245.69 -34.9477 1236.48 23.7189Z" fill="#FEA273"/>
<path d="M1214.23 652.634L1215.24 652.371C1194.43 651.779 1181.49 651.649 1167.03 652.897C1164.74 651.387 1150.02 652.763 1145.2 652.238L1145.71 652.108C1133.02 653.289 1119.57 651.124 1107.39 652.175C1107.89 652.042 1108.16 651.649 1110.95 651.583C1102.06 651.779 1089.88 652.108 1089.12 651.253C1067.81 651.516 1038.11 651.057 1024.66 652.501L1025.68 652.238C1017.81 653.16 1015.53 652.371 1006.9 652.83C1006.4 652.697 1005.88 652.634 1005.88 652.634C1005.63 652.634 1005.38 652.697 1005.13 652.697C996.493 653.485 981.017 652.763 974.418 653.16L973.914 652.567L957.159 652.697L963.507 652.83C961.22 654.407 950.822 651.846 938.641 652.897C927.216 652.697 915.548 656.243 903.619 655.454C898.038 656.176 908.697 654.207 900.063 654.799C899.811 653.944 904.123 654.274 901.846 653.618C893.474 654.011 888.144 652.763 877.988 653.356L877.484 652.697C864.034 653.881 852.357 651.846 843.48 652.96C829.778 653.485 834.342 650.991 819.874 652.305L814.292 651.453C808.207 651.32 809.98 652.501 803.129 652.108C803.633 651.583 794.505 651.649 798.565 651.124C781.81 650.336 766.082 652.438 745.781 650.991C741.469 652.042 731.061 651.453 727.766 652.238C727.252 651.779 707.203 652.175 718.88 651.124C719.897 651.057 721.671 651.057 721.419 651.253L722.688 650.598C711.011 649.418 701.621 651.253 690.206 651.057C693.5 651.253 698.074 651.191 695.032 651.649L684.372 651.583L686.649 651.057L670.922 650.728L673.199 651.387C665.34 651.057 662.801 649.877 653.915 650.861C649.854 651.387 661.28 651.779 653.159 651.975C642.751 651.516 627.276 650.861 614.077 650.665C615.347 651.387 611.79 651.387 607.982 651.516L607.478 650.861C593.524 651.779 602.4 649.418 588.446 650.139L585.907 651.057C573.222 652.371 579.056 649.68 565.102 651.453C570.683 651.32 567.64 652.897 560.789 652.634L562.563 651.975C558.754 652.108 557.485 652.371 554.946 652.238C557.233 651.912 556.215 651.32 550.633 651.453L554.442 650.665L544.034 651.846C535.914 651.191 523.229 652.042 519.934 651.124C519.934 651.124 502.675 650.665 498.615 651.649C502.172 651.057 492.52 650.794 495.31 650.073C490.746 650.728 477.548 651.32 472.218 650.598L473.236 650.532C453.448 649.81 439.483 651.583 421.983 650.665C422.738 651.453 413.348 650.991 415.635 651.975C397.359 652.96 382.387 650.006 375.798 653.026C367.415 653.16 365.894 652.305 361.582 652.175L363.617 652.042C348.131 652.305 343.567 652.305 331.89 652.238C326.056 652.501 325.291 653.944 314.893 653.618C318.188 653.093 314.127 653.16 310.067 653.16C312.606 653.093 313.372 652.897 308.294 652.501C307.528 652.697 306.521 652.763 305.503 652.897C305.503 652.83 305.251 652.83 305.251 652.763C298.904 652.96 299.921 653.16 302.964 653.222C302.712 653.289 302.964 653.422 303.982 653.552C297.382 652.83 285.201 653.618 284.436 652.634C264.9 652.83 251.197 653.815 234.956 654.207C232.921 653.618 236.729 653.16 241.555 652.96L229.878 653.16C229.878 652.438 236.478 652.763 240.034 652.634C226.322 651.516 211.864 653.748 195.874 652.697L192.58 653.222L191.562 653.16C191.562 653.422 188.006 653.881 185.729 653.944C183.441 653.356 185.98 652.501 177.86 652.567C171.512 651.975 160.097 652.897 151.725 653.222C156.037 653.356 154.767 653.685 152.732 653.881C148.672 653.881 146.395 653.289 143.342 653.552L142.838 652.897C142.586 653.552 132.179 653.618 130.909 653.881C128.632 653.289 137.005 653.356 138.012 652.897C122.789 652.96 130.657 652.96 114.92 653.026C106.547 653.618 116.451 653.815 112.391 654.536C104.774 654.67 97.671 655.258 89.0365 654.799L91.8273 655.521C77.6213 656.046 69.2487 655.98 59.6067 655.258C-27.9773 661.232 37.5319 663.397 37.5319 663.397C78.8907 665.036 100.21 662.871 149.186 662.346C192.318 662.742 203.743 664.119 248.658 663.593C269.978 663.726 292.808 663.397 313.624 663.201C323.517 662.083 341.028 663.201 352.705 662.283L357.27 662.938C361.33 662.608 366.146 662.412 370.206 662.742L369.954 662.938C376.05 662.479 382.901 662.742 385.692 662.479L385.44 662.675L392.795 662.608L391.525 662.871C401.933 662.346 412.845 662.346 422.487 662.546L421.721 661.757C442.022 662.608 449.639 661.036 468.168 662.02L467.906 662.216C491.26 660.181 504.7 663.593 528.811 661.691C525.768 661.953 530.08 662.083 529.828 662.283C540.991 662.083 552.669 661.953 552.921 660.443C561.041 660.443 559.52 660.902 560.537 661.494C560.537 660.839 567.389 660.577 573.726 660.51L570.935 660.773L588.95 660.577L585.403 659.329C595.045 659.655 587.942 660.839 597.07 660.51V659.459C610.269 659.655 618.138 661.232 630.822 661.953C684.11 662.412 741.217 659.788 790.696 661.561L792.983 662.346C793.991 663.463 806.686 660.706 808.459 661.691L814.292 661.165C815.814 661.361 819.37 661.561 816.579 661.824C821.909 661.887 821.909 661.691 825.97 661.361L831.803 662.083C852.87 662.608 870.633 661.298 892.708 661.561C919.357 663.005 969.34 661.691 998.024 660.902C1038.62 659.196 1085.57 663.726 1127.19 661.757C1128.46 661.887 1132 661.561 1132 661.428L1170.07 661.561C1170.07 661.561 1324.66 662.02 1214.23 652.634Z" fill="#FEA273"/>
</svg>
