<svg width="786" height="1000" viewBox="0 0 786 1000" fill="none" xmlns="http://www.w3.org/2000/svg">
<path d="M392.858 0C288.703 0.122874 188.85 41.5525 115.201 115.201C41.5529 188.849 0.123292 288.703 0.00041796 392.857C-0.124328 477.972 27.6783 560.778 79.1433 628.571C79.1433 628.571 89.8576 642.679 91.6076 644.714L392.858 1000L694.25 644.536C695.822 642.643 706.572 628.571 706.572 628.571L706.608 628.464C758.047 560.7 785.837 477.933 785.715 392.857C785.592 288.703 744.162 188.849 670.514 115.201C596.865 41.5525 497.012 0.122874 392.858 0Z" fill="#445E93"/>
<path d="M498.484 397.766C489.768 394.01 477.909 376.76 469.625 355.879C464.068 341.794 447.535 300.246 402.647 297.148C401.735 296.969 400.855 296.85 399.885 296.856C399.423 296.867 399.008 296.891 398.546 296.902C398.131 296.927 397.698 296.844 397.236 296.854C396.266 296.861 395.36 296.989 394.487 297.178C349.607 300.446 333.052 342.077 327.507 356.149C319.223 377.065 307.385 394.339 298.702 398.178C261.452 414.439 239.133 453.631 244.407 493.542C249.243 530.109 275.838 556.331 313.819 561.983C318.252 562.637 322.739 562.951 327.22 562.958C339.414 562.899 351.65 560.41 363.13 555.6C368.182 553.442 372.706 551.018 377.075 548.598C384.673 544.475 391.329 540.927 398.564 540.103C405.803 540.909 412.497 544.45 420.095 548.523C424.456 550.886 428.987 553.352 434.05 555.422C445.544 560.239 457.728 562.671 469.954 562.674C474.449 562.634 478.924 562.334 483.375 561.619C521.335 555.86 547.954 529.551 552.757 492.951C557.984 453.02 535.649 413.908 498.484 397.766Z" fill="white"/>
<path d="M282.514 331.97C277.301 295.792 250.346 268.592 219.858 268.662C217.41 268.67 214.904 268.865 212.509 269.196C179.578 274.011 157.439 310.003 163.166 349.445C168.394 385.576 195.334 412.822 225.822 412.753C228.27 412.744 230.776 412.549 233.172 412.219C266.116 407.357 288.255 371.365 282.514 331.97Z" fill="white"/>
<path d="M321.253 287.26C354.482 287.221 381.544 254.732 381.537 214.915C381.545 175.052 354.467 142.671 321.223 142.755C287.932 142.826 260.932 175.283 260.924 215.147C260.931 254.964 287.962 287.331 321.253 287.26Z" fill="white"/>
<path d="M619.245 292.925C608.801 277.841 593.881 268.964 577.259 267.861C543.967 265.64 514.852 296.376 512.175 335.976C510.898 354.675 515.6 372.825 525.47 386.967C535.914 402.051 550.82 410.974 567.457 412.031C568.598 412.128 569.801 412.194 570.939 412.137C602.891 412.112 629.942 382.115 632.541 343.916C633.771 325.202 629.101 307.114 619.245 292.925Z" fill="white"/>
<path d="M473.992 286.963C507.283 286.892 534.33 254.449 534.291 214.572C534.285 174.755 507.254 142.388 474.024 142.427C440.733 142.498 413.672 174.987 413.678 214.804C413.67 254.667 440.762 287.001 473.992 286.963Z" fill="white"/>
</svg>
