<svg width="786" height="1000" viewBox="0 0 786 1000" fill="none" xmlns="http://www.w3.org/2000/svg">
<path d="M392.858 0C288.703 0.122874 188.85 41.5525 115.201 115.201C41.5529 188.849 0.123292 288.703 0.00041796 392.857C-0.124328 477.972 27.6783 560.778 79.1433 628.571C79.1433 628.571 89.8576 642.679 91.6076 644.714L392.858 1000L694.25 644.536C695.822 642.643 706.572 628.571 706.572 628.571L706.608 628.464C758.047 560.7 785.837 477.933 785.715 392.857C785.592 288.703 744.162 188.849 670.514 115.201C596.865 41.5525 497.012 0.122874 392.858 0Z" fill="#FF8B82"/>
<path fill-rule="evenodd" clip-rule="evenodd" d="M392.494 193.097L576.878 377.481V506.765C576.878 518.991 572.022 530.716 563.377 539.36C554.732 548.005 543.008 552.862 530.782 552.862H254.205C241.98 552.862 230.255 548.005 221.611 539.36C212.966 530.716 208.109 518.991 208.109 506.765V377.481L392.494 193.097Z" fill="white"/>
<path fill-rule="evenodd" clip-rule="evenodd" d="M370.773 137.998C376.536 132.236 384.351 129 392.5 129C400.649 129 408.464 132.236 414.227 137.998L618.494 342.234C621.379 345.119 623 349.032 623 353.113C623 357.193 621.379 361.106 618.494 363.991C615.609 366.877 611.696 368.498 607.615 368.498C603.535 368.498 599.622 366.877 596.737 363.991L392.5 159.724L188.263 363.991C185.378 366.877 181.465 368.498 177.385 368.498C173.304 368.498 169.391 366.877 166.506 363.991C163.621 361.106 162 357.193 162 353.113C162 349.032 163.621 345.119 166.506 342.234L370.773 137.998Z" fill="white"/>
</svg>
