<svg width="428" height="220" viewBox="0 0 428 220" fill="none" xmlns="http://www.w3.org/2000/svg">
<path d="M210.27 0.498114C184.546 0.498114 158.236 2.08193 133.307 4.71633C89.8008 9.31126 53.4235 17.875 35.167 36.2229C31.9446 39.4675 29.2273 42.7996 26.7566 46.1636C12.2032 65.9759 4.00228 86.624 1.4884 107.375C-1.63547 133.184 4.48287 159.856 31.581 182.921C44.0888 193.568 61.6552 203.553 86.0176 209.247C110.701 215.014 139.783 215.855 167.83 216.574C203.431 217.484 239.026 218.397 274.626 219.307C290.431 219.71 306.845 220.073 321.503 217.5C336.401 214.884 347.283 209.576 355.785 203.866C364.368 198.107 373.321 191.96 380.4 185.871C388.164 179.199 397.911 173.272 403.925 166.163C410.302 158.623 414.208 150.728 416.673 142.787C421.189 128.225 421.035 113.475 423.82 98.8356C426.716 83.6314 432.551 67.7216 419.267 53.576C411.22 45.0122 396.636 37.8147 379.969 31.9888C352.23 22.2922 319.377 15.9516 288.49 8.40926C266.37 3.00517 235.748 0.102822 210.27 0.498114Z" fill="#F3F3F3"/>
</svg>
