<svg width="564" height="286" viewBox="0 0 564 286" fill="none" xmlns="http://www.w3.org/2000/svg">
<path d="M216.168 89.181C216.573 87.2034 216.227 84.7463 217.662 83.3185C222.501 78.4628 225.809 72.2832 229.947 66.8445C231.526 64.7766 233.193 63.9322 235.208 66.1688C236.771 67.9376 235.776 69.4948 235.008 71.1944C232.424 76.8961 227.071 79.9308 224.009 85.2187C222.784 87.3063 221.502 89.5732 219.421 90.809C217.912 91.7171 216.588 91.5163 216.168 89.181Z" fill="#FABF4B"/>
<path d="M130.607 258.34C126.66 269.007 117.615 272.699 109.813 277.993C107.534 279.531 105.508 278.123 104.468 276.094C103.449 274.118 105.008 272.438 106.602 271.769C114.275 268.443 120.714 262.766 127.783 258.321C128.547 257.842 129.308 257.573 130.607 258.34Z" fill="#FABF4B"/>
<path d="M76.533 275.24C78.8281 275.078 81.1533 274.813 83.4641 274.834C85.3302 274.881 86.5538 275.881 86.7146 278.28C86.8842 280.523 86.1796 281.78 84.1936 282.35C79.2295 283.822 74.2314 283.816 69.2013 282.816C67.7429 282.502 66.3268 281.701 66.2658 279.675C66.2082 277.617 67.5024 276.753 69.033 276.473C71.5271 276.035 74.037 275.78 76.5487 275.422C76.5517 275.369 76.5301 275.293 76.533 275.24Z" fill="#FABF4B"/>
<path d="M248.507 47.8326C248.48 46.6879 249.041 45.4736 249.812 44.3442C252.759 40.0922 256.441 36.7567 260.127 33.3766C262.089 31.5862 263.863 31.6798 265.546 33.9498C267.518 36.6552 266.089 38.0027 264.158 39.5118C260.907 42.0099 257.608 44.4777 255.199 48.1129C254.129 49.7429 252.561 50.3848 250.772 50.1844C249.703 50.0499 248.742 49.5567 248.507 47.8326Z" fill="#FABF4B"/>
<path d="M47.4487 275.287C42.63 276.016 37.9488 274.417 33.157 273.898C32.5536 273.812 31.9345 273.548 31.4131 273.153C30.0521 272.097 28.2527 270.988 28.5887 268.953C28.9842 266.69 31.1333 266.647 32.7135 266.839C37.694 267.367 42.6301 268.28 47.6082 268.884C49.8635 269.138 51.1602 269.985 50.9589 272.725C50.7889 275.233 49.4815 275.839 47.4487 275.287Z" fill="#FABF4B"/>
<path d="M508.307 84.4986C507.139 84.464 506.088 84.4584 505.039 84.3769C503.737 84.2514 502.392 83.9709 502.255 82.1734C502.131 80.585 502.099 78.9993 504.067 78.3271C508.066 76.9592 512.012 75.2982 515.994 73.8772C517.699 73.2949 519.276 73.5084 520.538 75.2656C522.177 77.5366 522.593 79.4756 519.627 80.5643C515.857 81.999 512.023 83.221 508.307 84.4986Z" fill="#FABF4B"/>
<path d="M322.595 5.11239C327.207 6.63372 332.88 6.13252 338.515 6.67063C339.467 6.74965 340.416 7.63105 341.251 8.30075C342.136 9.02296 342.744 10.1207 342.276 11.3424C341.937 12.2317 340.968 12.514 340.108 12.4421C333.817 12.0018 327.527 11.557 321.245 10.9338C319.617 10.7702 317.49 10.1352 317.656 7.80969C317.838 5.53286 319.943 5.46405 322.595 5.11239Z" fill="#FABF4B"/>
<path d="M159.056 229.059C158.935 229.779 158.866 230.97 158.588 232.071C157.041 238.091 153.043 242.315 149.546 246.849C148.588 248.071 146.867 249.639 145.165 247.806C143.438 245.924 144.842 244.702 146.067 243.234C149.775 238.762 152.139 233.283 154.731 227.969C155.393 226.606 155.359 224.499 157.482 225.16C159.031 225.606 158.896 227.262 159.056 229.059Z" fill="#FABF4B"/>
<path d="M186.277 153.636C186.532 160.114 184.159 165.748 183.015 171.63C182.669 173.353 181.486 173.755 180.085 173.106C178.527 172.402 176.758 171.604 177.674 169.113C179.506 164.095 179.862 158.714 181.001 153.532C181.398 151.764 181.467 149.432 183.749 149.605C185.962 149.779 185.774 152.18 186.277 153.636Z" fill="#FABF4B"/>
<path d="M472.173 84.9226C467.474 84.4107 462.801 84.4196 458.35 82.9312C456.161 82.1908 454.539 80.7037 455.658 77.7268C456.601 75.1545 458.23 75.9685 459.807 76.8059C463.171 78.5433 466.82 77.882 470.323 78.5115C470.741 78.5878 471.164 78.4813 471.588 78.4015C474.199 77.9704 476.573 78.7473 476.777 81.9249C477.026 85.6766 473.573 83.7271 472.173 84.9226Z" fill="#FABF4B"/>
<path d="M194.417 127.52C194.934 121.526 197.179 116.143 200.274 111.118C200.997 109.962 201.987 109.755 202.985 110.484C204.259 111.412 205.666 112.992 205.094 114.439C203.045 119.626 202.085 125.518 198.233 129.596C196.526 131.448 194.606 130.333 194.417 127.52Z" fill="#FABF4B"/>
<path d="M-7.66311 248.163C-7.36593 246.593 -6.52625 245.471 -5.06497 246.328C-0.13624 249.268 4.96733 251.929 8.9459 256.479C10.0175 257.705 10.2903 259.691 9.35053 261.02C8.18513 262.696 6.55236 261.49 5.51464 260.553C1.79255 257.183 -3.07265 255.601 -6.09903 251.13C-6.71577 250.184 -7.50141 249.416 -7.66311 248.163Z" fill="#FABF4B"/>
<path d="M288.356 12.5688C291.022 11.9049 293.656 10.8272 296.132 13.2731C298.064 15.1907 297.963 17.1089 295.464 17.7026C291.005 18.7856 286.412 19.1628 281.945 20.451C280.55 20.8711 278.34 20.6747 277.925 18.2098C277.583 16.1668 279.309 15.6376 280.49 14.7405C282.897 12.95 285.738 13.205 288.356 12.5688Z" fill="#FABF4B"/>
<path d="M422.338 54.9357C424.147 54.7212 433.641 61.4866 434.173 63.4098C434.848 65.8336 433.766 67.2544 431.721 66.9122C427.753 66.2342 424.093 64.3469 421.32 61.1363C419.309 58.8462 420.181 55.1571 422.338 54.9357Z" fill="#FABF4B"/>
<path d="M391.421 26.9543C391.573 25.3783 391.879 24.2271 392.928 23.7159C394.091 23.1535 395.434 22.9127 396.437 24.109C399.45 27.698 402.414 31.2835 405.328 34.9457C405.974 35.7838 406.603 36.9342 405.905 38.1156C405.179 39.2975 404.006 38.822 403.008 38.6637C401.5 38.4533 399.914 37.7944 399.197 36.4587C397.63 33.5448 395.25 31.6765 393.116 29.4868C392.379 28.7219 391.884 27.6535 391.421 26.9543Z" fill="#FABF4B"/>
<path d="M549.802 62.5603C548.209 62.6858 546.65 63.1448 545.739 61.3583C544.895 59.7043 545.425 58.1207 546.61 57.0186C549.109 54.6604 551.332 51.6883 554.942 51.313C556.467 51.1621 557.905 51.4719 558.678 53.1987C559.427 54.9038 558.969 56.4592 557.711 57.536C555.267 59.6391 552.754 61.7347 549.802 62.5603Z" fill="#FABF4B"/>
<path d="M369.5 19.4462C364.046 19.698 360.24 17.3368 356.424 15.1094C354.667 14.1063 353.286 12.4184 354.546 10.076C355.558 8.15747 357.475 8.12799 358.948 9.19467C362.628 11.857 367.385 13.2545 369.5 19.4462Z" fill="#FABF4B"/>
<path d="M171.783 190.392C175.275 197.095 173.001 202.656 171.216 208.195C170.922 209.114 169.913 209.215 169.036 209.036C167.252 208.684 167.206 206.809 167.53 205.765C169.05 201.016 168.629 195.673 171.783 190.392Z" fill="#FABF4B"/>
</svg>
