<svg width="658" height="472" viewBox="0 0 658 472" fill="none" xmlns="http://www.w3.org/2000/svg">
<path d="M267.749 200.824C267.446 198.828 266.271 196.639 267.124 194.805C269.985 188.584 270.952 181.645 272.954 175.117C273.72 172.633 274.992 171.268 277.655 172.677C279.734 173.802 279.338 175.606 279.206 177.466C278.753 183.708 274.78 188.395 273.736 194.412C273.308 196.793 272.889 199.362 271.365 201.237C270.262 202.608 268.951 202.874 267.749 200.824Z" fill="#FABF4B"/>
<path d="M245.804 389.037C245.789 400.413 238.577 406.987 233.086 414.638C231.48 416.865 229.092 416.238 227.415 414.689C225.775 413.182 226.657 411.069 227.922 409.893C233.972 404.134 238.051 396.592 243.148 389.989C243.699 389.277 244.32 388.763 245.804 389.037Z" fill="#FABF4B"/>
<path d="M200.884 423.485C202.982 422.544 205.073 421.497 207.249 420.723C209.017 420.127 210.511 420.647 211.492 422.846C212.426 424.895 212.2 426.318 210.533 427.536C206.383 430.623 201.69 432.333 196.623 433.12C195.146 433.326 193.54 433.06 192.782 431.176C192.016 429.263 192.932 428.007 194.272 427.218C196.461 425.951 198.729 424.849 200.962 423.65C200.946 423.599 200.9 423.536 200.884 423.485Z" fill="#FABF4B"/>
<path d="M283.831 150.894C283.41 149.828 283.516 148.495 283.85 147.169C285.144 142.164 287.446 137.767 289.735 133.327C290.956 130.972 292.654 130.451 295.017 132.006C297.803 133.871 296.928 135.627 295.639 137.707C293.452 141.169 291.21 144.619 290.207 148.861C289.766 150.759 288.518 151.9 286.77 152.326C285.72 152.566 284.648 152.433 283.831 150.894Z" fill="#FABF4B"/>
<path d="M173.598 433.536C169.328 435.876 164.381 435.98 159.704 437.138C159.108 437.264 158.436 437.228 157.81 437.036C156.168 436.512 154.095 436.087 153.707 434.06C153.296 431.798 155.298 431.02 156.847 430.657C161.704 429.444 166.653 428.607 171.534 427.465C173.738 426.929 175.248 427.28 176.007 429.924C176.715 432.339 175.697 433.357 173.598 433.536Z" fill="#FABF4B"/>
<path d="M540.386 96.0297C539.278 96.3981 538.29 96.7535 537.278 97.0369C536.012 97.366 534.653 97.5642 533.903 95.9222C533.237 94.4725 532.658 92.9936 534.273 91.6865C537.553 89.0284 540.681 86.1136 543.927 83.4114C545.326 82.2791 546.879 81.9386 548.672 83.156C550.995 84.7274 552.056 86.4064 549.649 88.4475C546.607 91.0894 543.432 93.5536 540.386 96.0297Z" fill="#FABF4B"/>
<path d="M338.627 85.3197C343.481 85.1654 348.633 82.7461 354.108 81.3167C355.029 81.0639 356.224 81.5664 357.24 81.9086C358.32 82.2832 359.27 83.1059 359.253 84.4147C359.242 85.3667 358.43 85.9648 357.598 86.1924C351.542 87.9389 345.484 89.6813 339.372 91.2531C337.788 91.6584 335.572 91.7921 334.923 89.5503C334.308 87.3483 336.259 86.5609 338.627 85.3197Z" fill="#FABF4B"/>
<path d="M262.406 351.773C262.54 352.49 262.888 353.632 263.008 354.763C263.638 360.947 261.348 366.285 259.634 371.745C259.158 373.221 258.085 375.284 255.855 374.146C253.585 372.971 254.479 371.342 255.121 369.543C257.054 364.07 257.377 358.113 257.971 352.233C258.121 350.726 257.36 348.759 259.581 348.651C261.188 348.539 261.634 350.14 262.406 351.773Z" fill="#FABF4B"/>
<path d="M261.923 271.612C264.401 277.608 264.123 283.713 265.083 289.629C265.353 291.365 264.383 292.149 262.845 292.02C261.14 291.894 259.205 291.751 259.204 289.098C259.187 283.757 257.662 278.582 256.939 273.325C256.701 271.528 255.96 269.315 258.159 268.694C260.295 268.098 260.949 270.418 261.923 271.612Z" fill="#FABF4B"/>
<path d="M506.606 108.849C502.018 109.981 497.636 111.594 492.944 111.723C490.634 111.779 488.597 110.939 488.618 107.757C488.613 105.017 490.423 105.222 492.193 105.468C495.951 105.945 499.147 104.071 502.652 103.46C503.071 103.388 503.432 103.143 503.802 102.922C506.103 101.621 508.599 101.536 509.89 104.452C511.421 107.892 507.506 107.245 506.606 108.849Z" fill="#FABF4B"/>
<path d="M260.562 244.294C258.975 238.487 259.22 232.661 260.386 226.88C260.665 225.547 261.522 225.013 262.71 225.355C264.226 225.789 266.092 226.79 266.055 228.345C265.927 233.919 267.063 239.782 264.859 244.934C263.898 247.259 261.712 246.87 260.562 244.294Z" fill="#FABF4B"/>
<path d="M112.495 426.998C112.231 425.421 112.631 424.079 114.298 424.383C119.94 425.454 125.648 426.202 130.954 429.111C132.384 429.895 133.327 431.667 132.904 433.238C132.391 435.213 130.442 434.64 129.144 434.116C124.486 432.227 119.374 432.41 114.989 429.249C114.083 428.572 113.08 428.12 112.495 426.998Z" fill="#FABF4B"/>
<path d="M309.056 104.089C311.328 102.55 313.427 100.633 316.597 102.081C319.073 103.22 319.641 105.057 317.501 106.473C313.692 109.022 309.511 110.953 305.765 113.697C304.601 114.57 302.458 115.145 301.217 112.971C300.189 111.169 301.626 110.079 302.424 108.83C304.064 106.322 306.818 105.586 309.056 104.089Z" fill="#FABF4B"/>
<path d="M449.466 97.8151C451.089 96.993 462.337 100.09 463.502 101.714C464.973 103.76 464.449 105.466 462.412 105.846C458.454 106.571 454.367 106.054 450.656 103.989C447.976 102.528 447.519 98.7635 449.466 97.8151Z" fill="#FABF4B"/>
<path d="M410.784 82.1697C410.382 80.6369 410.271 79.4506 411.078 78.6107C411.976 77.683 413.152 76.9961 414.507 77.7757C418.574 80.1132 422.595 82.464 426.595 84.9042C427.492 85.4696 428.479 86.3343 428.233 87.6836C427.96 89.043 426.696 88.9988 425.705 89.1925C424.217 89.5125 422.501 89.4376 421.367 88.4289C418.889 86.2295 416.01 85.2913 413.251 83.9667C412.294 83.5012 411.461 82.6674 410.784 82.1697Z" fill="#FABF4B"/>
<path d="M571.767 61.1716C570.315 61.8365 569.011 62.8027 567.539 61.437C566.175 60.1726 566.124 58.5032 566.855 57.0612C568.385 53.9881 569.442 50.4335 572.7 48.8419C574.079 48.1768 575.535 47.9743 576.858 49.3312C578.15 50.6761 578.258 52.2944 577.45 53.7376C575.884 56.5522 574.251 59.3832 571.767 61.1716Z" fill="#FABF4B"/>
<path d="M80.6963 406.564C80.5125 404.478 78.8277 402.689 80.3889 401.073C82.2292 399.181 83.3654 401.327 84.6284 402.434C87.3554 404.799 90.3423 406.761 92.7888 409.541C94.0434 411.001 94.4352 412.508 93.4465 413.84C92.6233 414.934 91.12 414.686 89.9506 413.797C86.7969 411.397 83.6845 408.904 80.6963 406.564Z" fill="#FABF4B"/>
<path d="M66.5176 369.645C67.8091 372.342 67.7637 375.612 70.2038 377.849C70.8956 378.474 70.9755 379.701 70.1913 380.236C69.5508 380.676 68.5983 380.912 67.8182 380.775C63.9609 380.137 59.1982 371.94 60.3607 368.03C60.7874 366.625 61.6082 365.613 63.0716 365.737C65.1925 365.927 65.594 368.086 66.5176 369.645Z" fill="#FABF4B"/>
<path d="M387.61 82.6692C382.579 84.7776 378.191 83.8656 373.841 83.0825C371.845 82.7432 369.965 81.6317 370.337 78.9987C370.624 76.8489 372.412 76.1634 374.164 76.6598C378.537 77.898 383.484 77.5782 387.61 82.6692Z" fill="#FABF4B"/>
<path d="M261.009 311.095C266.601 316.19 266.389 322.193 266.629 328.006C266.671 328.971 265.759 329.411 264.874 329.545C263.08 329.826 262.389 328.082 262.331 326.99C262.116 322.008 259.876 317.136 261.009 311.095Z" fill="#FABF4B"/>
</svg>
