<svg width="223" height="299" viewBox="0 0 223 299" fill="none" xmlns="http://www.w3.org/2000/svg">
<ellipse cx="151.981" cy="291.088" rx="70.9792" ry="7.37143" fill="#7D7D7D"/>
<path d="M48.5965 72.2293C48.5965 72.2293 45.7314 67.3522 47.2534 63.1285C47.8103 61.5825 48.6437 59.9525 49.4771 58.5057C50.3652 56.9647 50.8719 57.3182 51.5766 58.9558C52.125 60.2297 53.3236 61.6105 53.5723 62.531C54.3433 65.3815 55.1644 67.2963 53.1745 69.9027C51.1851 72.5116 48.5965 72.2293 48.5965 72.2293" fill="black"/>
<path d="M37.2249 112.7C37.2249 112.7 34.7323 126.187 22.0838 132.837C22.0838 132.837 19.7774 133.391 19.2575 134.624C18.7401 135.858 15.8526 144.663 14.298 144.645C11.4997 144.615 12.514 139.738 13.1766 137.172C13.6455 135.367 13.7934 130.574 14.3668 129.869C14.9377 129.165 18.1973 123.909 16.8389 120.771C15.4805 117.636 15.1492 110.056 22.9274 107.335C30.7031 104.614 37.2249 112.7 37.2249 112.7" fill="#F2CCAA"/>
<path d="M15.4671 139.51C15.4671 139.51 19.504 140.718 19.5601 142.129C19.6161 143.541 18.9459 144.7 18.9459 144.7L13.9099 144.647L15.4671 139.51Z" fill="#F2CCAA"/>
<path d="M189.553 269.598C189.553 269.598 194.451 274.13 193.495 277.346C192.539 280.566 188.119 282.712 187.522 286.643C186.925 290.577 184.535 292.723 182.385 292.723C180.235 292.723 172.134 292.723 172.134 292.723C172.134 292.723 170.551 289.954 174.374 289.12C178.196 288.285 179.638 283.665 179.399 279.373C179.16 275.083 179.757 269.362 179.757 269.362L187.88 267.455L189.553 269.598" fill="#2C3A64"/>
<path d="M129.464 281.341C129.464 281.341 130.606 291.65 128.455 292.723H100.724C100.724 292.723 100.673 289.448 105.095 288.733C109.514 288.016 117.28 285.394 118.592 279.553C119.907 273.713 129.464 281.341 129.464 281.341Z" fill="#2C3A64"/>
<path d="M106.231 135.738C106.231 135.738 107.682 153.807 109.389 175.525C111.706 205.028 114.494 241.268 114.772 248.134C115.248 260.054 117.162 279.123 117.162 279.123C117.162 279.123 121.699 283.654 130.779 281.744C130.779 281.744 138.871 254.521 141.183 225.719C141.219 225.249 141.255 224.773 141.291 224.298C143.441 194.977 146.785 133.236 146.785 133.236L106.231 135.738" fill="#35488B"/>
<path d="M106.231 135.737C106.231 135.737 107.682 153.806 109.389 175.524L141.183 225.719C141.219 225.248 141.255 224.773 141.291 224.297C143.441 194.976 146.785 133.235 146.785 133.235L106.231 135.737" fill="#2C3A64"/>
<path d="M112.859 137.884C112.859 137.884 139.022 203.32 156.224 234.07C173.427 264.819 178.802 273.401 178.802 273.401C178.802 273.401 188.658 269.47 189.554 266.788C189.554 266.788 182.975 207.421 171.455 192.95C164.946 184.773 157.299 160.232 156.941 151.65C156.582 143.068 154.611 126.083 154.611 126.083L112.859 137.884" fill="#35488B"/>
<path d="M36.0495 109.436C34.3981 106.474 34.5281 105.922 34.5281 105.922C34.5281 105.922 59.5549 84.9239 61.8155 82.8515C64.0786 80.7792 86.7965 43.8706 86.7965 43.8706L118.309 45.9201C118.309 45.9201 79.4184 90.4952 73.5873 95.6341C63.9486 104.125 39.3703 112.869 39.3703 112.869C39.3703 112.869 37.3467 111.763 36.0495 109.436" fill="#2F567A"/>
<path d="M101.334 34.8672C101.334 34.8672 90.6604 53.6076 80.2265 56.0537C80.2265 56.0537 80.5451 51.4487 82.2246 47.4235C82.7624 46.1368 82.5203 44.657 81.6385 43.5737C81.2179 43.0576 80.8229 42.5642 80.4559 42.0964C77.8309 38.7399 76.5821 36.6828 76.5821 36.6828L80.1221 27.1855L82.5253 20.7421C83.6798 22.8323 84.9516 24.6147 86.2794 26.1404C93.1172 33.9823 101.334 34.8672 101.334 34.8672" fill="#FFB27D"/>
<path d="M86.2789 26.1397C86.2789 26.1397 87.5532 35.5277 80.4555 42.0957C77.8304 38.7392 76.5816 36.6821 76.5816 36.6821L80.1216 27.1848C83.919 26.0304 86.2789 26.1397 86.2789 26.1397Z" fill="#ED975D"/>
<path d="M73.768 38.0687C73.768 38.0687 89.7169 31.8643 85.6927 22.0162C81.666 12.1655 81.0136 4.73045 70.6613 8.27507C60.3091 11.8197 59.8784 16.3763 60.4212 19.9921C60.9615 23.6054 69.5144 39.4291 73.768 38.0687" fill="#FFB27D"/>
<path d="M156.157 131.028C149.722 140.259 101.619 152.589 102.19 146.201C102.409 143.758 102.702 139.445 102.185 133.602C102.062 132.231 101.894 130.782 101.673 129.248C100.449 120.855 97.5464 110.061 91.073 97.5679C90.5888 96.6322 90.0817 95.6888 89.5592 94.7327C86.8934 89.8963 84.6226 84.7828 82.8871 79.7811C79.5561 70.172 78.213 60.9798 79.895 54.9687C79.9001 54.9381 81.465 48.6193 81.4752 48.5914C91.5292 43.9508 93.8714 32.254 93.8714 32.254C93.8714 32.254 128.178 38.3973 147.393 84.02C147.393 84.02 161.755 122.996 156.157 131.028" fill="#F99746"/>
<path d="M102.185 133.602C102.063 132.231 101.894 130.782 101.673 129.248C100.449 120.855 97.5465 110.06 91.0732 97.5677C92.1844 90.8445 93.7186 85.253 95.4032 82.7381C102.246 72.5059 106.229 70.9065 106.229 70.9065C106.229 70.9065 116.49 114.078 102.185 133.602" fill="#2F567A"/>
<path d="M87.9817 3.71748C88.0938 3.49625 88.4175 3.25977 89.2101 3.01821C89.2101 3.01821 88.4684 2.77156 87.6045 2.95973C87.1559 1.86887 86.0677 0.0126241 84.0263 -8.98153e-05C84.0263 -8.98153e-05 85.1961 0.302512 85.6293 1.4722C82.831 -0.297586 77.6447 -0.81122 64.7006 3.49118C47.6405 9.16161 56.1629 19.0429 58.7497 19.8362C61.3339 20.627 66.0946 15.544 70.3762 14.8498C74.6578 14.1556 76.9745 20.1058 78.6055 20.5991C80.2392 21.0924 79.3115 19.7396 81.019 18.3818C82.7291 17.0264 83.7103 20.2176 83.6746 22.4578C83.6364 24.698 86.9699 26.8213 86.9699 26.8213C86.9699 26.8213 86.9699 26.8213 88.9246 23.2436C90.8794 19.6659 90.3467 6.67984 88.4786 4.34302C88.3155 4.13705 88.1499 3.92598 87.9817 3.71748" fill="#FF8B82"/>
<path d="M74.3087 31.218C74.3087 31.218 74.2603 32.8149 73.6945 33.3336C73.1313 33.8498 71.0109 34.7424 70.491 34.6025C69.9736 34.4627 68.8905 33.6159 68.8905 33.6159C68.8905 33.6159 72.0456 31.5003 74.3087 31.218" fill="white"/>
<path d="M61.2523 85.9092C61.2523 85.9092 75.0426 89.9217 83.5369 86.8424C83.5369 86.8424 86.6793 81.9908 88.4047 83.1427C90.1301 84.2971 89.4521 88.2943 86.1874 90.4099C82.9227 92.5255 65.1057 97.5525 63.941 97.0847C62.7789 96.6143 61.2523 85.9092 61.2523 85.9092Z" fill="#F2CCAA"/>
<path d="M64.9372 73.0017C64.9372 73.0017 62.1618 77.7771 63.0767 82.4304C63.8413 86.303 67.6845 92.716 65.6559 97.8702C63.6298 103.024 47.2094 107.121 43.0323 111.703C38.8526 116.282 21.446 124.31 18.4107 118.657C14.9038 112.12 13.6678 102.778 27.6645 96.1614C39.1559 90.73 54.6971 69.2817 54.6971 69.2817L64.9372 73.0017" fill="#F9DDBF"/>
<path d="M48.3771 63.5197C48.3771 63.5197 52.9875 60.5142 56.6549 61.5033C60.3222 62.4899 65.032 56.8118 67.3104 58.7876C69.5863 60.7634 72.0839 66.2151 66.7497 71.5194C61.4181 76.8237 56.9683 79.8216 53.1226 78.1205C49.2768 76.4168 44.0599 65.404 48.3771 63.5197" fill="#F9DDBF"/>
<path d="M54.2237 91.0777C54.2237 91.0777 72.6115 102.35 74.4618 102.607C76.312 102.861 78.7357 100.219 80.3362 102.383C81.9341 104.549 76.8447 107.751 74.9256 108.516C73.0065 109.282 52.562 103.832 52.562 103.832L54.2237 91.0777" fill="#F9DDBF"/>
<path d="M37.8163 109.635C37.8163 109.635 38.8867 123.308 28.3765 132.978C28.3765 132.978 26.2917 134.11 26.1057 135.432C25.9222 136.757 26.1618 144.461 23.1697 144.683C20.3765 144.889 20.9066 142.104 20.8888 139.457C20.8735 137.591 19.7827 132.922 20.1522 132.093C20.5243 131.267 22.3185 125.35 20.1981 122.667C18.0777 119.985 15.8018 112.745 22.6167 108.12C29.429 103.495 37.8163 109.635 37.8163 109.635" fill="#F9DDBF"/>
<path d="M62.8937 80.5464C62.8937 80.5464 55.378 83.29 46.1573 79.2903C46.1573 79.2903 43.6521 81.4567 43.8687 82.4814C43.8687 82.4814 54.5192 87.3559 63.4671 83.913C63.4671 83.913 65.2256 82.0466 62.8937 80.5464Z" fill="#35488B"/>
<path d="M45.5863 110.98C45.4028 109.137 47.3397 107.176 47.3397 107.176C47.3397 107.176 75.1037 99.5556 77.4 97.2417C79.6988 94.9277 90.3442 58.0905 90.3442 58.0905C90.3442 58.0905 94.0064 43.1797 102.587 41.537C110.042 40.108 115.195 43.7874 118.567 48.1025C122.583 53.244 122.978 60.3333 119.642 65.9401C112.157 78.5243 97.0596 103.505 92.6506 107.771C82.8361 117.269 47.3779 115.311 47.3779 115.311C47.3779 115.311 45.9533 114.68 45.5863 110.98Z" fill="#F99746"/>
<path d="M24.3847 139.527C24.3847 139.527 28.4344 140.694 28.5058 142.103C28.5771 143.514 27.9196 144.682 27.9196 144.682H22.8811L24.3847 139.527Z" fill="#F9DDBF"/>
<path d="M56.0508 63.8601C56.242 63.6946 56.5117 63.6685 56.7863 63.712C56.8353 63.7033 56.8942 63.7033 56.9579 63.7251C57.1099 63.7686 57.2717 63.834 57.409 63.9167C57.4335 63.9298 57.4581 63.9428 57.4826 63.9516C57.5365 63.982 57.5757 64.0169 57.6003 64.0561C57.7474 64.1998 57.8258 64.3783 57.7719 64.6135C57.6395 65.1404 56.953 65.0882 56.5264 64.9096C56.1096 64.7354 55.6094 64.2433 56.0508 63.8601ZM57.0216 64.4175C56.9432 64.3827 56.8647 64.3522 56.7814 64.3348C56.7912 64.3435 56.801 64.3478 56.8059 64.3478C56.8696 64.3827 56.9432 64.4045 57.0216 64.4175Z" fill="black"/>
<path d="M72.7267 22.0056C72.9757 21.96 73.2213 22.0742 73.4356 22.2509C73.4823 22.2683 73.533 22.2981 73.5768 22.3492C73.6855 22.4638 73.7916 22.6021 73.8677 22.743C73.8822 22.7666 73.8966 22.7903 73.9133 22.8102C73.9443 22.8638 73.9603 22.9137 73.9614 22.9599C74.0149 23.1583 73.9916 23.3519 73.8253 23.5271C73.4429 23.9139 72.8782 23.5208 72.6017 23.1508C72.3315 22.7894 72.1514 22.112 72.7267 22.0056ZM73.279 22.978C73.2291 22.9082 73.1771 22.8421 73.1142 22.7849C73.1182 22.7973 73.1244 22.8061 73.1286 22.8086C73.1658 22.8709 73.218 22.9269 73.279 22.978Z" fill="black"/>
<path d="M64.6437 25.4841C64.8927 25.4385 65.1383 25.5527 65.3526 25.7294C65.3992 25.7468 65.4499 25.7766 65.4937 25.8277C65.6025 25.9423 65.7086 26.0806 65.7847 26.2215C65.7991 26.2452 65.8136 26.2688 65.8303 26.2888C65.8612 26.3424 65.8772 26.3923 65.8784 26.4385C65.9319 26.6368 65.9085 26.8304 65.7422 27.0057C65.3598 27.3925 64.7952 26.9994 64.5187 26.6293C64.2485 26.2679 64.0684 25.5904 64.6437 25.4841ZM65.1959 26.4565C65.1461 26.3867 65.094 26.3207 65.0311 26.2634C65.0351 26.2759 65.0414 26.2846 65.0456 26.2871C65.0827 26.3494 65.135 26.4055 65.1959 26.4565Z" fill="black"/>
<path d="M37.2253 112.701C37.2253 112.701 34.7328 126.188 22.0843 132.838C22.0843 132.838 19.7779 133.392 19.2579 134.625C18.7406 135.859 15.8531 144.664 14.2984 144.646C11.5001 144.616 12.5145 139.739 13.1771 137.173C13.646 135.368 13.7938 130.575 14.3673 129.87C14.9381 129.166 18.1977 123.91 16.8394 120.772C15.481 117.637 15.1497 110.057 22.9279 107.336C30.7035 104.615 37.2253 112.701 37.2253 112.701" fill="black"/>
<path d="M15.4679 139.51C15.4679 139.51 19.5048 140.718 19.5609 142.129C19.6169 143.541 18.9467 144.7 18.9467 144.7L13.9107 144.647L15.4679 139.51Z" fill="black"/>
<path d="M189.554 269.597C189.554 269.597 194.451 274.129 193.496 277.345C192.54 280.565 188.12 282.711 187.523 286.642C186.926 290.576 184.536 292.722 182.386 292.722C180.236 292.722 172.134 292.722 172.134 292.722C172.134 292.722 170.552 289.953 174.374 289.119C178.197 288.284 179.638 283.664 179.399 279.372C179.161 275.082 179.758 269.361 179.758 269.361L187.881 267.454L189.554 269.597" fill="#2C3A64"/>
<path d="M129.465 281.34C129.465 281.34 130.607 291.649 128.456 292.722H100.725C100.725 292.722 100.674 289.447 105.096 288.732C109.515 288.015 117.281 285.393 118.593 279.553C119.908 273.712 129.465 281.34 129.465 281.34Z" fill="#2C3A64"/>
<path d="M106.232 135.738C106.232 135.738 107.682 153.807 109.39 175.525C111.707 205.028 114.495 241.268 114.772 248.134C115.249 260.054 117.163 279.123 117.163 279.123C117.163 279.123 121.699 283.654 130.78 281.744C130.78 281.744 138.872 254.521 141.184 225.719C141.22 225.249 141.256 224.773 141.292 224.298C143.442 194.977 146.786 133.236 146.786 133.236L106.232 135.738" fill="#35488B"/>
<path d="M106.232 135.737C106.232 135.737 107.682 153.806 109.39 175.524L141.184 225.719C141.22 225.248 141.256 224.773 141.292 224.297C143.442 194.976 146.786 133.235 146.786 133.235L106.232 135.737" fill="#2C3A64"/>
<path d="M112.858 137.883C112.858 137.883 139.022 203.319 156.224 234.069C173.426 264.818 178.802 273.4 178.802 273.4C178.802 273.4 188.658 269.469 189.553 266.787C189.553 266.787 182.975 207.42 171.455 192.949C164.945 184.772 157.299 160.231 156.941 151.649C156.582 143.067 154.611 126.082 154.611 126.082L112.858 137.883" fill="#35488B"/>
<path d="M36.05 109.436C34.3985 106.474 34.5285 105.922 34.5285 105.922C34.5285 105.922 59.5553 84.9239 61.8159 82.8515C64.079 80.7792 86.7969 43.8706 86.7969 43.8706L118.31 45.9201C118.31 45.9201 79.4188 90.4952 73.5877 95.6341C63.9491 104.125 39.3708 112.869 39.3708 112.869C39.3708 112.869 37.3472 111.763 36.05 109.436" fill="#FF8B82"/>
<path d="M101.335 34.8672C101.335 34.8672 90.6611 53.6076 80.2273 56.0537C80.2273 56.0537 80.5459 51.4487 82.2254 47.4235C82.7632 46.1368 82.5211 44.657 81.6392 43.5737C81.2187 43.0576 80.8237 42.5642 80.4567 42.0964C77.8317 38.7399 76.5829 36.6828 76.5829 36.6828L80.1229 27.1855L82.5261 20.7421C83.6806 22.8323 84.9524 24.6147 86.2802 26.1404C93.118 33.9823 101.335 34.8672 101.335 34.8672" fill="#FFB27D"/>
<path d="M86.2794 26.1397C86.2794 26.1397 87.5537 35.5277 80.4559 42.0957C77.8309 38.7392 76.5821 36.6821 76.5821 36.6821L80.1221 27.1848C83.9194 26.0304 86.2794 26.1397 86.2794 26.1397Z" fill="#ED975D"/>
<path d="M73.7689 38.0687C73.7689 38.0687 89.7178 31.8643 85.6936 22.0162C81.6669 12.1655 81.0144 4.73045 70.6622 8.27507C60.3099 11.8197 59.8792 16.3763 60.4221 19.9921C60.9623 23.6054 69.5153 39.4291 73.7689 38.0687" fill="#FFB27D"/>
<path d="M156.158 131.027C149.723 140.258 101.62 152.588 102.191 146.2C102.41 143.757 102.703 139.444 102.186 133.601C102.063 132.23 101.895 130.781 101.673 129.248C100.45 120.854 97.5472 110.06 91.0738 97.5669C90.5896 96.6312 90.0824 95.6878 89.56 94.7317C86.8942 89.8954 84.6234 84.7818 82.8879 79.7802C79.5569 70.171 78.2138 60.9788 79.8958 54.9677C79.9009 54.9372 81.4658 48.6183 81.476 48.5904C91.53 43.9498 93.8722 32.253 93.8722 32.253C93.8722 32.253 128.178 38.3963 147.393 84.019C147.393 84.019 161.756 122.995 156.158 131.027" fill="#FFA8A1"/>
<path d="M102.185 133.602C102.062 132.231 101.894 130.782 101.672 129.248C100.449 120.855 97.5463 110.06 91.0729 97.5677C92.1841 90.8445 93.7184 85.253 95.403 82.7381C102.246 72.5059 106.229 70.9065 106.229 70.9065C106.229 70.9065 116.49 114.078 102.185 133.602" fill="#FF8B82"/>
<path d="M87.9821 3.71845C88.0942 3.49723 88.4179 3.26075 89.2105 3.01918C89.2105 3.01918 88.4689 2.77254 87.6049 2.96071C87.1564 1.86985 86.0681 0.0136007 84.0267 0.000886747C84.0267 0.000886747 85.1965 0.303489 85.6298 1.47317C82.8314 -0.29661 77.6451 -0.810244 64.701 3.49216C47.6409 9.16258 56.1633 19.0439 58.7501 19.8372C61.3343 20.628 66.095 15.545 70.3766 14.8508C74.6582 14.1566 76.9749 20.1067 78.6059 20.6001C80.2396 21.0934 79.3119 19.7406 81.0194 18.3827C82.7295 17.0274 83.7107 20.2186 83.675 22.4588C83.6368 24.699 86.9703 26.8223 86.9703 26.8223C86.9703 26.8223 86.9703 26.8223 88.9251 23.2446C90.8798 19.6668 90.3472 6.68082 88.4791 4.34399C88.3159 4.13803 88.1503 3.92696 87.9821 3.71845" fill="black"/>
<path d="M74.3092 31.22C74.3092 31.22 74.2608 32.8168 73.695 33.3356C73.1318 33.8518 71.0113 34.7443 70.4914 34.6045C69.9741 34.4646 68.8909 33.6178 68.8909 33.6178C68.8909 33.6178 72.0461 31.5022 74.3092 31.22" fill="white"/>
<path d="M61.2524 85.9092C61.2524 85.9092 75.0426 89.9217 83.537 86.8424C83.537 86.8424 86.6794 81.9908 88.4047 83.1427C90.1301 84.2971 89.4522 88.2943 86.1875 90.4099C82.9228 92.5255 65.1058 97.5525 63.9411 97.0847C62.779 96.6143 61.2524 85.9092 61.2524 85.9092Z" fill="black"/>
<path d="M64.938 73.0017C64.938 73.0017 62.1626 77.7771 63.0775 82.4304C63.8421 86.303 67.6853 92.716 65.6567 97.8702C63.6305 103.024 47.2102 107.121 43.0331 111.703C38.8534 116.282 21.4468 124.31 18.4114 118.657C14.9046 112.12 13.6686 102.778 27.6653 96.1614C39.1567 90.73 54.6978 69.2817 54.6978 69.2817L64.938 73.0017" fill="#3D3D3E"/>
<path d="M19.5434 101.301C19.5434 101.301 15.81 101.367 13.0247 100.457C9.61545 99.3434 8.21324 94.5273 15.6469 90.8251C15.6469 90.8251 12.4935 89.0146 8.80756 91.9515C8.80756 91.9515 8.52493 91.0183 8.84681 90.0673C8.84681 90.0673 3.67808 92.7957 4.4773 97.566C4.4773 97.566 2.26313 95.8623 2.02586 94.5019C2.02586 94.5019 -1.77354 99.618 2.73639 103.9C2.73639 103.9 1.28779 104.035 3.83319e-06 102.903C3.83319e-06 102.903 5.3744 112.065 18.2123 106.054L19.5434 101.301" fill="#3D3D3E"/>
<path d="M48.3772 63.5197C48.3772 63.5197 52.9875 60.5142 56.6549 61.5033C60.3223 62.4899 65.0321 56.8118 67.3105 58.7876C69.5864 60.7634 72.0839 66.2151 66.7498 71.5194C61.4182 76.8237 56.9684 79.8216 53.1226 78.1205C49.2768 76.4168 44.0599 65.404 48.3772 63.5197" fill="#3D3D3E"/>
<path d="M54.2245 91.0777C54.2245 91.0777 72.6124 102.35 74.4626 102.607C76.3129 102.861 78.7366 100.219 80.337 102.383C81.935 104.549 76.8455 107.751 74.9265 108.516C73.0074 109.282 52.5628 103.832 52.5628 103.832L54.2245 91.0777" fill="#3D3D3E"/>
<path d="M37.8161 109.636C37.8161 109.636 38.8865 123.309 28.3762 132.979C28.3762 132.979 26.2915 134.111 26.1054 135.433C25.922 136.758 26.1615 144.462 23.1695 144.684C20.3763 144.89 20.9064 142.105 20.8885 139.458C20.8732 137.592 19.7825 132.923 20.152 132.094C20.5241 131.268 22.3183 125.351 20.1979 122.668C18.0775 119.985 15.8016 112.746 22.6165 108.121C29.4288 103.496 37.8161 109.636 37.8161 109.636" fill="#3D3D3E"/>
<path d="M62.8938 80.5464C62.8938 80.5464 55.3781 83.29 46.1574 79.2903C46.1574 79.2903 43.6522 81.4567 43.8688 82.4814C43.8688 82.4814 54.5193 87.3559 63.4673 83.913C63.4673 83.913 65.2258 82.0466 62.8938 80.5464Z" fill="#DFD46C"/>
<path d="M45.5872 110.98C45.4037 109.137 47.3406 107.176 47.3406 107.176C47.3406 107.176 75.1046 99.5556 77.4009 97.2417C79.6997 94.9277 90.345 58.0905 90.345 58.0905C90.345 58.0905 94.0073 43.1797 102.588 41.537C110.043 40.108 115.196 43.7874 118.568 48.1025C122.584 53.244 122.979 60.3333 119.643 65.9401C112.158 78.5243 97.0605 103.505 92.6515 107.771C82.8369 117.269 47.3788 115.311 47.3788 115.311C47.3788 115.311 45.9541 114.68 45.5872 110.98Z" fill="#FFA8A1"/>
<path d="M24.3856 139.528C24.3856 139.528 28.4352 140.695 28.5066 142.104C28.578 143.515 27.9204 144.683 27.9204 144.683H22.8819L24.3856 139.528Z" fill="#3D3D3E"/>
<path d="M56.0516 63.8601C56.2428 63.6946 56.5125 63.6685 56.7871 63.712C56.8361 63.7033 56.895 63.7033 56.9587 63.7251C57.1107 63.7686 57.2726 63.834 57.4099 63.9167C57.4344 63.9298 57.4589 63.9428 57.4834 63.9516C57.5374 63.982 57.5766 64.0169 57.6011 64.0561C57.7482 64.1998 57.8267 64.3783 57.7727 64.6135C57.6403 65.1404 56.9538 65.0882 56.5272 64.9096C56.1104 64.7354 55.6102 64.2433 56.0516 63.8601ZM57.0225 64.4175C56.944 64.3827 56.8656 64.3522 56.7822 64.3348C56.792 64.3435 56.8018 64.3478 56.8067 64.3478C56.8705 64.3827 56.944 64.4045 57.0225 64.4175Z" fill="white"/>
<path d="M72.7272 22.0066C72.9762 21.961 73.2218 22.0752 73.4361 22.2519C73.4828 22.2693 73.5335 22.2991 73.5773 22.3502C73.686 22.4648 73.7921 22.6031 73.8682 22.7439C73.8827 22.7676 73.8971 22.7913 73.9138 22.8112C73.9447 22.8648 73.9608 22.9147 73.9619 22.9609C74.0154 23.1593 73.992 23.3528 73.8258 23.5281C73.4433 23.9148 72.8787 23.5218 72.6022 23.1517C72.332 22.7904 72.1519 22.113 72.7272 22.0066ZM73.2795 22.9789C73.2296 22.9091 73.1776 22.8431 73.1147 22.7859C73.1187 22.7983 73.1249 22.807 73.1291 22.8095C73.1663 22.8719 73.2185 22.9279 73.2795 22.9789Z" fill="black"/>
<path d="M64.6438 25.485C64.8928 25.4394 65.1384 25.5537 65.3527 25.7304C65.3994 25.7478 65.45 25.7776 65.4939 25.8287C65.6026 25.9432 65.7087 26.0816 65.7848 26.2224C65.7992 26.2461 65.8137 26.2698 65.8304 26.2897C65.8613 26.3433 65.8773 26.3933 65.8785 26.4394C65.932 26.6378 65.9086 26.8314 65.7424 27.0066C65.3599 27.3935 64.7953 27.0004 64.5188 26.6303C64.2486 26.2689 64.0685 25.5914 64.6438 25.485ZM65.196 26.4575C65.1462 26.3877 65.0942 26.3216 65.0312 26.2644C65.0353 26.2768 65.0415 26.2856 65.0457 26.2881C65.0829 26.3504 65.1351 26.4064 65.196 26.4575Z" fill="black"/>
<path d="M48.6473 70.2305C48.6473 70.2305 44.9341 70.1389 43.8703 65.9967C43.4618 64.4075 44.1823 62.5461 44.5138 60.9111C44.8676 59.1693 45.4601 59.3447 46.6482 60.6746C47.5726 61.7121 49.1476 62.6427 49.6754 63.4361C51.31 65.8975 48.6473 70.2305 48.6473 70.2305" fill="#3D3D3E"/>
<path d="M49.2771 64.1189C49.2771 64.1189 48.9595 63.6409 48.0151 62.9747C47.0703 62.3085 46.2392 60.7651 46.0628 60.9049C45.886 61.0447 46.2107 65.759 48.0117 66.1836C48.0117 66.1836 49.2404 65.9471 49.2771 64.1189" fill="black"/>
</svg>
