<svg width="1440" height="374" viewBox="0 0 1440 374" fill="none" xmlns="http://www.w3.org/2000/svg">
<path d="M609.873 305.593C603.329 315.927 590.714 318.948 590.714 318.948C590.714 318.948 602.889 322.091 599.554 332.218C597.029 339.903 591.266 340.105 577.687 340.009C571.675 339.968 566.683 339.69 562.744 338.503C557.306 336.882 553.89 333.532 552.587 326.708C550.149 313.971 556.164 304.873 560.899 287.979C561.319 286.468 561.594 284.836 561.792 283.093C562.779 274.262 561.77 262.609 568.081 250.099L608.252 260.673C608.252 260.673 614.045 272.499 614.557 285.758C614.815 292.449 613.725 299.505 609.873 305.593Z" fill="#D5CFD1"/>
<path d="M803.659 306.663C810.203 316.998 822.818 320.018 822.818 320.018C822.818 320.018 810.643 323.161 813.978 333.289C816.503 340.973 822.266 341.176 835.844 341.08C841.857 341.038 846.849 340.76 850.788 339.573C856.226 337.952 859.642 334.602 860.945 327.779C863.383 315.041 857.367 305.943 852.633 289.049C852.212 287.538 851.938 285.906 851.74 284.163C850.752 275.332 851.761 263.68 845.451 251.17L805.28 261.743C805.28 261.743 799.487 273.569 798.975 286.829C798.717 293.519 799.806 300.575 803.659 306.663Z" fill="#D79863"/>
<path d="M517.089 245.772C517.089 245.772 487.013 244.513 488.239 227.809C489.873 205.542 513.707 193.451 512.918 166.803C511.572 121.233 427.288 119.2 426.012 174.834C425.656 190.364 433.196 195.519 440.092 195.768C450.87 196.157 456.515 187.839 457.909 177.004C460.457 157.19 488.197 158.13 489.943 177.049C491.36 192.402 455.326 216.655 468.529 243.985C477.642 262.848 499.361 266.724 512.951 265.79C515.68 265.603 517.089 245.772 517.089 245.772Z" fill="#D5CFD1"/>
<path d="M441.625 142.343C432.61 149.245 426.353 159.983 426.012 174.834C425.656 190.364 433.195 195.519 440.092 195.768C450.87 196.157 456.514 187.839 457.909 177.004C458.673 171.063 461.702 166.99 465.616 164.707C467.988 134.632 441.859 142.273 441.625 142.343Z" fill="#B4B3B2"/>
<path d="M491.887 179.762C492.02 178.778 492.05 177.813 491.962 176.863C490.942 165.802 482.086 160.614 474.289 160.475C474.174 160.472 474.06 160.471 473.944 160.471C471.177 160.471 468.338 161.07 465.747 162.32C465.864 158.473 465.473 155.313 464.714 152.723C467.35 151.748 470.188 151.277 473.022 151.277C486.561 151.277 500.083 162.007 491.887 179.762Z" fill="#B2B2D4"/>
<path d="M440.84 193.754C440.619 193.754 440.393 193.75 440.165 193.741C437.81 193.656 433.521 192.802 430.723 188.131C432.393 188.839 434.143 189.187 435.856 189.247C436.133 189.258 436.406 189.263 436.674 189.263C447.389 189.263 450.593 181.282 451.765 170.097C452.742 160.779 458.103 155.166 464.714 152.723C465.473 155.313 465.864 158.473 465.747 162.32C460.852 164.681 456.846 169.369 455.897 176.744C455.074 183.147 452.013 193.756 440.84 193.754Z" fill="#7C7C7C"/>
<path d="M647.944 171.681V196.897C647.944 196.897 639.479 206.377 624.37 208.222C622.454 208.46 620.431 208.571 618.308 208.526C604.156 208.227 595.68 201.496 595.68 201.496L596.649 197.188L601.688 174.828C601.688 174.828 608.804 177.18 618.004 178.073C624.857 178.736 632.86 178.585 639.936 176.046C642.805 175.017 645.521 173.597 647.944 171.681Z" fill="#D5CFD1"/>
<path d="M765.587 172.751V197.968C765.587 197.968 774.052 207.447 789.161 209.292C791.077 209.53 793.1 209.642 795.223 209.597C809.376 209.297 817.851 202.566 817.851 202.566L816.882 198.258L811.844 175.899C811.844 175.899 804.728 178.251 795.528 179.143C788.675 179.807 780.672 179.655 773.595 177.116C770.727 176.087 768.01 174.667 765.587 172.751Z" fill="#D79863"/>
<path d="M927.723 239.908C921.344 250.974 910.656 260.935 893.079 266.491L885.395 242.636C885.395 242.636 897.888 238.905 905.707 224.917C909.242 218.586 911.822 210.147 911.856 199.008C911.876 192.563 916.92 187.255 923.345 186.812C923.635 186.791 923.924 186.784 924.214 186.784C930.754 186.784 936.222 191.923 936.538 198.556C937.057 209.42 936 225.59 927.723 239.908Z" fill="#A6744A"/>
<path d="M927.723 239.909C916.381 237.606 909.659 231.645 905.706 224.917C909.242 218.587 911.821 210.148 911.855 199.009C911.875 192.564 916.92 187.256 923.345 186.812C923.635 186.792 923.923 186.785 924.213 186.785C930.753 186.785 936.222 191.923 936.538 198.557C937.056 209.42 935.999 225.59 927.723 239.909Z" fill="#D79863"/>
<path d="M596.355 299.357C557.827 316.865 503.45 301.973 508.27 259.035C510.297 240.96 527.044 225.638 535.854 211.886C540.431 204.739 543.726 198.074 546.067 192.473C550.188 182.614 551.36 176.06 551.36 176.06L616.203 171.934C616.203 171.934 616.934 174.175 618.003 178.073C618.773 180.87 619.722 184.53 620.7 188.828C621.04 190.319 621.384 191.88 621.724 193.512C622.661 197.972 623.583 202.934 624.37 208.222C625.571 216.3 626.453 225.136 626.59 234.072C627.006 260.728 620.756 288.272 596.355 299.357Z" fill="#D5CFD1"/>
<path d="M817.176 300.429C855.705 317.936 910.081 303.045 905.261 260.106C903.234 242.032 886.487 226.709 877.678 212.957C873.101 205.81 869.805 199.146 867.464 193.544C863.343 183.686 862.172 177.131 862.172 177.131L797.328 173.005C797.328 173.005 796.597 175.246 795.528 179.144C794.758 181.941 793.81 185.602 792.831 189.899C792.492 191.39 792.147 192.951 791.807 194.583C790.87 199.044 789.948 204.006 789.162 209.293C787.961 217.372 787.079 226.207 786.941 235.143C786.525 261.8 792.776 289.343 817.176 300.429Z" fill="#D79863"/>
<path d="M561.006 306.516C557.977 306.516 554.976 306.347 552.032 306.011C552.43 305.276 552.792 304.529 553.118 303.772C553.121 303.766 553.124 303.759 553.127 303.753C553.129 303.748 553.13 303.745 553.133 303.74C553.138 303.727 553.143 303.714 553.149 303.701C553.149 303.701 553.15 303.7 553.15 303.698C558.437 291.377 554.666 276.531 551.825 268.52C564.365 276.35 558.64 281.597 565.763 285.176C568.973 286.787 573.328 287.546 578.041 287.546C585.557 287.547 595.057 286.773 601.208 283.294C609.409 278.656 616.618 274.484 621.325 267.506C623.345 269.547 622.184 268.24 622.344 268.52C618.096 285.019 607.086 293.599 593.987 299.551C583.705 304.223 572.181 306.516 561.006 306.516Z" fill="#B2B2D4"/>
<path d="M852.526 307.586C855.555 307.586 858.556 307.418 861.5 307.081C861.102 306.346 860.741 305.599 860.414 304.842C860.412 304.836 860.408 304.829 860.406 304.823C860.403 304.818 860.402 304.815 860.4 304.81C860.394 304.797 860.389 304.784 860.383 304.771C860.383 304.771 860.382 304.77 860.382 304.769C855.096 292.447 858.866 277.602 861.707 269.591C849.167 277.421 854.892 282.668 847.769 286.246C844.56 287.857 840.204 288.616 835.491 288.616C827.975 288.617 818.475 287.843 812.324 284.364C804.124 279.727 796.914 275.554 792.207 268.576C790.187 270.617 791.348 269.31 791.188 269.591C795.436 286.089 806.446 294.67 819.546 300.622C829.827 305.293 841.352 307.586 852.526 307.586Z" fill="#8B5C35"/>
<path d="M550.99 260.672C550.99 260.672 564.109 287.432 552.61 305.594C546.068 315.928 533.455 318.946 533.455 318.946C533.455 318.946 545.625 322.09 542.293 332.218C539.765 339.905 534.005 340.108 520.423 340.009C506.104 339.907 497.572 338.47 495.324 326.709C492.888 313.971 498.905 304.871 503.64 287.981C506.205 278.832 503.263 265.077 510.82 250.099L550.99 260.672Z" fill="#D5CFD1"/>
<path d="M862.541 261.743C862.541 261.743 849.422 288.502 860.921 306.665C867.464 316.999 880.077 320.017 880.077 320.017C880.077 320.017 867.907 323.161 871.238 333.289C873.766 340.976 879.526 341.178 893.108 341.08C907.427 340.978 915.959 339.541 918.207 327.78C920.643 315.042 914.626 305.942 909.892 289.052C907.327 279.903 910.268 266.148 902.712 251.17L862.541 261.743Z" fill="#D79863"/>
<path d="M494.854 318.508C494.898 317.941 494.955 317.376 495.026 316.814C495.026 316.815 495.026 316.816 495.026 316.817C494.955 317.38 494.898 317.942 494.854 318.508Z" fill="#B27E88"/>
<path d="M918.678 319.58C918.634 319.012 918.577 318.447 918.506 317.885C918.506 317.886 918.506 317.887 918.506 317.889C918.577 318.451 918.634 319.014 918.678 319.58Z" fill="#B27E88"/>
<path d="M535.486 318.327C536.901 317.839 538.931 317.038 541.178 315.83C539.96 317.077 537.911 317.859 535.486 318.327Z" fill="#B27E88"/>
<path d="M878.045 319.398C876.63 318.91 874.601 318.108 872.353 316.9C873.571 318.147 875.62 318.93 878.045 319.398Z" fill="#B27E88"/>
<path d="M553.56 303.974C553.958 303.238 554.319 302.492 554.646 301.734C554.319 302.491 553.958 303.238 553.56 303.974ZM554.654 301.715C554.657 301.711 554.658 301.707 554.66 301.702C554.658 301.707 554.657 301.711 554.654 301.715ZM554.677 301.663C554.677 301.662 554.677 301.662 554.678 301.661C554.678 301.662 554.677 301.663 554.677 301.663Z" fill="#7C7CB6"/>
<path d="M859.971 305.044C859.573 304.309 859.212 303.562 858.885 302.805C859.212 303.561 859.573 304.309 859.971 305.044ZM858.877 302.786C858.875 302.781 858.873 302.777 858.871 302.773C858.873 302.777 858.875 302.781 858.877 302.786ZM858.854 302.734C858.854 302.732 858.854 302.732 858.853 302.731C858.853 302.732 858.854 302.734 858.854 302.734Z" fill="#7C7CB6"/>
<path d="M552.087 306.386C552.09 306.381 552.093 306.376 552.096 306.372C552.093 306.377 552.09 306.381 552.087 306.386ZM552.101 306.364C552.275 306.112 552.445 305.855 552.61 305.594C552.948 305.061 553.264 304.519 553.56 303.974C553.264 304.521 552.949 305.059 552.612 305.592C552.446 305.854 552.275 306.112 552.101 306.364Z" fill="#000072"/>
<path d="M861.444 307.457C861.441 307.452 861.438 307.447 861.435 307.442C861.438 307.448 861.441 307.452 861.444 307.457ZM861.43 307.435C861.256 307.183 861.087 306.926 860.921 306.664C860.583 306.131 860.267 305.59 859.971 305.044C860.267 305.591 860.582 306.13 860.92 306.663C861.086 306.925 861.256 307.183 861.43 307.435Z" fill="#000072"/>
<path d="M515.444 317.985C516.929 317.675 518.439 317.458 519.956 317.281C521.474 317.106 523 316.975 524.535 316.894C526.069 316.822 527.61 316.77 529.156 316.789C530.702 316.791 532.25 316.86 533.805 316.949C534.931 317.013 535.791 317.978 535.727 319.103C535.662 320.229 534.698 321.089 533.573 321.025C533.421 321.017 533.274 320.992 533.135 320.952L533.104 320.942C531.685 320.535 530.255 320.142 528.805 319.81C527.358 319.463 525.893 319.181 524.419 318.919C522.943 318.664 521.457 318.458 519.96 318.293C518.465 318.134 516.958 318.011 515.444 317.985Z" fill="#B2B2D4"/>
<path d="M898.087 319.056C896.602 318.746 895.093 318.529 893.576 318.351C892.057 318.177 890.531 318.046 888.996 317.965C887.463 317.893 885.921 317.841 884.375 317.86C882.829 317.862 881.281 317.931 879.726 318.02C878.6 318.084 877.74 319.049 877.804 320.174C877.869 321.3 878.833 322.16 879.958 322.096C880.11 322.087 880.257 322.063 880.396 322.022L880.427 322.013C881.846 321.606 883.276 321.212 884.726 320.881C886.173 320.534 887.638 320.252 889.112 319.99C890.588 319.734 892.074 319.528 893.571 319.364C895.066 319.205 896.573 319.082 898.087 319.056Z" fill="#8B5C35"/>
<path d="M573.101 317.985C574.587 317.675 576.097 317.458 577.614 317.281C579.131 317.106 580.658 316.975 582.193 316.894C583.726 316.822 585.268 316.77 586.813 316.789C588.359 316.791 589.908 316.86 591.463 316.949C592.588 317.013 593.449 317.978 593.384 319.103C593.32 320.229 592.355 321.089 591.23 321.025C591.078 321.017 590.932 320.992 590.791 320.952L590.762 320.942C589.343 320.535 587.913 320.142 586.463 319.81C585.016 319.463 583.551 319.181 582.077 318.919C580.601 318.664 579.115 318.458 577.618 318.293C576.122 318.134 574.616 318.011 573.101 317.985Z" fill="#B2B2D4"/>
<path d="M840.431 319.056C838.944 318.746 837.435 318.529 835.918 318.351C834.401 318.177 832.873 318.046 831.338 317.965C829.805 317.893 828.263 317.841 826.719 317.86C825.172 317.862 823.623 317.931 822.068 318.02C820.943 318.084 820.082 319.049 820.148 320.174C820.211 321.3 821.177 322.16 822.302 322.096C822.453 322.087 822.599 322.063 822.74 322.022L822.769 322.013C824.188 321.606 825.619 321.212 827.068 320.881C828.515 320.534 829.98 320.252 831.454 319.99C832.93 319.734 834.416 319.528 835.913 319.364C837.41 319.205 838.915 319.082 840.431 319.056Z" fill="#8B5C35"/>
<path d="M528.921 326.957C530.316 327.387 531.698 328.322 532.44 329.853C532.814 330.595 532.96 331.527 532.96 332.255C532.982 333.028 532.971 333.82 532.836 334.63C532.705 335.434 532.494 336.267 532.097 337.054C531.711 337.842 531.174 338.576 530.543 339.198C529.262 340.448 527.721 341.203 526.227 341.794C525.269 342.171 524.187 341.702 523.808 340.744C523.43 339.788 523.899 338.704 524.857 338.325C524.958 338.286 525.073 338.253 525.176 338.232C526.457 337.972 527.676 337.597 528.629 336.948C529.583 336.31 530.296 335.361 530.704 334.124C530.923 333.518 531.051 332.85 531.151 332.172L531.273 331.184C531.302 330.876 531.295 330.564 531.245 330.251C531.059 328.991 530.147 327.757 528.921 326.957Z" fill="#B2B2D4"/>
<path d="M884.61 328.027C883.215 328.457 881.833 329.393 881.092 330.924C880.717 331.665 880.572 332.597 880.572 333.326C880.549 334.099 880.56 334.891 880.695 335.701C880.826 336.505 881.037 337.338 881.434 338.125C881.82 338.913 882.358 339.647 882.989 340.269C884.269 341.519 885.811 342.274 887.304 342.864C888.262 343.242 889.344 342.773 889.723 341.815C890.101 340.858 889.632 339.775 888.674 339.396C888.573 339.357 888.459 339.324 888.356 339.302C887.074 339.043 885.856 338.668 884.902 338.019C883.948 337.38 883.235 336.432 882.828 335.194C882.609 334.589 882.481 333.921 882.38 333.243L882.258 332.255C882.23 331.947 882.237 331.635 882.286 331.322C882.472 330.062 883.384 328.828 884.61 328.027Z" fill="#8B5C35"/>
<path d="M515.444 327.294C516.061 327.624 516.63 328.082 517.12 328.663C517.359 328.958 517.573 329.29 517.75 329.658C517.932 330.025 518.051 330.455 518.072 330.806C518.228 332.283 518.109 333.779 517.7 335.249C517.289 336.708 516.562 338.178 515.327 339.371C514.706 339.954 513.969 340.466 513.146 340.803C512.327 341.147 511.448 341.339 510.583 341.395L510.506 341.4C509.477 341.465 508.59 340.684 508.525 339.655C508.459 338.627 509.239 337.739 510.268 337.674C510.371 337.667 510.484 337.67 510.583 337.68C511.572 337.785 512.507 337.597 513.358 337.027C514.206 336.457 514.932 335.522 515.435 334.433C515.94 333.345 516.251 332.108 516.318 330.871C516.33 330.723 516.316 330.547 516.344 330.421C516.372 330.286 516.382 330.146 516.387 330.002C516.393 329.713 516.361 329.407 516.289 329.098C516.137 328.483 515.854 327.855 515.444 327.294Z" fill="#B2B2D4"/>
<path d="M898.087 328.365C897.47 328.694 896.902 329.153 896.411 329.734C896.172 330.029 895.958 330.361 895.781 330.729C895.599 331.096 895.481 331.526 895.459 331.876C895.303 333.354 895.423 334.85 895.831 336.32C896.242 337.778 896.969 339.249 898.204 340.442C898.825 341.024 899.563 341.537 900.386 341.873C901.204 342.218 902.084 342.41 902.948 342.466L903.025 342.47C904.054 342.535 904.941 341.755 905.006 340.726C905.073 339.698 904.292 338.81 903.263 338.745C903.16 338.738 903.048 338.741 902.948 338.751C901.959 338.856 901.024 338.668 900.174 338.098C899.326 337.527 898.6 336.593 898.096 335.504C897.591 334.415 897.281 333.179 897.213 331.942C897.201 331.793 897.215 331.618 897.187 331.492C897.16 331.357 897.149 331.217 897.144 331.072C897.138 330.783 897.17 330.478 897.243 330.169C897.394 329.554 897.677 328.925 898.087 328.365Z" fill="#8B5C35"/>
<path d="M573.1 327.72C573.59 328.193 574.029 328.735 574.414 329.345C574.604 329.65 574.784 329.976 574.93 330.327C575.008 330.683 575.072 331.044 575.105 331.405C575.245 332.851 575.07 334.313 574.596 335.719C574.118 337.117 573.318 338.491 572.077 339.562C570.854 340.648 569.159 341.302 567.502 341.394L567.412 341.399C566.382 341.456 565.503 340.667 565.446 339.638C565.389 338.609 566.178 337.729 567.205 337.672C567.303 337.668 567.408 337.671 567.502 337.679C568.447 337.779 569.367 337.612 570.209 337.099C571.052 336.596 571.788 335.756 572.318 334.761C572.847 333.766 573.183 332.616 573.256 331.458C573.276 331.169 573.271 330.88 573.257 330.593C573.298 330.301 573.327 329.991 573.328 329.674C573.331 329.041 573.259 328.376 573.1 327.72Z" fill="#B2B2D4"/>
<path d="M840.431 328.791C839.942 329.264 839.502 329.806 839.117 330.416C838.927 330.722 838.747 331.047 838.601 331.398C838.523 331.754 838.459 332.116 838.426 332.477C838.286 333.923 838.461 335.384 838.935 336.791C839.414 338.188 840.213 339.562 841.454 340.634C842.677 341.719 844.372 342.373 846.03 342.466L846.12 342.47C847.149 342.527 848.029 341.738 848.085 340.709C848.142 339.68 847.354 338.8 846.326 338.744C846.229 338.739 846.123 338.742 846.03 338.751C845.085 338.85 844.165 338.683 843.323 338.17C842.479 337.667 841.743 336.827 841.214 335.833C840.684 334.837 840.348 333.687 840.276 332.529C840.255 332.24 840.26 331.951 840.274 331.664C840.233 331.372 840.205 331.063 840.203 330.745C840.2 330.112 840.272 329.447 840.431 328.791Z" fill="#8B5C35"/>
<path d="M586.793 327.37C588.061 328.032 589.244 328.983 590.081 330.349C590.279 330.692 590.466 331.069 590.588 331.458C590.699 331.84 590.769 332.238 590.819 332.64C590.909 333.448 590.864 334.292 590.661 335.108C590.267 336.753 589.271 338.213 588.05 339.312C586.823 340.424 585.382 341.221 583.885 341.794L583.853 341.806C582.891 342.174 581.812 341.692 581.444 340.73C581.075 339.768 581.557 338.689 582.52 338.321C582.621 338.283 582.732 338.252 582.834 338.232C584.04 337.999 585.208 337.593 586.211 336.96C587.214 336.334 588.048 335.476 588.514 334.418C588.751 333.891 588.889 333.313 588.929 332.71C588.944 332.408 588.947 332.1 588.912 331.79L588.882 331.335C588.863 331.184 588.835 331.031 588.808 330.875C588.533 329.636 587.785 328.387 586.793 327.37Z" fill="#B2B2D4"/>
<path d="M826.739 328.441C825.47 329.103 824.287 330.054 823.45 331.419C823.252 331.763 823.065 332.139 822.943 332.529C822.832 332.91 822.762 333.308 822.712 333.711C822.622 334.518 822.667 335.362 822.87 336.178C823.264 337.823 824.26 339.283 825.481 340.382C826.708 341.494 828.149 342.291 829.646 342.864L829.678 342.876C830.641 343.245 831.719 342.763 832.088 341.8C832.456 340.838 831.974 339.759 831.011 339.391C830.911 339.353 830.799 339.322 830.697 339.302C829.491 339.069 828.323 338.663 827.32 338.031C826.317 337.404 825.483 336.547 825.017 335.488C824.78 334.961 824.643 334.383 824.602 333.78C824.587 333.478 824.585 333.171 824.619 332.86L824.65 332.406C824.669 332.254 824.696 332.101 824.723 331.945C824.998 330.706 825.746 329.457 826.739 328.441Z" fill="#8B5C35"/>
<path d="M800.07 222.015C800.07 274.005 737.213 319.739 714.104 334.797C709 338.123 702.42 338.123 697.316 334.798C674.205 319.739 611.346 274.006 611.346 222.015C611.346 194.574 633.589 172.33 661.029 172.33C680.669 172.33 697.646 183.726 705.71 200.266C713.774 183.726 730.751 172.33 750.388 172.33C777.828 172.33 800.07 194.574 800.07 222.015Z" fill="#FF72A8"/>
<path d="M616.454 242.067C616.431 241.992 616.408 241.916 616.385 241.84C616.966 241.776 617.559 241.718 618.167 241.666C617.581 241.791 617.012 241.926 616.454 242.067ZM639.051 233.36C638.175 231.198 637.387 229.034 636.674 226.888C636.763 226.656 636.84 226.426 636.908 226.199C637.766 223.32 637.094 220.821 637.094 220.821C637.094 220.821 640.973 218.659 641.353 214.323C641.685 210.528 639.181 207.404 639.181 207.404C639.181 207.404 639.258 206.708 639.171 205.665C642.22 208.905 641.715 213.488 641.715 213.488C641.715 213.488 644.219 216.61 643.885 220.407C643.505 224.74 639.627 226.905 639.627 226.905C639.627 226.905 640.476 230.057 639.051 233.36Z" fill="#FF5F9C"/>
<path d="M797.078 243.139C797.101 243.063 797.124 242.987 797.147 242.911C796.567 242.847 795.973 242.789 795.365 242.737C795.951 242.863 796.521 242.998 797.078 243.139ZM774.481 234.431C775.358 232.269 776.145 230.105 776.858 227.959C776.769 227.727 776.692 227.498 776.625 227.27C775.766 224.391 776.439 221.893 776.439 221.893C776.439 221.893 772.559 219.73 772.179 215.394C771.848 211.6 774.351 208.476 774.351 208.476C774.351 208.476 774.274 207.779 774.362 206.736C771.312 209.976 771.817 214.559 771.817 214.559C771.817 214.559 769.313 217.682 769.647 221.478C770.027 225.811 773.906 227.976 773.906 227.976C773.906 227.976 773.057 231.128 774.481 234.431Z" fill="#FF5F9C"/>
<path d="M664.876 194.598C659.961 194.598 658.486 192.214 658.486 192.214C658.486 192.214 656.199 193.055 653.953 193.055C653.089 193.055 652.233 192.93 651.514 192.587C644.776 189.367 645.807 181.245 645.807 181.245C645.886 180.945 645.973 180.651 646.071 180.366C646.403 181.896 647.062 183.613 648.331 185.099C649.127 186.032 650.166 186.873 651.514 187.518C652.071 187.784 652.709 187.919 653.37 187.965C653.564 187.979 653.761 187.986 653.957 187.986C656.179 187.986 658.44 187.163 658.487 187.147C658.499 187.166 658.711 187.496 659.22 187.906C660.087 188.603 661.812 189.529 664.873 189.529C665.44 189.529 666.053 189.497 666.714 189.426C666.916 189.405 667.119 189.375 667.322 189.339C669.57 188.931 671.83 187.644 673.306 186.655C674.316 185.979 674.962 185.441 674.99 185.418C675.022 185.427 676.058 185.728 677.485 185.728C678.639 185.728 680.048 185.533 681.392 184.828C681.544 184.75 681.694 184.663 681.844 184.571C682.48 184.178 683.042 183.653 683.524 183.031C684.122 183.336 684.714 183.652 685.298 183.98C684.834 186.396 683.627 188.533 681.842 189.641C680.369 190.555 678.769 190.796 677.485 190.796C676.035 190.796 674.989 190.486 674.989 190.486C674.989 190.486 670.722 194.067 666.715 194.495C666.054 194.566 665.443 194.598 664.876 194.598Z" fill="#FF5F9C"/>
<path d="M748.656 195.668C753.57 195.668 755.046 193.285 755.046 193.285C755.046 193.285 757.333 194.125 759.579 194.125C760.442 194.125 761.299 194.001 762.017 193.658C768.755 190.438 767.725 182.315 767.725 182.315C767.646 182.016 767.558 181.722 767.461 181.437C767.128 182.967 766.47 184.684 765.201 186.17C764.405 187.103 763.366 187.944 762.017 188.589C761.461 188.855 760.822 188.99 760.162 189.036C759.967 189.05 759.771 189.057 759.574 189.057C757.353 189.057 755.092 188.234 755.045 188.217C755.033 188.236 754.821 188.567 754.312 188.976C753.445 189.674 751.719 190.6 748.658 190.6C748.092 190.6 747.479 190.568 746.818 190.497C746.616 190.476 746.413 190.446 746.209 190.409C743.962 190.002 741.702 188.715 740.226 187.726C739.215 187.05 738.57 186.512 738.542 186.488C738.51 186.498 737.473 186.799 736.046 186.799C734.893 186.799 733.484 186.603 732.14 185.899C731.988 185.821 731.838 185.734 731.687 185.642C731.051 185.249 730.49 184.724 730.008 184.102C729.41 184.407 728.818 184.723 728.234 185.051C728.697 187.467 729.905 189.604 731.69 190.711C733.163 191.626 734.763 191.867 736.046 191.867C737.497 191.867 738.543 191.557 738.543 191.557C738.543 191.557 742.809 195.138 746.817 195.565C747.478 195.636 748.089 195.668 748.656 195.668Z" fill="#FF5F9C"/>
<path d="M685.298 183.979C684.714 183.651 684.122 183.335 683.524 183.031C684.058 182.342 684.493 181.533 684.818 180.652C685.043 180.781 685.266 180.911 685.489 181.045C685.548 182.036 685.48 183.029 685.298 183.979Z" fill="#FF5F9C"/>
<path d="M728.233 185.051C728.817 184.723 729.409 184.407 730.007 184.102C729.473 183.413 729.039 182.604 728.713 181.723C728.488 181.852 728.265 181.982 728.043 182.116C727.984 183.107 728.051 184.1 728.233 185.051Z" fill="#FF5F9C"/>
<path d="M582.78 249.536C581.286 249.536 579.683 249.452 577.938 249.267C552.014 246.529 551.07 220.243 551.8 209.411C552.306 213.616 553.371 218.965 555.599 224.108C559.385 232.854 566.535 240.995 579.998 241.879C582.024 242.011 583.894 242.073 585.637 242.072C597.874 242.072 605.698 238.669 612.921 236.438C613.317 238.29 613.908 240.175 614.449 242.04C601.373 244.26 594.223 249.536 582.78 249.536Z" fill="#B2B2D4"/>
<path d="M830.751 250.606C832.245 250.606 833.849 250.522 835.593 250.338C861.518 247.6 862.462 221.314 861.731 210.482C861.225 214.687 860.161 220.036 857.932 225.179C854.146 233.924 846.996 242.066 833.534 242.949C831.508 243.082 829.638 243.144 827.894 243.142C815.657 243.142 805.784 239.182 798.56 236.95C798.164 238.803 797.318 241.084 796.777 242.949C809.853 245.169 819.308 250.606 830.751 250.606Z" fill="#8B5C35"/>
<path d="M618.167 241.667C618.174 241.665 618.18 241.663 618.186 241.662C618.187 241.665 618.186 241.662 618.187 241.664C618.182 241.665 618.175 241.665 618.17 241.665C618.169 241.665 618.168 241.667 618.167 241.667Z" fill="#B21473"/>
<path d="M795.364 242.737C795.357 242.736 795.351 242.734 795.346 242.733C795.344 242.736 795.346 242.733 795.344 242.735C795.349 242.736 795.356 242.736 795.361 242.736C795.362 242.736 795.363 242.737 795.364 242.737Z" fill="#B21473"/>
<path d="M614.45 242.043C613.842 240.008 613.091 238.202 612.667 236.187C613.084 236.089 615.677 235.573 616.109 235.484C616.718 237.56 617.413 239.62 618.186 241.662C618.18 241.663 618.174 241.665 618.167 241.666C617.558 241.719 615.03 241.98 614.45 242.043Z" fill="#FF5F9C"/>
<path d="M797.147 242.911C797.754 240.875 798.27 238.848 798.694 236.833C798.277 236.735 797.855 236.643 797.422 236.554C796.814 238.63 796.119 240.691 795.345 242.732C795.351 242.733 795.357 242.736 795.364 242.737C795.973 242.789 796.566 242.847 797.147 242.911Z" fill="#FF5F9C"/>
<path d="M621.623 241.055C626.516 239.687 629.378 236.45 631.002 232.653C634.256 231.122 635.889 228.953 636.674 226.888C637.387 229.034 638.174 231.198 639.051 233.36C637.635 236.64 633.979 240.068 625.024 240.702C623.824 240.786 622.695 240.906 621.623 241.055Z" fill="#FF5F9C"/>
<path d="M791.909 242.126C787.016 240.758 784.154 237.521 782.53 233.724C779.276 232.193 777.643 230.023 776.858 227.959C776.145 230.105 775.357 232.269 774.481 234.431C775.896 237.711 779.553 241.138 788.508 241.773C789.708 241.857 790.836 241.977 791.909 242.126Z" fill="#FF5F9C"/>
<path d="M618.187 241.664C618.186 241.661 618.187 241.665 618.186 241.661C619.271 241.428 620.411 241.223 621.623 241.055C620.573 241.349 619.432 241.556 618.187 241.664Z" fill="#FF5F9C"/>
<path d="M795.344 242.735C795.345 242.732 795.344 242.736 795.345 242.732C794.26 242.499 793.12 242.294 791.909 242.126C792.958 242.42 794.099 242.627 795.344 242.735Z" fill="#FF5F9C"/>
<path d="M618.186 241.662C617.413 239.62 616.718 237.56 616.109 235.484C618.031 235.09 620.125 234.787 622.489 234.619C626.137 234.361 628.905 233.64 631.002 232.653C629.378 236.45 626.516 239.688 621.623 241.055C620.411 241.223 619.271 241.428 618.186 241.662Z" fill="#FF5F9C"/>
<path d="M795.346 242.732C796.119 240.691 796.814 238.63 797.423 236.554C795.501 236.161 793.407 235.858 791.042 235.69C787.395 235.432 784.626 234.711 782.53 233.724C784.154 237.521 787.016 240.758 791.909 242.126C793.121 242.294 794.261 242.499 795.346 242.732Z" fill="#FF5F9C"/>
<path d="M633.547 151.858C633.553 151.607 633.563 151.412 633.575 151.277L633.547 151.858Z" fill="#D5CFD1"/>
<path d="M779.984 152.929C779.978 152.678 779.968 152.483 779.956 152.348L779.984 152.929Z" fill="#D79863"/>
<path d="M511.263 163.469C511.283 163.502 511.307 163.532 511.328 163.565L511.243 163.448L511.263 163.469Z" fill="#000072"/>
<path d="M511.33 163.566L513.818 166.937C512.965 165.85 512.129 164.733 511.33 163.566Z" fill="#000072"/>
<path d="M662.747 151.531L662.678 151.669C662.692 151.633 662.712 151.591 662.73 151.555L662.747 151.531Z" fill="#000072"/>
<path d="M750.785 152.602L750.854 152.74C750.84 152.704 750.82 152.662 750.801 152.625L750.785 152.602Z" fill="#000072"/>
<path d="M511.289 163.213L513.695 165.725C512.869 164.917 512.061 164.085 511.289 163.213Z" fill="#D5CFD1"/>
<path d="M662.665 151.307C662.038 152.288 661.369 153.236 660.68 154.164L662.665 151.307Z" fill="#D5CFD1"/>
<path d="M750.867 152.379C751.493 153.359 752.162 154.308 752.852 155.235L750.867 152.379Z" fill="#D79863"/>
<path d="M679.435 134.586C679.306 138.235 671.659 135.392 669.99 134.726C669.851 134.672 669.728 134.816 669.774 134.965C669.97 135.582 670.481 136.955 671.665 139.117C673.123 141.784 674.311 143.853 673.861 145.353C673.376 146.944 670.919 147.735 667.766 147.63C666.004 147.57 664.243 149.243 662.722 151.22L662.707 151.239C661.968 152.199 661.281 153.226 660.681 154.164L660.639 154.225C658.085 157.649 655.141 160.744 651.891 163.525C647.684 167.008 642.964 169.864 637.94 172.204C637.94 172.204 614.326 183.089 589.167 185.068C564.009 187.047 538.983 179.988 538.983 179.988C533.649 178.461 528.546 176.379 523.846 173.598C520.197 171.36 516.805 168.761 513.746 165.78L513.727 165.758C513.715 165.748 513.708 165.736 513.695 165.725C512.956 164.893 512.118 163.987 511.238 163.153C509.421 161.434 507.414 160.044 505.677 160.381C502.578 160.975 500.027 160.579 499.3 159.083C498.621 157.673 499.472 155.444 500.494 152.58C501.325 150.259 501.616 148.825 501.712 148.185C501.735 148.031 501.59 147.908 501.462 147.982C499.923 148.9 492.815 152.904 492.112 149.32C491.721 147.33 494.493 141.019 495.141 134.73C497.005 116.492 497.674 112.866 497.674 112.866C497.688 112.747 499.854 99.6072 503.864 89.7415C499.06 82.8849 478.628 52.3062 487.382 39.3676C488.668 37.4681 492.204 36.7682 496.896 36.8263C510.469 36.9778 533.699 43.3986 540.066 45.2472C548.827 40.2166 558.93 36.7457 570.355 35.3484C571.578 35.1933 574.189 34.7894 577.27 34.5526C580.006 34.343 583.242 34.2826 584.335 34.2494C595.837 33.8421 606.364 35.6918 615.798 39.2906C623.877 35.4976 660.831 18.7292 666.914 25.2459C666.997 25.3335 667.075 25.4211 667.158 25.5135C677.348 37.1673 662.16 70.1085 658.511 77.5773C664.015 86.6945 668.207 99.3348 668.241 99.4497C668.241 99.4497 669.469 102.926 674.166 120.647C675.784 126.76 679.51 132.559 679.435 134.586Z" fill="#D5CFD1"/>
<path d="M640.864 104.325C650.552 104.325 659.636 101.739 667.463 97.2199C666.004 93.1699 662.624 84.3914 658.512 77.5775C662.159 70.1086 677.348 37.1675 667.158 25.5137C667.075 25.4213 666.998 25.3336 666.914 25.246C660.831 18.7293 623.876 35.4977 615.798 39.2907C608.014 36.3207 599.484 34.5468 590.277 34.2437C588.525 39.524 587.574 45.168 587.574 51.0358C587.574 80.4669 611.432 104.325 640.864 104.325Z" fill="#B4B3B2"/>
<path d="M511.234 163.154C511.249 163.167 511.263 163.181 511.272 163.189C511.292 163.213 511.312 163.235 511.332 163.258L511.234 163.154Z" fill="#000072"/>
<path d="M513.682 165.716C512.875 164.926 512.09 164.111 511.333 163.259L513.682 165.716Z" fill="#000072"/>
<path d="M660.687 154.153L662.619 151.374C662.009 152.328 661.364 153.252 660.687 154.153Z" fill="#000072"/>
<path d="M752.845 155.224L750.913 152.444C751.522 153.399 752.168 154.322 752.845 155.224Z" fill="#000072"/>
<path d="M662.819 152.695L662.835 152.68L662.747 152.808C662.769 152.768 662.796 152.733 662.819 152.695Z" fill="#D5CFD1"/>
<path d="M750.713 153.765L750.698 153.75L750.785 153.878C750.763 153.839 750.736 153.804 750.713 153.765Z" fill="#D79863"/>
<path d="M648.283 70.1171C642.044 59.9685 635.543 53.8591 632.514 51.319C631.649 50.5942 631.616 49.1258 632.459 48.4082C640.704 41.3823 652.005 37.4649 656.314 36.1481C657.942 35.6507 659.651 36.7792 660.075 38.6633C660.55 40.7748 660.59 44.3475 659.254 50.3835C657.313 59.1525 653.059 66.7113 650.88 70.1858C650.247 71.1947 648.919 71.1533 648.283 70.1171Z" fill="#FFA8A1"/>
<path d="M644.167 61.5361C639.638 55.6696 635.541 51.9227 633.469 50.1879C633.383 50.1156 633.328 49.9723 633.328 49.8208C633.328 49.6976 633.364 49.5839 633.42 49.5365C638.573 45.1455 644.974 42.0227 649.594 40.1292C649.645 42.2596 649.365 45.1834 648.476 49.1931C647.461 53.776 645.816 58.0273 644.167 61.5361Z" fill="#E48780"/>
<path d="M512.814 80.7726C517.39 69.7736 522.855 62.7228 525.449 59.7398C526.191 58.8884 525.993 57.4341 525.049 56.8562C515.807 51.2064 504.033 49.1044 499.571 48.4768C497.884 48.2399 496.373 49.6219 496.249 51.5498C496.109 53.7098 496.629 57.2447 498.892 62.9964C502.181 71.3545 507.564 78.1554 510.259 81.2462C511.042 82.1439 512.347 81.8952 512.814 80.7726Z" fill="#FFA8A1"/>
<path d="M515.538 71.6538C513.359 68.4458 511.07 64.5047 509.351 60.1362C507.847 56.3147 507.113 53.4715 506.83 51.3588C511.687 52.5051 518.499 54.5894 524.275 58.1207C524.338 58.1598 524.393 58.2663 524.412 58.3871C524.435 58.5375 524.403 58.6879 524.335 58.7672C522.555 60.8088 519.093 65.1489 515.538 71.6538Z" fill="#E48780"/>
<path d="M508.934 154.268C508.963 154.302 508.997 154.33 509.026 154.364L508.916 154.256L508.934 154.268Z" fill="#000072"/>
<path d="M904.597 155.339C904.568 155.373 904.534 155.401 904.505 155.435L904.616 155.328L904.597 155.339Z" fill="#000072"/>
<path d="M660.401 142.355L660.418 142.341L660.313 142.477C660.346 142.435 660.374 142.397 660.401 142.355Z" fill="#000072"/>
<path d="M753.131 143.425L753.114 143.411L753.219 143.548C753.186 143.506 753.158 143.467 753.131 143.425Z" fill="#000072"/>
<path d="M509.596 161.558L509.48 161.447L509.498 161.459C509.531 161.49 509.563 161.527 509.596 161.558Z" fill="#000072"/>
<path d="M903.935 162.628L904.051 162.518L904.033 162.529C904.001 162.561 903.968 162.597 903.935 162.628Z" fill="#000072"/>
<path d="M511.99 163.842L511.968 163.827C511.153 163.099 510.361 162.342 509.598 161.558L511.99 163.842Z" fill="#000072"/>
<path d="M508.928 154.153C508.96 154.186 508.992 154.221 509.025 154.252L508.905 154.138L508.923 154.15L508.928 154.153Z" fill="#0F2675"/>
<path d="M904.603 155.225C904.572 155.257 904.539 155.292 904.506 155.324L904.626 155.209L904.608 155.221L904.603 155.225Z" fill="#0F2675"/>
<path d="M660.367 142.268L660.39 142.24L660.313 142.344C660.332 142.317 660.348 142.295 660.367 142.268Z" fill="#0F2675"/>
<path d="M753.165 143.339L753.142 143.311L753.219 143.415C753.2 143.388 753.184 143.366 753.165 143.339Z" fill="#0F2675"/>
<path d="M592.4 132.391C592.535 134.108 590.414 135.801 588.439 136.994C586.372 138.241 583.963 138.43 581.727 137.521C579.589 136.653 577.23 135.311 577.095 133.594C576.688 128.414 591.993 127.21 592.4 132.391Z" fill="#434343"/>
<path d="M584.317 132.799C584.003 132.799 583.689 132.771 583.387 132.714C582.555 132.557 581.64 132.3 581.611 131.93C581.559 131.259 583.741 130.818 585.503 130.818C586.665 130.818 587.644 131.01 587.68 131.453C587.708 131.822 586.846 132.219 586.048 132.504C585.503 132.7 584.908 132.799 584.317 132.799Z" fill="white"/>
<path d="M573.513 141.595C573.954 142.166 574.504 142.81 575.061 143.304C575.625 143.81 576.229 144.224 576.843 144.478C577.454 144.748 578.071 144.847 578.699 144.844C579.017 144.787 579.334 144.802 579.658 144.678C579.819 144.626 579.984 144.603 580.146 144.542L580.629 144.34C581.923 143.799 582.842 142.809 583.444 141.485C584.04 140.176 584.259 138.491 584.256 136.962V136.859C584.255 136.299 584.709 135.844 585.268 135.843C585.74 135.842 586.137 136.165 586.251 136.601C586.515 137.61 586.593 138.526 586.583 139.52C586.556 140.498 586.436 141.505 586.088 142.485C585.477 144.452 583.888 146.324 581.918 147.153L581.188 147.468C580.941 147.566 580.668 147.624 580.406 147.692C579.893 147.854 579.316 147.871 578.764 147.921C577.626 147.928 576.493 147.613 575.53 147.094C574.568 146.565 573.78 145.852 573.152 145.066C572.524 144.26 572.042 143.457 571.681 142.463C571.489 141.936 571.761 141.354 572.286 141.162C572.713 141.007 573.175 141.155 573.436 141.495L573.513 141.595Z" fill="#434343"/>
<path d="M599.773 140.253C599.57 141.292 599.221 142.16 598.727 143.054C598.23 143.928 597.562 144.757 596.694 145.429C595.826 146.091 594.755 146.58 593.63 146.752C593.077 146.789 592.505 146.863 591.971 146.783C591.703 146.756 591.425 146.741 591.165 146.683L590.394 146.487C588.319 145.976 586.457 144.375 585.546 142.528C585.048 141.614 584.773 140.638 584.594 139.678C584.428 138.697 584.363 137.778 584.465 136.742C584.52 136.184 585.017 135.777 585.574 135.832C586.043 135.879 586.407 136.237 586.477 136.684L586.492 136.786C586.729 138.297 587.208 139.927 588.002 141.126C588.802 142.34 589.865 143.173 591.228 143.506L591.737 143.632C591.906 143.665 592.073 143.662 592.24 143.689C592.58 143.76 592.89 143.697 593.214 143.703C593.833 143.607 594.429 143.414 594.99 143.051C595.556 142.703 596.088 142.201 596.565 141.613C597.039 141.037 597.482 140.316 597.827 139.682L597.887 139.573C598.155 139.081 598.772 138.901 599.264 139.17C599.66 139.386 599.855 139.832 599.773 140.253Z" fill="#434343"/>
<path d="M639.499 143.902C639.68 146.21 635.931 148.387 631.124 148.765C626.318 149.144 622.274 147.579 622.092 145.271C621.91 142.964 625.66 140.788 630.467 140.409C635.274 140.031 639.317 141.596 639.499 143.902Z" fill="#E48780"/>
<path d="M550.898 150.8C551.08 153.106 547.33 155.283 542.524 155.662C537.717 156.04 533.673 154.475 533.492 152.169C533.31 149.861 537.06 147.684 541.866 147.306C546.673 146.927 550.716 148.492 550.898 150.8Z" fill="#E48780"/>
<path d="M565.817 121.726C566.531 130.805 561.781 138.584 555.208 139.101C548.634 139.618 542.726 132.678 542.012 123.598C541.298 114.519 546.048 106.74 552.621 106.224C559.195 105.706 565.103 112.647 565.817 121.726Z" fill="#434343"/>
<path d="M560.346 119.551C560.587 122.6 559.17 125.198 557.184 125.353C555.198 125.51 553.394 123.165 553.155 120.117C552.914 117.068 554.33 114.469 556.316 114.314C558.302 114.158 560.107 116.503 560.346 119.551Z" fill="white"/>
<path d="M627.033 113.092C625.263 113.76 623.469 114.52 621.818 115.365C620.155 116.215 618.596 117.171 617.155 118.229C616.419 118.741 615.761 119.333 615.079 119.891L614.134 120.807C613.981 120.964 613.809 121.102 613.665 121.264L613.233 121.756C612.019 123.018 611.088 124.501 610.17 126L606.595 122.466C606.761 122.382 606.864 122.337 606.976 122.286C607.092 122.234 607.2 122.187 607.306 122.147C607.521 122.06 607.737 121.975 607.947 121.905C608.37 121.749 608.793 121.626 609.216 121.499C610.061 121.255 610.92 121.088 611.778 120.954C613.499 120.695 615.249 120.664 616.965 120.869C618.679 121.077 620.366 121.478 621.926 122.155C623.503 122.78 624.925 123.709 626.214 124.721C626.607 125.03 626.676 125.601 626.365 125.994C626.14 126.283 625.773 126.397 625.439 126.316L625.334 126.29C624.587 126.109 623.892 125.857 623.17 125.698C622.445 125.552 621.747 125.372 621.027 125.301C619.612 125.075 618.197 125.039 616.809 125.12C615.421 125.184 614.052 125.412 612.725 125.76C612.392 125.84 612.066 125.949 611.738 126.042L610.774 126.37C610.46 126.49 610.144 126.608 609.847 126.744C609.693 126.808 609.552 126.878 609.411 126.946C609.338 126.979 609.268 127.011 609.209 127.043L609.067 127.118L609.013 127.145C607.728 127.813 606.145 127.313 605.477 126.029C605.065 125.237 605.104 124.319 605.49 123.584C606.531 121.634 607.706 119.704 609.279 118.11C610 117.254 610.893 116.576 611.724 115.843C612.629 115.206 613.51 114.533 614.488 114.031C616.399 112.956 618.441 112.166 620.53 111.698C622.632 111.241 624.724 111.04 626.909 111.297C627.41 111.356 627.768 111.81 627.708 112.311C627.668 112.66 627.434 112.941 627.126 113.058L627.033 113.092Z" fill="#434343"/>
<path d="M551.372 201.496C551.372 201.496 549.836 239.895 579.999 241.876C602.769 243.372 606.238 235.772 622.489 234.619C640.462 233.345 637.093 220.822 637.093 220.822C637.093 220.822 640.973 218.66 641.353 214.323C641.685 210.529 639.181 207.405 639.181 207.405C639.181 207.405 639.719 202.532 636.337 199.28C629.281 192.497 614.865 190.168 602.879 200.775C598.597 204.565 593.629 206.149 588.478 205.207L551.372 201.496Z" fill="#D5CFD1"/>
<path d="M862.16 202.566C862.16 202.566 863.696 240.965 833.533 242.946C814.439 244.201 808.917 239.059 798.051 236.687C795.958 236.23 793.667 235.876 791.043 235.69C773.069 234.415 776.438 221.892 776.438 221.892C776.438 221.892 772.559 219.73 772.179 215.393C771.847 211.599 774.351 208.475 774.351 208.475C774.351 208.475 773.813 203.602 777.195 200.35C784.251 193.567 798.667 191.238 810.653 201.845C814.935 205.636 819.902 207.219 825.054 206.277L862.16 202.566Z" fill="#D79863"/>
<path d="M833.856 243.165C864.019 241.184 862.483 202.785 862.483 202.785L825.377 206.496C820.226 207.438 815.258 205.854 810.976 202.064C805.478 206.665 795.192 220.12 798.305 236.95C808.932 240.051 814.763 244.419 833.856 243.165Z" fill="#A6744A"/>
<path d="M636.674 226.889C636.763 226.657 636.84 226.427 636.907 226.199C636.84 226.427 636.763 226.657 636.674 226.889Z" fill="#7C0E73"/>
<path d="M776.857 227.959C776.769 227.727 776.692 227.497 776.624 227.27C776.692 227.497 776.769 227.727 776.857 227.959Z" fill="#7C0E73"/>
<path d="M585.637 242.072C583.893 242.073 582.024 242.011 579.997 241.879C566.535 240.995 559.385 232.854 555.599 224.108C559.386 232.85 566.535 240.992 579.999 241.876C582.024 242.009 583.898 242.071 585.641 242.071C597.879 242.071 603.697 239.06 610.919 236.83C603.696 239.061 597.874 242.072 585.637 242.072Z" fill="#7C7CB6"/>
<path d="M827.895 243.142C829.638 243.143 831.508 243.082 833.534 242.949C846.996 242.066 854.146 233.924 857.932 225.179C854.145 233.921 846.996 242.062 833.533 242.947C831.508 243.079 829.633 243.141 827.89 243.141C815.652 243.141 809.834 240.131 802.612 237.901C809.835 240.132 815.657 243.142 827.895 243.142Z" fill="#7C7CB6"/>
<path d="M614.837 235.762C614.837 235.76 614.838 235.763 614.837 235.761C615.253 235.665 615.677 235.572 616.109 235.484C615.677 235.573 615.254 235.665 614.837 235.762Z" fill="#570A73"/>
<path d="M631.001 232.654V232.653C634.254 231.121 635.888 228.952 636.673 226.889C635.888 228.953 634.255 231.123 631.001 232.654Z" fill="#570A73"/>
<path d="M782.53 233.724V233.723C779.277 232.192 777.643 230.022 776.858 227.959C777.643 230.023 779.276 232.193 782.53 233.724Z" fill="#570A73"/>
<path d="M616.109 235.484C618.031 235.091 620.123 234.788 622.488 234.619C626.137 234.361 628.905 233.639 631.002 232.652V232.654C628.905 233.64 626.137 234.361 622.489 234.619C620.125 234.788 618.031 235.091 616.109 235.484Z" fill="#3D0773"/>
<path d="M797.423 236.554C795.501 236.161 793.408 235.858 791.043 235.69C787.395 235.432 784.626 234.709 782.53 233.723V233.724C784.626 234.71 787.395 235.432 791.042 235.69C793.407 235.858 795.501 236.161 797.423 236.554Z" fill="#3D0773"/>
<path d="M610.919 236.83C612.17 236.444 613.461 236.081 614.837 235.76C614.838 235.763 614.837 235.759 614.837 235.761C613.463 236.08 612.169 236.444 610.919 236.83Z" fill="#000072"/>
<path d="M645.807 176.176C645.807 176.176 644.776 184.297 651.514 187.518C654.103 188.755 658.486 187.145 658.486 187.145C658.486 187.145 660.32 190.109 666.715 189.426C670.722 188.999 674.989 185.417 674.989 185.417C674.989 185.417 678.701 186.519 681.842 184.572C686.252 181.838 687.14 172.813 681.972 168.824C676.993 164.982 649.836 160.836 645.807 176.176Z" fill="#D5CFD1"/>
<path d="M664.874 189.529C661.812 189.529 660.087 188.603 659.22 187.906C660.087 188.603 661.814 189.528 664.876 189.528C665.443 189.528 666.054 189.497 666.715 189.426C666.917 189.405 667.12 189.375 667.322 189.339C667.119 189.375 666.916 189.405 666.714 189.426C666.053 189.497 665.44 189.529 664.874 189.529ZM653.957 187.986C653.761 187.986 653.564 187.979 653.37 187.965C653.563 187.979 653.757 187.985 653.953 187.985C656.199 187.985 658.486 187.145 658.486 187.145C658.486 187.145 658.486 187.145 658.487 187.147C658.44 187.163 656.179 187.986 653.957 187.986ZM673.306 186.655C674.339 185.964 674.989 185.418 674.989 185.418H674.99C674.962 185.441 674.316 185.979 673.306 186.655Z" fill="#7C0E73"/>
<path d="M748.658 190.6C751.719 190.6 753.444 189.674 754.311 188.976C753.444 189.674 751.718 190.598 748.655 190.598C748.088 190.598 747.477 190.568 746.816 190.497C746.614 190.475 746.411 190.446 746.209 190.409C746.412 190.446 746.615 190.475 746.817 190.497C747.478 190.568 748.092 190.6 748.658 190.6ZM759.574 189.057C759.77 189.057 759.967 189.049 760.161 189.035C759.968 189.049 759.774 189.055 759.578 189.055C757.332 189.055 755.045 188.216 755.045 188.216C755.045 188.216 755.045 188.216 755.044 188.217C755.092 188.234 757.352 189.057 759.574 189.057ZM740.225 187.726C739.192 187.034 738.542 186.488 738.542 186.488H738.541C738.569 186.512 739.215 187.049 740.225 187.726Z" fill="#7C0E73"/>
<path d="M646.071 180.366C646.042 180.234 646.015 180.103 645.991 179.975C645.992 179.974 645.991 179.975 645.992 179.974C646.016 180.103 646.042 180.232 646.071 180.363C646.071 180.365 646.071 180.365 646.071 180.366Z" fill="#B21473"/>
<path d="M767.461 181.436C767.489 181.305 767.516 181.173 767.54 181.045C767.539 181.044 767.54 181.045 767.539 181.044C767.515 181.173 767.489 181.302 767.461 181.434C767.461 181.435 767.461 181.435 767.461 181.436Z" fill="#B21473"/>
<path d="M645.991 179.975C645.749 178.677 645.733 177.548 645.758 176.866C645.759 176.865 645.758 176.866 645.759 176.865C645.734 177.547 645.75 178.676 645.993 179.973C645.991 179.975 645.993 179.973 645.991 179.975Z" fill="#B2539A"/>
<path d="M767.54 181.046C767.783 179.748 767.798 178.619 767.774 177.937C767.772 177.936 767.774 177.937 767.772 177.936C767.797 178.618 767.782 179.747 767.539 181.045C767.54 181.046 767.539 181.045 767.54 181.046Z" fill="#B2539A"/>
<path d="M648.331 185.099C647.062 183.612 646.404 181.895 646.071 180.365C646.071 180.364 646.071 180.364 646.071 180.363C646.404 181.893 647.062 183.612 648.331 185.099Z" fill="#7C0E73"/>
<path d="M765.2 186.169C766.469 184.683 767.128 182.966 767.46 181.436C767.46 181.435 767.46 181.435 767.46 181.434C767.128 182.964 766.469 184.683 765.2 186.169Z" fill="#7C0E73"/>
<path d="M645.758 176.866C645.773 176.43 645.805 176.177 645.805 176.177C645.983 175.502 646.202 174.867 646.467 174.268C646.204 174.868 645.984 175.503 645.806 176.176C645.806 176.176 645.774 176.43 645.759 176.865C645.758 176.866 645.759 176.865 645.758 176.866Z" fill="#000072"/>
<path d="M767.774 177.937C767.759 177.501 767.727 177.248 767.727 177.248C767.549 176.573 767.33 175.938 767.065 175.339C767.327 175.939 767.548 176.574 767.725 177.247C767.725 177.247 767.757 177.501 767.773 177.936C767.774 177.937 767.773 177.936 767.774 177.937Z" fill="#000072"/>
<path d="M681.392 184.828C681.543 184.749 681.692 184.664 681.842 184.572C682.478 184.178 683.04 183.652 683.522 183.03C683.523 183.031 683.522 183.031 683.523 183.031C683.041 183.653 682.48 184.178 681.844 184.571C681.694 184.663 681.543 184.749 681.392 184.828Z" fill="#7C0E73"/>
<path d="M732.14 185.899C731.988 185.821 731.839 185.736 731.69 185.643C731.054 185.249 730.491 184.723 730.009 184.101C730.008 184.102 730.009 184.102 730.008 184.102C730.49 184.724 731.051 185.249 731.687 185.642C731.838 185.734 731.988 185.821 732.14 185.899Z" fill="#7C0E73"/>
<path d="M683.524 183.032C683.522 183.032 683.524 183.032 683.522 183.031C684.057 182.341 684.491 181.533 684.817 180.651L684.818 180.653C684.492 181.534 684.058 182.343 683.524 183.032Z" fill="#FF5F9C"/>
<path d="M730.009 184.102C730.01 184.102 730.009 184.102 730.01 184.101C729.476 183.412 729.041 182.603 728.715 181.722L728.714 181.723C729.04 182.604 729.475 183.413 730.009 184.102Z" fill="#7C3A8E"/>
<path d="M684.818 180.652L684.817 180.651C685.288 179.373 685.53 177.942 685.507 176.498C685.53 177.942 685.289 179.373 684.818 180.652Z" fill="#000072"/>
<path d="M728.714 181.723L728.715 181.721C728.244 180.444 728.002 179.012 728.024 177.568C728.002 179.012 728.242 180.444 728.714 181.723Z" fill="#000072"/>
<path d="M767.725 177.247C767.725 177.247 768.755 185.368 762.017 188.589C759.429 189.825 755.046 188.216 755.046 188.216C755.046 188.216 753.212 191.18 746.817 190.497C742.809 190.069 738.543 186.488 738.543 186.488C738.543 186.488 734.83 187.59 731.69 185.643C727.28 182.908 726.392 173.884 731.559 169.895C736.539 166.052 763.695 161.906 767.725 177.247Z" fill="#D79863"/>
<path d="M814.156 182.382C719.489 170.758 736.859 130.421 743.674 118.8C744.397 117.564 745.104 116.236 745.783 114.843C749.303 107.672 752.211 98.8745 753.937 93.1374C754.839 90.1329 755.602 87.0846 756.286 84.0212C770.585 20.3653 832.752 30.9306 832.752 30.9306C832.752 30.9306 895.628 35.7186 894.103 100.943C894.026 104.081 894.028 107.223 894.177 110.357C894.52 117.501 895.44 129.291 897.927 137.74C901.728 150.665 908.823 194.005 814.156 182.382Z" fill="#A6744A"/>
<path d="M769.586 173.606C766.394 171.872 763.456 170.077 760.766 168.273C760.948 167.895 761.127 167.533 761.305 167.187C763.975 168.494 766.857 169.728 769.944 170.885C769.796 171.813 769.678 172.721 769.586 173.606Z" fill="#8B5C35"/>
<path d="M802.038 185.447C789.173 182.719 778.408 178.396 769.586 173.606C769.678 172.721 769.796 171.813 769.944 170.885C777.042 173.546 785.233 175.804 794.514 177.658C794.641 177.909 794.773 178.157 794.912 178.401C796.537 181.275 798.96 183.651 802.038 185.447Z" fill="#8B5C35"/>
<path d="M859.525 184.649C859.649 183.769 859.755 182.859 859.835 181.923C863.118 181.546 866.22 181.044 869.133 180.419C869.222 180.797 869.309 181.192 869.395 181.601C866.342 182.703 863.049 183.737 859.525 184.649Z" fill="#8B5C35"/>
<path d="M825.174 188.288C828.594 187.29 831.52 185.571 833.792 183.176C833.986 182.972 834.174 182.763 834.357 182.55C843.811 182.997 852.305 182.787 859.836 181.923C859.755 182.859 859.65 183.769 859.525 184.65C849.807 187.163 838.316 188.753 825.174 188.288Z" fill="#8B5C35"/>
<path d="M744.308 130.865C717.36 125.665 715.311 111.389 720.765 97.6739C724.944 87.1427 733.544 76.9392 738.7 71.4144C741.419 68.5014 743.607 65.1414 745.237 61.5021C766.932 13.0142 798.908 33.3153 798.908 33.3153C798.908 33.3153 798.924 33.9926 798.934 35.2295C799.005 49.7077 797.366 141.102 744.308 130.865Z" fill="#A6744A"/>
<path d="M737.488 126.76C728.678 123.977 723.289 119.697 721.43 113.988C720.046 109.736 720.632 104.947 722.316 100.131C724.422 102.752 727.366 104.236 730.431 104.612C735.676 105.256 741.275 102.659 743.636 96.972C745.762 91.8498 747.979 85.8032 749.68 79.4761C752.857 67.6562 765.64 43.0596 786.577 36.6977C773.255 44.0665 759.771 57.8372 754.006 83.509C753.235 86.9435 752.502 89.7894 751.697 92.4645C749.846 98.6187 746.081 110.07 741.657 117.617C740.279 119.967 738.696 123.106 737.488 126.76Z" fill="#8B5C35"/>
<path d="M894.392 149.293C921.799 150.767 927.24 137.411 925.266 122.783C923.759 111.554 917.883 99.5732 914.216 92.9652C912.282 89.4809 910.973 85.6914 910.272 81.766C900.951 29.4697 865.014 41.4321 865.014 41.4321C865.014 41.4321 864.834 42.0854 864.525 43.2831C860.954 57.3141 840.434 146.39 894.392 149.293Z" fill="#A6744A"/>
<path d="M902.003 146.96C901.715 143.122 900.939 139.693 900.17 137.08C897.703 128.688 896.82 116.665 896.513 110.245C896.379 107.455 896.356 104.516 896.439 100.997C897.056 74.6934 887.304 58.0697 876.16 47.6969C894.938 58.9352 901.389 85.8935 901.612 98.1307C901.732 104.681 902.421 111.085 903.244 116.569C904.159 122.658 908.962 126.533 914.208 127.177C917.273 127.553 920.489 126.826 923.167 124.792C923.636 129.873 923.046 134.661 920.673 138.452C917.489 143.541 911.225 146.391 902.003 146.96Z" fill="#8B5C35"/>
<path d="M897.927 137.74C897.524 136.365 897.159 134.906 896.837 133.39C892.054 130.217 883.658 126.829 871.639 129.798C860.75 132.487 849.307 128.336 842.683 119.284C842.098 118.484 841.508 117.646 840.914 116.767C838.935 113.843 837.088 111.264 835.402 109.013C829.671 101.357 818.704 100.011 811.291 106.052C809.11 107.829 806.695 109.884 804.067 112.243C803.278 112.952 802.502 113.623 801.742 114.257C793.124 121.438 781.017 122.697 771.102 117.453C760.158 111.665 751.193 112.921 745.783 114.843C745.104 116.236 744.397 117.564 743.674 118.8C736.859 130.421 719.489 170.758 814.156 182.382C908.823 194.005 901.728 150.665 897.927 137.74Z" fill="#D79863"/>
<path d="M743.71 123.757C744.373 122.335 745.057 121.064 745.691 119.983C745.72 119.933 745.749 119.884 745.778 119.834C745.741 119.911 745.703 119.988 745.665 120.066C745.034 121.36 744.379 122.596 743.71 123.757Z" fill="#D79863"/>
<path d="M840.49 132.268C839.731 138.45 830.025 143.917 819.045 142.568C808.065 141.22 799.969 133.568 800.729 127.386C801.488 121.203 811.004 117.285 821.984 118.633C832.963 119.981 841.249 126.085 840.49 132.268Z" fill="#434343"/>
<path d="M831.854 125.531C831.726 126.568 826.896 126.83 821.065 126.114C815.235 125.398 810.611 123.976 810.739 122.938C810.866 121.9 815.696 121.639 821.527 122.355C827.358 123.071 831.981 124.493 831.854 125.531Z" fill="#D79863"/>
<path d="M789.077 132.869C789.07 136.555 789.914 140.384 791.862 143.197C792.856 144.587 794.08 145.75 795.561 146.536L796.115 146.829L796.694 147.079C797.07 147.264 797.491 147.372 797.882 147.526C798.298 147.637 798.705 147.765 799.13 147.855C799.561 147.926 799.972 148.051 800.414 148.094C801.271 148.223 802.192 148.3 803.086 148.334C803.534 148.355 803.982 148.367 804.424 148.351C804.87 148.353 805.308 148.317 805.745 148.285C806.186 148.262 806.613 148.189 807.046 148.143C807.468 148.058 807.9 148.006 808.311 147.892C809.146 147.703 809.949 147.437 810.723 147.119C812.278 146.496 813.713 145.628 815.022 144.512C815.675 143.953 816.293 143.331 816.884 142.658C817.174 142.318 817.462 141.968 817.741 141.606C818.011 141.249 818.288 140.843 818.523 140.506L818.595 140.402C818.844 140.047 819.333 139.959 819.689 140.207C819.923 140.371 820.041 140.641 820.023 140.906C819.982 141.504 819.891 142.005 819.754 142.536C819.624 143.059 819.447 143.568 819.241 144.068C818.824 145.065 818.277 146.021 817.605 146.896C816.269 148.649 814.446 150.084 812.414 150.998C811.399 151.456 810.343 151.815 809.271 152.044C808.738 152.181 808.2 152.249 807.664 152.347C807.127 152.403 806.588 152.489 806.053 152.51C805.517 152.538 804.981 152.566 804.45 152.552C803.917 152.558 803.389 152.533 802.864 152.497C801.809 152.435 800.786 152.296 799.72 152.099C797.615 151.707 795.493 150.965 793.62 149.73C792.686 149.12 791.806 148.407 791.049 147.582C790.283 146.77 789.613 145.868 789.095 144.898C788.568 143.934 788.152 142.928 787.838 141.907C787.529 140.882 787.336 139.841 787.22 138.804C787.098 137.768 787.08 136.731 787.129 135.705C787.178 134.671 787.296 133.683 787.535 132.634C787.63 132.215 788.049 131.951 788.47 132.046C788.832 132.129 789.078 132.452 789.077 132.809L789.077 132.869Z" fill="#434343"/>
<path d="M821.871 140.663C821.872 140.633 821.873 140.655 821.874 140.668L821.879 140.716L821.893 140.836L821.931 141.102C821.959 141.286 821.997 141.475 822.037 141.665C822.122 142.045 822.228 142.427 822.344 142.806C822.589 143.562 822.906 144.293 823.284 144.987C824.054 146.366 825.084 147.581 826.352 148.563C826.985 149.053 827.664 149.501 828.399 149.884C828.755 150.092 829.148 150.247 829.523 150.432C829.919 150.581 830.3 150.759 830.711 150.887C831.117 151.023 831.523 151.163 831.946 151.267C832.36 151.395 832.788 151.495 833.219 151.589C834.075 151.784 834.975 151.928 835.815 152.016C837.522 152.195 839.196 152.125 840.75 151.71C842.313 151.314 843.721 150.52 844.966 149.446C847.463 147.296 849.259 143.933 850.472 140.407L850.492 140.348C850.634 139.937 851.08 139.72 851.49 139.86C851.798 139.966 851.998 140.247 852.018 140.553C852.089 141.639 852.014 142.645 851.865 143.685C851.717 144.716 851.473 145.741 851.134 146.748C850.466 148.762 849.384 150.722 847.842 152.382C847.079 153.216 846.179 153.946 845.21 154.565C844.244 155.196 843.186 155.685 842.102 156.057C841.017 156.452 839.897 156.654 838.781 156.82C838.226 156.869 837.664 156.927 837.111 156.937C836.562 156.928 835.999 156.963 835.459 156.912C834.354 156.851 833.317 156.734 832.259 156.552C831.731 156.464 831.203 156.366 830.675 156.234C830.147 156.118 829.623 155.961 829.1 155.802C828.574 155.652 828.058 155.442 827.538 155.258C827.026 155.033 826.507 154.838 826.007 154.573C824.993 154.089 824.02 153.482 823.105 152.786C822.19 152.09 821.329 151.304 820.567 150.424C819.808 149.542 819.144 148.575 818.587 147.557C818.027 146.537 817.597 145.457 817.266 144.348C817.104 143.792 816.968 143.228 816.87 142.65C816.821 142.359 816.777 142.068 816.744 141.767L816.702 141.305L816.686 141.06L816.674 140.749C816.651 139.314 817.795 138.131 819.23 138.107C820.665 138.083 821.848 139.228 821.871 140.663Z" fill="#434343"/>
<path d="M802.176 102.371C801.369 108.939 796.524 113.75 791.354 113.115C786.184 112.48 782.647 106.64 783.454 100.072C784.26 93.5033 789.105 88.6929 794.275 89.3277C799.445 89.9624 802.982 95.8021 802.176 102.371Z" fill="#434343"/>
<path d="M799.297 100.353C798.963 103.073 796.957 105.065 794.815 104.802C792.674 104.539 791.209 102.121 791.543 99.4009C791.877 96.6808 793.884 94.6878 796.025 94.9507C798.166 95.2137 799.631 97.6329 799.297 100.353Z" fill="white"/>
<path d="M795.997 95.1772C793.985 94.9302 792.089 96.8373 791.77 99.4287C791.452 102.02 792.831 104.328 794.843 104.576C796.856 104.823 798.753 102.916 799.071 100.325C799.389 97.7338 798.01 95.4244 795.997 95.1772ZM794.788 105.029C792.525 104.751 790.968 102.214 791.317 99.373C791.666 96.5315 793.791 94.4463 796.053 94.7241C798.316 95.0019 799.873 97.5392 799.524 100.381C799.176 103.221 797.051 105.307 794.788 105.029Z" fill="#434343"/>
<path d="M845.137 107.645C844.33 114.214 847.867 120.053 853.037 120.688C858.207 121.323 863.052 116.512 863.859 109.944C864.665 103.375 861.128 97.5357 855.958 96.9009C850.788 96.2661 845.943 101.076 845.137 107.645Z" fill="#434343"/>
<path d="M848.418 106.384C848.084 109.104 849.549 111.522 851.691 111.785C853.832 112.048 855.838 110.056 856.172 107.336C856.506 104.616 855.041 102.197 852.901 101.934C850.759 101.671 848.752 103.664 848.418 106.384Z" fill="white"/>
<path d="M813.149 190.62C830.048 192.695 837.558 181.862 835.611 170.85C834.706 165.729 836.684 154.522 836.684 154.522C836.684 154.522 818.495 153.74 819.456 139.214C816.875 153.541 799.037 149.899 799.037 149.899C799.037 149.899 798.244 161.252 796.128 166.002C791.575 176.216 796.24 188.544 813.14 190.619L813.149 190.62Z" fill="#FF9FCF"/>
<path d="M821.778 139.499C821.669 142.446 821.361 145.367 821.027 148.286C820.673 151.202 820.246 154.109 819.758 157.009C819.269 159.909 818.738 162.803 818.045 165.678C817.349 168.552 816.571 171.416 815.474 174.241C815.409 174.408 815.22 174.492 815.053 174.426C814.937 174.382 814.863 174.279 814.847 174.164C814.466 171.158 814.405 168.191 814.425 165.233C814.447 162.276 814.632 159.339 814.86 156.407C815.088 153.476 815.376 150.551 815.739 147.637C816.121 144.724 816.528 141.814 817.136 138.929C817.402 137.66 818.647 136.848 819.915 137.115C821.052 137.354 821.821 138.377 821.778 139.499Z" fill="#F274B4"/>
<path d="M811.387 131.209C811.387 131.209 802.559 143.704 788.306 132.753C788.306 132.753 784.978 148.278 801.413 150.296C817.848 152.314 819.843 136.064 819.843 136.064L811.387 131.209Z" fill="#D79863"/>
<path d="M829.222 133.399C829.222 133.399 834.766 147.658 851.245 140.48C851.245 140.48 850.718 156.35 834.282 154.332C817.848 152.314 819.843 136.063 819.843 136.063L829.222 133.399Z" fill="#D79863"/>
<path d="M804.861 136.228C802.303 133.816 800.77 131.037 800.683 128.434C802.303 122.845 811.364 119.423 821.73 120.696C832.096 121.968 840.061 127.481 840.28 133.296C839.565 135.8 837.407 138.126 834.34 139.847C830.686 137.16 829.223 133.399 829.223 133.399L819.843 136.063C819.843 136.063 819.797 136.441 819.776 137.089C819.756 137.087 819.736 137.083 819.716 137.081C819.697 137.079 819.678 137.077 819.66 137.075C819.797 136.441 819.843 136.063 819.843 136.063L811.387 131.209C811.387 131.209 809.058 134.504 804.861 136.228ZM821.526 122.355C815.696 121.639 810.866 121.9 810.738 122.938C810.611 123.976 815.234 125.398 821.065 126.114C826.896 126.83 831.726 126.568 831.853 125.53C831.981 124.493 827.357 123.071 821.526 122.355Z" fill="#434343"/>
<path d="M821.065 126.114C815.235 125.398 810.611 123.976 810.739 122.938C810.866 121.9 815.696 121.639 821.527 122.355C827.358 123.071 831.981 124.493 831.854 125.531C831.726 126.568 826.896 126.83 821.065 126.114Z" fill="#B2B2D4"/>
<path d="M796.581 151.231C795.555 150.842 794.556 150.347 793.62 149.73C792.686 149.12 791.806 148.407 791.049 147.583C790.283 146.77 789.613 145.868 789.095 144.898C788.568 143.935 788.152 142.928 787.837 141.907C787.529 140.882 787.336 139.841 787.219 138.804C787.098 137.768 787.08 136.731 787.129 135.706C787.154 135.18 787.197 134.665 787.264 134.149C787.589 133.25 787.908 132.527 788.136 132.043C788.218 132.027 788.304 132.023 788.39 132.033C788.416 132.036 788.443 132.04 788.47 132.047C788.546 132.064 788.617 132.092 788.681 132.129C788.773 132.406 788.901 132.747 789.077 133.135C789.079 133.2 789.079 133.264 789.08 133.329C788.824 133.144 788.565 132.952 788.306 132.752C788.306 132.752 785.66 145.098 796.741 149.203L796.703 149.736C796.675 150.142 796.634 150.649 796.581 151.231Z" fill="#434343"/>
<path d="M838.68 156.829C838.794 156.073 838.901 155.424 838.988 154.928L839.079 154.401C850.826 153.101 851.245 140.481 851.245 140.481C850.929 140.618 850.617 140.748 850.309 140.87C850.331 140.81 850.352 140.751 850.373 140.691C850.62 140.382 850.818 140.102 850.971 139.865C851.084 139.824 851.207 139.809 851.329 139.824C851.384 139.831 851.437 139.844 851.49 139.861C851.523 139.873 851.555 139.887 851.586 139.901C851.714 140.555 851.881 141.569 851.973 142.802C851.944 143.096 851.908 143.389 851.865 143.686C851.717 144.717 851.473 145.742 851.134 146.749C850.466 148.763 849.384 150.723 847.842 152.383C847.079 153.217 846.179 153.946 845.21 154.565C844.244 155.197 843.186 155.686 842.102 156.058C841.017 156.453 839.897 156.655 838.781 156.82C838.747 156.823 838.714 156.826 838.68 156.829Z" fill="#434343"/>
<path d="M840.49 132.268C839.731 138.45 830.025 143.916 819.045 142.568C808.065 141.22 799.969 133.568 800.728 127.386C801.488 121.204 811.004 117.285 821.983 118.633C832.963 119.981 841.249 126.086 840.49 132.268Z" fill="#434343"/>
<path d="M831.854 125.531C831.726 126.568 826.896 126.83 821.065 126.114C815.235 125.398 810.611 123.976 810.739 122.938C810.866 121.9 815.696 121.639 821.527 122.355C827.358 123.071 831.981 124.493 831.854 125.531Z" fill="white"/>
<path d="M821.784 141.376L821.698 141.676L821.623 141.91L821.47 142.347C821.365 142.631 821.253 142.904 821.135 143.173C820.9 143.71 820.631 144.225 820.34 144.726C819.75 145.721 819.071 146.666 818.282 147.519C817.494 148.373 816.617 149.15 815.667 149.822C814.714 150.492 813.688 151.047 812.632 151.5C811.577 151.954 810.485 152.308 809.384 152.532C808.836 152.668 808.284 152.732 807.733 152.825C807.184 152.879 806.632 152.958 806.086 152.976C805.54 153.004 804.993 153.03 804.453 153.014C803.909 153.014 803.373 152.982 802.839 152.939C801.769 152.86 800.734 152.723 799.647 152.515C799.111 152.434 798.573 152.264 798.038 152.139C797.504 151.996 796.973 151.804 796.447 151.622C795.404 151.191 794.365 150.724 793.409 150.078C792.447 149.455 791.538 148.724 790.754 147.878C789.963 147.043 789.267 146.118 788.728 145.124C787.634 143.14 787.057 140.977 786.897 138.861C786.811 137.802 786.823 136.748 786.928 135.712C787.035 134.667 787.206 133.672 787.538 132.636C787.67 132.222 788.112 131.994 788.525 132.126C788.835 132.225 789.041 132.5 789.068 132.805L789.073 132.868C789.397 136.583 790.326 140.28 792.229 142.97C793.177 144.314 794.351 145.425 795.772 146.188C797.179 146.966 798.787 147.439 800.486 147.678C801.323 147.796 802.231 147.874 803.109 147.892C803.55 147.905 803.989 147.911 804.421 147.887C804.857 147.888 805.285 147.852 805.711 147.818C806.141 147.792 806.554 147.712 806.975 147.664C807.383 147.575 807.802 147.52 808.198 147.403C809.003 147.21 809.771 146.94 810.504 146.617C811.972 145.971 813.265 145.041 814.345 143.889C814.88 143.308 815.365 142.675 815.785 142C815.99 141.661 816.185 141.316 816.36 140.968C816.444 140.793 816.526 140.618 816.599 140.447L816.699 140.198L816.742 140.086L816.758 140.04C816.763 140.027 816.769 140.006 816.762 140.036C817.132 138.649 818.557 137.824 819.944 138.195C821.33 138.565 822.154 139.99 821.784 141.376Z" fill="#434343"/>
<path d="M821.872 140.663C821.872 140.633 821.873 140.655 821.874 140.668L821.879 140.716L821.893 140.836L821.931 141.102C821.959 141.286 821.997 141.475 822.036 141.665C822.122 142.045 822.228 142.427 822.344 142.806C822.589 143.562 822.906 144.293 823.284 144.987C824.054 146.366 825.084 147.581 826.352 148.563C826.985 149.053 827.664 149.501 828.399 149.884C828.755 150.092 829.148 150.247 829.523 150.432C829.919 150.581 830.3 150.759 830.711 150.887C831.117 151.023 831.523 151.163 831.946 151.267C832.361 151.395 832.788 151.495 833.219 151.589C834.075 151.784 834.975 151.928 835.815 152.016C837.522 152.195 839.196 152.125 840.75 151.71C842.313 151.314 843.721 150.52 844.966 149.446C847.463 147.296 849.259 143.933 850.472 140.407L850.492 140.348C850.634 139.937 851.08 139.72 851.49 139.86C851.798 139.966 851.998 140.247 852.018 140.553C852.089 141.639 852.014 142.645 851.865 143.685C851.717 144.716 851.473 145.741 851.134 146.748C850.466 148.762 849.384 150.722 847.842 152.382C847.079 153.216 846.179 153.946 845.21 154.565C844.244 155.196 843.186 155.685 842.102 156.057C841.017 156.452 839.897 156.654 838.781 156.82C838.226 156.869 837.664 156.927 837.111 156.937C836.562 156.928 835.999 156.963 835.459 156.912C834.354 156.851 833.317 156.734 832.259 156.552C831.731 156.464 831.203 156.366 830.675 156.234C830.147 156.118 829.623 155.961 829.1 155.802C828.574 155.652 828.058 155.442 827.538 155.257C827.027 155.033 826.507 154.838 826.007 154.573C824.993 154.089 824.02 153.482 823.105 152.786C822.19 152.09 821.329 151.304 820.567 150.424C819.808 149.542 819.145 148.576 818.587 147.557C818.027 146.537 817.597 145.457 817.266 144.348C817.104 143.792 816.968 143.228 816.87 142.65C816.821 142.359 816.777 142.068 816.744 141.767L816.702 141.306L816.686 141.06L816.674 140.749C816.651 139.314 817.795 138.131 819.23 138.107C820.665 138.083 821.848 139.228 821.872 140.663Z" fill="#434343"/>
<path d="M554.86 183.217C552.708 182.98 550.741 182.723 549.005 182.455C551.074 182.728 553.024 182.982 554.86 183.217C572.449 185.156 602.395 185.737 619.632 179.053C620.459 178.718 621.197 178.406 621.834 178.126C621.126 178.45 620.391 178.758 619.632 179.053C612.411 181.977 598.43 186.641 586.183 186.275C584.513 186.275 582.172 186.722 554.86 183.217Z" fill="#B2B2D4"/>
<path d="M549.005 182.455C565.557 185.002 603.092 186.683 621.834 178.126C615.638 180.843 599.833 186.683 586.183 186.275C584.401 186.275 581.854 186.784 549.005 182.455Z" stroke="#B2B2D4" stroke-width="0.509296"/>
<path d="M58.5997 249.349C59.3724 250.269 59.5524 251.689 61.159 251.981C66.5849 252.988 70.874 255.197 75.7741 256.742C77.6421 257.328 79.3438 257.234 80.7396 255.388C81.8165 253.937 80.5873 253.433 79.5381 252.779C76.0107 250.588 70.482 250.718 66.6 248.902C65.0523 248.191 63.4164 247.402 61.2561 247.423C59.6863 247.432 58.512 247.97 58.5997 249.349Z" fill="#FEA273"/>
<path d="M96.6585 260.811C96.8656 261.429 97.6266 261.892 98.5635 262.242C102.13 263.544 106.186 264.118 110.254 264.715C112.417 265.029 114.027 264.401 115.111 262.645C116.373 260.563 114.788 260.312 112.71 260.138C109.22 259.869 105.692 259.631 102.744 258.482C101.431 257.963 99.8626 258.133 98.2613 258.822C97.3068 259.242 96.5251 259.818 96.6585 260.811Z" fill="#FEA273"/>
<path d="M327.663 156.653C326.598 157.052 325.634 157.398 324.688 157.783C323.519 158.274 322.341 158.861 322.58 159.862C322.787 160.748 323.079 161.601 325.022 161.318C328.97 160.742 332.928 160.34 336.871 159.799C338.553 159.553 339.957 158.926 340.76 157.58C341.804 155.838 341.793 154.671 338.85 155.058C335.099 155.523 331.333 156.122 327.663 156.653Z" fill="#FEA273"/>
<path d="M173.311 259.399C177.235 257.088 182.544 255.506 187.607 253.384C188.464 253.032 189.156 252.254 189.788 251.625C190.454 250.953 190.789 250.171 190.111 249.674C189.62 249.312 188.674 249.477 187.899 249.796C182.215 252.079 176.532 254.365 170.892 256.743C169.431 257.36 167.608 258.391 168.231 259.574C168.86 260.725 170.806 260.076 173.311 259.399Z" fill="#FEA273"/>
<path d="M18.1077 224.794C17.0291 221.265 13.709 219.04 11.4663 216.284C10.7994 215.48 9.63194 215.652 8.4777 216.454C7.18998 217.336 5.72808 218.337 7.07402 219.363C9.77245 221.436 11.1902 224.183 13.2857 226.569C14.0088 227.38 14.5449 228.598 16.6042 227.762C18.6006 226.949 17.9413 225.733 18.1077 224.794Z" fill="#FEA273"/>
<path d="M294.415 168.202C290.206 170.005 285.915 171.523 282.132 173.765C280.273 174.872 279.086 176.192 280.716 177.411C282.103 178.472 283.433 177.508 284.711 176.549C287.446 174.528 290.929 173.691 294.016 172.215C294.385 172.038 294.795 171.957 295.2 171.861C297.683 171.24 299.705 170.053 299.249 168.296C298.716 166.22 295.942 168.382 294.415 168.202Z" fill="#FEA273"/>
<path d="M30.8685 236.038C32.5576 239.058 35.7097 241.19 39.5692 242.856C40.4666 243.235 41.4177 243.022 42.1855 242.309C43.167 241.401 44.1387 240.101 43.3202 239.518C40.3881 237.426 38.313 234.605 33.9506 233.69C32.0081 233.261 30.4722 234.48 30.8685 236.038Z" fill="#FEA273"/>
<path d="M140.378 266.589C142.96 266.073 145.595 265.788 147.372 263.68C148.757 262.031 148.275 261.044 145.861 261.542C141.549 262.419 137.257 263.714 132.897 264.484C131.531 264.716 129.542 265.54 129.661 266.986C129.761 268.185 131.453 267.904 132.719 267.996C135.29 268.165 137.846 267.103 140.378 266.589Z" fill="#FEA273"/>
<path d="M254.754 200.392C256.458 199.917 263.801 193.224 263.9 192.028C264.028 190.519 262.746 190.115 260.939 190.964C257.434 192.617 254.457 194.814 252.564 197.425C251.181 199.299 252.729 200.977 254.754 200.392Z" fill="#FEA273"/>
<path d="M232.05 225.354C232.51 226.143 233.024 226.656 234.09 226.586C235.272 226.506 236.553 226.196 237.231 225.233C239.269 222.342 241.263 219.469 243.195 216.571C243.619 215.915 243.963 215.098 243.083 214.697C242.177 214.305 241.197 214.94 240.313 215.349C238.971 215.953 237.649 216.82 237.262 217.764C236.414 219.825 234.608 221.594 233.093 223.454C232.572 224.101 232.334 224.831 232.05 225.354Z" fill="#FEA273"/>
<path d="M370.192 154.805C368.703 155.258 367.179 155.521 366.706 156.768C366.267 157.923 367.074 158.593 368.385 158.793C371.156 159.233 373.798 160.09 377.188 159.114C378.619 158.697 379.876 158.064 380.235 156.893C380.577 155.742 379.841 155.064 378.468 154.901C375.799 154.579 373.068 154.283 370.192 154.805Z" fill="#FEA273"/>
<path d="M213.454 236.491C208.397 238.135 205.382 240.631 202.332 243.059C200.922 244.165 199.996 245.513 201.628 246.348C202.945 247.039 204.71 246.43 205.847 245.383C208.685 242.768 212.768 240.474 213.454 236.491Z" fill="#FEA273"/>
<path d="M-2.64182 209.962C-0.794618 205.258 -4.00913 203.04 -6.77024 200.675C-7.22666 200.282 -8.17287 200.557 -8.94256 200.938C-10.5086 201.707 -10.1708 202.719 -9.66182 203.17C-7.30378 205.201 -6.60717 208.18 -2.64182 209.962Z" fill="#FEA273"/>
<path d="M1315.66 124.57C1314.89 123.65 1314.71 122.23 1313.1 121.938C1307.68 120.931 1303.39 118.722 1298.49 117.177C1296.62 116.591 1294.92 116.685 1293.52 118.531C1292.45 119.982 1293.67 120.486 1294.72 121.14C1298.25 123.331 1303.78 123.201 1307.66 125.017C1309.21 125.728 1310.85 126.517 1313.01 126.496C1314.58 126.487 1315.75 125.949 1315.66 124.57Z" fill="#FEA273"/>
<path d="M1428.46 186.693C1434.25 191.081 1443.3 190.097 1451.53 190.371C1453.94 190.447 1455.51 189.038 1456.05 187.62C1456.59 186.237 1454.82 185.851 1453.22 186.015C1445.5 186.746 1438.44 185.824 1431.05 185.762C1430.25 185.757 1429.5 185.862 1428.46 186.693Z" fill="#FEA273"/>
<path d="M1277.6 113.107C1277.4 112.49 1276.64 112.027 1275.7 111.677C1272.13 110.375 1268.08 109.801 1264.01 109.204C1261.84 108.89 1260.23 109.518 1259.15 111.274C1257.89 113.356 1259.47 113.607 1261.55 113.781C1265.04 114.05 1268.57 114.288 1271.52 115.437C1272.83 115.956 1274.4 115.786 1276 115.097C1276.95 114.677 1277.74 114.101 1277.6 113.107Z" fill="#FEA273"/>
<path d="M1046.6 217.265C1047.66 216.867 1048.63 216.521 1049.57 216.136C1050.74 215.645 1051.92 215.058 1051.68 214.057C1051.47 213.171 1051.18 212.317 1049.24 212.601C1045.29 213.177 1041.33 213.578 1037.39 214.12C1035.71 214.366 1034.3 214.993 1033.5 216.339C1032.46 218.081 1032.47 219.248 1035.41 218.861C1039.16 218.396 1042.93 217.797 1046.6 217.265Z" fill="#FEA273"/>
<path d="M1200.95 114.52C1197.03 116.831 1191.72 118.413 1186.66 120.535C1185.8 120.887 1185.11 121.665 1184.47 122.294C1183.81 122.966 1183.47 123.748 1184.15 124.245C1184.64 124.607 1185.59 124.442 1186.36 124.123C1192.05 121.84 1197.73 119.554 1203.37 117.176C1204.83 116.559 1206.65 115.528 1206.03 114.345C1205.4 113.194 1203.46 113.843 1200.95 114.52Z" fill="#FEA273"/>
<path d="M1396.42 180.383C1396.68 180.726 1396.98 181.337 1397.46 181.833C1400.1 184.531 1404.62 185.475 1408.75 186.748C1409.88 187.086 1411.78 187.359 1412.97 185.829C1414.17 184.266 1412.64 184.073 1411.21 183.691C1406.9 182.52 1403.62 180.376 1400.17 178.393C1399.28 177.884 1398.89 176.752 1397.07 177.795C1395.74 178.537 1396.2 179.374 1396.42 180.383Z" fill="#FEA273"/>
<path d="M1356.15 149.125C1357.23 152.654 1360.55 154.879 1362.8 157.635C1363.46 158.439 1364.63 158.267 1365.78 157.465C1367.07 156.583 1368.53 155.582 1367.19 154.556C1364.49 152.483 1363.07 149.736 1360.98 147.35C1360.25 146.539 1359.72 145.321 1357.66 146.157C1355.66 146.97 1356.32 148.186 1356.15 149.125Z" fill="#FEA273"/>
<path d="M1079.85 205.717C1084.06 203.913 1088.35 202.396 1092.13 200.154C1093.99 199.047 1095.18 197.727 1093.55 196.508C1092.16 195.447 1090.83 196.411 1089.55 197.37C1086.82 199.391 1083.33 200.228 1080.25 201.704C1079.88 201.881 1079.47 201.962 1079.06 202.057C1076.58 202.679 1074.56 203.866 1075.01 205.622C1075.55 207.699 1078.32 205.537 1079.85 205.717Z" fill="#FEA273"/>
<path d="M1343.39 137.881C1341.7 134.86 1338.55 132.728 1334.69 131.063C1333.8 130.684 1332.84 130.897 1332.08 131.609C1331.09 132.518 1330.12 133.818 1330.94 134.401C1333.87 136.493 1335.95 139.314 1340.31 140.229C1342.25 140.658 1343.79 139.439 1343.39 137.881Z" fill="#FEA273"/>
<path d="M1233.88 107.33C1231.3 107.846 1228.67 108.131 1226.89 110.239C1225.51 111.888 1225.99 112.875 1228.4 112.377C1232.71 111.5 1237 110.204 1241.36 109.434C1242.73 109.203 1244.72 108.379 1244.6 106.932C1244.5 105.734 1242.81 106.015 1241.54 105.923C1238.97 105.754 1236.42 106.816 1233.88 107.33Z" fill="#FEA273"/>
<path d="M1119.51 173.527C1117.8 174.002 1110.46 180.695 1110.36 181.891C1110.23 183.4 1111.52 183.804 1113.32 182.955C1116.83 181.302 1119.8 179.105 1121.7 176.494C1123.08 174.62 1121.53 172.942 1119.51 173.527Z" fill="#FEA273"/>
<path d="M1142.21 148.565C1141.75 147.776 1141.24 147.263 1140.17 147.333C1138.99 147.413 1137.71 147.723 1137.03 148.686C1134.99 151.577 1133 154.45 1131.07 157.348C1130.64 158.004 1130.3 158.821 1131.18 159.222C1132.08 159.614 1133.07 158.979 1133.95 158.57C1135.29 157.966 1136.61 157.099 1137 156.155C1137.85 154.094 1139.65 152.325 1141.17 150.465C1141.69 149.817 1141.93 149.088 1142.21 148.565Z" fill="#FEA273"/>
<path d="M1004.07 219.114C1005.56 218.661 1007.08 218.397 1007.56 217.15C1008 215.996 1007.19 215.326 1005.88 215.126C1003.11 214.685 1000.46 213.828 997.074 214.805C995.643 215.222 994.386 215.855 994.026 217.026C993.685 218.177 994.421 218.855 995.793 219.018C998.463 219.34 1001.19 219.636 1004.07 219.114Z" fill="#FEA273"/>
<path d="M1160.81 137.427C1165.86 135.784 1168.88 133.288 1171.93 130.86C1173.34 129.754 1174.27 128.406 1172.63 127.571C1171.32 126.88 1169.55 127.489 1168.41 128.536C1165.58 131.151 1161.49 133.445 1160.81 137.427Z" fill="#FEA273"/>
<path d="M1376.9 163.957C1375.06 168.661 1378.27 170.879 1381.03 173.244C1381.49 173.637 1382.43 173.362 1383.2 172.981C1384.77 172.212 1384.43 171.2 1383.92 170.749C1381.57 168.718 1380.87 165.739 1376.9 163.957Z" fill="#FEA273"/>
</svg>
