<svg width="1440" height="323" viewBox="0 0 1440 323" fill="none" xmlns="http://www.w3.org/2000/svg">
<path fill-rule="evenodd" clip-rule="evenodd" d="M1763 288.463V51.4629C1607.1 63.4629 1421.66 21.4629 1256.82 15.4629C1091.99 9.46289 907.853 30.7477 740.347 51.4629C526.063 77.9629 372.906 89.9629 249.281 82.9629C85.6282 73.6964 -50.1666 60.4629 -132.583 30.4629L-215 0.462891V288.463H-132.583C-50.1666 288.463 114.667 288.463 279.5 288.463C444.333 288.463 609.167 288.463 774 288.463C938.833 288.463 1103.67 288.463 1268.5 288.463C1433.33 288.463 1598.17 288.463 1680.58 288.463H1763Z" fill="#FFBF41"/>
<path fill-rule="evenodd" clip-rule="evenodd" d="M0 323V86C113.579 98 248.673 56 368.756 50C488.839 44 622.986 65.2848 745.017 86C901.125 112.5 1012.7 124.5 1102.77 117.5C1221.99 108.234 1320.92 95 1380.96 65L1441 35V323H1380.96C1320.92 323 1200.83 323 1080.75 323C960.667 323 840.583 323 720.5 323C600.417 323 480.333 323 360.25 323C240.167 323 120.083 323 60.0417 323H0Z" fill="#FFDF9F"/>
</svg>
