<svg width="1440" height="307" viewBox="0 0 1440 307" fill="none" xmlns="http://www.w3.org/2000/svg">
<path d="M0 307V44.0842C189.605 80.5724 543.368 64.0779 616.715 51.0819C1092.12 -18.8957 1363.66 -2.06771 1440 15.0935V307H0Z" fill="#FABF4B"/>
<path fill-rule="evenodd" clip-rule="evenodd" d="M0 307V70C113.5 82 248.5 40 368.5 34C488.5 28 622.554 49.2848 744.5 70C900.5 96.5 1012 108.5 1102 101.5C1221.14 92.2335 1320 79 1380 49L1440 19V307H1380C1320 307 1200 307 1080 307C960 307 840 307 720 307C600 307 480 307 360 307C240 307 120 307 60 307H0Z" fill="#FBCF78"/>
</svg>
