<svg width="22" height="22" viewBox="0 0 22 22" fill="none" xmlns="http://www.w3.org/2000/svg">
<rect width="22" height="22" rx="11" fill="#8675A5"/>
<g clip-path="url(#clip0)">
<path d="M15.7739 6.4707H5.81163C5.59145 6.4707 5.38029 6.5616 5.2246 6.7234C5.06891 6.88519 4.98145 7.10463 4.98145 7.33345V14.2354C4.98145 14.4642 5.06891 14.6837 5.2246 14.8455C5.38029 15.0073 5.59145 15.0982 5.81163 15.0982H15.7739C15.9941 15.0982 16.2052 15.0073 16.3609 14.8455C16.5166 14.6837 16.6041 14.4642 16.6041 14.2354V7.33345C16.6041 7.10463 16.5166 6.88519 16.3609 6.7234C16.2052 6.5616 15.9941 6.4707 15.7739 6.4707ZM14.8607 7.33345L10.7928 10.2582L6.72484 7.33345H14.8607ZM5.81163 14.2354V7.726L10.5562 11.1382C10.6256 11.1882 10.7082 11.2151 10.7928 11.2151C10.8773 11.2151 10.9599 11.1882 11.0294 11.1382L15.7739 7.726V14.2354H5.81163Z" fill="white"/>
</g>
<defs>
<clipPath id="clip0">
<rect width="13.283" height="13.8039" fill="white" transform="translate(4.15137 3.88232)"/>
</clipPath>
</defs>
</svg>
