<svg width="12" height="14" viewBox="0 0 12 14" fill="none" xmlns="http://www.w3.org/2000/svg">
<path d="M10.2027 2.35195C9.08036 1.1332 7.58571 0.462891 5.99732 0.462891C2.71875 0.462891 0.0508929 3.35307 0.0508929 6.90485C0.0508929 8.03945 0.324107 9.14794 0.84375 10.1258L0 13.4629L3.15268 12.5662C4.02054 13.0799 4.99821 13.3497 5.99464 13.3497H5.99732C9.27321 13.3497 12 10.4595 12 6.90776C12 5.187 11.325 3.5707 10.2027 2.35195ZM5.99732 12.2645C5.10804 12.2645 4.2375 12.0062 3.47946 11.5187L3.3 11.4026L1.43036 11.9336L1.92857 9.95753L1.81071 9.75441C1.31518 8.90128 1.05536 7.91758 1.05536 6.90485C1.05536 3.95374 3.27321 1.55106 6 1.55106C7.32054 1.55106 8.56071 2.1082 9.49286 3.12093C10.425 4.13365 10.9982 5.47718 10.9955 6.90776C10.9955 9.86177 8.72143 12.2645 5.99732 12.2645ZM8.70804 8.25419C8.56071 8.17294 7.82946 7.7841 7.69286 7.73186C7.55625 7.67673 7.45714 7.65061 7.35804 7.81311C7.25893 7.97561 6.975 8.33544 6.88661 8.4457C6.80089 8.55307 6.7125 8.56758 6.56518 8.48633C5.69196 8.01334 5.11875 7.64191 4.54286 6.57115C4.39018 6.28677 4.69554 6.30709 4.97946 5.69191C5.02768 5.58454 5.00357 5.49169 4.96607 5.41044C4.92857 5.32919 4.63125 4.537 4.50804 4.2149C4.3875 3.90151 4.26429 3.94503 4.17321 3.93923C4.0875 3.93343 3.98839 3.93343 3.88929 3.93343C3.79018 3.93343 3.62946 3.97405 3.49286 4.13365C3.35625 4.29615 2.97321 4.68499 2.97321 5.47718C2.97321 6.26936 3.50625 7.03544 3.57857 7.1428C3.65357 7.25017 4.62589 8.87517 6.11786 9.5745C7.06071 10.0156 7.43036 10.0533 7.90179 9.97785C8.18839 9.93142 8.78036 9.58901 8.90357 9.21177C9.02679 8.83454 9.02679 8.51244 8.98929 8.4457C8.95446 8.37316 8.85536 8.33253 8.70804 8.25419Z" fill="#8675A5"/>
</svg>
