<svg width="39" height="40" viewBox="0 0 39 40" fill="none" xmlns="http://www.w3.org/2000/svg">
<g clip-path="url(#clip0)">
<path fill-rule="evenodd" clip-rule="evenodd" d="M19.5 0.462891C8.72625 0.462891 0 9.18914 0 19.9629C0 28.5916 5.58187 35.8798 13.3331 38.4635C14.3081 38.6341 14.6737 38.0491 14.6737 37.5373C14.6737 37.0741 14.6494 35.5385 14.6494 33.9054C9.75 34.8073 8.4825 32.711 8.0925 31.6141C7.87313 31.0535 6.9225 29.3229 6.09375 28.8598C5.41125 28.4941 4.43625 27.5923 6.06938 27.5679C7.605 27.5435 8.70187 28.9816 9.0675 29.5666C10.8225 32.516 13.6256 31.6873 14.7469 31.1754C14.9175 29.9079 15.4294 29.0548 15.99 28.5673C11.6512 28.0798 7.1175 26.3979 7.1175 18.9391C7.1175 16.8185 7.87313 15.0635 9.11625 13.6985C8.92125 13.211 8.23875 11.2123 9.31125 8.53102C9.31125 8.53102 10.9444 8.01914 14.6737 10.5298C16.2337 10.091 17.8912 9.87164 19.5487 9.87164C21.2062 9.87164 22.8638 10.091 24.4237 10.5298C28.1531 7.99477 29.7862 8.53102 29.7862 8.53102C30.8587 11.2123 30.1763 13.211 29.9813 13.6985C31.2244 15.0635 31.98 16.7941 31.98 18.9391C31.98 26.4223 27.4219 28.0798 23.0831 28.5673C23.79 29.1766 24.3994 30.3466 24.3994 32.1748C24.3994 34.7829 24.375 36.8791 24.375 37.5373C24.375 38.0491 24.7406 38.6585 25.7156 38.4635C29.5867 37.1566 32.9504 34.6686 35.3335 31.3499C37.7165 28.0311 38.9988 24.0486 39 19.9629C39 9.18914 30.2738 0.462891 19.5 0.462891Z" fill="#434343"/>
</g>
<defs>
<clipPath id="clip0">
<rect width="39" height="39" fill="white" transform="translate(0 0.462891)"/>
</clipPath>
</defs>
</svg>
