<svg width="38" height="38" viewBox="0 0 38 38" fill="none" xmlns="http://www.w3.org/2000/svg">
<g clip-path="url(#clip0)">
<path fill-rule="evenodd" clip-rule="evenodd" d="M19.2882 0.594727C9.0681 0.594727 0.790283 8.87254 0.790283 19.0926C0.790283 27.278 6.08531 34.1916 13.4382 36.6425C14.3631 36.8044 14.71 36.2495 14.71 35.7639C14.71 35.3246 14.6868 33.8679 14.6868 32.3187C10.0392 33.1742 8.83688 31.1857 8.46692 30.1451C8.25882 29.6133 7.35704 27.9716 6.57088 27.5323C5.92346 27.1855 4.99856 26.33 6.54776 26.3068C8.00447 26.2837 9.04498 27.6479 9.39181 28.2029C11.0566 31.0007 13.7157 30.2145 14.7793 29.7289C14.9412 28.5266 15.4268 27.7173 15.9586 27.2548C11.8428 26.7924 7.54202 25.197 7.54202 18.1215C7.54202 16.1099 8.25882 14.445 9.43806 13.1502C9.25308 12.6877 8.60565 10.7917 9.62304 8.24824C9.62304 8.24824 11.1722 7.76267 14.71 10.1443C16.1898 9.72807 17.7621 9.51997 19.3344 9.51997C20.9068 9.51997 22.4791 9.72807 23.9589 10.1443C27.4967 7.73955 29.0459 8.24824 29.0459 8.24824C30.0632 10.7917 29.4158 12.6877 29.2308 13.1502C30.4101 14.445 31.1269 16.0867 31.1269 18.1215C31.1269 25.2201 26.803 26.7924 22.6872 27.2548C23.3577 27.8329 23.9358 28.9428 23.9358 30.677C23.9358 33.1511 23.9127 35.1396 23.9127 35.7639C23.9127 36.2495 24.2595 36.8275 25.1844 36.6425C28.8565 35.4028 32.0474 33.0427 34.308 29.8944C36.5686 26.7462 37.785 22.9684 37.7861 19.0926C37.7861 8.87254 29.5083 0.594727 19.2882 0.594727Z" fill="#434343"/>
</g>
<defs>
<clipPath id="clip0">
<rect width="36.9958" height="36.9958" fill="white" transform="translate(0.790283 0.594727)"/>
</clipPath>
</defs>
</svg>
