<svg width="23" height="22" viewBox="0 0 23 22" fill="none" xmlns="http://www.w3.org/2000/svg">
<rect width="23" height="22" rx="11" fill="#8675A5"/>
<path d="M16.2027 5.85386C15.0804 4.64239 13.5857 3.97607 11.9973 3.97607C8.71875 3.97607 6.05089 6.849 6.05089 10.3796C6.05089 11.5074 6.32411 12.6093 6.84375 13.5814L6 16.8985L9.15268 16.0072C10.0205 16.5177 10.9982 16.786 11.9946 16.786H11.9973C15.2732 16.786 18 13.9131 18 10.3825C18 8.67199 17.325 7.06534 16.2027 5.85386ZM11.9973 15.7072C11.108 15.7072 10.2375 15.4505 9.47946 14.9659L9.3 14.8505L7.43036 15.3784L7.92857 13.4141L7.81071 13.2121C7.31518 12.3641 7.05536 11.3863 7.05536 10.3796C7.05536 7.44609 9.27321 5.05775 12 5.05775C13.3205 5.05775 14.5607 5.61157 15.4929 6.61825C16.425 7.62493 16.9982 8.96044 16.9955 10.3825C16.9955 13.3189 14.7214 15.7072 11.9973 15.7072ZM14.708 11.7209C14.5607 11.6401 13.8295 11.2536 13.6929 11.2017C13.5563 11.1469 13.4571 11.1209 13.358 11.2824C13.2589 11.444 12.975 11.8016 12.8866 11.9112C12.8009 12.018 12.7125 12.0324 12.5652 11.9516C11.692 11.4815 11.1188 11.1122 10.5429 10.0479C10.3902 9.7652 10.6955 9.78539 10.9795 9.17389C11.0277 9.06716 11.0036 8.97486 10.9661 8.89409C10.9286 8.81333 10.6313 8.02587 10.508 7.70569C10.3875 7.39417 10.2643 7.43744 10.1732 7.43167C10.0875 7.4259 9.98839 7.4259 9.88929 7.4259C9.79018 7.4259 9.62946 7.46628 9.49286 7.62493C9.35625 7.78646 8.97321 8.17298 8.97321 8.96044C8.97321 9.7479 9.50625 10.5094 9.57857 10.6161C9.65357 10.7228 10.6259 12.3381 12.1179 13.0333C13.0607 13.4717 13.4304 13.5092 13.9018 13.4342C14.1884 13.3881 14.7804 13.0477 14.9036 12.6727C15.0268 12.2978 15.0268 11.9776 14.9893 11.9112C14.9545 11.8391 14.8554 11.7988 14.708 11.7209Z" fill="#EBEBEB"/>
</svg>
