<svg width="221" height="152" viewBox="0 0 221 152" fill="none" xmlns="http://www.w3.org/2000/svg">
<path d="M168.363 8.06703C167.545 5.65131 164.875 3.5807 161.946 3.69574C158.759 3.81077 156.692 5.53628 155.529 8.06703C151.437 16.8863 147.302 25.7439 143.211 34.5632C142.22 36.6721 141.273 38.7427 140.282 40.8517C139.636 42.2705 139.98 41.4269 140.153 41.1585C139.98 41.4652 139.722 41.8103 139.55 42.1171C137.439 42.1938 135.2 41.887 133.133 41.7337C130.29 41.5419 127.447 41.3502 124.562 41.1968C113.88 40.5066 103.199 39.8164 92.4749 39.1262C87.5219 38.8195 82.2675 38.8578 77.3576 38.1292C77.5299 38.1292 76.4961 37.9375 76.3239 37.8992C76.1516 37.8608 76.0224 37.8225 76.0224 37.8608C75.9363 37.8225 75.8932 37.7841 75.8071 37.7458C75.9363 37.8225 76.0224 37.8608 76.0224 37.8608C75.9793 37.8608 75.6779 37.6691 75.5056 37.5541C75.5487 37.5924 75.118 37.1323 74.8595 36.8639C74.6442 36.5571 74.2566 36.0203 74.2996 36.0586C74.0843 35.7135 73.869 35.4068 73.6967 35.0617C73.1368 34.1031 72.6199 33.1444 72.103 32.1858C66.8486 22.4079 61.551 12.6684 56.2966 2.8905C55.1768 0.781541 52.0758 -0.253763 49.6639 0.0529948C46.9505 0.359752 44.9693 2.04691 44.1079 4.30924C32.2638 35.5601 23.5638 67.693 18.094 100.286C16.845 107.61 15.7682 114.972 14.8638 122.334C32.6945 136.675 55.2199 145.954 79.0804 149.636C111.426 154.582 145.278 150.287 175.211 138.439C189.726 132.687 202.56 124.405 211.907 112.901C206.824 102.663 202.13 92.617 197.478 82.1489C186.582 57.8384 176.891 33.1061 168.363 8.06703Z" fill="#FBCF78"/>
<path d="M218.195 62.44C216.515 59.9092 211.95 58.3754 209.064 60.2927C192.526 71.2592 175.427 81.4589 157.726 90.8534C154.625 92.5022 153.505 96.1833 155.314 98.9824C157.123 101.743 161.343 102.779 164.444 101.13C182.146 91.7353 199.245 81.5356 215.783 70.569C218.712 68.6518 220.176 65.4308 218.195 62.44Z" fill="#434343"/>
<path d="M220.132 89.2812C218.28 86.4437 214.188 85.6001 211.001 87.1338C197.262 93.7675 183.222 99.8259 168.879 105.309C165.563 106.575 164.831 110.908 166.468 113.438C168.492 116.506 172.282 116.851 175.598 115.586C189.94 110.102 204.024 104.044 217.72 97.4102C220.907 95.8764 221.898 92.0036 220.132 89.2812Z" fill="#434343"/>
<path d="M52.7637 105.616C39.8429 95.1094 26.9221 84.6029 14.0012 74.0965C11.3309 71.9492 7.1963 71.7574 4.56906 74.0965C2.1141 76.2821 1.89876 80.3467 4.56906 82.494C17.4899 93.0004 30.4107 103.507 43.3316 114.013C46.0019 116.161 50.1365 116.352 52.7637 114.013C55.2618 111.828 55.434 107.763 52.7637 105.616Z" fill="#434343"/>
<path d="M40.2748 118.96C30.6272 112.058 21.0227 105.156 11.3751 98.2537C8.5756 96.2598 4.65632 95.7997 1.94295 98.2537C-0.382804 100.324 -0.899637 104.619 1.94295 106.651C11.5905 113.553 21.195 120.455 30.8426 127.357C33.6421 129.351 37.5614 129.811 40.2748 127.357C42.6005 125.287 43.0743 120.992 40.2748 118.96Z" fill="#434343"/>
<path d="M52.6355 73.7131C49.1469 73.7131 45.7874 76.4356 45.9597 79.6566C46.132 82.8775 48.8884 85.6 52.6355 85.6C56.1241 85.6 59.4835 82.8775 59.3113 79.6566C59.139 76.4356 56.3825 73.7131 52.6355 73.7131Z" fill="#434343"/>
<path d="M164.013 74.71C163.754 73.9814 163.28 73.3296 162.634 72.7927C162.031 72.2176 161.299 71.7958 160.481 71.5657C159.706 71.1823 158.844 71.0289 157.897 71.0672C157.294 71.1439 156.734 71.2206 156.131 71.2973C155.011 71.5657 154.02 72.1025 153.202 72.8311C152.858 73.2145 152.513 73.6363 152.168 74.0198C151.566 74.94 151.264 75.937 151.264 77.0107V77.5475C151.221 78.3527 151.436 79.1196 151.824 79.8482C152.082 80.5767 152.556 81.2286 153.202 81.7654C153.805 82.3406 154.537 82.7624 155.356 82.9924C156.131 83.3759 156.992 83.5292 157.94 83.4909C158.543 83.4142 159.103 83.3375 159.706 83.2608C160.825 82.9924 161.816 82.4556 162.634 81.7271C162.979 81.3436 163.323 80.9218 163.668 80.5384C164.271 79.6181 164.573 78.6211 164.573 77.5475V77.0107C164.616 76.2054 164.4 75.4385 164.013 74.71Z" fill="#434343"/>
<path d="M57.0286 21.6026C56.8994 21.3725 56.7272 21.1808 56.5549 20.9891C55.7797 19.7237 54.5306 18.7651 52.7217 18.3816C49.4915 17.7298 45.0985 19.2635 44.4955 22.5228C43.591 27.5077 42.988 32.5308 42.8157 37.6307C42.6865 41.8102 47.1658 43.9959 51.2574 43.344C55.995 42.6154 61.1634 40.1614 62.2832 35.6367C63.4891 30.767 59.6989 25.5904 57.0286 21.6026Z" fill="#FEA273"/>
<path d="M168.192 23.7118C168.105 23.4434 168.019 23.175 167.89 22.9449C167.718 22.2163 167.546 21.5261 167.373 20.8359C166.77 18.727 165.047 17.3849 163.023 16.8481C159.578 15.5444 154.969 16.5797 153.849 20.5292C153.591 21.3728 153.376 22.2547 153.117 23.0983C152.859 23.6351 152.643 24.2103 152.471 24.7854C150.921 27.8147 150.102 30.9973 150.016 34.3716C149.973 36.6723 152.127 39.7398 154.926 40.0849C160.353 40.7368 167.589 42.6157 170.345 36.7873C172.197 32.8378 169.441 27.6229 168.192 23.7118Z" fill="#FEA273"/>
<path d="M120.254 113.074C117.363 109.438 114.911 105.569 112.825 101.5C114.215 100.699 115.24 99.3647 115.46 97.7969C115.862 95.095 114.069 93.0603 111.397 92.1263C108.213 90.9921 104.956 90.9921 101.625 91.4591C100.454 91.6259 99.4661 92.293 98.7341 93.1603C97.4531 94.1277 96.6114 95.562 96.6846 97.0964C96.7578 98.8643 97.7459 100.432 99.2099 101.399C98.0021 103.468 96.7944 105.536 95.5866 107.637L92.8417 112.307C92.4025 113.074 91.8901 113.842 91.4875 114.642C90.6457 116.177 90.4993 117.377 90.7555 119.045C91.0849 121.113 93.9762 123.015 96.2088 122.848C97.4165 122.748 98.4047 122.648 99.4295 122.014C100.893 121.147 101.845 119.812 102.138 118.345C103.382 116.177 104.663 114.042 105.907 111.873C107.298 114.075 108.799 116.243 110.409 118.311C112.202 120.58 115.35 121.68 118.168 120.179C120.657 118.845 122.048 115.343 120.254 113.074Z" fill="#434343"/>
<path d="M113.364 88.5525C110.694 87.7089 107.722 87.3255 104.879 87.2871C102.037 87.2488 98.4189 87.3638 95.9208 88.7059C91.9154 90.8532 90.8386 95.2628 93.552 98.5988C95.2317 100.669 97.902 102.203 100.228 103.622C101.821 104.581 103.975 104.657 105.827 104.082C108.669 104.542 111.727 104.197 114.484 103.047C117.154 101.935 119.48 99.7875 120.212 97.2184C121.547 92.7704 117.585 89.8562 113.364 88.5525Z" fill="#FEA273"/>
<path d="M178.703 75.9085C179.378 74.0214 178.309 71.716 176.443 70.673C168.386 66.1843 160.492 61.3495 152.762 56.1686C150.975 54.9697 148.668 56.0977 148.06 57.7733C147.338 59.8243 148.534 61.8098 150.32 63.0087C158.05 68.1896 165.959 73.0457 174.001 77.5132C175.868 78.5562 178.051 77.7136 178.703 75.9085Z" fill="#434343"/>
<path d="M34.0081 77.1763C33.3328 75.2892 34.4016 72.9839 36.2682 71.9409C44.3253 67.4521 52.2189 62.6174 59.9492 57.4364C61.7355 56.2376 64.0432 57.3655 64.651 59.0411C65.3731 61.0921 64.1772 63.0776 62.3909 64.2765C54.6606 69.4574 46.7515 74.3135 38.7099 78.781C36.8433 79.824 34.6601 78.9815 34.0081 77.1763Z" fill="#434343"/>
</svg>
