<svg width="26" height="26" viewBox="0 0 26 26" fill="none" xmlns="http://www.w3.org/2000/svg">
<rect width="26" height="26" rx="13" fill="black" fill-opacity="0.41"/>
<path d="M20.5022 7.44039C20.5956 7.53412 20.6481 7.66106 20.6481 7.79339C20.6481 7.92573 20.5956 8.05267 20.5022 8.14639L19.4592 9.19039L17.4592 7.19039L18.5022 6.14639C18.596 6.05266 18.7231 6 18.8557 6C18.9883 6 19.1154 6.05266 19.2092 6.14639L20.5022 7.43939V7.44039ZM18.7522 9.89639L16.7522 7.89639L9.9392 14.7104C9.88417 14.7654 9.84273 14.8325 9.8182 14.9064L9.0132 17.3204C8.9986 17.3644 8.99653 17.4116 9.00722 17.4567C9.0179 17.5018 9.04093 17.5431 9.07371 17.5759C9.1065 17.6087 9.14776 17.6317 9.19288 17.6424C9.23799 17.6531 9.2852 17.651 9.3292 17.6364L11.7432 16.8314C11.817 16.8072 11.8841 16.7661 11.9392 16.7114L18.7522 9.89739V9.89639Z" fill="white"/>
<path fill-rule="evenodd" clip-rule="evenodd" d="M6 19.0005C6 19.3983 6.15804 19.7798 6.43934 20.0611C6.72064 20.3425 7.10218 20.5005 7.5 20.5005H18.5C18.8978 20.5005 19.2794 20.3425 19.5607 20.0611C19.842 19.7798 20 19.3983 20 19.0005V13.0005C20 12.8679 19.9473 12.7407 19.8536 12.6469C19.7598 12.5532 19.6326 12.5005 19.5 12.5005C19.3674 12.5005 19.2402 12.5532 19.1464 12.6469C19.0527 12.7407 19 12.8679 19 13.0005V19.0005C19 19.1331 18.9473 19.2603 18.8536 19.354C18.7598 19.4478 18.6326 19.5005 18.5 19.5005H7.5C7.36739 19.5005 7.24021 19.4478 7.14645 19.354C7.05268 19.2603 7 19.1331 7 19.0005V8.00049C7 7.86788 7.05268 7.7407 7.14645 7.64693C7.24021 7.55317 7.36739 7.50049 7.5 7.50049H14C14.1326 7.50049 14.2598 7.44781 14.3536 7.35404C14.4473 7.26027 14.5 7.1331 14.5 7.00049C14.5 6.86788 14.4473 6.7407 14.3536 6.64693C14.2598 6.55317 14.1326 6.50049 14 6.50049H7.5C7.10218 6.50049 6.72064 6.65852 6.43934 6.93983C6.15804 7.22113 6 7.60266 6 8.00049V19.0005Z" fill="white"/>
</svg>
