<svg width="70" height="70" viewBox="0 0 70 70" fill="none" xmlns="http://www.w3.org/2000/svg">
<g filter="url(#filter0_d)">
<path d="M61.3633 14.2652C52.0888 -0.000471573 33.1535 -4.24163 18.469 4.62625C4.17085 13.4941 -0.466366 32.7721 8.80808 47.0378L9.58095 48.1945L6.48947 59.7613L18.0825 56.6768L19.2418 57.4479C24.2655 60.1469 29.6756 61.6891 35.0857 61.6891C40.8822 61.6891 46.6787 60.1469 51.7024 57.0624C66.0005 47.8089 70.2513 28.9165 61.3633 14.2652ZM53.2481 43.9533C51.7024 46.2667 49.7702 47.8089 47.0652 48.1945C45.5194 48.1945 43.5872 48.9656 35.8585 45.8811C29.2891 42.7967 23.879 37.7844 20.0147 32.001C17.6961 29.3021 16.5368 25.832 16.1503 22.362C16.1503 19.2775 17.3097 16.5786 19.2418 14.6508C20.0147 13.8797 20.7876 13.4941 21.5604 13.4941H23.4926C24.2655 13.4941 25.0384 13.4941 25.4248 15.0364C26.1977 16.9642 28.1298 21.5909 28.1298 21.9764C28.5163 22.362 28.5163 23.1331 28.1298 23.5187C28.5163 24.2898 28.1298 25.0609 27.7434 25.4465C27.357 25.832 26.9705 26.6032 26.5841 26.9887C25.8112 27.3743 25.4248 28.1454 25.8112 28.9165C27.357 31.2299 29.2891 33.5432 31.2213 35.471C33.5399 37.3988 35.8585 38.9411 38.5636 40.0977C39.3365 40.4833 40.1093 40.4833 40.4958 39.7122C40.8822 38.9411 42.8144 37.0133 43.5872 36.2421C44.3601 35.471 44.7465 35.471 45.5194 35.8566L51.7024 38.9411C52.4752 39.3266 53.2481 39.7122 53.6346 40.0977C54.021 41.2544 54.021 42.7967 53.2481 43.9533Z" fill="#6EBF63"/>
</g>
<defs>
<filter id="filter0_d" x="0" y="0" width="70" height="69.6891" filterUnits="userSpaceOnUse" color-interpolation-filters="sRGB">
<feFlood flood-opacity="0" result="BackgroundImageFix"/>
<feColorMatrix in="SourceAlpha" type="matrix" values="0 0 0 0 0 0 0 0 0 0 0 0 0 0 0 0 0 0 127 0" result="hardAlpha"/>
<feOffset dy="4"/>
<feGaussianBlur stdDeviation="2"/>
<feComposite in2="hardAlpha" operator="out"/>
<feColorMatrix type="matrix" values="0 0 0 0 0 0 0 0 0 0 0 0 0 0 0 0 0 0 0.25 0"/>
<feBlend mode="normal" in2="BackgroundImageFix" result="effect1_dropShadow"/>
<feBlend mode="normal" in="SourceGraphic" in2="effect1_dropShadow" result="shape"/>
</filter>
</defs>
</svg>
