<svg width="1411" height="794" xmlns="http://www.w3.org/2000/svg" xmlns:xlink="http://www.w3.org/1999/xlink" overflow="hidden"><defs><clipPath id="clip0"><rect x="0" y="0" width="1411" height="794"/></clipPath></defs><g clip-path="url(#clip0)"><rect x="0" y="0" width="1411" height="794.354" fill="#FFFFFF"/><path d="M387.5 71.0317C387.5 50.3118 446.151 33.515 518.5 33.515 590.849 33.515 649.5 50.3118 649.5 71.0317L649.5 221.099C649.5 241.819 590.849 258.615 518.5 258.615 446.151 258.615 387.5 241.819 387.5 221.099Z" fill="#7F7F7F" fill-rule="evenodd"/><path d="M649.5 71.0317C649.5 91.7516 590.849 108.548 518.5 108.548 446.151 108.548 387.5 91.7516 387.5 71.0317" stroke="#253746" stroke-width="2.66604" stroke-linejoin="round" stroke-miterlimit="10" fill="none" fill-rule="evenodd"/><path d="M387.5 71.0317C387.5 50.3118 446.151 33.515 518.5 33.515 590.849 33.515 649.5 50.3118 649.5 71.0317L649.5 221.099C649.5 241.819 590.849 258.615 518.5 258.615 446.151 258.615 387.5 241.819 387.5 221.099Z" stroke="#253746" stroke-width="2.66604" stroke-linejoin="round" stroke-miterlimit="10" fill="none" fill-rule="evenodd"/><text fill="#FFFFFF" font-family="Calibri,Calibri_MSFontService,sans-serif" font-weight="700" font-size="27" transform="matrix(1 0 0 1.00045 461.975 127)">Database<tspan font-weight="400" font-size="21" x="-49.3417" y="26.988">[Container: SQL Server]</tspan><tspan font-weight="400" font-size="21" x="-44.1553" y="75.9661">Armazena os dados das </tspan><tspan font-weight="400" font-size="21" x="-56.5058" y="101.955">máquinas e dos cadastros.</tspan></text><rect x="26.5" y="367.664" width="283" height="225.1" stroke="#253746" stroke-width="2.66604" stroke-linejoin="round" stroke-miterlimit="10" stroke-dasharray="10.6641 7.99811" fill="#D9D9D9"/><text font-family="Calibri,Calibri_MSFontService,sans-serif" font-weight="700" font-size="27" transform="matrix(1 0 0 1.00045 56.8716 412)">GOOGLE Application<tspan font-weight="400" font-size="21" x="-5.38539" y="26.988">[Container: </tspan><tspan font-weight="400" font-size="21" x="96.4639" y="26.988">GeoCoding</tspan><tspan font-weight="400" font-size="21" x="196.607" y="26.988">API]</tspan><tspan font-weight="400" font-size="21" x="4.09006" y="90.9594">API para integração com os </tspan><tspan font-weight="400" font-size="21" x="43.2475" y="116.948">mapas do Google.</tspan></text><rect x="770.5" y="195.587" width="275" height="225.1" stroke="#31859C" stroke-width="2.66604" stroke-linejoin="round" stroke-miterlimit="10" fill="#32B9CD"/><rect x="776.5" y="202.59" width="216" height="23.0103" stroke="#31859C" stroke-width="2.66604" stroke-linejoin="round" stroke-miterlimit="10" fill="none"/><path d="M1019.06 207.561 1023.47 204.033 1027.5 209.075 1031.53 204.033 1035.94 207.561 1031.11 213.595 1035.94 219.63 1031.53 223.157 1027.5 218.115 1023.47 223.157 1019.06 219.63 1023.89 213.595Z" stroke="#31859C" stroke-width="2.66604" stroke-miterlimit="8" fill="none" fill-rule="evenodd"/><path d="M1010.42 222.952C1004.52 222.436 1000.12 217.727 1000.58 212.434 1000.96 208.079 1004.56 204.557 1009.35 203.862L1009.47 202.535 1011.97 205.154 1008.99 208.011 1009.11 206.697C1004.87 207.628 1002.4 211.369 1003.59 215.053 1004.49 217.859 1007.32 219.922 1010.65 220.214Z" stroke="#31859C" stroke-width="2.66722" stroke-linejoin="round" stroke-miterlimit="10" fill="none" fill-rule="evenodd"/><text fill="#FFFFFF" font-family="Calibri,Calibri_MSFontService,sans-serif" font-weight="700" font-size="27" transform="matrix(1 0 0 1.00045 811.229 263)">Client<tspan font-size="27" x="69.9035" y="0">Side</tspan><tspan font-size="27" x="122.891" y="0">Web</tspan><tspan font-weight="400" font-size="21" x="8.65131" y="26.988">[Container: </tspan><tspan font-weight="400" font-size="21" x="110.501" y="26.988">React</tspan><tspan font-weight="400" font-size="21" x="158.782" y="26.988">]</tspan><tspan font-weight="400" font-size="21" x="4.59015" y="86.9612">Home institucional da </tspan><tspan font-weight="400" font-size="21" x="57.8842" y="112.95">Aplicação</tspan></text><path d="M0.999757-0.00363267 1.02155 5.99491-0.977961 6.00218-0.999757 0.00363267ZM1.02882 7.99442 1.05061 13.993-0.9489 14.0002-0.970696 8.00169ZM1.05788 15.9925 1.07968 21.991-0.919838 21.9983-0.941634 15.9997ZM1.08694 23.9905 1.10874 29.9891-0.890777 29.9963-0.912573 23.9978ZM1.116 31.9886 1.1378 37.9871-0.861716 37.9944-0.883512 31.9959ZM1.14506 39.9867 1.16686 45.9852-0.832654 45.9925-0.85445 39.9939ZM1.17413 47.9847 1.19592 53.9833-0.803593 53.9905-0.825389 47.992ZM1.20319 55.9828 1.22498 61.9813-0.774532 61.9886-0.796328 55.99ZM1.23225 63.9808 1.25404 69.9794-0.74547 69.9866-0.767266 63.9881ZM1.26131 71.9789 1.28311 77.9774-0.716409 77.9847-0.738205 71.9861ZM1.29037 79.9769 1.31217 85.9755-0.687347 85.9827-0.709143 79.9842ZM1.31943 87.975 1.34123 93.9735-0.658286 93.9808-0.680082 87.9823ZM1.34849 95.9731 1.35534 97.8562-0.644178 97.8635-0.651021 95.9803ZM7.01578 96.5026 0.399171 109.857-6.31431 96.551Z" fill="#31859C" transform="matrix(1 0 0 -1.00045 518 368.021)"/><rect x="385.5" y="368.664" width="265" height="225.1" stroke="#357D91" stroke-width="2.66604" stroke-linejoin="round" stroke-miterlimit="10" fill="#4BACC6"/><text fill="#FFFFFF" font-family="Calibri,Calibri_MSFontService,sans-serif" font-weight="700" font-size="27" transform="matrix(1 0 0 1.00045 445.938 407)">Microservice<tspan font-weight="400" font-size="21" x="-33.4788" y="26.988">[Container: Spring Boot]</tspan><tspan font-weight="400" font-size="21" x="-22.7408" y="90.9594">Backend</tspan><tspan font-weight="400" font-size="21" x="54.8876" y="90.9594">da aplicação e </tspan><tspan font-weight="400" font-size="21" x="27.9606" y="116.948">tratamento</tspan></text><path d="M0.822811-0.567899 4.23021 4.36897 2.58458 5.50477-0.822811 0.567899ZM5.366 6.01459 8.7734 10.9515 7.12778 12.0873 3.72038 7.15039ZM9.9092 12.5971 13.3166 17.5339 11.671 18.6697 8.26358 13.7329ZM14.4524 19.1796 17.8598 24.1164 16.2142 25.2522 12.8068 20.3154ZM18.9956 25.7621 22.403 30.6989 20.7574 31.8347 17.35 26.8979ZM23.5388 32.3445 26.9462 37.2814 25.3006 38.4172 21.8932 33.4803ZM28.082 38.927 31.4894 43.8639 29.8437 44.9997 26.4363 40.0628ZM32.6252 45.5095 36.0326 50.4464 34.3869 51.5822 30.9795 46.6453ZM37.1684 52.092 40.5757 57.0289 38.9301 58.1647 35.5227 53.2278ZM41.7115 58.6745 45.1189 63.6114 43.4733 64.7472 40.0659 59.8103ZM46.2547 65.257 49.6621 70.1939 48.0165 71.3297 44.6091 66.3928ZM50.7979 71.8395 54.2053 76.7763 52.5597 77.9121 49.1523 72.9753ZM55.3411 78.422 58.7485 83.3588 57.1029 84.4946 53.6955 79.5578ZM59.8843 85.0044 63.2917 89.9413 61.6461 91.0771 58.2387 86.1402ZM64.4275 91.5869 67.8349 96.5238 66.1893 97.6596 62.7819 92.7227ZM68.9707 98.1694 72.3781 103.106 70.7325 104.242 67.3251 99.3052ZM73.5139 104.752 76.9213 109.689 75.2757 110.825 71.8683 105.888ZM78.0571 111.334 81.4645 116.271 79.8189 117.407 76.4115 112.47ZM82.6003 117.917 86.0077 122.854 84.3621 123.99 80.9547 119.053ZM87.1435 124.499 90.5509 129.436 88.9053 130.572 85.4979 125.635ZM91.6867 131.082 95.0941 136.019 93.4485 137.155 90.0411 132.218ZM96.2299 137.664 99.6373 142.601 97.9917 143.737 94.5843 138.8ZM100.773 144.247 104.18 149.184 102.535 150.32 99.1274 145.383ZM105.316 150.829 108.724 155.766 107.078 156.902 103.671 151.965ZM109.859 157.412 113.267 162.349 111.621 163.484 108.214 158.548ZM117.511 158.524 119.597 173.281 106.54 166.096Z" fill="#31859C" transform="matrix(-1 0 0 1.00045 769.597 307.137)"/><rect x="770.5" y="482.715" width="275" height="225.1" stroke="#31859C" stroke-width="2.66604" stroke-linejoin="round" stroke-miterlimit="10" fill="#32B9CD"/><rect x="776.5" y="489.718" width="217" height="23.0103" stroke="#31859C" stroke-width="2.66604" stroke-linejoin="round" stroke-miterlimit="10" fill="none"/><path d="M1019.06 494.689 1023.47 491.161 1027.5 496.203 1031.53 491.161 1035.94 494.689 1031.11 500.723 1035.94 506.758 1031.53 510.285 1027.5 505.243 1023.47 510.285 1019.06 506.758 1023.89 500.723Z" stroke="#31859C" stroke-width="2.66604" stroke-miterlimit="8" fill="none" fill-rule="evenodd"/><path d="M1010.73 509.819C1004.83 509.303 1000.43 504.594 1000.89 499.301 1001.28 494.946 1004.88 491.424 1009.67 490.729L1009.78 489.402 1012.29 492.021 1009.3 494.878 1009.42 493.564C1005.19 494.495 1002.72 498.236 1003.9 501.92 1004.81 504.726 1007.63 506.788 1010.97 507.081Z" stroke="#31859C" stroke-width="2.66722" stroke-linejoin="round" stroke-miterlimit="10" fill="none" fill-rule="evenodd"/><text fill="#FFFFFF" font-family="Calibri,Calibri_MSFontService,sans-serif" font-weight="700" font-size="27" transform="matrix(1 0 0 1.00045 811.54 550)">Client<tspan font-size="27" x="69.9034" y="0">Side</tspan><tspan font-size="27" x="122.891" y="0">Web</tspan><tspan font-weight="400" font-size="21" x="-26.7004" y="26.988">[Container: JS, HTML, CSS]</tspan><tspan font-weight="400" font-size="21" x="0.401062" y="86.9612">Plataforma para </tspan><tspan font-weight="400" font-size="21" x="143.394" y="86.9612">proto</tspan><tspan font-weight="400" font-size="21" x="191.329" y="86.9612">-</tspan><tspan font-weight="400" font-size="21" x="-21.6604" y="112.95">personas</tspan><tspan font-weight="400" font-size="21" x="61.4533" y="112.95">(adotante e ONG), </tspan><tspan font-weight="400" font-size="21" x="30.8472" y="137.938">cadastro e login</tspan></text><rect x="1123.5" y="482.715" width="265" height="225.1" stroke="#253746" stroke-width="2.66604" stroke-linejoin="round" stroke-miterlimit="10" stroke-dasharray="10.6641 7.99811" fill="#D9D9D9"/><text font-family="Calibri,Calibri_MSFontService,sans-serif" font-weight="700" font-size="27" transform="matrix(1 0 0 1.00045 1144.34 527)">ViaCEP<tspan font-size="27" x="82.8138" y="0">Application</tspan><tspan font-weight="400" font-size="21" x="3.52588" y="26.988">[Container: API </tspan><tspan font-weight="400" font-size="21" x="138.867" y="26.988">ViaCEP</tspan><tspan font-weight="400" font-size="21" x="198.853" y="26.988">]</tspan><tspan font-weight="400" font-size="21" x="-18.9011" y="90.9594">API para consulta de endereço </tspan><tspan font-weight="400" font-size="21" x="81.3219" y="116.948">via CEP</tspan></text><path d="M769.225 595.45 764.867 591.325 766.242 589.872 770.599 593.997ZM763.415 589.951 759.058 585.826 760.432 584.373 764.789 588.497ZM757.605 584.451 753.248 580.326 754.622 578.873 758.98 582.998ZM751.796 578.952 747.438 574.827 748.813 573.374 753.17 577.498ZM745.986 573.452 741.629 569.328 743.003 567.874 747.36 571.999ZM740.176 567.953 735.819 563.828 737.193 562.375 741.551 566.5ZM734.367 562.453 730.009 558.329 731.384 556.875 735.741 561ZM728.557 556.954 724.2 552.829 725.574 551.376 729.931 555.501ZM722.747 551.454 718.39 547.33 719.764 545.877 724.121 550.001ZM716.938 545.955 712.58 541.83 713.954 540.377 718.312 544.502ZM711.128 540.455 706.771 536.331 708.145 534.878 712.502 539.002ZM705.318 534.956 700.961 530.831 702.335 529.378 706.692 533.503ZM699.508 529.456 695.151 525.332 696.525 523.879 700.883 528.003ZM693.699 523.957 689.341 519.832 690.716 518.379 695.073 522.504ZM687.889 518.457 683.532 514.333 684.906 512.88 689.263 517.004ZM682.079 512.958 677.722 508.833 679.096 507.38 683.454 511.505ZM676.27 507.458 671.912 503.334 673.287 501.881 677.644 506.005ZM670.46 501.959 666.103 497.834 667.477 496.381 671.834 500.506ZM664.65 496.459 660.293 492.335 661.667 490.882 666.024 495.006ZM658.841 490.96 658.027 490.19 659.402 488.737 660.215 489.507ZM655.102 495.224 650 481.215 664.264 485.537Z" fill="#31859C"/><path d="M1.35646e-06-0.999764 5.99858-0.999756 5.99858 0.999772-1.35646e-06 0.999764ZM7.99811-0.999753 13.9967-0.999745 13.9967 0.999783 7.99811 0.999775ZM15.9962-0.999742 21.9948-0.999734 21.9948 0.999794 15.9962 0.999785ZM23.9943-0.999731 29.9929-0.999723 29.9929 0.999804 23.9943 0.999796ZM31.9924-0.99972 37.991-0.999712 37.991 0.999815 31.9924 0.999807ZM39.9906-0.99971 45.9891-0.999701 45.9891 0.999826 39.9906 0.999818ZM47.9887-0.999699 53.9872-0.99969 53.9872 0.999837 47.9887 0.999829ZM55.9868-0.999688 61.9854-0.99968 61.9854 0.999848 55.9868 0.99984ZM63.9849-0.999677 65.364-0.999675 65.364 0.999852 63.9849 0.999851ZM64.031-6.66501 77.3611 0.000104962 64.0309 6.66518Z" fill="#31859C" transform="matrix(1 0 0 -1.00045 1045 594.265)"/><path d="M1.38545e-06-0.999764 5.99858-0.999756 5.99858 0.999772-1.38545e-06 0.999764ZM7.99811-0.999753 13.9967-0.999744 13.9967 0.999783 7.99811 0.999775ZM15.9962-0.999742 21.9948-0.999733 21.9948 0.999794 15.9962 0.999786ZM23.9943-0.999731 29.9929-0.999722 29.9929 0.999805 23.9943 0.999797ZM31.9924-0.999719 37.991-0.999711 37.991 0.999816 31.9924 0.999808ZM39.9906-0.999708 45.9891-0.9997 45.9891 0.999828 39.9906 0.999819ZM47.9887-0.999697 53.9872-0.999689 53.9872 0.999839 47.9887 0.99983ZM55.9868-0.999686 61.9854-0.999678 61.9854 0.99985 55.9868 0.999841ZM62.4123-6.66501 75.7425 0.000104962 62.4123 6.66518Z" fill="#31859C" transform="matrix(-1 0 0 1.00045 384.742 479.214)"/></g></svg>