<svg width="15" height="14" viewBox="0 0 15 14" fill="none" xmlns="http://www.w3.org/2000/svg">
<path d="M6.69583 8.2244H8.00136C8.2864 8.2244 8.5175 8.45656 8.5175 8.74143C8.51609 8.86147 8.47396 8.97887 8.39604 9.07124L7.49843 10.1462L7.86262 10.6066C8.44752 11.344 9.5193 11.4679 10.2572 10.8823C10.4448 10.7346 10.5992 10.5472 10.7101 10.3348C10.7444 10.2689 10.8262 10.2439 10.8922 10.2782C10.9583 10.3138 10.9847 10.3942 10.9503 10.4601C10.446 11.427 9.254 11.8016 8.2864 11.2978C8.03961 11.1698 7.82314 10.9918 7.65144 10.7741L7.32145 10.3574L6.97964 10.7649C6.27735 11.5998 5.03246 11.7093 4.1969 11.0077C3.98431 10.8294 3.81138 10.6093 3.68992 10.3586C3.65696 10.2927 3.6834 10.2109 3.75074 10.1779C3.81808 10.145 3.89846 10.1726 3.93284 10.2386V10.2412C4.3448 11.0866 5.3651 11.4403 6.21124 11.0286C6.42771 10.9245 6.61792 10.7755 6.77234 10.592L7.14993 10.1423L6.29057 9.06067C6.11358 8.83644 6.15184 8.51332 6.37501 8.33651C6.46614 8.26406 6.57967 8.2244 6.69583 8.2244ZM10.4012 5.6338C11.0877 5.60348 11.6817 6.1087 11.7609 6.79195C11.7674 6.86582 11.712 6.93174 11.6368 6.93703C11.5668 6.94355 11.5035 6.89349 11.4929 6.82227C11.4268 6.25236 10.9107 5.84357 10.3404 5.90809C9.85987 5.96362 9.47981 6.34209 9.42569 6.82227C9.41635 6.89737 9.34901 6.95025 9.27515 6.94091C9.20129 6.93315 9.1484 6.86582 9.15634 6.79195C9.23161 6.15347 9.75692 5.66289 10.4012 5.6338ZM4.46749 5.6338C5.11038 5.66289 5.63834 6.15347 5.71237 6.79195C5.72031 6.86582 5.66742 6.93315 5.59356 6.94091C5.51952 6.95025 5.45219 6.89737 5.44302 6.82227C5.37709 6.25236 4.86094 5.84357 4.28927 5.91074C3.81015 5.96626 3.43256 6.3435 3.37579 6.82227C3.37192 6.89737 3.30846 6.95413 3.23318 6.95025C3.15932 6.9462 3.10256 6.88168 3.10644 6.80782C3.10644 6.80253 3.10785 6.79724 3.10785 6.79195C3.187 6.1087 3.78106 5.60348 4.46749 5.6338ZM2.68936 0.000275382C2.55081 -0.00501301 2.42001 0.0662037 2.34879 0.18484C1.60154 1.43131 1.30857 2.89813 1.51975 4.33462C1.53438 4.43087 1.50653 4.52712 1.44448 4.60098C0.0465875 6.26294 -0.371899 8.53694 0.343618 10.5869C0.652459 11.4692 1.27419 12.208 2.09266 12.6617C5.54209 14.5743 9.76626 14.4278 13.0743 12.2804C13.9034 11.7436 14.4895 10.906 14.7112 9.94435C15.1468 8.06081 14.6703 6.08102 13.4255 4.60098C13.3634 4.52712 13.3357 4.43087 13.3502 4.33462C13.5614 2.89813 13.2684 1.43131 12.5212 0.18484C12.4275 0.0305954 12.2388 -0.0379772 12.0685 0.0226628C11.0215 0.390557 10.1636 1.15702 9.67918 2.15282C9.61184 2.29137 9.45866 2.36788 9.30688 2.33615C8.07134 2.0883 6.79878 2.0883 5.56306 2.33615C5.4127 2.36647 5.25951 2.29137 5.19217 2.15282C4.70776 1.15702 3.8484 0.390557 2.80289 0.0226628C2.76728 0.00944188 2.72903 0.00150935 2.6906 0.000275382H2.68936Z" fill="#FF7D73"/>
</svg>
