<svg width="37" height="34" viewBox="0 0 37 34" fill="none" xmlns="http://www.w3.org/2000/svg">
<path d="M35.7864 7.42207C35.2271 6.12865 34.4207 4.95657 33.4122 3.97144C32.403 2.98337 31.2131 2.19816 29.9072 1.65852C28.5531 1.09672 27.1008 0.809159 25.6345 0.812529C23.5774 0.812529 21.5703 1.37513 19.8262 2.43783C19.4089 2.69204 19.0125 2.97126 18.637 3.27548C18.2615 2.97126 17.8651 2.69204 17.4478 2.43783C15.7037 1.37513 13.6966 0.812529 11.6395 0.812529C10.1583 0.812529 8.72288 1.09591 7.36678 1.65852C6.05658 2.20028 4.87574 2.97959 3.86179 3.97144C2.85201 4.95546 2.04536 6.12782 1.48758 7.42207C0.907583 8.76814 0.611328 10.1976 0.611328 11.6687C0.611328 13.0564 0.895066 14.5025 1.45837 15.9736C1.92987 17.203 2.60584 18.4782 3.46957 19.766C4.83818 21.8039 6.72003 23.9292 9.05669 26.0838C12.9289 29.6553 16.7635 32.1224 16.9262 32.2224L17.9151 32.8559C18.3533 33.1351 18.9166 33.1351 19.3547 32.8559L20.3436 32.2224C20.5063 32.1182 24.3368 29.6553 28.2131 26.0838C30.5498 23.9292 32.4317 21.8039 33.8003 19.766C34.664 18.4782 35.3441 17.203 35.8115 15.9736C36.3748 14.5025 36.6585 13.0564 36.6585 11.6687C36.6627 10.1976 36.3664 8.76814 35.7864 7.42207Z" fill="#D3D3D3"/>
</svg>
