<svg width="43" height="36" viewBox="0 0 43 36" fill="none" xmlns="http://www.w3.org/2000/svg">
<path d="M2.92499 8.04396C-0.116829 14.5869 -0.799687 19.1368 0.939798 21.5392C1.7047 22.5949 2.87029 23.1593 4.27247 23.1593C4.43136 23.1563 4.58894 23.1441 4.74609 23.1228C4.84637 22.5585 4.94665 21.9581 5.09207 21.3573L5.42895 19.7923C6.51292 14.7506 8.0792 7.62548 11.658 2.90234C9.03554 3.07555 4.8099 4.00368 2.92499 8.04396Z" fill="#FD8344"/>
<path d="M34.6968 20.2296C32.9391 12.176 30.2984 0 21.037 0C11.7757 0 9.13455 12.176 7.37726 20.2296L7.04039 21.8037C6.03846 26.2902 6.47561 29.6207 8.36052 31.9775C10.4369 34.5531 14.271 35.8633 20.0351 36V29.8847C19.9292 29.8573 19.8241 29.8256 19.7204 29.7896C19.617 29.7536 19.515 29.7132 19.4147 29.6689C19.3145 29.6246 19.2159 29.576 19.1195 29.5235C19.0232 29.4714 18.9294 29.415 18.8374 29.3546C18.7458 29.2947 18.6568 29.2305 18.5704 29.1632C18.484 29.0959 18.4002 29.0247 18.3195 28.9505C18.2392 28.8762 18.1615 28.7985 18.0872 28.7178C18.013 28.637 17.9422 28.5537 17.8749 28.4669C17.8077 28.3805 17.7438 28.2915 17.6839 28.1994C17.6236 28.1079 17.5676 28.0137 17.5151 27.9173C17.463 27.8213 17.4144 27.7228 17.3705 27.6225C17.3262 27.5222 17.2859 27.4202 17.2503 27.3165C17.2142 27.2131 17.1825 27.1081 17.1556 27.0017C17.1283 26.8958 17.1053 26.7886 17.087 26.6805C17.0684 26.5724 17.0545 26.4639 17.0449 26.3545C17.0354 26.2455 17.0306 26.1357 17.0302 26.0263C17.0302 25.9607 17.0332 25.8952 17.0397 25.8301C17.0462 25.765 17.0558 25.6998 17.0684 25.6356C17.0814 25.5713 17.0975 25.508 17.1166 25.445C17.1352 25.3825 17.1574 25.3209 17.1825 25.2601C17.2077 25.1997 17.2355 25.1403 17.2668 25.0825C17.2976 25.0248 17.3314 24.9684 17.3679 24.9141C17.4044 24.8594 17.443 24.8069 17.4847 24.7561C17.5264 24.7053 17.5706 24.6571 17.6171 24.6106C17.6631 24.5642 17.7117 24.5204 17.7625 24.4787C17.8133 24.437 17.8658 24.3979 17.9205 24.3615C17.9752 24.325 18.0312 24.2916 18.089 24.2608C18.1471 24.2299 18.2062 24.2017 18.2669 24.1765C18.3273 24.1514 18.3894 24.1297 18.4519 24.1106C18.5148 24.0915 18.5782 24.0754 18.6425 24.0628C18.7071 24.0498 18.7718 24.0402 18.8369 24.0337C18.9025 24.0276 18.968 24.0242 19.0336 24.0242H23.0404C23.106 24.0242 23.1715 24.0276 23.2367 24.0337C23.3022 24.0402 23.3669 24.0498 23.4311 24.0628C23.4958 24.0754 23.5592 24.0915 23.6221 24.1106C23.6847 24.1297 23.7463 24.1514 23.8071 24.1765C23.8679 24.2017 23.9269 24.2295 23.9846 24.2608C24.0428 24.2916 24.0988 24.325 24.1535 24.3615C24.2082 24.3979 24.2607 24.437 24.3115 24.4787C24.3623 24.5204 24.4105 24.5642 24.4569 24.6106C24.5034 24.6571 24.5477 24.7053 24.5889 24.7561C24.6306 24.8069 24.6697 24.8594 24.7061 24.9141C24.7426 24.9684 24.7765 25.0248 24.8073 25.0825C24.8381 25.1403 24.8663 25.1997 24.8915 25.2601C24.9167 25.3209 24.9384 25.3825 24.9575 25.445C24.9766 25.508 24.9926 25.5713 25.0052 25.6356C25.0183 25.6998 25.0278 25.765 25.0343 25.8301C25.0408 25.8952 25.0439 25.9607 25.0439 26.0263C25.0434 26.1357 25.0382 26.2455 25.0287 26.3545C25.0196 26.4639 25.0052 26.5724 24.987 26.6805C24.9683 26.7886 24.9458 26.8958 24.9184 27.0017C24.8911 27.1081 24.8598 27.2131 24.8238 27.3165C24.7877 27.4202 24.7478 27.5222 24.7035 27.6225C24.6592 27.7228 24.6111 27.8213 24.559 27.9173C24.5064 28.0137 24.4504 28.1079 24.3901 28.1994C24.3302 28.2915 24.2664 28.3805 24.1991 28.4669C24.1318 28.5537 24.061 28.637 23.9868 28.7178C23.9121 28.7985 23.8349 28.8762 23.7541 28.9505C23.6738 29.0247 23.59 29.0959 23.5036 29.1632C23.4172 29.2305 23.3283 29.2947 23.2362 29.3546C23.1446 29.415 23.0509 29.4714 22.9545 29.5235C22.8581 29.576 22.7596 29.6246 22.6593 29.6689C22.559 29.7132 22.457 29.7536 22.3537 29.7896C22.2499 29.8256 22.1449 29.8573 22.0385 29.8847V36C27.8031 35.8633 31.6372 34.5531 33.7135 31.9775C35.5984 29.6207 36.0356 26.2902 35.0336 21.8037L34.6968 20.2296ZM18.0317 16.0161C17.9661 16.0161 17.901 16.0096 17.8363 15.997C17.7721 15.984 17.7091 15.9653 17.6483 15.9401C17.5876 15.915 17.5298 15.8841 17.4751 15.8477C17.4204 15.8108 17.3701 15.7695 17.3236 15.7231C17.2772 15.6766 17.2355 15.6258 17.199 15.5711C17.1626 15.5164 17.1313 15.4591 17.1061 15.3984C17.081 15.3376 17.0623 15.2751 17.0493 15.2104C17.0367 15.1462 17.0302 15.081 17.0302 15.015C17.0302 14.9495 17.0237 14.8844 17.0106 14.8197C16.998 14.7555 16.9789 14.6929 16.9538 14.6322C16.9286 14.5714 16.8978 14.5137 16.8613 14.459C16.8248 14.4043 16.7832 14.3539 16.7367 14.3074C16.6903 14.261 16.6395 14.2193 16.5848 14.1829C16.5301 14.1464 16.4723 14.1156 16.4116 14.0904C16.3508 14.0652 16.2883 14.0461 16.2236 14.0335C16.1593 14.0205 16.0942 14.014 16.0282 14.014C15.9627 14.014 15.8976 14.0205 15.8329 14.0335C15.7682 14.0461 15.7057 14.0652 15.6449 14.0904C15.5841 14.1156 15.5264 14.1464 15.4717 14.1829C15.417 14.2193 15.3667 14.261 15.3202 14.3074C15.2733 14.3539 15.2321 14.4043 15.1956 14.459C15.1587 14.5137 15.1279 14.5714 15.1027 14.6322C15.0775 14.6929 15.0589 14.7555 15.0458 14.8197C15.0333 14.8844 15.0267 14.9495 15.0267 15.015C15.0267 15.081 15.0202 15.1462 15.0072 15.2104C14.9946 15.2751 14.9755 15.3376 14.9503 15.3984C14.9252 15.4591 14.8943 15.5164 14.8579 15.5711C14.8214 15.6258 14.7797 15.6766 14.7333 15.7231C14.6868 15.7695 14.636 15.8108 14.5813 15.8477C14.5266 15.8841 14.4689 15.915 14.4081 15.9401C14.3474 15.9653 14.2848 15.984 14.2202 15.997C14.1559 16.0096 14.0908 16.0161 14.0248 16.0161C13.9593 16.0161 13.8941 16.0096 13.8295 15.997C13.7648 15.984 13.7023 15.9653 13.6415 15.9401C13.5807 15.915 13.523 15.8841 13.4683 15.8477C13.4136 15.8108 13.3632 15.7695 13.3168 15.7231C13.2699 15.6766 13.2287 15.6258 13.1922 15.5711C13.1553 15.5164 13.1245 15.4591 13.0993 15.3984C13.0741 15.3376 13.0554 15.2751 13.0424 15.2104C13.0294 15.1462 13.0233 15.081 13.0233 15.015C13.0233 14.9169 13.0281 14.8188 13.0376 14.7207C13.0472 14.623 13.0615 14.5258 13.0811 14.4294C13.1002 14.3331 13.124 14.2376 13.1527 14.1434C13.1813 14.0492 13.2143 13.9567 13.2521 13.866C13.2894 13.7752 13.3315 13.6862 13.378 13.5994C13.4244 13.513 13.4748 13.4284 13.5295 13.3468C13.5842 13.2651 13.6428 13.1861 13.7053 13.1102C13.7678 13.0342 13.8338 12.9613 13.9033 12.8918C13.9732 12.8224 14.0456 12.7564 14.1221 12.6939C14.198 12.6313 14.277 12.5727 14.3586 12.5185C14.4407 12.4638 14.5249 12.413 14.6117 12.367C14.6986 12.3205 14.7875 12.2784 14.8783 12.2406C14.9694 12.2033 15.0619 12.1699 15.1561 12.1417C15.2503 12.113 15.3454 12.0891 15.4422 12.07C15.5386 12.0505 15.6358 12.0362 15.7339 12.0266C15.8316 12.0171 15.9301 12.0123 16.0282 12.0123C16.1268 12.0123 16.2249 12.0171 16.323 12.0266C16.4207 12.0362 16.5179 12.0505 16.6147 12.07C16.7111 12.0891 16.8066 12.113 16.9008 12.1417C16.995 12.1699 17.0875 12.2033 17.1782 12.2406C17.2694 12.2784 17.3584 12.3205 17.4452 12.367C17.532 12.413 17.6162 12.4638 17.6978 12.5185C17.7799 12.5727 17.8589 12.6313 17.9349 12.6939C18.0108 12.7564 18.0838 12.8224 18.1532 12.8918C18.2231 12.9613 18.2891 13.0342 18.3512 13.1102C18.4137 13.1861 18.4723 13.2651 18.527 13.3468C18.5817 13.4284 18.6325 13.513 18.6785 13.5994C18.7249 13.6862 18.767 13.7752 18.8048 13.866C18.8426 13.9567 18.8756 14.0492 18.9042 14.1434C18.9329 14.2376 18.9568 14.3331 18.9759 14.4294C18.995 14.5258 19.0093 14.623 19.0193 14.7207C19.0288 14.8188 19.0336 14.9169 19.0336 15.015C19.0336 15.081 19.0271 15.1462 19.0145 15.2104C19.0015 15.2751 18.9824 15.3376 18.9572 15.3984C18.932 15.4591 18.9012 15.5164 18.8647 15.5711C18.8283 15.6258 18.7866 15.6766 18.7401 15.7231C18.6937 15.7695 18.6429 15.8108 18.5882 15.8477C18.5335 15.8841 18.4758 15.915 18.415 15.9401C18.3542 15.9653 18.2917 15.984 18.227 15.997C18.1628 16.0096 18.0976 16.0161 18.0317 16.0161ZM28.0492 16.0161C27.9832 16.0161 27.9181 16.0096 27.8534 15.997C27.7892 15.984 27.7262 15.9653 27.6655 15.9401C27.6051 15.915 27.5474 15.8841 27.4927 15.8477C27.438 15.8108 27.3872 15.7695 27.3407 15.7231C27.2943 15.6766 27.2526 15.6258 27.2162 15.5711C27.1797 15.5164 27.1489 15.4591 27.1237 15.3984C27.0985 15.3376 27.0794 15.2751 27.0664 15.2104C27.0538 15.1462 27.0473 15.081 27.0473 15.015C27.0473 14.9495 27.0408 14.8844 27.0282 14.8197C27.0152 14.7555 26.9961 14.6929 26.9709 14.6322C26.9457 14.5714 26.9149 14.5137 26.8784 14.459C26.842 14.4043 26.8003 14.3539 26.7538 14.3074C26.7074 14.261 26.6566 14.2193 26.6019 14.1829C26.5476 14.1464 26.4899 14.1156 26.4291 14.0904C26.3683 14.0652 26.3054 14.0461 26.2411 14.0335C26.1765 14.0205 26.1113 14.014 26.0458 14.014C25.9798 14.014 25.9147 14.0205 25.85 14.0335C25.7858 14.0461 25.7228 14.0652 25.662 14.0904C25.6013 14.1156 25.5435 14.1464 25.4893 14.1829C25.4346 14.2193 25.3838 14.261 25.3373 14.3074C25.2909 14.3539 25.2492 14.4043 25.2127 14.459C25.1763 14.5137 25.1454 14.5714 25.1203 14.6322C25.0951 14.6929 25.076 14.7555 25.063 14.8197C25.0504 14.8844 25.0439 14.9495 25.0439 15.015C25.0439 15.081 25.0374 15.1462 25.0248 15.2104C25.0117 15.2751 24.9926 15.3376 24.9675 15.3984C24.9423 15.4591 24.9115 15.5164 24.875 15.5711C24.8385 15.6258 24.7969 15.6766 24.7504 15.7231C24.704 15.7695 24.6532 15.8108 24.5985 15.8477C24.5438 15.8841 24.486 15.915 24.4257 15.9401C24.3649 15.9653 24.302 15.984 24.2377 15.997C24.173 16.0096 24.1079 16.0161 24.0419 16.0161C23.9764 16.0161 23.9113 16.0096 23.8466 15.997C23.7823 15.984 23.7194 15.9653 23.6586 15.9401C23.5978 15.915 23.5401 15.8841 23.4854 15.8477C23.4307 15.8108 23.3803 15.7695 23.3339 15.7231C23.2874 15.6766 23.2458 15.6258 23.2093 15.5711C23.1728 15.5164 23.142 15.4591 23.1168 15.3984C23.0917 15.3376 23.0726 15.2751 23.0595 15.2104C23.047 15.1462 23.0404 15.081 23.0404 15.015C23.0404 14.9169 23.0452 14.8188 23.0548 14.7207C23.0643 14.623 23.0791 14.5258 23.0982 14.4294C23.1173 14.3331 23.1412 14.2376 23.1698 14.1434C23.1985 14.0492 23.2314 13.9567 23.2692 13.866C23.307 13.7752 23.3487 13.6862 23.3951 13.5994C23.4416 13.513 23.4924 13.4284 23.547 13.3468C23.6017 13.2651 23.6599 13.1861 23.7224 13.1102C23.7849 13.0342 23.8509 12.9613 23.9208 12.8918C23.9903 12.8224 24.0632 12.7564 24.1392 12.6939C24.2151 12.6313 24.2942 12.5727 24.3762 12.5185C24.4578 12.4638 24.542 12.413 24.6289 12.367C24.7157 12.3205 24.8047 12.2784 24.8954 12.2406C24.9866 12.2033 25.079 12.1699 25.1732 12.1417C25.2674 12.113 25.3629 12.0891 25.4593 12.07C25.5557 12.0505 25.6529 12.0362 25.751 12.0266C25.8491 12.0171 25.9473 12.0123 26.0458 12.0123C26.1439 12.0123 26.242 12.0171 26.3401 12.0266C26.4382 12.0362 26.5355 12.0505 26.6318 12.07C26.7282 12.0891 26.8237 12.113 26.9179 12.1417C27.0121 12.1699 27.1046 12.2033 27.1958 12.2406C27.2865 12.2784 27.3755 12.3205 27.4623 12.367C27.5491 12.413 27.6333 12.4638 27.715 12.5185C27.797 12.5727 27.876 12.6313 27.952 12.6939C28.0279 12.7564 28.1009 12.8224 28.1703 12.8918C28.2402 12.9613 28.3062 13.0342 28.3687 13.1102C28.4312 13.1861 28.4894 13.2651 28.5441 13.3468C28.5988 13.4284 28.6496 13.513 28.696 13.5994C28.7425 13.6862 28.7842 13.7752 28.8219 13.866C28.8597 13.9567 28.8927 14.0492 28.9213 14.1434C28.95 14.2376 28.9739 14.3331 28.993 14.4294C29.0121 14.5258 29.0268 14.623 29.0364 14.7207C29.0459 14.8188 29.0507 14.9169 29.0507 15.015C29.0507 15.081 29.0442 15.1462 29.0316 15.2104C29.0186 15.2751 28.9995 15.3376 28.9743 15.3984C28.9491 15.4591 28.9183 15.5164 28.8818 15.5711C28.8454 15.6258 28.8037 15.6766 28.7573 15.7231C28.7108 15.7695 28.6604 15.8108 28.6058 15.8477C28.5511 15.8841 28.4933 15.915 28.4325 15.9401C28.3718 15.9653 28.3088 15.984 28.2446 15.997C28.1799 16.0096 28.1148 16.0161 28.0492 16.0161Z" fill="#FD8344"/>
<path d="M23.0415 26.0264H19.0347C19.0347 26.0919 19.0377 26.1575 19.0442 26.2226C19.0507 26.2877 19.0603 26.3524 19.0733 26.4171C19.0859 26.4813 19.102 26.5447 19.1211 26.6076C19.1397 26.6702 19.1619 26.7318 19.187 26.7926C19.2122 26.8529 19.2404 26.9124 19.2713 26.9701C19.3021 27.0279 19.3359 27.0839 19.3724 27.1386C19.4089 27.1933 19.4479 27.2458 19.4892 27.2966C19.5309 27.3469 19.5751 27.3956 19.6216 27.442C19.6676 27.4885 19.7162 27.5323 19.767 27.574C19.8178 27.6156 19.8703 27.6543 19.925 27.6908C19.9797 27.7272 20.0357 27.7611 20.0935 27.7919C20.1516 27.8227 20.2107 27.8509 20.2715 27.8761C20.3318 27.9009 20.3939 27.923 20.4564 27.9421C20.5193 27.9612 20.5827 27.9773 20.6474 27.9899C20.7116 28.0024 20.7763 28.0124 20.8419 28.0185C20.907 28.025 20.9725 28.0285 21.0381 28.0285C21.1036 28.0285 21.1692 28.025 21.2343 28.0185C21.2999 28.0124 21.3645 28.0024 21.4288 27.9899C21.493 27.9773 21.5569 27.9612 21.6198 27.9421C21.6823 27.923 21.744 27.9009 21.8047 27.8761C21.8655 27.8509 21.9245 27.8227 21.9823 27.7919C22.0405 27.7611 22.0965 27.7272 22.1512 27.6908C22.2059 27.6543 22.2584 27.6156 22.3092 27.574C22.3595 27.5323 22.4081 27.4885 22.4546 27.442C22.501 27.3956 22.5449 27.3469 22.5866 27.2966C22.6282 27.2458 22.6673 27.1933 22.7038 27.1386C22.7402 27.0839 22.7741 27.0279 22.8049 26.9701C22.8357 26.9124 22.864 26.8529 22.8891 26.7926C22.9139 26.7318 22.936 26.6702 22.9551 26.6076C22.9742 26.5447 22.9903 26.4813 23.0029 26.4171C23.0159 26.3524 23.0255 26.2877 23.032 26.2226C23.0385 26.1575 23.0415 26.0919 23.0415 26.0264Z" fill="#FD8344"/>
<path d="M39.1505 8.04396C37.2656 4.00368 33.0399 3.07555 30.4175 2.90234C33.9963 7.62548 35.5626 14.7688 36.6461 19.8192L37.0012 21.3755C37.1471 21.9763 37.2474 22.5585 37.3294 23.1228V23.1411L37.8026 23.1593C39.2052 23.1593 40.3708 22.5949 41.1357 21.5392C42.8752 19.1368 42.1923 14.5869 39.1505 8.04396Z" fill="#FD8344"/>
</svg>
