<svg width="17" height="14" viewBox="0 0 17 14" fill="none" xmlns="http://www.w3.org/2000/svg">
<path d="M1.1375 3.1283C-0.0454337 5.67277 -0.310989 7.44219 0.365477 8.37644C0.66294 8.78702 1.11622 9.00649 1.66152 9.00649C1.72331 9.0053 1.78459 9.00058 1.8457 8.9923C1.8847 8.77284 1.9237 8.53936 1.98025 8.30571L2.11126 7.69711C2.5328 5.73642 3.14191 2.96556 4.53367 1.12878C3.51382 1.19614 1.87052 1.55708 1.1375 3.1283Z" fill="#FF7D73"/>
<path d="M13.4932 7.86707C12.8097 4.7351 11.7827 0 8.18112 0C4.57949 0 3.55238 4.7351 2.86899 7.86707L2.73798 8.47921C2.34835 10.224 2.51835 11.5192 3.25137 12.4357C4.05884 13.4373 5.54987 13.9468 7.79148 14V11.6218C7.75028 11.6112 7.70943 11.5989 7.66908 11.5848C7.6289 11.5708 7.58923 11.5551 7.55023 11.5379C7.51123 11.5207 7.47291 11.5018 7.43543 11.4814C7.39795 11.4611 7.36149 11.4392 7.3257 11.4157C7.29008 11.3924 7.25547 11.3674 7.22187 11.3412C7.18828 11.3151 7.1557 11.2874 7.1243 11.2585C7.09306 11.2296 7.06284 11.1994 7.03398 11.168C7.00511 11.1366 6.97759 11.1042 6.95142 11.0704C6.92526 11.0369 6.90044 11.0022 6.87714 10.9665C6.85368 10.9308 6.8319 10.8942 6.81147 10.8567C6.79121 10.8194 6.7723 10.7811 6.75525 10.7421C6.73803 10.7031 6.72233 10.6634 6.70849 10.6231C6.69448 10.5829 6.68215 10.542 6.67169 10.5007C6.66105 10.4595 6.6521 10.4178 6.64501 10.3757C6.63775 10.3337 6.63235 10.2915 6.62864 10.249C6.62492 10.2066 6.62307 10.1639 6.6229 10.1213C6.6229 10.0958 6.62408 10.0704 6.62661 10.045C6.62914 10.0197 6.63286 9.99438 6.63775 9.9694C6.64282 9.94441 6.64906 9.91976 6.65649 9.89528C6.66375 9.87097 6.67236 9.847 6.68215 9.82337C6.69194 9.7999 6.70275 9.77677 6.7149 9.75432C6.72689 9.73186 6.74006 9.70992 6.75424 9.68881C6.76842 9.66754 6.78345 9.64712 6.79965 9.62736C6.81586 9.60761 6.83308 9.58887 6.85114 9.57081C6.86904 9.55274 6.88795 9.53569 6.9077 9.51949C6.92745 9.50328 6.94788 9.48809 6.96915 9.47391C6.99042 9.45972 7.0122 9.44672 7.03465 9.43474C7.05727 9.42275 7.08023 9.41178 7.10387 9.40199C7.12733 9.3922 7.15148 9.38375 7.17579 9.37633C7.20026 9.3689 7.22491 9.36265 7.2499 9.35776C7.27505 9.35269 7.30021 9.34898 7.32553 9.34645C7.35102 9.34408 7.37651 9.34273 7.40201 9.34273H8.96023C8.98572 9.34273 9.01121 9.34408 9.03653 9.34645C9.06203 9.34898 9.08718 9.35269 9.11216 9.35776C9.13732 9.36265 9.16197 9.3689 9.18645 9.37633C9.21076 9.38375 9.23473 9.3922 9.25836 9.40199C9.282 9.41178 9.30496 9.42258 9.32741 9.43474C9.35003 9.44672 9.37181 9.45972 9.39308 9.47391C9.41435 9.48809 9.43478 9.50328 9.45453 9.51949C9.47429 9.53569 9.49303 9.55274 9.51109 9.57081C9.52915 9.58887 9.54637 9.60761 9.56241 9.62736C9.57862 9.64712 9.59381 9.66754 9.60799 9.68881C9.62217 9.70992 9.63534 9.73186 9.64733 9.75432C9.65931 9.77677 9.67029 9.7999 9.68008 9.82337C9.68987 9.847 9.69831 9.87097 9.70574 9.89528C9.71317 9.91976 9.71941 9.94441 9.72431 9.9694C9.72937 9.99438 9.73309 10.0197 9.73562 10.045C9.73815 10.0704 9.73934 10.0958 9.73934 10.1213C9.73917 10.1639 9.73714 10.2066 9.73343 10.249C9.72988 10.2915 9.72431 10.3337 9.71722 10.3757C9.70996 10.4178 9.70118 10.4595 9.69055 10.5007C9.67991 10.542 9.66776 10.5829 9.65374 10.6231C9.63973 10.6634 9.6242 10.7031 9.60698 10.7421C9.58976 10.7811 9.57102 10.8194 9.55076 10.8567C9.53033 10.8942 9.50856 10.9308 9.48509 10.9665C9.46179 11.0022 9.43698 11.0369 9.41081 11.0704C9.38464 11.1042 9.35712 11.1366 9.32826 11.168C9.29922 11.1994 9.26917 11.2296 9.23777 11.2585C9.20654 11.2874 9.17395 11.3151 9.14036 11.3412C9.10676 11.3674 9.07215 11.3924 9.03636 11.4157C9.00074 11.4392 8.96428 11.4611 8.9268 11.4814C8.88932 11.5018 8.851 11.5207 8.812 11.5379C8.773 11.5551 8.73333 11.5708 8.69315 11.5848C8.6528 11.5989 8.61195 11.6112 8.57059 11.6218V14C10.8124 13.9468 12.3034 13.4373 13.1109 12.4357C13.8439 11.5192 14.0139 10.224 13.6242 8.47921L13.4932 7.86707ZM7.01237 6.22849C6.98688 6.22849 6.96155 6.22596 6.9364 6.22106C6.91141 6.21599 6.88693 6.20874 6.8633 6.19894C6.83966 6.18915 6.81721 6.17717 6.79594 6.16298C6.77467 6.14863 6.75508 6.1326 6.73702 6.11453C6.71896 6.09647 6.70275 6.07672 6.68857 6.05545C6.67439 6.03417 6.66223 6.01189 6.65244 5.98826C6.64265 5.96462 6.63539 5.94031 6.63032 5.91516C6.62543 5.89017 6.6229 5.86485 6.6229 5.83919C6.6229 5.81369 6.62036 5.78837 6.6153 5.76322C6.6104 5.73823 6.60298 5.71392 6.59318 5.69029C6.58339 5.66665 6.57141 5.6442 6.55723 5.62293C6.54304 5.60165 6.52684 5.58207 6.50877 5.56401C6.49071 5.54594 6.47096 5.52974 6.44969 5.51556C6.42841 5.50137 6.40596 5.48939 6.38233 5.4796C6.35869 5.46981 6.33438 5.46238 6.30923 5.45748C6.28424 5.45242 6.25892 5.44988 6.23326 5.44988C6.20777 5.44988 6.18244 5.45242 6.15729 5.45748C6.13213 5.46238 6.10782 5.46981 6.08419 5.4796C6.06055 5.48939 6.0381 5.50137 6.01683 5.51556C5.99556 5.52974 5.97597 5.54594 5.95791 5.56401C5.93968 5.58207 5.92364 5.60165 5.90946 5.62293C5.89511 5.6442 5.88312 5.66665 5.87333 5.69029C5.86354 5.71392 5.85628 5.73823 5.85122 5.76322C5.84632 5.78837 5.84379 5.81369 5.84379 5.83919C5.84379 5.86485 5.84125 5.89017 5.83619 5.91516C5.83129 5.94031 5.82387 5.96462 5.81407 5.98826C5.80428 6.01189 5.7923 6.03417 5.77812 6.05545C5.76393 6.07672 5.74773 6.09647 5.72966 6.11453C5.7116 6.1326 5.69185 6.14863 5.67058 6.16298C5.64931 6.17717 5.62685 6.18915 5.60322 6.19894C5.57958 6.20874 5.55527 6.21599 5.53012 6.22106C5.50513 6.22596 5.47981 6.22849 5.45415 6.22849C5.42866 6.22849 5.40333 6.22596 5.37818 6.22106C5.35302 6.21599 5.32871 6.20874 5.30508 6.19894C5.28144 6.18915 5.25899 6.17717 5.23772 6.16298C5.21645 6.14863 5.19686 6.1326 5.1788 6.11453C5.16057 6.09647 5.14453 6.07672 5.13035 6.05545C5.116 6.03417 5.10401 6.01189 5.09422 5.98826C5.08443 5.96462 5.07717 5.94031 5.07211 5.91516C5.06704 5.89017 5.06468 5.86485 5.06468 5.83919C5.06468 5.80103 5.06653 5.76288 5.07025 5.72473C5.07396 5.68674 5.07953 5.64892 5.08713 5.61145C5.09456 5.57397 5.10384 5.53683 5.11499 5.50019C5.12613 5.46356 5.13896 5.4276 5.15365 5.39232C5.16816 5.35703 5.18454 5.32242 5.2026 5.28866C5.22067 5.25506 5.24025 5.22214 5.26152 5.19041C5.28279 5.15867 5.30559 5.12794 5.3299 5.0984C5.35421 5.06885 5.37987 5.04049 5.40688 5.01348C5.43406 4.98647 5.46225 4.96081 5.49196 4.9365C5.52151 4.91219 5.55223 4.8894 5.58397 4.8683C5.61588 4.84702 5.64863 4.82727 5.68239 4.80938C5.71616 4.79131 5.75077 4.77494 5.78605 4.76025C5.8215 4.74573 5.85746 4.73273 5.8941 4.72176C5.93073 4.71062 5.9677 4.70133 6.00535 4.6939C6.04283 4.68631 6.08064 4.68074 6.1188 4.67702C6.15678 4.67331 6.1951 4.67145 6.23326 4.67145C6.27158 4.67145 6.30973 4.67331 6.34789 4.67702C6.38587 4.68074 6.42369 4.68631 6.46133 4.6939C6.49881 4.70133 6.53595 4.71062 6.57259 4.72176C6.60922 4.73273 6.64518 4.74573 6.68046 4.76025C6.71592 4.77494 6.75053 4.79131 6.78429 4.80938C6.81805 4.82727 6.85081 4.84702 6.88254 4.8683C6.91445 4.8894 6.94518 4.91219 6.97472 4.9365C7.00426 4.96081 7.03263 4.98647 7.05964 5.01348C7.08682 5.04049 7.11248 5.06885 7.13662 5.0984C7.16093 5.12794 7.18372 5.15867 7.20499 5.19041C7.22626 5.22214 7.24602 5.25506 7.26391 5.28866C7.28197 5.32242 7.29835 5.35703 7.31304 5.39232C7.32772 5.4276 7.34056 5.46356 7.3517 5.50019C7.36284 5.53683 7.37212 5.57397 7.37955 5.61145C7.38698 5.64892 7.39255 5.68674 7.39644 5.72473C7.40015 5.76288 7.40201 5.80103 7.40201 5.83919C7.40201 5.86485 7.39947 5.89017 7.39458 5.91516C7.38951 5.94031 7.38209 5.96462 7.37229 5.98826C7.3625 6.01189 7.35052 6.03417 7.33633 6.05545C7.32215 6.07672 7.30595 6.09647 7.28788 6.11453C7.26982 6.1326 7.25007 6.14863 7.2288 6.16298C7.20752 6.17717 7.18507 6.18915 7.16144 6.19894C7.1378 6.20874 7.11349 6.21599 7.08834 6.22106C7.06335 6.22596 7.03803 6.22849 7.01237 6.22849ZM10.9081 6.22849C10.8824 6.22849 10.8571 6.22596 10.8319 6.22106C10.807 6.21599 10.7825 6.20874 10.7588 6.19894C10.7354 6.18915 10.7129 6.17717 10.6917 6.16298C10.6704 6.14863 10.6506 6.1326 10.6326 6.11453C10.6145 6.09647 10.5983 6.07672 10.5841 6.05545C10.5699 6.03417 10.5579 6.01189 10.5482 5.98826C10.5384 5.96462 10.5309 5.94031 10.5259 5.91516C10.521 5.89017 10.5184 5.86485 10.5184 5.83919C10.5184 5.81369 10.5159 5.78837 10.511 5.76322C10.506 5.73823 10.4985 5.71392 10.4887 5.69029C10.4789 5.66665 10.467 5.6442 10.4528 5.62293C10.4386 5.60165 10.4224 5.58207 10.4043 5.56401C10.3863 5.54594 10.3665 5.52974 10.3452 5.51556C10.3241 5.50137 10.3017 5.48939 10.278 5.4796C10.2544 5.46981 10.2299 5.46238 10.2049 5.45748C10.1798 5.45242 10.1545 5.44988 10.129 5.44988C10.1033 5.44988 10.078 5.45242 10.0528 5.45748C10.0279 5.46238 10.0034 5.46981 9.97974 5.4796C9.9561 5.48939 9.93365 5.50137 9.91255 5.51556C9.89127 5.52974 9.87152 5.54594 9.85346 5.56401C9.83539 5.58207 9.81919 5.60165 9.80501 5.62293C9.79083 5.6442 9.77884 5.66665 9.76905 5.69029C9.75926 5.71392 9.75183 5.73823 9.74676 5.76322C9.74187 5.78837 9.73934 5.81369 9.73934 5.83919C9.73934 5.86485 9.7368 5.89017 9.73191 5.91516C9.72684 5.94031 9.71941 5.96462 9.70962 5.98826C9.69983 6.01189 9.68784 6.03417 9.67366 6.05545C9.65948 6.07672 9.64328 6.09647 9.62521 6.11453C9.60715 6.1326 9.5874 6.14863 9.56612 6.16298C9.54485 6.17717 9.5224 6.18915 9.49893 6.19894C9.4753 6.20874 9.45082 6.21599 9.42583 6.22106C9.40068 6.22596 9.37536 6.22849 9.3497 6.22849C9.3242 6.22849 9.29888 6.22596 9.27373 6.22106C9.24874 6.21599 9.22426 6.20874 9.20063 6.19894C9.17699 6.18915 9.15454 6.17717 9.13327 6.16298C9.112 6.14863 9.09241 6.1326 9.07435 6.11453C9.05628 6.09647 9.04008 6.07672 9.0259 6.05545C9.01172 6.03417 8.99973 6.01189 8.98994 5.98826C8.98015 5.96462 8.97272 5.94031 8.96765 5.91516C8.96276 5.89017 8.96023 5.86485 8.96023 5.83919C8.96023 5.80103 8.96208 5.76288 8.9658 5.72473C8.96951 5.68674 8.97525 5.64892 8.98268 5.61145C8.99011 5.57397 8.99939 5.53683 9.01053 5.50019C9.02168 5.46356 9.03451 5.4276 9.04919 5.39232C9.06388 5.35703 9.08009 5.32242 9.09815 5.28866C9.11622 5.25506 9.13597 5.22214 9.15724 5.19041C9.17851 5.15867 9.20113 5.12794 9.22544 5.0984C9.24975 5.06885 9.27541 5.04049 9.3026 5.01348C9.32961 4.98647 9.35797 4.96081 9.38751 4.9365C9.41706 4.91219 9.44778 4.8894 9.47969 4.8683C9.51143 4.84702 9.54418 4.82727 9.57794 4.80938C9.61171 4.79131 9.64632 4.77494 9.6816 4.76025C9.71705 4.74573 9.75301 4.73273 9.78964 4.72176C9.82628 4.71062 9.86342 4.70133 9.9009 4.6939C9.93838 4.68631 9.97619 4.68074 10.0143 4.67702C10.0525 4.67331 10.0907 4.67145 10.129 4.67145C10.1671 4.67145 10.2053 4.67331 10.2434 4.67702C10.2816 4.68074 10.3194 4.68631 10.3569 4.6939C10.3944 4.70133 10.4315 4.71062 10.4681 4.72176C10.5048 4.73273 10.5407 4.74573 10.5762 4.76025C10.6115 4.77494 10.6461 4.79131 10.6798 4.80938C10.7136 4.82727 10.7464 4.84702 10.7781 4.8683C10.81 4.8894 10.8407 4.91219 10.8703 4.9365C10.8998 4.96081 10.9282 4.98647 10.9552 5.01348C10.9824 5.04049 11.008 5.06885 11.0323 5.0984C11.0566 5.12794 11.0793 5.15867 11.1005 5.19041C11.1218 5.22214 11.1416 5.25506 11.1596 5.28866C11.1777 5.32242 11.1939 5.35703 11.2086 5.39232C11.2233 5.4276 11.2361 5.46356 11.2472 5.50019C11.2584 5.53683 11.2677 5.57397 11.2751 5.61145C11.2825 5.64892 11.2883 5.68674 11.292 5.72473C11.2957 5.76288 11.2976 5.80103 11.2976 5.83919C11.2976 5.86485 11.295 5.89017 11.2901 5.91516C11.2851 5.94031 11.2776 5.96462 11.2678 5.98826C11.258 6.01189 11.2461 6.03417 11.2319 6.05545C11.2177 6.07672 11.2015 6.09647 11.1834 6.11453C11.1654 6.1326 11.1458 6.14863 11.1245 6.16298C11.1032 6.17717 11.0808 6.18915 11.0572 6.19894C11.0335 6.20874 11.009 6.21599 10.9841 6.22106C10.9589 6.22596 10.9336 6.22849 10.9081 6.22849Z" fill="#FF7D73"/>
<path d="M8.96056 10.1213H7.40234C7.40234 10.1468 7.40353 10.1723 7.40606 10.1976C7.40859 10.223 7.4123 10.2481 7.41737 10.2733C7.42226 10.2983 7.42851 10.3229 7.43594 10.3474C7.4432 10.3717 7.45181 10.3957 7.4616 10.4193C7.47139 10.4428 7.48237 10.4659 7.49435 10.4884C7.50634 10.5108 7.51951 10.5326 7.53369 10.5539C7.54787 10.5751 7.56306 10.5956 7.5791 10.6153C7.59531 10.6349 7.61253 10.6538 7.63059 10.6719C7.64849 10.6899 7.66739 10.707 7.68715 10.7232C7.7069 10.7394 7.72732 10.7544 7.7486 10.7686C7.76987 10.7828 7.79165 10.7959 7.8141 10.8079C7.83672 10.8199 7.85968 10.8309 7.88332 10.8407C7.90678 10.8503 7.93092 10.8589 7.95523 10.8663C7.97971 10.8738 8.00436 10.88 8.02951 10.8849C8.0545 10.8898 8.07965 10.8937 8.10515 10.8961C8.13047 10.8986 8.15596 10.8999 8.18145 10.8999C8.20695 10.8999 8.23244 10.8986 8.25776 10.8961C8.28325 10.8937 8.30841 10.8898 8.33339 10.8849C8.35838 10.88 8.38319 10.8738 8.40767 10.8663C8.43198 10.8589 8.45596 10.8503 8.47959 10.8407C8.50323 10.8309 8.52619 10.8199 8.54864 10.8079C8.57126 10.7959 8.59304 10.7828 8.61431 10.7686C8.63558 10.7544 8.65601 10.7394 8.67576 10.7232C8.69534 10.707 8.71425 10.6899 8.73232 10.6719C8.75038 10.6538 8.76743 10.6349 8.78364 10.6153C8.79985 10.5956 8.81504 10.5751 8.82922 10.5539C8.8434 10.5326 8.85657 10.5108 8.86856 10.4884C8.88054 10.4659 8.89152 10.4428 8.90131 10.4193C8.91093 10.3957 8.91954 10.3717 8.92697 10.3474C8.9344 10.3229 8.94064 10.2983 8.94554 10.2733C8.9506 10.2481 8.95432 10.223 8.95685 10.1976C8.95938 10.1723 8.96056 10.1468 8.96056 10.1213Z" fill="#FF7D73"/>
<path d="M15.2253 3.1283C14.4923 1.55708 12.849 1.19614 11.8291 1.12878C13.2209 2.96556 13.83 5.74351 14.2513 7.70758L14.3894 8.3128C14.4462 8.54645 14.4852 8.77284 14.5171 8.9923V8.99939L14.7011 9.00649C15.2465 9.00649 15.6998 8.78702 15.9973 8.37644C16.6738 7.44219 16.4082 5.67277 15.2253 3.1283Z" fill="#FF7D73"/>
</svg>
