<svg width="25" height="25" viewBox="0 0 25 25" fill="none" xmlns="http://www.w3.org/2000/svg">
<rect width="24.6639" height="24.6639" rx="12.3319" fill="black" fill-opacity="0.41"/>
<path d="M19.4483 7.05827C19.5369 7.14717 19.5866 7.26759 19.5866 7.39313C19.5866 7.51866 19.5369 7.63908 19.4483 7.72799L18.4589 8.71834L16.5616 6.82111L17.551 5.83076C17.64 5.74185 17.7606 5.69189 17.8864 5.69189C18.0121 5.69189 18.1328 5.74185 18.2217 5.83076L19.4483 7.05732V7.05827ZM17.7882 9.38806L15.891 7.49083L9.42807 13.9547C9.37586 14.0069 9.33656 14.0705 9.31329 14.1406L8.54966 16.4305C8.53581 16.4723 8.53384 16.5171 8.54398 16.5599C8.55412 16.6027 8.57596 16.6418 8.60706 16.6729C8.63816 16.704 8.6773 16.7258 8.7201 16.736C8.7629 16.7461 8.80767 16.7442 8.84942 16.7303L11.1394 15.9667C11.2093 15.9437 11.273 15.9047 11.3253 15.8528L17.7882 9.389V9.38806Z" fill="white"/>
<path fill-rule="evenodd" clip-rule="evenodd" d="M5.69141 18.0244C5.69141 18.4018 5.84132 18.7637 6.10817 19.0305C6.37502 19.2974 6.73694 19.4473 7.11432 19.4473H17.549C17.9264 19.4473 18.2884 19.2974 18.5552 19.0305C18.822 18.7637 18.972 18.4018 18.972 18.0244V12.3327C18.972 12.2069 18.922 12.0863 18.833 11.9973C18.7441 11.9084 18.6235 11.8584 18.4977 11.8584C18.3719 11.8584 18.2512 11.9084 18.1623 11.9973C18.0733 12.0863 18.0234 12.2069 18.0234 12.3327V18.0244C18.0234 18.1502 17.9734 18.2708 17.8844 18.3598C17.7955 18.4487 17.6748 18.4987 17.549 18.4987H7.11432C6.98853 18.4987 6.86789 18.4487 6.77894 18.3598C6.68999 18.2708 6.64002 18.1502 6.64002 18.0244V7.58966C6.64002 7.46387 6.68999 7.34323 6.77894 7.25428C6.86789 7.16533 6.98853 7.11536 7.11432 7.11536H13.2803C13.4061 7.11536 13.5267 7.06539 13.6157 6.97644C13.7046 6.88749 13.7546 6.76685 13.7546 6.64105C13.7546 6.51526 13.7046 6.39462 13.6157 6.30567C13.5267 6.21672 13.4061 6.16675 13.2803 6.16675H7.11432C6.73694 6.16675 6.37502 6.31666 6.10817 6.58351C5.84132 6.85036 5.69141 7.21228 5.69141 7.58966V18.0244Z" fill="white"/>
</svg>
