<svg width="33" height="33" viewBox="0 0 33 33" fill="none" xmlns="http://www.w3.org/2000/svg">
<path d="M32.5867 4.0804C32.8514 4.3459 33 4.7055 33 5.08039C33 5.45528 32.8514 5.81488 32.5867 6.08038L29.6316 9.03786L23.9652 3.37219L26.9203 0.414708C27.1859 0.149171 27.5462 0 27.9218 0C28.2974 0 28.6577 0.149171 28.9233 0.414708L32.5867 4.07756V4.0804ZM27.6286 11.0378L21.9622 5.37217L2.65957 24.6751C2.50364 24.831 2.38625 25.0211 2.31675 25.2303L0.0360264 32.0688C-0.00533609 32.1935 -0.0112089 32.3272 0.0190649 32.455C0.0493387 32.5828 0.114567 32.6997 0.207457 32.7926C0.300347 32.8854 0.41724 32.9507 0.545071 32.9809C0.672902 33.0112 0.806632 33.0053 0.931317 32.964L7.77066 30.6835C7.97965 30.6149 8.16977 30.4985 8.32597 30.3436L27.6286 11.0407V11.0378Z" fill="white"/>
</svg>
