<svg width="1440" height="743" viewBox="0 0 1440 743" fill="none" xmlns="http://www.w3.org/2000/svg">
<path d="M1440 639.593L1360 657.249C1280 676.237 1120 709.549 960 692.893C707.5 797.609 604 443.607 444 373.651C284 303.696 80 407.963 0 373.651V319.797V0H80C160 0 320 0 480 0C640 0 800 0 960 0C1120 0 1280 0 1360 0H1440V639.593Z" fill="#FBCF78"/>
<path d="M1500.5 348.458C1581.54 429.867 1546.72 641.146 1437.9 704.261C1359.2 749.903 1305.37 677.506 1120 692.651C965.521 705.271 937.172 760.92 860.4 735.941C747.284 699.131 657.114 528.972 696.321 376.965C742.145 199.339 948.445 106.304 1081.68 136.24C1102.48 140.912 1192.11 161.046 1220.93 225.984C1238.54 265.659 1220.65 293.243 1242.52 311.506C1276.19 339.618 1333.28 286.479 1417.39 305.168C1422.44 306.289 1469.42 317.228 1500.5 348.458Z" fill="#FABF4B"/>
</svg>
