<svg width="41" height="41" viewBox="0 0 41 41" fill="none" xmlns="http://www.w3.org/2000/svg">
<g clip-path="url(#clip0)">
<path d="M13.6683 20.4629C13.6683 16.7811 16.7269 13.7957 20.5008 13.7957C24.2748 13.7957 27.335 16.7811 27.335 20.4629C27.335 24.1447 24.2748 27.1301 20.5008 27.1301C16.7269 27.1301 13.6683 24.1447 13.6683 20.4629ZM9.9739 20.4629C9.9739 26.1349 14.6868 30.7327 20.5008 30.7327C26.3149 30.7327 31.0277 26.1349 31.0277 20.4629C31.0277 14.7909 26.3149 10.1931 20.5008 10.1931C14.6868 10.1931 9.9739 14.7909 9.9739 20.4629ZM28.9844 9.78593C28.9838 11.1114 30.0848 12.1864 31.4435 12.1869C32.8022 12.1874 33.904 11.1133 33.9046 9.78785C33.9051 8.46237 32.8041 7.38742 31.4455 7.38689H31.4445C30.0865 7.38751 28.9856 8.46108 28.9844 9.78593ZM12.2185 36.7424C10.2197 36.6536 9.13336 36.3288 8.4114 36.0544C7.45426 35.6909 6.77134 35.2579 6.05332 34.5584C5.3353 33.8589 4.89084 33.1933 4.51986 32.2595C4.23842 31.5555 3.90549 30.4954 3.81463 28.5455C3.71524 26.4373 3.6954 25.804 3.6954 20.4631C3.6954 15.1221 3.71688 14.4906 3.81463 12.3807C3.90565 10.4307 4.24105 9.37265 4.51986 8.66657C4.89248 7.73281 5.33628 7.06657 6.05332 6.36609C6.77036 5.66561 7.45262 5.23201 8.4114 4.87009C9.13303 4.59553 10.2197 4.27073 12.2185 4.18209C14.3794 4.08513 15.0286 4.06577 20.5008 4.06577C25.9731 4.06577 26.6229 4.08673 28.7856 4.18209C30.7844 4.27089 31.8689 4.59809 32.5927 4.87009C33.5498 5.23201 34.2328 5.66657 34.9508 6.36609C35.6688 7.06561 36.1116 7.73281 36.4842 8.66657C36.7657 9.37057 37.0986 10.4307 37.1895 12.3807C37.2889 14.4906 37.3087 15.1221 37.3087 20.4631C37.3087 25.804 37.2889 26.4355 37.1895 28.5455C37.0984 30.4954 36.7639 31.5552 36.4842 32.2595C36.1116 33.1933 35.6678 33.8595 34.9508 34.5584C34.2337 35.2573 33.5498 35.6909 32.5927 36.0544C31.8711 36.329 30.7844 36.6538 28.7856 36.7424C26.6247 36.8394 25.9755 36.8587 20.5008 36.8587C15.0261 36.8587 14.3788 36.8394 12.2185 36.7424ZM12.0487 0.584011C9.86631 0.680971 8.375 1.01857 7.07262 1.51297C5.72383 2.02353 4.58202 2.70849 3.44102 3.81985C2.30003 4.93121 1.59972 6.04689 1.07638 7.36273C0.569595 8.63409 0.223541 10.0882 0.124153 12.2173C0.0231249 14.3498 0 15.0315 0 20.4629C0 25.8943 0.0231249 26.576 0.124153 28.7085C0.223541 30.8378 0.569595 32.2917 1.07638 33.563C1.59972 34.8781 2.30019 35.9951 3.44102 37.1059C4.58185 38.2168 5.72383 38.9008 7.07262 39.4128C8.37746 39.9072 9.86631 40.2448 12.0487 40.3418C14.2358 40.4387 14.9335 40.4629 20.5008 40.4629C26.0682 40.4629 26.767 40.4403 28.9529 40.3418C31.1355 40.2448 32.6258 39.9072 33.929 39.4128C35.277 38.9008 36.4196 38.2173 37.5606 37.1059C38.7016 35.9946 39.4004 34.8781 39.9253 33.563C40.432 32.2917 40.7797 30.8376 40.8775 28.7085C40.9769 26.5744 41 25.8943 41 20.4629C41 15.0315 40.9769 14.3498 40.8775 12.2173C40.7781 10.088 40.432 8.63329 39.9253 7.36273C39.4004 6.04769 38.6998 4.93297 37.5606 3.81985C36.4214 2.70673 35.277 2.02353 33.9307 1.51297C32.6258 1.01857 31.1353 0.679371 28.9545 0.584011C26.7687 0.487051 26.0698 0.462891 20.5025 0.462891C14.9351 0.462891 14.2358 0.485451 12.0487 0.584011Z" fill="#434343"/>
</g>
<defs>
<clipPath id="clip0">
<rect width="41" height="40" fill="white" transform="translate(0 0.462891)"/>
</clipPath>
</defs>
</svg>
