<svg width="20" height="20" viewBox="0 0 20 20" fill="none" xmlns="http://www.w3.org/2000/svg">
<path d="M16.979 2.90204C15.1112 1.02976 12.6239 0 9.98054 0C4.52445 0 0.0846942 4.43999 0.0846942 9.89637C0.0846942 11.6394 0.539368 13.3423 1.40414 14.8446L0 19.9711L5.24658 18.5936C6.69084 19.3826 8.31786 19.7972 9.97608 19.7972H9.98054C15.4322 19.7972 19.97 15.3572 19.97 9.90083C19.97 7.25734 18.8467 4.77433 16.979 2.90204ZM9.98054 18.13C8.50062 18.13 7.05191 17.7332 5.79041 16.9843L5.49175 16.806L2.38035 17.6218L3.20946 14.586L3.01333 14.274C2.18868 12.9634 1.75629 11.4522 1.75629 9.89637C1.75629 5.36276 5.44717 1.67168 9.985 1.67168C12.1826 1.67168 14.2465 2.52759 15.7977 4.08337C17.3489 5.63915 18.3029 7.70312 18.2984 9.90083C18.2984 14.4389 14.5139 18.13 9.98054 18.13ZM14.4916 11.9693C14.2465 11.8444 13.0295 11.2471 12.8022 11.1669C12.5749 11.0822 12.4099 11.042 12.245 11.2917C12.0801 11.5413 11.6076 12.0941 11.4605 12.2635C11.3178 12.4284 11.1707 12.4507 10.9256 12.3259C9.47238 11.5993 8.51845 11.0287 7.56007 9.38372C7.30599 8.94685 7.81415 8.97806 8.28666 8.033C8.36689 7.86806 8.32678 7.72541 8.26437 7.60059C8.20196 7.47577 7.70717 6.25879 7.50212 5.76397C7.30153 5.28252 7.09648 5.34939 6.94492 5.34047C6.80228 5.33156 6.63735 5.33156 6.47242 5.33156C6.30749 5.33156 6.04003 5.39397 5.8127 5.63915C5.58536 5.88879 4.94792 6.48614 4.94792 7.70312C4.94792 8.92011 5.83498 10.097 5.95534 10.2619C6.08015 10.4269 7.69826 12.9232 10.1811 13.9976C11.7502 14.6752 12.3654 14.7331 13.1499 14.6172C13.6269 14.5459 14.612 14.0199 14.817 13.4403C15.0221 12.8608 15.0221 12.366 14.9597 12.2635C14.9017 12.152 14.7368 12.0896 14.4916 11.9693Z" fill="#EBEBEB"/>
</svg>
