<svg width="88" height="81" viewBox="0 0 88 81" fill="none" xmlns="http://www.w3.org/2000/svg">
<g filter="url(#filter0_d)">
<path fill-rule="evenodd" clip-rule="evenodd" d="M44.0933 10.9847L75.4142 42.3056V64.2668C75.4142 66.3435 74.5892 68.3351 73.1208 69.8036C71.6523 71.272 69.6607 72.097 67.584 72.097H20.6027C18.526 72.097 16.5343 71.272 15.0659 69.8036C13.5974 68.3351 12.7725 66.3435 12.7725 64.2668V42.3056L44.0933 10.9847Z" fill="#445E93"/>
<path fill-rule="evenodd" clip-rule="evenodd" d="M40.4032 1.62531C41.3821 0.646686 42.7097 0.0969238 44.0939 0.0969238C45.478 0.0969238 46.8056 0.646686 47.7845 1.62531L82.4828 36.3184C82.9729 36.8085 83.2482 37.4732 83.2482 38.1663C83.2482 38.8594 82.9729 39.5242 82.4828 40.0143C81.9927 40.5044 81.328 40.7797 80.6349 40.7797C79.9418 40.7797 79.277 40.5044 78.7869 40.0143L44.0939 5.31596L9.40075 40.0143C8.91065 40.5044 8.24593 40.7797 7.55282 40.7797C6.85971 40.7797 6.19499 40.5044 5.70489 40.0143C5.21479 39.5242 4.93945 38.8594 4.93945 38.1663C4.93945 37.4732 5.21479 36.8085 5.70489 36.3184L40.4032 1.62531Z" fill="#445E93"/>
</g>
<path d="M36.6371 44.3437C36.6371 41.5293 34.376 39.2472 31.5878 39.2472C28.7996 39.2472 26.5396 41.5293 26.5396 44.3437C26.5396 47.1601 28.7991 49.4412 31.5878 49.4412C34.3765 49.4412 36.6371 47.1601 36.6371 44.3437Z" fill="white"/>
<path d="M56.7708 40.2427C53.9831 40.2427 51.7225 42.5249 51.7225 45.3392C51.7225 48.1556 53.9831 50.4357 56.7708 50.4357C59.559 50.4357 61.8196 48.1556 61.8196 45.3392C61.8196 42.5249 59.5595 40.2427 56.7708 40.2427Z" fill="white"/>
<path d="M52.1854 51.0127C51.8344 50.576 51.3376 50.0704 50.7671 49.5402C49.2448 47.5485 46.8638 46.26 44.1796 46.26C41.7907 46.26 39.6431 47.2812 38.1253 48.9085C37.2631 49.6658 36.4965 50.4051 36.0086 51.0132L35.6821 51.4158C34.1588 53.2908 32.2626 55.6237 32.2766 59.5824C32.29 63.2587 35.2554 66.2514 38.8864 66.2514C39.8941 66.2536 40.8886 66.0208 41.7924 65.571C42.6963 65.1213 43.485 64.4668 44.097 63.6587C44.7091 64.4671 45.498 65.1218 46.4021 65.5715C47.3062 66.0213 48.3011 66.254 49.309 66.2514C52.9385 66.2514 55.9035 63.2592 55.9174 59.5824C55.9313 55.6237 54.0347 53.2908 52.5119 51.4158L52.1854 51.0127Z" fill="white"/>
<path d="M44.5297 43.0089C47.6021 43.0089 50.0927 40.4945 50.0927 37.3928C50.0927 34.291 47.6021 31.7766 44.5297 31.7766C41.4574 31.7766 38.9667 34.291 38.9667 37.3928C38.9667 40.4945 41.4574 43.0089 44.5297 43.0089Z" fill="white"/>
<defs>
<filter id="filter0_d" x="0.939453" y="0.0969238" width="86.3088" height="80.0001" filterUnits="userSpaceOnUse" color-interpolation-filters="sRGB">
<feFlood flood-opacity="0" result="BackgroundImageFix"/>
<feColorMatrix in="SourceAlpha" type="matrix" values="0 0 0 0 0 0 0 0 0 0 0 0 0 0 0 0 0 0 127 0" result="hardAlpha"/>
<feOffset dy="4"/>
<feGaussianBlur stdDeviation="2"/>
<feComposite in2="hardAlpha" operator="out"/>
<feColorMatrix type="matrix" values="0 0 0 0 0 0 0 0 0 0 0 0 0 0 0 0 0 0 0.25 0"/>
<feBlend mode="normal" in2="BackgroundImageFix" result="effect1_dropShadow"/>
<feBlend mode="normal" in="SourceGraphic" in2="effect1_dropShadow" result="shape"/>
</filter>
</defs>
</svg>
