<svg width="25" height="23" viewBox="0 0 25 23" fill="none" xmlns="http://www.w3.org/2000/svg">
<path d="M24.3952 5.22287C24.0073 4.34261 23.448 3.54493 22.7486 2.87448C22.0486 2.20203 21.2234 1.66764 20.3177 1.30038C19.3786 0.91804 18.3713 0.722335 17.3544 0.724629C15.9277 0.724629 14.5358 1.10752 13.3262 1.83075C13.0368 2.00376 12.7619 2.19379 12.5014 2.40083C12.241 2.19379 11.9661 2.00376 11.6767 1.83075C10.4671 1.10752 9.07511 0.724629 7.64844 0.724629C6.62113 0.724629 5.62564 0.917492 4.68514 1.30038C3.77647 1.66909 2.95751 2.19946 2.25431 2.87448C1.55399 3.54417 0.994552 4.34204 0.607708 5.22287C0.205463 6.13896 0 7.11178 0 8.11297C0 9.05743 0.196782 10.0416 0.587452 11.0428C0.914457 11.8795 1.38326 12.7473 1.98229 13.6237C2.93147 15.0106 4.2366 16.4571 5.85715 17.9234C8.54264 20.3541 11.2021 22.0331 11.315 22.1012L12.0008 22.5323C12.3047 22.7223 12.6953 22.7223 12.9992 22.5323L13.685 22.1012C13.7979 22.0303 16.4544 20.3541 19.1428 17.9234C20.7634 16.4571 22.0685 15.0106 23.0177 13.6237C23.6167 12.7473 24.0884 11.8795 24.4125 11.0428C24.8032 10.0416 25 9.05743 25 8.11297C25.0029 7.11178 24.7974 6.13896 24.3952 5.22287Z" fill="white"/>
</svg>
