<svg width="21" height="21" viewBox="0 0 21 21" fill="none" xmlns="http://www.w3.org/2000/svg">
<path d="M12.9651 10.4985L20.4829 2.99719C20.8121 2.66793 20.997 2.22136 20.997 1.75571C20.997 1.29007 20.8121 0.843497 20.4829 0.514237C20.1536 0.184977 19.7071 0 19.2416 0C18.776 0 18.3295 0.184977 18.0003 0.514237L10.5 8.03304L2.99975 0.514237C2.67053 0.184977 2.22403 -3.46932e-09 1.75845 0C1.29287 3.46932e-09 0.846361 0.184977 0.517147 0.514237C0.187934 0.843497 0.00298367 1.29007 0.00298367 1.75571C0.00298366 2.22136 0.187934 2.66793 0.517147 2.99719L8.03488 10.4985L0.517147 17.9998C0.353281 18.1624 0.223217 18.3558 0.134458 18.5688C0.0456982 18.7819 0 19.0105 0 19.2413C0 19.4721 0.0456982 19.7007 0.134458 19.9138C0.223217 20.1268 0.353281 20.3202 0.517147 20.4828C0.679675 20.6467 0.87304 20.7768 1.08609 20.8655C1.29914 20.9543 1.52765 21 1.75845 21C1.98925 21 2.21776 20.9543 2.43081 20.8655C2.64386 20.7768 2.83722 20.6467 2.99975 20.4828L10.5 12.964L18.0003 20.4828C18.1628 20.6467 18.3561 20.7768 18.5692 20.8655C18.7822 20.9543 19.0108 21 19.2416 21C19.4724 21 19.7009 20.9543 19.9139 20.8655C20.127 20.7768 20.3203 20.6467 20.4829 20.4828C20.6467 20.3202 20.7768 20.1268 20.8655 19.9138C20.9543 19.7007 21 19.4721 21 19.2413C21 19.0105 20.9543 18.7819 20.8655 18.5688C20.7768 18.3558 20.6467 18.1624 20.4829 17.9998L12.9651 10.4985Z" fill="black"/>
</svg>
