<svg width="79" height="79" viewBox="0 0 79 79" fill="none" xmlns="http://www.w3.org/2000/svg">
<path d="M4.9375 39.5C4.9375 46.3358 6.96456 53.0181 10.7623 58.7019C14.5601 64.3857 19.958 68.8156 26.2735 71.4316C32.589 74.0475 39.5383 74.732 46.2428 73.3984C52.9473 72.0648 59.1057 68.773 63.9394 63.9394C68.773 59.1057 72.0648 52.9473 73.3984 46.2428C74.732 39.5383 74.0475 32.589 71.4316 26.2735C68.8156 19.958 64.3857 14.5601 58.7019 10.7623C53.0181 6.96456 46.3358 4.9375 39.5 4.9375C30.3335 4.9375 21.5423 8.5789 15.0606 15.0606C8.5789 21.5423 4.9375 30.3335 4.9375 39.5ZM19.75 37.0312H49.7453L35.9697 23.189L39.5 19.75L59.25 39.5L39.5 59.25L35.9697 55.7271L49.7453 41.9688H19.75V37.0312Z" fill="#8F7FAC"/>
</svg>
