<svg width="20" height="20" viewBox="0 0 20 20" fill="none" xmlns="http://www.w3.org/2000/svg">
<path d="M19.996 0.721C19.9949 0.7096 19.9927 0.6985 19.9911 0.6873C19.9891 0.6727 19.9874 0.6581 19.9845 0.6436C19.9819 0.6305 19.9783 0.6177 19.975 0.6048C19.972 0.5924 19.9692 0.58 19.9655 0.5677C19.9616 0.555 19.9569 0.5428 19.9525 0.5304C19.9481 0.5182 19.944 0.5058 19.939 0.4937C19.9342 0.4822 19.9286 0.4712 19.9233 0.4599C19.9175 0.4475 19.912 0.435 19.9054 0.4229C19.8997 0.4121 19.8931 0.4019 19.8868 0.3914C19.8798 0.3794 19.873 0.3674 19.8652 0.3557C19.8576 0.3444 19.8492 0.3337 19.841 0.3228C19.8335 0.3128 19.8266 0.3025 19.8186 0.2928C19.8033 0.274331 19.7872 0.256547 19.7704 0.2395C19.7687 0.2378 19.7674 0.2359 19.7657 0.2343C19.7637 0.2323 19.7617 0.2308 19.7597 0.2289C19.7429 0.212275 19.7253 0.196393 19.7071 0.1813C19.698 0.1739 19.6884 0.1673 19.679 0.1603C19.6674 0.1517 19.656 0.1427 19.644 0.1347C19.6333 0.1274 19.6221 0.1212 19.611 0.1147C19.5997 0.1077 19.5885 0.1007 19.5767 0.0943001C19.5658 0.0885001 19.5546 0.0836001 19.5435 0.0783001C19.5309 0.0723001 19.5185 0.0660998 19.5055 0.0606998C19.4952 0.0564998 19.4847 0.0531 19.4742 0.0493C19.46 0.0441 19.446 0.0386999 19.4315 0.0342999C19.4217 0.0312999 19.4118 0.0292998 19.4019 0.0266998C19.3865 0.0226998 19.3712 0.0183999 19.3554 0.0153999C19.345 0.0133999 19.3345 0.0121999 19.3241 0.0105999C19.3088 0.0081999 19.2936 0.00550015 19.2781 0.00390015C19.2622 0.00240015 19.2463 0.00209994 19.2304 0.00149994C19.2202 0.00119994 19.2103 0 19.2 0H14.4C14.1878 0 13.9843 0.0842856 13.8343 0.234315C13.6843 0.384344 13.6 0.587827 13.6 0.8C13.6 1.01217 13.6843 1.21566 13.8343 1.36569C13.9843 1.51571 14.1878 1.6 14.4 1.6H17.2686L13.0628 5.8058C11.4737 4.50694 9.44615 3.86852 7.39955 4.02256C5.35294 4.17661 3.44382 5.11134 2.06704 6.63344C0.69025 8.15554 -0.0488807 10.1486 0.002511 12.2003C0.0539027 14.2521 0.891886 16.2056 2.34315 17.6569C3.79441 19.1081 5.74793 19.9461 7.79968 19.9975C9.85143 20.0489 11.8445 19.3097 13.3666 17.933C14.8887 16.5562 15.8234 14.6471 15.9774 12.6005C16.1315 10.5538 15.4931 8.52632 14.1942 6.9372L18.4 2.7314V5.6C18.4 5.81217 18.4843 6.01566 18.6343 6.16569C18.7843 6.31571 18.9878 6.4 19.2 6.4C19.4122 6.4 19.6157 6.31571 19.7657 6.16569C19.9157 6.01566 20 5.81217 20 5.6V0.8002C20 0.7738 19.9986 0.7473 19.996 0.7209V0.721ZM12.5255 16.5255C11.6306 17.4195 10.4908 18.0282 9.25004 18.2745C8.00931 18.5209 6.7234 18.3938 5.55485 17.9095C4.38631 17.4251 3.38759 16.6052 2.68495 15.5534C1.9823 14.5015 1.60728 13.2649 1.60728 12C1.60728 10.7351 1.9823 9.4985 2.68495 8.44665C3.38759 7.3948 4.38631 6.57487 5.55485 6.09052C6.7234 5.60617 8.00931 5.47914 9.25004 5.72547C10.4908 5.97181 11.6306 6.58047 12.5255 7.4745C13.724 8.67567 14.3971 10.3032 14.3971 12C14.3971 13.6968 13.724 15.3243 12.5255 16.5255Z" fill="#7386AE"/>
</svg>
