<svg width="138" height="118" viewBox="0 0 138 118" fill="none" xmlns="http://www.w3.org/2000/svg">
<path d="M9.58747 26.3671C-0.382941 47.8134 -2.6212 62.727 3.08045 70.6015C5.58764 74.062 9.40818 75.9118 14.0042 75.9118C14.525 75.9018 15.0415 75.862 15.5566 75.7923C15.8853 73.9425 16.214 71.9746 16.6907 70.0053L17.7949 64.8756C21.3479 48.3498 26.4818 24.9954 38.2124 9.51404C29.6165 10.0818 15.7658 13.124 9.58747 26.3671Z" fill="#FD8344"/>
<path d="M113.729 66.3081C107.967 39.9101 99.3119 0 68.9553 0C38.5987 0 29.9416 39.9101 24.1816 66.3081L23.0774 71.4676C19.7933 86.1735 21.2262 97.0902 27.4045 104.815C34.2104 113.257 46.7776 117.552 65.6712 118V97.9553C65.324 97.8657 64.9796 97.7618 64.6395 97.6437C64.3009 97.5256 63.9665 97.3933 63.6378 97.2481C63.3091 97.103 62.9861 96.9436 62.6702 96.7714C62.3543 96.6007 62.047 96.4157 61.7453 96.2179C61.4451 96.0216 61.1534 95.811 60.8702 95.5904C60.5871 95.3699 60.3124 95.1365 60.0478 94.8932C59.7845 94.6499 59.5298 94.3952 59.2865 94.1305C59.0432 93.8658 58.8113 93.5926 58.5907 93.308C58.3701 93.0249 58.161 92.7332 57.9646 92.4315C57.7668 92.1313 57.5833 91.8225 57.4111 91.5066C57.2403 91.1922 57.081 90.8692 56.9373 90.5405C56.7921 90.2118 56.6598 89.8774 56.5431 89.5373C56.425 89.1987 56.3211 88.8543 56.2329 88.5057C56.1433 88.1585 56.0679 87.807 56.0081 87.4527C55.9469 87.0984 55.9014 86.7427 55.8701 86.3841C55.8388 86.027 55.8231 85.667 55.8217 85.3084C55.8217 85.0935 55.8317 84.8787 55.853 84.6652C55.8743 84.4518 55.9056 84.2384 55.9469 84.0278C55.9896 83.8172 56.0422 83.6094 56.1049 83.4031C56.166 83.1982 56.2386 82.9961 56.3211 82.7969C56.4037 82.5991 56.4947 82.4042 56.5972 82.215C56.6982 82.0257 56.8092 81.8407 56.9287 81.6629C57.0483 81.4836 57.1749 81.3114 57.3115 81.1449C57.4481 80.9784 57.5932 80.8205 57.7455 80.6682C57.8963 80.516 58.0557 80.3723 58.2222 80.2357C58.3886 80.0991 58.5608 79.971 58.7401 79.8515C58.9194 79.732 59.103 79.6224 59.2922 79.5214C59.4829 79.4203 59.6764 79.3279 59.8756 79.2453C60.0734 79.1628 60.2769 79.0916 60.4818 79.029C60.6881 78.9664 60.8958 78.9138 61.1064 78.8725C61.3184 78.8298 61.5305 78.7985 61.7439 78.7772C61.9588 78.7573 62.1736 78.7459 62.3885 78.7459H75.522C75.7369 78.7459 75.9518 78.7573 76.1652 78.7772C76.3801 78.7985 76.5921 78.8298 76.8027 78.8725C77.0147 78.9138 77.2224 78.9664 77.4288 79.029C77.6337 79.0916 77.8357 79.1628 78.0349 79.2453C78.2341 79.3279 78.4276 79.4189 78.6169 79.5214C78.8076 79.6224 78.9911 79.732 79.1704 79.8515C79.3497 79.971 79.5219 80.0991 79.6884 80.2357C79.8548 80.3723 80.0128 80.516 80.165 80.6682C80.3173 80.8205 80.4624 80.9784 80.5976 81.1449C80.7342 81.3114 80.8623 81.4836 80.9818 81.6629C81.1013 81.8407 81.2123 82.0257 81.3133 82.215C81.4144 82.4042 81.5068 82.5991 81.5894 82.7969C81.6719 82.9961 81.7431 83.1982 81.8057 83.4031C81.8683 83.6094 81.9209 83.8172 81.9622 84.0278C82.0049 84.2384 82.0362 84.4518 82.0575 84.6652C82.0789 84.8787 82.0888 85.0935 82.0888 85.3084C82.0874 85.667 82.0703 86.027 82.039 86.3841C82.0091 86.7427 81.9622 87.0984 81.9024 87.4527C81.8412 87.807 81.7672 88.1585 81.6776 88.5057C81.588 88.8543 81.4855 89.1987 81.3674 89.5373C81.2493 89.8774 81.1184 90.2118 80.9733 90.5405C80.8281 90.8692 80.6702 91.1922 80.4994 91.5066C80.3272 91.8225 80.1437 92.1313 79.9459 92.4315C79.7495 92.7332 79.5404 93.0249 79.3198 93.308C79.0993 93.5926 78.8673 93.8658 78.624 94.1305C78.3793 94.3952 78.126 94.6499 77.8613 94.8932C77.5981 95.1365 77.3235 95.3699 77.0403 95.5904C76.7571 95.811 76.4654 96.0216 76.1638 96.2179C75.8635 96.4157 75.5562 96.6007 75.2403 96.7714C74.9244 96.9436 74.6014 97.103 74.2727 97.2481C73.944 97.3933 73.6096 97.5256 73.271 97.6437C72.9309 97.7618 72.5866 97.8657 72.2379 97.9553V118C91.1329 117.552 103.7 113.257 110.506 104.815C116.684 97.0902 118.117 86.1735 114.833 71.4676L113.729 66.3081ZM59.1044 52.4973C58.8895 52.4973 58.6761 52.4759 58.4641 52.4346C58.2535 52.392 58.0471 52.3308 57.8479 52.2482C57.6487 52.1657 57.4595 52.0647 57.2802 51.9452C57.1009 51.8242 56.9358 51.689 56.7836 51.5368C56.6313 51.3845 56.4947 51.218 56.3752 51.0388C56.2557 50.8595 56.1532 50.6716 56.0707 50.4724C55.9882 50.2732 55.927 50.0683 55.8843 49.8563C55.843 49.6457 55.8217 49.4323 55.8217 49.216C55.8217 49.0011 55.8004 48.7877 55.7577 48.5757C55.7164 48.3651 55.6538 48.1602 55.5713 47.961C55.4887 47.7618 55.3877 47.5725 55.2682 47.3932C55.1487 47.2139 55.0121 47.0489 54.8598 46.8966C54.7075 46.7444 54.5411 46.6078 54.3618 46.4883C54.1825 46.3687 53.9932 46.2677 53.794 46.1852C53.5948 46.1026 53.3899 46.04 53.1779 45.9988C52.9673 45.9561 52.7539 45.9347 52.5376 45.9347C52.3227 45.9347 52.1093 45.9561 51.8973 45.9988C51.6853 46.04 51.4804 46.1026 51.2812 46.1852C51.0819 46.2677 50.8927 46.3687 50.7134 46.4883C50.5341 46.6078 50.3691 46.7444 50.2168 46.8966C50.0631 47.0489 49.928 47.2139 49.8084 47.3932C49.6875 47.5725 49.5865 47.7618 49.5039 47.961C49.4214 48.1602 49.3602 48.3651 49.3175 48.5757C49.2763 48.7877 49.2549 49.0011 49.2549 49.216C49.2549 49.4323 49.2336 49.6457 49.1909 49.8563C49.1496 50.0683 49.087 50.2732 49.0045 50.4724C48.922 50.6716 48.8209 50.8595 48.7014 51.0388C48.5819 51.218 48.4453 51.3845 48.293 51.5368C48.1408 51.689 47.9743 51.8242 47.795 51.9452C47.6157 52.0647 47.4265 52.1657 47.2273 52.2482C47.028 52.3308 46.8231 52.392 46.6111 52.4346C46.4005 52.4759 46.1871 52.4973 45.9708 52.4973C45.756 52.4973 45.5425 52.4759 45.3305 52.4346C45.1185 52.392 44.9136 52.3308 44.7144 52.2482C44.5152 52.1657 44.3259 52.0647 44.1466 51.9452C43.9673 51.8242 43.8023 51.689 43.65 51.5368C43.4964 51.3845 43.3612 51.218 43.2417 51.0388C43.1207 50.8595 43.0197 50.6716 42.9371 50.4724C42.8546 50.2732 42.7934 50.0683 42.7507 49.8563C42.7081 49.6457 42.6881 49.4323 42.6881 49.216C42.6881 48.8944 42.7038 48.5728 42.7351 48.2513C42.7664 47.9311 42.8134 47.6124 42.8774 47.2965C42.94 46.9806 43.0183 46.6675 43.1122 46.3588C43.2061 46.05 43.3142 45.7469 43.438 45.4495C43.5604 45.1521 43.6984 44.8604 43.8507 44.5758C44.0029 44.2927 44.168 44.0152 44.3473 43.7477C44.5265 43.4802 44.7186 43.2212 44.9235 42.9722C45.1284 42.7232 45.3447 42.4842 45.5724 42.2565C45.8015 42.0288 46.0391 41.8125 46.2895 41.6076C46.5386 41.4027 46.7975 41.2106 47.065 41.0328C47.334 40.8535 47.61 40.687 47.8946 40.5362C48.1792 40.3839 48.4709 40.2459 48.7683 40.1221C49.0671 39.9997 49.3702 39.8902 49.6789 39.7977C49.9877 39.7038 50.2993 39.6255 50.6167 39.5629C50.9325 39.4989 51.2513 39.4519 51.5729 39.4206C51.893 39.3893 52.216 39.3736 52.5376 39.3736C52.8606 39.3736 53.1822 39.3893 53.5038 39.4206C53.8239 39.4519 54.1426 39.4989 54.46 39.5629C54.7758 39.6255 55.0889 39.7038 55.3977 39.7977C55.7064 39.8902 56.0095 39.9997 56.3069 40.1221C56.6057 40.2459 56.8974 40.3839 57.182 40.5362C57.4666 40.687 57.7426 40.8535 58.0101 41.0328C58.2791 41.2106 58.5381 41.4027 58.7871 41.6076C59.0361 41.8125 59.2751 42.0288 59.5028 42.2565C59.7319 42.4842 59.9482 42.7232 60.1516 42.9722C60.3565 43.2212 60.5486 43.4802 60.7279 43.7477C60.9072 44.0152 61.0737 44.2927 61.2245 44.5758C61.3768 44.8604 61.5148 45.1521 61.6386 45.4495C61.7624 45.7469 61.8705 46.05 61.9644 46.3588C62.0584 46.6675 62.1366 46.9806 62.1992 47.2965C62.2618 47.6124 62.3088 47.9311 62.3415 48.2513C62.3728 48.5728 62.3885 48.8944 62.3885 49.216C62.3885 49.4323 62.3671 49.6457 62.3259 49.8563C62.2832 50.0683 62.2206 50.2732 62.138 50.4724C62.0555 50.6716 61.9545 50.8595 61.835 51.0388C61.7154 51.218 61.5788 51.3845 61.4266 51.5368C61.2743 51.689 61.1078 51.8242 60.9286 51.9452C60.7493 52.0647 60.56 52.1657 60.3608 52.2482C60.1616 52.3308 59.9567 52.392 59.7447 52.4346C59.5341 52.4759 59.3207 52.4973 59.1044 52.4973ZM91.9397 52.4973C91.7234 52.4973 91.51 52.4759 91.298 52.4346C91.0874 52.392 90.8811 52.3308 90.6818 52.2482C90.4841 52.1657 90.2948 52.0647 90.1155 51.9452C89.9362 51.8242 89.7698 51.689 89.6175 51.5368C89.4652 51.3845 89.3286 51.218 89.2091 51.0388C89.0896 50.8595 88.9886 50.6716 88.906 50.4724C88.8235 50.2732 88.7609 50.0683 88.7182 49.8563C88.6769 49.6457 88.6556 49.4323 88.6556 49.216C88.6556 49.0011 88.6343 48.7877 88.593 48.5757C88.5503 48.3651 88.4877 48.1602 88.4052 47.961C88.3226 47.7618 88.2216 47.5725 88.1021 47.3932C87.9826 47.2139 87.846 47.0489 87.6937 46.8966C87.5415 46.7444 87.375 46.6078 87.1957 46.4883C87.0178 46.3687 86.8286 46.2677 86.6294 46.1852C86.4302 46.1026 86.2238 46.04 86.0132 45.9988C85.8012 45.9561 85.5878 45.9347 85.3729 45.9347C85.1566 45.9347 84.9432 45.9561 84.7312 45.9988C84.5206 46.04 84.3143 46.1026 84.1151 46.1852C83.9159 46.2677 83.7266 46.3687 83.5487 46.4883C83.3695 46.6078 83.203 46.7444 83.0507 46.8966C82.8985 47.0489 82.7619 47.2139 82.6423 47.3932C82.5228 47.5725 82.4218 47.7618 82.3393 47.961C82.2567 48.1602 82.1941 48.3651 82.1514 48.5757C82.1102 48.7877 82.0888 49.0011 82.0888 49.216C82.0888 49.4323 82.0675 49.6457 82.0262 49.8563C81.9835 50.0683 81.9209 50.2732 81.8384 50.4724C81.7559 50.6716 81.6548 50.8595 81.5353 51.0388C81.4158 51.218 81.2792 51.3845 81.1269 51.5368C80.9747 51.689 80.8082 51.8242 80.6289 51.9452C80.4496 52.0647 80.2604 52.1657 80.0626 52.2482C79.8634 52.3308 79.657 52.392 79.4465 52.4346C79.2344 52.4759 79.021 52.4973 78.8047 52.4973C78.5899 52.4973 78.3764 52.4759 78.1644 52.4346C77.9538 52.392 77.7475 52.3308 77.5483 52.2482C77.3491 52.1657 77.1598 52.0647 76.9805 51.9452C76.8012 51.8242 76.6362 51.689 76.4839 51.5368C76.3317 51.3845 76.1951 51.218 76.0756 51.0388C75.956 50.8595 75.855 50.6716 75.7725 50.4724C75.6899 50.2732 75.6273 50.0683 75.5846 49.8563C75.5434 49.6457 75.522 49.4323 75.522 49.216C75.522 48.8944 75.5377 48.5728 75.569 48.2513C75.6003 47.9311 75.6487 47.6124 75.7113 47.2965C75.7739 46.9806 75.8522 46.6675 75.9461 46.3588C76.04 46.05 76.1481 45.7469 76.2719 45.4495C76.3957 45.1521 76.5323 44.8604 76.6846 44.5758C76.8368 44.2927 77.0033 44.0152 77.1826 43.7477C77.3619 43.4802 77.5525 43.2212 77.7575 42.9722C77.9624 42.7232 78.1786 42.4842 78.4077 42.2565C78.6354 42.0288 78.8744 41.8125 79.1235 41.6076C79.3725 41.4027 79.6314 41.2106 79.9004 41.0328C80.1679 40.8535 80.4439 40.687 80.7285 40.5362C81.0131 40.3839 81.3048 40.2459 81.6022 40.1221C81.901 39.9997 82.2041 39.8902 82.5129 39.7977C82.8216 39.7038 83.1347 39.6255 83.4506 39.5629C83.7664 39.4989 84.0852 39.4519 84.4068 39.4206C84.7283 39.3893 85.0499 39.3736 85.3729 39.3736C85.6945 39.3736 86.0161 39.3893 86.3377 39.4206C86.6592 39.4519 86.978 39.4989 87.2939 39.5629C87.6098 39.6255 87.9228 39.7038 88.2316 39.7977C88.5403 39.8902 88.8434 39.9997 89.1422 40.1221C89.4396 40.2459 89.7313 40.3839 90.0159 40.5362C90.3005 40.687 90.5765 40.8535 90.8441 41.0328C91.113 41.2106 91.372 41.4027 91.621 41.6076C91.87 41.8125 92.109 42.0288 92.3367 42.2565C92.5658 42.4842 92.7821 42.7232 92.987 42.9722C93.1919 43.2212 93.3825 43.4802 93.5618 43.7477C93.7411 44.0152 93.9076 44.2927 94.0599 44.5758C94.2121 44.8604 94.3487 45.1521 94.4725 45.4495C94.5963 45.7469 94.7044 46.05 94.7984 46.3588C94.8923 46.6675 94.9705 46.9806 95.0331 47.2965C95.0957 47.6124 95.1441 47.9311 95.1754 48.2513C95.2067 48.5728 95.2224 48.8944 95.2224 49.216C95.2224 49.4323 95.201 49.6457 95.1598 49.8563C95.1171 50.0683 95.0545 50.2732 94.9719 50.4724C94.8894 50.6716 94.7884 50.8595 94.6689 51.0388C94.5493 51.218 94.4127 51.3845 94.2605 51.5368C94.1082 51.689 93.9432 51.8242 93.7639 51.9452C93.5846 52.0647 93.3954 52.1657 93.1961 52.2482C92.9969 52.3308 92.7906 52.392 92.58 52.4346C92.368 52.4759 92.1546 52.4973 91.9397 52.4973Z" fill="#FD8344"/>
<path d="M75.5247 85.3085H62.3911C62.3911 85.5233 62.4011 85.7382 62.4224 85.9516C62.4438 86.1651 62.4751 86.3771 62.5178 86.5891C62.559 86.7997 62.6117 87.0074 62.6743 87.2138C62.7355 87.4187 62.808 87.6207 62.8906 87.8199C62.9731 88.0177 63.0656 88.2127 63.1666 88.4019C63.2676 88.5912 63.3786 88.7747 63.4981 88.954C63.6177 89.1333 63.7457 89.3055 63.8809 89.4719C64.0175 89.637 64.1626 89.7964 64.3149 89.9486C64.4657 90.1009 64.6251 90.2446 64.7916 90.3812C64.9581 90.5178 65.1302 90.6444 65.3095 90.764C65.4888 90.8835 65.6724 90.9945 65.8616 91.0955C66.0523 91.1965 66.2458 91.289 66.445 91.3715C66.6428 91.4526 66.8463 91.5252 67.0512 91.5878C67.2575 91.6504 67.4652 91.7031 67.6773 91.7443C67.8879 91.7856 68.0999 91.8183 68.3147 91.8383C68.5282 91.8596 68.743 91.871 68.9579 91.871C69.1728 91.871 69.3876 91.8596 69.6011 91.8383C69.8159 91.8183 70.0279 91.7856 70.2385 91.7443C70.4491 91.7031 70.6583 91.6504 70.8646 91.5878C71.0695 91.5252 71.2716 91.4526 71.4708 91.3715C71.67 91.289 71.8635 91.1965 72.0527 91.0955C72.2434 90.9945 72.427 90.8835 72.6063 90.764C72.7856 90.6444 72.9577 90.5178 73.1242 90.3812C73.2893 90.2446 73.4486 90.1009 73.6009 89.9486C73.7531 89.7964 73.8969 89.637 74.0335 89.4719C74.1701 89.3055 74.2981 89.1333 74.4176 88.954C74.5372 88.7747 74.6482 88.5912 74.7492 88.4019C74.8502 88.2127 74.9427 88.0177 75.0252 87.8199C75.1063 87.6207 75.1789 87.4187 75.2415 87.2138C75.3041 87.0074 75.3568 86.7997 75.398 86.5891C75.4407 86.3771 75.472 86.1651 75.4934 85.9516C75.5147 85.7382 75.5247 85.5233 75.5247 85.3085Z" fill="#FD8344"/>
<path d="M128.328 26.3671C122.149 13.124 108.299 10.0818 99.7026 9.51404C111.433 24.9954 116.567 48.4096 120.119 64.9638L121.283 70.065C121.761 72.0343 122.089 73.9425 122.358 75.7923V75.852L123.909 75.9118C128.507 75.9118 132.327 74.062 134.835 70.6015C140.536 62.727 138.298 47.8134 128.328 26.3671Z" fill="#FD8344"/>
</svg>
