<svg width="371" height="395" viewBox="0 0 371 395" fill="none" xmlns="http://www.w3.org/2000/svg">
<path d="M310.09 280.45L277.223 258.791L249.82 304.578L217.94 295.246L189.862 338.104L191.294 351.599L343.929 323.456L335.074 228.096L310.09 280.45ZM167.742 239.337L192.232 235.98C196.199 237.757 198.964 238.448 203.704 239.65C211.11 241.575 219.668 243.435 232.358 237.016C235.32 235.568 241.459 229.939 243.944 226.73L344.274 208.527L354.511 332.409L182.621 363.384L167.742 239.337ZM354.133 194.702L344.225 196.595L325.199 0L0.986328 37.6073L40.9307 361.721L78.8836 356.224C75.8553 351.896 71.1318 346.662 63.0836 339.947C51.892 330.664 55.842 314.897 62.4417 304.94C71.1647 288.12 116.096 266.724 113.561 239.831C112.64 230.055 111.093 217.316 102.008 208.593C101.678 212.214 102.287 215.703 102.287 215.703C102.287 215.703 98.5513 210.946 96.6916 204.462C94.8482 201.993 93.3999 201.187 91.4413 197.879C90.0424 201.713 90.2399 206.157 90.2399 206.157C90.2399 206.157 87.1786 198.965 86.6849 192.875C84.8745 195.607 84.4301 200.775 84.4301 200.775C84.4301 200.775 80.4636 189.419 81.3688 183.296C79.5584 177.98 74.193 167.414 75.7236 143.401C85.5986 150.33 107.389 148.685 115.882 136.176C118.696 132.045 120.622 120.722 114.467 98.4373C110.517 84.1515 100.724 62.8873 96.922 54.8063L96.4611 55.1354C98.4691 61.6365 102.617 75.264 104.197 81.8802C109.019 101.926 110.319 108.905 108.048 118.154C106.139 126.186 101.514 131.453 89.8284 137.328C78.143 143.22 62.6228 128.869 61.6353 128.079C50.279 119.027 41.4903 104.264 40.5028 97.0877C39.4824 89.2371 45.0288 84.53 47.8268 78.1113C43.8274 79.2633 39.3672 81.2713 39.3672 81.2713C39.3672 81.2713 44.6832 75.7742 51.2501 71.0013C53.9657 69.2073 55.5622 68.0717 58.4259 65.6852C55.9242 65.6432 53.4219 65.6597 50.9209 65.7346C50.9209 65.7346 57.8334 61.9985 64.9928 59.2829C59.759 59.0525 54.7393 59.2335 54.7393 59.2335C54.7393 59.2335 70.1607 52.3375 82.3563 47.2683C90.7336 43.845 98.9134 44.849 103.522 51.4981C109.562 60.221 115.898 64.9446 129.345 67.8906C137.591 64.2204 140.092 62.3442 150.477 59.5133C159.595 49.4738 166.771 48.19 166.771 48.19C166.771 48.19 163.216 51.4487 162.262 56.5838C167.429 52.4856 173.124 49.0952 173.124 49.0952C173.124 49.0952 170.919 51.7944 168.861 56.1065L169.355 56.8142C175.379 53.1933 182.472 50.3296 182.472 50.3296C182.472 50.3296 180.448 52.8971 178.062 56.2217C182.621 56.1888 191.854 56.4192 195.442 56.8306C216.591 57.2915 220.985 34.2169 229.099 31.3202C239.27 27.6994 243.813 25.5104 261.143 42.5119C276.005 57.1269 287.625 83.2792 281.864 89.1383C277.026 93.9935 267.48 87.2456 256.913 74.0625C250.89 66.6181 246.837 57.7772 245.129 48.3546C244.015 42.9188 241.14 38.0019 236.95 34.365C236.95 34.365 240.735 42.7588 240.735 50.165C240.735 54.2138 241.229 69.339 247.713 77.815C247.071 79.0658 246.775 83.9704 246.067 84.8921C238.529 75.7742 222.318 69.2567 219.668 67.331C228.622 74.655 249.178 91.4919 257.078 107.638C264.534 122.894 260.139 136.884 263.925 140.505C264.994 141.542 279.988 160.205 282.852 169.587C287.888 185.946 283.165 203.129 276.581 213.777L258.197 216.641C255.514 215.9 253.704 215.522 251.285 214.123C252.601 211.769 255.251 205.894 255.284 204.709L254.247 202.882C248.52 210.979 238.941 218.846 230.975 223.372C220.557 229.281 208.542 228.376 200.725 225.94C178.539 219.11 157.554 204.1 152.502 200.166C152.502 200.166 152.337 203.31 153.292 204.018C158.888 210.321 171.709 221.743 184.102 229.693L157.686 232.606L170.178 329.841C164.632 330.631 163.759 331.01 157.719 331.882C152.37 313.005 142.149 300.694 130.991 293.501C121.132 287.181 107.554 285.766 94.552 288.334L93.729 289.305C104.487 288.132 115.319 290.714 124.391 296.612C135.155 303.409 143.828 320.987 147.021 331.57C151.103 345.098 153.934 359.549 142.939 374.888C135.105 385.783 112.261 391.807 93.7949 378.789C98.7324 386.705 105.398 393.206 114.368 394.424C127.683 396.234 140.323 393.93 149.029 384.977C156.468 377.34 160.385 361.376 159.365 344.555L171.116 342.844L175.362 373.028L370.015 349.591L354.133 194.702ZM235.699 112.707C235.139 113.941 234.3 114.764 235.583 118.796L235.649 119.027L235.863 119.553L236.39 120.755C238.694 125.478 241.245 129.939 245.475 132.21C246.578 132.029 247.713 131.897 248.882 131.831C252.865 131.667 255.383 132.292 256.979 133.148C257.127 132.358 257.144 131.189 257.062 129.494C256.765 123.503 258.247 113.332 246.759 107.967C242.414 105.959 236.324 106.584 234.3 109.086C234.624 109.126 234.944 109.197 235.254 109.3C238.316 110.386 236.242 111.439 235.699 112.707ZM267.924 168.533C266.41 167.71 259.366 168.04 254.412 168.616C244.965 169.735 234.777 173.01 232.555 174.738C228.49 177.882 230.333 183.346 233.329 185.601C241.739 191.888 249.129 196.101 256.897 195.064C261.67 194.439 265.883 186.884 268.879 180.021C270.919 175.281 270.919 170.179 267.924 168.533ZM184.365 120.113C187.031 117.578 171.116 114.27 158.756 122.68C149.638 128.902 149.358 142.216 158.081 149.771C158.953 150.528 159.661 151.055 160.336 151.483C167.603 148.06 175.351 145.773 183.312 144.702C185.172 142.644 187.311 139.024 186.768 132.44C186.044 123.52 179.279 124.935 184.365 120.113Z" fill="#434343" fill-opacity="0.5"/>
</svg>
