<svg width="13" height="13" viewBox="0 0 13 13" fill="none" xmlns="http://www.w3.org/2000/svg">
<path d="M10.4533 2.40576C9.38863 1.24964 7.9708 0.61377 6.46403 0.61377C3.35394 0.61377 0.82318 3.35542 0.82318 6.72469C0.82318 7.80098 1.08235 8.8525 1.57529 9.78015L0.774902 12.9457L3.76557 12.0951C4.58883 12.5824 5.51626 12.8384 6.46149 12.8384H6.46403C9.57158 12.8384 12.1582 10.0967 12.1582 6.72744C12.1582 5.09511 11.5179 3.56187 10.4533 2.40576ZM6.46403 11.8089C5.62044 11.8089 4.79464 11.5639 4.07556 11.1014L3.90532 10.9913L2.13175 11.4951L2.60437 9.62049L2.49257 9.42781C2.0225 8.61852 1.77603 7.68537 1.77603 6.72469C1.77603 3.92523 3.87991 1.64602 6.46657 1.64602C7.71924 1.64602 8.89569 2.17453 9.77993 3.13521C10.6642 4.09589 11.2079 5.37038 11.2054 6.72744C11.2054 9.52966 9.04815 11.8089 6.46403 11.8089ZM9.03544 8.00468C8.89569 7.9276 8.20202 7.55875 8.07243 7.5092C7.94285 7.4569 7.84883 7.43212 7.75482 7.58627C7.6608 7.74042 7.39147 8.08175 7.30761 8.18635C7.22631 8.2882 7.14245 8.30197 7.0027 8.22489C6.17436 7.77621 5.63061 7.42387 5.08431 6.40813C4.93948 6.13837 5.22914 6.15764 5.49848 5.57407C5.54421 5.47223 5.52135 5.38414 5.48577 5.30707C5.4502 5.22999 5.16816 4.47851 5.05128 4.17297C4.93693 3.87568 4.82005 3.91697 4.73366 3.91146C4.65235 3.90596 4.55834 3.90596 4.46432 3.90596C4.37031 3.90596 4.21785 3.9445 4.08827 4.09589C3.95868 4.25004 3.59533 4.6189 3.59533 5.37038C3.59533 6.12185 4.10097 6.84856 4.16958 6.95041C4.24072 7.05226 5.16308 8.59375 6.57837 9.25714C7.47277 9.67555 7.82342 9.71133 8.27062 9.63976C8.5425 9.59572 9.10405 9.27091 9.22093 8.91306C9.33781 8.55521 9.33781 8.24967 9.30224 8.18635C9.26921 8.11754 9.17519 8.079 9.03544 8.00468Z" fill="#EBEBEB"/>
</svg>
