<svg width="30" height="23" viewBox="0 0 30 23" fill="none" xmlns="http://www.w3.org/2000/svg">
<path d="M27.8571 0H2.14286C1.57454 0 1.02949 0.242321 0.627628 0.673654C0.225765 1.10499 0 1.69 0 2.3V20.7C0 21.31 0.225765 21.895 0.627628 22.3263C1.02949 22.7577 1.57454 23 2.14286 23H27.8571C28.4255 23 28.9705 22.7577 29.3724 22.3263C29.7742 21.895 30 21.31 30 20.7V2.3C30 1.69 29.7742 1.10499 29.3724 0.673654C28.9705 0.242321 28.4255 0 27.8571 0ZM25.5 2.3L15 10.097L4.5 2.3H25.5ZM2.14286 20.7V3.3465L14.3893 12.443C14.5686 12.5765 14.7817 12.6481 15 12.6481C15.2183 12.6481 15.4314 12.5765 15.6107 12.443L27.8571 3.3465V20.7H2.14286Z" fill="#8675A5"/>
</svg>
