<svg width="20" height="18" viewBox="0 0 20 18" fill="none" xmlns="http://www.w3.org/2000/svg">
<path d="M5.61926 6.78496C5.61926 5.43017 4.361 4.33159 2.80936 4.33159C1.25772 4.33159 0 5.43017 0 6.78496C0 8.14072 1.25744 9.23883 2.80936 9.23883C4.36127 9.23883 5.61926 8.14072 5.61926 6.78496Z" fill="#8675A5"/>
<path d="M16.8237 4.81082C15.2723 4.81082 14.0143 5.90941 14.0143 7.2642C14.0143 8.61996 15.2723 9.71758 16.8237 9.71758C18.3753 9.71758 19.6333 8.61996 19.6333 7.2642C19.6333 5.90941 18.3756 4.81082 16.8237 4.81082Z" fill="#8675A5"/>
<path d="M14.2719 9.99533C14.0766 9.7851 13.8001 9.54172 13.4826 9.28648C12.6354 8.32773 11.3104 7.70743 9.81669 7.70743C8.48723 7.70743 7.29212 8.19902 6.44746 8.98238C5.96764 9.34697 5.54102 9.70284 5.26954 9.99557L5.08779 10.1894C4.24009 11.092 3.18489 12.215 3.19264 14.1207C3.20012 15.8904 4.85039 17.331 6.87103 17.331C7.43179 17.3321 7.98524 17.22 8.48822 17.0035C8.9912 16.787 9.43011 16.472 9.7707 16.0829C10.1113 16.4721 10.5504 16.7872 11.0535 17.0037C11.5566 17.2202 12.1103 17.3323 12.6712 17.331C14.691 17.331 16.341 15.8906 16.3488 14.1207C16.3565 12.215 15.301 11.092 14.4536 10.1894L14.2719 9.99533Z" fill="#8675A5"/>
<path d="M10.0115 6.14241C11.7213 6.14241 13.1073 4.932 13.1073 3.43888C13.1073 1.94576 11.7213 0.735352 10.0115 0.735352C8.30176 0.735352 6.91572 1.94576 6.91572 3.43888C6.91572 4.932 8.30176 6.14241 10.0115 6.14241Z" fill="#8675A5"/>
</svg>
