<svg width="16" height="33" viewBox="0 0 16 33" fill="none" xmlns="http://www.w3.org/2000/svg">
<path d="M13.3452 32.9998C13.0037 33.001 12.6662 32.9233 12.3577 32.7724C12.0491 32.6215 11.7772 32.4012 11.5621 32.1278L0.520066 17.9863C0.183819 17.5645 0 17.0355 0 16.4896C0 15.9437 0.183819 15.4147 0.520066 14.993L11.9507 0.851443C12.3387 0.370121 12.8964 0.0674344 13.5009 0.00997331C14.1054 -0.0474878 14.7073 0.144983 15.1741 0.545043C15.641 0.945103 15.9346 1.51998 15.9903 2.14321C16.0461 2.76645 15.8594 3.38698 15.4713 3.8683L5.25235 16.5014L15.1284 29.1345C15.408 29.4804 15.5855 29.9017 15.6401 30.3485C15.6947 30.7952 15.624 31.2488 15.4365 31.6554C15.2489 32.062 14.9522 32.4047 14.5816 32.643C14.211 32.8813 13.782 33.0051 13.3452 32.9998Z" fill="#8F7FAC"/>
</svg>
