<svg width="16" height="33" viewBox="0 0 16 33" fill="none" xmlns="http://www.w3.org/2000/svg">
<path d="M2.65477 32.9998C2.9963 33.001 3.33376 32.9233 3.64234 32.7724C3.95092 32.6215 4.22278 32.4012 4.43795 32.1278L15.4799 17.9863C15.8162 17.5645 16 17.0355 16 16.4896C16 15.9437 15.8162 15.4147 15.4799 14.993L4.0493 0.851443C3.66126 0.370121 3.10365 0.0674344 2.49914 0.00997331C1.89463 -0.0474878 1.29273 0.144983 0.825867 0.545043C0.359001 0.945103 0.0654087 1.51998 0.00967312 2.14321C-0.0460625 2.76645 0.140627 3.38698 0.52867 3.8683L10.7477 16.5014L0.871591 29.1345C0.592036 29.4804 0.414456 29.9017 0.359865 30.3485C0.305274 30.7952 0.375954 31.2488 0.563543 31.6554C0.751133 32.062 1.04778 32.4047 1.41839 32.643C1.78899 32.8813 2.21804 33.0051 2.65477 32.9998Z" fill="#8F7FAC"/>
</svg>
