<svg width="1366" height="292" viewBox="0 0 1366 292" fill="none" xmlns="http://www.w3.org/2000/svg">
<path d="M0 291.732V42.327C179.861 76.9402 515.445 61.2933 585.023 48.9652C1036 -17.4163 1293.58 -1.45315 1366 14.8261V291.732H0Z" fill="#FF7D73"/>
<path fill-rule="evenodd" clip-rule="evenodd" d="M0 291.732V66.9112C107.667 78.2945 235.73 38.4528 349.563 32.7611C463.397 27.0695 590.562 47.2605 706.241 66.9112C854.224 92.0493 959.995 103.433 1045.37 96.7924C1158.39 88.0021 1252.17 75.4487 1309.08 46.9903L1366 18.532V291.732H1309.08C1252.17 291.732 1138.33 291.732 1024.5 291.732C910.667 291.732 796.833 291.732 683 291.732C569.167 291.732 455.333 291.732 341.5 291.732C227.667 291.732 113.833 291.732 56.9167 291.732H0Z" fill="#FFA8A1"/>
</svg>
