<svg width="1366" height="292" viewBox="0 0 1366 292" fill="none" xmlns="http://www.w3.org/2000/svg">
<path d="M0 291.224V41.8187C179.861 76.4319 515.445 60.785 585.023 48.4569C1036 -17.9246 1293.58 -1.96145 1366 14.3178V291.224H0Z" fill="#FD8344"/>
<path fill-rule="evenodd" clip-rule="evenodd" d="M0 291.224V66.4031C107.667 77.7864 235.73 37.9448 349.563 32.2531C463.397 26.5614 590.562 46.7524 706.241 66.4031C854.224 91.5413 959.995 102.925 1045.37 96.2843C1158.39 87.4941 1252.17 74.9406 1309.08 46.4823L1366 18.0239V291.224H1309.08C1252.17 291.224 1138.33 291.224 1024.5 291.224C910.667 291.224 796.833 291.224 683 291.224C569.167 291.224 455.333 291.224 341.5 291.224C227.667 291.224 113.833 291.224 56.9167 291.224H0Z" fill="#FEA273"/>
</svg>
