<svg width="20" height="25" viewBox="0 0 20 25" fill="none" xmlns="http://www.w3.org/2000/svg">
<path d="M9.71157 0.443359C7.1861 0.446339 4.76491 1.4509 2.97913 3.23668C1.19334 5.02247 0.188781 7.44366 0.185801 9.96913C0.182776 12.033 0.856918 14.0408 2.10481 15.6846C2.10481 15.6846 2.36461 16.0267 2.40704 16.076L9.71157 24.6908L17.0196 16.0717C17.0577 16.0258 17.3183 15.6846 17.3183 15.6846L17.3192 15.682C18.5665 14.0389 19.2403 12.032 19.2373 9.96913C19.2344 7.44366 18.2298 5.02247 16.444 3.23668C14.6582 1.4509 12.2371 0.446339 9.71157 0.443359ZM9.71157 13.4331C9.02648 13.4331 8.35676 13.2299 7.78713 12.8493C7.21749 12.4687 6.77351 11.9277 6.51133 11.2947C6.24916 10.6618 6.18056 9.96529 6.31422 9.29336C6.44787 8.62142 6.77778 8.00421 7.26221 7.51977C7.74665 7.03534 8.36386 6.70543 9.0358 6.57177C9.70773 6.43812 10.4042 6.50671 11.0372 6.76889C11.6701 7.03107 12.2111 7.47505 12.5917 8.04468C12.9723 8.61432 13.1755 9.28403 13.1755 9.96913C13.1743 10.8875 12.809 11.7679 12.1597 12.4172C11.5103 13.0666 10.6299 13.4319 9.71157 13.4331Z" fill="#8F7FAC"/>
</svg>
