<svg width="996" height="508" viewBox="0 0 996 508" fill="none" xmlns="http://www.w3.org/2000/svg">
<path d="M746.571 167.541C746.137 169.263 746.427 171.419 745.001 172.642C740.192 176.805 736.848 182.152 732.712 186.837C731.134 188.618 729.493 189.327 727.575 187.336C726.087 185.761 727.087 184.416 727.868 182.943C730.497 178.001 735.77 175.441 738.856 170.869C740.091 169.065 741.384 167.104 743.434 166.06C744.923 165.292 746.208 165.491 746.571 167.541Z" fill="#FFD0B9"/>
<path d="M833.207 21.0717C837.262 11.8116 846.145 8.74049 853.848 4.24684C856.098 2.94123 858.043 4.20787 859.016 6.00065C859.969 7.74667 858.418 9.18869 856.852 9.74601C849.313 12.5209 842.93 17.3731 835.957 21.138C835.203 21.5433 834.457 21.7655 833.207 21.0717Z" fill="#FFD0B9"/>
<path d="M886.2 7.23621C883.961 7.33754 881.692 7.52852 879.442 7.47006C877.625 7.39601 876.453 6.49959 876.344 4.39887C876.223 2.43455 876.934 1.34717 878.879 0.88337C883.743 -0.317043 888.61 -0.223505 893.489 0.739164C894.903 1.03927 896.266 1.76419 896.286 3.53753C896.301 5.33815 895.024 6.07087 893.528 6.28913C891.09 6.62821 888.641 6.80749 886.188 7.07641C886.184 7.12318 886.203 7.18944 886.2 7.23621Z" fill="#FFD0B9"/>
<path d="M714.266 203.143C714.27 204.144 713.7 205.196 712.926 206.171C709.973 209.838 706.321 212.691 702.665 215.583C700.719 217.115 698.993 217.002 697.399 214.987C695.532 212.586 696.95 211.432 698.86 210.146C702.075 208.018 705.337 205.918 707.755 202.78C708.829 201.373 710.368 200.839 712.106 201.046C713.145 201.182 714.071 201.63 714.266 203.143Z" fill="#FFD0B9"/>
<path d="M914.524 7.70758C919.231 7.15415 923.758 8.63515 928.414 9.17299C929 9.25873 929.598 9.50037 930.098 9.85503C931.403 10.8021 933.133 11.8037 932.766 13.577C932.336 15.5491 930.243 15.5491 928.707 15.3542C923.868 14.8047 919.079 13.92 914.243 13.3042C912.051 13.0431 910.805 12.2792 911.055 9.88621C911.27 7.69589 912.555 7.18923 914.524 7.70758Z" fill="#FFD0B9"/>
<path d="M461.989 166.508C463.125 166.558 464.149 166.582 465.168 166.671C466.434 166.804 467.739 167.073 467.836 168.647C467.926 170.039 467.926 171.426 465.997 171.98C462.075 173.106 458.2 174.489 454.293 175.663C452.622 176.142 451.09 175.928 449.895 174.369C448.344 172.354 447.977 170.651 450.887 169.75C454.586 168.562 458.344 167.56 461.989 166.508Z" fill="#FFD0B9"/>
<path d="M641.278 239.209C636.817 237.798 631.282 238.137 625.805 237.568C624.88 237.482 623.973 236.695 623.172 236.095C622.325 235.448 621.755 234.478 622.235 233.418C622.583 232.646 623.532 232.416 624.368 232.494C630.485 232.989 636.602 233.488 642.708 234.142C644.29 234.314 646.348 234.906 646.141 236.937C645.919 238.924 643.868 238.948 641.278 239.209Z" fill="#FFD0B9"/>
<path d="M804.93 46.1869C805.063 45.5594 805.152 44.5188 805.445 43.5601C807.07 38.322 811.047 34.6974 814.543 30.7922C815.5 29.7399 817.207 28.3992 818.828 30.0322C820.473 31.7081 819.082 32.7526 817.859 34.0153C814.16 37.8621 811.75 42.613 809.121 47.2158C808.449 48.3967 808.441 50.2402 806.387 49.6244C804.887 49.2074 805.051 47.7615 804.93 46.1869Z" fill="#FFD0B9"/>
<path d="M776.942 111.682C776.821 106.012 779.243 101.124 780.473 95.9991C780.844 94.4986 782.004 94.1674 783.356 94.7598C784.86 95.4028 786.567 96.1317 785.625 98.2947C783.743 102.652 783.29 107.352 782.079 111.866C781.657 113.405 781.543 115.443 779.325 115.252C777.172 115.061 777.403 112.965 776.942 111.682Z" fill="#FFD0B9"/>
<path d="M497.184 166.772C501.75 167.303 506.301 167.377 510.606 168.756C512.723 169.442 514.274 170.771 513.125 173.355C512.157 175.588 510.586 174.848 509.067 174.088C505.824 172.509 502.258 173.024 498.86 172.412C498.453 172.338 498.039 172.424 497.625 172.486C495.074 172.817 492.778 172.096 492.641 169.314C492.473 166.028 495.797 167.794 497.184 166.772Z" fill="#FFD0B9"/>
<path d="M768.504 134.385C767.883 139.619 765.59 144.288 762.477 148.63C761.75 149.628 760.782 149.791 759.825 149.136C758.602 148.302 757.262 146.895 757.848 145.641C759.946 141.139 760.996 136.002 764.828 132.502C766.528 130.912 768.375 131.922 768.504 134.385Z" fill="#FFD0B9"/>
<path d="M967.661 32.4015C967.341 33.7695 966.501 34.7361 965.094 33.9605C960.352 31.3024 955.434 28.886 951.649 24.8365C950.63 23.7452 950.403 22.003 951.344 20.8572C952.512 19.4112 954.079 20.4947 955.071 21.3327C958.63 24.3454 963.337 25.8148 966.196 29.7785C966.778 30.6165 967.528 31.3024 967.661 32.4015Z" fill="#FFD0B9"/>
<path d="M674.766 233.289C672.156 233.823 669.57 234.72 667.207 232.537C665.363 230.826 665.5 229.15 667.945 228.675C672.309 227.806 676.789 227.556 681.164 226.508C682.531 226.165 684.68 226.375 685.035 228.538C685.328 230.331 683.637 230.764 682.469 231.528C680.09 233.052 677.328 232.779 674.766 233.289Z" fill="#FFD0B9"/>
<path d="M545.126 193.874C543.36 194.03 534.247 187.946 533.766 186.255C533.157 184.123 534.239 182.899 536.223 183.235C540.075 183.897 543.602 185.612 546.239 188.469C548.153 190.507 547.231 193.718 545.126 193.874Z" fill="#FFD0B9"/>
<path d="M574.684 218.896C574.504 220.272 574.184 221.274 573.152 221.702C572.008 222.174 570.695 222.361 569.742 221.297C566.879 218.105 564.063 214.917 561.297 211.663C560.684 210.919 560.094 209.901 560.797 208.88C561.527 207.859 562.66 208.296 563.629 208.452C565.094 208.662 566.625 209.266 567.297 210.447C568.766 213.023 571.047 214.699 573.082 216.652C573.785 217.334 574.246 218.277 574.684 218.896Z" fill="#FFD0B9"/>
<path d="M421.149 184.968C422.704 184.887 424.231 184.512 425.083 186.091C425.872 187.552 425.325 188.928 424.149 189.871C421.668 191.89 419.446 194.451 415.922 194.716C414.434 194.821 413.04 194.525 412.321 193.001C411.626 191.497 412.102 190.144 413.348 189.224C415.77 187.428 418.258 185.639 421.149 184.968Z" fill="#FFD0B9"/>
<path d="M989.27 59.1458C988.696 60.9035 989.59 62.8951 987.598 63.7174C985.254 64.6762 984.985 62.5677 984.231 61.266C982.594 58.4754 980.579 55.9304 979.344 52.8905C978.723 51.3042 978.903 49.9519 980.274 49.1802C981.411 48.5488 982.688 49.2269 983.434 50.3221C985.446 53.2763 987.387 56.2929 989.27 59.1458Z" fill="#FFD0B9"/>
<path d="M989.035 93.7393C988.821 91.1319 990.024 88.4817 988.602 85.886C988.196 85.1572 988.559 84.1322 989.461 83.9452C990.2 83.7893 991.149 83.8984 991.809 84.2569C995.086 85.9991 996.5 94.1875 994.055 97.0053C993.168 98.0147 992.063 98.5798 990.778 98.0147C988.918 97.1884 989.321 95.3021 989.035 93.7393Z" fill="#FFD0B9"/>
<path d="M791.778 79.7856C788.509 73.8616 790.833 69.0367 792.681 64.2234C792.985 63.4244 793.97 63.3543 794.821 63.5257C796.552 63.8648 796.56 65.5056 796.224 66.4137C794.649 70.541 794.954 75.2218 791.778 79.7856Z" fill="#FFD0B9"/>
<path d="M591.314 234.208C591.823 233.641 593.44 233.176 595.243 233.074C596.458 233.008 600.046 232.801 601.426 229.471C601.462 229.406 601.494 229.342 601.518 229.268C601.529 229.233 601.538 229.201 601.549 229.165C601.557 229.133 601.575 229.102 601.586 229.067C601.61 228.993 601.623 228.921 601.631 228.85C602.525 225.359 599.773 223.051 598.842 222.274C597.458 221.117 596.443 219.782 596.371 219.026C596.081 215.786 593.661 213.102 590.485 212.494C587.574 211.938 584.898 213.296 583.5 216.038C583.337 216.358 583.198 216.69 583.084 217.031C582.778 217.958 582.656 218.95 582.73 219.943C582.766 220.382 582.836 220.786 582.909 221.179C583.029 221.86 583.13 222.455 583.009 223.026C582.763 223.555 582.323 223.974 581.819 224.448C581.528 224.72 581.224 225.002 580.937 225.334C580.277 226.085 579.782 226.949 579.47 227.877C579.359 228.22 579.268 228.567 579.209 228.923C578.681 231.951 580.008 234.637 582.676 235.926C585.587 237.331 589.137 236.623 591.314 234.208Z" fill="#FFD0B9"/>
<path d="M601.829 219.462C604.719 219.98 607.479 218.619 608.25 216.302C608.312 216.116 608.361 215.921 608.397 215.731C608.868 213.108 606.689 210.518 603.536 209.957C600.649 209.442 597.886 210.8 597.115 213.117C597.053 213.303 597.004 213.498 596.968 213.689C596.5 216.313 598.679 218.903 601.829 219.462Z" fill="#FFD0B9"/>
<path d="M604.245 223.535C603.402 226.06 605.189 228.935 608.224 229.94C611.263 230.947 614.421 229.709 615.261 227.182C616.103 224.652 614.317 221.782 611.279 220.775C608.243 219.77 605.088 221.006 604.245 223.535Z" fill="#FFD0B9"/>
<path d="M596.227 246.03C597.642 245.618 598.699 244.709 599.206 243.474C600.224 241.002 598.622 238.015 595.672 236.812C594.279 236.243 592.776 236.141 591.446 236.534C590.031 236.946 588.971 237.853 588.466 239.089C588.43 239.174 588.394 239.263 588.37 239.351C587.558 241.778 589.155 244.59 592.001 245.752C593.396 246.318 594.894 246.42 596.227 246.03Z" fill="#FFD0B9"/>
<path d="M600.378 235.146C599.536 237.676 601.32 240.549 604.361 241.553C607.396 242.558 610.552 241.322 611.395 238.798C612.237 236.268 610.45 233.392 607.415 232.387C604.376 231.38 601.222 232.621 600.378 235.146Z" fill="#FFD0B9"/>
<path d="M712.987 213.115C712.704 212.409 713.004 210.757 713.712 209.101C714.192 207.985 715.599 204.687 713.22 201.974C713.178 201.912 713.135 201.855 713.079 201.801C713.052 201.775 713.027 201.753 713 201.728C712.975 201.706 712.955 201.677 712.928 201.651C712.873 201.597 712.814 201.553 712.754 201.514C710.015 199.164 706.72 200.598 705.609 201.085C703.956 201.807 702.306 202.121 701.595 201.849C698.556 200.669 695.071 201.638 693.116 204.208C691.325 206.562 691.356 209.557 693.198 212.025C693.414 212.313 693.651 212.584 693.906 212.838C694.603 213.524 695.44 214.073 696.365 214.448C696.775 214.611 697.169 214.729 697.555 214.838C698.22 215.033 698.799 215.207 699.258 215.569C699.624 216.024 699.805 216.604 700.007 217.265C700.122 217.646 700.24 218.042 700.411 218.446C700.793 219.37 701.349 220.197 702.045 220.888C702.303 221.139 702.574 221.375 702.868 221.586C705.354 223.404 708.355 223.411 710.697 221.599C713.251 219.622 714.19 216.134 712.987 213.115Z" fill="#FFD0B9"/>
<path d="M704.415 197.167C706.163 194.814 706.166 191.743 704.427 190.024C704.287 189.886 704.134 189.755 703.979 189.639C701.832 188.052 698.539 188.849 696.636 191.417C694.891 193.769 694.885 196.842 696.623 198.561C696.763 198.699 696.917 198.829 697.072 198.946C699.221 200.531 702.515 199.734 704.415 197.167Z" fill="#FFD0B9"/>
<path d="M709.146 196.813C711.039 198.689 714.415 198.369 716.665 196.103C718.918 193.835 719.207 190.462 717.311 188.588C715.412 186.71 712.041 187.032 709.788 189.3C707.538 191.566 707.248 194.936 709.146 196.813Z" fill="#FFD0B9"/>
<path d="M725.783 213.974C726.041 212.525 725.694 211.177 724.81 210.175C723.041 208.167 719.648 208.271 717.257 210.373C716.128 211.365 715.37 212.664 715.132 214.026C714.874 215.475 715.218 216.825 716.105 217.826C716.165 217.896 716.229 217.967 716.297 218.028C718.117 219.833 721.352 219.654 723.658 217.627C724.786 216.632 725.542 215.339 725.783 213.974Z" fill="#FFD0B9"/>
<path d="M717.856 205.426C719.754 207.304 723.127 206.986 725.378 204.714C727.628 202.448 727.919 199.079 726.025 197.203C724.127 195.326 720.751 195.645 718.501 197.911C716.248 200.18 715.962 203.551 717.856 205.426Z" fill="#FFD0B9"/>
<path d="M799.716 80.9784C799.222 80.3985 798.983 78.7369 799.129 76.9412C799.23 75.731 799.518 72.1561 796.4 70.3383C796.341 70.293 796.282 70.2532 796.212 70.2192C796.178 70.2035 796.148 70.1905 796.114 70.1749C796.083 70.1619 796.055 70.1406 796.022 70.1249C795.952 70.0909 795.882 70.0679 795.812 70.0504C792.469 68.6906 789.8 71.0956 788.901 71.9103C787.562 73.1198 786.097 73.9411 785.336 73.9087C782.08 73.7541 779.083 75.7789 778.044 78.8359C777.092 81.6369 778.072 84.4673 780.602 86.2234C780.898 86.4279 781.209 86.61 781.531 86.7697C782.41 87.1988 783.378 87.4547 784.375 87.5168C784.815 87.5411 785.226 87.5276 785.626 87.5088C786.319 87.4824 786.924 87.4638 787.473 87.6617C787.965 87.9769 788.321 88.4693 788.722 89.0322C788.952 89.3571 789.19 89.6954 789.48 90.0241C790.136 90.7789 790.925 91.3868 791.804 91.8214C792.129 91.9783 792.461 92.1157 792.807 92.2225C795.741 93.1574 798.589 92.2116 800.235 89.7508C802.03 87.0655 801.814 83.4597 799.716 80.9784Z" fill="#FFD0B9"/>
<path d="M786.514 68.5706C787.424 65.7844 786.453 62.8711 784.258 61.7927C784.082 61.7063 783.895 61.6313 783.711 61.57C781.172 60.746 778.302 62.5469 777.312 65.5861C776.404 68.3694 777.373 71.2856 779.567 72.3639C779.744 72.4503 779.931 72.5254 780.115 72.5867C782.656 73.4078 785.527 71.6069 786.514 68.5706Z" fill="#FFD0B9"/>
<path d="M790.886 66.7416C793.277 67.9196 796.377 66.5455 797.791 63.6827C799.208 60.8171 798.412 57.527 796.019 56.3518C793.623 55.174 790.528 56.548 789.111 59.4136C787.697 62.2764 788.49 65.5638 790.886 66.7416Z" fill="#FFD0B9"/>
<path d="M812.125 77.7435C811.91 76.288 811.153 75.1197 809.997 74.4497C807.682 73.1071 804.497 74.2822 802.897 77.0341C802.141 78.333 801.834 79.805 802.041 81.1724C802.256 82.6279 803.011 83.7991 804.17 84.4663C804.248 84.5139 804.332 84.5613 804.416 84.5977C806.714 85.7312 809.725 84.5358 811.269 81.8819C812.023 80.5803 812.33 79.1139 812.125 77.7435Z" fill="#FFD0B9"/>
<path d="M801.885 72.1535C804.281 73.3314 807.378 71.96 808.793 69.0917C810.207 66.2288 809.413 62.9413 807.023 61.7633C804.627 60.5854 801.527 61.9596 800.112 64.8225C798.695 67.6881 799.494 70.9755 801.885 72.1535Z" fill="#FFD0B9"/>
<path d="M244.782 340.836C244.874 342.547 245.78 344.437 244.781 345.989C241.422 351.259 239.805 357.173 237.239 362.718C236.258 364.828 234.904 365.974 232.494 364.726C230.616 363.731 231.174 362.196 231.486 360.609C232.541 355.282 236.812 351.342 238.411 346.217C239.058 344.19 239.715 342.001 241.361 340.424C242.553 339.271 243.835 339.065 244.782 340.836Z" fill="#FFD0B9"/>
<path d="M284.551 180.37C285.699 170.65 293.259 165.15 299.279 158.701C301.039 156.824 303.263 157.399 304.715 158.75C306.134 160.064 305.08 161.855 303.751 162.84C297.384 167.662 292.727 174.041 287.189 179.601C286.59 180.2 285.944 180.63 284.551 180.37Z" fill="#FFD0B9"/>
<path d="M330.993 151.662C328.891 152.431 326.784 153.292 324.624 153.918C322.872 154.399 321.493 153.93 320.773 152.035C320.082 150.269 320.441 149.056 322.158 148.043C326.439 145.472 331.103 144.087 336.033 143.497C337.468 143.345 338.98 143.598 339.518 145.22C340.06 146.868 339.058 147.926 337.697 148.579C335.474 149.626 333.193 150.531 330.935 151.519C330.945 151.563 330.983 151.618 330.993 151.662Z" fill="#FFD0B9"/>
<path d="M224.41 383.243C224.707 384.16 224.472 385.298 224.021 386.425C222.284 390.681 219.642 394.401 217.007 398.158C215.603 400.15 213.926 400.567 211.818 399.2C209.336 397.561 210.349 396.075 211.791 394.318C214.229 391.396 216.719 388.484 218.103 384.876C218.713 383.261 220.023 382.306 221.738 381.971C222.768 381.783 223.781 381.914 224.41 383.243Z" fill="#FFD0B9"/>
<path d="M358.12 143.514C362.442 141.583 367.189 141.575 371.782 140.662C372.366 140.563 373.006 140.605 373.586 140.779C375.106 141.254 377.048 141.651 377.218 143.389C377.387 145.329 375.392 145.962 373.873 146.246C369.101 147.204 364.279 147.839 359.492 148.735C357.328 149.158 355.917 148.833 355.454 146.561C355.017 144.486 356.093 143.633 358.12 143.514Z" fill="#FFD0B9"/>
<path d="M165.41 438.387C160.747 438.44 155.573 440.424 150.189 441.557C149.281 441.758 148.187 441.309 147.249 441C146.251 440.662 145.424 439.944 145.571 438.826C145.676 438.012 146.513 437.514 147.332 437.333C153.305 435.939 159.279 434.548 165.288 433.304C166.846 432.984 168.98 432.905 169.378 434.832C169.748 436.724 167.801 437.365 165.41 438.387Z" fill="#FFD0B9"/>
<path d="M264.944 211.944C264.887 211.329 264.667 210.347 264.665 209.38C264.678 204.085 267.402 199.561 269.586 194.924C270.189 193.67 271.422 191.925 273.443 192.934C275.5 193.974 274.482 195.352 273.688 196.879C271.293 201.524 270.39 206.608 269.236 211.623C268.942 212.909 269.475 214.602 267.338 214.657C265.788 214.728 265.52 213.352 264.944 211.944Z" fill="#FFD0B9"/>
<path d="M257.417 280.447C255.641 275.283 256.516 270.071 256.186 265C256.1 263.512 257.107 262.859 258.567 262.994C260.187 263.13 262.025 263.283 261.762 265.55C261.246 270.114 262.191 274.56 262.359 279.064C262.409 280.603 262.898 282.506 260.73 283.001C258.625 283.475 258.231 281.483 257.417 280.447Z" fill="#FFD0B9"/>
<path d="M6.9235 415.569C11.4289 414.676 15.7859 413.369 20.291 413.335C22.5089 413.325 24.3756 414.076 24.0387 416.795C23.7702 419.137 22.0572 418.932 20.387 418.693C16.8359 418.224 13.5891 419.774 10.1723 420.239C9.76363 420.294 9.3943 420.498 9.01812 420.68C6.68521 421.755 4.28585 421.787 3.34025 419.274C2.21756 416.31 5.90165 416.926 6.9235 415.569Z" fill="#FFD0B9"/>
<path d="M255.996 303.809C256.937 308.797 256.122 313.771 254.429 318.692C254.03 319.826 253.156 320.269 252.053 319.957C250.645 319.562 248.957 318.676 249.147 317.348C249.826 312.587 249.322 307.559 251.945 303.192C253.097 301.221 255.152 301.589 255.996 303.809Z" fill="#FFD0B9"/>
<path d="M415.972 150.09C416.068 151.441 415.551 152.581 413.985 152.294C408.69 151.288 403.298 150.555 398.507 147.983C397.216 147.29 396.49 145.76 397.051 144.424C397.739 142.745 399.549 143.266 400.739 143.736C405.011 145.425 409.924 145.352 413.808 148.125C414.608 148.718 415.523 149.121 415.972 150.09Z" fill="#FFD0B9"/>
<path d="M195.594 422.827C193.264 424.105 191.064 425.709 188.173 424.42C185.915 423.407 185.554 421.828 187.744 420.652C191.646 418.537 195.841 416.954 199.702 414.67C200.904 413.942 203.012 413.487 203.985 415.364C204.789 416.921 203.305 417.829 202.416 418.883C200.596 421 197.885 421.584 195.594 422.827Z" fill="#FFD0B9"/>
<path d="M60.533 425.922C58.8971 426.598 48.4356 423.769 47.4824 422.362C46.2775 420.59 46.9495 419.141 48.9375 418.849C52.7997 418.294 56.6614 418.802 60.0095 420.627C62.4296 421.919 62.4925 425.144 60.533 425.922Z" fill="#FFD0B9"/>
<path d="M96.0107 439.916C96.2426 441.232 96.231 442.247 95.3745 442.952C94.4228 443.73 93.2278 444.298 92.0084 443.61C88.3468 441.546 84.7309 439.472 81.144 437.322C80.3419 436.824 79.4823 436.069 79.8527 434.92C80.2492 433.763 81.4558 433.821 82.424 433.672C83.8805 433.423 85.5157 433.514 86.5014 434.395C88.6547 436.315 91.318 437.163 93.828 438.34C94.6973 438.753 95.4125 439.479 96.0107 439.916Z" fill="#FFD0B9"/>
<path d="M444.38 168.061C444.348 169.846 445.783 171.403 444.127 172.758C442.176 174.345 441.302 172.493 440.203 171.526C437.828 169.461 435.163 167.736 433.098 165.32C432.042 164.053 431.817 162.758 432.896 161.637C433.794 160.715 435.208 160.951 436.239 161.73C439.02 163.832 441.752 166.013 444.38 168.061Z" fill="#FFD0B9"/>
<path d="M454.276 199.834C453.308 197.508 453.678 194.715 451.564 192.764C450.964 192.218 451.01 191.169 451.814 190.725C452.471 190.359 453.407 190.173 454.14 190.302C457.77 190.91 461.513 197.992 460.01 201.314C459.462 202.507 458.575 203.359 457.186 203.229C455.175 203.033 455.005 201.181 454.276 199.834Z" fill="#FFD0B9"/>
<path d="M118.248 439.86C123.275 438.14 127.385 438.991 131.473 439.731C133.35 440.053 135.04 441.034 134.421 443.278C133.932 445.11 132.152 445.667 130.524 445.214C126.459 444.085 121.69 444.278 118.248 439.86Z" fill="#FFD0B9"/>
<path d="M262.228 246.724C257.382 242.279 258.181 237.154 258.531 232.183C258.587 231.358 259.503 230.997 260.364 230.897C262.11 230.686 262.598 232.188 262.544 233.122C262.254 237.381 263.914 241.581 262.228 246.724Z" fill="#FFD0B9"/>
</svg>
