<svg width="430" height="744" viewBox="0 0 430 744" fill="none" xmlns="http://www.w3.org/2000/svg">
<path d="M65.5544 35.8493C31.6387 54.2799 10.713 91.1546 3.90775 129.066C-2.88874 166.961 2.80503 206.046 11.4904 243.586C21.8961 288.575 38.6418 335.534 75.8041 363.169C104.648 384.611 143.199 392.293 167.778 418.474C201.701 454.598 196.64 510.493 202.499 559.559C207.738 603.594 224.155 647.202 254.232 679.956C285.266 713.726 329.324 734.105 374.699 741.133C442.264 751.606 514.278 732.501 566.068 688.229C591.161 666.781 611.205 640.176 630.054 613.125C661.952 567.365 691.274 519.108 708.861 466.203C726.44 413.293 731.655 355.036 715.278 301.659C698.622 247.406 660.759 201.465 616.34 165.899C571.907 130.337 520.846 104.099 469.981 78.4775C404.228 45.3527 336.576 12.3532 263.545 3.10585C190.493 -6.12023 109.57 11.9431 65.5544 35.8493Z" fill="#FEA273" fill-opacity="0.5"/>
</svg>
