<svg width="454" height="509" viewBox="0 0 454 509" fill="none" xmlns="http://www.w3.org/2000/svg">
<path d="M229.574 340.519C230.767 340.785 231.801 341.813 233.263 341.068C238.213 338.57 243.013 337.728 247.882 335.981C249.737 335.313 251.032 334.201 250.984 331.873C250.931 330.056 249.636 330.401 248.39 330.516C244.208 330.909 239.89 334.38 235.661 335.29C233.983 335.663 232.186 336.028 230.479 337.359C229.236 338.322 228.639 339.468 229.574 340.519Z" fill="#FABF4B"/>
<path d="M100.816 359.459C93.4579 359.468 86.8716 365.767 80.1464 370.561C78.1859 371.964 77.8173 374.051 78.2751 375.517C78.7178 376.95 80.3693 376.181 81.5394 375.076C87.2226 369.791 93.4202 366.23 99.3401 361.78C99.9792 361.298 100.513 360.756 100.816 359.459Z" fill="#FABF4B"/>
<path d="M64.0084 398.67C65.2956 396.838 66.6496 395.012 67.8548 393.112C68.8128 391.568 68.961 390.262 67.8579 389.405C66.8367 388.587 65.8436 388.784 64.5168 390.24C61.1772 393.864 58.552 397.963 56.4016 402.388C55.7901 403.679 55.4417 405.082 56.4129 405.745C57.4014 406.414 58.5097 405.615 59.4534 404.445C60.9819 402.533 62.4282 400.553 63.9264 398.602C63.9544 398.616 63.9804 398.656 64.0084 398.67Z" fill="#FABF4B"/>
<path d="M267.057 326.523C267.61 326.892 268.506 326.799 269.471 326.509C273.126 325.38 276.715 323.37 280.327 321.371C282.246 320.305 283.133 318.822 282.893 316.756C282.591 314.321 281.172 315.084 279.409 316.211C276.463 318.12 273.506 320.077 270.438 320.953C269.068 321.337 267.926 322.427 267.084 323.954C266.588 324.872 266.327 325.809 267.057 326.523Z" fill="#FABF4B"/>
<path d="M48.6905 422.497C45.7951 426.226 44.1252 430.547 41.862 434.632C41.5872 435.153 41.3923 435.74 41.3137 436.287C41.1206 437.722 40.7234 439.533 41.9074 439.873C43.2358 440.233 44.3874 438.484 45.1238 437.131C47.4815 432.889 49.6256 428.566 51.9444 424.303C53.0051 422.378 53.2675 421.058 51.8048 420.395C50.4737 419.775 49.4863 420.664 48.6905 422.497Z" fill="#FABF4B"/>
<path d="M385.526 102.471C384.929 103.439 384.379 104.302 383.868 105.186C383.245 106.292 382.676 107.479 383.495 108.135C384.216 108.718 384.984 109.224 386.352 107.814C389.133 104.949 392.03 102.218 394.828 99.3832C396.013 98.1617 396.737 96.8047 396.531 95.2379C396.268 93.2079 395.527 92.2801 393.428 94.3822C390.735 97.0382 388.113 99.8112 385.526 102.471Z" fill="#FABF4B"/>
<path d="M327.174 278.72C328.847 274.48 332.079 269.981 334.776 265.199C335.238 264.395 335.3 263.351 335.408 262.463C335.516 261.519 335.292 260.689 334.441 260.704C333.822 260.713 333.173 261.422 332.756 262.148C329.666 267.438 326.578 272.728 323.582 278.066C322.807 279.45 322.003 281.385 323.241 281.953C324.464 282.492 325.605 280.788 327.174 278.72Z" fill="#FABF4B"/>
<path d="M130.276 345.002C129.855 344.884 129.23 344.58 128.538 344.475C124.743 343.922 120.549 345.921 116.463 347.416C115.354 347.832 113.673 348.769 113.686 350.718C113.709 352.703 115.053 351.922 116.424 351.362C120.589 349.675 124.545 349.395 128.54 348.878C129.564 348.747 130.589 349.413 131.378 347.473C131.972 346.068 131.081 345.677 130.276 345.002Z" fill="#FABF4B"/>
<path d="M181.939 345.514C178.865 343.344 174.827 343.585 171.312 342.743C170.277 342.506 169.455 343.354 169.04 344.699C168.569 346.189 168.034 347.881 169.749 347.883C173.198 347.9 176.05 349.236 179.215 349.87C180.299 350.079 181.49 350.728 182.605 348.805C183.683 346.938 182.395 346.366 181.939 345.514Z" fill="#FABF4B"/>
<path d="M366.315 131.962C364.097 135.969 361.635 139.796 360.031 143.895C359.247 145.913 359.13 147.693 361.192 147.676C362.962 147.681 363.415 146.1 363.83 144.554C364.739 141.27 366.986 138.479 368.516 135.418C368.698 135.052 368.974 134.737 369.236 134.414C370.822 132.405 371.686 130.223 370.221 129.094C368.494 127.756 367.643 131.176 366.315 131.962Z" fill="#FABF4B"/>
<path d="M199.151 346.746C202.391 348.136 206.238 347.924 210.354 346.907C211.307 346.664 211.93 345.915 212.094 344.877C212.304 343.551 212.262 341.919 211.245 341.951C207.599 342.061 204.176 341.065 200.13 342.989C198.315 343.829 197.858 345.74 199.151 346.746Z" fill="#FABF4B"/>
<path d="M33.1386 475.881C34.0723 476.112 35.0694 475.763 35.4134 474.306C36.5498 469.376 37.9166 464.387 37.7561 459.749C37.7126 458.5 36.8725 457.675 35.7202 458.044C34.2771 458.492 34.0155 460.195 33.9338 461.329C33.6448 465.4 31.8696 469.867 32.4918 473.701C32.6357 474.492 32.603 475.369 33.1386 475.881Z" fill="#FABF4B"/>
<path d="M305.477 304.529C307.208 302.544 309.126 300.712 309.218 297.942C309.284 295.778 308.281 295.281 306.673 297.15C303.792 300.477 301.189 304.128 298.202 307.399C297.26 308.416 296.195 310.287 297.198 311.373C298.029 312.271 299.199 311.017 300.264 310.32C302.417 308.889 303.785 306.483 305.477 304.529Z" fill="#FABF4B"/>
<path d="M354.955 181.884C356.012 180.467 357.656 170.637 356.983 169.619C356.138 168.332 354.865 168.79 353.959 170.569C352.208 174.027 351.217 177.599 351.349 180.843C351.425 183.184 353.71 183.586 354.955 181.884Z" fill="#FABF4B"/>
<path d="M352.553 215.695C353.414 216.047 354.145 216.145 354.949 215.44C355.84 214.656 356.665 213.628 356.6 212.444C356.408 208.889 356.191 205.374 355.91 201.877C355.836 201.094 355.597 200.23 354.644 200.445C353.677 200.683 353.296 201.788 352.849 202.654C352.16 203.954 351.653 205.453 351.937 206.445C352.556 208.611 352.229 211.127 352.191 213.539C352.182 214.375 352.451 215.104 352.553 215.695Z" fill="#FABF4B"/>
<path d="M418.212 75.0967C417.311 76.3653 416.264 77.5044 416.67 78.7912C417.045 79.9832 418.108 80.0282 419.277 79.3902C421.759 78.0549 424.399 77.1324 426.484 74.2865C427.361 73.0819 427.964 71.8092 427.515 70.6532C427.065 69.5239 426.054 69.4287 424.859 70.1339C422.532 71.5013 420.173 72.927 418.212 75.0967Z" fill="#FABF4B"/>
<path d="M36.0631 503.681C37.3522 503.843 37.9631 505.316 39.5142 503.952C41.3342 502.344 40.3148 501.35 40.0087 500.246C39.3636 497.861 39.0629 495.25 38.0584 493.11C37.5217 492.013 36.6739 491.67 35.4925 492.534C34.5176 493.253 34.1906 494.567 34.3867 495.589C34.9162 498.347 35.5188 501.068 36.0631 503.681Z" fill="#FABF4B"/>
<path d="M344.743 235.936C341.75 240.331 340.917 244.165 340.014 247.966C339.586 249.71 339.695 251.353 341.518 251.029C343 250.78 344.023 249.217 344.27 247.687C344.887 243.865 346.697 239.543 344.743 235.936Z" fill="#FABF4B"/>
<path d="M156.116 346.271C154.634 341.38 150.683 341.562 147.002 341.35C146.392 341.313 145.811 342.109 145.438 342.883C144.674 344.452 145.578 345.057 146.266 345.107C149.417 345.298 151.842 347.259 156.116 346.271Z" fill="#FABF4B"/>
</svg>
