<svg width="362" height="350" viewBox="0 0 362 350" fill="none" xmlns="http://www.w3.org/2000/svg">
<path d="M155.223 109.872C156.431 110.057 157.532 111.013 158.941 110.172C163.712 107.348 168.445 106.185 173.186 104.116C174.991 103.325 176.209 102.129 176.005 99.8095C175.83 98 174.561 98.4309 173.326 98.6294C169.18 99.3023 165.104 103.054 160.945 104.246C159.296 104.731 157.528 105.215 155.915 106.658C154.738 107.703 154.22 108.886 155.223 109.872Z" fill="#FABF4B"/>
<path d="M28.0251 137.405C20.6843 137.908 14.5352 144.634 8.14672 149.869C6.28471 151.4 6.05696 153.507 6.61206 154.939C7.14981 156.339 8.74598 155.46 9.8394 154.279C15.1554 148.626 21.1002 144.657 26.7082 139.82C27.3136 139.296 27.8094 138.72 28.0251 137.405Z" fill="#FABF4B"/>
<path d="M191.683 93.3936C192.259 93.7243 193.147 93.5719 194.09 93.2172C197.662 91.8457 201.107 89.5997 204.578 87.363C206.42 86.1707 207.205 84.6314 206.828 82.5862C206.363 80.177 204.999 81.034 203.315 82.2759C200.504 84.3781 197.684 86.53 194.683 87.6089C193.341 88.084 192.275 89.2488 191.538 90.8289C191.104 91.7776 190.907 92.7296 191.683 93.3936Z" fill="#FABF4B"/>
<path d="M248.459 41.6661C249.843 37.3233 252.766 32.6176 255.136 27.6662C255.543 26.8326 255.535 25.7868 255.584 24.8939C255.628 23.9449 255.349 23.1315 254.501 23.2033C253.884 23.2537 253.284 24.0045 252.917 24.7574C250.188 30.2421 247.462 35.728 244.831 41.2547C244.15 42.6874 243.478 44.6723 244.751 45.1555C246.008 45.6112 247.032 43.8343 248.459 41.6661Z" fill="#FABF4B"/>
<path d="M56.4493 121.005C56.0218 120.915 55.3771 120.653 54.6796 120.595C50.8566 120.298 46.8059 122.574 42.83 124.34C41.7512 124.829 40.1365 125.876 40.2799 127.82C40.4365 129.799 41.7244 128.93 43.0554 128.279C47.0977 126.317 51.0265 125.772 54.9776 124.988C55.99 124.789 57.0574 125.385 57.7146 123.396C58.2132 121.954 57.2981 121.624 56.4493 121.005Z" fill="#FABF4B"/>
<path d="M108.03 118.05C104.817 116.092 100.804 116.602 97.2408 115.998C96.1922 115.831 95.4294 116.732 95.1052 118.102C94.7351 119.621 94.3145 121.344 96.0264 121.232C99.4682 121.017 102.403 122.159 105.604 122.579C106.7 122.715 107.932 123.283 108.915 121.29C109.866 119.354 108.542 118.87 108.03 118.05Z" fill="#FABF4B"/>
<path d="M125.286 118.125C128.612 119.295 132.436 118.825 136.475 117.535C137.409 117.228 137.981 116.439 138.075 115.392C138.196 114.056 138.044 112.43 137.031 112.53C133.401 112.884 129.919 112.121 126.012 114.312C124.257 115.271 123.929 117.208 125.286 118.125Z" fill="#FABF4B"/>
<path d="M228.541 68.8719C230.135 66.7757 231.926 64.8184 231.831 62.0489C231.753 59.8855 230.718 59.4569 229.239 61.4294C226.588 64.9422 224.236 68.7594 221.475 72.2239C220.604 73.3015 219.666 75.2398 220.739 76.2558C221.629 77.0965 222.712 75.766 223.729 74.9993C225.78 73.4271 226.984 70.9349 228.541 68.8719Z" fill="#FABF4B"/>
<path d="M263.118 -2.19995C260.427 2.38545 259.853 6.26693 259.206 10.1204C258.897 11.8889 259.116 13.5213 260.913 13.0753C262.375 12.7272 263.29 11.0999 263.434 9.55619C263.793 5.70156 265.309 1.26746 263.118 -2.19995Z" fill="#FABF4B"/>
<path d="M82.3159 120.538C80.509 115.757 76.5799 116.203 72.8923 116.239C72.2812 116.243 71.7557 117.076 71.435 117.873C70.7779 119.49 71.7208 120.033 72.4102 120.037C75.5673 120.016 78.1178 121.81 82.3159 120.538Z" fill="#FABF4B"/>
</svg>
