<svg width="451" height="509" viewBox="0 0 451 509" fill="none" xmlns="http://www.w3.org/2000/svg">
<path d="M226.574 340.519C227.767 340.785 228.801 341.813 230.263 341.068C235.213 338.57 240.013 337.728 244.882 335.981C246.737 335.313 248.032 334.201 247.984 331.873C247.931 330.056 246.636 330.401 245.39 330.516C241.208 330.909 236.89 334.38 232.661 335.29C230.983 335.663 229.186 336.028 227.479 337.359C226.236 338.322 225.639 339.468 226.574 340.519Z" fill="#FABF4B"/>
<path d="M97.8159 359.459C90.4579 359.468 83.8716 365.767 77.1464 370.561C75.1859 371.964 74.8173 374.051 75.2751 375.517C75.7178 376.95 77.3693 376.181 78.5394 375.076C84.2226 369.791 90.4202 366.23 96.3401 361.78C96.9792 361.298 97.5126 360.756 97.8159 359.459Z" fill="#FABF4B"/>
<path d="M61.0084 398.67C62.2956 396.838 63.6496 395.012 64.8548 393.112C65.8128 391.568 65.961 390.262 64.8579 389.405C63.8367 388.587 62.8436 388.784 61.5168 390.24C58.1772 393.864 55.552 397.963 53.4016 402.388C52.7901 403.679 52.4417 405.082 53.4129 405.745C54.4014 406.414 55.5097 405.615 56.4534 404.445C57.9819 402.533 59.4282 400.553 60.9264 398.602C60.9544 398.616 60.9804 398.656 61.0084 398.67Z" fill="#FABF4B"/>
<path d="M264.057 326.523C264.61 326.892 265.506 326.799 266.471 326.509C270.126 325.38 273.715 323.37 277.327 321.371C279.246 320.305 280.133 318.822 279.893 316.756C279.591 314.321 278.172 315.084 276.409 316.211C273.463 318.12 270.506 320.077 267.438 320.953C266.068 321.337 264.926 322.427 264.084 323.954C263.588 324.872 263.327 325.809 264.057 326.523Z" fill="#FABF4B"/>
<path d="M45.6905 422.497C42.7951 426.226 41.1252 430.547 38.862 434.632C38.5872 435.153 38.3923 435.74 38.3137 436.287C38.1206 437.722 37.7234 439.533 38.9074 439.873C40.2358 440.233 41.3874 438.484 42.1238 437.131C44.4815 432.889 46.6256 428.566 48.9444 424.303C50.0051 422.378 50.2675 421.058 48.8048 420.395C47.4737 419.775 46.4863 420.664 45.6905 422.497Z" fill="#FABF4B"/>
<path d="M382.526 102.471C381.929 103.439 381.379 104.302 380.868 105.186C380.245 106.292 379.676 107.479 380.495 108.135C381.216 108.718 381.984 109.224 383.352 107.814C386.133 104.949 389.03 102.218 391.828 99.3832C393.013 98.1617 393.737 96.8047 393.531 95.2379C393.268 93.2079 392.527 92.2801 390.428 94.3822C387.735 97.0382 385.113 99.8112 382.526 102.471Z" fill="#FABF4B"/>
<path d="M324.174 278.72C325.847 274.48 329.079 269.981 331.776 265.199C332.238 264.395 332.3 263.351 332.408 262.463C332.516 261.519 332.292 260.689 331.441 260.704C330.822 260.713 330.173 261.422 329.756 262.148C326.666 267.438 323.578 272.728 320.582 278.066C319.807 279.45 319.003 281.385 320.241 281.953C321.464 282.492 322.605 280.788 324.174 278.72Z" fill="#FABF4B"/>
<path d="M127.276 345.002C126.855 344.884 126.23 344.58 125.538 344.475C121.743 343.922 117.549 345.921 113.463 347.416C112.354 347.832 110.673 348.769 110.686 350.718C110.709 352.703 112.053 351.922 113.424 351.362C117.589 349.675 121.545 349.395 125.54 348.878C126.564 348.747 127.589 349.413 128.378 347.473C128.972 346.068 128.081 345.677 127.276 345.002Z" fill="#FABF4B"/>
<path d="M178.939 345.514C175.865 343.344 171.827 343.585 168.312 342.743C167.277 342.506 166.455 343.354 166.04 344.699C165.569 346.189 165.034 347.881 166.749 347.883C170.198 347.9 173.05 349.236 176.215 349.87C177.299 350.079 178.49 350.728 179.605 348.805C180.683 346.938 179.395 346.366 178.939 345.514Z" fill="#FABF4B"/>
<path d="M363.315 131.962C361.097 135.969 358.635 139.796 357.031 143.895C356.247 145.913 356.13 147.693 358.192 147.676C359.962 147.681 360.415 146.1 360.83 144.554C361.739 141.27 363.986 138.479 365.516 135.418C365.698 135.052 365.974 134.737 366.236 134.414C367.822 132.405 368.686 130.223 367.221 129.094C365.494 127.756 364.643 131.176 363.315 131.962Z" fill="#FABF4B"/>
<path d="M196.151 346.746C199.391 348.136 203.238 347.924 207.354 346.907C208.307 346.664 208.93 345.915 209.094 344.877C209.304 343.551 209.262 341.919 208.245 341.951C204.599 342.061 201.176 341.065 197.13 342.989C195.315 343.829 194.858 345.74 196.151 346.746Z" fill="#FABF4B"/>
<path d="M30.1386 475.881C31.0723 476.112 32.0694 475.763 32.4134 474.306C33.5498 469.376 34.9166 464.387 34.7561 459.749C34.7126 458.5 33.8725 457.675 32.7202 458.044C31.2771 458.492 31.0155 460.195 30.9338 461.329C30.6448 465.4 28.8696 469.867 29.4918 473.701C29.6357 474.492 29.603 475.369 30.1386 475.881Z" fill="#FABF4B"/>
<path d="M302.477 304.529C304.208 302.544 306.126 300.712 306.218 297.942C306.284 295.778 305.281 295.281 303.673 297.15C300.792 300.477 298.189 304.128 295.202 307.399C294.26 308.416 293.195 310.287 294.198 311.373C295.029 312.271 296.199 311.017 297.264 310.32C299.417 308.889 300.785 306.483 302.477 304.529Z" fill="#FABF4B"/>
<path d="M351.955 181.884C353.012 180.467 354.656 170.637 353.983 169.619C353.138 168.332 351.865 168.79 350.959 170.569C349.208 174.027 348.217 177.599 348.349 180.843C348.425 183.184 350.71 183.586 351.955 181.884Z" fill="#FABF4B"/>
<path d="M349.553 215.695C350.414 216.047 351.145 216.145 351.949 215.44C352.84 214.656 353.665 213.628 353.6 212.444C353.408 208.889 353.191 205.374 352.91 201.877C352.836 201.094 352.597 200.23 351.644 200.445C350.677 200.683 350.296 201.788 349.849 202.654C349.16 203.954 348.653 205.453 348.937 206.445C349.556 208.611 349.229 211.127 349.191 213.539C349.182 214.375 349.451 215.104 349.553 215.695Z" fill="#FABF4B"/>
<path d="M415.212 75.0967C414.311 76.3653 413.264 77.5044 413.67 78.7912C414.045 79.9832 415.108 80.0282 416.277 79.3902C418.759 78.0549 421.399 77.1324 423.484 74.2865C424.361 73.0819 424.964 71.8092 424.515 70.6532C424.065 69.5239 423.054 69.4287 421.859 70.1339C419.532 71.5013 417.173 72.927 415.212 75.0967Z" fill="#FABF4B"/>
<path d="M33.0631 503.681C34.3522 503.843 34.9631 505.316 36.5142 503.952C38.3342 502.344 37.3148 501.35 37.0087 500.246C36.3636 497.861 36.0629 495.25 35.0584 493.11C34.5217 492.013 33.6739 491.67 32.4925 492.534C31.5176 493.253 31.1906 494.567 31.3867 495.589C31.9162 498.347 32.5188 501.068 33.0631 503.681Z" fill="#FABF4B"/>
<path d="M341.743 235.936C338.75 240.331 337.917 244.165 337.014 247.966C336.586 249.71 336.695 251.353 338.518 251.029C340 250.78 341.023 249.217 341.27 247.687C341.887 243.865 343.697 239.543 341.743 235.936Z" fill="#FABF4B"/>
<path d="M153.116 346.271C151.634 341.38 147.683 341.562 144.002 341.35C143.392 341.313 142.811 342.109 142.438 342.883C141.674 344.452 142.578 345.057 143.266 345.107C146.417 345.298 148.842 347.259 153.116 346.271Z" fill="#FABF4B"/>
</svg>
