<svg width="266" height="232" viewBox="0 0 266 232" fill="none" xmlns="http://www.w3.org/2000/svg">
<path d="M150.223 109.872C151.431 110.057 152.532 111.013 153.941 110.172C158.712 107.348 163.445 106.185 168.186 104.116C169.991 103.325 171.209 102.129 171.005 99.8095C170.83 98 169.561 98.4309 168.326 98.6294C164.18 99.3023 160.104 103.054 155.945 104.246C154.296 104.731 152.528 105.215 150.915 106.658C149.738 107.703 149.22 108.886 150.223 109.872Z" fill="#FABF4B"/>
<path d="M23.0251 137.405C15.6843 137.908 9.53523 144.634 3.14672 149.869C1.28471 151.4 1.05696 153.507 1.61206 154.939C2.14981 156.339 3.74598 155.46 4.8394 154.279C10.1554 148.626 16.1002 144.657 21.7082 139.82C22.3136 139.296 22.8094 138.72 23.0251 137.405Z" fill="#FABF4B"/>
<path d="M186.683 93.3936C187.259 93.7243 188.147 93.5719 189.09 93.2172C192.662 91.8457 196.107 89.5997 199.578 87.363C201.42 86.1707 202.205 84.6314 201.828 82.5862C201.363 80.177 199.999 81.034 198.315 82.2759C195.504 84.3781 192.684 86.53 189.683 87.6089C188.341 88.084 187.275 89.2488 186.538 90.8289C186.104 91.7776 185.907 92.7296 186.683 93.3936Z" fill="#FABF4B"/>
<path d="M243.458 41.6661C244.842 37.3233 247.765 32.6176 250.136 27.6662C250.542 26.8326 250.535 25.7868 250.583 24.8939C250.627 23.9449 250.349 23.1315 249.5 23.2033C248.884 23.2537 248.283 24.0045 247.916 24.7574C245.188 30.2421 242.461 35.728 239.83 41.2547C239.15 42.6874 238.477 44.6723 239.751 45.1555C241.007 45.6112 242.031 43.8343 243.458 41.6661Z" fill="#FABF4B"/>
<path d="M51.4488 121.005C51.0213 120.915 50.3766 120.653 49.6791 120.595C45.8561 120.298 41.8054 122.574 37.8295 124.34C36.7507 124.829 35.1361 125.876 35.2794 127.82C35.436 129.799 36.7239 128.93 38.0549 128.279C42.0972 126.317 46.026 125.772 49.9771 124.988C50.9895 124.789 52.057 125.385 52.7141 123.396C53.2127 121.954 52.2976 121.624 51.4488 121.005Z" fill="#FABF4B"/>
<path d="M103.03 118.05C99.8174 116.092 95.8041 116.602 92.2408 115.999C91.1922 115.831 90.4294 116.733 90.1052 118.102C89.7351 119.621 89.3145 121.345 91.0264 121.232C94.4682 121.017 97.4034 122.159 100.604 122.58C101.7 122.715 102.932 123.283 103.915 121.29C104.866 119.355 103.542 118.87 103.03 118.05Z" fill="#FABF4B"/>
<path d="M120.286 118.125C123.612 119.295 127.436 118.825 131.475 117.535C132.409 117.229 132.981 116.439 133.075 115.392C133.196 114.056 133.044 112.43 132.031 112.53C128.401 112.885 124.919 112.121 121.012 114.312C119.257 115.271 118.929 117.208 120.286 118.125Z" fill="#FABF4B"/>
<path d="M223.541 68.8719C225.135 66.7757 226.926 64.8184 226.831 62.0489C226.753 59.8855 225.718 59.4569 224.239 61.4294C221.588 64.9422 219.236 68.7594 216.475 72.2239C215.604 73.3015 214.666 75.2398 215.739 76.2558C216.629 77.0965 217.712 75.766 218.729 74.9993C220.78 73.4271 221.984 70.9349 223.541 68.8719Z" fill="#FABF4B"/>
<path d="M258.118 -2.19995C255.427 2.38545 254.853 6.26693 254.206 10.1204C253.897 11.8889 254.116 13.5213 255.913 13.0753C257.375 12.7272 258.29 11.0999 258.434 9.55619C258.793 5.70156 260.309 1.26746 258.118 -2.19995Z" fill="#FABF4B"/>
<path d="M77.3159 120.538C75.509 115.757 71.5799 116.203 67.8923 116.239C67.2812 116.243 66.7557 117.076 66.435 117.873C65.7779 119.49 66.7208 120.033 67.4102 120.037C70.5673 120.016 73.1178 121.81 77.3159 120.538Z" fill="#FABF4B"/>
</svg>
