<svg width="51" height="52" viewBox="0 0 51 52" fill="none" xmlns="http://www.w3.org/2000/svg">
<ellipse cx="29.5583" cy="26.8364" rx="19.5148" ry="24.3936" fill="white"/>
<path d="M47.1822 11.6027C39.641 0.00303452 24.2443 -3.44553 12.304 3.76511C0.677988 10.9757 -3.09262 26.651 4.4486 38.2507L5.07703 39.1913L2.56329 48.5964L11.9898 46.0884L12.9325 46.7154C17.0173 48.9099 21.4163 50.164 25.8154 50.164C30.5287 50.164 35.2419 48.9099 39.3267 46.4019C50.9528 38.8778 54.4092 23.516 47.1822 11.6027ZM40.5836 35.7427C39.3267 37.6237 37.7557 38.8778 35.5561 39.1913C34.2993 39.1913 32.7282 39.8183 26.4438 37.3102C21.1021 34.8022 16.7031 30.7266 13.5609 26.024C11.6756 23.8295 10.7329 21.0079 10.4187 18.1864C10.4187 15.6783 11.3614 13.4838 12.9325 11.9163C13.5609 11.2892 14.1893 10.9757 14.8178 10.9757H16.3889C17.0173 10.9757 17.6457 10.9757 17.96 12.2298C18.5884 13.7973 20.1595 17.5594 20.1595 17.8729C20.4737 18.1864 20.4737 18.8134 20.1595 19.1269C20.4737 19.7539 20.1595 20.3809 19.8453 20.6944C19.531 21.0079 19.2168 21.6349 18.9026 21.9484C18.2742 22.2619 17.96 22.889 18.2742 23.516C19.531 25.397 21.1021 27.278 22.6732 28.8456C24.5585 30.4131 26.4438 31.6671 28.6433 32.6076C29.2718 32.9211 29.9002 32.9211 30.2144 32.2941C30.5287 31.6671 32.0997 30.0996 32.7282 29.4726C33.3566 28.8456 33.6708 28.8456 34.2993 29.1591L39.3267 31.6671C39.9552 31.9806 40.5836 32.2941 40.8978 32.6076C41.2121 33.5482 41.2121 34.8022 40.5836 35.7427Z" fill="#6EBF63"/>
</svg>
