<svg width="269" height="207" viewBox="0 0 269 207" fill="none" xmlns="http://www.w3.org/2000/svg">
<ellipse rx="134.5" ry="10.5" transform="matrix(-1 0 0 1 134.5 196.5)" fill="#7D7D7D"/>
<path d="M100.082 86.1729C102.157 87.553 104.232 88.9331 106.267 90.2778C98.526 95.8337 93.0995 102.274 85.3589 107.795C84.122 108.679 82.8053 109.67 82.2866 111.015C81.5684 112.891 82.6457 114.908 83.5235 116.748C86.9948 124.002 88.0721 132.142 86.5559 139.891C89.8676 140.811 94.0971 139.785 97.1694 138.37C100.242 136.954 102.875 134.866 105.429 132.778C102.995 127.329 100.92 121.773 98.4861 116.323C117.558 118.765 133.798 102.168 135.074 95.0552C139.862 95.9045 144.73 96.1522 149.638 95.7983C135.872 87.6237 117.478 86.2436 100.082 86.1729Z" fill="#C8A837"/>
<path d="M170.096 99.7025C168.028 99.3109 160.075 107.89 158.086 107.214C167.392 123.625 183.379 136.619 201.91 144.949C199.166 158.691 201.632 173.535 209.227 185.71C208.512 187.918 207.478 190.766 206.722 192.973C206.603 193.4 206.444 193.827 206.523 194.254C206.722 195.571 208.591 195.999 210.102 195.999C217.698 196.07 225.294 192.973 230.265 187.811C230.821 187.241 231.378 186.6 231.537 185.853C231.855 184.322 230.583 182.934 229.231 181.972C227.878 181.011 226.288 180.157 225.572 178.769C220.959 176.49 218.891 171.577 218.175 166.878C217.42 162.215 218.096 157.445 218.175 152.71C218.255 147.975 217.618 143.027 214.596 139.146C210.619 133.985 202.825 131.172 200.876 125.12C199.604 121.276 199.604 117.431 200.081 113.551C188.071 113.479 181.867 101.803 170.096 99.7025Z" fill="#C8A837"/>
<path d="M130.547 52.027C122.574 48.4839 116.554 42.2125 111.65 35.6223C106.747 28.9966 102.72 21.9104 97.4177 15.5327C92.1153 9.15511 85.298 3.41522 76.8063 1.04132C68.3146 -1.33258 57.989 0.297275 52.4076 6.49776C40.0089 5.29309 29.484 4.40731 17.0056 4.54903C16.8062 14.9304 21.989 25.4181 30.5205 32.4689C39.0521 39.5552 51.0522 43.2046 62.6934 42.2834C70.9459 55.393 78.401 69.3884 85.298 83.1003C75.4907 84.6593 67.278 87.9898 57.4707 89.5134C55.876 89.7614 54.2016 90.0448 53.0455 91.0015C51.4109 92.3479 51.2116 94.58 51.0123 96.5642C50.1352 104.43 46.6269 112.012 41.0853 118.177C43.5172 120.374 47.7432 121.295 51.2116 121.402C54.68 121.472 58.1086 120.764 61.4973 120.055C62.3346 114.244 63.5306 108.469 64.3678 102.658C79.7565 112.969 102.959 105.351 107.943 99.6467C124.448 112.119 150.082 114.634 169.976 107.016C181.617 125.582 202.069 138.621 224.833 145.141C224.434 159.03 229.418 173.308 239.066 184.257C238.707 186.524 238.189 189.465 237.83 191.733C237.75 192.158 237.71 192.619 237.83 193.008C238.268 194.284 240.182 194.426 241.657 194.248C249.192 193.256 256.169 189.217 260.235 183.477C260.674 182.839 261.112 182.131 261.152 181.351C261.232 179.828 259.717 178.588 258.242 177.844C256.727 177.064 255.013 176.462 254.096 175.186C249.152 173.556 246.282 169.021 244.727 164.522C243.212 160.022 243.052 155.238 242.295 150.597C241.537 145.955 240.062 141.137 236.434 137.735C231.611 133.2 223.438 131.464 220.448 125.83C215.106 115.697 219.411 104.43 217.697 93.3754C215.225 77.2541 200.554 63.7548 183.172 58.5818C166.866 53.6569 145.936 58.8653 130.547 52.027Z" fill="#FFD84F"/>
<path d="M184.276 79.8422C197.996 72.9774 209.29 62.4161 216.329 49.9538C223.368 37.4915 226.032 23.1282 223.964 9.29297C231.997 10.6659 238.36 16.2282 240.786 23.1282C243.172 30.0634 240.905 38.09 235.139 43.1946C236.929 43.7578 238.042 45.2364 238.479 46.8558C238.917 48.4752 238.599 50.2002 238.042 51.8196C236.571 56.0441 233.19 59.7054 228.816 61.8176C232.952 66.8518 231.003 73.8575 226.112 78.2932C221.22 82.7641 214.221 84.8411 207.421 86.4605C203.285 87.4463 198.95 88.3264 194.735 87.5871C190.519 86.8478 184.833 83.609 184.276 79.8422Z" fill="#FFD84F"/>
<path d="M82.8876 3.63239C81.3306 11.2417 80.5322 19.0634 81.9294 26.6727C83.3267 34.2821 87.1193 41.7498 93.6265 46.8817C100.094 52.049 109.475 54.5972 117.859 52.4737C120.015 39.3786 115.304 25.9649 106.88 15.0287C104.286 11.6664 101.212 8.51651 97.2993 6.35758C93.4269 4.16326 87.3987 2.78298 82.8876 3.63239Z" fill="#FF984B"/>
<path d="M19.7988 18.5867C23.9427 16.0375 27.7281 12.7125 29.4813 8.427C29.9993 7.13395 30.318 5.84091 30.5172 4.47398C26.1342 4.25231 21.7114 4.17843 17.0096 4.25232C16.8901 9.09202 17.8862 14.0056 19.7988 18.5867Z" fill="#666666"/>
<path d="M69.4201 17.6252C69.1077 17.6252 68.8496 17.4136 68.8224 17.1355C68.6526 15.1402 67.4641 13.4955 65.5693 12.6309C63.6473 11.7542 61.3043 11.8751 59.3076 12.9574C59.0224 13.1146 58.6557 13.03 58.4859 12.776C58.3093 12.5281 58.4044 12.2016 58.6828 12.0444C61.0394 10.7686 63.8171 10.6356 66.1194 11.6816C68.3606 12.7035 69.8208 14.7109 70.0177 17.0508C70.0449 17.3471 69.8004 17.6011 69.4676 17.6252C69.454 17.6252 69.4336 17.6252 69.4201 17.6252Z" fill="#592423"/>
</svg>
