<svg width="279" height="312" viewBox="0 0 279 312" fill="none" xmlns="http://www.w3.org/2000/svg">
<path d="M164.704 227.744C165.92 227.859 167.075 228.75 168.432 227.829C173.032 224.734 177.69 223.3 182.304 220.96C184.061 220.066 185.207 218.802 184.869 216.498C184.59 214.701 183.349 215.205 182.127 215.474C178.026 216.386 174.174 220.367 170.091 221.797C168.473 222.376 166.735 222.962 165.208 224.496C164.094 225.606 163.645 226.817 164.704 227.744Z" fill="#FABF4B"/>
<path d="M39.3083 262.578C32.0088 263.504 26.2585 270.574 20.1831 276.169C18.4126 277.806 18.3069 279.922 18.9438 281.32C19.5615 282.686 21.1043 281.717 22.1277 280.475C27.1082 274.524 32.8139 270.218 38.1331 265.065C38.7072 264.507 39.1689 263.903 39.3083 262.578Z" fill="#FABF4B"/>
<path d="M7.67275 306.07C8.72162 304.091 9.83762 302.111 10.7966 300.075C11.5548 298.424 11.5391 297.11 10.3378 296.397C9.22277 295.713 8.26191 296.032 7.12682 297.642C4.26475 301.653 2.17069 306.047 0.588471 310.707C0.14244 312.063 -0.0284484 313.499 1.01783 314.035C2.08206 314.577 3.08211 313.645 3.87272 312.367C5.15101 310.279 6.33941 308.135 7.58287 306.012C7.61242 306.023 7.6432 306.06 7.67275 306.07Z" fill="#FABF4B"/>
<path d="M200.151 209.187C200.745 209.484 201.623 209.28 202.544 208.872C206.03 207.296 209.34 204.855 212.676 202.422C214.446 201.125 215.141 199.543 214.647 197.523C214.043 195.144 212.731 196.079 211.122 197.416C208.436 199.677 205.746 201.988 202.811 203.239C201.5 203.79 200.503 205.015 199.858 206.635C199.48 207.607 199.338 208.569 200.151 209.187Z" fill="#FABF4B"/>
<path d="M253.844 154.266C254.975 149.851 257.621 144.984 259.701 139.904C260.059 139.048 259.991 138.005 259.988 137.11C259.977 136.16 259.652 135.365 258.809 135.485C258.196 135.571 257.64 136.355 257.318 137.128C254.91 142.761 252.505 148.396 250.198 154.065C249.601 155.535 249.044 157.555 250.344 157.964C251.625 158.346 252.544 156.513 253.844 154.266Z" fill="#FABF4B"/>
<path d="M66.7376 244.563C66.3056 244.499 65.6469 244.275 64.9472 244.257C61.1134 244.181 57.2009 246.687 53.3337 248.68C52.285 249.23 50.7335 250.369 50.9889 252.302C51.2595 254.268 52.4951 253.326 53.7863 252.599C57.7085 250.407 61.5992 249.636 65.4984 248.625C66.4977 248.368 67.5978 248.901 68.1389 246.877C68.5534 245.409 67.6207 245.133 66.7376 244.563Z" fill="#FABF4B"/>
<path d="M118.061 238.634C114.741 236.865 110.764 237.606 107.172 237.209C106.116 237.103 105.406 238.047 105.162 239.433C104.88 240.97 104.56 242.715 106.262 242.504C109.686 242.091 112.682 243.061 115.902 243.296C117.004 243.369 118.266 243.864 119.133 241.817C119.97 239.83 118.621 239.423 118.061 238.634Z" fill="#FABF4B"/>
<path d="M274.394 3.77489C272.693 8.02699 270.727 12.1315 269.646 16.3976C269.119 18.498 269.225 20.2785 271.269 20.0049C273.026 19.7898 273.279 18.1641 273.498 16.5782C273.991 13.2071 275.872 10.1581 277.009 6.92992C277.144 6.54375 277.378 6.19738 277.598 5.84415C278.922 3.65267 279.507 1.38081 277.912 0.443218C276.032 -0.669652 275.614 2.8298 274.394 3.77489Z" fill="#FABF4B"/>
<path d="M135.294 237.712C138.682 238.688 142.472 237.998 146.43 236.477C147.344 236.117 147.869 235.296 147.903 234.245C147.946 232.904 147.701 231.29 146.696 231.448C143.092 232.012 139.572 231.45 135.797 233.863C134.101 234.922 133.885 236.875 135.294 237.712Z" fill="#FABF4B"/>
<path d="M235.531 182.577C237.001 180.392 238.676 178.335 238.422 175.575C238.218 173.42 237.161 173.052 235.798 175.107C233.354 178.767 231.227 182.713 228.671 186.332C227.863 187.458 227.039 189.447 228.169 190.399C229.106 191.187 230.11 189.796 231.081 188.972C233.038 187.284 234.095 184.727 235.531 182.577Z" fill="#FABF4B"/>
<path d="M269.343 54.7237C270.215 53.1853 270.621 43.2274 269.827 42.301C268.828 41.1299 267.622 41.7423 266.945 43.6208C265.638 47.2704 265.1 50.9372 265.635 54.1394C266.003 56.4536 268.32 56.567 269.343 54.7237Z" fill="#FABF4B"/>
<path d="M271.172 88.5706C272.07 88.8123 272.807 88.8183 273.518 88.0186C274.304 87.1299 274.995 86.0071 274.783 84.8404C274.149 81.3367 273.496 77.8763 272.782 74.442C272.61 73.6738 272.265 72.8467 271.347 73.1785C270.417 73.5348 270.177 74.679 269.841 75.5938C269.32 76.9696 269.003 78.5203 269.408 79.4689C270.292 81.5411 270.282 84.0786 270.544 86.4763C270.64 87.3069 270.997 87.9966 271.172 88.5706Z" fill="#FABF4B"/>
<path d="M265.945 109.627C263.523 114.36 263.174 118.268 262.751 122.152C262.544 123.936 262.857 125.553 264.625 125.004C266.065 124.572 266.885 122.894 266.939 121.345C267.075 117.476 268.333 112.962 265.945 109.627Z" fill="#FABF4B"/>
<path d="M92.5342 242.603C90.4542 237.935 86.5573 238.607 82.878 238.855C82.2681 238.895 81.7916 239.757 81.5175 240.572C80.9549 242.223 81.9275 242.711 82.6161 242.676C85.7667 242.472 88.4166 244.116 92.5342 242.603Z" fill="#FABF4B"/>
</svg>
