<svg width="39" height="36" viewBox="0 0 39 36" fill="none" xmlns="http://www.w3.org/2000/svg">
<path d="M17.2179 21.1485H20.5749C21.3079 21.1485 21.9021 21.7454 21.9021 22.4779C21.8985 22.7866 21.7902 23.0885 21.5898 23.326L19.2817 26.0902L20.2182 27.2742C21.7222 29.1703 24.4782 29.489 26.3757 27.9831C26.858 27.6033 27.255 27.1214 27.5402 26.5752C27.6285 26.4057 27.8389 26.3413 28.0084 26.4297C28.1784 26.5213 28.2464 26.728 28.158 26.8975C26.8611 29.3838 23.796 30.347 21.3079 29.0515C20.6733 28.7225 20.1166 28.2646 19.6751 27.7048L18.8266 26.6332L17.9477 27.6812C16.1417 29.828 12.9406 30.1095 10.792 28.3054C10.2454 27.8472 9.80069 27.281 9.48837 26.6364C9.40361 26.4669 9.4716 26.2566 9.64476 26.1718C9.81791 26.087 10.0246 26.1582 10.113 26.3277V26.3345C11.1723 28.5085 13.796 29.4178 15.9718 28.3594C16.5284 28.0915 17.0175 27.7085 17.4146 27.2366L18.3855 26.0802L16.1757 23.2989C15.7206 22.7223 15.819 21.8914 16.3929 21.4367C16.6272 21.2504 16.9191 21.1485 17.2179 21.1485ZM26.746 14.4869C28.5111 14.4089 30.0387 15.7081 30.2422 17.465C30.259 17.655 30.1166 17.8245 29.9231 17.8381C29.7431 17.8549 29.5804 17.7261 29.5532 17.543C29.3832 16.0775 28.056 15.0263 26.5896 15.1922C25.3539 15.335 24.3766 16.3082 24.2375 17.543C24.2135 17.7361 24.0403 17.8721 23.8504 17.8481C23.6604 17.8281 23.5245 17.655 23.5449 17.465C23.7384 15.8232 25.0892 14.5617 26.746 14.4869ZM11.4878 14.4869C13.141 14.5617 14.4986 15.8232 14.689 17.465C14.7094 17.655 14.5734 17.8281 14.3834 17.8481C14.1931 17.8721 14.0199 17.7361 13.9963 17.543C13.8268 16.0775 12.4996 15.0263 11.0296 15.199C9.79752 15.3418 8.82657 16.3119 8.68061 17.543C8.67064 17.7361 8.50746 17.882 8.3139 17.8721C8.12397 17.8617 7.97801 17.6957 7.98799 17.5058C7.98799 17.4922 7.99161 17.4786 7.99161 17.465C8.19514 15.7081 9.72272 14.4089 11.4878 14.4869ZM6.9155 0.000708125C6.55922 -0.0128906 6.22288 0.170238 6.03975 0.475302C4.11826 3.68051 3.36489 7.45233 3.90793 11.1462C3.94556 11.3937 3.87394 11.6412 3.71438 11.8311C0.119796 16.1047 -0.956312 21.9521 0.883588 27.2234C1.67775 29.4921 3.2765 31.3919 5.38112 32.5586C14.2511 37.4768 25.1132 37.1001 33.6197 31.5782C35.7515 30.1979 37.2587 28.0439 37.8289 25.5712C38.949 20.7278 37.7237 15.6369 34.5226 11.8311C34.3631 11.6412 34.2919 11.3937 34.3291 11.1462C34.8721 7.45233 34.1187 3.68051 32.1972 0.475302C31.9565 0.0786738 31.4711 -0.0976556 31.0332 0.0582758C28.3411 1.00429 26.135 2.97519 24.8893 5.53582C24.7162 5.8921 24.3223 6.08883 23.932 6.00724C20.7549 5.36992 17.4826 5.36992 14.305 6.00724C13.9184 6.08521 13.5245 5.8921 13.3513 5.53582C12.1057 2.97519 9.89588 1.00429 7.20742 0.0582758C7.11586 0.0242791 7.01749 0.00388118 6.91868 0.000708125H6.9155Z" fill="#FD8344"/>
</svg>
