<svg width="177" height="174" viewBox="0 0 177 174" fill="none" xmlns="http://www.w3.org/2000/svg">
<path d="M93.9625 17.303C93.94 17.2701 93.6202 16.3712 93.2086 15.1998C91.9286 11.5638 90.953 7.82511 90.2937 4.02692L89.7804 1.07335C89.5663 -0.15807 87.9041 -0.401117 87.3464 0.717154L83.5425 8.34586C82.5247 10.3878 82.2158 12.711 82.6644 14.9475L83.7238 20.2283L93.9625 17.303Z" fill="#6D573E"/>
<path d="M84.371 15.5934C84.0968 13.7945 84.2884 11.8997 84.9108 10.2578L87.104 4.46727L87.2276 5.39732C87.7408 9.29019 88.5069 13.1559 89.5045 16.8872L89.7499 17.8132L84.9627 19.167L84.371 15.5934Z" fill="#EFC9A3"/>
<path d="M102.74 18.687C107.321 14.6492 111.68 10.3574 115.789 5.83871C116.981 4.52762 119.16 5.1592 119.47 6.90444L120.433 12.3261C120.966 15.327 120.295 18.4168 118.564 20.9247L112.668 29.4673L102.74 18.687Z" fill="#6D573E"/>
<path d="M106.247 20.0798C110.327 16.3947 114.257 12.4793 117.949 8.41846L118.058 8.36304C118.104 8.36304 118.212 8.37689 118.235 8.5039L119.198 13.9249C119.644 16.4317 119.092 18.9661 117.647 21.0612L113.151 27.5757L106.247 20.0798Z" fill="#EFC9A3"/>
<path d="M107.02 56.7869V43.8878C107.02 42.7153 105.625 42.1039 104.762 42.8983C102.606 44.8848 100.093 46.4442 97.3562 47.4949L81.8823 53.435L81.8863 53.4546L78.2717 66.8819C77.2833 70.5565 74.3754 73.4027 70.6811 74.3143L56.699 77.7609L55.6257 94.6106L115.965 93.6511L109.112 70.9572C107.725 66.3612 107.02 61.5867 107.02 56.7869Z" fill="#6D573E"/>
<path d="M114.293 64.0774V31.8398C114.293 28.425 112.716 25.2012 110.021 23.1038L102.974 17.6216C100.47 15.6737 97.1762 15.0623 94.1395 15.9826L85.3838 18.6348C83.272 19.2744 81.5031 20.7322 80.4714 22.6829L76.6692 29.8729L81.8824 53.4345L97.8245 47.3149C100.427 46.3161 102.684 44.6737 104.803 42.862C105.668 42.1225 107.02 42.7333 107.02 43.8873V56.7858C107.02 61.5863 107.725 66.3607 109.112 70.9567L115.965 93.6506L128.278 93.4549L114.293 64.0774Z" fill="#A68359"/>
<path d="M76.6691 29.8726L62.6091 35.957C59.883 37.1359 58.7382 40.385 60.1214 43.013L62.0947 46.7633C63.5178 49.4669 66.1602 51.316 69.1877 51.7276L81.846 53.4481C84.8954 53.8626 87.9633 52.8309 90.1427 50.6579L98.732 42.0956C99.7389 41.0917 99.3417 39.3782 97.9948 38.921C97.634 38.7986 97.2448 38.7859 96.8771 38.8857C94.2867 39.586 91.5311 38.6317 89.9285 36.4795L86.8687 32.3712C85.9981 31.2027 85.6857 29.711 86.0142 28.2913L87.5967 21.4564C87.7323 20.871 86.9264 20.5674 86.6423 21.0968L83.504 26.9387C82.7374 28.3658 81.3212 29.3288 79.7122 29.517L76.6691 29.8726Z" fill="#EFC9A3"/>
<path d="M86.1841 44.1845C86.0963 43.9859 85.8642 43.8964 85.6645 43.9847L80.946 46.0861C76.8788 47.8984 72.1875 47.9607 68.0735 46.2582L66.3 45.525L65.6545 43.6989L65.6851 42.236C65.6898 42.0189 65.5171 41.8388 65.3001 41.8342C65.0905 41.8342 64.9023 42.0022 64.8977 42.2198L64.8642 43.8259L65.5333 45.7184L65.3468 45.9055C64.8423 46.41 64.03 46.4325 63.4988 45.9562L62.3615 44.9373C62.1993 44.7924 61.9504 44.8062 61.8055 44.9679C61.6606 45.1301 61.6739 45.3789 61.8361 45.5238L62.9729 46.5422C63.3787 46.906 63.8874 47.0866 64.3954 47.0866C64.9427 47.0866 65.4883 46.8771 65.9034 46.462L66.08 46.2859L67.7722 46.9862C69.8569 47.8487 72.0824 48.2788 74.3074 48.2788C76.686 48.2788 79.064 47.7869 81.2664 46.8061L85.9849 44.704C86.1835 44.6163 86.273 44.3831 86.1841 44.1845Z" fill="#402C49"/>
<path d="M65.2593 43.7637C63.3288 43.1725 61.7203 41.5883 61.0362 39.6895C60.7891 39.0048 61.2273 38.2537 61.9449 38.1313C64.8633 37.6337 67.904 37.8583 70.719 38.7739C71.5556 39.0464 71.8067 40.1121 71.1867 40.7362C69.2526 42.6835 66.7609 43.5807 65.2593 43.7637Z" fill="#402C49"/>
<path d="M97.6131 29.4676C97.6131 30.7117 96.6051 31.7197 95.3615 31.7197C94.118 31.7197 93.1094 30.7117 93.1094 29.4676C93.1094 28.2241 94.118 27.2155 95.3615 27.2155C96.6051 27.2155 97.6131 28.2241 97.6131 29.4676Z" fill="#402C49"/>
<path d="M99.8312 24.5381C100.235 24.6287 100.691 24.7142 101.048 24.5237C101.582 24.2391 101.548 23.5347 101.31 23.0249C100.866 22.0758 99.9351 21.3144 98.8301 20.9957C97.7245 20.677 96.4642 20.8069 95.4718 21.3415C94.5037 21.8634 93.7151 23.1121 95.1659 23.4903C96.701 23.8904 98.2799 24.19 99.8312 24.5381Z" fill="#6D573E"/>
<path d="M82.9298 26.1929C82.9298 27.2962 82.3641 28.1904 81.6661 28.1904C80.9681 28.1904 80.4023 27.2962 80.4023 26.1929C80.4023 25.0896 80.9681 24.1948 81.6661 24.1948C82.3641 24.1948 82.9298 25.0896 82.9298 26.1929Z" fill="#402C49"/>
<path d="M85.5585 21.3636C85.7981 21.3371 86.0602 21.2932 86.1665 21.0542C86.3264 20.6951 86.036 20.142 85.7173 19.7933C85.1256 19.1455 84.36 18.7662 83.6788 18.783C82.9976 18.8003 82.4116 19.2131 82.1183 19.8834C81.832 20.538 81.9186 21.7273 82.7972 21.6725C83.7273 21.6148 84.6406 21.4664 85.5585 21.3636Z" fill="#6D573E"/>
<path d="M15.8611 95.2421L164.451 92.8797L157.101 135.672L156.313 174H18.7488L22.8184 141.316L22.1394 140.115C21.7688 139.458 21.7844 138.653 22.1804 138.013L23.6058 135.704L21.9126 134.652C20.8942 134.019 20.6915 132.621 21.4882 131.724L23.1134 129.896L15.8611 95.2421Z" fill="#ECAC64"/>
<path d="M157.1 135.671L76.6692 160.217L91.0433 159.608C99.9543 159.229 108.714 157.176 116.864 153.553L157.1 135.671Z" fill="#DC9243"/>
<path d="M39.5544 153.13L68.8916 156.477L56.911 158.866C52.5713 159.731 48.0647 158.833 44.3883 156.369L39.5544 153.13Z" fill="#DC9243"/>
<path d="M24.853 140.856L43.6235 139.281L35.8446 141.62C33.9285 142.196 31.8992 142.289 29.9386 141.89L24.853 140.856Z" fill="#DC9243"/>
<path d="M26.5596 129.502L38.8836 125.973C40.5896 125.484 42.3602 125.261 44.1344 125.309L58.3249 125.695L43.7799 129.057C42.4982 129.352 41.1877 129.502 39.872 129.502H26.5596Z" fill="#DC9243"/>
<path d="M22.4501 126.725L19.9163 114.618L22.4501 126.725Z" fill="#E8FAFA"/>
<path d="M22.4501 126.725L19.9163 114.618L35.8134 109.172L34.8284 110.634L36.1361 111.039L35.6165 112.635L36.4652 112.943L35.7475 114.801L36.8283 115.042L36.1084 116.901L37.1897 117.131L36.3382 118.837L37.5176 119.029L36.7648 120.675L37.8219 120.788L37.1591 122.119L38.0776 122.267L22.4501 126.725Z" fill="#F6D6B2"/>
<path d="M15.8613 95.2418L0 129.502L21.4197 121.803L15.8613 95.2418Z" fill="#DC9243"/>
<path d="M164.451 92.8795L176.79 127.402L159.578 121.252L164.451 92.8795Z" fill="#DC9243"/>
<path d="M10.0428 59.6061C13.367 61.1793 17.5676 65.7078 17.5676 65.7078L9.75759 79.8845C9.62654 74.1742 5.8855 69.745 5.8855 69.745L10.0428 59.6061Z" fill="#564B4A"/>
<path d="M10.0428 59.6064L5.8855 69.7453C5.8855 69.7453 6.91429 70.9657 7.9119 72.9482C9.85631 70.1621 11.6599 65.9783 10.0428 59.6064Z" fill="#402C49"/>
<path d="M10.0428 59.6059C9.93083 64.7654 8.06493 69.8707 4.82328 73.8865C4.21478 74.6411 3.40884 75.421 2.44299 75.3367C1.29239 75.2363 0.630779 73.9835 0.350779 72.8635C-0.230005 70.5381 -0.0862503 68.0377 0.757215 65.7948L10.0428 59.6059Z" fill="#564B4A"/>
<path d="M49.7628 50.3325C47.3196 53.0817 45.2268 58.893 45.2268 58.893L57.9631 68.8806C55.8489 63.575 57.5578 58.0351 57.5578 58.0351L49.7628 50.3325Z" fill="#564B4A"/>
<path d="M49.7625 50.3322L57.5574 58.0348C57.5574 58.0348 57.0875 59.5601 56.9461 61.7759C54.0658 59.9729 50.7687 56.8282 49.7625 50.3322Z" fill="#402C49"/>
<path d="M49.7625 50.3321C51.8853 55.0361 55.6009 59.0035 60.1554 61.4299C61.011 61.886 62.0582 62.2884 62.9132 61.8323C63.9328 61.2896 64.0517 59.8781 63.8704 58.7379C63.4952 56.3703 62.3838 54.1257 60.7292 52.392L49.7625 50.3321Z" fill="#564B4A"/>
<path d="M8.57827 79.8316L11.8967 70.6586C13.6437 65.8281 17.7421 62.2286 22.7573 61.1195L37.8473 57.782C42.471 56.759 47.3038 58.0539 50.7971 61.2523L60.3258 69.9756C62.3643 71.8421 63.015 74.7858 61.9539 77.3382L57.3607 88.3806C55.855 92.001 52.5481 94.5562 48.6651 95.1L27.0185 98.1327C23.4321 98.635 19.8262 97.3545 17.3616 94.7011L9.99097 86.7693C8.25785 84.904 7.71229 82.2264 8.57827 79.8316Z" fill="#C2B7AF"/>
<path d="M27.1355 68.659C27.9691 68.6105 28.8605 68.6278 29.5597 69.0844C30.5434 69.7264 30.8442 71.0352 30.8378 72.2101C30.8234 75.0014 29.4863 77.7575 27.3023 79.4964C26.4439 80.18 25.4445 80.7175 24.3615 80.893C23.2784 81.0685 22.1059 80.8508 21.248 80.1667C20.4565 79.5357 20.0004 78.5871 19.5703 77.6721C18.6448 75.7046 18.3354 73.4986 19.6459 71.6004C20.4282 70.4677 21.6596 69.7103 23.0007 69.4395C24.403 69.156 25.6754 68.7438 27.1355 68.659Z" fill="#847574"/>
<path d="M27.3137 74.7954C27.3137 76.1821 26.1896 77.3062 24.8029 77.3062C23.4168 77.3062 22.2927 76.1821 22.2927 74.7954C22.2927 73.4092 23.4168 72.2852 24.8029 72.2852C26.1896 72.2852 27.3137 73.4092 27.3137 74.7954Z" fill="#402C49"/>
<path d="M25.484 67.5896C26.1728 67.4464 26.9464 67.242 27.2801 66.6231C27.593 66.0429 27.3666 65.2803 26.8886 64.8271C26.4106 64.3733 25.7398 64.1805 25.0851 64.1106C23.6314 63.9548 22.1263 64.3479 20.9347 65.1937C20.0087 65.8501 18.9245 67.9256 20.6207 68.4227C21.209 68.5953 21.9727 68.3199 22.5449 68.201C23.5246 67.9972 24.5043 67.7934 25.484 67.5896Z" fill="#847574"/>
<path d="M40.3744 66.2524C39.5921 66.544 38.7839 66.9198 38.3278 67.6195C37.687 68.6044 37.9393 69.9224 38.419 70.9951C39.5581 73.5434 41.8939 75.5265 44.5935 76.2366C45.6546 76.5154 46.7861 76.6043 47.8478 76.3278C48.9101 76.0513 49.895 75.3793 50.4036 74.4076C50.8736 73.5116 50.9082 72.4592 50.933 71.4483C50.9855 69.2747 50.3794 67.1311 48.4142 65.9228C47.2416 65.2017 45.8093 65.0054 44.4734 65.2987C43.0757 65.6052 41.745 65.7415 40.3744 66.2524Z" fill="#847574"/>
<path d="M42.6873 71.9397C43.2468 73.2086 44.7287 73.7842 45.9971 73.2248C47.266 72.6654 47.8411 71.1834 47.2816 69.9144C46.7228 68.6461 45.2408 68.071 43.9719 68.6305C42.7035 69.1899 42.1285 70.6713 42.6873 71.9397Z" fill="#402C49"/>
<path d="M41.455 64.6077C40.7674 64.7543 39.9765 64.8802 39.4217 64.4483C38.9015 64.0431 38.801 63.2539 39.055 62.6465C39.3096 62.0386 39.8454 61.5918 40.417 61.2633C41.6842 60.5347 43.2198 60.2876 44.6516 60.5803C45.7635 60.8083 47.5925 62.2695 46.2415 63.4086C45.7727 63.8035 44.9622 63.8595 44.3907 63.9813C43.4127 64.1903 42.4335 64.3993 41.455 64.6077Z" fill="#847574"/>
<path d="M30.3928 77.1283L28.7826 77.7189C27.5425 78.1732 26.4508 78.9584 25.6258 79.9895C24.5745 81.3023 23.0989 82.2075 21.4524 82.5505L17.9763 83.2733C16.3835 83.6041 15.1567 84.8771 14.8836 86.4809C14.6729 87.7169 15.0614 88.9807 15.9315 89.8847L18.1513 92.1935C20.8589 95.0096 24.7691 96.3288 28.629 95.7295L47.0519 92.8683C51.0903 92.2414 54.5305 89.5995 56.1794 85.8602L57.5643 82.7167C58.3033 81.0414 57.9615 79.086 56.6989 77.7605C55.5564 76.5608 53.851 76.0799 52.2501 76.5054L50.8911 76.8662C49.1609 77.3263 47.3175 77.0607 45.787 76.1313C44.7582 75.506 43.577 75.1752 42.3727 75.1752H39.5543L30.3928 77.1283Z" fill="#DDD4BC"/>
<path d="M26.1794 89.2939C27.3254 89.4729 28.5026 89.3638 29.6024 88.9718C28.73 87.555 28.0113 86.0407 27.4923 84.4617C26.7366 85.9628 26.2932 87.6168 26.1794 89.2939Z" fill="white"/>
<path d="M50.3397 84.2609C49.3577 82.9365 48.1199 81.8009 46.7078 80.9505C47.1148 82.5786 47.314 84.2586 47.3284 85.938C48.3248 85.6701 49.2641 85.1852 50.0689 84.493L50.3397 84.2609Z" fill="white"/>
<path d="M54.4881 80.6938C54.3467 80.5292 54.0979 80.5107 53.9327 80.6522L49.8118 84.1946C48.1751 85.601 45.9507 86.1177 43.862 85.575L40.2041 84.6253C39.3468 84.4025 38.4669 84.3476 37.605 84.436L37.0889 80.8941C37.0571 80.6788 36.8545 80.531 36.6426 80.561C36.4272 80.5922 36.2777 80.7919 36.3089 81.0073L36.8262 84.5578C35.9088 84.7518 35.0249 85.1114 34.2305 85.646L30.9387 87.8629C28.8661 89.2583 26.129 89.3536 23.9658 88.1042L21.2426 86.5334C21.0538 86.4237 20.8136 86.4883 20.7045 86.6771C20.596 86.8659 20.6606 87.1066 20.8488 87.2152L23.5715 88.7866C24.7059 89.4413 25.9812 89.7664 27.2548 89.7664C28.7004 89.7664 30.1448 89.3472 31.3786 88.5165L34.6705 86.2995C36.235 85.2459 38.1806 84.914 40.0055 85.3874L43.664 86.3376C46.0033 86.945 48.4932 86.3665 50.3251 84.7916L54.446 81.2491C54.6117 81.1077 54.6302 80.8589 54.4881 80.6938Z" fill="#402C49"/>
<path d="M29.9771 77.4014L30.3927 77.1283C33.3007 75.2202 36.7877 74.3947 40.2424 74.7965L40.9358 74.8773C42.0904 75.0118 42.6822 76.331 42.0154 77.2824L40.2759 79.7655C38.8563 81.7919 36.222 82.5638 33.9329 81.6233L30.2357 80.1044C29.0938 79.635 28.9448 78.0786 29.9771 77.4014Z" fill="#402C49"/>
<path d="M62.2972 95.9803C62.0155 94.0007 61.2632 91.9535 60.0936 90.3313C59.3425 91.2203 58.5134 91.8444 57.7623 92.7335C57.4517 91.5817 57.2347 90.2799 57.3242 89.09C55.9732 89.4537 54.7297 90.1708 53.8504 91.2596C53.7113 90.3243 53.7702 89.3608 54.0138 88.4475C52.2207 90.1113 50.9205 92.3126 50.3882 94.7022C50.0003 96.4462 50.0136 98.3185 50.6931 99.9708C51.5816 102.131 53.6328 103.77 55.9357 104.16C58.2381 104.55 60.7148 103.679 62.2654 101.932C63.7884 100.216 64.4079 96.844 63.8023 94.6017C63.3912 95.1357 62.878 95.5947 62.2972 95.9803Z" fill="#FBEED1"/>
<path d="M73.8501 94.3207C72.9414 90.8608 70.4208 87.8027 67.1624 86.3259C63.904 84.8503 59.9822 84.9236 56.7816 86.5222C55.7718 87.0268 54.8406 87.6803 54.0139 88.4476C53.7703 89.3609 53.7114 90.3245 53.8505 91.2597C54.7298 90.1709 55.9733 89.4539 57.3243 89.0901C57.2348 90.28 57.4518 91.5819 57.7624 92.7336C58.5135 91.8445 59.3426 91.2205 60.0937 90.3314C61.2633 91.9537 62.0156 94.0008 62.2973 95.9805C62.8781 95.5948 63.3913 95.1358 63.8024 94.6018L63.7718 94.4806L63.897 94.4783L73.8501 94.3207Z" fill="#99A3B0"/>
<path d="M63.8521 94.4795L63.8971 94.4783L65.7676 94.4489L63.8521 94.4795Z" fill="#5F4A41"/>
<path d="M63.7717 94.4805L63.852 94.4793L65.7675 94.4487L67.7206 94.4175L63.7717 94.4805Z" fill="#B8855C"/>
<path d="M63.772 94.4805C63.0181 91.7313 64.5601 89.9266 65.5115 89.3354C65.3302 89.7707 65.1934 90.3278 65.0121 90.7625C65.1507 90.7446 65.2904 90.736 65.4307 90.736C66.523 90.736 67.6459 91.2567 68.476 91.9605C68.6591 92.1158 68.8282 92.2861 68.9824 92.4697C68.6371 93.0135 68.3109 93.57 68.0032 94.137L67.852 94.4158L67.7209 94.4175L65.7678 94.4487L63.8973 94.4782L63.8523 94.4793L63.772 94.4805Z" fill="#7E7F91"/>
<path d="M88.7119 87.3848L88.1871 86.8745H73.6167L73.186 87.293C71.1227 89.2998 69.3745 91.6068 68.0028 94.1372L67.8516 94.416L80.9019 94.2082L93.7721 94.0038C92.4183 91.5612 90.714 89.331 88.7119 87.3848Z" fill="#99A3B0"/>
<path d="M80.9023 89.6307C77.7657 89.6307 75.0714 91.5561 73.8503 94.3203L87.8504 94.0975C86.5849 91.4539 83.9534 89.6307 80.9023 89.6307Z" fill="#D4CFBE"/>
<path d="M88.7525 87.4231C88.7483 87.4189 88.7442 87.4148 88.74 87.4112C88.7442 87.4148 88.7483 87.4189 88.7525 87.4231Z" fill="#5F4A41"/>
<path d="M84.9744 90.8269C83.7921 90.0695 82.3973 89.6313 80.902 89.6313C79.4062 89.6313 78.0114 90.0689 76.8284 90.8269C75.0884 90.3662 73.4592 89.5701 72.0315 88.4905C72.4056 88.0817 72.7884 87.6805 73.1861 87.2931L73.6168 86.8746H80.902H88.1872L88.712 87.3849C88.7212 87.3942 88.7305 87.4028 88.7397 87.4121C88.7438 87.4155 88.7478 87.4196 88.7518 87.4236C89.104 87.7677 89.4446 88.1239 89.7783 88.4853C88.3489 89.5678 86.7174 90.3656 84.9744 90.8269Z" fill="#7E7F91"/>
<path d="M81.4464 91.2852H80.3575C79.1504 91.2852 77.9657 91.1276 76.8284 90.8262C78.0113 90.0682 79.4061 89.6306 80.9019 89.6306C82.3972 89.6306 83.792 90.0687 84.9744 90.8262C83.8376 91.1276 82.653 91.2852 81.4464 91.2852Z" fill="#A79E9B"/>
<path d="M63.028 54.0047C62.3912 59.6642 62.7411 65.3907 64.062 70.9306L64.428 72.468L73.8499 63.0173L72.2317 60.342C70.4258 57.3578 67.9185 54.8598 64.928 53.0654C64.1411 52.5932 63.1302 53.0937 63.028 54.0047Z" fill="#797C99"/>
<path d="M66.2606 59.5055C67.8119 60.8155 69.1842 62.4562 70.2944 64.3389L71.1286 65.7481L71.8987 64.9751L69.7038 61.3616C68.2662 58.9859 66.3178 56.9312 64.0275 55.3661C63.6725 59.3883 63.833 63.4163 64.505 67.386C64.5708 67.7728 65.3692 71.0641 65.4443 71.4497L66.5458 70.3447C65.8207 66.9356 65.3987 63.4607 65.2919 59.9587C65.2763 59.4518 65.8738 59.1782 66.2606 59.5055Z" fill="#EBA7AC"/>
<path d="M70.2943 64.3386C69.1841 62.456 67.8118 60.8152 66.2605 59.5053C65.8737 59.178 65.2762 59.4516 65.2918 59.9585C65.3986 63.4605 65.8206 66.9354 66.5458 70.3445L71.1285 65.7479L70.2943 64.3386Z" fill="#E68799"/>
<path d="M98.6722 54.0047C99.309 59.6642 98.9591 65.3907 97.6382 70.9306L97.2722 72.468L87.8503 63.0173L89.4691 60.342C91.2744 57.3578 93.7817 54.8598 96.7722 53.0654C97.5591 52.5932 98.57 53.0937 98.6722 54.0047Z" fill="#797C99"/>
<path d="M95.4396 59.5055C93.8884 60.8155 92.5161 62.4562 91.4059 64.3389L90.5722 65.7481L89.8015 64.9751L91.9965 61.3616C93.434 58.9859 95.3825 56.9312 97.6733 55.3661C98.0278 59.3883 97.8673 63.4163 97.1953 67.386C97.13 67.7728 96.3316 71.0641 96.256 71.4497L95.1544 70.3447C95.8801 66.9356 96.3016 63.4607 96.409 59.9587C96.424 59.4518 95.827 59.1782 95.4396 59.5055Z" fill="#EBA7AC"/>
<path d="M91.4059 64.3386C92.5161 62.456 93.8884 60.8152 95.4397 59.5053C95.827 59.178 96.424 59.4516 96.409 59.9585C96.3016 63.4605 95.8801 66.9354 95.1545 70.3445L90.5723 65.7479L91.4059 64.3386Z" fill="#E68799"/>
<path d="M81.6728 61.2527H80.1314C74.4407 61.2527 69.104 64.0157 65.8185 68.6614L64.7487 70.1752C62.6293 73.1714 62.6293 77.1786 64.7487 80.1755L65.8185 81.6887C69.104 86.3349 74.4407 89.0974 80.1314 89.0974H81.6728C87.3635 89.0974 92.7002 86.3349 95.9858 81.6887L97.0561 80.1755C99.1749 77.1786 99.1749 73.1714 97.0561 70.1752L95.9858 68.6614C92.7002 64.0157 87.3635 61.2527 81.6728 61.2527Z" fill="#99A3B0"/>
<path d="M76.6692 72.8369C76.6692 73.7294 75.9452 74.4534 75.0527 74.4534C74.1601 74.4534 73.4368 73.7294 73.4368 72.8369C73.4368 71.9443 74.1601 71.221 75.0527 71.221C75.9452 71.221 76.6692 71.9443 76.6692 72.8369Z" fill="#402C49"/>
<path d="M87.5907 79.9506C87.4371 79.797 87.1877 79.797 87.0341 79.9506L85.6191 81.365C85.1347 81.8494 84.491 82.1161 83.8069 82.1161C82.3942 82.1161 81.2442 80.9667 81.2442 79.5534V79.3917C81.2442 79.1747 81.0681 78.9986 80.8505 78.9986C80.6328 78.9986 80.4567 79.1747 80.4567 79.3917V79.5534C80.4567 80.9667 79.3073 82.1161 77.894 82.1161C77.2099 82.1161 76.5656 81.8494 76.0818 81.365L74.6668 79.9506C74.5132 79.797 74.2638 79.797 74.1102 79.9506C73.9561 80.1047 73.9561 80.3535 74.1102 80.5077L75.5252 81.9221C76.1574 82.5554 76.9991 82.9036 77.894 82.9036C79.1733 82.9036 80.2864 82.1825 80.8505 81.126C81.4145 82.1825 82.5281 82.9036 83.8069 82.9036C84.7018 82.9036 85.5429 82.5554 86.1757 81.9221L87.5907 80.5077C87.7448 80.3535 87.7448 80.1047 87.5907 79.9506Z" fill="#797C99"/>
<path d="M76.1374 69.1193C76.4838 69.2082 76.8515 69.3531 77.1858 69.2261C77.5668 69.0817 77.7475 68.6083 77.6603 68.21C77.5737 67.8122 77.2776 67.4889 76.9456 67.2528C75.8406 66.4653 74.208 66.523 73.1613 67.3861C72.9107 67.5934 72.6885 67.8468 72.5747 68.1517C72.3086 68.8647 72.887 69.6937 73.6641 69.4379C74.5139 69.1591 75.2217 68.886 76.1374 69.1193Z" fill="#797C99"/>
<path d="M85.0308 72.8369C85.0308 73.7294 85.7541 74.4534 86.6473 74.4534C87.5398 74.4534 88.2632 73.7294 88.2632 72.8369C88.2632 71.9443 87.5398 71.221 86.6473 71.221C85.7541 71.221 85.0308 71.9443 85.0308 72.8369Z" fill="#402C49"/>
<path d="M85.5629 69.1193C85.2165 69.2082 84.8493 69.3531 84.5144 69.2261C84.1334 69.0817 83.9527 68.6083 84.0399 68.21C84.1271 67.8122 84.4226 67.4889 84.7546 67.2528C85.8602 66.4653 87.4923 66.523 88.5389 67.3861C88.7895 67.5934 89.0123 67.8468 89.1255 68.1517C89.3916 68.8647 88.8132 69.6937 88.0361 69.4379C87.1863 69.1591 86.4785 68.886 85.5629 69.1193Z" fill="#797C99"/>
<path d="M73.85 78.1131C71.349 77.7113 67.2939 77.7113 64.793 78.1131C67.2939 78.5144 71.349 78.5144 73.85 78.1131Z" fill="#C7D2D7"/>
<path d="M73.6635 77.1023C71.3797 76.0065 67.4914 74.8548 64.9795 74.5298C67.2634 75.6249 71.1516 76.7767 73.6635 77.1023Z" fill="#C7D2D7"/>
<path d="M73.6635 79.1235C71.1516 79.4485 67.2634 80.6003 64.9795 81.696C67.4914 81.3699 71.3797 80.2187 73.6635 79.1235Z" fill="#C7D2D7"/>
<path d="M87.8503 78.1131C90.3513 77.7113 94.4064 77.7113 96.9079 78.1131C94.4064 78.5144 90.3513 78.5144 87.8503 78.1131Z" fill="#C7D2D7"/>
<path d="M88.0366 77.1023C90.3211 76.0065 94.2088 74.8548 96.7212 74.5298C94.4368 75.6249 90.5491 76.7767 88.0366 77.1023Z" fill="#C7D2D7"/>
<path d="M88.0366 79.1235C90.5491 79.4485 94.4368 80.6003 96.7212 81.696C94.2088 81.3699 90.3211 80.2187 88.0366 79.1235Z" fill="#C7D2D7"/>
<path d="M83.0074 76.5373H78.6925C77.9189 76.5373 77.5159 77.3265 78.0413 77.8138L78.9904 78.6942C79.4915 79.1595 80.171 79.3916 80.85 79.3916C81.5295 79.3916 82.2084 79.1595 82.7095 78.6942L83.6592 77.8138C84.184 77.3265 83.781 76.5373 83.0074 76.5373Z" fill="#402C49"/>
<path d="M74.9281 63.2398C75.1394 63.6041 75.5921 63.7692 76.0129 63.7622C76.4344 63.7553 76.8385 63.6081 77.2403 63.4828C79.5866 62.7502 82.151 62.7363 84.5053 63.4424C84.8003 63.5313 85.0965 63.6318 85.4042 63.6427C85.7125 63.6549 86.041 63.5631 86.239 63.3275C86.5236 62.9892 86.4463 62.4517 86.1738 62.103C85.9094 61.7647 85.5076 61.5678 85.1069 61.4091C84.4112 61.3098 83.7057 61.2526 82.9916 61.2526H78.8129C78.2131 61.2526 77.619 61.2896 77.0313 61.36C76.7086 61.4801 76.3911 61.6134 76.0816 61.7641C75.5413 62.0268 74.4594 62.4315 74.9281 63.2398Z" fill="#797C99"/>
<path d="M77.3576 65.5148C77.4788 65.7238 77.738 65.8179 77.9793 65.8138C78.2207 65.8098 78.4516 65.7255 78.6819 65.6539C80.0259 65.2342 81.4946 65.2261 82.8427 65.6303C83.0118 65.6811 83.1816 65.7388 83.3582 65.7457C83.5343 65.7521 83.7225 65.7001 83.8363 65.565C83.9991 65.371 83.9546 65.0633 83.7987 64.8636C83.6428 64.6638 83.4033 64.5501 83.1671 64.4571C81.5206 63.8111 79.6074 63.8971 78.0186 64.6696C77.7092 64.8197 77.0897 65.0524 77.3576 65.5148Z" fill="#797C99"/>
<path d="M74.6667 95.0779C74.6667 96.8538 72.8672 98.2942 70.6468 98.2942C68.427 98.2942 66.627 96.8538 66.627 95.0779C66.627 93.3021 68.427 91.8623 70.6468 91.8623C72.8672 91.8623 74.6667 93.3021 74.6667 95.0779Z" fill="#FBEED1"/>
<path d="M87.1375 95.0779C87.1375 96.8538 88.9375 98.2942 91.1573 98.2942C93.3777 98.2942 95.1772 96.8538 95.1772 95.0779C95.1772 93.3021 93.3777 91.8623 91.1573 91.8623C88.9375 91.8623 87.1375 93.3021 87.1375 95.0779Z" fill="#FBEED1"/>
<path d="M136.742 46.5941C136.742 45.5076 137.884 44.8009 138.856 45.2865L146.203 48.9576C150.586 51.1474 153.663 55.2937 154.488 60.1224L156.933 74.4354C157.126 75.564 155.94 76.4231 154.928 75.8879L146.582 71.4749L136.742 46.5941Z" fill="#402C49"/>
<path d="M117.196 76.0511L118.057 80.1506C118.646 82.9547 117.444 85.8321 115.035 87.3845L112.232 89.1909C110.734 90.1568 109.36 91.3016 108.14 92.6006L107.02 93.7927L155.127 93.0272L149.086 86.5023C147.617 84.9158 146.565 82.9888 146.027 80.8948L144.368 74.4536L117.196 76.0511Z" fill="#A64F5A"/>
<path d="M129.745 86.3433C127.93 86.3433 126.147 85.7267 124.706 84.5628L117.815 78.9963L117.196 76.0514L144.368 74.4539L145.857 80.2375C144.498 82.0734 142.54 83.3949 140.301 83.9537L131.686 86.1043C131.044 86.2648 130.393 86.3433 129.745 86.3433Z" fill="#733D51"/>
<path d="M111.125 50.9411C115.653 48.312 124.891 45.8462 131.33 44.9889C134.448 44.5733 137.525 45.9825 139.233 48.6243L148.719 63.3021C150.306 65.7574 150.429 68.8813 149.042 71.4539L147.822 73.7141C146.21 76.7023 143.393 78.8546 140.087 79.6241L132.269 81.4444C129.67 82.0494 126.942 81.7585 124.53 80.6194L112.996 75.1753L111.125 50.9411Z" fill="#A64F5A"/>
<path d="M148.719 63.3021L147.827 61.9217C145.036 61.7497 141.845 61.9622 138.588 62.4916C136.338 62.857 134.157 61.5846 133.337 59.4583C131.432 54.5193 128.353 49.1791 126.122 45.9046C125.092 46.1239 124.043 46.3687 122.995 46.6331C124.968 49.9637 127.229 55.6203 128.56 60.7931C129.118 62.9632 128.055 65.2327 126.006 66.1396C122.973 67.4825 120.377 69.0863 118.629 70.8714C118.139 71.3719 117.978 72.1074 118.206 72.7696L119.233 75.7474C119.859 77.5596 121.188 79.0427 122.921 79.8608L124.53 80.6194C126.942 81.7585 129.67 82.0494 132.269 81.4444L140.087 79.6241C143.393 78.8546 146.21 76.7023 147.822 73.7141L149.042 71.4539C150.43 68.8813 150.306 65.7574 148.719 63.3021Z" fill="#F4AF9A"/>
<path d="M122.791 60.2197C122.791 61.1579 122.031 61.9182 121.093 61.9182C120.155 61.9182 119.395 61.1579 119.395 60.2197C119.395 59.2822 120.155 58.5218 121.093 58.5218C122.031 58.5218 122.791 59.2822 122.791 60.2197Z" fill="#402C49"/>
<path d="M139.527 56.3561C139.527 57.2936 138.768 58.054 137.83 58.054C136.892 58.054 136.131 57.2936 136.131 56.3561C136.131 55.4179 136.892 54.6576 137.83 54.6576C138.768 54.6576 139.527 55.4179 139.527 56.3561Z" fill="#402C49"/>
<path d="M120.321 54.1225C120.66 54.1017 121.004 54.111 121.336 54.0434C121.669 53.9753 122.001 53.8177 122.191 53.5354C122.486 53.0943 122.339 52.4604 121.967 52.0817C121.595 51.7024 121.056 51.5361 120.53 51.4674C119.133 51.2844 117.667 51.7162 116.593 52.6278C116.266 52.9049 115.97 53.2317 115.8 53.6249C115.63 54.0186 115.6 54.4868 115.792 54.8701C115.958 55.2027 116.358 55.4936 116.744 55.4821C117.121 55.4711 117.433 55.1143 117.743 54.9279C118.522 54.4597 119.413 54.1779 120.321 54.1225Z" fill="#F4AF9A"/>
<path d="M134.951 50.4308C134.693 50.5393 134.444 50.6761 134.168 50.7402C133.892 50.8043 133.577 50.7881 133.309 50.6069C132.892 50.3245 132.714 49.7045 132.816 49.2271C132.917 48.7502 133.238 48.4003 133.595 48.1417C134.539 47.4564 135.814 47.293 137.017 47.7035C137.383 47.8282 137.75 48.0089 138.053 48.2958C138.357 48.5828 138.591 48.9892 138.624 49.4026C138.652 49.7611 138.49 50.1704 138.2 50.3043C137.917 50.436 137.527 50.2345 137.214 50.1842C136.429 50.0584 135.645 50.141 134.951 50.4308Z" fill="#F4AF9A"/>
<path d="M121.857 71.9588L126.643 73.4154C128.754 74.0579 131.047 73.5274 132.661 72.0235L133.798 70.9652C134.493 70.3175 134.722 69.3101 134.376 68.425L133.671 66.618L134.507 66.323L135.444 68.451C135.764 69.1796 136.437 69.6923 137.223 69.8094L138.653 70.0231C141.122 70.3908 143.568 69.2408 144.86 67.107L146.173 64.938L144.273 71.0126C143.494 73.5026 141.497 75.4216 138.977 76.1005L135.693 76.985C133.826 77.4884 131.839 77.2632 130.131 76.3563L121.857 71.9588Z" fill="#402C49"/>
<path d="M144.001 79.2273C143.748 77.9497 143.464 76.6663 142.917 75.4845C142.723 75.0666 142.492 74.6624 142.225 74.2849C141.738 73.5938 141.13 72.9957 140.394 72.5881C138.665 71.6298 136.478 71.8567 134.678 72.6747C133.477 73.2209 132.361 74.0459 131.711 75.1936C131.431 75.6878 131.259 76.2483 131.201 76.8153C132.278 77.1911 133.425 77.3239 134.559 77.1998V77.2003C134.955 78.7891 135.077 80.6002 135.243 82.23C135.409 83.8603 135.869 85.5634 137.075 86.673C137.901 87.4333 139.037 87.8444 140.159 87.7884C141.28 87.7324 142.37 87.2088 143.116 86.3693C143.942 85.4387 144.323 84.1767 144.392 82.9325C144.461 81.689 144.243 80.4489 144.001 79.2273Z" fill="#E36B85"/>
<path d="M135.599 62.616C133.248 62.9006 130.947 63.5928 128.829 64.6516C128.049 65.0413 128.111 66.1769 128.923 66.4921C129.734 66.8073 130.569 67.0573 131.403 67.1756C132.278 67.3003 133.195 67.3384 134.024 67.0301C134.888 66.7086 135.583 66.032 136.089 65.2618C136.335 64.8871 136.521 64.4253 136.685 63.9496C136.931 63.2372 136.347 62.5253 135.599 62.616Z" fill="#402C49"/>
<path d="M104.979 53.6871L109.425 49.5402C110.339 48.6881 111.833 49.2308 111.987 50.4709L114.163 67.9995C114.679 72.1544 113.642 76.3544 111.251 79.7918L109.896 81.738C109.19 82.7529 107.627 82.5179 107.25 81.3413L102.022 65.0338C100.728 60.9983 101.88 56.5778 104.979 53.6871Z" fill="#402C49"/>
<path d="M118.972 93.6027C119.776 91.9083 121.458 90.8044 123.332 90.7398L127.89 90.5822C129.059 90.5423 130.15 91.1664 130.707 92.194L131.972 94.5264C132.451 95.4109 132.402 96.4881 131.845 97.3253C131.433 97.9436 130.786 98.3667 130.055 98.4949L126.623 99.0982C124.519 99.4677 122.392 98.5757 121.181 96.8149L118.972 93.6027Z" fill="#402C49"/>
<path d="M148.464 93.6027C149.268 91.9083 150.95 90.8044 152.824 90.7398L157.382 90.5822C158.551 90.5423 159.642 91.1664 160.199 92.194L161.463 94.5264C161.943 95.4109 161.894 96.4881 161.337 97.3253C160.925 97.9436 160.278 98.3667 159.546 98.4949L156.115 99.0982C154.011 99.4677 151.884 98.5757 150.673 96.8149L148.464 93.6027Z" fill="#402C49"/>
</svg>
