<svg width="128" height="127" viewBox="0 0 128 127" fill="none" xmlns="http://www.w3.org/2000/svg">
<path d="M126.536 60.5841C124.199 51.951 116.926 45.0414 109.113 39.5137C104.404 36.1909 99.3988 33.1786 94.6375 29.9179C98.9802 27.2317 103.55 24.8405 108.293 22.7599C109.706 22.1388 108.468 20.2756 107.055 20.8811C102.015 23.086 97.2013 25.648 92.6319 28.5205C90.9925 27.3559 89.388 26.1448 87.8532 24.8561C91.5855 21.1296 95.5793 17.6204 99.7825 14.3286C100.968 13.4125 99.2418 11.8754 98.0559 12.7915C93.8353 16.0832 89.8414 19.6234 86.1092 23.3499C85.9697 23.2102 85.8127 23.086 85.6732 22.9462C84.5047 21.8748 84.1907 21.2383 81.9932 19.7011C82.3072 13.2883 82.3246 6.87561 82.0107 0.462891C75.9589 5.95951 70.7791 12.2014 66.6806 18.9713C66.4015 19.4371 66.105 19.934 65.5993 20.229C64.797 20.7103 63.7157 20.5551 62.7565 20.4153C55.135 19.2818 47.095 20.4929 40.3107 23.8002L23.3237 2.20193C23.5853 10.8661 25.9572 19.3439 27.5966 27.8994C21.0913 31.2688 17.0103 37.7747 16.5045 44.4358C11.5165 43.4576 6.51114 42.4794 1.52318 41.4857C-0.011579 41.1907 -0.656871 43.2868 0.877885 43.5818C6.07513 44.6066 11.2724 45.6314 16.4696 46.6407C16.5394 48.0226 16.7661 49.4045 17.1498 50.7554C13.0862 52.6652 8.9528 54.4974 4.78454 56.2365C3.35442 56.8265 4.59269 58.7053 6.02281 58.1153C10.0341 56.4383 13.9931 54.6838 17.9172 52.8516C17.9172 52.8516 17.9172 52.8516 17.9172 52.8671C18.6845 54.5751 19.731 56.1589 21.0216 57.5874C18.5625 60.7083 16.1034 63.8448 13.6443 66.9658C12.7374 68.1148 14.8651 69.2017 15.7546 68.0682C18.0741 65.1336 20.3763 62.1834 22.6958 59.2488C28.207 64.1709 36.5784 66.6708 44.2348 65.0714C43.6592 79.2167 47.8624 93.5017 56.164 105.566C52.1701 107.554 48.1588 109.836 45.7695 113.299C43.3802 116.761 43.136 121.715 46.345 124.603C50.2168 128.065 56.7046 127.071 61.9019 125.503C80.9817 119.758 98.3698 109.603 111.886 96.2966C121.827 86.4989 130.024 73.4095 126.536 60.5841Z" fill="#434343"/>
<path d="M33.8235 41.6249C33.5794 41.1901 33.2655 40.9106 32.8818 40.7243C31.3644 39.6374 28.8007 39.9324 27.8938 41.6559V41.6715C27.702 41.9509 27.5799 42.277 27.5624 42.6341C27.4752 44.3266 29.3937 45.4445 31.1203 45.1495C32.7771 44.87 34.713 43.2086 33.8235 41.6249Z" fill="#FEFEF8"/>
<path d="M69.5065 34.405C68.8263 33.815 67.8671 33.7218 66.8904 33.8771C66.716 33.8461 66.5067 33.8461 66.28 33.9237C65.7394 34.079 65.1638 34.3119 64.6755 34.6069C64.5883 34.6535 64.5011 34.7001 64.4139 34.7311C64.2221 34.8398 64.0825 34.964 63.9953 35.1038C63.4721 35.6162 63.1931 36.2528 63.3849 37.0913C63.8558 38.97 66.2975 38.7837 67.8148 38.1471C69.2972 37.526 71.0761 35.7714 69.5065 34.405ZM66.0533 36.3925C66.3323 36.2683 66.6114 36.1596 66.9079 36.0975C66.873 36.1286 66.8381 36.1441 66.8207 36.1441C66.5939 36.2683 66.3323 36.3459 66.0533 36.3925Z" fill="#FEFEF8"/>
<path d="M77.04 44.9787C76.6738 44.4042 75.6622 44.0781 75.0169 44.5129C71.4242 46.842 66.7851 47.0438 62.5994 46.0345C58.7276 45.0874 55.2744 43.2086 51.9607 41.2211C52.6932 40.5224 53.2513 39.715 53.6699 38.7678C54.0536 37.9138 53.0943 37.153 52.2398 37.0909C49.2749 36.9201 46.2577 38.0691 44.409 40.1497C43.6068 41.0503 44.0951 42.3236 45.4554 42.4012C45.8915 42.4167 46.3449 42.4478 46.7809 42.4633C44.6881 47.8512 39.9443 52.4007 33.9273 54.4813C33.1774 54.7453 32.6716 55.3664 32.8983 56.1117C33.0902 56.7483 33.9797 57.2917 34.7296 57.0278C41.7755 54.59 47.3739 49.3884 49.7109 43.0223C53.6176 45.3979 57.7161 47.6959 62.3552 48.7052C67.099 49.7455 72.4706 49.4195 76.5343 46.7954C77.1447 46.3762 77.476 45.6464 77.04 44.9787Z" fill="#FEFEF8"/>
</svg>
