<svg width="18" height="17" viewBox="0 0 18 17" fill="none" xmlns="http://www.w3.org/2000/svg">
<path fill-rule="evenodd" clip-rule="evenodd" d="M8.99969 2.50244L16.1991 9.70184V14.7498C16.1991 15.2272 16.0095 15.685 15.6719 16.0225C15.3344 16.36 14.8766 16.5497 14.3992 16.5497H3.60014C3.12279 16.5497 2.66499 16.36 2.32746 16.0225C1.98992 15.685 1.80029 15.2272 1.80029 14.7498V9.70184L8.99969 2.50244Z" fill="white"/>
<path fill-rule="evenodd" clip-rule="evenodd" d="M8.15167 0.351314C8.37669 0.126368 8.68183 0 9 0C9.31817 0 9.62331 0.126368 9.84833 0.351314L17.8241 8.32584C17.9367 8.4385 18 8.59129 18 8.75061C18 8.90993 17.9367 9.06272 17.8241 9.17537C17.7114 9.28803 17.5586 9.35131 17.3993 9.35131C17.24 9.35131 17.0872 9.28803 16.9745 9.17537L9 1.19964L1.02547 9.17537C0.912817 9.28803 0.760025 9.35131 0.600707 9.35131C0.44139 9.35131 0.288598 9.28803 0.175943 9.17537C0.0632887 9.06272 0 8.90993 0 8.75061C0 8.59129 0.0632887 8.4385 0.175943 8.32584L8.15167 0.351314Z" fill="white"/>
<path d="M7.28634 10.1704C7.28634 9.52349 6.76662 8.99892 6.12572 8.99892C5.48483 8.99892 4.96533 9.52349 4.96533 10.1704C4.96533 10.8178 5.48471 11.3421 6.12572 11.3421C6.76673 11.3421 7.28634 10.8178 7.28634 10.1704Z" fill="#8F7FAC"/>
<path d="M11.9143 9.22776C11.2735 9.22776 10.7539 9.75233 10.7539 10.3992C10.7539 11.0466 11.2735 11.5707 11.9143 11.5707C12.5552 11.5707 13.0748 11.0466 13.0748 10.3992C13.0748 9.75233 12.5553 9.22776 11.9143 9.22776Z" fill="#8F7FAC"/>
<path d="M10.8603 11.7033C10.7796 11.6029 10.6654 11.4867 10.5343 11.3649C10.1843 10.9071 9.63705 10.6109 9.02007 10.6109C8.47094 10.6109 7.97731 10.8456 7.62842 11.2197C7.43024 11.3937 7.25402 11.5637 7.14189 11.7034L7.06682 11.796C6.71668 12.227 6.28083 12.7632 6.28404 13.6732C6.28713 14.5182 6.96876 15.2061 7.80338 15.2061C8.035 15.2066 8.2636 15.1531 8.47135 15.0497C8.6791 14.9463 8.86039 14.7959 9.00107 14.6101C9.14177 14.796 9.3231 14.9464 9.53093 15.0498C9.73875 15.1532 9.96742 15.2067 10.1991 15.2061C11.0334 15.2061 11.7149 14.5183 11.7181 13.6732C11.7213 12.7632 11.2853 12.227 10.9353 11.796L10.8603 11.7033Z" fill="#8F7FAC"/>
<path d="M9.10054 9.86358C9.80675 9.86358 10.3792 9.28562 10.3792 8.57266C10.3792 7.8597 9.80675 7.28174 9.10054 7.28174C8.39433 7.28174 7.82184 7.8597 7.82184 8.57266C7.82184 9.28562 8.39433 9.86358 9.10054 9.86358Z" fill="#8F7FAC"/>
</svg>
