<svg width="61" height="60" viewBox="0 0 61 60" fill="none" xmlns="http://www.w3.org/2000/svg">
<path d="M31.422 26.2499L48.993 32.5252V58.1248C48.993 58.622 48.7955 59.099 48.4438 59.4506C48.0922 59.8022 47.6153 59.9998 47.118 59.9998H39.618C39.1208 59.9998 38.6438 59.8022 38.2922 59.4506C37.9406 59.099 37.743 58.622 37.743 58.1248V44.9998H18.9931V58.1248C18.9931 58.622 18.7956 59.099 18.4439 59.4506C18.0923 59.8022 17.6154 59.9998 17.1181 59.9998H9.61813C9.12086 59.9998 8.64394 59.8022 8.29231 59.4506C7.94068 59.099 7.74314 58.622 7.74314 58.1248V33.0573C3.38847 31.5045 0.243164 27.3819 0.243164 22.4999C0.243164 21.5053 0.638251 20.5515 1.34151 19.8482C2.04477 19.145 2.99859 18.7499 3.99315 18.7499C4.98771 18.7499 5.94154 19.145 6.64479 19.8482C7.34805 20.5515 7.74314 21.5053 7.74314 22.4999C7.745 23.4939 8.14068 24.4466 8.84354 25.1495C9.5464 25.8523 10.4991 26.248 11.4931 26.2499H31.422ZM60.243 13.1249V16.8749C60.243 18.864 59.4528 20.7717 58.0463 22.1782C56.6398 23.5847 54.7321 24.3749 52.743 24.3749H48.993V28.5444L33.9931 23.1878V5.62493C33.9931 3.95501 36.011 3.11829 37.1934 4.29954L40.3903 7.49992H46.6751C47.9536 7.49992 49.4582 8.42804 50.0289 9.57296L50.868 11.2499H58.368C58.8653 11.2499 59.3422 11.4475 59.6938 11.7991C60.0454 12.1507 60.243 12.6276 60.243 13.1249ZM47.118 13.1249C47.118 12.7541 47.0081 12.3916 46.802 12.0832C46.596 11.7749 46.3032 11.5345 45.9606 11.3926C45.6179 11.2507 45.2409 11.2136 44.8772 11.2859C44.5135 11.3583 44.1794 11.5369 43.9172 11.7991C43.655 12.0613 43.4764 12.3954 43.4041 12.7591C43.3317 13.1228 43.3688 13.4998 43.5108 13.8424C43.6527 14.185 43.893 14.4779 44.2013 14.6839C44.5097 14.8899 44.8722 14.9999 45.243 14.9999C45.7403 14.9999 46.2172 14.8024 46.5688 14.4507C46.9205 14.0991 47.118 13.6222 47.118 13.1249Z" fill="#434343"/>
<path d="M18.5192 3.42253C18.2248 2.75278 17.8002 2.14586 17.2692 1.63575C16.7379 1.12411 16.1114 0.717516 15.4239 0.43808C14.711 0.147173 13.9463 -0.00173022 13.1744 1.5168e-05C12.0913 1.5168e-05 11.0346 0.291339 10.1164 0.841618C9.89669 0.973253 9.68799 1.11784 9.49028 1.27537C9.29257 1.11784 9.08387 0.973253 8.86418 0.841618C7.94591 0.291339 6.88924 1.5168e-05 5.80621 1.5168e-05C5.02633 1.5168e-05 4.27063 0.146756 3.55666 0.43808C2.86685 0.718615 2.24515 1.12215 1.71133 1.63575C1.17969 2.14529 0.755 2.75235 0.461333 3.42253C0.155975 4.11955 0 4.85973 0 5.62149C0 6.34009 0.149384 7.0889 0.445955 7.85066C0.694196 8.48726 1.05008 9.14759 1.50482 9.8144C2.22538 10.8696 3.21615 11.9702 4.44637 13.0859C6.48502 14.9352 8.50391 16.2127 8.58958 16.2645L9.11023 16.5925C9.3409 16.7371 9.63747 16.7371 9.86813 16.5925L10.3888 16.2645C10.4745 16.2106 12.4911 14.9352 14.532 13.0859C15.7622 11.9702 16.753 10.8696 17.4735 9.8144C17.9283 9.14759 18.2864 8.48726 18.5324 7.85066C18.829 7.0889 18.9784 6.34009 18.9784 5.62149C18.9806 4.85973 18.8246 4.11955 18.5192 3.42253Z" fill="#434343"/>
</svg>
