<svg width="1440" height="322" viewBox="0 0 1440 322" fill="none" xmlns="http://www.w3.org/2000/svg">
<path d="M601.874 284.593C595.33 294.927 582.714 297.948 582.714 297.948C582.714 297.948 594.889 301.091 591.554 311.218C589.03 318.903 583.266 319.105 569.688 319.009C563.676 318.968 558.683 318.69 554.744 317.503C549.306 315.882 545.89 312.532 544.587 305.708C542.149 292.971 548.165 283.873 552.899 266.979C553.32 265.468 553.594 263.836 553.792 262.093C554.78 253.262 553.771 241.609 560.082 229.099L600.252 239.673C600.252 239.673 606.046 251.499 606.557 264.758C606.815 271.449 605.726 278.505 601.874 284.593Z" fill="#D5CFD1"/>
<path d="M795.659 285.663C802.203 295.998 814.819 299.018 814.819 299.018C814.819 299.018 802.644 302.161 805.978 312.289C808.503 319.973 814.267 320.176 827.845 320.08C833.857 320.038 838.85 319.76 842.788 318.573C848.226 316.952 851.643 313.602 852.945 306.779C855.384 294.041 849.368 284.943 844.633 268.049C844.213 266.538 843.938 264.906 843.74 263.163C842.753 254.332 843.762 242.68 837.451 230.17L797.28 240.744C797.28 240.744 791.487 252.569 790.976 265.829C790.717 272.519 791.807 279.575 795.659 285.663Z" fill="#D79863"/>
<path d="M513.109 220.593C513.109 220.593 484.074 228.536 480.164 212.25C474.952 190.54 493.983 171.776 485.131 146.629C469.996 103.625 389.083 127.308 404.779 180.697C409.16 195.6 417.91 198.22 424.555 196.36C434.942 193.455 437.791 183.815 435.825 173.068C432.23 153.417 458.944 145.881 466.357 163.374C472.374 177.57 445.418 211.628 466.304 233.652C480.719 248.853 502.589 245.943 515.252 240.922C517.795 239.914 513.109 220.593 513.109 220.593" fill="#D5CFD1"/>
<path d="M409.776 144.998C403.286 154.313 400.589 166.445 404.779 180.697C409.16 195.6 417.91 198.22 424.555 196.36C434.942 193.455 437.791 183.815 435.825 173.068C434.747 167.176 436.396 162.375 439.43 159.011C432.548 129.637 409.978 144.86 409.776 144.998" fill="#B4B3B2"/>
<path d="M639.944 150.681V175.897C639.944 175.897 631.479 185.377 616.37 187.222C614.454 187.46 612.431 187.571 610.308 187.526C596.156 187.227 587.68 180.496 587.68 180.496L588.649 176.188L593.688 153.828C593.688 153.828 600.804 156.18 610.004 157.073C616.857 157.736 624.86 157.585 631.936 155.046C634.805 154.017 637.521 152.597 639.944 150.681" fill="#D5CFD1"/>
<path d="M757.587 151.751V176.968C757.587 176.968 766.052 186.447 781.161 188.292C783.077 188.53 785.1 188.642 787.223 188.597C801.376 188.297 809.851 181.566 809.851 181.566L808.882 177.258L803.844 154.899C803.844 154.899 796.728 157.251 787.528 158.143C780.675 158.807 772.672 158.655 765.595 156.116C762.727 155.087 760.01 153.667 757.587 151.751" fill="#D79863"/>
<path d="M919.723 218.908C913.344 229.974 902.656 239.935 885.079 245.491L877.395 221.636C877.395 221.636 889.888 217.905 897.707 203.917C901.242 197.586 903.822 189.147 903.856 178.008C903.876 171.563 908.92 166.255 915.345 165.812C915.635 165.791 915.924 165.784 916.214 165.784C922.754 165.784 928.222 170.923 928.538 177.556C929.057 188.42 928 204.59 919.723 218.908" fill="#A6744A"/>
<path d="M919.723 218.909C908.381 216.606 901.659 210.645 897.706 203.917C901.242 197.587 903.821 189.148 903.855 178.009C903.875 171.564 908.92 166.256 915.345 165.812C915.635 165.792 915.923 165.785 916.213 165.785C922.753 165.785 928.222 170.923 928.538 177.557C929.056 188.42 927.999 204.59 919.723 218.909" fill="#D79863"/>
<path d="M588.355 278.357C549.827 295.864 495.45 280.973 500.27 238.035C502.297 219.96 519.044 204.637 527.854 190.885C532.431 183.739 535.726 177.074 538.067 171.472C542.188 161.614 543.36 155.059 543.36 155.059L608.203 150.934C608.203 150.934 608.934 153.174 610.003 157.072C610.773 159.87 611.722 163.53 612.7 167.828C613.04 169.318 613.384 170.879 613.724 172.511C614.661 176.972 615.583 181.934 616.37 187.221C617.571 195.3 618.453 204.135 618.59 213.071C619.006 239.728 612.756 267.272 588.355 278.357" fill="#D5CFD1"/>
<path d="M809.176 279.429C847.705 296.936 902.081 282.045 897.261 239.106C895.234 221.032 878.487 205.709 869.678 191.957C865.101 184.81 861.805 178.146 859.464 172.544C855.343 162.686 854.172 156.131 854.172 156.131L789.328 152.005C789.328 152.005 788.597 154.246 787.528 158.144C786.758 160.941 785.81 164.602 784.831 168.899C784.492 170.39 784.147 171.951 783.807 173.583C782.87 178.044 781.948 183.006 781.162 188.293C779.961 196.372 779.079 205.207 778.941 214.143C778.525 240.8 784.776 268.343 809.176 279.429" fill="#D79863"/>
<path d="M553.006 285.516C549.977 285.516 546.976 285.347 544.032 285.011C544.43 284.276 544.792 283.529 545.118 282.772C545.121 282.766 545.124 282.759 545.127 282.753C545.129 282.748 545.13 282.745 545.133 282.74C545.138 282.727 545.143 282.714 545.149 282.701L545.15 282.698C550.437 270.377 546.666 255.531 543.825 247.52C555.5 260.5 549 277.5 546.5 284C549.709 285.611 560 284 566 283.5C574.5 282 587.849 276.979 594 273.5C602.201 268.863 612.5 258 613.325 246.506C615.345 248.547 614.184 247.24 614.344 247.52C610.096 264.019 599.086 272.599 585.987 278.551C575.705 283.223 564.181 285.516 553.006 285.516Z" fill="#B2B2D4"/>
<path d="M844.526 286.586C847.555 286.586 850.556 286.418 853.5 286.081C853.102 285.346 852.741 284.599 852.414 283.842C852.412 283.836 852.408 283.829 852.406 283.823C852.403 283.818 852.402 283.815 852.4 283.81C852.394 283.797 852.389 283.784 852.383 283.771L852.382 283.769C847.096 271.447 850.866 256.602 853.707 248.591C841.167 256.421 846.974 276.842 850.5 283.842C847.291 285.453 838.5 284.5 832 283.769C824.484 283.77 805.5 274.384 798 269C790.5 263.616 787 255.5 784.207 247.576C782.187 249.617 783.348 248.31 783.188 248.591C787.436 265.089 798.446 273.67 811.546 279.622C821.827 284.293 833.352 286.586 844.526 286.586Z" fill="#8B5C35"/>
<path d="M542.991 239.672C542.991 239.672 556.109 266.432 544.611 284.594C538.068 294.928 525.455 297.946 525.455 297.946C525.455 297.946 537.625 301.09 534.294 311.218C531.766 318.905 526.006 319.108 512.424 319.009C498.104 318.907 489.572 317.47 487.325 305.709C484.889 292.971 490.906 283.871 495.64 266.981C498.205 257.832 495.264 244.077 502.82 229.099L542.991 239.672Z" fill="#D5CFD1"/>
<path d="M854.54 240.743C854.54 240.743 841.422 267.502 852.92 285.665C859.463 295.999 872.076 299.017 872.076 299.017C872.076 299.017 859.906 302.161 863.237 312.289C865.766 319.976 871.526 320.178 885.107 320.08C899.427 319.978 907.959 318.541 910.207 306.78C912.643 294.042 906.626 284.942 901.891 268.052C899.326 258.903 902.268 245.148 894.711 230.17L854.54 240.743Z" fill="#D79863"/>
<path d="M486.854 297.508C486.898 296.941 486.955 296.376 487.026 295.814C487.026 295.815 487.026 295.816 487.026 295.817C486.955 296.38 486.898 296.942 486.854 297.508" fill="#B27E88"/>
<path d="M910.677 298.58C910.633 298.012 910.577 297.447 910.506 296.885C910.506 296.886 910.506 296.887 910.506 296.889C910.577 297.451 910.633 298.014 910.677 298.58" fill="#B27E88"/>
<path d="M527.486 297.327C528.901 296.839 530.931 296.038 533.178 294.83C531.96 296.077 529.911 296.859 527.486 297.327Z" fill="#B27E88"/>
<path d="M870.046 298.398C868.631 297.91 866.601 297.108 864.353 295.9C865.572 297.147 867.621 297.93 870.046 298.398Z" fill="#B27E88"/>
<path d="M545.56 282.974C545.958 282.238 546.319 281.492 546.646 280.734C546.319 281.491 545.958 282.238 545.56 282.974ZM546.654 280.715C546.657 280.711 546.658 280.707 546.66 280.702C546.658 280.707 546.657 280.711 546.654 280.715ZM546.677 280.663C546.677 280.662 546.677 280.662 546.678 280.661C546.678 280.662 546.677 280.663 546.677 280.663Z" fill="#7C7CB6"/>
<path d="M851.971 284.044C851.573 283.309 851.212 282.562 850.885 281.805C851.212 282.561 851.573 283.309 851.971 284.044ZM850.877 281.786C850.875 281.781 850.873 281.777 850.871 281.773C850.873 281.777 850.875 281.781 850.877 281.786ZM850.854 281.734C850.854 281.732 850.854 281.732 850.853 281.731C850.853 281.732 850.854 281.734 850.854 281.734Z" fill="#7C7CB6"/>
<path d="M544.087 285.386C544.091 285.381 544.093 285.376 544.097 285.372C544.093 285.377 544.091 285.381 544.087 285.386ZM544.102 285.364C544.276 285.112 544.445 284.855 544.611 284.594C544.948 284.061 545.265 283.519 545.561 282.974C545.265 283.521 544.95 284.059 544.612 284.592C544.446 284.854 544.276 285.112 544.102 285.364" fill="#000072"/>
<path d="M853.444 286.457C853.441 286.452 853.438 286.447 853.435 286.442C853.438 286.448 853.441 286.452 853.444 286.457ZM853.43 286.435C853.256 286.183 853.087 285.926 852.921 285.664C852.583 285.131 852.267 284.59 851.971 284.044C852.267 284.591 852.582 285.13 852.92 285.663C853.086 285.925 853.256 286.183 853.43 286.435" fill="#000072"/>
<path d="M507.444 296.985C508.929 296.675 510.439 296.458 511.956 296.281C513.474 296.106 515.001 295.975 516.536 295.894C518.069 295.822 519.611 295.77 521.156 295.789C522.703 295.791 524.251 295.86 525.806 295.949C526.932 296.013 527.791 296.978 527.727 298.103C527.662 299.229 526.698 300.089 525.573 300.025C525.422 300.017 525.275 299.992 525.135 299.952L525.104 299.942C523.686 299.535 522.255 299.142 520.806 298.81C519.359 298.463 517.894 298.181 516.419 297.919C514.944 297.664 513.458 297.458 511.961 297.293C510.465 297.134 508.959 297.011 507.444 296.985" fill="#B2B2D4"/>
<path d="M890.087 298.056C888.602 297.746 887.093 297.529 885.576 297.351C884.057 297.177 882.531 297.046 880.996 296.965C879.463 296.893 877.921 296.841 876.375 296.86C874.829 296.862 873.281 296.931 871.726 297.02C870.6 297.084 869.74 298.049 869.804 299.174C869.869 300.3 870.833 301.16 871.958 301.096C872.11 301.087 872.257 301.063 872.396 301.022L872.427 301.013C873.846 300.606 875.276 300.212 876.726 299.881C878.173 299.534 879.638 299.252 881.112 298.99C882.588 298.734 884.074 298.528 885.571 298.364C887.066 298.205 888.573 298.082 890.087 298.056" fill="#8B5C35"/>
<path d="M565.101 296.985C566.587 296.675 568.097 296.458 569.614 296.281C571.131 296.106 572.659 295.975 574.193 295.894C575.727 295.822 577.269 295.77 578.813 295.789C580.36 295.791 581.909 295.86 583.463 295.949C584.588 296.013 585.449 296.978 585.384 298.103C585.32 299.229 584.355 300.089 583.23 300.025C583.079 300.017 582.933 299.992 582.792 299.952L582.762 299.942C581.344 299.535 579.913 299.142 578.464 298.81C577.017 298.463 575.552 298.181 574.077 297.919C572.602 297.664 571.116 297.458 569.619 297.293C568.122 297.134 566.617 297.011 565.101 296.985" fill="#B2B2D4"/>
<path d="M832.431 298.056C830.944 297.746 829.435 297.529 827.918 297.351C826.401 297.177 824.873 297.046 823.338 296.965C821.805 296.893 820.263 296.841 818.719 296.86C817.172 296.862 815.623 296.931 814.068 297.02C812.943 297.084 812.082 298.049 812.148 299.174C812.211 300.3 813.177 301.16 814.302 301.096C814.453 301.087 814.599 301.063 814.74 301.022L814.769 301.013C816.188 300.606 817.619 300.212 819.068 299.881C820.515 299.534 821.98 299.252 823.454 298.99C824.93 298.734 826.416 298.528 827.913 298.364C829.41 298.205 830.915 298.082 832.431 298.056" fill="#8B5C35"/>
<path d="M520.921 305.957C522.316 306.387 523.698 307.322 524.44 308.853C524.814 309.595 524.96 310.527 524.96 311.255C524.982 312.028 524.971 312.82 524.836 313.63C524.705 314.434 524.494 315.267 524.097 316.054C523.711 316.842 523.174 317.576 522.543 318.198C521.262 319.448 519.721 320.203 518.227 320.794C517.269 321.171 516.187 320.702 515.808 319.744C515.43 318.788 515.899 317.704 516.857 317.325C516.958 317.286 517.073 317.253 517.176 317.232C518.457 316.972 519.676 316.597 520.629 315.948C521.583 315.31 522.296 314.361 522.704 313.124C522.923 312.518 523.051 311.85 523.151 311.172L523.273 310.184C523.302 309.876 523.295 309.564 523.245 309.251C523.059 307.991 522.147 306.757 520.921 305.957" fill="#B2B2D4"/>
<path d="M876.61 307.027C875.215 307.457 873.833 308.393 873.092 309.924C872.717 310.665 872.572 311.597 872.572 312.326C872.549 313.099 872.56 313.891 872.695 314.701C872.826 315.505 873.037 316.338 873.434 317.125C873.82 317.913 874.358 318.647 874.989 319.269C876.269 320.519 877.811 321.274 879.304 321.864C880.262 322.242 881.344 321.773 881.723 320.815C882.101 319.858 881.632 318.775 880.674 318.396C880.573 318.357 880.459 318.324 880.356 318.302C879.074 318.043 877.856 317.668 876.902 317.019C875.948 316.38 875.235 315.432 874.828 314.194C874.609 313.589 874.481 312.921 874.38 312.243L874.258 311.255C874.23 310.947 874.237 310.635 874.286 310.322C874.472 309.062 875.384 307.828 876.61 307.027" fill="#8B5C35"/>
<path d="M507.444 306.294C508.061 306.624 508.63 307.082 509.12 307.663C509.359 307.958 509.573 308.29 509.75 308.658C509.932 309.025 510.051 309.455 510.072 309.806C510.228 311.283 510.109 312.779 509.7 314.249C509.289 315.708 508.562 317.178 507.327 318.371C506.706 318.954 505.969 319.466 505.146 319.803C504.327 320.147 503.448 320.339 502.583 320.395L502.506 320.4C501.477 320.465 500.59 319.684 500.525 318.655C500.459 317.627 501.239 316.739 502.268 316.674C502.371 316.667 502.484 316.67 502.583 316.68C503.572 316.785 504.507 316.597 505.358 316.027C506.206 315.457 506.932 314.522 507.435 313.433C507.94 312.345 508.251 311.108 508.318 309.871C508.33 309.723 508.316 309.547 508.344 309.421C508.372 309.286 508.382 309.146 508.387 309.002C508.393 308.713 508.361 308.407 508.289 308.098C508.137 307.483 507.854 306.855 507.444 306.294" fill="#B2B2D4"/>
<path d="M890.087 307.365C889.47 307.694 888.902 308.152 888.411 308.734C888.172 309.029 887.958 309.36 887.781 309.728C887.599 310.096 887.481 310.525 887.459 310.876C887.303 312.354 887.423 313.849 887.831 315.319C888.242 316.778 888.969 318.249 890.204 319.441C890.825 320.024 891.563 320.537 892.386 320.873C893.204 321.218 894.084 321.409 894.948 321.465L895.025 321.47C896.054 321.535 896.941 320.755 897.006 319.725C897.073 318.698 896.292 317.809 895.263 317.744C895.16 317.737 895.048 317.741 894.948 317.75C893.959 317.856 893.024 317.667 892.174 317.098C891.326 316.527 890.6 315.593 890.096 314.503C889.591 313.415 889.281 312.179 889.213 310.941C889.201 310.793 889.215 310.618 889.187 310.491C889.16 310.356 889.149 310.216 889.144 310.072C889.138 309.783 889.17 309.477 889.243 309.168C889.394 308.554 889.677 307.925 890.087 307.365" fill="#8B5C35"/>
<path d="M565.101 306.72C565.59 307.193 566.029 307.735 566.414 308.345C566.605 308.65 566.785 308.976 566.931 309.327C567.009 309.683 567.073 310.044 567.106 310.405C567.246 311.851 567.07 313.313 566.597 314.719C566.118 316.117 565.319 317.491 564.078 318.562C562.855 319.648 561.16 320.302 559.502 320.394L559.412 320.399C558.383 320.456 557.503 319.667 557.446 318.638C557.389 317.609 558.178 316.729 559.206 316.672C559.303 316.668 559.408 316.671 559.502 316.679C560.447 316.779 561.367 316.612 562.209 316.099C563.052 315.596 563.789 314.756 564.318 313.761C564.848 312.766 565.184 311.616 565.256 310.458C565.276 310.169 565.272 309.88 565.257 309.593C565.299 309.301 565.327 308.991 565.328 308.674C565.332 308.041 565.26 307.376 565.101 306.72" fill="#B2B2D4"/>
<path d="M832.431 307.791C831.942 308.264 831.502 308.806 831.117 309.416C830.927 309.722 830.747 310.047 830.601 310.398C830.523 310.754 830.459 311.116 830.426 311.477C830.286 312.923 830.461 314.384 830.935 315.791C831.414 317.188 832.213 318.562 833.454 319.634C834.677 320.719 836.372 321.373 838.03 321.466L838.12 321.47C839.149 321.527 840.029 320.738 840.085 319.709C840.142 318.68 839.354 317.8 838.326 317.744C838.229 317.739 838.123 317.742 838.03 317.751C837.085 317.85 836.165 317.683 835.323 317.17C834.479 316.667 833.743 315.827 833.214 314.833C832.684 313.837 832.348 312.687 832.276 311.529C832.255 311.24 832.26 310.951 832.274 310.664C832.233 310.372 832.205 310.063 832.203 309.745C832.2 309.112 832.272 308.447 832.431 307.791" fill="#8B5C35"/>
<path d="M578.793 306.37C580.061 307.032 581.244 307.983 582.081 309.348C582.279 309.692 582.466 310.068 582.588 310.458C582.699 310.839 582.769 311.237 582.819 311.64C582.909 312.447 582.864 313.292 582.661 314.108C582.267 315.752 581.271 317.213 580.05 318.312C578.823 319.424 577.382 320.221 575.885 320.794L575.853 320.806C574.891 321.174 573.812 320.692 573.444 319.729C573.075 318.767 573.557 317.689 574.52 317.32C574.621 317.282 574.732 317.252 574.834 317.232C576.04 316.998 577.208 316.592 578.211 315.96C579.214 315.333 580.048 314.476 580.514 313.417C580.751 312.89 580.889 312.312 580.929 311.71C580.944 311.408 580.947 311.1 580.912 310.789L580.882 310.335C580.863 310.183 580.835 310.03 580.808 309.874C580.533 308.635 579.785 307.386 578.793 306.37" fill="#B2B2D4"/>
<path d="M818.739 307.441C817.47 308.103 816.287 309.054 815.45 310.419C815.252 310.763 815.065 311.139 814.943 311.529C814.832 311.91 814.762 312.308 814.712 312.711C814.622 313.518 814.667 314.362 814.87 315.178C815.264 316.823 816.26 318.283 817.481 319.382C818.708 320.494 820.149 321.291 821.646 321.864L821.678 321.876C822.641 322.245 823.719 321.763 824.088 320.8C824.456 319.838 823.974 318.759 823.011 318.391C822.911 318.353 822.799 318.322 822.697 318.302C821.491 318.069 820.323 317.663 819.32 317.031C818.317 316.404 817.483 315.547 817.017 314.488C816.78 313.961 816.643 313.383 816.602 312.78C816.587 312.478 816.585 312.171 816.619 311.86L816.65 311.406C816.669 311.254 816.696 311.101 816.723 310.945C816.998 309.706 817.746 308.457 818.739 307.441" fill="#8B5C35"/>
<path d="M792.071 201.014C792.071 253.005 729.214 298.739 706.104 313.796C701 317.122 694.421 317.122 689.317 313.797C666.206 298.739 603.347 253.006 603.347 201.014C603.347 173.574 625.59 151.33 653.029 151.33C672.669 151.33 689.646 162.725 697.71 179.265C705.775 162.725 722.752 151.33 742.388 151.33C769.829 151.33 792.071 173.574 792.071 201.014Z" fill="#FF72A8"/>
<path d="M608.454 221.067C608.431 220.992 608.408 220.916 608.385 220.84C608.966 220.776 609.559 220.718 610.167 220.666C609.581 220.791 609.012 220.926 608.454 221.067V221.067ZM631.051 212.36C630.175 210.198 629.387 208.034 628.674 205.888C628.763 205.656 628.84 205.426 628.908 205.199C629.766 202.32 629.094 199.821 629.094 199.821C629.094 199.821 632.973 197.659 633.353 193.323C633.685 189.528 631.181 186.404 631.181 186.404C631.181 186.404 631.258 185.708 631.171 184.665C634.22 187.905 633.715 192.488 633.715 192.488C633.715 192.488 636.219 195.61 635.885 199.407C635.505 203.74 631.627 205.905 631.627 205.905C631.627 205.905 632.476 209.057 631.051 212.36" fill="#FF5F9C"/>
<path d="M789.078 222.139C789.101 222.063 789.124 221.987 789.147 221.911C788.567 221.847 787.973 221.789 787.365 221.737C787.951 221.863 788.521 221.998 789.078 222.139V222.139ZM766.481 213.431C767.358 211.269 768.145 209.105 768.858 206.959C768.769 206.727 768.692 206.498 768.625 206.27C767.766 203.391 768.439 200.893 768.439 200.893C768.439 200.893 764.559 198.73 764.179 194.394C763.848 190.6 766.351 187.476 766.351 187.476C766.351 187.476 766.274 186.779 766.362 185.736C763.312 188.976 763.817 193.559 763.817 193.559C763.817 193.559 761.313 196.682 761.647 200.478C762.027 204.811 765.906 206.976 765.906 206.976C765.906 206.976 765.057 210.128 766.481 213.431" fill="#FF5F9C"/>
<path d="M656.876 173.598C651.962 173.598 650.486 171.214 650.486 171.214C650.486 171.214 648.2 172.055 645.953 172.055C645.09 172.055 644.234 171.93 643.515 171.587C636.777 168.367 637.807 160.245 637.807 160.245C637.886 159.945 637.974 159.651 638.071 159.366C638.404 160.896 639.062 162.613 640.332 164.099C641.128 165.032 642.166 165.873 643.515 166.518C644.071 166.784 644.71 166.919 645.371 166.965C645.565 166.979 645.761 166.986 645.958 166.986C648.179 166.986 650.44 166.163 650.487 166.147C650.499 166.166 650.711 166.496 651.221 166.906C652.087 167.603 653.813 168.529 656.874 168.529C657.44 168.529 658.053 168.497 658.714 168.426C658.917 168.405 659.119 168.375 659.323 168.339C661.571 167.931 663.83 166.644 665.307 165.655C666.317 164.979 666.962 164.441 666.991 164.418C667.023 164.427 668.059 164.728 669.486 164.728C670.639 164.728 672.048 164.533 673.392 163.828C673.544 163.75 673.694 163.663 673.845 163.571C674.481 163.178 675.042 162.653 675.524 162.031C676.122 162.336 676.714 162.652 677.298 162.98C676.835 165.396 675.627 167.533 673.842 168.641C672.369 169.555 670.769 169.796 669.486 169.796C668.035 169.796 666.989 169.486 666.989 169.486C666.989 169.486 662.723 173.067 658.715 173.495C658.055 173.566 657.444 173.598 656.876 173.598" fill="#FF5F9C"/>
<path d="M740.656 174.668C745.57 174.668 747.046 172.285 747.046 172.285C747.046 172.285 749.333 173.125 751.579 173.125C752.442 173.125 753.299 173.001 754.017 172.658C760.755 169.438 759.725 161.315 759.725 161.315C759.646 161.016 759.558 160.722 759.461 160.437C759.128 161.967 758.47 163.684 757.201 165.17C756.405 166.103 755.366 166.944 754.017 167.589C753.461 167.855 752.822 167.99 752.162 168.036C751.967 168.05 751.771 168.057 751.574 168.057C749.353 168.057 747.092 167.234 747.045 167.217C747.033 167.236 746.821 167.567 746.312 167.976C745.445 168.674 743.719 169.6 740.658 169.6C740.092 169.6 739.479 169.568 738.818 169.497C738.616 169.476 738.413 169.446 738.209 169.409C735.962 169.002 733.702 167.715 732.226 166.726C731.215 166.05 730.57 165.512 730.542 165.488C730.51 165.498 729.473 165.799 728.046 165.799C726.893 165.799 725.484 165.603 724.14 164.899C723.988 164.821 723.838 164.734 723.687 164.642C723.051 164.249 722.49 163.724 722.008 163.102C721.41 163.407 720.818 163.723 720.234 164.051C720.697 166.467 721.905 168.604 723.69 169.711C725.163 170.626 726.763 170.867 728.046 170.867C729.497 170.867 730.543 170.557 730.543 170.557C730.543 170.557 734.809 174.138 738.817 174.565C739.478 174.636 740.089 174.668 740.656 174.668" fill="#FF5F9C"/>
<path d="M677.298 162.979C676.714 162.651 676.122 162.335 675.524 162.031C676.058 161.342 676.493 160.533 676.818 159.652C677.043 159.781 677.266 159.911 677.489 160.045C677.548 161.036 677.48 162.029 677.298 162.979Z" fill="#FF5F9C"/>
<path d="M720.233 164.051C720.817 163.723 721.409 163.407 722.007 163.102C721.473 162.413 721.039 161.604 720.713 160.723C720.488 160.852 720.265 160.982 720.043 161.116C719.984 162.107 720.051 163.1 720.233 164.051Z" fill="#FF5F9C"/>
<path d="M574.78 228.536C573.286 228.536 571.683 228.452 569.938 228.267C544.014 225.529 543.07 199.243 543.8 188.411C544.306 192.616 545.371 197.965 547.599 203.108C551.385 211.854 558.535 219.995 571.998 220.879C574.024 221.011 575.894 221.073 577.637 221.072C589.874 221.072 597.698 217.669 604.921 215.438C605.317 217.29 605.908 219.175 606.449 221.04C593.373 223.26 586.223 228.536 574.78 228.536Z" fill="#B2B2D4"/>
<path d="M822.751 229.606C824.245 229.606 825.849 229.522 827.593 229.337C853.518 226.599 854.462 200.313 853.731 189.481C853.225 193.687 852.161 199.036 849.932 204.179C846.146 212.924 838.996 221.065 825.534 221.949C823.508 222.081 821.638 222.143 819.894 222.142C807.657 222.142 797.784 218.181 790.56 215.95C790.164 217.802 789.318 220.084 788.777 221.949C801.853 224.168 811.308 229.606 822.751 229.606Z" fill="#8B5C35"/>
<path d="M610.167 220.667C610.174 220.665 610.18 220.663 610.186 220.662C610.187 220.665 610.186 220.662 610.187 220.664C610.183 220.665 610.176 220.665 610.171 220.665C610.17 220.665 610.169 220.667 610.167 220.667" fill="#B21473"/>
<path d="M787.364 221.737C787.357 221.736 787.351 221.734 787.346 221.733C787.344 221.736 787.346 221.733 787.344 221.735C787.349 221.736 787.356 221.736 787.361 221.736C787.362 221.736 787.363 221.737 787.364 221.737" fill="#B21473"/>
<path d="M606.45 221.043C605.842 219.008 605.091 217.202 604.667 215.187C605.084 215.089 607.677 214.573 608.109 214.484C608.718 216.56 609.413 218.62 610.186 220.662C610.18 220.663 610.174 220.665 610.167 220.666C609.558 220.719 607.03 220.98 606.45 221.043Z" fill="#FF5F9C"/>
<path d="M789.147 221.911C789.754 219.875 790.27 217.848 790.694 215.833C790.277 215.735 789.855 215.643 789.422 215.554C788.814 217.63 788.119 219.691 787.345 221.732C787.351 221.733 787.357 221.736 787.364 221.737C787.973 221.789 788.566 221.847 789.147 221.911" fill="#FF5F9C"/>
<path d="M613.623 220.055C618.516 218.687 621.378 215.45 623.002 211.653C626.256 210.122 627.889 207.953 628.674 205.888C629.387 208.034 630.175 210.198 631.051 212.36C629.636 215.64 625.979 219.068 617.024 219.702C615.825 219.786 614.696 219.906 613.623 220.055Z" fill="#FF5F9C"/>
<path d="M783.909 221.126C779.016 219.758 776.154 216.521 774.53 212.724C771.276 211.193 769.643 209.023 768.858 206.959C768.145 209.105 767.357 211.269 766.481 213.431C767.896 216.711 771.553 220.138 780.508 220.773C781.708 220.857 782.836 220.977 783.909 221.126Z" fill="#FF5F9C"/>
<path d="M610.188 220.664C610.187 220.661 610.188 220.665 610.187 220.661C611.271 220.428 612.412 220.223 613.623 220.055C612.574 220.349 611.432 220.556 610.188 220.664" fill="#FF5F9C"/>
<path d="M787.344 221.735C787.345 221.732 787.344 221.736 787.345 221.732C786.26 221.499 785.12 221.294 783.909 221.126C784.958 221.42 786.099 221.627 787.344 221.735" fill="#FF5F9C"/>
<path d="M610.186 220.662C609.413 218.62 608.718 216.56 608.109 214.484C610.031 214.09 612.125 213.787 614.49 213.619C618.137 213.361 620.906 212.64 623.002 211.653C621.378 215.45 618.516 218.688 613.623 220.055C612.412 220.223 611.271 220.428 610.186 220.662" fill="#FF5F9C"/>
<path d="M787.346 221.732C788.119 219.691 788.814 217.63 789.423 215.554C787.501 215.161 785.407 214.858 783.042 214.69C779.395 214.432 776.626 213.711 774.53 212.724C776.154 216.521 779.016 219.758 783.909 221.126C785.121 221.294 786.261 221.499 787.346 221.732" fill="#FF5F9C"/>
<path d="M625.547 130.858C625.553 130.607 625.563 130.412 625.575 130.277L625.547 130.858Z" fill="#D5CFD1"/>
<path d="M771.985 131.929C771.979 131.678 771.968 131.483 771.956 131.348L771.985 131.929Z" fill="#D79863"/>
<path d="M503.263 142.469C503.283 142.502 503.308 142.532 503.329 142.565L503.244 142.448L503.263 142.469" fill="#000072"/>
<path d="M503.33 142.566L505.818 145.937C504.965 144.85 504.129 143.733 503.33 142.566Z" fill="#000072"/>
<path d="M654.747 130.531L654.678 130.669C654.692 130.633 654.712 130.591 654.731 130.555L654.747 130.531Z" fill="#000072"/>
<path d="M742.785 131.602L742.854 131.74C742.84 131.704 742.82 131.662 742.801 131.625L742.785 131.602Z" fill="#000072"/>
<path d="M503.289 142.213L505.695 144.725C504.869 143.917 504.061 143.085 503.289 142.213Z" fill="#D5CFD1"/>
<path d="M654.665 130.307C654.039 131.288 653.37 132.236 652.681 133.164L654.665 130.307Z" fill="#D5CFD1"/>
<path d="M742.867 131.379C743.493 132.359 744.162 133.308 744.852 134.235L742.867 131.379Z" fill="#D79863"/>
<path d="M671.435 113.586C671.306 117.235 663.659 114.392 661.99 113.726C661.851 113.672 661.728 113.816 661.774 113.965C661.97 114.582 662.481 115.955 663.665 118.117C665.123 120.784 666.311 122.853 665.861 124.353C665.376 125.944 662.919 126.735 659.766 126.63C658.004 126.57 656.243 128.243 654.722 130.22L654.707 130.239C653.968 131.199 653.281 132.226 652.681 133.164L652.639 133.225C650.085 136.649 647.141 139.744 643.891 142.525C639.684 146.008 634.964 148.864 629.94 151.204C629.94 151.204 606.326 162.089 581.167 164.068C556.009 166.047 530.983 158.988 530.983 158.988C525.649 157.461 520.546 155.379 515.846 152.598C512.197 150.36 508.805 147.761 505.746 144.78L505.727 144.758C505.715 144.748 505.708 144.736 505.695 144.725C504.956 143.893 504.118 142.987 503.238 142.153C501.421 140.434 499.414 139.044 497.677 139.381C494.578 139.975 492.027 139.579 491.3 138.083C490.621 136.673 491.472 134.444 492.494 131.58C493.325 129.259 493.616 127.825 493.712 127.185C493.735 127.031 493.59 126.908 493.462 126.982C491.923 127.9 484.815 131.904 484.112 128.32C483.721 126.33 486.493 120.019 487.141 113.73C489.005 95.4916 489.674 91.8656 489.674 91.8656C489.688 91.7471 491.854 78.6072 495.864 68.7415C491.06 61.8849 470.628 31.3062 479.382 18.3676C480.668 16.4681 484.204 15.7682 488.896 15.8263C502.469 15.9778 525.699 22.3986 532.066 24.2472C540.827 19.2166 550.93 15.7457 562.355 14.3484C563.578 14.1932 566.189 13.7894 569.27 13.5526C572.006 13.343 575.242 13.2826 576.335 13.2494C587.837 12.8421 598.364 14.6918 607.798 18.2906C615.877 14.4976 652.831 -2.27084 658.914 4.24587C658.997 4.3335 659.075 4.42115 659.158 4.51352C669.348 16.1673 654.16 49.1085 650.511 56.5773C656.015 65.6945 660.207 78.3348 660.241 78.4497C660.241 78.4497 661.469 81.9265 666.166 99.647C667.784 105.76 671.51 111.559 671.435 113.586Z" fill="#D5CFD1"/>
<path d="M632.864 83.3252C642.552 83.3252 651.636 80.7389 659.464 76.2199C658.005 72.1699 654.624 63.3914 650.512 56.5775C654.16 49.1086 669.348 16.1675 659.158 4.51367C659.075 4.4213 658.998 4.33365 658.914 4.24602C652.831 -2.27069 615.877 14.4977 607.798 18.2907C600.014 15.3207 591.484 13.5468 582.277 13.2437C580.526 18.524 579.575 24.168 579.575 30.0357C579.575 59.4669 603.433 83.3252 632.864 83.3252" fill="#B4B3B2"/>
<path d="M503.234 142.154C503.25 142.167 503.264 142.181 503.273 142.189C503.293 142.213 503.313 142.235 503.332 142.258L503.234 142.154Z" fill="#000072"/>
<path d="M505.682 144.716C504.875 143.926 504.09 143.111 503.333 142.259L505.682 144.716Z" fill="#000072"/>
<path d="M652.687 133.153L654.62 130.374C654.01 131.328 653.364 132.252 652.687 133.153Z" fill="#000072"/>
<path d="M744.845 134.224L742.913 131.444C743.522 132.399 744.168 133.322 744.845 134.224Z" fill="#000072"/>
<path d="M654.819 131.694L654.835 131.679L654.747 131.808C654.769 131.768 654.796 131.733 654.819 131.694Z" fill="#D5CFD1"/>
<path d="M742.713 132.765L742.698 132.75L742.785 132.878C742.763 132.839 742.736 132.804 742.713 132.765Z" fill="#D79863"/>
<path d="M640.283 49.1162C634.044 38.9675 627.543 32.8581 624.514 30.318C623.649 29.5933 623.616 28.1248 624.459 27.4072C632.704 20.3813 644.005 16.4639 648.314 15.1471C649.942 14.6497 651.651 15.7783 652.075 17.6623C652.55 19.7738 652.59 23.3466 651.254 29.3825C649.313 38.1516 645.059 45.7104 642.88 49.1848C642.247 50.1938 640.919 50.1523 640.283 49.1162" fill="#FFA8A1"/>
<path d="M504.814 59.7726C509.39 48.7736 514.855 41.7228 517.449 38.7398C518.191 37.8884 517.993 36.4341 517.049 35.8562C507.807 30.2064 496.033 28.1044 491.571 27.4768C489.884 27.2399 488.373 28.6219 488.249 30.5498C488.109 32.7098 488.629 36.2447 490.892 41.9964C494.181 50.3545 499.564 57.1554 502.259 60.2462C503.042 61.1439 504.347 60.8952 504.814 59.7726" fill="#FFA8A1"/>
<path d="M500.934 133.268C500.963 133.302 500.997 133.33 501.026 133.364L500.916 133.256L500.934 133.268Z" fill="#000072"/>
<path d="M896.597 134.339C896.568 134.373 896.534 134.401 896.505 134.435L896.616 134.328L896.597 134.339Z" fill="#000072"/>
<path d="M652.401 121.354L652.418 121.34L652.313 121.477C652.346 121.435 652.374 121.396 652.401 121.354Z" fill="#000072"/>
<path d="M745.131 122.425L745.114 122.411L745.219 122.547C745.186 122.505 745.158 122.467 745.131 122.425Z" fill="#000072"/>
<path d="M501.596 140.558L501.48 140.447L501.498 140.459C501.531 140.49 501.563 140.527 501.596 140.558Z" fill="#000072"/>
<path d="M895.935 141.628L896.051 141.518L896.033 141.529C896.001 141.561 895.968 141.597 895.935 141.628Z" fill="#000072"/>
<path d="M503.99 142.842L503.968 142.827C503.153 142.099 502.361 141.342 501.598 140.558L503.99 142.842" fill="#000072"/>
<path d="M500.929 133.153C500.96 133.186 500.993 133.221 501.025 133.252L500.905 133.138L500.924 133.15L500.929 133.153Z" fill="#0F2675"/>
<path d="M896.603 134.225C896.572 134.257 896.539 134.292 896.506 134.324L896.626 134.209L896.608 134.221L896.603 134.225Z" fill="#0F2675"/>
<path d="M652.367 121.268L652.39 121.24L652.313 121.344C652.332 121.317 652.348 121.295 652.367 121.268Z" fill="#0F2675"/>
<path d="M745.165 122.338L745.142 122.31L745.219 122.414C745.2 122.387 745.184 122.365 745.165 122.338Z" fill="#0F2675"/>
<path d="M584.4 111.39C584.535 113.108 582.414 114.801 580.439 115.993C578.372 117.24 575.963 117.43 573.727 116.52C571.589 115.652 569.23 114.311 569.095 112.594C568.688 107.414 583.993 106.21 584.4 111.39" fill="#434343"/>
<path d="M565.513 120.594C565.954 121.165 566.504 121.809 567.061 122.303C567.625 122.81 568.229 123.223 568.843 123.478C569.454 123.748 570.071 123.846 570.699 123.844C571.017 123.787 571.334 123.801 571.658 123.678C571.819 123.626 571.984 123.602 572.146 123.542L572.629 123.339C573.923 122.798 574.842 121.808 575.444 120.484C576.04 119.176 576.259 117.49 576.256 115.962V115.859C576.255 115.298 576.709 114.844 577.268 114.843C577.74 114.841 578.137 115.165 578.251 115.6C578.515 116.609 578.593 117.526 578.583 118.52C578.556 119.498 578.436 120.504 578.088 121.485C577.477 123.452 575.888 125.324 573.918 126.153L573.188 126.468C572.941 126.565 572.668 126.623 572.406 126.692C571.893 126.854 571.316 126.871 570.764 126.92C569.626 126.927 568.493 126.612 567.53 126.094C566.568 125.564 565.78 124.851 565.152 124.065C564.524 123.26 564.042 122.457 563.681 121.462C563.489 120.935 563.761 120.354 564.286 120.162C564.713 120.007 565.175 120.155 565.436 120.495L565.513 120.594" fill="#434343"/>
<path d="M591.773 119.253C591.571 120.291 591.222 121.159 590.728 122.053C590.23 122.927 589.563 123.756 588.694 124.429C587.826 125.091 586.756 125.58 585.631 125.752C585.078 125.788 584.506 125.863 583.972 125.782C583.703 125.755 583.426 125.741 583.165 125.683L582.394 125.486C580.32 124.976 578.457 123.375 577.546 121.528C577.049 120.613 576.773 119.638 576.594 118.677C576.428 117.697 576.363 116.778 576.465 115.741C576.521 115.184 577.017 114.776 577.575 114.832C578.044 114.878 578.407 115.237 578.477 115.683L578.493 115.785C578.729 117.296 579.209 118.927 580.002 120.125C580.803 121.339 581.865 122.173 583.228 122.506L583.737 122.631C583.907 122.664 584.074 122.662 584.241 122.688C584.581 122.759 584.891 122.696 585.214 122.702C585.833 122.606 586.429 122.413 586.99 122.051C587.556 121.703 588.088 121.201 588.565 120.612C589.039 120.037 589.482 119.315 589.828 118.682L589.887 118.573C590.156 118.08 590.773 117.9 591.264 118.169C591.661 118.386 591.855 118.831 591.773 119.253" fill="#434343"/>
<path d="M631.5 122.902C631.681 125.21 627.931 127.386 623.125 127.764C618.318 128.143 614.274 126.579 614.093 124.271C613.91 121.964 617.661 119.787 622.468 119.408C627.274 119.031 631.317 120.595 631.5 122.902Z" fill="#E48780"/>
<path d="M542.898 129.8C543.08 132.106 539.33 134.283 534.524 134.662C529.717 135.04 525.673 133.475 525.492 131.169C525.31 128.861 529.06 126.684 533.866 126.306C538.673 125.927 542.716 127.492 542.898 129.8Z" fill="#E48780"/>
<path d="M550.96 103.064C551.325 107.754 549.175 111.75 546.159 111.988C543.144 112.229 540.404 108.623 540.041 103.935C539.676 99.2452 541.826 95.2494 544.842 95.0109C547.857 94.7705 550.597 98.3764 550.96 103.064Z" fill="black"/>
<path d="M619.033 92.0917C617.263 92.7596 615.469 93.5199 613.818 94.3642C612.155 95.2145 610.596 96.1701 609.155 97.2288C608.419 97.7404 607.761 98.3325 607.079 98.8903L606.134 99.8069C605.981 99.9632 605.809 100.102 605.665 100.264L605.233 100.755C604.019 102.018 603.088 103.5 602.17 105L598.595 101.466C598.761 101.382 598.864 101.337 598.976 101.286C599.092 101.234 599.2 101.186 599.306 101.146C599.521 101.06 599.737 100.974 599.947 100.905C600.37 100.748 600.793 100.625 601.216 100.498C602.061 100.254 602.92 100.088 603.778 99.9537C605.499 99.6943 607.249 99.6636 608.965 99.8684C610.679 100.077 612.366 100.477 613.926 101.154C615.503 101.78 616.925 102.708 618.214 103.721C618.607 104.03 618.676 104.601 618.365 104.994C618.14 105.283 617.773 105.396 617.439 105.316L617.334 105.29C616.587 105.109 615.892 104.856 615.17 104.698C614.445 104.552 613.747 104.372 613.027 104.301C611.612 104.075 610.197 104.038 608.809 104.12C607.421 104.184 606.052 104.411 604.725 104.759C604.392 104.84 604.066 104.949 603.738 105.041L602.774 105.369C602.46 105.49 602.144 105.607 601.847 105.743C601.693 105.807 601.552 105.877 601.411 105.946C601.338 105.979 601.268 106.011 601.209 106.043L601.067 106.117L601.013 106.145C599.728 106.813 598.145 106.313 597.477 105.028C597.065 104.237 597.104 103.318 597.49 102.584C598.531 100.633 599.706 98.7032 601.279 97.1092C602 96.253 602.893 95.5757 603.724 94.8426C604.629 94.2055 605.51 93.5329 606.488 93.0308C608.399 91.9555 610.441 91.1657 612.53 90.6979C614.632 90.2408 616.724 90.0395 618.909 90.2965C619.41 90.3557 619.768 90.8092 619.708 91.3102C619.668 91.6595 619.434 91.9402 619.126 92.0574L619.033 92.0917" fill="#434343"/>
<path d="M543.372 180.496C543.372 180.496 541.836 218.895 571.999 220.876C594.769 222.372 598.238 214.772 614.489 213.619C632.462 212.345 629.093 199.822 629.093 199.822C629.093 199.822 632.973 197.66 633.353 193.323C633.685 189.529 631.181 186.405 631.181 186.405C631.181 186.405 631.719 181.532 628.337 178.28C621.281 171.497 606.865 169.168 594.879 179.775C590.597 183.565 585.629 185.149 580.478 184.207L543.372 180.496Z" fill="#D5CFD1"/>
<path d="M854.16 181.566C854.16 181.566 855.696 219.965 825.533 221.946C806.44 223.201 800.918 218.059 790.051 215.687C787.958 215.23 785.668 214.876 783.044 214.69C765.07 213.415 768.439 200.892 768.439 200.892C768.439 200.892 764.559 198.73 764.179 194.393C763.848 190.599 766.351 187.475 766.351 187.475C766.351 187.475 765.813 182.602 769.196 179.35C776.251 172.567 790.668 170.238 802.653 180.845C806.935 184.636 811.903 186.219 817.054 185.277L854.16 181.566Z" fill="#D79863"/>
<path d="M825.856 222.165C856.019 220.184 854.483 181.785 854.483 181.785L817.377 185.496C812.226 186.438 807.258 184.854 802.976 181.064C797.478 185.665 787.192 199.12 790.305 215.95C800.932 219.051 806.763 223.419 825.856 222.165Z" fill="#A6744A"/>
<path d="M628.674 205.889C628.763 205.657 628.84 205.427 628.908 205.199C628.84 205.427 628.763 205.657 628.674 205.889Z" fill="#7C0E73"/>
<path d="M768.857 206.959C768.769 206.727 768.692 206.497 768.624 206.27C768.692 206.497 768.769 206.727 768.857 206.959Z" fill="#7C0E73"/>
<path d="M577.637 221.072C575.893 221.073 574.024 221.011 571.997 220.879C558.535 219.995 551.385 211.854 547.599 203.108C551.386 211.85 558.535 219.992 571.999 220.876C574.024 221.009 575.898 221.071 577.641 221.071C589.879 221.071 595.697 218.06 602.919 215.83C595.696 218.061 589.874 221.072 577.637 221.072Z" fill="#7C7CB6"/>
<path d="M819.895 222.142C821.638 222.143 823.508 222.082 825.534 221.949C838.996 221.066 846.146 212.924 849.932 204.179C846.145 212.921 838.996 221.062 825.533 221.947C823.508 222.079 821.633 222.141 819.89 222.141C807.652 222.141 801.834 219.131 794.612 216.901C801.835 219.132 807.657 222.142 819.895 222.142Z" fill="#7C7CB6"/>
<path d="M606.837 214.762C606.837 214.76 606.839 214.763 606.837 214.761C607.253 214.665 607.677 214.572 608.109 214.484C607.677 214.573 607.254 214.665 606.837 214.762Z" fill="#570A73"/>
<path d="M623.001 211.654V211.653C626.254 210.121 627.889 207.952 628.674 205.889C627.889 207.953 626.256 210.123 623.001 211.654" fill="#570A73"/>
<path d="M774.53 212.724V212.723C771.277 211.192 769.643 209.022 768.858 206.959C769.643 209.023 771.276 211.193 774.53 212.724" fill="#570A73"/>
<path d="M608.109 214.484C610.031 214.091 612.124 213.788 614.489 213.619C618.137 213.361 620.906 212.639 623.002 211.652V211.654C620.906 212.64 618.137 213.361 614.49 213.619C612.125 213.788 610.031 214.091 608.109 214.484" fill="#3D0773"/>
<path d="M789.423 215.554C787.501 215.161 785.408 214.858 783.043 214.69C779.395 214.432 776.626 213.709 774.53 212.723V212.724C776.626 213.71 779.395 214.432 783.042 214.69C785.407 214.858 787.501 215.161 789.423 215.554" fill="#3D0773"/>
<path d="M602.919 215.83C604.17 215.444 605.461 215.081 606.837 214.76C606.838 214.763 606.837 214.759 606.837 214.761C605.463 215.08 604.169 215.444 602.919 215.83" fill="#000072"/>
<path d="M637.807 155.176C637.807 155.176 636.777 163.297 643.515 166.518C646.104 167.755 650.486 166.145 650.486 166.145C650.486 166.145 652.321 169.109 658.715 168.426C662.723 167.999 666.989 164.417 666.989 164.417C666.989 164.417 670.702 165.519 673.842 163.572C678.252 160.838 679.141 151.813 673.973 147.824C668.993 143.982 641.837 139.836 637.807 155.176" fill="#D5CFD1"/>
<path d="M656.874 168.529C653.812 168.529 652.087 167.603 651.22 166.906C652.087 167.603 653.814 168.528 656.876 168.528C657.443 168.528 658.054 168.497 658.715 168.426C658.917 168.405 659.12 168.375 659.322 168.339C659.119 168.375 658.916 168.405 658.714 168.426C658.053 168.497 657.44 168.529 656.874 168.529V168.529ZM645.957 166.986C645.761 166.986 645.564 166.979 645.37 166.965C645.563 166.979 645.757 166.985 645.953 166.985C648.199 166.985 650.486 166.145 650.486 166.145C650.486 166.145 650.486 166.145 650.487 166.147C650.44 166.163 648.179 166.986 645.957 166.986ZM665.306 165.655C666.339 164.964 666.989 164.418 666.989 164.418H666.99C666.962 164.441 666.316 164.979 665.306 165.655" fill="#7C0E73"/>
<path d="M740.658 169.6C743.719 169.6 745.445 168.674 746.312 167.976C745.445 168.674 743.718 169.598 740.656 169.598C740.089 169.598 739.478 169.568 738.817 169.497C738.614 169.475 738.412 169.446 738.209 169.409C738.413 169.446 738.615 169.475 738.818 169.497C739.479 169.568 740.092 169.6 740.658 169.6V169.6ZM751.574 168.057C751.771 168.057 751.967 168.049 752.162 168.035C751.969 168.049 751.774 168.055 751.579 168.055C749.333 168.055 747.046 167.216 747.046 167.216C747.046 167.216 747.046 167.216 747.045 167.217C747.092 167.234 749.353 168.057 751.574 168.057ZM732.225 166.726C731.193 166.034 730.543 165.488 730.543 165.488H730.541C730.57 165.512 731.215 166.049 732.225 166.726" fill="#7C0E73"/>
<path d="M638.071 159.366C638.042 159.234 638.015 159.103 637.991 158.975C637.992 158.974 637.991 158.975 637.992 158.974C638.016 159.103 638.042 159.232 638.071 159.363C638.071 159.365 638.071 159.365 638.071 159.366" fill="#B21473"/>
<path d="M759.461 160.436C759.489 160.305 759.516 160.173 759.54 160.045C759.539 160.044 759.54 160.045 759.539 160.044C759.515 160.173 759.489 160.302 759.461 160.434C759.461 160.435 759.461 160.435 759.461 160.436" fill="#B21473"/>
<path d="M637.992 158.975C637.749 157.677 637.734 156.548 637.759 155.866C637.76 155.865 637.759 155.866 637.76 155.865C637.735 156.547 637.75 157.676 637.993 158.973C637.992 158.975 637.993 158.973 637.992 158.975Z" fill="#B2539A"/>
<path d="M759.54 160.046C759.783 158.748 759.798 157.619 759.774 156.937C759.772 156.936 759.774 156.937 759.772 156.936C759.797 157.618 759.782 158.747 759.539 160.045C759.54 160.046 759.539 160.045 759.54 160.046Z" fill="#B2539A"/>
<path d="M640.331 164.099C639.062 162.612 638.404 160.895 638.071 159.365C638.071 159.364 638.071 159.364 638.071 159.363C638.404 160.893 639.062 162.612 640.331 164.099Z" fill="#7C0E73"/>
<path d="M757.2 165.169C758.469 163.683 759.128 161.966 759.46 160.436C759.46 160.435 759.46 160.435 759.46 160.434C759.128 161.964 758.469 163.683 757.2 165.169Z" fill="#7C0E73"/>
<path d="M637.758 155.866C637.774 155.43 637.806 155.177 637.806 155.177C637.983 154.502 638.202 153.867 638.468 153.268C638.205 153.868 637.984 154.503 637.807 155.176C637.807 155.176 637.775 155.43 637.759 155.865C637.758 155.866 637.759 155.865 637.758 155.866" fill="#000072"/>
<path d="M759.774 156.937C759.759 156.501 759.727 156.248 759.727 156.248C759.549 155.573 759.33 154.938 759.065 154.339C759.327 154.939 759.548 155.574 759.725 156.247C759.725 156.247 759.757 156.501 759.773 156.936C759.774 156.937 759.773 156.936 759.774 156.937" fill="#000072"/>
<path d="M673.392 163.828C673.543 163.749 673.692 163.664 673.842 163.572C674.478 163.178 675.04 162.652 675.522 162.03C675.523 162.031 675.522 162.031 675.523 162.031C675.041 162.653 674.48 163.178 673.844 163.571C673.694 163.663 673.543 163.749 673.392 163.828Z" fill="#7C0E73"/>
<path d="M724.14 164.899C723.988 164.821 723.839 164.736 723.69 164.643C723.054 164.249 722.491 163.723 722.009 163.101C722.008 163.102 722.009 163.102 722.008 163.102C722.49 163.724 723.051 164.249 723.687 164.642C723.838 164.734 723.988 164.821 724.14 164.899Z" fill="#7C0E73"/>
<path d="M675.524 162.032C675.522 162.032 675.524 162.032 675.522 162.031C676.057 161.341 676.491 160.533 676.817 159.651L676.818 159.653C676.492 160.534 676.058 161.343 675.524 162.032Z" fill="#FF5F9C"/>
<path d="M722.009 163.102C722.01 163.102 722.009 163.102 722.01 163.101C721.476 162.412 721.041 161.603 720.715 160.722L720.714 160.723C721.04 161.604 721.475 162.413 722.009 163.102Z" fill="#7C3A8E"/>
<path d="M676.818 159.652L676.817 159.651C677.288 158.373 677.53 156.942 677.507 155.498C677.53 156.942 677.289 158.373 676.818 159.652Z" fill="#000072"/>
<path d="M720.714 160.723L720.715 160.721C720.244 159.444 720.002 158.012 720.024 156.568C720.002 158.012 720.242 159.444 720.714 160.723Z" fill="#000072"/>
<path d="M759.725 156.247C759.725 156.247 760.755 164.368 754.017 167.589C751.429 168.825 747.046 167.216 747.046 167.216C747.046 167.216 745.212 170.18 738.817 169.497C734.809 169.069 730.543 165.488 730.543 165.488C730.543 165.488 726.83 166.59 723.69 164.643C719.28 161.908 718.392 152.884 723.559 148.895C728.539 145.052 755.695 140.906 759.725 156.247" fill="#D79863"/>
<path d="M806.156 161.382C711.489 149.758 728.859 109.421 735.674 97.7997C736.397 96.5636 737.104 95.2364 737.783 93.8431C741.303 86.672 744.211 77.8745 745.937 72.1374C746.839 69.133 747.602 66.0846 748.286 63.0212C762.585 -0.634666 824.752 9.93062 824.752 9.93062C824.752 9.93062 887.628 14.7186 886.103 79.943C886.026 83.081 886.028 86.2233 886.177 89.3568C886.52 96.5007 887.44 108.291 889.927 116.74C893.728 129.665 900.823 173.005 806.156 161.382Z" fill="#A6744A"/>
<path d="M761.586 152.606C758.394 150.872 755.456 149.077 752.766 147.273C752.948 146.895 753.127 146.533 753.305 146.187C755.975 147.494 758.857 148.728 761.944 149.885C761.796 150.813 761.678 151.721 761.586 152.606Z" fill="#8B5C35"/>
<path d="M794.039 164.447C781.174 161.719 770.408 157.396 761.587 152.606C761.679 151.721 761.797 150.813 761.945 149.885C769.043 152.546 777.234 154.804 786.515 156.658C786.641 156.909 786.774 157.157 786.912 157.401C788.537 160.275 790.961 162.651 794.039 164.447" fill="#8B5C35"/>
<path d="M851.525 163.649C851.649 162.769 851.755 161.859 851.835 160.923C855.118 160.546 858.22 160.044 861.133 159.419C861.222 159.797 861.309 160.192 861.395 160.601C858.342 161.703 855.049 162.737 851.525 163.649" fill="#8B5C35"/>
<path d="M817.174 167.288C820.594 166.29 823.52 164.571 825.792 162.176C825.986 161.972 826.174 161.763 826.357 161.55C835.811 161.997 844.305 161.787 851.836 160.923C851.755 161.859 851.65 162.769 851.525 163.65C841.807 166.163 830.316 167.753 817.174 167.288Z" fill="#8B5C35"/>
<path d="M736.308 109.864C709.36 104.664 707.311 90.3886 712.765 76.6734C716.944 66.1423 725.544 55.9387 730.7 50.4139C733.419 47.501 735.607 44.1409 737.237 40.5017C758.932 -7.98628 790.908 12.3149 790.908 12.3149C790.908 12.3149 790.924 12.9922 790.934 14.229C791.005 28.7073 789.366 120.101 736.308 109.864" fill="#A6744A"/>
<path d="M729.488 105.76C720.678 102.977 715.289 98.6968 713.43 92.9879C712.046 88.7356 712.632 83.947 714.316 79.1313C716.422 81.7525 719.366 83.2355 722.431 83.6119C727.676 84.2559 733.275 81.6588 735.636 75.972C737.762 70.8498 739.979 64.8032 741.68 58.4761C744.857 46.6562 757.64 22.0596 778.577 15.6977C765.255 23.0665 751.771 36.8372 746.006 62.509C745.235 65.9435 744.502 68.7894 743.697 71.4645C741.846 77.6187 738.081 89.0701 733.657 96.6168C732.279 98.9667 730.696 102.106 729.488 105.76Z" fill="#8B5C35"/>
<path d="M886.392 128.292C913.799 129.766 919.24 116.41 917.266 101.783C915.759 90.5538 909.883 78.5727 906.216 71.9647C904.282 68.4804 902.973 64.6909 902.272 60.7655C892.951 8.46921 857.014 20.4316 857.014 20.4316C857.014 20.4316 856.834 21.0849 856.525 22.2826C852.954 36.3137 832.434 125.389 886.392 128.292" fill="#A6744A"/>
<path d="M894.003 125.959C893.715 122.121 892.939 118.693 892.17 116.079C889.703 107.687 888.82 95.6641 888.513 89.2441C888.379 86.4546 888.356 83.5159 888.439 79.9968C889.056 53.6929 879.304 37.0692 868.16 26.6964C886.938 37.9347 893.389 64.893 893.612 77.1302C893.732 83.681 894.421 90.0844 895.244 95.5687C896.159 101.658 900.962 105.533 906.208 106.176C909.273 106.552 912.489 105.826 915.167 103.792C915.636 108.872 915.046 113.66 912.673 117.451C909.489 122.541 903.225 125.39 894.003 125.959" fill="#8B5C35"/>
<path d="M889.927 116.74C889.525 115.365 889.159 113.906 888.837 112.39C884.054 109.217 875.658 105.829 863.639 108.798C852.75 111.487 841.307 107.336 834.683 98.2839C834.098 97.4843 833.508 96.6463 832.914 95.7674C830.935 92.8425 829.088 90.2642 827.402 88.0128C821.671 80.3572 810.704 79.0106 803.291 85.0523C801.11 86.8289 798.695 88.8839 796.067 91.2433C795.278 91.9523 794.502 92.6225 793.742 93.2569C785.124 100.438 773.017 101.697 763.102 96.4531C752.158 90.6647 743.193 91.921 737.783 93.8431C737.104 95.2364 736.397 96.5636 735.674 97.7997C728.859 109.421 711.489 149.758 806.156 161.382C900.823 173.005 893.728 129.665 889.927 116.74" fill="#D79863"/>
<path d="M735.71 102.756C736.373 101.334 737.057 100.064 737.691 98.9826C737.72 98.9328 737.749 98.883 737.778 98.8332C737.741 98.9106 737.703 98.9878 737.665 99.065C737.034 100.359 736.379 101.595 735.71 102.756" fill="#D79863"/>
<path d="M823.854 104.53C823.726 105.568 818.896 105.83 813.065 105.114C807.235 104.398 802.611 102.975 802.739 101.938C802.866 100.9 807.696 100.639 813.527 101.355C819.358 102.071 823.981 103.492 823.854 104.53Z" fill="#D79863"/>
<path d="M781.078 111.869C781.07 115.555 781.914 119.384 783.862 122.197C784.856 123.587 786.081 124.75 787.561 125.536L788.115 125.829L788.694 126.079C789.07 126.264 789.491 126.372 789.882 126.526C790.298 126.637 790.706 126.765 791.13 126.855C791.561 126.926 791.973 127.051 792.415 127.094C793.272 127.223 794.193 127.3 795.086 127.334C795.535 127.355 795.982 127.367 796.425 127.351C796.871 127.353 797.309 127.317 797.746 127.285C798.187 127.262 798.613 127.189 799.047 127.143C799.468 127.058 799.901 127.006 800.311 126.892C801.147 126.703 801.95 126.437 802.724 126.119C804.279 125.496 805.713 124.628 807.022 123.512C807.675 122.953 808.293 122.331 808.885 121.658C809.175 121.318 809.463 120.968 809.742 120.606C810.012 120.249 810.288 119.843 810.524 119.506L810.595 119.402C810.844 119.047 811.333 118.959 811.689 119.207C811.924 119.371 812.042 119.641 812.024 119.906C811.983 120.504 811.892 121.005 811.755 121.536C811.624 122.059 811.448 122.568 811.242 123.068C810.824 124.065 810.278 125.021 809.606 125.896C808.27 127.649 806.447 129.084 804.414 129.998C803.399 130.456 802.343 130.815 801.272 131.044C800.739 131.181 800.201 131.249 799.664 131.347C799.127 131.403 798.589 131.489 798.053 131.51C797.517 131.538 796.982 131.566 796.451 131.552C795.917 131.558 795.39 131.533 794.864 131.497C793.809 131.435 792.786 131.296 791.72 131.099C789.616 130.707 787.493 129.965 785.621 128.73C784.686 128.12 783.807 127.407 783.05 126.582C782.284 125.77 781.613 124.868 781.096 123.898C780.568 122.934 780.153 121.928 779.838 120.907C779.53 119.882 779.337 118.841 779.22 117.804C779.099 116.768 779.081 115.731 779.129 114.705C779.178 113.671 779.297 112.683 779.535 111.634C779.631 111.215 780.05 110.951 780.47 111.046C780.833 111.129 781.078 111.452 781.078 111.809L781.078 111.869" fill="#434343"/>
<path d="M813.871 119.663C813.872 119.633 813.873 119.655 813.874 119.668L813.879 119.716L813.893 119.836L813.931 120.102C813.959 120.286 813.997 120.475 814.037 120.665C814.122 121.045 814.228 121.427 814.344 121.806C814.589 122.562 814.906 123.293 815.284 123.987C816.054 125.366 817.084 126.581 818.352 127.563C818.985 128.053 819.664 128.501 820.399 128.884C820.755 129.092 821.148 129.247 821.523 129.432C821.919 129.581 822.3 129.759 822.711 129.887C823.117 130.023 823.523 130.163 823.946 130.267C824.36 130.395 824.788 130.495 825.219 130.589C826.075 130.784 826.975 130.928 827.815 131.016C829.522 131.195 831.196 131.125 832.75 130.71C834.313 130.314 835.721 129.52 836.966 128.446C839.463 126.296 841.259 122.933 842.472 119.407L842.492 119.348C842.634 118.937 843.08 118.72 843.49 118.86C843.798 118.966 843.998 119.247 844.018 119.553C844.089 120.639 844.014 121.645 843.865 122.685C843.717 123.716 843.473 124.741 843.134 125.748C842.466 127.762 841.384 129.722 839.842 131.382C839.079 132.216 838.179 132.946 837.21 133.565C836.244 134.196 835.186 134.685 834.102 135.057C833.017 135.452 831.897 135.654 830.781 135.82C830.226 135.869 829.664 135.927 829.111 135.937C828.562 135.928 827.999 135.963 827.459 135.912C826.354 135.851 825.317 135.734 824.259 135.552C823.731 135.464 823.203 135.366 822.675 135.234C822.147 135.118 821.623 134.961 821.1 134.802C820.574 134.652 820.058 134.442 819.538 134.258C819.026 134.033 818.507 133.838 818.007 133.573C816.993 133.089 816.02 132.482 815.105 131.786C814.19 131.09 813.329 130.304 812.567 129.424C811.808 128.542 811.144 127.575 810.587 126.557C810.027 125.537 809.597 124.457 809.266 123.348C809.104 122.792 808.968 122.228 808.87 121.65C808.821 121.359 808.777 121.068 808.744 120.767L808.702 120.305L808.686 120.06L808.674 119.749C808.651 118.314 809.795 117.131 811.23 117.107C812.665 117.083 813.848 118.228 813.871 119.663" fill="#434343"/>
<path d="M790.264 76.6238C789.774 80.6146 786.83 83.5373 783.688 83.1515C780.547 82.7658 778.397 79.2177 778.887 75.2269C779.377 71.2362 782.321 68.3121 785.462 68.6977C788.605 69.0836 790.754 72.633 790.264 76.6238Z" fill="#434343"/>
<path d="M851.264 83.6238C850.774 87.6146 847.83 90.5373 844.688 90.1515C841.547 89.7658 839.397 86.2177 839.887 82.2269C840.377 78.2362 843.321 75.3121 846.462 75.6977C849.605 76.0836 851.754 79.633 851.264 83.6238Z" fill="#434343"/>
<path d="M805.149 169.62C822.048 171.695 829.558 160.862 827.611 149.85C826.706 144.729 828.684 133.522 828.684 133.522C828.684 133.522 810.495 132.74 811.456 118.214C808.875 132.541 791.037 128.899 791.037 128.899C791.037 128.899 790.244 140.252 788.128 145.002C783.575 155.216 788.24 167.544 805.14 169.619L805.149 169.62" fill="#FF9FCF"/>
<path d="M813.778 118.499C813.669 121.446 813.361 124.367 813.027 127.286C812.673 130.202 812.246 133.109 811.758 136.009C811.269 138.909 810.738 141.803 810.045 144.678C809.349 147.552 808.571 150.416 807.474 153.241C807.409 153.408 807.22 153.492 807.053 153.426C806.937 153.382 806.863 153.279 806.847 153.164C806.466 150.158 806.405 147.191 806.425 144.233C806.447 141.276 806.632 138.339 806.86 135.407C807.088 132.476 807.376 129.551 807.739 126.637C808.121 123.724 808.528 120.814 809.136 117.929C809.402 116.66 810.647 115.848 811.915 116.115C813.052 116.354 813.821 117.377 813.778 118.499Z" fill="#F274B4"/>
<path d="M803.387 110.209C803.387 110.209 794.559 122.704 780.306 111.752C780.306 111.752 776.978 127.278 793.413 129.296C809.848 131.314 811.843 115.063 811.843 115.063L803.387 110.209Z" fill="#D79863"/>
<path d="M821.222 112.399C821.222 112.399 826.766 126.658 843.245 119.48C843.245 119.48 842.718 135.35 826.282 133.332C809.848 131.314 811.843 115.063 811.843 115.063L821.222 112.399Z" fill="#D79863"/>
<path d="M788.581 130.231C787.555 129.842 786.556 129.347 785.62 128.73C784.686 128.12 783.806 127.407 783.049 126.583C782.283 125.77 781.613 124.868 781.095 123.898C780.568 122.935 780.152 121.928 779.837 120.907C779.529 119.882 779.336 118.841 779.219 117.804C779.098 116.768 779.08 115.731 779.129 114.706C779.154 114.18 779.197 113.665 779.264 113.149C779.589 112.25 779.908 111.527 780.136 111.043C780.218 111.027 780.304 111.023 780.39 111.033C780.416 111.036 780.443 111.04 780.47 111.047C780.546 111.064 780.617 111.092 780.681 111.129C780.773 111.406 780.901 111.747 781.077 112.135C781.079 112.2 781.079 112.264 781.08 112.329C780.824 112.144 780.565 111.952 780.306 111.752C780.306 111.752 777.66 124.098 788.741 128.203L788.703 128.736C788.675 129.142 788.634 129.649 788.581 130.231" fill="#434343"/>
<path d="M830.68 135.829C830.794 135.073 830.901 134.424 830.988 133.928L831.079 133.401C842.826 132.101 843.245 119.481 843.245 119.481C842.929 119.618 842.617 119.748 842.309 119.87C842.331 119.81 842.352 119.751 842.373 119.691C842.62 119.382 842.818 119.102 842.971 118.865C843.084 118.824 843.207 118.809 843.329 118.824C843.384 118.831 843.437 118.844 843.49 118.861C843.523 118.873 843.555 118.887 843.586 118.901C843.714 119.555 843.881 120.569 843.973 121.802C843.944 122.096 843.908 122.389 843.865 122.686C843.717 123.717 843.473 124.742 843.134 125.749C842.466 127.763 841.384 129.723 839.842 131.383C839.079 132.217 838.179 132.946 837.21 133.565C836.244 134.197 835.186 134.686 834.102 135.058C833.017 135.453 831.897 135.655 830.781 135.82C830.747 135.823 830.714 135.826 830.68 135.829" fill="#434343"/>
<path d="M826.038 113.012C826.556 108.798 821.038 103.582 813.554 102.663C806.07 101.744 799.454 105.47 798.937 109.684C798.419 113.898 804.067 118.059 811.551 118.978C819.035 119.897 825.521 117.226 826.038 113.012Z" fill="#434343"/>
<path d="M813.784 120.376L813.698 120.676L813.623 120.91L813.47 121.347C813.365 121.631 813.253 121.904 813.135 122.173C812.9 122.71 812.631 123.225 812.34 123.726C811.75 124.721 811.071 125.666 810.282 126.519C809.494 127.373 808.617 128.15 807.667 128.822C806.714 129.492 805.688 130.047 804.632 130.5C803.577 130.954 802.485 131.308 801.384 131.532C800.836 131.668 800.284 131.732 799.733 131.825C799.184 131.879 798.632 131.958 798.086 131.976C797.54 132.004 796.993 132.03 796.453 132.014C795.909 132.014 795.373 131.982 794.839 131.939C793.769 131.86 792.734 131.723 791.647 131.515C791.111 131.434 790.573 131.264 790.038 131.139C789.504 130.996 788.973 130.804 788.447 130.622C787.404 130.191 786.365 129.724 785.409 129.078C784.447 128.455 783.538 127.724 782.754 126.878C781.963 126.043 781.267 125.118 780.728 124.124C779.634 122.14 779.057 119.977 778.897 117.861C778.811 116.802 778.823 115.748 778.928 114.712C779.035 113.667 779.206 112.672 779.538 111.636C779.67 111.222 780.112 110.994 780.525 111.126C780.835 111.225 781.041 111.5 781.068 111.805L781.073 111.868C781.397 115.583 782.326 119.28 784.229 121.97C785.177 123.314 786.351 124.425 787.772 125.188C789.179 125.966 790.787 126.439 792.486 126.678C793.323 126.796 794.231 126.874 795.109 126.892C795.55 126.905 795.989 126.911 796.421 126.887C796.857 126.888 797.285 126.852 797.711 126.818C798.141 126.792 798.554 126.712 798.975 126.664C799.383 126.575 799.802 126.52 800.198 126.403C801.003 126.21 801.771 125.94 802.504 125.617C803.972 124.971 805.265 124.041 806.345 122.889C806.88 122.308 807.365 121.675 807.785 121C807.99 120.661 808.185 120.316 808.36 119.968C808.444 119.793 808.526 119.618 808.599 119.447L808.699 119.198L808.742 119.086L808.758 119.04C808.763 119.027 808.769 119.006 808.762 119.036C809.132 117.649 810.557 116.824 811.944 117.195C813.33 117.565 814.154 118.99 813.784 120.376" fill="#434343"/>
<path d="M813.872 119.663C813.872 119.633 813.873 119.655 813.874 119.668L813.879 119.716L813.893 119.836L813.931 120.102C813.959 120.286 813.997 120.475 814.036 120.665C814.122 121.045 814.228 121.427 814.344 121.806C814.589 122.562 814.906 123.293 815.284 123.987C816.054 125.366 817.084 126.581 818.352 127.563C818.985 128.053 819.664 128.501 820.399 128.884C820.755 129.092 821.148 129.247 821.523 129.432C821.919 129.581 822.3 129.759 822.711 129.887C823.117 130.023 823.523 130.163 823.946 130.267C824.361 130.395 824.788 130.495 825.219 130.589C826.075 130.784 826.975 130.928 827.815 131.016C829.522 131.195 831.196 131.125 832.75 130.71C834.313 130.314 835.721 129.52 836.966 128.446C839.463 126.296 841.259 122.933 842.472 119.407L842.492 119.348C842.634 118.937 843.08 118.72 843.49 118.86C843.798 118.966 843.998 119.247 844.018 119.553C844.089 120.639 844.014 121.645 843.865 122.685C843.717 123.716 843.473 124.741 843.134 125.748C842.466 127.762 841.384 129.722 839.842 131.382C839.079 132.216 838.179 132.946 837.21 133.565C836.244 134.196 835.186 134.685 834.102 135.057C833.017 135.452 831.897 135.654 830.781 135.82C830.226 135.869 829.664 135.927 829.111 135.937C828.562 135.928 827.999 135.963 827.459 135.912C826.354 135.851 825.317 135.734 824.259 135.552C823.731 135.464 823.203 135.366 822.675 135.234C822.147 135.118 821.623 134.961 821.1 134.802C820.574 134.652 820.058 134.442 819.538 134.257C819.027 134.033 818.507 133.838 818.007 133.573C816.993 133.089 816.02 132.482 815.105 131.786C814.19 131.09 813.329 130.304 812.567 129.424C811.808 128.542 811.145 127.576 810.587 126.557C810.027 125.537 809.597 124.457 809.266 123.348C809.104 122.792 808.968 122.228 808.87 121.65C808.821 121.359 808.777 121.068 808.744 120.767L808.702 120.306L808.686 120.06L808.674 119.749C808.651 118.314 809.795 117.131 811.23 117.107C812.665 117.083 813.848 118.228 813.872 119.663" fill="#434343"/>
<path d="M546.861 162.217C544.709 161.98 542.742 161.723 541.005 161.455C543.075 161.728 545.024 161.982 546.861 162.217C564.45 164.156 594.395 164.737 611.632 158.053C612.459 157.718 613.198 157.406 613.835 157.126C613.127 157.45 612.392 157.758 611.632 158.053C604.412 160.977 590.43 165.641 578.184 165.275C576.514 165.275 574.173 165.722 546.861 162.217Z" fill="#B2B2D4"/>
<path d="M541.005 161.455C557.557 164.002 595.093 165.683 613.835 157.126C607.638 159.843 591.833 165.683 578.184 165.275C576.401 165.275 573.855 165.784 541.005 161.455Z" stroke="#B2B2D4" stroke-width="0.509296"/>
<path d="M50.5997 228.349C51.3724 229.269 51.5524 230.689 53.159 230.981C58.5849 231.987 62.874 234.197 67.7741 235.742C69.6421 236.327 71.3438 236.233 72.7396 234.387C73.8165 232.937 72.5873 232.432 71.5381 231.778C68.0107 229.587 62.482 229.717 58.6 227.902C57.0523 227.19 55.4164 226.402 53.2561 226.422C51.6863 226.431 50.512 226.969 50.5997 228.349Z" fill="#FEA273"/>
<path d="M88.6585 239.811C88.8656 240.429 89.6266 240.892 90.5635 241.242C94.1295 242.544 98.1858 243.118 102.254 243.715C104.417 244.029 106.027 243.401 107.111 241.645C108.373 239.563 106.788 239.312 104.71 239.138C101.22 238.869 97.6919 238.631 94.7438 237.482C93.4313 236.963 91.8626 237.133 90.2613 237.822C89.3068 238.242 88.5251 238.818 88.6585 239.811Z" fill="#FEA273"/>
<path d="M319.663 135.653C318.598 136.052 317.634 136.398 316.688 136.783C315.519 137.274 314.341 137.861 314.58 138.862C314.787 139.748 315.079 140.601 317.022 140.318C320.97 139.742 324.928 139.34 328.871 138.799C330.553 138.553 331.957 137.926 332.76 136.58C333.804 134.838 333.793 133.671 330.85 134.058C327.099 134.523 323.333 135.122 319.663 135.653Z" fill="#FEA273"/>
<path d="M165.311 238.399C169.235 236.088 174.544 234.506 179.607 232.384C180.464 232.032 181.156 231.254 181.788 230.625C182.454 229.953 182.789 229.171 182.111 228.674C181.62 228.312 180.674 228.477 179.899 228.796C174.215 231.079 168.532 233.365 162.892 235.743C161.431 236.36 159.608 237.391 160.231 238.574C160.86 239.725 162.806 239.076 165.311 238.399Z" fill="#FEA273"/>
<path d="M10.1082 203.794C9.02954 200.265 5.7095 198.04 3.46679 195.284C2.79991 194.48 1.63243 194.652 0.478193 195.454C-0.809536 196.336 -2.27143 197.337 -0.925494 198.363C1.77294 200.436 3.19072 203.183 5.2862 205.569C6.00932 206.38 6.54542 207.598 8.60468 206.762C10.6011 205.949 9.94183 204.733 10.1082 203.794Z" fill="#FEA273"/>
<path d="M286.415 147.202C282.206 149.005 277.915 150.523 274.132 152.764C272.273 153.871 271.086 155.191 272.716 156.41C274.103 157.471 275.433 156.507 276.711 155.548C279.446 153.528 282.929 152.691 286.016 151.215C286.385 151.038 286.795 150.957 287.2 150.861C289.683 150.24 291.705 149.053 291.249 147.296C290.716 145.219 287.942 147.381 286.415 147.202Z" fill="#FEA273"/>
<path d="M22.869 215.038C24.5581 218.058 27.7102 220.19 31.5697 221.856C32.4671 222.235 33.4182 222.022 34.186 221.309C35.1674 220.401 36.1392 219.101 35.3207 218.518C32.3886 216.426 30.3135 213.605 25.9511 212.69C24.0086 212.261 22.4727 213.48 22.869 215.038Z" fill="#FEA273"/>
<path d="M132.378 245.588C134.96 245.073 137.595 244.788 139.372 242.68C140.757 241.03 140.275 240.043 137.861 240.542C133.549 241.418 129.257 242.714 124.897 243.484C123.531 243.715 121.542 244.54 121.661 245.986C121.761 247.184 123.453 246.903 124.719 246.996C127.29 247.164 129.846 246.103 132.378 245.588Z" fill="#FEA273"/>
<path d="M246.754 179.392C248.458 178.916 255.801 172.224 255.9 171.027C256.028 169.518 254.746 169.115 252.939 169.963C249.434 171.617 246.457 173.813 244.564 176.425C243.181 178.298 244.729 179.977 246.754 179.392Z" fill="#FEA273"/>
<path d="M224.05 204.354C224.51 205.143 225.024 205.656 226.09 205.586C227.272 205.506 228.553 205.196 229.231 204.233C231.269 201.342 233.263 198.469 235.195 195.571C235.619 194.915 235.963 194.098 235.083 193.697C234.177 193.305 233.197 193.94 232.313 194.349C230.971 194.953 229.649 195.82 229.262 196.764C228.414 198.825 226.608 200.594 225.093 202.454C224.572 203.101 224.334 203.831 224.05 204.354Z" fill="#FEA273"/>
<path d="M362.192 133.805C360.703 134.258 359.179 134.521 358.706 135.768C358.267 136.923 359.074 137.593 360.385 137.793C363.156 138.233 365.798 139.09 369.188 138.114C370.619 137.697 371.876 137.064 372.235 135.893C372.577 134.742 371.841 134.064 370.468 133.901C367.799 133.579 365.068 133.283 362.192 133.805Z" fill="#FEA273"/>
<path d="M205.454 215.491C200.397 217.134 197.382 219.63 194.332 222.058C192.922 223.164 191.996 224.512 193.628 225.348C194.945 226.039 196.71 225.43 197.847 224.382C200.685 221.767 204.768 219.474 205.454 215.491Z" fill="#FEA273"/>
<path d="M1307.66 103.57C1306.89 102.65 1306.71 101.23 1305.1 100.938C1299.68 99.9313 1295.39 97.7219 1290.49 96.1767C1288.62 95.591 1286.92 95.6851 1285.52 97.5313C1284.45 98.9819 1285.67 99.486 1286.72 100.14C1290.25 102.331 1295.78 102.201 1299.66 104.017C1301.21 104.728 1302.85 105.517 1305.01 105.496C1306.58 105.487 1307.75 104.949 1307.66 103.57Z" fill="#FEA273"/>
<path d="M1420.46 165.693C1426.25 170.081 1435.3 169.097 1443.53 169.371C1445.93 169.447 1447.51 168.038 1448.05 166.62C1448.59 165.237 1446.82 164.851 1445.22 165.015C1437.5 165.746 1430.44 164.824 1423.05 164.762C1422.25 164.757 1421.5 164.862 1420.46 165.693Z" fill="#FEA273"/>
<path d="M1269.6 92.1075C1269.4 91.4897 1268.64 91.0266 1267.7 90.6771C1264.13 89.3751 1260.08 88.8007 1256.01 88.2035C1253.84 87.8901 1252.23 88.5182 1251.15 90.2739C1249.89 92.3556 1251.47 92.607 1253.55 92.7806C1257.04 93.0504 1260.57 93.2882 1263.52 94.4371C1264.83 94.9555 1266.4 94.7863 1268 94.0968C1268.95 93.6767 1269.74 93.1014 1269.6 92.1075Z" fill="#FEA273"/>
<path d="M1038.6 196.265C1039.66 195.867 1040.63 195.521 1041.57 195.136C1042.74 194.645 1043.92 194.058 1043.68 193.057C1043.47 192.171 1043.18 191.317 1041.24 191.601C1037.29 192.177 1033.33 192.578 1029.39 193.12C1027.71 193.366 1026.3 193.993 1025.5 195.339C1024.46 197.081 1024.47 198.248 1027.41 197.861C1031.16 197.396 1034.93 196.797 1038.6 196.265Z" fill="#FEA273"/>
<path d="M1192.95 93.52C1189.03 95.8314 1183.72 97.4133 1178.65 99.5351C1177.8 99.8874 1177.1 100.665 1176.47 101.294C1175.81 101.966 1175.47 102.748 1176.15 103.245C1176.64 103.607 1177.59 103.442 1178.36 103.123C1184.05 100.84 1189.73 98.554 1195.37 96.1759C1196.83 95.5586 1198.65 94.528 1198.03 93.3452C1197.4 92.1939 1195.46 92.8429 1192.95 93.52Z" fill="#FEA273"/>
<path d="M1388.42 159.383C1388.68 159.726 1388.98 160.337 1389.46 160.833C1392.1 163.531 1396.62 164.475 1400.75 165.748C1401.88 166.086 1403.78 166.359 1404.97 164.829C1406.17 163.266 1404.64 163.073 1403.21 162.691C1398.9 161.52 1395.62 159.376 1392.17 157.393C1391.28 156.884 1390.89 155.752 1389.07 156.795C1387.74 157.537 1388.2 158.374 1388.42 159.383Z" fill="#FEA273"/>
<path d="M1348.15 128.125C1349.23 131.654 1352.55 133.879 1354.79 136.635C1355.46 137.439 1356.63 137.267 1357.78 136.465C1359.07 135.583 1360.53 134.582 1359.19 133.556C1356.49 131.483 1355.07 128.736 1352.98 126.35C1352.25 125.539 1351.72 124.321 1349.66 125.157C1347.66 125.97 1348.32 127.186 1348.15 128.125Z" fill="#FEA273"/>
<path d="M1071.85 184.717C1076.06 182.913 1080.35 181.396 1084.13 179.154C1085.99 178.047 1087.18 176.727 1085.55 175.508C1084.16 174.447 1082.83 175.411 1081.55 176.37C1078.81 178.391 1075.33 179.228 1072.25 180.704C1071.88 180.881 1071.47 180.962 1071.06 181.057C1068.58 181.679 1066.56 182.866 1067.01 184.622C1067.55 186.699 1070.32 184.537 1071.85 184.717Z" fill="#FEA273"/>
<path d="M1335.39 116.881C1333.7 113.86 1330.55 111.728 1326.69 110.063C1325.79 109.684 1324.84 109.897 1324.08 110.609C1323.09 111.518 1322.12 112.818 1322.94 113.401C1325.87 115.493 1327.95 118.314 1332.31 119.229C1334.25 119.658 1335.79 118.439 1335.39 116.881Z" fill="#FEA273"/>
<path d="M1225.88 86.3309C1223.3 86.8464 1220.67 87.1312 1218.89 89.239C1217.51 90.8885 1217.99 91.8758 1220.4 91.3774C1224.71 90.5008 1229 89.205 1233.36 88.435C1234.73 88.2038 1236.72 87.3793 1236.6 85.9329C1236.5 84.7347 1234.81 85.0156 1233.54 84.9233C1230.97 84.7549 1228.42 85.8162 1225.88 86.3309Z" fill="#FEA273"/>
<path d="M1111.51 152.527C1109.8 153.003 1102.46 159.695 1102.36 160.892C1102.23 162.401 1103.52 162.804 1105.32 161.956C1108.83 160.302 1111.8 158.106 1113.7 155.494C1115.08 153.621 1113.53 151.942 1111.51 152.527Z" fill="#FEA273"/>
<path d="M1134.21 127.565C1133.75 126.776 1133.24 126.263 1132.17 126.333C1130.99 126.413 1129.71 126.723 1129.03 127.686C1126.99 130.577 1125 133.45 1123.07 136.348C1122.64 137.004 1122.3 137.821 1123.18 138.222C1124.08 138.614 1125.07 137.979 1125.95 137.57C1127.29 136.966 1128.61 136.099 1129 135.155C1129.85 133.094 1131.65 131.325 1133.17 129.465C1133.69 128.817 1133.93 128.088 1134.21 127.565Z" fill="#FEA273"/>
<path d="M996.07 198.114C997.558 197.661 999.082 197.397 999.556 196.15C999.995 194.996 999.188 194.326 997.877 194.126C995.105 193.685 992.463 192.828 989.074 193.805C987.643 194.222 986.386 194.855 986.026 196.026C985.685 197.177 986.421 197.855 987.793 198.018C990.463 198.34 993.194 198.636 996.07 198.114Z" fill="#FEA273"/>
<path d="M1152.81 116.427C1157.86 114.784 1160.88 112.288 1163.93 109.86C1165.34 108.754 1166.27 107.406 1164.63 106.571C1163.32 105.88 1161.55 106.489 1160.41 107.536C1157.58 110.151 1153.49 112.445 1152.81 116.427Z" fill="#FEA273"/>
<path d="M1368.9 142.957C1367.06 147.661 1370.27 149.879 1373.03 152.244C1373.49 152.637 1374.43 152.362 1375.2 151.981C1376.77 151.212 1376.43 150.2 1375.92 149.749C1373.57 147.718 1372.87 144.739 1368.9 142.957Z" fill="#FEA273"/>
</svg>
