<svg width="1366" height="705" viewBox="0 0 1366 705" fill="none" xmlns="http://www.w3.org/2000/svg">
<path d="M1366 606.725L1290.11 623.473C1214.22 641.485 1062.44 673.086 910.666 657.286C671.141 756.621 572.96 420.81 421.182 354.45C269.405 288.089 75.8879 386.998 -0.00101852 354.45V303.363V0H75.8879C151.777 0 303.555 0 455.332 0C607.11 0 758.888 0 910.666 0C1062.44 0 1214.22 0 1290.11 0H1366V606.725Z" fill="#FBCF78"/>
<path d="M1423.39 330.551C1500.27 407.777 1467.24 608.198 1364.01 668.07C1289.35 711.366 1238.29 642.69 1062.45 657.057C915.904 669.028 889.011 721.817 816.185 698.122C708.882 663.203 623.345 501.788 660.538 357.593C704.007 189.096 899.705 100.841 1026.1 129.239C1045.82 133.671 1130.85 152.77 1158.19 214.371C1174.89 252.007 1157.92 278.173 1178.66 295.498C1210.6 322.166 1264.76 271.757 1344.55 289.486C1349.34 290.549 1393.91 300.926 1423.39 330.551Z" fill="#FABF4B"/>
</svg>
