<svg width="52" height="18" viewBox="0 0 52 18" fill="none" xmlns="http://www.w3.org/2000/svg">
<path d="M9.47676 5.01961C8.68174 2.99975 6.32076 1.68741 4.16188 2.11897C2.00317 2.54999 0.328745 4.70885 0.533402 6.86929C0.738058 9.02973 2.8362 10.8589 5.03748 10.7438C3.42335 10.8181 2.03808 12.2684 1.93326 13.8563C1.82897 15.4443 2.91499 17.0005 4.41234 17.5951C5.91004 18.1896 7.70934 17.8634 8.98776 16.8891C10.7346 15.5565 11.4265 13.3102 12.0195 11.2125L42.4045 12.0821C42.7453 13.816 45.2084 15.9982 48.537 15.0418C49.7904 14.6335 51.0731 13.8325 51.4223 12.5765C51.7295 11.4718 51.247 10.2657 50.4432 9.43718C49.6395 8.60903 48.7441 8.4794 47.6628 8.05805C49.5414 7.74019 51.1994 6.68726 51.7645 4.74856C52.2708 3.01249 51.0311 1.07723 49.3055 0.464788C47.5814 -0.145406 45.8374 0.238526 44.2819 1.41996C42.8292 2.52425 42.0708 3.72584 41.4358 5.42063L9.47676 5.01961Z" fill="#8675A5"/>
</svg>
