<svg width="29" height="28" viewBox="0 0 29 28" fill="none" xmlns="http://www.w3.org/2000/svg">
<g filter="url(#filter0_d)">
<rect x="4.03149" y="0.1875" width="20.8694" height="20.0819" rx="10.041" fill="#8675A5"/>
</g>
<path d="M18.9954 6.09375H9.54509C9.33623 6.09375 9.13592 6.17672 8.98823 6.32441C8.84054 6.4721 8.75757 6.67241 8.75757 6.88128V13.1815C8.75757 13.3904 8.84054 13.5907 8.98823 13.7384C9.13592 13.886 9.33623 13.969 9.54509 13.969H18.9954C19.2043 13.969 19.4046 13.886 19.5523 13.7384C19.7 13.5907 19.7829 13.3904 19.7829 13.1815V6.88128C19.7829 6.67241 19.7 6.4721 19.5523 6.32441C19.4046 6.17672 19.2043 6.09375 18.9954 6.09375ZM18.1291 6.88128L14.2703 9.55099L10.4114 6.88128H18.1291ZM9.54509 13.1815V7.2396L14.0458 10.3543C14.1117 10.4 14.19 10.4245 14.2703 10.4245C14.3505 10.4245 14.4288 10.4 14.4947 10.3543L18.9954 7.2396V13.1815H9.54509Z" fill="white"/>
<defs>
<filter id="filter0_d" x="0.23705" y="0.1875" width="28.4583" height="27.6709" filterUnits="userSpaceOnUse" color-interpolation-filters="sRGB">
<feFlood flood-opacity="0" result="BackgroundImageFix"/>
<feColorMatrix in="SourceAlpha" type="matrix" values="0 0 0 0 0 0 0 0 0 0 0 0 0 0 0 0 0 0 127 0" result="hardAlpha"/>
<feOffset dy="3.79444"/>
<feGaussianBlur stdDeviation="1.89722"/>
<feComposite in2="hardAlpha" operator="out"/>
<feColorMatrix type="matrix" values="0 0 0 0 0 0 0 0 0 0 0 0 0 0 0 0 0 0 0.25 0"/>
<feBlend mode="normal" in2="BackgroundImageFix" result="effect1_dropShadow"/>
<feBlend mode="normal" in="SourceGraphic" in2="effect1_dropShadow" result="shape"/>
</filter>
</defs>
</svg>
