<svg width="30" height="30" viewBox="0 0 30 30" fill="none" xmlns="http://www.w3.org/2000/svg">
<g filter="url(#filter0_d)">
<rect x="4.08374" y="0.542969" width="21.8181" height="20.9947" rx="10.4974" fill="#8675A5"/>
</g>
<path d="M19.4535 6.12988C18.3889 4.97376 16.971 4.33789 15.4643 4.33789C12.3542 4.33789 9.82342 7.07955 9.82342 10.4488C9.82342 11.5251 10.0826 12.5766 10.5755 13.5043L9.77515 16.6698L12.7658 15.8193C13.5891 16.3065 14.5165 16.5625 15.4617 16.5625H15.4643C18.5718 16.5625 21.1585 13.8208 21.1585 10.4516C21.1585 8.81923 20.5182 7.286 19.4535 6.12988ZM15.4643 15.533C14.6207 15.533 13.7949 15.288 13.0758 14.8255L12.9056 14.7154L11.132 15.2192L11.6046 13.3446L11.4928 13.1519C11.0227 12.3426 10.7763 11.4095 10.7763 10.4488C10.7763 7.64935 12.8802 5.37014 15.4668 5.37014C16.7195 5.37014 17.8959 5.89865 18.7802 6.85933C19.6644 7.82001 20.2082 9.0945 20.2056 10.4516C20.2056 13.2538 18.0484 15.533 15.4643 15.533ZM18.0357 11.7288C17.8959 11.6517 17.2023 11.2829 17.0727 11.2333C16.9431 11.181 16.8491 11.1562 16.7551 11.3104C16.661 11.4645 16.3917 11.8059 16.3079 11.9105C16.2265 12.0123 16.1427 12.0261 16.0029 11.949C15.1746 11.5003 14.6308 11.148 14.0846 10.1323C13.9397 9.86249 14.2294 9.88176 14.4987 9.29819C14.5445 9.19635 14.5216 9.10826 14.486 9.03119C14.4504 8.95411 14.1684 8.20263 14.0515 7.89709C13.9372 7.5998 13.8203 7.64109 13.7339 7.63558C13.6526 7.63008 13.5586 7.63008 13.4646 7.63008C13.3706 7.63008 13.2181 7.66862 13.0885 7.82001C12.9589 7.97416 12.5956 8.34302 12.5956 9.0945C12.5956 9.84598 13.1012 10.5727 13.1698 10.6745C13.241 10.7764 14.1633 12.3179 15.5786 12.9813C16.473 13.3997 16.8237 13.4355 17.2709 13.3639C17.5427 13.3198 18.1043 12.995 18.2212 12.6372C18.3381 12.2793 18.3381 11.9738 18.3025 11.9105C18.2695 11.8417 18.1754 11.8031 18.0357 11.7288Z" fill="#EBEBEB"/>
<defs>
<filter id="filter0_d" x="0.289296" y="0.542969" width="29.407" height="28.584" filterUnits="userSpaceOnUse" color-interpolation-filters="sRGB">
<feFlood flood-opacity="0" result="BackgroundImageFix"/>
<feColorMatrix in="SourceAlpha" type="matrix" values="0 0 0 0 0 0 0 0 0 0 0 0 0 0 0 0 0 0 127 0" result="hardAlpha"/>
<feOffset dy="3.79444"/>
<feGaussianBlur stdDeviation="1.89722"/>
<feComposite in2="hardAlpha" operator="out"/>
<feColorMatrix type="matrix" values="0 0 0 0 0 0 0 0 0 0 0 0 0 0 0 0 0 0 0.25 0"/>
<feBlend mode="normal" in2="BackgroundImageFix" result="effect1_dropShadow"/>
<feBlend mode="normal" in="SourceGraphic" in2="effect1_dropShadow" result="shape"/>
</filter>
</defs>
</svg>
