<svg width="12" height="9" viewBox="0 0 12 9" fill="none" xmlns="http://www.w3.org/2000/svg">
<path d="M10.9947 0.278687H1.54436C1.3355 0.278687 1.13519 0.361658 0.987497 0.509348C0.839807 0.657037 0.756836 0.857348 0.756836 1.06621V7.36642C0.756836 7.57529 0.839807 7.7756 0.987497 7.92329C1.13519 8.07098 1.3355 8.15395 1.54436 8.15395H10.9947C11.2035 8.15395 11.4039 8.07098 11.5515 7.92329C11.6992 7.7756 11.7822 7.57529 11.7822 7.36642V1.06621C11.7822 0.857348 11.6992 0.657037 11.5515 0.509348C11.4039 0.361658 11.2035 0.278687 10.9947 0.278687ZM10.1284 1.06621L6.26952 3.73593L2.41064 1.06621H10.1284ZM1.54436 7.36642V1.42454L6.04507 4.5392C6.11099 4.58493 6.1893 4.60943 6.26952 4.60943C6.34974 4.60943 6.42805 4.58493 6.49396 4.5392L10.9947 1.42454V7.36642H1.54436Z" fill="#8675A5"/>
</svg>
