<svg width="226" height="220" viewBox="0 0 226 220" fill="none" xmlns="http://www.w3.org/2000/svg">
<path d="M126.536 153.584C124.199 144.951 116.926 138.041 109.113 132.514C104.404 129.191 99.3988 126.179 94.6375 122.918C98.9802 120.232 103.55 117.841 108.293 115.76C109.706 115.139 108.468 113.276 107.055 113.881C102.015 116.086 97.2013 118.648 92.6319 121.52C90.9925 120.356 89.388 119.145 87.8532 117.856C91.5855 114.13 95.5793 110.62 99.7825 107.329C100.968 106.413 99.2418 104.875 98.0559 105.791C93.8353 109.083 89.8414 112.623 86.1092 116.35C85.9697 116.21 85.8127 116.086 85.6732 115.946C84.5047 114.875 84.1907 114.238 81.9932 112.701C82.3072 106.288 82.3246 99.8756 82.0107 93.4629C75.9589 98.9595 70.7791 105.201 66.6806 111.971C66.4015 112.437 66.105 112.934 65.5993 113.229C64.797 113.71 63.7157 113.555 62.7565 113.415C55.135 112.282 47.095 113.493 40.3107 116.8L23.3237 95.2019C23.5853 103.866 25.9572 112.344 27.5966 120.899C21.0913 124.269 17.0103 130.775 16.5045 137.436C11.5165 136.458 6.51114 135.479 1.52318 134.486C-0.011579 134.191 -0.656871 136.287 0.877885 136.582C6.07513 137.607 11.2724 138.631 16.4696 139.641C16.5394 141.023 16.7661 142.405 17.1498 143.755C13.0862 145.665 8.9528 147.497 4.78454 149.236C3.35442 149.827 4.59269 151.705 6.02281 151.115C10.0341 149.438 13.9931 147.684 17.9172 145.852C17.9172 145.852 17.9172 145.852 17.9172 145.867C18.6845 147.575 19.731 149.159 21.0216 150.587C18.5625 153.708 16.1034 156.845 13.6443 159.966C12.7374 161.115 14.8651 162.202 15.7546 161.068C18.0741 158.134 20.3763 155.183 22.6958 152.249C28.207 157.171 36.5784 159.671 44.2348 158.071C43.6592 172.217 47.8624 186.502 56.164 198.566C52.1701 200.554 48.1588 202.836 45.7695 206.299C43.3802 209.761 43.136 214.715 46.345 217.603C50.2168 221.065 56.7046 220.071 61.9019 218.503C80.9817 212.758 98.3698 202.603 111.886 189.297C121.827 179.499 130.024 166.41 126.536 153.584Z" fill="#434343"/>
<path d="M33.8235 134.625C33.5794 134.19 33.2655 133.911 32.8818 133.724C31.3644 132.637 28.8007 132.932 27.8938 134.656V134.671C27.702 134.951 27.5799 135.277 27.5624 135.634C27.4752 137.327 29.3937 138.445 31.1203 138.15C32.7771 137.87 34.713 136.209 33.8235 134.625Z" fill="#FEFEF8"/>
<path d="M69.5065 127.405C68.8263 126.815 67.8671 126.722 66.8904 126.877C66.716 126.846 66.5067 126.846 66.28 126.924C65.7394 127.079 65.1638 127.312 64.6755 127.607C64.5883 127.653 64.5011 127.7 64.4139 127.731C64.2221 127.84 64.0825 127.964 63.9953 128.104C63.4721 128.616 63.1931 129.253 63.3849 130.091C63.8558 131.97 66.2975 131.784 67.8148 131.147C69.2972 130.526 71.0761 128.771 69.5065 127.405ZM66.0533 129.393C66.3323 129.268 66.6114 129.16 66.9079 129.098C66.873 129.129 66.8381 129.144 66.8207 129.144C66.5939 129.268 66.3323 129.346 66.0533 129.393Z" fill="#FEFEF8"/>
<path d="M77.04 137.979C76.6738 137.404 75.6622 137.078 75.0169 137.513C71.4242 139.842 66.7851 140.044 62.5994 139.035C58.7276 138.087 55.2744 136.209 51.9607 134.221C52.6932 133.522 53.2513 132.715 53.6699 131.768C54.0536 130.914 53.0943 130.153 52.2398 130.091C49.2749 129.92 46.2577 131.069 44.409 133.15C43.6068 134.05 44.0951 135.324 45.4554 135.401C45.8915 135.417 46.3449 135.448 46.7809 135.463C44.6881 140.851 39.9443 145.401 33.9273 147.481C33.1774 147.745 32.6716 148.366 32.8983 149.112C33.0902 149.748 33.9797 150.292 34.7296 150.028C41.7755 147.59 47.3739 142.388 49.7109 136.022C53.6176 138.398 57.7161 140.696 62.3552 141.705C67.099 142.746 72.4706 142.419 76.5343 139.795C77.1447 139.376 77.476 138.646 77.04 137.979Z" fill="#FEFEF8"/>
<path d="M109.104 93.463V75.1406C43.7249 53.669 54.7047 14.4476 99.6219 5.28641C144.539 -3.87479 229.217 -1.53773 224.5 44.4619C221.705 71.7165 161.841 82.2977 132.561 78.0034L109.104 93.463Z" fill="white" stroke="#C8C8C8"/>
<path d="M107.556 34.0189L106.392 32.1349C106.16 31.7669 105.78 31.5829 105.252 31.5829C104.436 31.5829 103.724 31.4029 103.116 31.0429C102.508 30.6829 102.036 30.1789 101.7 29.5309C101.364 28.8749 101.196 28.1069 101.196 27.2269C101.196 26.3389 101.364 25.5709 101.7 24.9229C102.036 24.2749 102.508 23.7749 103.116 23.4229C103.724 23.0629 104.44 22.8829 105.264 22.8829C106.088 22.8829 106.804 23.0629 107.412 23.4229C108.02 23.7749 108.492 24.2749 108.828 24.9229C109.164 25.5709 109.332 26.3349 109.332 27.2149C109.332 28.1749 109.132 28.9989 108.732 29.6869C108.34 30.3749 107.796 30.8789 107.1 31.1989C107.444 31.3109 107.74 31.5789 107.988 32.0029L108.864 33.3949L107.556 34.0189ZM105.264 30.2629C106.04 30.2629 106.644 29.9949 107.076 29.4589C107.508 28.9229 107.724 28.1789 107.724 27.2269C107.724 26.2669 107.508 25.5229 107.076 24.9949C106.652 24.4669 106.048 24.2029 105.264 24.2029C104.488 24.2029 103.884 24.4669 103.452 24.9949C103.02 25.5229 102.804 26.2669 102.804 27.2269C102.804 28.1789 103.02 28.9229 103.452 29.4589C103.884 29.9949 104.488 30.2629 105.264 30.2629ZM114.53 31.5829C113.37 31.5829 112.482 31.2829 111.866 30.6829C111.258 30.0749 110.954 29.1789 110.954 27.9949V23.0029H112.49V27.9829C112.49 28.7429 112.662 29.3149 113.006 29.6989C113.358 30.0749 113.866 30.2629 114.53 30.2629C115.882 30.2629 116.558 29.5029 116.558 27.9829V23.0029H118.082V27.9949C118.082 29.1789 117.782 30.0749 117.182 30.6829C116.582 31.2829 115.698 31.5829 114.53 31.5829ZM119.994 31.4629V23.0029H125.622V24.2269H121.47V26.5549H125.358V27.7789H121.47V30.2389H125.622V31.4629H119.994ZM127.274 31.4629V23.0029H130.946C131.874 23.0029 132.59 23.2269 133.094 23.6749C133.598 24.1149 133.85 24.7349 133.85 25.5349C133.85 26.1669 133.686 26.6909 133.358 27.1069C133.03 27.5149 132.558 27.7909 131.942 27.9349C132.35 28.0629 132.686 28.3709 132.95 28.8589L134.366 31.4629H132.674L131.21 28.7629C131.066 28.4989 130.894 28.3189 130.694 28.2229C130.502 28.1269 130.254 28.0789 129.95 28.0789H128.81V31.4629H127.274ZM128.81 26.9389H130.682C131.802 26.9389 132.362 26.4829 132.362 25.5709C132.362 24.6669 131.802 24.2149 130.682 24.2149H128.81V26.9389ZM141.891 31.5829C141.227 31.5829 140.611 31.4989 140.043 31.3309C139.475 31.1549 138.995 30.9189 138.603 30.6229L139.071 29.4109C139.463 29.6909 139.891 29.9069 140.355 30.0589C140.827 30.2109 141.339 30.2869 141.891 30.2869C142.523 30.2869 142.983 30.1829 143.271 29.9749C143.559 29.7589 143.703 29.4829 143.703 29.1469C143.703 28.8669 143.599 28.6469 143.391 28.4869C143.191 28.3269 142.843 28.1949 142.347 28.0909L141.027 27.8149C139.523 27.4949 138.771 26.7229 138.771 25.4989C138.771 24.9709 138.911 24.5109 139.191 24.1189C139.471 23.7269 139.859 23.4229 140.355 23.2069C140.851 22.9909 141.423 22.8829 142.071 22.8829C142.647 22.8829 143.187 22.9709 143.691 23.1469C144.195 23.3149 144.615 23.5549 144.951 23.8669L144.483 25.0189C143.819 24.4589 143.011 24.1789 142.059 24.1789C141.507 24.1789 141.075 24.2949 140.763 24.5269C140.451 24.7589 140.295 25.0629 140.295 25.4389C140.295 25.7269 140.391 25.9589 140.583 26.1349C140.775 26.3029 141.103 26.4349 141.567 26.5309L142.875 26.8069C143.667 26.9749 144.255 27.2389 144.639 27.5989C145.031 27.9589 145.227 28.4389 145.227 29.0389C145.227 29.5429 145.091 29.9869 144.819 30.3709C144.547 30.7549 144.159 31.0549 143.655 31.2709C143.159 31.4789 142.571 31.5829 141.891 31.5829ZM150.181 31.5829C149.021 31.5829 148.133 31.2829 147.517 30.6829C146.909 30.0749 146.605 29.1789 146.605 27.9949V23.0029H148.141V27.9829C148.141 28.7429 148.313 29.3149 148.657 29.6989C149.009 30.0749 149.517 30.2629 150.181 30.2629C151.533 30.2629 152.209 29.5029 152.209 27.9829V23.0029H153.733V27.9949C153.733 29.1789 153.433 30.0749 152.833 30.6829C152.233 31.2829 151.349 31.5829 150.181 31.5829ZM155.644 31.4629V23.0029H159.34C160.228 23.0029 160.916 23.1989 161.404 23.5909C161.892 23.9749 162.136 24.5109 162.136 25.1989C162.136 25.6549 162.02 26.0469 161.788 26.3749C161.556 26.7029 161.236 26.9429 160.828 27.0949C161.308 27.2309 161.68 27.4709 161.944 27.8149C162.216 28.1509 162.352 28.5789 162.352 29.0989C162.352 29.8509 162.096 30.4349 161.584 30.8509C161.08 31.2589 160.376 31.4629 159.472 31.4629H155.644ZM157.12 26.5909H159.076C160.124 26.5909 160.648 26.1869 160.648 25.3789C160.648 24.5709 160.124 24.1669 159.076 24.1669H157.12V26.5909ZM157.12 30.2989H159.28C160.336 30.2989 160.864 29.8749 160.864 29.0269C160.864 28.1789 160.336 27.7549 159.28 27.7549H157.12V30.2989ZM164.026 31.4629V23.0029H165.562V31.4629H164.026ZM167.521 31.4629V23.0029H171.193C172.121 23.0029 172.837 23.2269 173.341 23.6749C173.845 24.1149 174.097 24.7349 174.097 25.5349C174.097 26.1669 173.933 26.6909 173.605 27.1069C173.277 27.5149 172.805 27.7909 172.189 27.9349C172.597 28.0629 172.933 28.3709 173.197 28.8589L174.613 31.4629H172.921L171.457 28.7629C171.313 28.4989 171.141 28.3189 170.941 28.2229C170.749 28.1269 170.501 28.0789 170.197 28.0789H169.057V31.4629H167.521ZM169.057 26.9389H170.929C172.049 26.9389 172.609 26.4829 172.609 25.5709C172.609 24.6669 172.049 24.2149 170.929 24.2149H169.057V26.9389ZM177.14 28.9549V28.4749C177.14 28.0989 177.208 27.7509 177.344 27.4309C177.488 27.1109 177.728 26.7629 178.064 26.3869C178.32 26.1069 178.496 25.8669 178.592 25.6669C178.696 25.4669 178.748 25.2549 178.748 25.0309C178.748 24.7669 178.652 24.5589 178.46 24.4069C178.268 24.2549 177.996 24.1789 177.644 24.1789C176.86 24.1789 176.136 24.4669 175.472 25.0429L174.968 23.8909C175.304 23.5869 175.72 23.3429 176.216 23.1589C176.72 22.9749 177.228 22.8829 177.74 22.8829C178.244 22.8829 178.684 22.9669 179.06 23.1349C179.444 23.3029 179.74 23.5349 179.948 23.8309C180.164 24.1269 180.272 24.4749 180.272 24.8749C180.272 25.2429 180.188 25.5869 180.02 25.9069C179.86 26.2269 179.572 26.5749 179.156 26.9509C178.78 27.2949 178.52 27.5949 178.376 27.8509C178.232 28.1069 178.14 28.3629 178.1 28.6189L178.052 28.9549H177.14ZM176.756 31.4629V29.7949H178.436V31.4629H176.756ZM97.1132 47.5829C96.2332 47.5829 95.4772 47.4069 94.8452 47.0549C94.2212 46.6949 93.7412 46.1909 93.4052 45.5429C93.0692 44.8869 92.9012 44.1149 92.9012 43.2269C92.9012 42.3389 93.0692 41.5709 93.4052 40.9229C93.7412 40.2749 94.2212 39.7749 94.8452 39.4229C95.4772 39.0629 96.2332 38.8829 97.1132 38.8829C97.6812 38.8829 98.2172 38.9709 98.7212 39.1469C99.2332 39.3229 99.6532 39.5749 99.9812 39.9029L99.4772 41.1269C99.1172 40.8229 98.7492 40.6029 98.3732 40.4669C97.9972 40.3229 97.5932 40.2509 97.1612 40.2509C96.3052 40.2509 95.6532 40.5109 95.2052 41.0309C94.7572 41.5429 94.5332 42.2749 94.5332 43.2269C94.5332 44.1789 94.7572 44.9149 95.2052 45.4349C95.6532 45.9549 96.3052 46.2149 97.1612 46.2149C97.5932 46.2149 97.9972 46.1469 98.3732 46.0109C98.7492 45.8669 99.1172 45.6429 99.4772 45.3389L99.9812 46.5629C99.6532 46.8829 99.2332 47.1349 98.7212 47.3189C98.2172 47.4949 97.6812 47.5829 97.1132 47.5829ZM101.442 47.4629V39.0029H102.978V46.1549H107.034V47.4629H101.442ZM108.3 47.4629V39.0029H109.836V47.4629H108.3ZM117.879 50.0189L116.715 48.1349C116.483 47.7669 116.103 47.5829 115.575 47.5829C114.759 47.5829 114.047 47.4029 113.439 47.0429C112.831 46.6829 112.359 46.1789 112.023 45.5309C111.687 44.8749 111.519 44.1069 111.519 43.2269C111.519 42.3389 111.687 41.5709 112.023 40.9229C112.359 40.2749 112.831 39.7749 113.439 39.4229C114.047 39.0629 114.763 38.8829 115.587 38.8829C116.411 38.8829 117.127 39.0629 117.735 39.4229C118.343 39.7749 118.815 40.2749 119.151 40.9229C119.487 41.5709 119.655 42.3349 119.655 43.2149C119.655 44.1749 119.455 44.9989 119.055 45.6869C118.663 46.3749 118.119 46.8789 117.423 47.1989C117.767 47.3109 118.063 47.5789 118.311 48.0029L119.187 49.3949L117.879 50.0189ZM115.587 46.2629C116.363 46.2629 116.967 45.9949 117.399 45.4589C117.831 44.9229 118.047 44.1789 118.047 43.2269C118.047 42.2669 117.831 41.5229 117.399 40.9949C116.975 40.4669 116.371 40.2029 115.587 40.2029C114.811 40.2029 114.207 40.4669 113.775 40.9949C113.343 41.5229 113.127 42.2669 113.127 43.2269C113.127 44.1789 113.343 44.9229 113.775 45.4589C114.207 45.9949 114.811 46.2629 115.587 46.2629ZM124.853 47.5829C123.693 47.5829 122.805 47.2829 122.189 46.6829C121.581 46.0749 121.277 45.1789 121.277 43.9949V39.0029H122.813V43.9829C122.813 44.7429 122.985 45.3149 123.329 45.6989C123.681 46.0749 124.189 46.2629 124.853 46.2629C126.205 46.2629 126.881 45.5029 126.881 43.9829V39.0029H128.405V43.9949C128.405 45.1789 128.105 46.0749 127.505 46.6829C126.905 47.2829 126.021 47.5829 124.853 47.5829ZM130.316 47.4629V39.0029H135.944V40.2269H131.792V42.5549H135.68V43.7789H131.792V46.2389H135.944V47.4629H130.316ZM140.951 47.4629V39.0029H146.579V40.2269H142.427V42.5549H146.315V43.7789H142.427V46.2389H146.579V47.4629H140.951ZM148.255 47.4629V39.0029H149.539L152.539 44.5349L155.527 39.0029H156.787V47.4629H155.395V41.7629L152.971 46.1789H152.071L149.647 41.7869V47.4629H148.255ZM162.147 47.4629V39.0029H163.431L166.431 44.5349L169.419 39.0029H170.679V47.4629H169.287V41.7629L166.863 46.1789H165.963L163.539 41.7869V47.4629H162.147ZM172.661 47.4629V39.0029H174.197V47.4629H172.661ZM176.18 47.4629V39.0029H177.464L180.464 44.5349L183.452 39.0029H184.712V47.4629H183.32V41.7629L180.896 46.1789H179.996L177.572 41.7869V47.4629H176.18ZM187.15 49.0589L186.538 48.5789C186.738 48.3789 186.886 48.1869 186.982 48.0029C187.086 47.8269 187.158 47.6469 187.198 47.4629H186.418V45.7949H188.098V46.8989C188.098 47.3069 188.026 47.6789 187.882 48.0149C187.746 48.3589 187.502 48.7069 187.15 49.0589ZM123.958 63.4629V55.0029H125.242L128.242 60.5349L131.23 55.0029H132.49V63.4629H131.098V57.7629L128.674 62.1789H127.774L125.35 57.7869V63.4629H123.958ZM134.472 63.4629V55.0029H136.008V63.4629H134.472ZM137.055 63.4629L140.883 55.0029H142.143L145.971 63.4629H144.411L143.571 61.5069H139.443L138.615 63.4629H137.055ZM141.495 56.6709L139.971 60.2829H143.043L141.519 56.6709H141.495ZM150.474 63.5829C149.314 63.5829 148.426 63.2829 147.81 62.6829C147.202 62.0749 146.898 61.1789 146.898 59.9949V55.0029H148.434V59.9829C148.434 60.7429 148.606 61.3149 148.95 61.6989C149.302 62.0749 149.81 62.2629 150.474 62.2629C151.826 62.2629 152.502 61.5029 152.502 59.9829V55.0029H154.026V59.9949C154.026 61.1789 153.726 62.0749 153.126 62.6829C152.526 63.2829 151.642 63.5829 150.474 63.5829ZM156.045 60.9549L155.577 55.0029H157.425L156.957 60.9549H156.045ZM155.661 63.4629V61.7949H157.341V63.4629H155.661Z" fill="#434343"/>
</svg>
