<svg width="114" height="100" viewBox="0 0 114 100" fill="none" xmlns="http://www.w3.org/2000/svg">
<path d="M110.887 20.493C109.124 16.4828 106.582 12.8487 103.403 9.79431C100.221 6.73079 96.4699 4.29625 92.3533 2.62308C88.0845 0.881223 83.5061 -0.01036 78.8837 9.0821e-05C72.3989 9.0821e-05 66.0719 1.74444 60.5735 5.03933C59.2582 5.82752 58.0085 6.69324 56.8247 7.63648C55.6408 6.69324 54.3912 5.82752 53.0758 5.03933C47.5775 1.74444 41.2505 9.0821e-05 34.7657 9.0821e-05C30.096 9.0821e-05 25.5711 0.878729 21.2961 2.62308C17.1658 4.30283 13.4432 6.71908 10.2469 9.79431C7.06358 12.8453 4.52069 16.4802 2.76231 20.493C0.933924 24.6665 0 29.0985 0 33.6596C0 37.9624 0.894463 42.446 2.67023 47.0072C4.15662 50.8189 6.28755 54.7728 9.0104 58.7654C13.3249 65.0839 19.2573 71.6736 26.6234 78.3539C38.8302 89.4273 50.9186 97.0766 51.4316 97.3867L54.5491 99.3507C55.9302 100.216 57.706 100.216 59.0872 99.3507L62.2046 97.3867C62.7176 97.0637 74.7929 89.4273 87.0128 78.3539C94.379 71.6736 100.311 65.0839 104.626 58.7654C107.349 54.7728 109.493 50.8189 110.966 47.0072C112.742 42.446 113.636 37.9624 113.636 33.6596C113.649 29.0985 112.715 24.6665 110.887 20.493Z" fill="#FF8B82"/>
<path d="M47.0243 41.4543C47.0243 37.5455 43.884 34.3758 40.0115 34.3758C36.139 34.3758 33 37.5455 33 41.4543C33 45.3659 36.1383 48.5341 40.0115 48.5341C43.8847 48.5341 47.0243 45.3659 47.0243 41.4543Z" fill="white"/>
<path d="M74.9878 35.7585C71.116 35.7585 67.9764 38.9281 67.9764 42.837C67.9764 46.7486 71.116 49.9154 74.9878 49.9154C78.8604 49.9154 82 46.7486 82 42.837C82 38.9281 78.8611 35.7585 74.9878 35.7585Z" fill="white"/>
<path d="M68.6192 50.7168C68.1317 50.1102 67.4417 49.408 66.6493 48.6716C64.5351 45.9055 61.2281 44.1158 57.5001 44.1158C54.1821 44.1158 51.1994 45.5341 49.0913 47.7943C47.8938 48.8462 46.8291 49.8729 46.1515 50.7175L45.6979 51.2766C43.5822 53.8809 40.9487 57.121 40.9681 62.6192C40.9867 67.7251 45.1054 71.8817 50.1485 71.8817C51.548 71.8848 52.9293 71.5613 54.1846 70.9367C55.4399 70.3121 56.5353 69.4031 57.3853 68.2807C58.2355 69.4035 59.3312 70.3127 60.5869 70.9374C61.8426 71.5621 63.2244 71.8852 64.6243 71.8817C69.6652 71.8817 73.7832 67.7258 73.8026 62.6192C73.8219 57.121 71.1877 53.8809 69.0727 51.2766L68.6192 50.7168Z" fill="white"/>
<path d="M57.9864 39.6004C62.2535 39.6004 65.7127 36.1081 65.7127 31.8002C65.7127 27.4923 62.2535 24 57.9864 24C53.7192 24 50.26 27.4923 50.26 31.8002C50.26 36.1081 53.7192 39.6004 57.9864 39.6004Z" fill="white"/>
</svg>
