<svg width="124" height="86" viewBox="0 0 124 86" fill="none" xmlns="http://www.w3.org/2000/svg">
<path d="M110.789 15.7273C110.328 15.5224 107.142 16.0457 105.212 18.7275C102.889 21.9569 95.974 30.9167 98.4295 33.6694C100.084 35.5242 108.354 35.7339 113.768 34.8693C113.682 36.9884 113.186 38.3209 112.949 38.7222L117.761 33.7368C118.2 33.4893 118.476 33.2172 118.547 32.923C119.181 30.2946 121.902 24.6142 110.789 15.7273Z" fill="#A6744A"/>
<path d="M118.547 32.923C119.181 30.2946 121.902 24.6142 110.789 15.7273C110.328 15.5224 107.142 16.0457 105.212 18.7275C102.889 21.9569 95.974 30.9167 98.4295 33.6694C100.084 35.5242 108.354 35.7339 113.768 34.8693M118.547 32.923L112.949 38.7222C113.186 38.3209 113.682 36.9884 113.768 34.8693M118.547 32.923C118.34 33.7804 116.389 34.4508 113.768 34.8693" stroke="#5F2E30" stroke-width="0.955999"/>
<path d="M7.77642 40.0806C4.73305 37.6012 2.89858 35.5632 1.95421 33.8775C0.980815 32.1399 0.960507 30.7926 1.51416 29.7145C2.07416 28.624 3.23802 27.7739 4.71002 27.0777C6.0932 26.4234 7.72702 25.9147 9.33665 25.4691C8.27699 28.0056 6.68248 33.9679 7.77642 40.0806Z" fill="#A88183" stroke="#A88183" stroke-width="0.296613"/>
<path d="M25.7871 64.593L26.1336 64.4214L25.7612 64.3172L25.7096 64.3028C24.3091 63.911 22.5158 63.4092 20.82 62.7988C19.1202 62.187 17.536 61.472 16.5438 60.6601C15.5286 59.8292 14.3352 58.1098 13.2206 56.0797C12.1089 54.055 11.0861 51.741 10.4067 49.739C3.24101 28.6246 14.1384 15.6047 20.4562 11.7396C24.5302 9.2843 31.3875 6.7482 38.7075 7.12161C46.0064 7.49394 53.7728 10.7586 59.7127 19.9039C57.1876 36.1009 66.1144 49.3866 70.9227 54.0368C76.8353 66.8545 88.7264 67.808 93.9766 66.6738C94.2103 66.7309 94.3522 66.846 94.4383 66.9892C94.5313 67.1435 94.5686 67.3463 94.5605 67.5796C94.5445 68.0421 94.3517 68.5707 94.1722 68.923C90.4228 73.5418 83.9335 77.162 77.3228 79.8108C70.726 82.4541 64.0305 84.1215 59.871 84.849C51.4649 83.0388 37.1615 78.0669 25.82 69.4914C25.2721 68.9208 24.6271 67.9966 24.44 67.0657C24.3466 66.6012 24.3687 66.1426 24.5652 65.7245C24.7613 65.3072 25.139 64.9138 25.7871 64.593Z" fill="#F6BB62" stroke="#EAEAEA" stroke-width="0.296613"/>
<path d="M27.0198 55.9793C26.5898 58.5655 24.5955 58.3089 22.5439 57.8412C23.1291 59.9002 26.7343 59.8583 27.3395 57.8412C30.6426 58.0941 34.8697 58.474 35.0123 54.1174C33.3767 55.0291 32.6941 57.2178 30.4936 57.3484C29.5233 57.4062 28.1768 56.7027 28.1742 55.6619C28.1723 54.8535 28.5809 54.0225 28.6183 53.1865C27.8487 53.189 26.8366 53.0636 26.1626 53.5055C24.7771 54.4135 25.935 55.6597 27.0198 55.9793Z" fill="#5F2E30"/>
<path d="M7.99689 40.4497C-4.95108 30.054 2.77294 27.106 9.5954 25.2441" stroke="#5F2E30" stroke-width="0.955999"/>
<path d="M35.4543 28.813C31.1383 22.555 25.3836 10.0389 46.484 15.3143" stroke="#5F2E30" stroke-width="0.955999"/>
<path d="M35.9347 18.4176L44.8864 22.9172C45.6856 23.3827 45.8724 23.8482 45.6856 24.2157C44.5317 26.4859 34.6383 29.615 34.8667 19.8141C34.878 19.3279 34.8158 18.2625 35.9347 18.4176Z" fill="#FFCCCC" stroke="#5F2E30" stroke-width="0.955999"/>
<path d="M38.9032 43.6313C37.5608 48.5854 31.2228 47.6428 31.067 47.6079C31.0151 47.5963 30.2927 47.56 30.6357 47.352C30.8275 47.2358 31.3666 47.0381 32.0256 47.0265C35.6871 47.0827 37.8065 44.3941 38.5575 43.0761C38.6288 42.986 38.8026 42.8126 38.9272 42.8405C39.083 42.8754 38.9529 43.4832 38.9032 43.6313Z" fill="#5F2E30" stroke="#5F2E30" stroke-width="0.296613"/>
<path d="M18.384 51.597C14.7689 55.329 10.7093 52.0346 10.5896 51.9317L10.6708 51.3954C13.8609 53.1405 17.0452 51.7594 18.3531 50.9489C18.4601 50.9027 18.6981 50.8309 18.7938 50.9131C18.9136 51.0159 18.5004 51.4898 18.384 51.597Z" fill="#5F2E30" stroke="#5F2E30" stroke-width="0.296613"/>
<path d="M63.3846 43.3519L63.3815 43.3423L63.3771 43.3331C62.6095 41.7404 61.2723 38.2333 60.239 34.1787C59.2052 30.1222 58.4803 25.5354 58.9246 21.7767C59.3649 18.0524 62.1082 14.9168 65.395 12.5034C68.6767 10.0938 72.4724 8.42498 74.9648 7.62684C79.9483 6.23839 92.1392 5.53342 101.037 13.7997C106.615 18.9819 109.634 24.0782 110.945 29.2626C112.256 34.4488 111.86 39.7373 110.584 45.3103C109.309 50.8786 107.236 55.3015 105.047 58.5533C102.856 61.8082 100.556 63.8812 98.8324 64.7612C97.1024 65.6445 93.8079 66.5332 90.1466 66.6579C86.4861 66.7826 82.4829 66.1428 79.3216 63.9949C74.1419 60.4756 71.3174 57.0857 70.8526 54.0808L70.844 54.0246L70.8 53.9887C69.8665 53.2249 68.3005 51.4604 66.8196 49.4311C65.3386 47.4016 63.9586 45.1285 63.3846 43.3519Z" fill="#D79863" stroke="#D79863" stroke-width="0.296613"/>
<path d="M66.491 82.6126C69.4296 82.7001 71.7055 82.0642 69.1405 80.2077C58.605 69.1354 66.5343 82.1757 66.491 82.6126Z" fill="#7B7B7B" fill-opacity="0.29"/>
<path d="M73.5228 80.4407C76.4614 80.5282 78.7373 79.8923 76.1722 78.0359C65.6367 66.9635 73.5661 80.0038 73.5228 80.4407Z" fill="#7B7B7B" fill-opacity="0.29"/>
<path d="M79.9173 77.9583C82.8559 78.0458 85.1318 77.4099 82.5668 75.5534C72.0313 64.4811 79.9606 77.5214 79.9173 77.9583Z" fill="#7B7B7B" fill-opacity="0.29"/>
<path d="M84.7127 74.8547C87.6513 74.9423 89.9272 74.3063 87.3622 72.4499C76.8267 61.3775 84.756 74.4179 84.7127 74.8547Z" fill="#7B7B7B" fill-opacity="0.29"/>
<path d="M50.4929 73.7241C52.0508 77.743 44.669 74.3107 41.8775 72.4489C41.5049 72.2004 29.5844 64.3881 44.6691 60.812C47.5854 59.5344 51.3734 62.7041 49.8699 65.1564C48.3664 67.6087 49.6421 70.9898 50.4929 73.7241Z" fill="#A88183"/>
<path d="M87.8268 54.2945C85.7807 58.8872 88.6793 61.6904 90.3844 62.5179C91.1304 62.9834 93.6133 63.4178 97.5776 61.4318C101.542 59.4458 99.2294 57.5011 97.5776 56.777C97.5776 56.777 96.6353 56.0708 94.7677 57.1335C94.7677 55.1332 93.1018 54.2945 93.1018 54.2945C90.0004 51.8919 88.3596 52.9498 87.8268 54.2945Z" fill="#5F2E30" stroke="#5F2E30" stroke-width="0.296613"/>
<path d="M91.5078 45.2002C86.2671 45.8035 84.8477 39.7341 84.8241 39.5807C84.8162 39.5295 84.5862 38.8638 84.9113 39.0974C85.093 39.2279 85.4801 39.6424 85.7327 40.2333C87.0208 43.5606 90.3748 44.4893 91.9133 44.6845C92.0259 44.7158 92.2558 44.8093 92.2747 44.932C92.2983 45.0855 91.668 45.1907 91.5078 45.2002Z" fill="#5F2E30" stroke="#5F2E30" stroke-width="0.296613"/>
<path d="M103.623 50.7421C103.805 50.8726 104.192 51.2871 104.445 51.878C104.94 53.1567 106.059 54.3706 106.944 55.0353L106.465 55.9663C104.504 54.3337 103.552 51.3274 103.536 51.2254C103.528 51.1742 103.298 50.5085 103.623 50.7421Z" fill="#5F2E30" stroke="#5F2E30" stroke-width="0.296613"/>
<path d="M65.0654 47.1221C64.6391 48.2599 63.0193 50.9079 59.9502 52.3975" stroke="#5F2E30" stroke-width="0.955999"/>
<path d="M16.6655 61.0862C25.2975 66.6719 38.4052 65.7409 48.6356 58.7588" stroke="#5F2E30" stroke-width="0.955999"/>
<path d="M23.263 56.8975C17.892 58.0146 17.0821 58.9145 17.3485 59.2248" stroke="#5F2E30" stroke-width="0.296613"/>
<path d="M24.0189 66.9586C24.5517 66.4932 25.9371 65.7484 27.2159 66.4932" stroke="#5F2E30" stroke-width="0.296613"/>
<path d="M24.6582 65.3654C25.308 65.0715 26.8572 64.7524 27.8558 65.8276" stroke="#5F2E30" stroke-width="0.296613"/>
<path d="M22.4259 55.485C16.9531 55.0291 15.9076 55.6598 16.0689 56.0322" stroke="#5F2E30" stroke-width="0.296613"/>
<path d="M36.5769 53.585C42.024 52.8978 43.0969 53.4837 42.9525 53.8625" stroke="#5F2E30" stroke-width="0.296613"/>
<path d="M36.1664 52.3089C41.1485 50.0637 42.3533 50.3093 42.3329 50.7127" stroke="#5F2E30" stroke-width="0.296613"/>
<path d="M56.3083 69.3096C57.747 75.7745 60.7842 85.0116 53.1113 83.2738" stroke="#5F2E30" stroke-width="0.955999"/>
<path d="M43.8407 68.9993C42.8283 66.103 42.498 62.2654 46.7181 60.1553" stroke="#5F2E30" stroke-width="0.955999"/>
<path d="M62.676 40.8438C61.1308 37.6372 58.2641 29.331 59.1593 21.7593C60.0545 14.1876 70.2955 9.08804 75.3042 7.48473C80.3128 6.08831 92.568 5.37458 101.52 13.6911C112.709 24.0867 113.668 34.172 111.111 45.3434C108.553 56.5148 102.789 63.1026 99.2818 64.8933C95.7747 66.684 86.0142 68.462 79.6201 64.1175C74.4354 60.5948 71.563 57.174 71.088 54.1035M77.3822 45.8088C74.0254 45.0331 71.9473 48.4465 71.1481 52.0152C70.9969 52.6901 70.9773 53.3873 71.088 54.1035M71.088 54.1035C69.1917 52.5519 65.1082 48.5488 63.9451 44.9491" stroke="#5F2E30" stroke-width="0.955999"/>
<ellipse cx="77.2126" cy="50.6909" rx="0.639402" ry="0.620633" fill="#5F2E30"/>
<ellipse cx="77.2126" cy="55.0357" rx="0.639402" ry="0.620633" fill="#5F2E30"/>
<ellipse cx="80.4089" cy="53.1734" rx="0.639402" ry="0.620633" fill="#5F2E30"/>
<path d="M59.7328 19.8659C47.7898 1.41782 28.4307 6.67387 20.244 11.6079C13.8765 15.5032 2.93952 28.5914 10.131 49.7818C11.4957 53.8031 14.2366 59.0694 16.3147 60.77C18.3534 62.4384 22.7891 63.6726 25.586 64.4552M25.7458 64.4999C25.6932 64.4852 25.6399 64.4703 25.586 64.4552M25.586 64.4552C22.9005 65.7848 24.467 68.4375 25.586 69.5977C36.9637 78.2038 51.3138 83.1864 59.7328 84.9952C68.0654 83.5423 86.6169 78.309 94.1619 68.9995C94.5349 68.2755 94.9931 66.7652 93.8422 66.517" stroke="#5F2E30" stroke-width="0.955999"/>
<path d="M86.7831 3.23113C87.1909 3.52285 88.2643 6.48167 86.7831 9.41966C84.9995 12.9574 80.2786 23.1719 76.6077 22.4218C74.1344 21.9164 69.9359 14.9972 68.0905 9.98227C66.2226 11.0824 65.2623 12.1493 65.0156 12.5452L67.1748 6.04287C67.1854 5.55083 67.2966 5.18432 67.5273 4.98144C69.5881 3.16863 73.3877 -1.89472 86.7831 3.23113Z" fill="#A6744A"/>
<path d="M67.5273 4.98144C69.5881 3.16863 73.3877 -1.89472 86.7831 3.23113C87.1909 3.52285 88.2643 6.48167 86.7831 9.41966C84.9995 12.9574 80.2786 23.1719 76.6077 22.4218C74.1344 21.9164 69.9359 14.9972 68.0905 9.98227M67.5273 4.98144L65.0156 12.5452C65.2623 12.1493 66.2226 11.0824 68.0905 9.98227M67.5273 4.98144C66.855 5.57278 67.197 7.55436 68.0905 9.98227" stroke="#5F2E30" stroke-width="0.955999"/>
</svg>
