<svg width="461" height="757" viewBox="0 0 461 757" fill="none" xmlns="http://www.w3.org/2000/svg">
<path d="M385.912 275.303C387.11 275.213 388.368 275.897 389.543 274.764C393.531 270.949 397.83 268.759 401.948 265.686C403.515 264.512 404.433 263.077 403.75 260.865C403.202 259.143 402.075 259.846 400.931 260.316C397.092 261.897 393.966 266.46 390.224 268.549C388.743 269.389 387.147 270.256 385.901 272.021C384.991 273.3 384.741 274.568 385.912 275.303Z" fill="#FABF4B"/>
<path d="M269.584 330.533C262.642 332.664 258.151 340.583 253.117 347.105C251.65 349.012 251.874 351.113 252.707 352.382C253.517 353.624 254.865 352.412 255.667 351.019C259.584 344.329 264.458 339.138 268.826 333.177C269.298 332.532 269.653 331.86 269.584 330.533Z" fill="#FABF4B"/>
<path d="M245.581 378.627C246.294 376.504 247.072 374.369 247.689 372.205C248.171 370.453 247.953 369.162 246.677 368.66C245.49 368.173 244.607 368.648 243.753 370.422C241.593 374.849 240.238 379.524 239.42 384.374C239.196 385.784 239.251 387.226 240.349 387.579C241.466 387.935 242.293 386.851 242.863 385.46C243.782 383.192 244.605 380.882 245.485 378.586C245.515 378.591 245.551 378.622 245.581 378.627Z" fill="#FABF4B"/>
<path d="M417.454 251.117C418.077 251.31 418.897 250.963 419.728 250.407C422.869 248.274 425.705 245.318 428.567 242.366C430.086 240.794 430.517 239.12 429.725 237.214C428.773 234.974 427.644 236.113 426.288 237.698C424.03 240.372 421.775 243.096 419.12 244.817C417.932 245.579 417.153 246.951 416.777 248.654C416.56 249.674 416.57 250.644 417.454 251.117Z" fill="#FABF4B"/>
<path d="M237.648 405.819C235.936 410.218 235.543 414.83 234.525 419.388C234.408 419.964 234.385 420.582 234.461 421.127C234.671 422.555 234.792 424.4 236.002 424.384C237.355 424.345 237.963 422.342 238.287 420.836C239.351 416.101 240.191 411.351 241.213 406.607C241.687 404.461 241.573 403.124 240.011 402.911C238.585 402.703 237.897 403.837 237.648 405.819Z" fill="#FABF4B"/>
<path d="M461.102 188.089C461.52 183.554 463.339 178.321 464.575 172.973C464.791 172.071 464.564 171.055 464.423 170.176C464.266 169.242 463.828 168.513 463.029 168.773C462.447 168.96 462.028 169.825 461.834 170.639C460.365 176.586 458.899 182.534 457.533 188.5C457.181 190.046 456.952 192.128 458.276 192.313C459.577 192.476 460.188 190.518 461.102 188.089Z" fill="#FABF4B"/>
<path d="M293.429 308.22C292.999 308.228 292.326 308.117 291.644 308.217C287.912 308.782 284.501 311.902 281.055 314.51C280.122 315.227 278.791 316.607 279.337 318.467C279.902 320.357 280.956 319.224 282.097 318.292C285.566 315.479 289.223 314.071 292.852 312.425C293.782 312.005 294.932 312.346 295.145 310.263C295.321 308.749 294.373 308.633 293.429 308.22Z" fill="#FABF4B"/>
<path d="M342.324 293.812C338.829 292.624 335.084 294.019 331.537 294.228C330.495 294.299 329.952 295.347 329.928 296.752C329.891 298.313 329.849 300.084 331.469 299.592C334.728 298.613 337.785 299.068 340.946 298.762C342.027 298.649 343.328 298.925 343.854 296.766C344.36 294.671 342.988 294.495 342.324 293.812Z" fill="#FABF4B"/>
<path d="M457.867 36.5216C456.871 40.9913 455.595 45.3599 455.204 49.7396C455.016 51.8951 455.392 53.6302 457.334 53.0194C459.006 52.5143 459.001 50.8718 458.969 49.2742C458.928 45.8736 460.284 42.5581 460.891 39.1906C460.963 38.7878 461.136 38.4078 461.295 38.0234C462.242 35.6452 462.461 33.3111 460.768 32.6545C458.772 31.8731 458.906 35.3876 457.867 36.5216Z" fill="#FABF4B"/>
<path d="M358.905 290.027C362.343 290.421 365.915 289.109 369.522 286.951C370.354 286.444 370.737 285.548 370.608 284.508C370.444 283.181 369.957 281.633 369.006 281.957C365.595 283.113 362.092 283.148 358.801 286.154C357.317 287.48 357.409 289.438 358.905 290.027Z" fill="#FABF4B"/>
<path d="M237.584 461.331C238.529 461.283 239.374 460.662 239.3 459.169C239.023 454.129 238.947 448.967 237.526 444.58C237.143 443.398 236.125 442.852 235.138 443.537C233.899 444.381 234.118 446.085 234.351 447.192C235.193 451.167 234.74 455.948 236.377 459.433C236.73 460.149 236.939 460.996 237.584 461.331Z" fill="#FABF4B"/>
<path d="M447.691 219.015C448.781 216.619 450.09 214.314 449.418 211.64C448.888 209.552 447.806 209.367 446.799 211.617C444.991 215.628 443.535 219.868 441.611 223.856C441.001 225.1 440.508 227.195 441.751 227.944C442.782 228.563 443.542 227.026 444.357 226.053C445.996 224.065 446.629 221.37 447.691 219.015Z" fill="#FABF4B"/>
<path d="M460.812 87.5168C461.422 85.8568 460.282 75.987 459.369 75.2076C458.219 74.2218 457.143 75.026 456.775 76.9881C456.069 80.7988 456.112 84.4981 457.124 87.5608C457.837 89.7775 460.103 89.5021 460.812 87.5168Z" fill="#FABF4B"/>
<path d="M247.953 487.061C249.214 486.844 250.194 488.076 251.284 486.325C252.562 484.264 251.328 483.607 250.737 482.64C249.475 480.547 248.476 478.137 246.943 476.382C246.136 475.488 245.242 475.404 244.363 476.57C243.64 477.539 243.691 478.889 244.156 479.81C245.411 482.293 246.725 484.721 247.953 487.061Z" fill="#FABF4B"/>
<path d="M269.553 493.372C267.993 492.674 265.994 493.325 264.791 491.474C264.455 490.947 263.712 491.101 263.333 491.93C263.022 492.607 262.814 493.535 262.846 494.235C262.978 497.7 267.664 500.6 270.128 498.793C271.014 498.135 271.687 497.184 271.708 495.847C271.734 493.912 270.443 493.941 269.553 493.372Z" fill="#FABF4B"/>
<path d="M318.162 301.982C315.424 297.734 311.746 299.047 308.213 299.905C307.627 300.046 307.298 300.975 307.157 301.822C306.866 303.542 307.885 303.859 308.548 303.709C311.574 302.983 314.399 304.159 318.162 301.982Z" fill="#FABF4B"/>
<path d="M28.9386 755.223C28.5928 754.072 27.5039 753.143 28.1405 751.64C30.2735 746.55 30.7772 741.752 32.1713 736.807C32.7056 734.923 33.7172 733.552 36.0265 733.397C37.83 733.291 37.5778 734.595 37.5495 735.831C37.4482 739.983 34.3085 744.535 33.6986 748.777C33.445 750.462 33.2074 752.262 32.0059 754.057C31.1378 755.365 30.0441 756.053 28.9386 755.223Z" fill="#FABF4B"/>
<path d="M40.2176 717.109C39.8145 716.598 39.8444 715.707 40.0657 714.732C40.9319 711.036 42.6753 707.329 44.4063 703.599C45.33 701.618 46.7379 700.616 48.8006 700.672C51.2332 700.758 50.5747 702.221 49.5807 704.054C47.8931 707.121 46.1576 710.202 45.5021 713.297C45.2162 714.679 44.2146 715.898 42.7601 716.86C41.8855 717.428 40.9757 717.766 40.2176 717.109Z" fill="#FABF4B"/>
<path d="M253.973 581.019C253.056 581.691 252.238 582.308 251.398 582.887C250.346 583.597 249.209 584.26 248.503 583.511C247.876 582.852 247.322 582.14 248.624 580.671C251.27 577.684 253.776 574.595 256.391 571.594C257.519 570.321 258.813 569.491 260.379 569.558C262.408 569.64 263.378 570.289 261.441 572.538C258.995 575.42 256.429 578.241 253.973 581.019Z" fill="#FABF4B"/>
<path d="M83.4229 653.777C87.5075 651.763 91.741 648.19 96.2909 645.12C97.0559 644.595 98.0856 644.443 98.9574 644.259C99.8848 644.071 100.723 644.219 100.767 645.058C100.8 645.668 100.143 646.369 99.4521 646.842C94.4261 650.344 89.3986 653.844 84.318 657.257C83.0008 658.14 81.1394 659.1 80.4918 657.93C79.8737 656.773 81.4831 655.502 83.4229 653.777Z" fill="#FABF4B"/>
<path d="M226.087 602.493C222.271 605.025 218.65 607.781 214.701 609.716C212.756 610.664 211.001 610.934 210.875 608.902C210.748 607.16 212.283 606.576 213.786 606.034C216.976 604.853 219.585 602.399 222.512 600.627C222.862 600.416 223.155 600.117 223.457 599.831C225.338 598.095 227.439 597.055 228.658 598.399C230.103 599.983 226.774 601.118 226.087 602.493Z" fill="#FABF4B"/>
<path d="M59.3552 677.379C61.2015 675.502 62.8846 673.454 65.6216 673.124C67.7602 672.87 68.3216 673.814 66.5815 675.56C63.4846 678.685 60.0478 681.564 57.0133 684.789C56.0711 685.804 54.2913 687.015 53.1468 686.123C52.1996 685.383 53.3618 684.122 53.9786 683.013C55.2477 680.77 57.5365 679.214 59.3552 677.379Z" fill="#FABF4B"/>
<path d="M177.422 618.015C178.754 616.851 188.377 614.379 189.431 614.952C190.764 615.673 190.398 616.965 188.698 618.012C185.394 620.036 181.925 621.322 178.703 621.474C176.378 621.603 175.823 619.388 177.422 618.015Z" fill="#FABF4B"/>
<path d="M144.099 623.318C143.691 622.501 143.544 621.79 144.186 620.937C144.901 619.992 145.863 619.09 147.04 619.051C150.575 618.932 154.071 618.839 157.554 618.812C158.335 618.817 159.207 618.978 159.06 619.934C158.891 620.906 157.823 621.378 156.996 621.893C155.755 622.684 154.305 623.314 153.303 623.12C151.115 622.699 148.645 623.24 146.259 623.487C145.432 623.568 144.691 623.367 144.099 623.318Z" fill="#FABF4B"/>
<path d="M278.835 546.465C277.64 547.462 276.584 548.591 275.281 548.304C274.075 548.038 273.957 546.996 274.509 545.79C275.66 543.23 276.392 540.551 279.067 538.251C280.2 537.284 281.419 536.579 282.595 536.92C283.744 537.266 283.908 538.253 283.292 539.49C282.098 541.9 280.848 544.346 278.835 546.465Z" fill="#FABF4B"/>
<path d="M124.589 632.764C120.443 636.093 116.702 637.245 112.999 638.466C111.302 639.038 109.666 639.073 109.862 637.251C110.007 635.77 111.484 634.628 112.983 634.252C116.726 633.312 120.882 631.155 124.589 632.764Z" fill="#FABF4B"/>
</svg>
