<svg width="441" height="725" viewBox="0 0 441 725" fill="none" xmlns="http://www.w3.org/2000/svg">
<path d="M365.912 243.303C367.11 243.213 368.368 243.897 369.543 242.764C373.531 238.949 377.83 236.759 381.948 233.686C383.515 232.512 384.433 231.077 383.75 228.865C383.202 227.143 382.075 227.846 380.931 228.316C377.092 229.897 373.966 234.46 370.224 236.549C368.743 237.389 367.147 238.256 365.901 240.021C364.991 241.3 364.741 242.568 365.912 243.303Z" fill="#FABF4B"/>
<path d="M249.584 298.533C242.642 300.664 238.151 308.583 233.117 315.105C231.65 317.012 231.874 319.113 232.707 320.382C233.517 321.624 234.865 320.412 235.667 319.019C239.584 312.329 244.458 307.138 248.826 301.177C249.298 300.532 249.653 299.86 249.584 298.533Z" fill="#FABF4B"/>
<path d="M225.581 346.627C226.294 344.504 227.072 342.369 227.689 340.205C228.171 338.453 227.953 337.162 226.677 336.66C225.49 336.173 224.607 336.648 223.753 338.422C221.593 342.849 220.238 347.524 219.42 352.374C219.196 353.784 219.251 355.226 220.349 355.579C221.466 355.934 222.293 354.851 222.863 353.46C223.782 351.192 224.605 348.882 225.485 346.586C225.515 346.591 225.551 346.622 225.581 346.627Z" fill="#FABF4B"/>
<path d="M397.454 219.117C398.077 219.31 398.897 218.963 399.728 218.407C402.869 216.274 405.705 213.318 408.567 210.366C410.086 208.794 410.517 207.12 409.725 205.215C408.773 202.974 407.644 204.113 406.288 205.698C404.03 208.372 401.775 211.096 399.12 212.817C397.932 213.58 397.153 214.951 396.777 216.654C396.56 217.674 396.57 218.644 397.454 219.117Z" fill="#FABF4B"/>
<path d="M217.648 373.819C215.936 378.218 215.543 382.83 214.525 387.388C214.408 387.964 214.385 388.582 214.461 389.127C214.671 390.555 214.792 392.4 216.002 392.384C217.355 392.345 217.963 390.342 218.287 388.836C219.351 384.101 220.191 379.351 221.213 374.607C221.687 372.461 221.573 371.124 220.011 370.911C218.585 370.703 217.897 371.837 217.648 373.819Z" fill="#FABF4B"/>
<path d="M441.102 156.089C441.52 151.554 443.339 146.321 444.575 140.973C444.791 140.071 444.564 139.055 444.423 138.176C444.266 137.242 443.828 136.513 443.029 136.773C442.447 136.96 442.028 137.825 441.834 138.639C440.365 144.586 438.899 150.534 437.533 156.5C437.181 158.046 436.952 160.128 438.276 160.313C439.577 160.476 440.188 158.518 441.102 156.089Z" fill="#FABF4B"/>
<path d="M273.429 276.22C273 276.228 272.326 276.117 271.644 276.217C267.912 276.782 264.501 279.902 261.055 282.51C260.122 283.227 258.792 284.607 259.337 286.467C259.903 288.357 260.957 287.224 262.098 286.292C265.567 283.479 269.224 282.071 272.852 280.425C273.782 280.005 274.932 280.346 275.145 278.263C275.322 276.749 274.374 276.633 273.429 276.22Z" fill="#FABF4B"/>
<path d="M322.324 261.812C318.829 260.625 315.084 262.019 311.537 262.228C310.495 262.299 309.952 263.347 309.928 264.752C309.891 266.313 309.849 268.084 311.469 267.592C314.728 266.613 317.785 267.068 320.946 266.762C322.027 266.649 323.328 266.925 323.854 264.766C324.36 262.671 322.988 262.495 322.324 261.812Z" fill="#FABF4B"/>
<path d="M437.868 4.52158C436.871 8.99127 435.596 13.3599 435.204 17.7396C435.016 19.8951 435.393 21.6302 437.335 21.0194C439.006 20.5143 439.001 18.8718 438.97 17.2742C438.929 13.8736 440.285 10.5581 440.891 7.19056C440.963 6.78784 441.137 6.40782 441.296 6.02339C442.243 3.64516 442.461 1.31108 440.769 0.654528C438.773 -0.126912 438.906 3.38755 437.868 4.52158Z" fill="#FABF4B"/>
<path d="M338.905 258.027C342.343 258.421 345.915 257.109 349.522 254.951C350.354 254.444 350.737 253.548 350.608 252.508C350.444 251.181 349.957 249.633 349.006 249.957C345.595 251.113 342.092 251.148 338.801 254.154C337.317 255.48 337.409 257.438 338.905 258.027Z" fill="#FABF4B"/>
<path d="M217.584 429.331C218.529 429.283 219.374 428.662 219.3 427.169C219.023 422.129 218.947 416.967 217.526 412.58C217.143 411.398 216.125 410.852 215.138 411.537C213.899 412.381 214.118 414.085 214.351 415.192C215.193 419.167 214.74 423.948 216.377 427.433C216.73 428.149 216.939 428.996 217.584 429.331Z" fill="#FABF4B"/>
<path d="M427.691 187.015C428.781 184.619 430.09 182.314 429.418 179.64C428.889 177.552 427.806 177.367 426.8 179.617C424.992 183.628 423.535 187.868 421.612 191.856C421.001 193.1 420.508 195.195 421.751 195.944C422.782 196.563 423.543 195.026 424.357 194.053C425.997 192.065 426.629 189.37 427.691 187.015Z" fill="#FABF4B"/>
<path d="M440.812 55.5168C441.422 53.8568 440.282 43.987 439.369 43.2076C438.219 42.2218 437.143 43.026 436.775 44.9881C436.069 48.7988 436.112 52.4981 437.124 55.5608C437.837 57.7775 440.103 57.5021 440.812 55.5168Z" fill="#FABF4B"/>
<path d="M227.954 455.061C229.215 454.844 230.194 456.076 231.285 454.325C232.562 452.264 231.328 451.607 230.737 450.64C229.476 448.547 228.477 446.137 226.943 444.382C226.136 443.488 225.242 443.404 224.364 444.57C223.641 445.539 223.692 446.889 224.157 447.81C225.411 450.293 226.725 452.721 227.954 455.061Z" fill="#FABF4B"/>
<path d="M249.554 461.372C247.993 460.674 245.994 461.325 244.791 459.474C244.456 458.947 243.712 459.101 243.334 459.93C243.022 460.607 242.815 461.535 242.846 462.235C242.978 465.7 247.664 468.6 250.128 466.793C251.014 466.135 251.687 465.184 251.709 463.847C251.734 461.912 250.443 461.941 249.554 461.372Z" fill="#FABF4B"/>
<path d="M298.162 269.982C295.424 265.734 291.746 267.047 288.213 267.905C287.627 268.046 287.298 268.975 287.157 269.822C286.866 271.542 287.885 271.859 288.548 271.709C291.574 270.983 294.399 272.159 298.162 269.982Z" fill="#FABF4B"/>
<path d="M8.93856 723.223C8.5928 722.072 7.50386 721.143 8.14048 719.64C10.2735 714.55 10.7772 709.752 12.1713 704.807C12.7056 702.923 13.7172 701.552 16.0265 701.397C17.83 701.291 17.5778 702.595 17.5495 703.831C17.4482 707.983 14.3085 712.535 13.6986 716.777C13.445 718.462 13.2074 720.262 12.0059 722.057C11.1378 723.365 10.0441 724.053 8.93856 723.223Z" fill="#FABF4B"/>
<path d="M20.2176 685.109C19.8145 684.598 19.8444 683.707 20.0657 682.732C20.9319 679.036 22.6753 675.329 24.4063 671.599C25.33 669.618 26.7379 668.616 28.8006 668.672C31.2332 668.758 30.5747 670.221 29.5807 672.054C27.8931 675.121 26.1576 678.202 25.5021 681.297C25.2162 682.679 24.2146 683.898 22.7601 684.86C21.8855 685.428 20.9757 685.766 20.2176 685.109Z" fill="#FABF4B"/>
<path d="M233.973 549.019C233.056 549.691 232.238 550.308 231.398 550.887C230.346 551.597 229.209 552.26 228.503 551.511C227.876 550.852 227.322 550.14 228.624 548.671C231.27 545.684 233.776 542.595 236.391 539.594C237.519 538.321 238.813 537.491 240.379 537.558C242.408 537.64 243.378 538.289 241.441 540.538C238.995 543.42 236.429 546.241 233.973 549.019Z" fill="#FABF4B"/>
<path d="M63.4229 621.777C67.5075 619.763 71.741 616.19 76.2909 613.12C77.0559 612.595 78.0856 612.443 78.9574 612.259C79.8848 612.071 80.7225 612.219 80.7667 613.058C80.8005 613.668 80.1431 614.369 79.4521 614.842C74.4261 618.344 69.3986 621.844 64.318 625.256C63.0008 626.14 61.1394 627.1 60.4918 625.93C59.8737 624.773 61.4831 623.502 63.4229 621.777Z" fill="#FABF4B"/>
<path d="M206.087 570.493C202.271 573.025 198.65 575.781 194.701 577.716C192.756 578.664 191.001 578.934 190.875 576.902C190.748 575.16 192.283 574.576 193.786 574.034C196.976 572.853 199.585 570.399 202.512 568.627C202.862 568.415 203.155 568.117 203.457 567.831C205.338 566.095 207.439 565.055 208.658 566.399C210.103 567.983 206.774 569.118 206.087 570.493Z" fill="#FABF4B"/>
<path d="M39.3552 645.379C41.2015 643.502 42.8846 641.454 45.6216 641.124C47.7602 640.87 48.3216 641.814 46.5815 643.56C43.4846 646.685 40.0478 649.564 37.0133 652.789C36.0711 653.804 34.2913 655.015 33.1468 654.123C32.1996 653.383 33.3618 652.122 33.9786 651.013C35.2477 648.77 37.5365 647.214 39.3552 645.379Z" fill="#FABF4B"/>
<path d="M157.423 586.015C158.754 584.851 168.377 582.379 169.432 582.952C170.764 583.672 170.399 584.965 168.699 586.011C165.394 588.036 161.925 589.322 158.703 589.474C156.378 589.603 155.823 587.388 157.423 586.015Z" fill="#FABF4B"/>
<path d="M124.099 591.318C123.691 590.501 123.544 589.79 124.187 588.937C124.902 587.992 125.863 587.09 127.04 587.051C130.575 586.932 134.072 586.839 137.554 586.812C138.336 586.817 139.207 586.978 139.06 587.934C138.891 588.906 137.823 589.378 136.996 589.893C135.756 590.684 134.306 591.314 133.304 591.12C131.116 590.699 128.646 591.24 126.26 591.487C125.432 591.568 124.692 591.367 124.099 591.318Z" fill="#FABF4B"/>
<path d="M258.835 514.465C257.64 515.462 256.584 516.591 255.281 516.304C254.075 516.038 253.957 514.996 254.509 513.79C255.66 511.23 256.392 508.551 259.067 506.251C260.2 505.284 261.419 504.579 262.595 504.92C263.744 505.266 263.908 506.253 263.292 507.49C262.098 509.9 260.848 512.346 258.835 514.465Z" fill="#FABF4B"/>
<path d="M104.589 600.764C100.443 604.093 96.7024 605.246 92.9994 606.466C91.3017 607.038 89.6664 607.073 89.8622 605.251C90.0069 603.77 91.4838 602.628 92.9828 602.252C96.7258 601.312 100.882 599.155 104.589 600.764Z" fill="#FABF4B"/>
</svg>
