<svg width="388" height="270" viewBox="0 0 388 270" fill="none" xmlns="http://www.w3.org/2000/svg">
<path d="M155.125 246.347C156.257 246.752 157.128 247.888 158.663 247.33C163.856 245.464 168.674 245.21 173.685 244.075C175.594 243.639 177.016 242.7 177.29 240.402C177.489 238.606 176.174 238.79 174.938 238.754C170.787 238.64 166.077 241.539 161.81 241.928C160.114 242.094 158.304 242.238 156.449 243.345C155.097 244.144 154.354 245.2 155.125 246.347Z" fill="#FABF4B"/>
<path d="M26.3918 249.556C19.1835 248.683 11.8619 254.095 4.61212 258.009C2.49795 259.155 1.84862 261.166 2.09441 262.664C2.32996 264.128 4.05386 263.569 5.35271 262.621C11.6496 258.099 18.2121 255.336 24.6255 251.664C25.3181 251.267 25.9154 250.797 26.3918 249.556Z" fill="#FABF4B"/>
<path d="M193.773 237.062C194.264 237.491 195.154 237.507 196.14 237.337C199.876 236.664 203.668 235.115 207.483 233.58C209.509 232.76 210.583 231.406 210.634 229.344C210.674 226.91 209.179 227.491 207.297 228.389C204.147 229.915 200.98 231.488 197.855 231.982C196.46 232.196 195.19 233.133 194.155 234.536C193.542 235.38 193.157 236.271 193.773 237.062Z" fill="#FABF4B"/>
<path d="M340.774 30.6577C340.056 31.5391 339.398 32.3231 338.775 33.1324C338.012 34.1461 337.291 35.2473 338.002 35.9912C338.628 36.6511 339.31 37.2415 340.845 36.0174C343.964 33.5303 347.18 31.188 350.312 28.7326C351.642 27.672 352.538 26.4226 352.553 24.8552C352.576 22.8249 351.978 21.8224 349.632 23.6405C346.627 25.9327 343.676 28.3489 340.774 30.6577Z" fill="#FABF4B"/>
<path d="M259.262 197.202C261.486 193.227 265.274 189.185 268.576 184.8C269.14 184.064 269.345 183.043 269.574 182.182C269.81 181.266 269.706 180.421 268.87 180.334C268.263 180.268 267.529 180.889 267.02 181.554C263.262 186.391 259.506 191.231 255.834 196.127C254.884 197.397 253.829 199.206 254.963 199.913C256.087 200.591 257.44 199.049 259.262 197.202Z" fill="#FABF4B"/>
<path d="M57.2455 238.854C56.85 238.687 56.2792 238.312 55.6159 238.126C51.9758 237.126 47.5913 238.592 43.3831 239.575C42.2393 239.851 40.463 240.571 40.206 242.492C39.9548 244.449 41.3784 243.842 42.7994 243.454C47.1118 242.293 51.0258 242.492 55.01 242.462C56.0305 242.456 56.9426 243.235 57.9837 241.418C58.7597 240.106 57.941 239.615 57.2455 238.854Z" fill="#FABF4B"/>
<path d="M107.777 245.552C105.066 243.048 101.078 242.8 97.7513 241.55C96.7703 241.193 95.8484 241.929 95.2558 243.203C94.5884 244.615 93.8303 246.216 95.5103 246.424C98.8857 246.854 101.495 248.511 104.507 249.516C105.541 249.852 106.617 250.633 107.975 248.874C109.289 247.165 108.106 246.447 107.777 245.552Z" fill="#FABF4B"/>
<path d="M317.882 57.3913C315.155 61.0707 312.215 64.5443 310.078 68.3873C309.03 70.2805 308.67 72.019 310.692 72.2498C312.425 72.4673 313.088 70.9645 313.708 69.4918C315.052 66.3678 317.638 63.8892 319.56 61.0584C319.789 60.7196 320.102 60.4429 320.404 60.1562C322.236 58.3678 323.383 56.3237 322.104 55.0363C320.597 53.5113 319.291 56.7769 317.882 57.3913Z" fill="#FABF4B"/>
<path d="M124.466 248.83C127.447 250.587 131.244 250.84 135.417 250.332C136.383 250.207 137.097 249.544 137.401 248.542C137.791 247.262 137.975 245.65 136.974 245.559C133.387 245.23 130.173 243.84 125.944 245.249C124.05 245.857 123.338 247.685 124.466 248.83Z" fill="#FABF4B"/>
<path d="M234.444 220.012C236.414 218.265 238.546 216.691 239.018 213.975C239.383 211.852 238.469 211.242 236.635 212.89C233.353 215.82 230.3 219.103 226.922 221.966C225.859 222.854 224.557 224.569 225.389 225.758C226.079 226.742 227.398 225.647 228.538 225.089C230.844 223.938 232.517 221.733 234.444 220.012Z" fill="#FABF4B"/>
<path d="M299.855 105.185C301.087 103.916 304.055 94.434 303.537 93.3509C302.887 91.9829 301.577 92.2806 300.444 93.9241C298.251 97.1192 296.787 100.517 296.468 103.727C296.218 106.042 298.401 106.711 299.855 105.185Z" fill="#FABF4B"/>
<path d="M292.83 138.189C293.625 138.638 294.327 138.822 295.213 138.224C296.193 137.559 297.144 136.646 297.244 135.473C297.546 131.949 297.82 128.462 298.028 124.985C298.063 124.205 297.949 123.326 296.986 123.423C296.006 123.541 295.48 124.584 294.923 125.383C294.068 126.58 293.364 127.996 293.505 129.006C293.812 131.213 293.144 133.652 292.773 136.022C292.649 136.844 292.812 137.594 292.83 138.189Z" fill="#FABF4B"/>
<path d="M376.572 7.62279C375.515 8.76389 374.332 9.75993 374.551 11.0756C374.754 12.2943 375.789 12.4661 377.022 11.9781C379.638 10.9609 382.352 10.3693 384.787 7.817C385.812 6.73608 386.579 5.55527 386.299 4.36322C386.014 3.1972 385.037 2.98222 383.769 3.53337C381.301 4.60073 378.793 5.72163 376.572 7.62279Z" fill="#FABF4B"/>
<path d="M282.384 157.182C278.845 161.15 277.499 164.825 276.089 168.46C275.429 170.126 275.309 171.757 277.139 171.656C278.625 171.588 279.843 170.173 280.296 168.695C281.429 165.006 283.799 160.967 282.384 157.182Z" fill="#FABF4B"/>
<path d="M82.3794 243.202C81.6035 238.208 77.7093 237.913 74.1326 237.263C73.5402 237.153 72.8618 237.868 72.3891 238.585C71.424 240.038 72.2261 240.742 72.8926 240.875C75.953 241.44 78.0566 243.662 82.3794 243.202Z" fill="#FABF4B"/>
</svg>
