<svg width="640" height="828" viewBox="0 0 640 828" fill="none" xmlns="http://www.w3.org/2000/svg">
<path d="M566.987 351.535C568.181 351.395 569.466 352.026 570.593 350.845C574.418 346.867 578.623 344.5 582.608 341.258C584.125 340.02 584.982 338.547 584.208 336.366C583.589 334.669 582.492 335.418 581.369 335.934C577.598 337.675 574.666 342.364 571.015 344.607C569.569 345.509 568.011 346.441 566.84 348.257C565.984 349.573 565.787 350.849 566.987 351.535Z" fill="#FABF4B"/>
<path d="M453.064 411.568C446.217 413.986 442.06 422.086 437.302 428.813C435.916 430.778 436.227 432.868 437.113 434.102C437.974 435.309 439.27 434.042 440.013 432.616C443.648 425.769 448.301 420.379 452.417 414.241C452.861 413.578 453.188 412.891 453.064 411.568Z" fill="#FABF4B"/>
<path d="M431.087 460.621C431.711 458.471 432.399 456.304 432.926 454.116C433.334 452.346 433.062 451.065 431.767 450.617C430.56 450.18 429.697 450.692 428.919 452.499C426.945 457.013 425.786 461.74 425.171 466.62C425.006 468.038 425.121 469.476 426.233 469.784C427.363 470.092 428.144 468.975 428.656 467.562C429.48 465.257 430.206 462.915 430.989 460.584C431.02 460.588 431.057 460.617 431.087 460.621Z" fill="#FABF4B"/>
<path d="M597.494 326.055C598.124 326.222 598.929 325.841 599.736 325.251C602.785 322.989 605.496 319.917 608.232 316.848C609.684 315.214 610.045 313.524 609.175 311.653C608.13 309.454 607.049 310.639 605.761 312.279C603.616 315.045 601.477 317.861 598.896 319.691C597.741 320.502 597.019 321.905 596.714 323.622C596.54 324.65 596.591 325.619 597.494 326.055Z" fill="#FABF4B"/>
<path d="M424.295 488.12C422.768 492.587 422.568 497.212 421.741 501.807C421.648 502.388 421.651 503.006 421.749 503.548C422.019 504.966 422.217 506.804 423.425 506.737C424.775 506.642 425.299 504.615 425.56 503.097C426.426 498.322 427.067 493.541 427.89 488.759C428.274 486.595 428.105 485.264 426.535 485.116C425.102 484.968 424.461 486.13 424.295 488.12Z" fill="#FABF4B"/>
<path d="M637.566 75.8426C637.313 76.9514 637.072 77.9461 636.873 78.9477C636.639 80.1946 636.482 81.5016 637.449 81.8525C638.303 82.166 639.177 82.3919 640.008 80.6137C641.699 77 643.541 73.4736 645.257 69.8827C645.977 68.3421 646.226 66.8247 645.543 65.4136C644.662 63.5841 643.682 62.9514 642.386 65.6223C640.712 69.0103 639.14 72.4854 637.566 75.8426Z" fill="#FABF4B"/>
<path d="M638.476 261.262C638.704 256.713 640.303 251.409 641.315 246.014C641.493 245.104 641.224 244.098 641.046 243.225C640.851 242.299 640.383 241.589 639.595 241.882C639.022 242.093 638.639 242.974 638.479 243.796C637.26 249.799 636.043 255.803 634.927 261.821C634.639 263.381 634.497 265.47 635.827 265.6C637.135 265.708 637.663 263.727 638.476 261.262Z" fill="#FABF4B"/>
<path d="M475.958 388.28C475.529 388.306 474.851 388.224 474.174 388.351C470.469 389.072 467.191 392.332 463.856 395.081C462.954 395.836 461.683 397.27 462.305 399.106C462.949 400.971 463.955 399.794 465.056 398.816C468.405 395.861 472 394.301 475.556 392.505C476.468 392.047 477.631 392.339 477.758 390.25C477.87 388.73 476.919 388.653 475.958 388.28Z" fill="#FABF4B"/>
<path d="M524.209 371.845C520.668 370.805 516.984 372.354 513.449 372.711C512.411 372.826 511.912 373.895 511.947 375.3C511.975 376.861 512.007 378.632 513.605 378.073C516.82 376.959 519.893 377.286 523.039 376.848C524.114 376.691 525.426 376.913 525.861 374.734C526.279 372.619 524.901 372.5 524.209 371.845Z" fill="#FABF4B"/>
<path d="M628.923 109.961C628.114 114.468 627.022 118.886 626.813 123.279C626.715 125.44 627.164 127.158 629.079 126.467C630.728 125.892 630.654 124.251 630.556 122.656C630.374 119.26 631.59 115.891 632.056 112.501C632.111 112.096 632.268 111.709 632.411 111.318C633.258 108.903 633.379 106.562 631.661 105.976C629.634 105.279 629.914 108.785 628.923 109.961Z" fill="#FABF4B"/>
<path d="M540.618 367.372C544.07 367.623 547.584 366.163 551.098 363.856C551.908 363.315 552.253 362.404 552.08 361.371C551.861 360.051 551.311 358.525 550.374 358.888C547.014 360.186 543.516 360.367 540.353 363.507C538.926 364.893 539.099 366.847 540.618 367.372Z" fill="#FABF4B"/>
<path d="M426.546 543.586C427.488 543.499 428.307 542.843 428.17 541.355C427.683 536.331 427.392 531.176 425.79 526.853C425.358 525.688 424.317 525.185 423.36 525.91C422.157 526.805 422.447 528.498 422.727 529.595C423.733 533.531 423.48 538.327 425.261 541.741C425.643 542.441 425.887 543.279 426.546 543.586Z" fill="#FABF4B"/>
<path d="M626.365 292.72C627.355 290.28 628.566 287.923 627.783 285.279C627.167 283.216 626.078 283.075 625.166 285.365C623.527 289.448 622.248 293.745 620.493 297.811C619.935 299.078 619.53 301.193 620.803 301.889C621.859 302.464 622.555 300.897 623.328 299.891C624.883 297.836 625.402 295.118 626.365 292.72Z" fill="#FABF4B"/>
<path d="M633.992 160.789C634.532 159.105 632.982 149.291 632.037 148.551C630.847 147.614 629.805 148.462 629.52 150.438C628.973 154.275 629.17 157.969 630.309 160.987C631.114 163.172 633.367 162.802 633.992 160.789Z" fill="#FABF4B"/>
<path d="M642.351 193.48C643.263 193.53 643.973 193.383 644.502 192.454C645.085 191.423 645.531 190.183 645.1 189.087C643.806 185.795 642.504 182.549 641.146 179.342C640.831 178.627 640.338 177.89 639.519 178.405C638.693 178.946 638.685 180.114 638.54 181.077C638.306 182.529 638.303 184.11 638.879 184.953C640.134 186.794 640.618 189.276 641.338 191.564C641.592 192.356 642.07 192.956 642.351 193.48Z" fill="#FABF4B"/>
<path d="M437.98 568.862C439.23 568.592 440.261 569.782 441.277 567.988C442.467 565.875 441.207 565.27 440.576 564.328C439.228 562.29 438.13 559.924 436.525 558.234C435.681 557.374 434.784 557.328 433.955 558.53C433.273 559.527 433.381 560.875 433.884 561.775C435.24 564.204 436.654 566.575 437.98 568.862Z" fill="#FABF4B"/>
<path d="M459.823 574.267C458.235 573.634 456.265 574.368 454.986 572.569C454.629 572.057 453.892 572.242 453.549 573.085C453.266 573.774 453.097 574.711 453.158 575.408C453.434 578.865 458.237 581.567 460.624 579.658C461.481 578.964 462.114 577.986 462.08 576.65C462.025 574.715 460.736 574.798 459.823 574.267Z" fill="#FABF4B"/>
<path d="M641.424 215.137C640.015 220.264 640.441 224.154 640.791 228.037C640.939 229.823 641.556 231.338 643.151 230.435C644.453 229.714 644.915 227.905 644.665 226.38C644.042 222.572 644.372 217.9 641.424 215.137Z" fill="#FABF4B"/>
<path d="M500.408 381.016C497.496 376.886 493.876 378.351 490.382 379.356C489.803 379.521 489.512 380.463 489.407 381.315C489.187 383.046 490.219 383.32 490.875 383.143C493.868 382.291 496.739 383.348 500.408 381.016Z" fill="#FABF4B"/>
<path d="M224.939 832.223C224.593 831.073 223.504 830.143 224.14 828.64C226.274 823.55 226.777 818.752 228.171 813.807C228.706 811.923 229.717 810.552 232.026 810.397C233.83 810.291 233.578 811.596 233.549 812.832C233.448 816.983 230.309 821.536 229.699 825.777C229.445 827.462 229.207 829.262 228.006 831.058C227.138 832.366 226.044 833.053 224.939 832.223Z" fill="#FABF4B"/>
<path d="M236.218 794.109C235.815 793.598 235.844 792.707 236.066 791.732C236.932 788.036 238.675 784.329 240.406 780.599C241.33 778.618 242.738 777.616 244.801 777.672C247.233 777.758 246.575 779.221 245.581 781.054C243.893 784.121 242.158 787.202 241.502 790.297C241.216 791.679 240.215 792.898 238.76 793.86C237.885 794.428 236.976 794.766 236.218 794.109Z" fill="#FABF4B"/>
<path d="M449.973 658.019C449.056 658.691 448.238 659.308 447.398 659.888C446.346 660.597 445.209 661.26 444.503 660.511C443.876 659.852 443.322 659.14 444.624 657.671C447.27 654.684 449.776 651.595 452.391 648.594C453.519 647.321 454.813 646.491 456.379 646.558C458.408 646.64 459.378 647.289 457.441 649.538C454.995 652.42 452.429 655.241 449.973 658.019Z" fill="#FABF4B"/>
<path d="M279.423 730.777C283.507 728.763 287.741 725.19 292.291 722.12C293.056 721.595 294.086 721.443 294.957 721.259C295.885 721.071 296.723 721.219 296.767 722.058C296.8 722.668 296.143 723.369 295.452 723.842C290.426 727.344 285.399 730.844 280.318 734.257C279.001 735.14 277.139 736.1 276.492 734.93C275.874 733.773 277.483 732.502 279.423 730.777Z" fill="#FABF4B"/>
<path d="M422.087 679.493C418.271 682.025 414.65 684.781 410.701 686.716C408.756 687.664 407.001 687.934 406.875 685.902C406.748 684.161 408.283 683.577 409.786 683.034C412.976 681.853 415.585 679.4 418.512 677.627C418.862 677.416 419.155 677.117 419.457 676.831C421.338 675.095 423.439 674.055 424.658 675.399C426.103 676.983 422.774 678.118 422.087 679.493Z" fill="#FABF4B"/>
<path d="M255.355 754.379C257.202 752.502 258.885 750.454 261.622 750.124C263.76 749.87 264.322 750.815 262.581 752.56C259.485 755.685 256.048 758.564 253.013 761.789C252.071 762.805 250.291 764.016 249.147 763.123C248.2 762.383 249.362 761.122 249.979 760.013C251.248 757.77 253.537 756.214 255.355 754.379Z" fill="#FABF4B"/>
<path d="M373.423 695.015C374.754 693.851 384.377 691.379 385.432 691.952C386.764 692.673 386.399 693.965 384.699 695.012C381.394 697.036 377.925 698.322 374.703 698.474C372.378 698.603 371.823 696.388 373.423 695.015Z" fill="#FABF4B"/>
<path d="M340.099 700.318C339.691 699.501 339.544 698.79 340.187 697.937C340.902 696.992 341.863 696.09 343.04 696.051C346.575 695.932 350.072 695.839 353.554 695.812C354.336 695.818 355.207 695.978 355.06 696.934C354.891 697.906 353.823 698.378 352.996 698.893C351.756 699.684 350.306 700.314 349.304 700.12C347.116 699.699 344.646 700.24 342.26 700.487C341.432 700.568 340.692 700.367 340.099 700.318Z" fill="#FABF4B"/>
<path d="M474.835 623.465C473.641 624.462 472.585 625.592 471.282 625.304C470.075 625.038 469.958 623.996 470.509 622.79C471.661 620.23 472.392 617.551 475.067 615.252C476.2 614.284 477.419 613.58 478.595 613.921C479.745 614.266 479.909 615.253 479.292 616.49C478.098 618.9 476.849 621.346 474.835 623.465Z" fill="#FABF4B"/>
<path d="M320.589 709.764C316.443 713.093 312.702 714.246 308.999 715.466C307.302 716.038 305.666 716.073 305.862 714.251C306.007 712.77 307.484 711.628 308.983 711.252C312.726 710.312 316.882 708.155 320.589 709.764Z" fill="#FABF4B"/>
</svg>
