<svg width="139" height="158" viewBox="0 0 139 158" fill="none" xmlns="http://www.w3.org/2000/svg">
<path d="M111.99 3.62396e-05C115.155 3.62396e-05 116.643 19.6976 115.316 24.7632C113.837 22.71 112.151 20.5404 110.161 18.3258C107.131 14.9458 103.607 13.1526 100.631 12.2023C100.631 12.2023 108.825 3.62396e-05 111.99 3.62396e-05Z" fill="#F46F16"/>
<path d="M123.117 35.6834C120.857 33.3164 118.607 29.3536 115.316 24.7722V24.7632C113.837 22.7101 112.152 20.5404 110.161 18.3259C107.131 14.9458 103.607 13.1527 100.631 12.2023C96.9189 11.0099 94.0499 11.1264 94.0499 11.1264L93.6733 11.3596C92.4898 10.4092 90.4367 9.82643 87.2449 10.2657C80.2428 11.2251 73.8144 18.1286 73.8144 18.1286C73.8144 18.1286 60.9666 6.04292 58.1872 8.15881C55.4079 10.2657 57.1293 28.8695 61.639 36.0599C61.639 36.0599 58.8597 47.8587 55.0224 53.803C52.2609 58.0796 51.9471 60.33 55.9817 61.4776C56.9141 61.7466 57.9362 61.7555 58.9224 61.5852C58.5638 63.0824 58.8507 64.5707 60.3928 65.4135C64.8039 67.8073 70.9364 63.2976 70.9364 63.2976C70.9364 63.2976 71.1247 63.3962 71.4833 63.5755C74.3254 65.028 87.5767 71.4653 95.852 69.9322C103.392 68.5336 112.591 60.8769 115.801 58.0348C116.554 57.3713 116.975 56.9679 116.975 56.9679C116.975 56.9679 123.977 57.5506 125.797 53.3278C126.55 51.5795 126.228 50.0912 125.43 48.9526C127.133 48.5401 128.855 47.3925 130.11 44.9808C131.284 42.7304 128.406 41.2152 123.117 35.6834Z" fill="#F6882C"/>
<path d="M120.426 79.9379C120.489 78.0371 119.27 77.024 117.844 76.6206C119.844 73.0253 114.572 65.6018 114.572 65.6018C111.972 68.408 105.346 73.4378 95.3943 74.9978C84.7969 76.6654 71.8953 70.1115 70.936 68.5784C70.936 68.5784 54.1074 77.7861 45.3301 105.4C40.5693 120.382 39.1169 130.074 39.7803 136.565L39.6369 136.574C39.6369 136.574 15.8868 139.542 15.51 129.572C15.1248 119.593 32.536 104.791 31.236 91.7815C29.8911 78.3599 4.1863 68.5784 0.358048 77.2033C-3.31787 85.4697 22.6019 87.9442 19.1505 96.1926C15.6987 104.441 -2.71691 120.364 4.18629 133.794C11.099 147.216 33.3699 147.709 41.3134 142.482C42.2997 144.607 43.6804 146.176 45.3301 147.404C51.6598 152.156 64.4628 151.008 68.2104 153.304C71.9491 155.608 75.6878 157.625 77.1223 156.612C77.2926 156.495 77.4271 156.361 77.5347 156.218C77.5347 156.218 79.2023 156.657 80.1975 155.438C80.1975 155.438 82.7527 155.034 82.7348 151.726V151.636L82.9858 151.627C83.0307 152.488 83.2548 153.277 83.739 153.887C84.4652 154.792 86.8231 154.29 86.8231 154.29L86.85 154.263C88.5087 155.563 91.9336 153.887 91.9336 153.887C94.5336 155.178 100.11 152.542 100.63 150.193C100.576 151.968 104.199 151.995 106.189 152.443C107.65 152.766 110.295 153.68 111.326 152.335L111.757 152.443C111.757 152.443 116.105 152.909 116.93 150.811L117.046 150.865C122.444 149.063 115.827 142.518 114.384 140.357C112.949 138.206 114.957 95.045 114.957 95.045C114.957 95.045 116.257 93.467 117.692 90.5891C119.135 87.7111 115.926 85.64 115.926 85.64C115.926 85.64 120.283 84.4028 120.426 79.9379Z" fill="#F6882C"/>
<path d="M98.7536 37.2544C98.6613 36.0064 98.828 34.7808 99.3104 33.5857C99.5507 32.9885 99.9003 32.4237 100.323 31.8965C100.769 31.3846 101.325 30.9507 101.943 30.6225C103.192 30.0245 104.587 29.9304 105.828 30.1697C107.083 30.41 108.209 30.9076 109.224 31.6374C109.416 31.7755 109.46 32.0445 109.321 32.2372C109.209 32.3923 109.013 32.4506 108.84 32.395L108.804 32.3825C107.768 32.0454 106.662 31.8158 105.625 31.7369C104.58 31.676 103.582 31.8096 102.738 32.2274C101.918 32.6371 101.259 33.366 100.748 34.268C100.262 35.1735 99.8698 36.2314 99.6081 37.2885L99.5991 37.3252C99.5417 37.5557 99.3095 37.6964 99.0791 37.639C98.8944 37.5942 98.768 37.4346 98.7536 37.2544Z" fill="#100F0D"/>
<path d="M106.5 34.4505C106.795 36.6032 105.724 38.5272 104.11 38.7478C102.496 38.9674 100.95 37.4011 100.656 35.2476C100.363 33.0949 101.433 31.1709 103.047 30.9512C104.661 30.7307 106.207 32.2979 106.5 34.4505Z" fill="#100F0D"/>
<path d="M84.9231 40.0248C84.3251 39.1147 83.6043 38.2469 82.8449 37.5547C82.0631 36.8733 81.1997 36.4053 80.2896 36.2906C79.3554 36.1767 78.3692 36.3829 77.4027 36.7881C76.4515 37.2068 75.485 37.7905 74.6198 38.454L74.5902 38.4764C74.4019 38.6198 74.132 38.5849 73.9877 38.3966C73.872 38.2442 73.8729 38.0397 73.9769 37.89C74.6906 36.8635 75.5881 36.0207 76.6908 35.3778C77.7828 34.7386 79.1304 34.3638 80.5066 34.5136C81.1979 34.6176 81.8658 34.8417 82.4576 35.1761C83.0314 35.5338 83.5487 35.9499 83.9736 36.4331C84.8254 37.4014 85.3902 38.5006 85.7175 39.7083C85.7793 39.9378 85.6439 40.1736 85.4153 40.2354C85.2315 40.2856 85.0432 40.2085 84.9446 40.0579L84.9231 40.0248Z" fill="#100F0D"/>
<path d="M78.0724 39.483C78.3996 41.6303 79.9704 43.1723 81.5807 42.9276C83.1909 42.6819 84.2309 40.7418 83.9037 38.5945C83.5764 36.4463 82.0056 34.9042 80.3954 35.149C78.7852 35.3946 77.7451 37.3348 78.0724 39.483Z" fill="#100F0D"/>
<path d="M94.3879 50.0352C94.1548 50.0352 93.9584 49.8549 93.9414 49.62L93.4734 43.2894C93.4554 43.0428 93.641 42.8268 93.8876 42.8088C94.1261 42.7909 94.3493 42.9756 94.3672 43.223L94.8352 49.5528C94.8532 49.8003 94.6676 50.0154 94.421 50.0343L94.3879 50.0352Z" fill="#572413"/>
<path d="M87.3608 46.989C88.4457 47.7474 89.7842 48.2468 91.0834 48.5337C92.3986 48.8027 93.7766 48.8655 95.1072 48.6951C96.4143 48.5481 97.6669 48.1088 98.7732 47.379C99.8697 46.6581 100.88 45.6549 101.619 44.5297L101.646 44.4875C101.776 44.2903 102.039 44.2356 102.238 44.3647C102.404 44.4741 102.469 44.6812 102.407 44.8614C101.887 46.3649 100.956 47.6533 99.7065 48.6539C98.4711 49.6688 96.9039 50.2794 95.3223 50.473C94.5298 50.5761 93.7623 50.5627 92.9787 50.5232C92.2014 50.43 91.4223 50.3233 90.6754 50.0731C89.1755 49.5962 87.7948 48.8144 86.7422 47.5798C86.5898 47.4014 86.6113 47.1324 86.7906 46.9791C86.9412 46.8509 87.1555 46.8464 87.3106 46.954L87.3608 46.989Z" fill="#572413"/>
<path d="M96.1535 68.5656C96.7731 68.9834 97.103 69.5285 97.3567 70.1265C97.6033 70.7218 97.6974 71.3548 97.7145 71.9726C97.7261 72.5948 97.6311 73.1982 97.4724 73.7782C97.3038 74.3547 97.0609 74.9025 96.7157 75.3956C96.574 75.5983 96.2934 75.6485 96.0908 75.5059C95.9742 75.4243 95.9079 75.297 95.8998 75.1661L95.8989 75.1437C95.8657 74.5708 95.8944 74.0409 95.9132 73.5209C95.9115 73.0018 95.9527 72.4979 95.924 72.0075C95.9177 71.5162 95.8846 71.0356 95.8254 70.5623C95.7644 70.1005 95.6506 69.5949 95.5448 69.1663L95.508 69.0184C95.4515 68.7915 95.5896 68.5629 95.8164 68.5064C95.9357 68.4768 96.0585 68.5028 96.1535 68.5656Z" fill="#EEF9E8"/>
<path d="M101.666 79.2534C101.292 76.5807 98.8223 74.7158 96.1479 75.0897C93.4743 75.4636 91.6104 77.9345 91.9842 80.6081C92.3581 83.2816 94.8281 85.1465 97.5017 84.7726C100.176 84.3987 102.04 81.9278 101.666 79.2534Z" fill="#FEE445"/>
<path d="M98.2071 79.5104C98.0978 78.7286 97.376 78.1844 96.5951 78.2937C95.8142 78.4022 95.2691 79.1249 95.3785 79.9058C95.4878 80.6867 96.2096 81.2309 96.9905 81.1215C97.7714 81.013 98.3165 80.2913 98.2071 79.5104Z" fill="#281513"/>
<path d="M96.8747 79.4748L98.0438 79.2713C98.4293 79.1968 98.8104 79.1314 99.1843 79.0453C99.5626 78.9691 99.9248 78.8561 100.292 78.753C100.658 78.6401 101.004 78.4904 101.375 78.3433L101.39 78.337C101.502 78.2922 101.628 78.3478 101.673 78.459L101.634 78.684C101.049 79.3421 100.212 79.7249 99.3815 79.9195C98.9619 80.0082 98.5369 80.0656 98.1111 80.0593C97.6843 80.0558 97.2656 80.0244 96.8415 79.9015C96.7259 79.8684 96.6586 79.7473 96.6927 79.6308C96.716 79.5483 96.785 79.4909 96.8639 79.4766L96.8747 79.4748Z" fill="#281513"/>
<path d="M73.6609 17.9846C76.598 14.9085 80.0346 12.2233 84.0853 10.6713C86.1088 9.88681 88.3072 9.5712 90.4957 9.75948C91.5886 9.88052 92.7075 10.1701 93.6749 10.8219C94.6289 11.4594 95.3918 12.5693 95.4125 13.803C95.4286 14.4091 95.2789 15.0331 94.9534 15.5594C94.6307 16.0883 94.1886 16.4748 93.7296 16.8065C92.8008 17.461 91.759 17.9003 90.606 18.0455C90.3146 18.0733 90.0142 18.0805 89.6969 18.0258C89.5417 18.0124 89.3714 17.9335 89.2127 17.8824C89.0576 17.7811 88.8783 17.7022 88.7617 17.5354C88.6999 17.4556 88.6416 17.3722 88.5878 17.2871C88.5501 17.1992 88.5268 17.105 88.5008 17.0127C88.4444 16.8388 88.4372 16.6066 88.491 16.4255C88.5869 16.0462 88.803 15.7826 89.0182 15.5647C89.9147 14.7336 90.9933 14.3831 92.0808 14.1634C93.1684 13.9644 94.3321 13.9733 95.4134 14.4073C95.9495 14.6243 96.4444 14.9838 96.8147 15.4428C97.2047 15.8992 97.3939 16.4568 97.5499 16.9984C97.6521 17.5605 97.7023 18.1558 97.5346 18.7162C97.3822 19.2694 97.124 19.7956 96.7618 20.2215C96.0508 21.0894 95.1399 21.7143 94.1366 22.1635C94.0291 22.211 93.9035 22.1635 93.8551 22.0559C93.8076 21.9501 93.8533 21.8273 93.9555 21.7762L93.969 21.7699C94.8763 21.3261 95.7361 20.685 96.3341 19.8898C96.951 19.099 97.1688 18.0904 96.916 17.1561C96.6775 16.1905 96.049 15.4132 95.1426 15.0752C94.2451 14.7336 93.206 14.7318 92.2288 14.9327C91.2632 15.1371 90.2626 15.5289 89.6054 16.1529C89.4512 16.3053 89.3346 16.481 89.3051 16.6173L89.3158 16.8101L89.34 16.9141L89.4001 16.9867C89.5435 17.2001 90.0644 17.2512 90.5154 17.1983C91.4595 17.0773 92.4314 16.6693 93.2186 16.0982C94.0407 15.5361 94.5706 14.7453 94.5186 13.8308C94.5033 12.9279 93.9555 12.0744 93.1746 11.5428C92.3848 11.0012 91.4021 10.7269 90.4033 10.6103C89.3992 10.483 88.3646 10.5709 87.3416 10.6749C86.3311 10.838 85.3261 11.0613 84.3533 11.4154C82.4042 12.1067 80.5537 13.1099 78.8332 14.2988C77.1055 15.4742 75.4549 16.8011 73.9738 18.276L73.9657 18.2831C73.8823 18.3665 73.747 18.3665 73.6645 18.2831C73.582 18.2007 73.5811 18.068 73.6609 17.9846Z" fill="#E35D1C"/>
<path d="M71.0667 63.4732C69.738 64.4478 68.2954 65.2296 66.7471 65.8141C65.1978 66.3476 63.488 66.6972 61.7917 66.3341L61.1641 66.179C60.9588 66.1136 60.7634 66.0177 60.5625 65.9361C60.1618 65.7828 59.7718 65.5371 59.4284 65.2349C59.0922 64.9202 58.8115 64.5365 58.6259 64.1089C58.4484 63.6776 58.3704 63.2204 58.357 62.773C58.3677 60.9682 59.2078 59.3902 60.2971 58.0992C60.8718 57.4707 61.5066 56.8628 62.4283 56.5508C62.8685 56.3894 63.5338 56.4038 63.9811 56.7992C64.3891 57.1174 64.6482 57.7441 64.5316 58.274C64.4384 58.8039 64.1613 59.202 63.8718 59.5382C63.5759 59.8753 63.2424 60.1568 62.8954 60.4069C62.197 60.9027 61.4322 61.273 60.637 61.5429C59.0608 62.0763 57.2838 62.2727 55.6547 61.7204C54.872 61.455 54.0696 61.1116 53.4393 60.4778C52.7839 59.843 52.5983 58.8317 52.7902 58.0158L52.7938 58.0024C52.8207 57.8876 52.9354 57.8168 53.0502 57.8437C53.1605 57.8706 53.2304 57.9772 53.2116 58.0875C53.0834 58.8487 53.2752 59.6036 53.8213 60.0949C54.3592 60.5916 55.0998 60.8848 55.8475 61.0964C57.317 61.5474 58.9254 61.3385 60.3734 60.8041C61.0987 60.536 61.7908 60.172 62.4095 59.7318C63.0012 59.2979 63.5974 58.7088 63.6906 58.1386C63.7382 57.8706 63.6404 57.6428 63.4226 57.4581C63.2477 57.3138 63.0021 57.2788 62.6865 57.3846C62.0634 57.5917 61.4636 58.1234 60.9696 58.6882C59.9851 59.8278 59.2195 61.3026 59.2123 62.7568C59.2123 63.4786 59.4777 64.1483 59.9923 64.6208C60.2541 64.8512 60.5509 65.0503 60.9059 65.1874C61.0772 65.261 61.2421 65.3524 61.4188 65.4134L61.9639 65.5622C63.4387 65.9253 65.0427 65.659 66.5337 65.1901C68.0327 64.7069 69.4941 64.004 70.813 63.128L70.8219 63.1226C70.9197 63.0572 71.0524 63.0841 71.1178 63.1827C71.1806 63.2777 71.1573 63.406 71.0667 63.4732Z" fill="#E35D1C"/>
<path d="M130.457 43.2899C130.603 43.6718 130.646 44.1192 130.547 44.5325C130.453 44.9566 130.235 45.2901 130.06 45.6272C129.68 46.3005 129.229 46.9425 128.678 47.5091C127.569 48.6253 126.051 49.3811 124.457 49.5174C123.663 49.5954 122.858 49.5443 122.081 49.3569C121.306 49.1633 120.547 48.8809 119.869 48.3528C119.7 48.2165 119.535 48.0668 119.391 47.8543C119.263 47.6499 119.089 47.3549 119.208 46.9523C119.345 46.5695 119.639 46.4189 119.861 46.314C120.081 46.2485 120.302 46.1741 120.518 46.1508C121.386 46.0522 122.196 46.2378 122.949 46.5256C123.698 46.8295 124.385 47.2697 124.982 47.8166C125.581 48.3582 126.083 49.0422 126.356 49.8303C126.628 50.6067 126.731 51.4755 126.54 52.2753C126.502 52.6895 126.307 53.0526 126.189 53.439C125.991 53.7931 125.831 54.1813 125.56 54.4871C124.559 55.8095 123.029 56.4972 121.542 56.8746C120.025 57.2117 118.493 57.3113 116.957 57.1839C116.838 57.1741 116.751 57.071 116.761 56.9535C116.77 56.8397 116.868 56.7545 116.98 56.7581L116.992 56.759C118.464 56.8065 119.968 56.6335 121.376 56.2435C122.771 55.8409 124.125 55.1622 124.931 54.0209C125.156 53.7564 125.273 53.4229 125.437 53.1225C125.521 52.7863 125.704 52.468 125.722 52.1246C125.881 51.4495 125.78 50.7574 125.557 50.1271C125.098 48.8414 123.896 47.8848 122.619 47.3567C121.971 47.1065 121.267 46.9505 120.631 47.0196C119.859 47.1989 119.874 47.1361 120.408 47.6884C121.466 48.5043 122.999 48.81 124.39 48.7293C125.812 48.6486 127.172 48.0219 128.219 47.0357C128.747 46.5453 129.199 45.9679 129.593 45.3502C129.781 45.0301 129.995 44.728 130.076 44.4124C130.169 44.0941 130.158 43.7579 130.054 43.4288C130.018 43.3168 130.08 43.1975 130.193 43.1617C130.3 43.1258 130.417 43.185 130.457 43.2899Z" fill="#E35D1C"/>
<path d="M42.3786 143.97C43.3756 145.422 44.6702 146.678 46.18 147.568C47.6602 148.496 49.3252 149.131 51.0331 149.59C54.4634 150.503 58.0272 150.877 61.5974 151.307C63.3815 151.554 65.18 151.761 66.9633 152.32C67.1857 152.399 67.4089 152.459 67.6295 152.553L68.2831 152.877C68.6991 153.099 69.0532 153.344 69.4441 153.571C70.2107 154.029 70.9755 154.487 71.7564 154.912C72.5355 155.336 73.328 155.735 74.1403 156.056C74.9383 156.366 75.8223 156.64 76.5584 156.502C77.2613 156.371 77.74 155.537 77.6065 154.748C77.5096 153.957 76.9762 153.174 76.206 152.938L76.2015 152.936C76.0886 152.901 76.0249 152.782 76.059 152.669C76.093 152.559 76.2078 152.496 76.319 152.526C77.3079 152.791 77.9776 153.704 78.1417 154.671C78.3443 155.633 77.8234 156.855 76.7126 157.137C76.1971 157.258 75.6932 157.215 75.2323 157.119C74.7643 157.028 74.3196 156.888 73.8866 156.73C73.0205 156.411 72.1966 156.019 71.3888 155.605C70.581 155.191 69.7929 154.746 69.0173 154.285C68.63 154.064 68.24 153.801 67.8626 153.606L67.3058 153.336C67.1139 153.254 66.9015 153.201 66.6997 153.131C65.0491 152.624 63.2551 152.422 61.4853 152.194C57.9349 151.735 54.3226 151.356 50.818 150.35C49.0741 149.836 47.3572 149.139 45.8196 148.121C44.2757 147.116 42.9873 145.75 42.0199 144.202C41.9572 144.102 41.9868 143.971 42.0872 143.909C42.1849 143.847 42.314 143.877 42.3786 143.97Z" fill="#E35D1C"/>
<path d="M77.5902 156.008C78.3191 156.068 79.0974 155.914 79.5851 155.478C79.8236 155.253 80.0343 154.996 80.1562 154.668C80.2889 154.34 80.3974 154.008 80.3759 153.696C80.3804 153.052 80.0038 152.411 79.5134 151.854C79.0203 151.295 78.3989 150.809 77.7543 150.383L77.7444 150.377C77.6458 150.312 77.6189 150.179 77.6835 150.08C77.7391 149.997 77.8449 149.964 77.9363 149.998C78.7262 150.283 79.4461 150.718 80.0755 151.306C80.6968 151.878 81.2509 152.694 81.2706 153.682C81.2886 154.177 81.1299 154.628 80.9506 155.032C80.7605 155.444 80.4557 155.833 80.0683 156.104C79.274 156.66 78.303 156.701 77.4809 156.42C77.3688 156.383 77.3096 156.261 77.3473 156.15C77.3804 156.055 77.4719 155.997 77.5678 156.005L77.5902 156.008Z" fill="#E35D1C"/>
<path d="M80.166 155.224C81.0428 155.015 81.8139 154.336 82.1402 153.487C82.3213 153.067 82.3922 152.598 82.4164 152.132C82.4558 151.644 82.3868 151.251 82.1914 150.832C81.8193 150.006 81.1316 149.305 80.383 148.739C79.6308 148.203 78.7315 147.721 77.9022 147.71C77.6807 147.707 77.5032 147.525 77.5068 147.304L77.5149 147.227L77.5167 147.215C78.1174 144.407 78.4276 141.484 78.3603 138.599C78.3487 137.153 78.1765 135.719 77.9631 134.297C77.8062 133.597 77.7067 132.881 77.4808 132.201C77.3786 131.857 77.288 131.51 77.1769 131.17L76.7868 130.172C76.5537 129.494 76.1592 128.894 75.8544 128.25C75.4572 127.65 75.1112 127.014 74.6727 126.441C73.864 125.248 72.9065 124.161 71.888 123.142C69.8358 121.132 67.4177 119.402 64.7388 118.362L64.7182 118.355C64.6079 118.312 64.5532 118.188 64.5962 118.078C64.6384 117.971 64.7567 117.917 64.8652 117.953C67.6912 118.936 70.2303 120.575 72.3874 122.623C73.4588 123.65 74.4719 124.751 75.3353 125.966C75.8006 126.549 76.1584 127.206 76.5744 127.823C76.9025 128.498 77.3221 129.135 77.5722 129.843C78.7324 132.62 79.2094 135.619 79.2381 138.583C79.2739 141.556 78.9709 144.505 78.2868 147.411L77.9022 146.916C79.0812 146.978 79.9849 147.554 80.8223 148.159C81.631 148.803 82.3689 149.572 82.7992 150.571C83.018 151.055 83.0879 151.676 83.0189 152.174C82.9705 152.693 82.8701 153.218 82.6405 153.703C82.2039 154.687 81.3046 155.44 80.2323 155.646C80.1167 155.668 80.0055 155.593 79.9831 155.476C79.9607 155.364 80.0324 155.256 80.1427 155.23L80.166 155.224Z" fill="#E35D1C"/>
<path d="M73.9939 91.5456C75.2859 96.9869 76.541 102.434 77.7586 107.891L81.3296 124.278C82.4602 129.756 83.6239 135.222 84.6173 140.735L84.9634 142.811C85.0109 143.163 85.0692 143.504 85.0997 143.874C85.1068 143.975 85.1239 144.033 85.1212 144.17C85.1158 144.293 85.1131 144.461 85.0799 144.546L84.8908 145.047C84.3806 146.346 83.9001 147.642 83.5943 148.979C83.2949 150.297 83.1003 151.712 83.5396 152.944C83.8328 154.413 85.4879 154.272 86.7798 154.077L86.796 154.075C86.9134 154.058 87.0219 154.138 87.0389 154.255C87.0569 154.369 86.9807 154.475 86.8695 154.496C86.1576 154.636 85.4466 154.717 84.6998 154.611C84.334 154.551 83.9332 154.437 83.6185 154.12C83.3648 153.804 83.1622 153.497 83.0358 153.139C82.4951 151.72 82.687 150.221 82.9569 148.838C83.2465 147.441 83.7279 146.101 84.2174 144.793L84.3905 144.311L84.3887 144.169L84.3672 143.943C84.3349 143.615 84.2712 143.268 84.2192 142.929L83.8454 140.875C82.7776 135.398 81.6228 129.928 80.4546 124.463L76.9857 108.058L73.5761 91.6389C73.5519 91.5232 73.6263 91.4103 73.742 91.386C73.8558 91.3618 73.967 91.4345 73.9939 91.5456Z" fill="#E35D1C"/>
<path d="M88.14 148.874C87.4792 149.545 86.8588 150.32 86.5459 151.157C86.3998 151.576 86.3155 152 86.3532 152.411C86.406 152.82 86.5603 153.209 86.805 153.563C87.2363 154.216 88.1355 154.408 89.0608 154.329C89.9825 154.262 90.9346 154 91.8419 153.69L91.8545 153.686C91.9657 153.648 92.0876 153.707 92.1252 153.819C92.1593 153.917 92.1172 154.024 92.0293 154.075C91.1417 154.583 90.1896 154.949 89.1451 155.108C88.6259 155.191 88.0755 155.203 87.516 155.058C86.961 154.924 86.4114 154.563 86.0698 154.075C85.7534 153.613 85.5382 153.061 85.4826 152.483C85.4602 151.904 85.583 151.34 85.8179 150.849C86.2877 149.861 87.0265 149.114 87.8809 148.533C87.9786 148.467 88.1113 148.491 88.1777 148.589C88.2359 148.675 88.2243 148.788 88.1535 148.859L88.14 148.874Z" fill="#E35D1C"/>
<path d="M91.8435 148.813C91.5198 149.403 91.2553 150.052 91.0966 150.707C90.9343 151.357 90.885 152.05 91.1146 152.628C91.3279 153.21 91.856 153.618 92.4755 153.783C93.0951 153.955 93.7756 153.941 94.4381 153.849C95.7695 153.64 97.066 153.115 98.2154 152.402C98.7856 152.039 99.3146 151.61 99.7315 151.114C99.9386 150.869 100.118 150.598 100.208 150.323L100.282 150.116L100.293 149.873L100.317 149.388C100.249 143.83 99.848 138.189 99.5342 132.593L97.5053 98.9522C97.499 98.8608 97.5313 98.772 97.586 98.7066C99.0761 96.9466 100.552 95.166 101.993 93.3639C102.713 92.462 103.416 91.5466 104.099 90.6196C104.778 89.6907 105.445 88.7457 105.995 87.7532L105.998 87.7487C106.055 87.6456 106.185 87.608 106.288 87.6645C106.389 87.7219 106.427 87.8483 106.373 87.9514C105.825 88.9968 105.174 89.9606 104.509 90.9127C103.841 91.8631 103.155 92.7991 102.453 93.7208C101.052 95.5695 99.605 97.377 98.1096 99.1522L98.1912 98.9056L99.3486 115.721C99.7234 121.327 100.102 126.933 100.379 132.546C100.648 138.167 101.007 143.746 101.03 149.422L100.993 149.988L100.972 150.27L100.873 150.561C100.737 150.949 100.511 151.273 100.268 151.559C99.7763 152.134 99.1944 152.59 98.5794 152.977C97.3403 153.735 95.9739 154.275 94.5215 154.463C93.7971 154.545 93.0431 154.552 92.3097 154.33C91.5808 154.124 90.8806 153.573 90.6241 152.812C90.3543 152.063 90.4493 151.287 90.6358 150.59C90.8259 149.883 91.1101 149.226 91.4759 148.593C91.535 148.492 91.6659 148.457 91.7682 148.515C91.8686 148.574 91.9044 148.702 91.8488 148.804L91.8435 148.813Z" fill="#E35D1C"/>
<path d="M114.747 65.4802C115.594 66.6914 116.344 67.952 117 69.2744C117.644 70.5978 118.225 71.9749 118.479 73.4641C118.518 73.8406 118.605 74.21 118.582 74.5982L118.576 75.1747L118.477 75.7539C118.458 75.9494 118.387 76.1349 118.307 76.3196C118.229 76.4998 118.167 76.7007 118.071 76.8639C117.88 77.1902 117.687 77.5148 117.452 77.8187C116.981 78.4095 116.425 79.0246 115.582 79.264C115.174 79.3859 114.681 79.3734 114.272 79.1519C113.861 78.9376 113.566 78.553 113.427 78.1352C113.357 77.9227 113.327 77.7093 113.32 77.4834C113.32 77.1696 113.5 76.9168 113.67 76.7617C114.025 76.4362 114.415 76.316 114.796 76.2058C115.564 76.0121 116.342 75.9942 117.108 76.0946C117.869 76.2067 118.637 76.4371 119.301 76.8961C119.968 77.3426 120.499 78.0572 120.683 78.856C120.885 79.6611 120.792 80.4447 120.639 81.1961C120.48 81.9546 120.173 82.6906 119.722 83.3263C118.819 84.6093 117.528 85.5238 116.038 86.0268L116.144 85.3095C116.965 85.8878 117.644 86.5925 118.096 87.5088C118.308 87.9678 118.455 88.4735 118.47 88.9962C118.468 89.5126 118.391 90.0434 118.175 90.5024C117.78 91.3981 117.334 92.1736 116.861 92.985C116.381 93.7865 115.885 94.5576 115.295 95.3188L115.391 95.0659C114.996 104.773 114.545 114.484 114.329 124.196C114.275 126.624 114.234 129.053 114.224 131.479C114.224 133.903 114.216 136.339 114.402 138.733C114.484 139.312 114.489 139.957 114.758 140.328C115.095 140.809 115.478 141.284 115.85 141.763C116.601 142.72 117.349 143.693 118.003 144.74C118.634 145.788 119.271 146.906 119.364 148.221C119.416 148.87 119.214 149.578 118.759 150.077C118.313 150.586 117.705 150.863 117.115 151.065C117.003 151.102 116.881 151.043 116.843 150.932C116.805 150.821 116.864 150.701 116.973 150.661L116.979 150.659C117.525 150.463 118.061 150.197 118.414 149.774C118.773 149.36 118.926 148.812 118.875 148.249C118.781 147.116 118.168 146.037 117.536 145.037C116.884 144.033 116.133 143.089 115.368 142.147C114.987 141.673 114.598 141.21 114.228 140.701C114.133 140.592 114.047 140.411 113.977 140.218C113.907 140.031 113.9 139.893 113.861 139.728C113.795 139.408 113.779 139.107 113.736 138.796C113.532 136.344 113.527 133.914 113.512 131.479C113.507 129.046 113.535 126.613 113.575 124.182C113.761 114.457 114.059 104.739 114.529 95.0256C114.533 94.9324 114.567 94.8463 114.621 94.7781L114.627 94.7719C115.165 94.0887 115.67 93.3185 116.135 92.5502C116.59 91.7836 117.062 90.9641 117.41 90.185C117.748 89.4364 117.718 88.5999 117.362 87.8576C117.014 87.1197 116.383 86.4553 115.713 85.9783C115.529 85.8501 115.486 85.5973 115.615 85.4135L115.819 85.262C117.091 84.8433 118.314 83.9969 119.09 82.8897C119.488 82.3365 119.758 81.699 119.901 81.032C120.045 80.3676 120.122 79.6531 119.964 79.0353C119.689 77.7416 118.354 76.9768 117.008 76.8029C116.33 76.7079 115.622 76.7249 114.973 76.8854C114.658 76.9679 114.33 77.0907 114.146 77.2673C114.052 77.3534 114.01 77.4323 114.012 77.4932C114.018 77.6331 114.036 77.781 114.08 77.9164C114.253 78.4804 114.829 78.8013 115.406 78.6131C115.992 78.4624 116.507 77.9478 116.927 77.4161C117.145 77.1454 117.331 76.8459 117.514 76.5456C117.605 76.3959 117.648 76.2407 117.719 76.0901C117.789 75.9404 117.853 75.7871 117.87 75.6158L117.966 75.1174L117.979 74.6009C118.008 74.2558 117.931 73.9052 117.903 73.5564C117.691 72.1569 117.152 70.7995 116.545 69.495C115.928 68.1905 115.203 66.9227 114.398 65.7276L114.394 65.7222C114.328 65.6236 114.354 65.4918 114.452 65.4264C114.55 65.36 114.68 65.3851 114.747 65.4802Z" fill="#E35D1C"/>
<path d="M112.542 145.061C113.59 145.525 114.566 146.113 115.475 146.834C115.935 147.186 116.35 147.606 116.724 148.081C117.087 148.554 117.434 149.125 117.493 149.818C117.557 150.464 117.332 151.206 116.854 151.689C116.379 152.173 115.784 152.444 115.202 152.581C114.031 152.855 112.875 152.843 111.737 152.655C111.62 152.636 111.541 152.527 111.561 152.41C111.578 152.306 111.668 152.231 111.77 152.231H111.783C112.871 152.226 113.99 152.135 114.985 151.829C115.476 151.663 115.934 151.436 116.23 151.107C116.525 150.78 116.652 150.363 116.602 149.89C116.528 149.007 115.738 148.147 114.96 147.435C114.161 146.706 113.257 146.054 112.343 145.44L112.336 145.435C112.237 145.369 112.211 145.235 112.277 145.137C112.337 145.05 112.449 145.02 112.542 145.061Z" fill="#E35D1C"/>
<path d="M108.718 146.927C109.466 147.231 110.138 147.652 110.757 148.186C111.361 148.722 111.879 149.435 112.089 150.295C112.18 150.727 112.194 151.176 112.091 151.61C112.022 152.044 111.788 152.492 111.447 152.836C110.687 153.519 109.717 153.524 108.925 153.466C108.112 153.375 107.343 153.176 106.601 152.982C105.869 152.777 105.142 152.681 104.373 152.536C103.611 152.393 102.837 152.258 102.07 151.992C101.691 151.852 101.308 151.673 100.967 151.394C100.62 151.129 100.364 150.643 100.415 150.184C100.427 150.067 100.531 149.98 100.649 149.991C100.756 150.001 100.837 150.092 100.843 150.197C100.866 150.858 101.582 151.183 102.27 151.369C102.976 151.567 103.732 151.663 104.49 151.759C105.244 151.846 106.047 151.962 106.805 152.155C107.556 152.337 108.289 152.508 109.01 152.575C109.717 152.644 110.446 152.595 110.862 152.21C111.271 151.833 111.412 151.088 111.315 150.451C111.193 149.8 110.817 149.174 110.3 148.662C109.803 148.132 109.179 147.685 108.543 147.316L108.531 147.31C108.429 147.25 108.394 147.12 108.453 147.017C108.507 146.924 108.621 146.886 108.718 146.927Z" fill="#E35D1C"/>
<path d="M90.0788 40.0919C89.5605 41.4726 92.512 44.2358 94.1554 43.8001C95.4053 43.4684 96.9527 40.6819 96.4157 39.4473C95.8786 38.2118 90.562 38.8027 90.0788 40.0919Z" fill="#FBC4C7"/>
<path d="M100.602 41.7556C103.78 41.1862 106.985 40.8276 110.202 40.5972C113.419 40.3713 116.648 40.3085 119.874 40.3758C123.1 40.486 126.323 40.7631 129.517 41.2472C132.707 41.7717 135.852 42.5598 138.893 43.6482C138.978 43.6787 139.021 43.7702 138.99 43.8535C138.961 43.9351 138.874 43.9782 138.792 43.9522L138.787 43.9504C135.728 42.9901 132.596 42.3025 129.429 41.8282C126.254 41.4077 123.061 41.1262 119.856 41.0464C116.651 40.9576 113.442 41.0168 110.239 41.1889C107.038 41.37 103.832 41.6372 100.657 42.0721C100.569 42.0864 100.487 42.0272 100.472 41.9394C100.458 41.8542 100.518 41.7735 100.602 41.7556Z" fill="#100F0D"/>
<path d="M100.633 43.0962C103.788 43.1339 106.934 43.3114 110.076 43.5786C113.216 43.8484 116.348 44.2295 119.468 44.6948C122.583 45.1978 125.684 45.8011 128.745 46.5767L131.029 47.2025C131.788 47.4221 132.536 47.6795 133.289 47.9179C134.044 48.1493 134.777 48.4487 135.513 48.7365L136.617 49.1678C136.948 49.3247 137.32 49.3309 137.76 49.4878C137.842 49.5165 137.885 49.608 137.857 49.6904C137.827 49.7711 137.741 49.8133 137.659 49.7882L137.619 49.7747C137.314 49.6797 136.876 49.6662 136.481 49.5049L135.371 49.1158C134.632 48.8575 133.897 48.5868 133.138 48.3851C132.386 48.1681 131.641 47.9251 130.883 47.7234L128.603 47.1478C125.55 46.4359 122.469 45.828 119.365 45.3582C116.264 44.8732 113.146 44.4904 110.02 44.1694C106.896 43.8556 103.76 43.5866 100.625 43.4172C100.537 43.4145 100.468 43.3401 100.471 43.2513C100.473 43.1644 100.548 43.0971 100.633 43.0962Z" fill="#100F0D"/>
<path d="M88.5144 43.9587C86.8432 44.2778 85.1837 44.7163 83.5421 45.187C81.8969 45.6523 80.2598 46.149 78.6468 46.7156C75.412 47.83 72.2373 49.1103 69.1244 50.5251C66.0169 51.9498 62.9255 53.4273 59.9561 55.1299C56.9634 56.7903 54.063 58.6094 51.1787 60.46L51.1734 60.4626L50.9519 60.4151L50.9976 60.1964C52.4205 59.2353 53.8209 58.2365 55.2662 57.3067C56.7339 56.4147 58.1746 55.4724 59.6845 54.6484C62.6485 52.9046 65.7381 51.3831 68.8483 49.9154C71.9925 48.5168 75.2049 47.2733 78.4693 46.1893C81.7346 45.1072 85.0555 44.1837 88.4669 43.6422C88.5539 43.6278 88.6364 43.687 88.6498 43.7749C88.6642 43.8609 88.6068 43.9416 88.5216 43.9569L88.5144 43.9587Z" fill="#100F0D"/>
<path d="M88.0776 45.3215C85.075 46.8044 82.1244 48.4039 79.2079 50.0518C76.2949 51.7069 73.4214 53.431 70.6098 55.251C67.7964 57.0665 65.0654 59.004 62.3991 61.0258C59.7676 63.0924 57.2223 65.2683 54.8491 67.6308L54.6222 67.6353L54.616 67.4102C56.9112 64.9438 59.4144 62.6799 62.0359 60.564C64.6817 58.4804 67.4342 56.5376 70.2458 54.6879C73.0825 52.8778 75.9695 51.1492 78.9192 49.5336C81.8707 47.9207 84.8697 46.4001 87.944 45.0292C88.0256 44.9925 88.1197 45.0301 88.1565 45.1099L88.0776 45.3215Z" fill="#100F0D"/>
<path d="M57.3856 92.2937C57.0081 92.9402 56.6316 93.5857 56.255 94.2312C55.8668 94.8956 55.5001 95.5546 55.224 96.2736C55.1442 96.4807 55.2948 96.7308 55.4858 96.8071C55.7037 96.8949 55.9188 96.8115 56.0497 96.6215C56.472 96.0118 56.7894 95.3537 57.1068 94.6849L58.0571 92.6864C58.2687 92.2408 57.6411 91.8553 57.3856 92.2937Z" fill="#E35D1C"/>
<path d="M58.1562 95.167C58.0092 95.1079 57.8317 95.1572 57.7501 95.3006C57.499 95.7408 57.2489 96.1801 56.9988 96.6204C56.8786 96.8328 56.7495 97.0417 56.6365 97.2578C56.5693 97.3887 56.5227 97.5304 56.4716 97.6684C56.4142 97.8244 56.4232 97.967 56.4321 98.1293C56.4456 98.3651 56.7271 98.5973 56.9539 98.4287C57.0938 98.3256 57.2328 98.236 57.3251 98.0844C57.3888 97.9804 57.4515 97.8738 57.5026 97.7644C57.6201 97.5151 57.7044 97.2453 57.8021 96.988C57.9832 96.5083 58.1634 96.0295 58.3454 95.5517C58.4019 95.4019 58.2943 95.2226 58.1562 95.167Z" fill="#E35D1C"/>
<path d="M59.5666 95.6486C59.3272 95.5948 59.0609 95.7221 58.9982 95.9723C58.9175 96.2915 58.8377 96.6106 58.7579 96.9298C58.7184 97.0867 58.6799 97.2436 58.6404 97.4005C58.5911 97.5933 58.5884 97.7798 58.5857 97.9779C58.583 98.1464 58.7104 98.3249 58.8789 98.3634C59.0439 98.4011 59.2483 98.341 59.3299 98.1796C59.4133 98.0129 59.5029 97.8515 59.546 97.6686C59.5845 97.5063 59.6231 97.3422 59.6616 97.1799C59.7378 96.859 59.8131 96.5389 59.8893 96.2179C59.9449 95.9839 59.8158 95.706 59.5666 95.6486Z" fill="#E35D1C"/>
<path d="M72.4832 136.78C72.2869 135.67 72.043 134.569 71.7579 133.478C71.6817 133.187 71.2603 133.312 71.3123 133.602C71.5104 134.708 71.6664 135.822 71.7722 136.94C71.8762 138.035 71.9013 139.139 72.0798 140.226C72.1515 140.664 72.8033 140.531 72.823 140.125C72.8759 139.004 72.6778 137.88 72.4832 136.78Z" fill="#E35D1C"/>
<path d="M70.885 139.17C70.8644 138.965 70.8429 138.76 70.8214 138.556C70.7783 138.138 70.7344 137.72 70.6914 137.302C70.6618 137.019 70.461 136.742 70.1445 136.755C69.8522 136.769 69.594 136.996 69.5984 137.302C69.6047 137.728 69.611 138.155 69.6164 138.58C69.62 138.794 69.6227 139.007 69.6262 139.219C69.6298 139.476 69.6818 139.715 69.7356 139.963C69.7975 140.244 70.1005 140.413 70.3704 140.376C70.6716 140.336 70.8429 140.1 70.8707 139.809C70.8814 139.702 70.8922 139.596 70.9021 139.49C70.9128 139.382 70.8967 139.277 70.885 139.17Z" fill="#E35D1C"/>
<path d="M68.098 137.902C68.0137 137.819 67.8765 137.755 67.7555 137.761C67.4937 137.773 67.2722 137.973 67.2722 138.244V138.803V138.933C67.2758 139.021 67.2964 139.098 67.3224 139.18C67.3484 139.267 67.3744 139.353 67.4013 139.439C67.447 139.588 67.5923 139.716 67.7555 139.708C67.9213 139.701 68.0612 139.599 68.1105 139.439C68.1365 139.353 68.1634 139.267 68.1894 139.18C68.2136 139.1 68.2333 139.031 68.2378 138.943L68.2387 138.803V138.244C68.2387 138.12 68.1849 137.99 68.098 137.902Z" fill="#E35D1C"/>
<path d="M83.4186 122.285C83.4007 121.912 83.3828 121.539 83.3658 121.166C83.3514 120.87 83.1147 120.585 82.7982 120.599C82.4791 120.613 82.2459 120.848 82.2307 121.166C82.2137 121.539 82.1957 121.912 82.1778 122.285C82.1697 122.468 82.1527 122.651 82.1644 122.834C82.1724 122.959 82.1679 123.096 82.2011 123.218C82.2253 123.311 82.2764 123.405 82.3123 123.493C82.393 123.695 82.5606 123.874 82.7982 123.864C83.0394 123.854 83.1972 123.709 83.2851 123.493C83.3191 123.408 83.3586 123.324 83.3882 123.237C83.4303 123.116 83.424 122.963 83.4321 122.834C83.4438 122.651 83.4276 122.468 83.4186 122.285Z" fill="#E35D1C"/>
<path d="M85.5698 126.239C85.5438 126.059 85.516 125.882 85.4909 125.704L85.4837 125.652L85.4765 125.595C85.4631 125.485 85.4496 125.376 85.4344 125.267C85.342 124.579 85.1896 123.9 85.0973 123.213C85.0614 122.947 84.7351 122.786 84.4975 122.821C84.2213 122.863 84.0393 123.079 84.0241 123.358C83.9846 124.043 83.9273 124.755 83.982 125.44C84.0089 125.774 84.0447 126.107 84.086 126.439C84.1138 126.661 84.1577 126.874 84.2339 127.084C84.311 127.299 84.4697 127.463 84.6131 127.636C84.8785 127.957 85.3349 127.733 85.4559 127.414C85.533 127.214 85.6065 127.044 85.6101 126.822C85.6137 126.625 85.5976 126.433 85.5698 126.239Z" fill="#E35D1C"/>
<path d="M113.94 103.065C113.876 102.369 113.78 101.674 113.656 100.986C113.563 100.475 112.715 100.589 112.748 101.108C112.789 101.774 112.802 102.439 112.784 103.103C112.775 103.437 112.746 103.77 112.745 104.104C112.745 104.258 112.74 104.412 112.741 104.566C112.745 104.774 112.81 104.96 112.866 105.158C112.924 105.367 113.124 105.52 113.342 105.52C113.575 105.52 113.737 105.362 113.818 105.158C113.898 104.957 113.968 104.785 113.983 104.566C113.994 104.412 113.997 104.258 114.002 104.104C114.01 103.759 113.972 103.409 113.94 103.065Z" fill="#E35D1C"/>
<path d="M112.428 105.728C112.416 105.528 112.404 105.328 112.391 105.129C112.367 104.729 112.343 104.329 112.318 103.93C112.307 103.733 112.153 103.543 111.94 103.552C111.725 103.562 111.574 103.718 111.562 103.93C111.538 104.329 111.513 104.729 111.488 105.129C111.477 105.328 111.464 105.528 111.452 105.728C111.447 105.819 111.434 105.913 111.436 106.004C111.439 106.133 111.48 106.274 111.504 106.401C111.539 106.587 111.754 106.741 111.94 106.733C112.127 106.724 112.338 106.599 112.376 106.401C112.4 106.273 112.439 106.134 112.443 106.004C112.446 105.913 112.433 105.819 112.428 105.728Z" fill="#E35D1C"/>
<path d="M110.571 107.641C110.558 107.397 110.545 107.153 110.533 106.908C110.52 106.662 110.325 106.423 110.06 106.435C109.793 106.447 109.601 106.643 109.587 106.908C109.575 107.153 109.563 107.397 109.55 107.641C109.544 107.763 109.538 107.885 109.531 108.008C109.527 108.104 109.517 108.195 109.544 108.291C109.57 108.388 109.626 108.461 109.679 108.54C109.869 108.824 110.25 108.824 110.441 108.54C110.493 108.462 110.555 108.385 110.577 108.291C110.598 108.197 110.594 108.104 110.589 108.008C110.583 107.885 110.576 107.763 110.571 107.641Z" fill="#E35D1C"/>
<path d="M24.3025 87.216L24.3176 87.2456L24.3166 87.2438L24.3025 87.216Z" fill="#E35D1C"/>
<path d="M25.7642 87.8351C25.7348 87.7365 25.7047 87.6387 25.6697 87.5428C25.5825 87.3061 25.4424 87.0838 25.3072 86.8704C25.0638 86.4867 24.785 86.1226 24.4793 85.7855C24.3388 85.6295 24.0852 85.6304 23.9277 85.7515C23.7672 85.8761 23.7084 86.1146 23.8198 86.2939C23.9274 86.4678 24.0282 86.6462 24.121 86.8291C24.1676 86.9206 24.2124 87.0138 24.2551 87.1071L24.302 87.2165L24.3101 87.229L24.3161 87.2442L24.3178 87.2478L24.3171 87.246L24.3455 87.3178C24.4345 87.541 24.4964 87.7759 24.5963 87.9956L24.6603 88.1345L24.6908 88.2045L24.6807 88.1785C24.7286 88.2923 24.7815 88.3901 24.8653 88.4815L24.9713 88.5936C25.1002 88.7334 25.3205 88.763 25.4879 88.6922C25.6767 88.6124 25.7534 88.4537 25.7786 88.2601C25.7979 88.1112 25.8094 87.9848 25.7642 87.8351Z" fill="#E35D1C"/>
<path d="M24.3038 88.4294C24.2754 88.3263 24.2152 88.2214 24.1658 88.1246C24.0908 87.9775 23.9795 87.8547 23.8772 87.7265C23.7557 87.5723 23.6338 87.419 23.5123 87.2657C23.3894 87.1106 23.2755 86.9555 23.1274 86.8246L22.8941 86.6175C22.7631 86.5009 22.6392 86.4283 22.4717 86.3799C22.2483 86.3144 21.9264 86.4588 21.8897 86.7107C21.8648 86.8819 21.8511 87.0245 21.902 87.1957C21.931 87.2926 21.9597 87.3903 21.9892 87.4871C22.0602 87.7256 22.1733 87.9417 22.2843 88.1631C22.374 88.3415 22.4634 88.52 22.5527 88.6984C22.6304 88.8535 22.7092 88.9727 22.8195 89.1135L22.9165 89.2372C22.9859 89.3134 23.0864 89.3681 23.175 89.4219C23.4111 89.5663 23.7238 89.56 23.9602 89.4219C24.1756 89.2964 24.3759 89.014 24.3455 88.7504C24.3328 88.6482 24.3297 88.5227 24.3038 88.4294Z" fill="#E35D1C"/>
<path d="M21.2917 88.3782L21.2392 88.2796C21.144 88.1174 20.9843 87.9784 20.8561 87.8403C20.6554 87.6251 20.4551 87.4109 20.2551 87.1966C20.1563 87.0917 19.9757 87.0155 19.8313 87.0208C19.6965 87.0271 19.5761 87.0666 19.4688 87.15C19.3694 87.2262 19.2822 87.3355 19.2538 87.4611C19.2206 87.6072 19.2188 87.7982 19.3141 87.9219C19.492 88.1541 19.6696 88.3863 19.8471 88.6185L19.9766 88.7871L20.0446 88.8767L20.1949 89.0704L20.2852 89.1394L20.4341 89.2524C20.5237 89.308 20.6519 89.3447 20.7602 89.343L20.9068 89.3331C21.0981 89.3187 21.2834 89.2058 21.3323 89.0085L21.3618 88.8911C21.4056 88.7028 21.3744 88.5459 21.2917 88.3782Z" fill="#E35D1C"/>
<path d="M22.0993 108.333C22.0251 108.217 21.9294 108.132 21.803 108.079C21.5235 107.961 21.1831 108.063 21.0287 108.333C20.7888 108.751 20.5492 109.17 20.3093 109.588L19.9615 110.195C19.8788 110.339 19.8169 110.492 19.7563 110.647C19.6933 110.809 19.688 110.989 19.6674 111.162C19.6551 111.264 19.7069 111.409 19.7577 111.495C19.8309 111.62 19.943 111.711 20.0739 111.767C20.3188 111.87 20.6056 111.818 20.7975 111.63C20.9187 111.511 21.0328 111.397 21.1222 111.249C21.2132 111.098 21.2791 110.942 21.3464 110.779C21.4349 110.565 21.5232 110.352 21.6121 110.139C21.7949 109.695 21.9784 109.253 22.1616 108.81C22.2166 108.678 22.1746 108.45 22.0993 108.333Z" fill="#E35D1C"/>
<path d="M19.0665 108.069C18.795 108.032 18.5138 108.2 18.4441 108.475C18.4189 108.574 18.3832 108.67 18.3474 108.765C18.2721 108.928 18.1793 109.082 18.0732 109.228C17.9874 109.33 17.8995 109.431 17.7983 109.518C17.6726 109.628 17.5693 109.761 17.4449 109.873C17.3206 109.986 17.2313 110.204 17.239 110.371C17.246 110.529 17.2922 110.67 17.39 110.797C17.6025 111.073 17.9913 111.155 18.2984 110.979L18.5236 110.833L18.7593 110.652L18.9449 110.42C19.0556 110.272 19.1512 110.113 19.2289 109.947C19.4251 109.525 19.5417 109.093 19.5585 108.626C19.5686 108.344 19.3351 108.105 19.0665 108.069Z" fill="#E35D1C"/>
<path d="M16.1723 107.183C16.0882 107.038 15.9233 106.901 15.7584 106.864C15.5804 106.822 15.3811 106.831 15.2236 106.933L15.0834 107.042C15.0001 107.126 14.943 107.227 14.9098 107.341L14.9451 107.256C14.8499 107.48 14.7213 107.687 14.5781 107.883C14.3778 108.122 14.1473 108.339 13.9039 108.53C13.8097 108.602 13.7362 108.666 13.6612 108.78L13.5751 108.922C13.3026 109.359 13.6517 110.012 14.183 109.981C14.3985 109.968 14.612 109.945 14.7956 109.82C14.9255 109.733 15.0498 109.636 15.1718 109.537C15.3721 109.374 15.5297 109.162 15.6789 108.953C15.9412 108.586 16.1334 108.154 16.2423 107.716C16.2865 107.539 16.2655 107.342 16.1723 107.183Z" fill="#E35D1C"/>
<path d="M14.9863 139.441L14.9653 139.433C14.8325 139.371 14.7085 139.298 14.5789 139.23C14.461 139.168 14.3513 139.092 14.2435 139.015C14.1447 138.933 14.0476 138.85 13.9609 138.755L13.8988 138.685L13.8481 138.617L13.9003 138.692L13.7728 138.511L13.661 138.32L13.6064 138.21C13.557 138.069 13.5056 137.931 13.4737 137.782C13.4173 137.516 13.128 137.357 12.8744 137.391C12.6191 137.425 12.3859 137.654 12.4006 137.928C12.4335 138.536 12.6324 139.144 12.9918 139.642C13.1738 139.894 13.3735 140.129 13.6173 140.323C13.7671 140.442 13.9027 140.542 14.0771 140.62C14.2497 140.696 14.4238 140.769 14.6063 140.819C14.966 140.92 15.3998 140.696 15.4854 140.321C15.5764 139.92 15.3642 139.576 14.9863 139.441Z" fill="#E35D1C"/>
<path d="M16.6426 137.806C16.5659 137.715 16.4892 137.639 16.3823 137.581L16.2216 137.49C16.1109 137.425 16.0038 137.36 15.8896 137.301C15.6763 137.191 15.4756 137.059 15.284 136.915L15.062 136.727C14.9468 136.62 14.798 136.551 14.6386 136.551C14.4916 136.551 14.3161 136.617 14.2149 136.727C14.1105 136.841 14.0324 136.991 14.0398 137.15L14.0615 137.309C14.0895 137.411 14.1409 137.499 14.2149 137.574C14.4211 137.836 14.6558 138.076 14.9167 138.284C15.0827 138.417 15.2469 138.556 15.4417 138.643C15.5639 138.697 15.6875 138.75 15.8126 138.797C15.9428 138.847 16.0738 138.86 16.2118 138.846C16.3189 138.834 16.4244 138.818 16.519 138.762C16.6338 138.695 16.7172 138.592 16.7683 138.471C16.8684 138.234 16.8054 137.997 16.6426 137.806Z" fill="#E35D1C"/>
<path d="M18.8476 136.075L18.7279 135.959C18.6361 135.879 18.558 135.838 18.4547 135.787C18.3462 135.733 18.2376 135.68 18.129 135.627C17.915 135.522 17.7017 135.419 17.4874 135.314C17.3238 135.234 17.1505 135.196 16.9697 135.246C16.8139 135.288 16.6444 135.41 16.5677 135.555C16.4854 135.711 16.4437 135.9 16.4998 136.073C16.5519 136.234 16.6532 136.396 16.809 136.476C17.0206 136.583 17.2324 136.691 17.4436 136.799C17.5476 136.852 17.6517 136.905 17.7553 136.959L17.9819 137.067C18.068 137.103 18.1434 137.115 18.2341 137.128L18.4015 137.152C18.4887 137.154 18.5696 137.136 18.6445 137.097C18.7657 137.046 18.8827 136.959 18.946 136.839C19.077 136.592 19.0522 136.279 18.8476 136.075Z" fill="#E35D1C"/>
<path d="M62.1605 44.532C62.0125 44.5114 61.8144 44.6064 61.7911 44.7723C61.7418 45.1327 61.6503 45.4859 61.5167 45.8239L61.4836 45.9046L61.4396 46.0006L61.3177 46.2382C61.2612 46.3413 61.2137 46.4489 61.1778 46.5609C61.1402 46.6811 61.159 46.7833 61.1707 46.9025C61.1949 47.1625 61.4253 47.2889 61.6602 47.184C61.7956 47.1231 61.9005 47.0693 61.991 46.9429C62.0654 46.8389 62.1183 46.734 62.1623 46.6138C62.2277 46.4345 62.2824 46.2516 62.3245 46.066C62.4151 45.6724 62.459 45.2654 62.4519 44.8619C62.4492 44.6934 62.3263 44.5535 62.1605 44.532Z" fill="#E35D1C"/>
<path d="M63.836 45.9078C63.6665 45.8361 63.4244 45.8908 63.3375 46.071C63.2371 46.2808 63.1357 46.4906 63.0353 46.7004C62.9708 46.834 62.9053 46.9667 62.8578 47.1083L62.8031 47.2715C62.761 47.3961 62.7771 47.5127 62.8076 47.6382C62.8668 47.8839 63.2048 48.0452 63.4244 47.8883L63.5652 47.7835C63.636 47.7153 63.6674 47.6454 63.7033 47.5593L63.7696 47.3979C63.8162 47.2859 63.8485 47.1738 63.8808 47.0563C63.9427 46.8304 64.0054 46.6045 64.0673 46.3785C64.1202 46.1867 64.0171 45.984 63.836 45.9078Z" fill="#E35D1C"/>
<path d="M66.5461 17.3863C65.3654 15.7429 63.9371 14.3936 62.2543 13.2702C61.9172 13.0451 61.5254 13.5553 61.8221 13.8314C63.1831 15.0974 64.3773 16.5875 65.3492 18.1717C66.3336 19.7774 66.8886 21.5652 67.7664 23.2184C68.0479 23.7492 68.9606 23.5197 68.9211 22.9064C68.7911 20.873 67.7153 19.0145 66.5461 17.3863Z" fill="#E35D1C"/>
<path d="M110.679 5.88397C108.96 8.11193 107.908 10.8644 107.711 13.6724C107.656 14.4569 108.943 14.6407 109.095 13.8598C109.597 11.2669 110.425 8.79601 111.677 6.46763C112.04 5.79162 111.121 5.31106 110.679 5.88397Z" fill="#E35D1C"/>
<path d="M118.337 33.4176C118.293 33.3109 118.249 33.2042 118.205 33.0984C118.163 32.998 118.128 32.8985 118.065 32.8106L117.956 32.6573C117.818 32.4628 117.681 32.2682 117.543 32.0737C117.468 31.967 117.369 31.8683 117.236 31.8379C117.12 31.811 117.01 31.8172 116.9 31.863C116.675 31.958 116.522 32.2252 116.603 32.4708C116.675 32.6923 116.747 32.9146 116.82 33.1361C116.871 33.2912 116.914 33.4526 116.998 33.5933C117.06 33.6964 117.123 33.8004 117.184 33.9035C117.347 34.1734 117.683 34.2828 117.972 34.1609C118.093 34.1107 118.21 34.0228 118.273 33.9035C118.346 33.7646 118.4 33.57 118.337 33.4176Z" fill="#E35D1C"/>
<path d="M115.8 58.0353C115.8 58.0353 116.087 62.536 115.8 63.8809C115.737 64.1767 115.325 64.7954 114.572 65.6023C111.972 68.4085 105.346 73.4383 95.3941 74.9983C84.7967 76.6659 71.8951 70.112 70.9358 68.5789C69.9765 67.0457 71.3751 63.7822 71.3751 63.7822L71.4827 63.576C74.3248 65.0285 87.5734 70.3998 95.8487 68.8667C103.388 67.4689 112.59 60.8774 115.8 58.0353Z" fill="#DC183B"/>
</svg>
