<svg width="403" height="439" viewBox="0 0 403 439" fill="none" xmlns="http://www.w3.org/2000/svg">
<path d="M203.574 273.519C204.767 273.785 205.801 274.813 207.263 274.068C212.213 271.57 217.013 270.728 221.882 268.981C223.737 268.313 225.032 267.201 224.984 264.873C224.931 263.056 223.636 263.401 222.39 263.516C218.208 263.909 213.89 267.38 209.661 268.29C207.983 268.663 206.186 269.028 204.479 270.359C203.236 271.322 202.639 272.468 203.574 273.519Z" fill="#FABF4B"/>
<path d="M74.8159 292.459C67.4579 292.468 60.8716 298.767 54.1464 303.561C52.1859 304.964 51.8173 307.051 52.2751 308.517C52.7178 309.95 54.3693 309.181 55.5394 308.076C61.2226 302.791 67.4202 299.23 73.3401 294.78C73.9792 294.298 74.5126 293.756 74.8159 292.459Z" fill="#FABF4B"/>
<path d="M38.0084 331.67C39.2956 329.838 40.6496 328.012 41.8548 326.112C42.8128 324.568 42.961 323.262 41.8579 322.405C40.8367 321.587 39.8436 321.784 38.5168 323.24C35.1772 326.864 32.552 330.963 30.4016 335.388C29.7901 336.679 29.4417 338.082 30.4129 338.745C31.4014 339.414 32.5097 338.615 33.4534 337.445C34.9819 335.533 36.4282 333.553 37.9264 331.602C37.9544 331.616 37.9804 331.656 38.0084 331.67Z" fill="#FABF4B"/>
<path d="M241.057 259.523C241.61 259.892 242.506 259.799 243.471 259.509C247.126 258.38 250.715 256.37 254.327 254.371C256.246 253.305 257.133 251.822 256.893 249.756C256.591 247.321 255.172 248.084 253.409 249.211C250.463 251.12 247.506 253.077 244.438 253.953C243.068 254.337 241.926 255.427 241.084 256.954C240.588 257.872 240.327 258.809 241.057 259.523Z" fill="#FABF4B"/>
<path d="M22.6905 355.497C19.7951 359.226 18.1252 363.547 15.862 367.632C15.5872 368.153 15.3923 368.74 15.3137 369.287C15.1206 370.722 14.7234 372.533 15.9074 372.873C17.2358 373.233 18.3874 371.484 19.1238 370.131C21.4815 365.889 23.6256 361.566 25.9444 357.303C27.0051 355.378 27.2675 354.058 25.8048 353.395C24.4737 352.775 23.4863 353.664 22.6905 355.497Z" fill="#FABF4B"/>
<path d="M359.526 35.4712C358.929 36.4391 358.379 37.3023 357.868 38.1865C357.245 39.2918 356.676 40.4795 357.495 41.1353C358.216 41.7177 358.984 42.2237 360.352 40.8139C363.133 37.9493 366.03 35.2177 368.828 32.3832C370.013 31.1617 370.737 29.8047 370.531 28.2379C370.268 26.2079 369.527 25.2801 367.428 27.3822C364.735 30.0382 362.113 32.8112 359.526 35.4712Z" fill="#FABF4B"/>
<path d="M301.174 211.72C302.847 207.48 306.079 202.981 308.776 198.199C309.238 197.395 309.3 196.351 309.408 195.463C309.516 194.519 309.292 193.689 308.441 193.704C307.822 193.713 307.173 194.422 306.756 195.148C303.666 200.438 300.578 205.728 297.582 211.066C296.807 212.45 296.003 214.385 297.241 214.953C298.464 215.492 299.605 213.788 301.174 211.72Z" fill="#FABF4B"/>
<path d="M104.276 278.002C103.855 277.884 103.23 277.58 102.538 277.475C98.7432 276.922 94.5489 278.921 90.4635 280.416C89.3544 280.832 87.6731 281.769 87.6857 283.718C87.7093 285.703 89.0525 284.922 90.4243 284.362C94.589 282.675 98.5455 282.395 102.54 281.878C103.564 281.747 104.589 282.413 105.378 280.473C105.972 279.068 105.081 278.677 104.276 278.002Z" fill="#FABF4B"/>
<path d="M155.939 278.514C152.865 276.344 148.827 276.585 145.312 275.743C144.277 275.506 143.455 276.354 143.04 277.699C142.569 279.189 142.034 280.881 143.749 280.883C147.198 280.9 150.05 282.236 153.215 282.87C154.299 283.079 155.49 283.728 156.605 281.805C157.683 279.938 156.395 279.366 155.939 278.514Z" fill="#FABF4B"/>
<path d="M340.314 64.9618C338.096 68.9688 335.634 72.7964 334.031 76.8947C333.246 78.913 333.129 80.6928 335.192 80.676C336.961 80.6814 337.415 79.0999 337.83 77.5537C338.739 74.2703 340.985 71.4794 342.516 68.418C342.698 68.0517 342.973 67.7372 343.235 67.4141C344.822 65.4046 345.686 63.2234 344.22 62.0944C342.493 60.756 341.643 64.1761 340.314 64.9618Z" fill="#FABF4B"/>
<path d="M173.152 279.746C176.392 281.136 180.238 280.924 184.355 279.907C185.307 279.664 185.93 278.915 186.094 277.877C186.305 276.551 186.263 274.919 185.246 274.951C181.599 275.061 178.177 274.065 174.131 275.989C172.316 276.829 171.858 278.74 173.152 279.746Z" fill="#FABF4B"/>
<path d="M7.1388 408.881C8.0725 409.112 9.06966 408.763 9.41363 407.306C10.55 402.376 11.9168 397.387 11.7563 392.749C11.7128 391.5 10.8727 390.675 9.7204 391.044C8.27731 391.492 8.01575 393.195 7.93405 394.329C7.64508 398.4 5.8698 402.867 6.49201 406.701C6.6359 407.492 6.60323 408.369 7.1388 408.881Z" fill="#FABF4B"/>
<path d="M279.477 237.529C281.208 235.544 283.126 233.712 283.218 230.942C283.284 228.778 282.281 228.281 280.673 230.15C277.792 233.477 275.189 237.128 272.202 240.399C271.26 241.416 270.195 243.287 271.198 244.373C272.029 245.271 273.199 244.017 274.264 243.32C276.417 241.889 277.785 239.483 279.477 237.529Z" fill="#FABF4B"/>
<path d="M328.955 114.884C330.012 113.467 331.656 103.637 330.983 102.619C330.138 101.332 328.865 101.79 327.959 103.569C326.208 107.027 325.217 110.599 325.349 113.843C325.425 116.184 327.71 116.586 328.955 114.884Z" fill="#FABF4B"/>
<path d="M326.553 148.695C327.414 149.047 328.145 149.145 328.949 148.44C329.84 147.656 330.665 146.628 330.6 145.444C330.408 141.889 330.191 138.374 329.91 134.877C329.836 134.094 329.597 133.23 328.644 133.445C327.677 133.683 327.296 134.788 326.849 135.654C326.16 136.954 325.653 138.453 325.937 139.445C326.556 141.611 326.229 144.127 326.191 146.539C326.182 147.375 326.451 148.104 326.553 148.695Z" fill="#FABF4B"/>
<path d="M392.212 8.0967C391.311 9.36526 390.264 10.5044 390.67 11.7912C391.045 12.9832 392.108 13.0282 393.277 12.3902C395.759 11.0549 398.399 10.1324 400.484 7.28645C401.361 6.08188 401.964 4.80921 401.515 3.6532C401.065 2.52387 400.054 2.42867 398.859 3.13392C396.532 4.50133 394.173 5.92704 392.212 8.0967Z" fill="#FABF4B"/>
<path d="M10.0633 436.681C11.3525 436.843 11.9633 438.316 13.5144 436.952C15.3344 435.344 14.3151 434.35 14.0089 433.246C13.3638 430.861 13.0632 428.25 12.0587 426.11C11.5219 425.013 10.6742 424.67 9.49273 425.534C8.51789 426.253 8.19086 427.567 8.38696 428.589C8.91641 431.347 9.51907 434.068 10.0633 436.681Z" fill="#FABF4B"/>
<path d="M318.743 168.936C315.75 173.331 314.917 177.165 314.014 180.966C313.586 182.71 313.695 184.353 315.518 184.029C317 183.78 318.023 182.217 318.27 180.687C318.887 176.865 320.697 172.543 318.743 168.936Z" fill="#FABF4B"/>
<path d="M130.116 279.271C128.634 274.38 124.683 274.562 121.002 274.35C120.392 274.313 119.811 275.109 119.438 275.883C118.674 277.452 119.578 278.057 120.266 278.107C123.417 278.298 125.842 280.259 130.116 279.271Z" fill="#FABF4B"/>
</svg>
