<svg width="263" height="137" viewBox="0 0 263 137" fill="none" xmlns="http://www.w3.org/2000/svg">
<path d="M141.575 95.5191C142.767 95.7852 143.801 96.8126 145.263 96.0682C150.213 93.5702 155.013 92.7278 159.883 90.9814C161.737 90.313 163.032 89.2015 162.984 86.8734C162.931 85.0562 161.636 85.401 160.391 85.5162C156.208 85.9095 151.89 89.3798 147.661 90.2898C145.983 90.6626 144.186 91.0276 142.48 92.3594C141.236 93.3223 140.639 94.4681 141.575 95.5191Z" fill="#FABF4B"/>
<path d="M12.8162 114.459C5.45816 114.468 -1.12815 120.767 -7.85337 125.561C-9.81389 126.964 -10.1824 129.051 -9.72462 130.517C-9.28197 131.95 -7.63049 131.181 -6.46032 130.076C-0.777109 124.791 5.42047 121.23 11.3403 116.78C11.9795 116.298 12.5128 115.756 12.8162 114.459Z" fill="#FABF4B"/>
<path d="M179.057 81.5232C179.61 81.8917 180.506 81.7992 181.471 81.5086C185.126 80.3797 188.715 78.3698 192.327 76.3709C194.246 75.3049 195.133 73.8217 194.893 71.7558C194.591 69.3209 193.172 70.0844 191.409 71.2107C188.463 73.1195 185.506 75.0775 182.438 75.9527C181.068 76.3367 179.926 77.4273 179.084 78.9544C178.588 79.8719 178.327 80.8086 179.057 81.5232Z" fill="#FABF4B"/>
<path d="M239.174 33.7199C240.847 29.4798 244.079 24.9807 246.776 20.1994C247.238 19.395 247.3 18.351 247.408 17.4633C247.516 16.5195 247.292 15.6893 246.441 15.7039C245.822 15.7129 245.173 16.4217 244.756 17.1483C241.666 22.4376 238.578 27.7284 235.582 33.0662C234.807 34.45 234.003 36.3853 235.241 36.9529C236.464 37.4918 237.605 35.7876 239.174 33.7199Z" fill="#FABF4B"/>
<path d="M42.276 100.002C41.8555 99.8842 41.2299 99.5797 40.5378 99.4747C36.7434 98.9216 32.5491 100.921 28.4637 102.416C27.3546 102.832 25.6733 103.769 25.686 105.718C25.7095 107.703 27.0528 106.922 28.4245 106.362C32.5893 104.675 36.5457 104.395 40.5405 103.878C41.564 103.747 42.5891 104.413 43.3782 102.473C43.9723 101.068 43.0814 100.677 42.276 100.002Z" fill="#FABF4B"/>
<path d="M93.9386 100.514C90.865 98.3444 86.8266 98.5847 83.3118 97.7432C82.2767 97.5059 81.4552 98.354 81.0399 99.6989C80.5688 101.189 80.0335 102.881 81.7491 102.883C85.1975 102.9 88.0496 104.236 91.2148 104.87C92.2993 105.079 93.4904 105.728 94.6049 103.805C95.683 101.938 94.3951 101.366 93.9386 100.514Z" fill="#FABF4B"/>
<path d="M111.151 101.746C114.391 103.136 118.238 102.924 122.355 101.907C123.307 101.664 123.93 100.915 124.094 99.8767C124.305 98.5514 124.262 96.9193 123.245 96.951C119.599 97.0612 116.176 96.0655 112.131 97.9895C110.315 98.8287 109.858 100.74 111.151 101.746Z" fill="#FABF4B"/>
<path d="M217.477 59.5288C219.208 57.5443 221.127 55.7116 221.218 52.9419C221.284 50.7781 220.281 50.2811 218.673 52.15C215.792 55.477 213.189 59.128 210.203 62.3994C209.261 63.4162 208.196 65.2872 209.198 66.3729C210.029 67.2714 211.199 66.0166 212.265 65.3197C214.417 63.8887 215.785 61.4827 217.477 59.5288Z" fill="#FABF4B"/>
<path d="M256.743 -9.06401C253.75 -4.66946 252.917 -0.835186 252.014 2.96624C251.586 4.71 251.695 6.35335 253.518 6.02893C255 5.77968 256.023 4.21745 256.27 2.68683C256.887 -1.13501 258.697 -5.45745 256.743 -9.06401Z" fill="#FABF4B"/>
<path d="M68.1158 101.271C66.6336 96.3804 62.6834 96.5619 59.0018 96.3496C58.3918 96.3127 57.8115 97.1092 57.4381 97.883C56.6741 99.4518 57.5784 100.057 58.266 100.107C61.4174 100.298 63.8418 102.259 68.1158 101.271Z" fill="#FABF4B"/>
</svg>
