<svg width="71" height="47" viewBox="0 0 71 47" fill="none" xmlns="http://www.w3.org/2000/svg">
<g filter="url(#filter0_d)">
<path d="M62.2157 38.6225H7.89839C5.77561 38.6225 4.00195 37.1999 4.00195 35.36V3.48294C4.00195 3.04469 4.10227 2.62384 4.2989 2.22037C4.49954 1.81343 4.78044 1.45866 5.1456 1.14911C5.51077 0.839556 5.93211 0.599565 6.40964 0.432615C6.88716 0.265664 7.38073 0.178711 7.89839 0.178711H62.2157C64.3385 0.178711 66.1161 1.6604 66.1161 3.48641V35.3183C66.068 37.2034 64.3385 38.626 62.2157 38.626V38.6225Z" fill="#F2F2F2"/>
<path d="M11.7658 38.6211L35.0039 24.1974L35.1524 23.3592L11.1839 8.75464L11.1357 37.9116L11.7658 38.6211Z" fill="#221F1F" fill-opacity="0.098"/>
<path d="M7.89841 38.6207C5.74754 38.6207 4.00195 37.1982 4.00195 35.3583V3.43969C4.00195 1.59629 5.74754 1.26587 7.89841 1.26587C10.0493 1.26587 11.7989 1.64498 11.7989 3.43969V38.6207H7.89841Z" fill="#D44C3D"/>
<path d="M7.89693 1.76703C10.6617 1.76703 11.2035 2.47657 11.2035 3.44V38.1585H7.89693C6.0711 38.1585 4.59038 36.9029 4.59038 35.3552V3.44C4.54223 2.45222 5.13612 1.76703 7.89693 1.76703ZM7.89693 1.30444C5.74607 1.30792 4.0005 1.68356 4.0005 3.44V35.3134C3.99649 35.5325 4.01655 35.7482 4.0647 35.9604C4.11286 36.176 4.18509 36.3847 4.2814 36.5864C4.3777 36.7881 4.49809 36.9794 4.63853 37.1603C4.77898 37.3446 4.94351 37.5116 5.12408 37.6646C5.30466 37.8211 5.5053 37.9568 5.71798 38.0785C5.93066 38.1968 6.15939 38.2976 6.39614 38.3811C6.63691 38.4646 6.88169 38.5237 7.1345 38.5655C7.3873 38.6037 7.64011 38.6246 7.89693 38.6211H11.7974V3.44C11.7653 1.64182 10.0679 1.30792 7.89693 1.30792V1.30444ZM62.2142 1.76703C64.7302 1.76703 65.5207 2.1844 65.5207 3.35653V35.4004C65.5207 36.9481 64.044 38.2037 62.2142 38.2037H58.9076V3.35653C58.8595 2.14267 59.6982 1.76703 62.2142 1.76703ZM62.2142 1.30444C60.0473 1.30444 58.3178 1.55487 58.3178 3.35653V38.6628H62.2142C64.3851 38.6628 66.1146 37.1777 66.1146 35.3552V3.31479C66.0665 1.51313 64.337 1.30444 62.2142 1.30444Z" fill="#D44C3D"/>
<path d="M62.2148 38.6206H58.3184V3.35598C58.3184 1.51606 60.0639 1.30737 62.2148 1.30737C64.3697 1.30737 66.1152 1.5578 66.1152 3.35598V35.3999C66.1032 35.8312 65.9989 36.2451 65.7942 36.6416C65.5896 37.0346 65.3087 37.3859 64.9435 37.685C64.5783 37.9876 64.161 38.2206 63.6875 38.3806C63.218 38.5441 62.7244 38.6241 62.2148 38.6206Z" fill="#D44C3D"/>
<path d="M45.5907 38.6225L4.34717 4.83948L6.51809 5.59423L35.2497 23.124L66.1121 3.90039V35.4017C66.1121 35.8365 66.0118 36.2539 65.8112 36.6573C65.6145 37.0608 65.3296 37.4121 64.9645 37.7182C64.5993 38.0242 64.178 38.2607 63.7004 38.4242C63.2229 38.5877 62.7293 38.6677 62.2157 38.6642L45.5907 38.6225Z" fill="#221F1F" fill-opacity="0.0784"/>
<path d="M34.9843 24.2386L5.67879 6.20114C3.92921 5.11597 3.45569 3.02214 4.73979 1.55786C6.02389 0.0935686 8.48775 -0.24033 10.2654 0.84832L35.0324 16.1207L59.9479 0.639633C61.6935 -0.449017 64.0931 -0.115118 65.3732 1.39091C66.6533 2.87258 66.2601 4.90728 64.4864 5.99593L34.9843 24.2386Z" fill="#D44C3D"/>
<path d="M62.2144 0.511161C63.2537 0.511161 64.289 0.928533 64.931 1.68328C65.9664 2.93888 65.6694 4.69532 64.1927 5.6344L34.9835 23.651L6.02311 5.8257C4.54239 4.904 4.14512 3.10582 5.16437 1.87458C5.75426 1.12331 6.79357 0.660719 7.92518 0.660719C8.66354 0.660719 9.35775 0.827668 9.89948 1.2033L34.6143 16.4374L34.9594 16.6043L35.3045 16.4374L60.1959 0.97027C60.834 0.674632 61.476 0.507683 62.2184 0.507683L62.2144 0.511161ZM62.2144 0.010314C61.4279 0.010314 60.5852 0.177263 59.9431 0.632894L35.0317 16.1174L10.2165 0.803321C9.57444 0.385949 8.73577 0.177263 7.89709 0.177263C6.66516 0.219 5.43323 0.681587 4.69086 1.56155C3.45893 3.04322 3.95251 5.07791 5.67801 6.16308L34.9835 24.2388L64.4856 5.99265C64.8989 5.73527 65.244 5.41876 65.5129 5.04661C65.7818 4.67445 65.9583 4.27447 66.0386 3.84318C66.1228 3.4119 66.1068 2.98409 65.9904 2.55976C65.8741 2.13543 65.6694 1.74589 65.3725 1.38764C64.5819 0.507683 63.4022 0.00683594 62.2144 0.00683594V0.010314Z" fill="#D44C3D"/>
</g>
<defs>
<filter id="filter0_d" x="0" y="0" width="70.1249" height="46.6643" filterUnits="userSpaceOnUse" color-interpolation-filters="sRGB">
<feFlood flood-opacity="0" result="BackgroundImageFix"/>
<feColorMatrix in="SourceAlpha" type="matrix" values="0 0 0 0 0 0 0 0 0 0 0 0 0 0 0 0 0 0 127 0" result="hardAlpha"/>
<feOffset dy="4"/>
<feGaussianBlur stdDeviation="2"/>
<feComposite in2="hardAlpha" operator="out"/>
<feColorMatrix type="matrix" values="0 0 0 0 0 0 0 0 0 0 0 0 0 0 0 0 0 0 0.25 0"/>
<feBlend mode="normal" in2="BackgroundImageFix" result="effect1_dropShadow"/>
<feBlend mode="normal" in="SourceGraphic" in2="effect1_dropShadow" result="shape"/>
</filter>
</defs>
</svg>
