<svg width="57" height="60" viewBox="0 0 57 60" fill="none" xmlns="http://www.w3.org/2000/svg">
<path d="M56.2703 48.4409C56.1391 47.9757 55.8324 47.5796 55.4149 47.3361C54.9974 47.0925 54.5017 47.0206 54.0322 47.1354L49.3883 48.385C51.9295 44.639 53.4703 40.3054 53.8644 35.796C54.2453 31.5771 53.6284 27.3277 52.0635 23.3913C50.4987 19.4549 48.0298 15.9418 44.8563 13.1359C44.4894 12.8325 44.0204 12.6808 43.5454 12.712C43.0703 12.7432 42.6252 12.9549 42.3012 13.3037C41.9751 13.6749 41.8097 14.1603 41.8412 14.6533C41.8727 15.1463 42.0985 15.6067 42.469 15.9334C45.2036 18.3472 47.3311 21.3713 48.679 24.7606C50.0269 28.1499 50.5575 31.8091 50.2275 35.4416C49.9081 39.2678 48.6248 42.9507 46.4975 46.1469L46.0312 41.4657C46.0664 41.1902 46.0396 40.9103 45.9528 40.6465C45.8659 40.3827 45.7213 40.1416 45.5294 39.9408C45.3375 39.7401 45.1031 39.5847 44.8435 39.4861C44.5839 39.3875 44.3055 39.3481 44.0287 39.3708C43.7519 39.3935 43.4836 39.4777 43.2436 39.6174C43.0035 39.757 42.7976 39.9485 42.641 40.1778C42.4844 40.4072 42.381 40.6686 42.3383 40.9431C42.2956 41.2175 42.3148 41.498 42.3944 41.7641L43.3269 53.7749L54.9834 50.679C55.4451 50.5439 55.8368 50.2356 56.0766 49.8186C56.3164 49.4015 56.3858 48.9079 56.2703 48.4409Z" fill="#434343"/>
<path d="M1.84868 31.2831C2.09655 31.4424 2.37693 31.5444 2.66929 31.5815C3.15603 31.6453 3.64831 31.5147 4.03935 31.2179C4.43039 30.9211 4.68866 30.4822 4.75813 29.9962C5.52875 24.3063 8.42041 19.1175 12.854 15.4689C17.2877 11.8203 22.936 9.9813 28.6678 10.3201L24.4902 13.1736C24.1946 13.3963 23.9719 13.7019 23.8505 14.0515C23.7291 14.4011 23.7145 14.7789 23.8085 15.1369C23.9025 15.4948 24.1008 15.8167 24.3783 16.0616C24.6558 16.3065 24.9999 16.4633 25.3667 16.512C25.7869 16.5504 26.2077 16.4452 26.5603 16.2136L36.501 9.38759L27.9964 0.845745C27.8451 0.61385 27.644 0.418565 27.4078 0.274066C27.1716 0.129567 26.9061 0.039482 26.6308 0.01035C26.3554 -0.018782 26.077 0.0137706 25.8158 0.105644C25.5545 0.197518 25.3171 0.346407 25.1206 0.541503C24.924 0.736599 24.7734 0.973004 24.6797 1.23356C24.5859 1.49411 24.5514 1.77227 24.5785 2.04785C24.6057 2.32342 24.6938 2.58949 24.8366 2.82675C24.9794 3.064 25.1732 3.26648 25.404 3.41949L28.5746 6.59004C21.9553 6.27354 15.4578 8.45016 10.3649 12.6902C5.27204 16.9303 1.95383 22.9256 1.06536 29.4926C1.01755 29.8343 1.06544 30.1826 1.20373 30.4987C1.34202 30.8147 1.56528 31.0863 1.84868 31.2831Z" fill="#434343"/>
<path d="M34.3377 55.2485C31.4253 56.1788 28.3532 56.5025 25.3109 56.1996C21.6058 55.8365 18.0447 54.577 14.9351 52.5299C11.8255 50.4829 9.26086 47.7097 7.46257 44.4499L12.1065 46.1844C12.5346 46.2587 12.9751 46.1811 13.3522 45.9652C13.7292 45.7493 14.019 45.4085 14.1715 45.0017C14.3241 44.5949 14.3298 44.1476 14.1877 43.737C14.0457 43.3264 13.7647 42.9783 13.3934 42.7528L4.83287 39.5822L2.09128 38.5938L0.0210901 50.4367C-0.0506788 50.9099 0.0622523 51.3927 0.33651 51.785C0.610767 52.1772 1.02535 52.4491 1.49446 52.5442H1.81152C2.25047 52.5522 2.67817 52.405 3.01933 52.1287C3.36048 51.8524 3.59321 51.4646 3.67655 51.0335L4.45987 46.5574C6.56926 50.2526 9.53214 53.3894 13.1011 55.706C16.67 58.0225 20.7414 59.4516 24.9752 59.8738C28.515 60.2246 32.089 59.8437 35.4753 58.7547C35.9065 58.5762 36.2551 58.2425 36.4522 57.8195C36.6494 57.3965 36.6808 56.915 36.5403 56.47C36.3997 56.025 36.0975 55.6488 35.6932 55.4158C35.2888 55.1827 34.8118 55.1097 34.3563 55.2112L34.3377 55.2485Z" fill="#434343"/>
<path d="M23.2214 30.3201C23.2214 28.6318 21.8651 27.2628 20.1925 27.2628C18.5198 27.2628 17.1641 28.6318 17.1641 30.3201C17.1641 32.0096 18.5195 33.378 20.1925 33.378C21.8654 33.378 23.2214 32.0096 23.2214 30.3201Z" fill="#434343"/>
<path d="M35.2994 27.86C33.6271 27.86 32.271 29.229 32.271 30.9173C32.271 32.6068 33.6271 33.9746 35.2994 33.9746C36.972 33.9746 38.3281 32.6068 38.3281 30.9173C38.3281 29.229 36.9723 27.86 35.2994 27.86Z" fill="#434343"/>
<path d="M32.5487 34.3208C32.3381 34.0588 32.0401 33.7555 31.6979 33.4374C30.7847 32.2426 29.3563 31.4696 27.7461 31.4696C26.313 31.4696 25.0247 32.0823 24.1142 33.0585C23.597 33.5128 23.1371 33.9563 22.8444 34.3211L22.6485 34.5625C21.7347 35.6874 20.5973 37.0869 20.6056 39.4616C20.6137 41.667 22.3926 43.4623 24.5708 43.4623C25.1753 43.4636 25.7719 43.3239 26.3141 43.0541C26.8563 42.7843 27.3294 42.3917 27.6966 41.9069C28.0638 42.3919 28.537 42.7846 29.0794 43.0544C29.6217 43.3242 30.2186 43.4638 30.8232 43.4623C33.0005 43.4623 34.7791 41.6673 34.7875 39.4616C34.7958 37.0869 33.6581 35.6874 32.7446 34.5625L32.5487 34.3208Z" fill="#434343"/>
<path d="M27.9562 29.5194C29.7992 29.5194 31.2933 28.011 31.2933 26.1503C31.2933 24.2896 29.7992 22.7812 27.9562 22.7812C26.1131 22.7812 24.619 24.2896 24.619 26.1503C24.619 28.011 26.1131 29.5194 27.9562 29.5194Z" fill="#434343"/>
</svg>
