<svg width="14" height="17" viewBox="0 0 14 17" fill="none" xmlns="http://www.w3.org/2000/svg">
<path d="M1.07692 1.07692C0.791305 1.07692 0.517386 1.19038 0.315423 1.39235C0.113461 1.59431 0 1.86823 0 2.15385V3.23077C0 3.51639 0.113461 3.79031 0.315423 3.99227C0.517386 4.19423 0.791305 4.30769 1.07692 4.30769H1.61538V14C1.61538 14.5712 1.84231 15.1191 2.24623 15.523C2.65016 15.9269 3.198 16.1538 3.76923 16.1538H10.2308C10.802 16.1538 11.3498 15.9269 11.7538 15.523C12.1577 15.1191 12.3846 14.5712 12.3846 14V4.30769H12.9231C13.2087 4.30769 13.4826 4.19423 13.6846 3.99227C13.8865 3.79031 14 3.51639 14 3.23077V2.15385C14 1.86823 13.8865 1.59431 13.6846 1.39235C13.4826 1.19038 13.2087 1.07692 12.9231 1.07692H9.15385C9.15385 0.791305 9.04039 0.517386 8.83842 0.315423C8.63646 0.113461 8.36254 0 8.07692 0L5.92308 0C5.63746 0 5.36354 0.113461 5.16158 0.315423C4.95962 0.517386 4.84615 0.791305 4.84615 1.07692H1.07692ZM4.30769 5.38462C4.4505 5.38462 4.58746 5.44135 4.68844 5.54233C4.78942 5.64331 4.84615 5.78027 4.84615 5.92308V13.4615C4.84615 13.6043 4.78942 13.7413 4.68844 13.8423C4.58746 13.9433 4.4505 14 4.30769 14C4.16488 14 4.02792 13.9433 3.92694 13.8423C3.82596 13.7413 3.76923 13.6043 3.76923 13.4615V5.92308C3.76923 5.78027 3.82596 5.64331 3.92694 5.54233C4.02792 5.44135 4.16488 5.38462 4.30769 5.38462ZM7 5.38462C7.14281 5.38462 7.27977 5.44135 7.38075 5.54233C7.48173 5.64331 7.53846 5.78027 7.53846 5.92308V13.4615C7.53846 13.6043 7.48173 13.7413 7.38075 13.8423C7.27977 13.9433 7.14281 14 7 14C6.85719 14 6.72023 13.9433 6.61925 13.8423C6.51827 13.7413 6.46154 13.6043 6.46154 13.4615V5.92308C6.46154 5.78027 6.51827 5.64331 6.61925 5.54233C6.72023 5.44135 6.85719 5.38462 7 5.38462ZM10.2308 5.92308V13.4615C10.2308 13.6043 10.174 13.7413 10.0731 13.8423C9.97208 13.9433 9.83512 14 9.69231 14C9.5495 14 9.41254 13.9433 9.31156 13.8423C9.21058 13.7413 9.15385 13.6043 9.15385 13.4615V5.92308C9.15385 5.78027 9.21058 5.64331 9.31156 5.54233C9.41254 5.44135 9.5495 5.38462 9.69231 5.38462C9.83512 5.38462 9.97208 5.44135 10.0731 5.54233C10.174 5.64331 10.2308 5.78027 10.2308 5.92308Z" fill="#FF5C5C"/>
</svg>
