<svg width="14" height="20" viewBox="0 0 14 20" fill="none" xmlns="http://www.w3.org/2000/svg">
<path fill-rule="evenodd" clip-rule="evenodd" d="M6.81235 1.77337C5.4978 1.77337 4.23709 2.27382 3.30756 3.16462C2.37803 4.05542 1.85583 5.26361 1.85583 6.52339C1.85583 7.78317 2.37803 8.99136 3.30756 9.88216C4.23709 10.773 5.4978 11.2734 6.81235 11.2734C8.1269 11.2734 9.38761 10.773 10.3171 9.88216C11.2467 8.99136 11.7689 7.78317 11.7689 6.52339C11.7689 5.26361 11.2467 4.05542 10.3171 3.16462C9.38761 2.27382 8.1269 1.77337 6.81235 1.77337V1.77337ZM0.616699 6.52339C0.616714 5.37438 0.964612 4.25005 1.6182 3.28677C2.27178 2.32349 3.20298 1.56264 4.29885 1.0965C5.39472 0.630358 6.60818 0.478952 7.79206 0.660643C8.97594 0.842334 10.0794 1.34932 10.9685 2.1201C11.8577 2.89089 12.4944 3.89237 12.8014 5.00307C13.1085 6.11377 13.0726 7.28599 12.6982 8.37755C12.3238 9.4691 11.627 10.4331 10.6922 11.1526C9.75741 11.8722 8.62487 12.3163 7.43192 12.4312V14.8359H9.91018C10.0745 14.8359 10.2321 14.8985 10.3483 15.0098C10.4645 15.1212 10.5297 15.2722 10.5297 15.4297C10.5297 15.5871 10.4645 15.7382 10.3483 15.8495C10.2321 15.9609 10.0745 16.0234 9.91018 16.0234H7.43192V18.9922C7.43192 19.1497 7.36664 19.3007 7.25045 19.412C7.13426 19.5234 6.97667 19.5859 6.81235 19.5859C6.64803 19.5859 6.49044 19.5234 6.37425 19.412C6.25806 19.3007 6.19279 19.1497 6.19279 18.9922V16.0234H3.71453C3.55021 16.0234 3.39262 15.9609 3.27643 15.8495C3.16024 15.7382 3.09496 15.5871 3.09496 15.4297C3.09496 15.2722 3.16024 15.1212 3.27643 15.0098C3.39262 14.8985 3.55021 14.8359 3.71453 14.8359H6.19279V12.4312C4.66455 12.284 3.24784 11.5981 2.21751 10.5064C1.18718 9.41482 0.61668 7.99533 0.616699 6.52339V6.52339Z" fill="#FFA8A1"/>
</svg>
