<svg width="106" height="256" viewBox="0 0 106 256" fill="none" xmlns="http://www.w3.org/2000/svg">
<path d="M94.802 132.983C95.1414 131.758 96.2158 130.752 95.5835 129.175C93.4648 123.839 92.9572 118.774 91.5692 113.574C91.0372 111.594 90.0345 110.165 87.7518 110.051C85.9689 109.979 86.221 111.353 86.2514 112.66C86.36 117.049 89.4726 121.795 90.0841 126.269C90.3382 128.045 90.5767 129.944 91.768 131.817C92.6286 133.181 93.7111 133.884 94.802 132.983Z" fill="#FABF4B"/>
<path d="M83.5756 92.9161C83.973 92.3659 83.9417 91.4248 83.7209 90.3982C82.8572 86.5077 81.1265 82.6245 79.408 78.7174C78.491 76.6424 77.0974 75.6131 75.0587 75.7171C72.6545 75.8611 73.3084 77.3941 74.2946 79.3114C75.9689 82.518 77.6905 85.7392 78.3447 88.9989C78.6302 90.4543 79.6226 91.722 81.0622 92.7071C81.9278 93.2888 82.8277 93.6268 83.5756 92.9161Z" fill="#FABF4B"/>
<path d="M40.7427 26.8695C36.7015 24.8274 32.5099 21.1406 28.0065 17.9919C27.2493 17.4539 26.2313 17.3153 25.3692 17.1401C24.4522 16.9611 23.6245 17.1359 23.5826 18.0245C23.5504 18.6701 24.2016 19.3971 24.8855 19.8826C29.8603 23.4772 34.8366 27.0697 39.8651 30.5687C41.1688 31.4743 43.0106 32.4491 43.6483 31.1979C44.2568 29.9605 42.6636 28.651 40.7427 26.8695Z" fill="#FABF4B"/>
<path d="M92.6271 236.832C92.4838 237.262 92.1443 237.893 91.9958 238.607C91.2034 242.525 92.8836 247.039 94.078 251.404C94.4115 252.589 95.2176 254.408 97.1272 254.532C99.072 254.647 98.3966 253.192 97.9384 251.722C96.5623 247.261 96.5494 243.116 96.3073 238.915C96.2472 237.838 96.9669 236.816 95.1189 235.857C93.7827 235.139 93.3416 236.04 92.6271 236.832Z" fill="#FABF4B"/>
<path d="M96.543 183.002C94.2158 186.054 94.1841 190.281 93.1279 193.887C92.8271 194.949 93.6032 195.866 94.8926 196.393C96.3209 196.989 97.9417 197.667 98.0577 195.878C98.3019 192.284 99.7983 189.404 100.629 186.149C100.905 185.032 101.619 183.836 99.8104 182.539C98.0534 181.283 97.408 182.586 96.543 183.002Z" fill="#FABF4B"/>
<path d="M98.8876 165.142C100.463 161.862 100.509 157.836 99.7861 153.472C99.6111 152.462 98.9186 151.759 97.913 151.516C96.6293 151.203 95.0284 151.132 94.9922 152.195C94.8591 156.004 93.6578 159.503 95.2743 163.856C95.976 165.808 97.8171 166.419 98.8876 165.142Z" fill="#FABF4B"/>
<path d="M64.5797 51.3083C62.751 49.3639 61.0832 47.2344 58.3773 46.9443C56.263 46.7225 55.7101 47.7335 57.4336 49.5419C60.5009 52.7802 63.9037 55.7506 66.9096 59.0951C67.8428 60.1488 69.6045 61.391 70.7338 60.4224C71.6686 59.6186 70.5172 58.3105 69.9053 57.1506C68.6464 54.8058 66.381 53.2101 64.5797 51.3083Z" fill="#FABF4B"/>
<path d="M0.011821 5.53911C4.11692 8.96928 7.81626 10.1073 11.4787 11.3172C13.1579 11.8856 14.7742 11.8876 14.577 9.96439C14.431 8.40132 12.9689 7.22507 11.4865 6.85996C7.78508 5.94752 3.67238 3.75598 0.011821 5.53911Z" fill="#FABF4B"/>
<path d="M95.578 209.979C90.691 211.18 90.6075 215.311 90.1563 219.135C90.0798 219.769 90.8214 220.43 91.5543 220.873C93.04 221.781 93.6921 220.88 93.7871 220.167C94.1819 216.894 96.2628 214.505 95.578 209.979Z" fill="#FABF4B"/>
</svg>
