<svg width="1366" height="343" viewBox="0 0 1366 343" fill="none" xmlns="http://www.w3.org/2000/svg">
<path d="M0 342.122V92.7172C179.861 127.33 515.445 111.683 585.023 99.3553C1036 32.9738 1293.58 48.937 1366 65.2163V342.122H0Z" fill="#FABF4B"/>
<path d="M1166.35 145.368C1164.13 137.178 1157.24 130.624 1149.82 125.38C1145.36 122.228 1140.61 119.37 1136.09 116.277C1140.21 113.729 1144.55 111.461 1149.05 109.487C1150.39 108.898 1149.21 107.13 1147.87 107.705C1143.09 109.796 1138.52 112.227 1134.19 114.952C1132.63 113.847 1131.11 112.698 1129.66 111.476C1133.2 107.941 1136.99 104.612 1140.97 101.489C1142.1 100.62 1140.46 99.1619 1139.34 100.031C1135.33 103.154 1131.54 106.512 1128 110.047C1127.87 109.914 1127.72 109.796 1127.59 109.664C1126.48 108.648 1126.18 108.044 1124.1 106.585C1124.4 100.502 1124.41 94.4191 1124.11 88.3359C1118.37 93.5501 1113.46 99.4712 1109.57 105.893C1109.31 106.335 1109.03 106.806 1108.55 107.086C1107.79 107.543 1106.76 107.396 1105.85 107.263C1098.62 106.188 1090.99 107.337 1084.56 110.474L1068.44 89.9856C1068.69 98.2045 1070.94 106.247 1072.5 114.363C1066.33 117.559 1062.45 123.73 1061.97 130.049C1057.24 129.121 1052.49 128.193 1047.76 127.251C1046.31 126.971 1045.7 128.959 1047.15 129.239C1052.08 130.211 1057.01 131.183 1061.94 132.141C1062.01 133.452 1062.22 134.763 1062.59 136.044C1058.73 137.856 1054.81 139.594 1050.86 141.243C1049.5 141.803 1050.68 143.585 1052.03 143.026C1055.84 141.435 1059.59 139.77 1063.31 138.032C1063.31 138.032 1063.31 138.032 1063.31 138.047C1064.04 139.667 1065.04 141.17 1066.26 142.525C1063.93 145.485 1061.59 148.461 1059.26 151.421C1058.4 152.511 1060.42 153.542 1061.26 152.467C1063.46 149.683 1065.65 146.885 1067.85 144.101C1073.08 148.77 1081.02 151.141 1088.28 149.624C1087.73 163.043 1091.72 176.594 1099.6 188.038C1095.81 189.924 1092 192.089 1089.74 195.373C1087.47 198.658 1087.24 203.357 1090.28 206.096C1093.95 209.381 1100.11 208.438 1105.04 206.951C1123.14 201.501 1139.63 191.868 1152.45 179.245C1161.88 169.951 1169.66 157.534 1166.35 145.368Z" fill="#434343"/>
<path d="M1078.4 127.383C1078.17 126.97 1077.87 126.705 1077.51 126.528C1076.07 125.497 1073.64 125.777 1072.78 127.412V127.427C1072.6 127.692 1072.48 128.001 1072.46 128.34C1072.38 129.946 1074.2 131.006 1075.84 130.726C1077.41 130.461 1079.25 128.885 1078.4 127.383Z" fill="#FEFEF8"/>
<path d="M1112.25 120.534C1111.61 119.974 1110.7 119.886 1109.77 120.033C1109.61 120.003 1109.41 120.003 1109.19 120.077C1108.68 120.224 1108.13 120.445 1107.67 120.725C1107.59 120.769 1107.5 120.814 1107.42 120.843C1107.24 120.946 1107.11 121.064 1107.02 121.196C1106.53 121.683 1106.26 122.286 1106.45 123.082C1106.89 124.864 1109.21 124.687 1110.65 124.083C1112.05 123.494 1113.74 121.83 1112.25 120.534ZM1108.98 122.419C1109.24 122.301 1109.51 122.198 1109.79 122.139C1109.75 122.169 1109.72 122.183 1109.7 122.183C1109.49 122.301 1109.24 122.375 1108.98 122.419Z" fill="#FEFEF8"/>
<path d="M1119.4 130.565C1119.05 130.02 1118.09 129.71 1117.48 130.123C1114.07 132.332 1109.67 132.524 1105.7 131.566C1102.03 130.668 1098.75 128.886 1095.61 127C1096.3 126.337 1096.83 125.571 1097.23 124.673C1097.59 123.863 1096.68 123.141 1095.87 123.082C1093.06 122.92 1090.2 124.01 1088.45 125.984C1087.68 126.838 1088.15 128.046 1089.44 128.12C1089.85 128.134 1090.28 128.164 1090.7 128.179C1088.71 133.29 1084.21 137.605 1078.5 139.579C1077.79 139.829 1077.31 140.419 1077.53 141.126C1077.71 141.729 1078.55 142.245 1079.26 141.995C1085.95 139.682 1091.26 134.748 1093.47 128.709C1097.18 130.962 1101.07 133.142 1105.47 134.1C1109.97 135.087 1115.06 134.777 1118.92 132.288C1119.5 131.89 1119.81 131.198 1119.4 130.565Z" fill="#FEFEF8"/>
<path fill-rule="evenodd" clip-rule="evenodd" d="M0 342.124V117.303C107.667 128.686 235.73 88.8447 349.563 83.153C463.397 77.4613 590.562 97.6523 706.241 117.303C854.224 142.441 959.995 153.825 1045.37 147.184C1158.39 138.394 1252.17 125.84 1309.08 97.3822L1366 68.9238V342.124H1309.08C1252.17 342.124 1138.33 342.124 1024.5 342.124C910.667 342.124 796.833 342.124 683 342.124C569.167 342.124 455.333 342.124 341.5 342.124C227.667 342.124 113.833 342.124 56.9167 342.124H0Z" fill="#FBCF78"/>
<path d="M1149.82 88.3344V70.9536C1087.8 50.5855 1098.21 13.3796 1140.82 4.68919C1183.43 -4.00123 1263.76 -1.78427 1259.28 41.8515C1256.63 67.7055 1199.84 77.743 1172.07 73.6694L1149.82 88.3344Z" fill="white" stroke="#C8C8C8" stroke-width="0.948611"/>
<path d="M1148.35 32.5614L1147.24 30.7742C1147.02 30.4251 1146.66 30.2506 1146.16 30.2506C1145.39 30.2506 1144.71 30.0798 1144.14 29.7383C1143.56 29.3968 1143.11 28.9187 1142.79 28.304C1142.47 27.6817 1142.31 26.9532 1142.31 26.1184C1142.31 25.276 1142.47 24.5475 1142.79 23.9328C1143.11 23.3181 1143.56 22.8438 1144.14 22.5099C1144.71 22.1684 1145.39 21.9976 1146.17 21.9976C1146.95 21.9976 1147.63 22.1684 1148.21 22.5099C1148.79 22.8438 1149.24 23.3181 1149.55 23.9328C1149.87 24.5475 1150.03 25.2722 1150.03 26.107C1150.03 27.0177 1149.84 27.7993 1149.46 28.452C1149.09 29.1046 1148.57 29.5827 1147.91 29.8863C1148.24 29.9925 1148.52 30.2468 1148.76 30.649L1149.59 31.9694L1148.35 32.5614ZM1146.17 28.9984C1146.91 28.9984 1147.48 28.7442 1147.89 28.2357C1148.3 27.7272 1148.51 27.0215 1148.51 26.1184C1148.51 25.2077 1148.3 24.502 1147.89 24.0011C1147.49 23.5002 1146.92 23.2498 1146.17 23.2498C1145.44 23.2498 1144.86 23.5002 1144.45 24.0011C1144.04 24.502 1143.84 25.2077 1143.84 26.1184C1143.84 27.0215 1144.04 27.7272 1144.45 28.2357C1144.86 28.7442 1145.44 28.9984 1146.17 28.9984ZM1154.96 30.2506C1153.86 30.2506 1153.02 29.966 1152.44 29.3968C1151.86 28.82 1151.57 27.9701 1151.57 26.8469V22.1115H1153.03V26.8356C1153.03 27.5565 1153.19 28.0991 1153.52 28.4634C1153.85 28.82 1154.33 28.9984 1154.96 28.9984C1156.25 28.9984 1156.89 28.2774 1156.89 26.8356V22.1115H1158.33V26.8469C1158.33 27.9701 1158.05 28.82 1157.48 29.3968C1156.91 29.966 1156.07 30.2506 1154.96 30.2506ZM1160.15 30.1367V22.1115H1165.48V23.2726H1161.55V25.4809H1165.23V26.642H1161.55V28.9756H1165.48V30.1367H1160.15ZM1167.05 30.1367V22.1115H1170.53C1171.41 22.1115 1172.09 22.324 1172.57 22.7489C1173.05 23.1663 1173.29 23.7545 1173.29 24.5134C1173.29 25.1129 1173.13 25.6099 1172.82 26.0046C1172.51 26.3916 1172.06 26.6534 1171.48 26.79C1171.87 26.9114 1172.19 27.2036 1172.44 27.6665L1173.78 30.1367H1172.17L1170.79 27.5755C1170.65 27.325 1170.49 27.1543 1170.3 27.0632C1170.11 26.9722 1169.88 26.9266 1169.59 26.9266H1168.51V30.1367H1167.05ZM1168.51 25.8452H1170.28C1171.35 25.8452 1171.88 25.4126 1171.88 24.5475C1171.88 23.69 1171.35 23.2612 1170.28 23.2612H1168.51V25.8452ZM1180.92 30.2506C1180.29 30.2506 1179.7 30.1709 1179.16 30.0115C1178.63 29.8445 1178.17 29.6207 1177.8 29.3399L1178.24 28.1902C1178.61 28.4558 1179.02 28.6607 1179.46 28.8049C1179.91 28.9491 1180.39 29.0212 1180.92 29.0212C1181.52 29.0212 1181.95 28.9225 1182.23 28.7252C1182.5 28.5203 1182.64 28.2585 1182.64 27.9397C1182.64 27.6741 1182.54 27.4654 1182.34 27.3137C1182.15 27.1619 1181.82 27.0367 1181.35 26.938L1180.1 26.6762C1178.67 26.3726 1177.96 25.6403 1177.96 24.4792C1177.96 23.9783 1178.09 23.542 1178.36 23.1701C1178.62 22.7983 1178.99 22.5099 1179.46 22.305C1179.93 22.1001 1180.47 21.9976 1181.09 21.9976C1181.63 21.9976 1182.15 22.0811 1182.62 22.2481C1183.1 22.4074 1183.5 22.6351 1183.82 22.9311L1183.38 24.0239C1182.75 23.4926 1181.98 23.227 1181.08 23.227C1180.55 23.227 1180.14 23.3371 1179.85 23.5572C1179.55 23.7772 1179.4 24.0656 1179.4 24.4223C1179.4 24.6955 1179.49 24.9156 1179.68 25.0825C1179.86 25.2419 1180.17 25.3671 1180.61 25.4582L1181.85 25.72C1182.6 25.8794 1183.16 26.1298 1183.52 26.4713C1183.9 26.8128 1184.08 27.2681 1184.08 27.8373C1184.08 28.3154 1183.95 28.7366 1183.69 29.1008C1183.44 29.4651 1183.07 29.7497 1182.59 29.9546C1182.12 30.1519 1181.56 30.2506 1180.92 30.2506ZM1188.78 30.2506C1187.68 30.2506 1186.84 29.966 1186.25 29.3968C1185.68 28.82 1185.39 27.9701 1185.39 26.8469V22.1115H1186.85V26.8356C1186.85 27.5565 1187.01 28.0991 1187.34 28.4634C1187.67 28.82 1188.15 28.9984 1188.78 28.9984C1190.06 28.9984 1190.71 28.2774 1190.71 26.8356V22.1115H1192.15V26.8469C1192.15 27.9701 1191.87 28.82 1191.3 29.3968C1190.73 29.966 1189.89 30.2506 1188.78 30.2506ZM1193.96 30.1367V22.1115H1197.47C1198.31 22.1115 1198.97 22.2974 1199.43 22.6693C1199.89 23.0335 1200.12 23.542 1200.12 24.1946C1200.12 24.6272 1200.01 24.999 1199.79 25.3102C1199.57 25.6213 1199.27 25.849 1198.88 25.9932C1199.34 26.1222 1199.69 26.3499 1199.94 26.6762C1200.2 26.9949 1200.33 27.4009 1200.33 27.8942C1200.33 28.6076 1200.08 29.1615 1199.6 29.5562C1199.12 29.9432 1198.45 30.1367 1197.6 30.1367H1193.96ZM1195.36 25.5151H1197.22C1198.21 25.5151 1198.71 25.1318 1198.71 24.3654C1198.71 23.5989 1198.21 23.2157 1197.22 23.2157H1195.36V25.5151ZM1195.36 29.0325H1197.41C1198.41 29.0325 1198.92 28.6303 1198.92 27.8259C1198.92 27.0215 1198.41 26.6193 1197.41 26.6193H1195.36V29.0325ZM1201.91 30.1367V22.1115H1203.37V30.1367H1201.91ZM1205.23 30.1367V22.1115H1208.71C1209.59 22.1115 1210.27 22.324 1210.75 22.7489C1211.23 23.1663 1211.47 23.7545 1211.47 24.5134C1211.47 25.1129 1211.31 25.6099 1211 26.0046C1210.69 26.3916 1210.24 26.6534 1209.66 26.79C1210.05 26.9114 1210.36 27.2036 1210.61 27.6665L1211.96 30.1367H1210.35L1208.96 27.5755C1208.83 27.325 1208.66 27.1543 1208.47 27.0632C1208.29 26.9722 1208.06 26.9266 1207.77 26.9266H1206.69V30.1367H1205.23ZM1206.69 25.8452H1208.46C1209.53 25.8452 1210.06 25.4126 1210.06 24.5475C1210.06 23.69 1209.53 23.2612 1208.46 23.2612H1206.69V25.8452ZM1214.35 27.7576V27.3023C1214.35 26.9456 1214.42 26.6155 1214.55 26.3119C1214.68 26.0084 1214.91 25.6782 1215.23 25.3216C1215.47 25.056 1215.64 24.8283 1215.73 24.6386C1215.83 24.4488 1215.88 24.2477 1215.88 24.0353C1215.88 23.7848 1215.79 23.5875 1215.61 23.4433C1215.42 23.2991 1215.17 23.227 1214.83 23.227C1214.09 23.227 1213.4 23.5002 1212.77 24.0466L1212.29 22.9538C1212.61 22.6655 1213.01 22.434 1213.48 22.2595C1213.96 22.0849 1214.44 21.9976 1214.92 21.9976C1215.4 21.9976 1215.82 22.0773 1216.18 22.2367C1216.54 22.3961 1216.82 22.6161 1217.02 22.8969C1217.22 23.1777 1217.33 23.5078 1217.33 23.8873C1217.33 24.2364 1217.25 24.5627 1217.09 24.8662C1216.93 25.1698 1216.66 25.4999 1216.27 25.8566C1215.91 26.1829 1215.66 26.4675 1215.53 26.7103C1215.39 26.9532 1215.3 27.196 1215.27 27.4389L1215.22 27.7576H1214.35ZM1213.99 30.1367V28.5544H1215.58V30.1367H1213.99ZM1138.44 46.2506C1137.61 46.2506 1136.89 46.0836 1136.29 45.7497C1135.7 45.4082 1135.24 44.9301 1134.92 44.3154C1134.6 43.6931 1134.45 42.9608 1134.45 42.1184C1134.45 41.276 1134.6 40.5475 1134.92 39.9328C1135.24 39.3181 1135.7 38.8438 1136.29 38.5099C1136.89 38.1684 1137.61 37.9976 1138.44 37.9976C1138.98 37.9976 1139.49 38.0811 1139.97 38.2481C1140.45 38.415 1140.85 38.6541 1141.16 38.9652L1140.68 40.1263C1140.34 39.8379 1139.99 39.6292 1139.64 39.5002C1139.28 39.3636 1138.9 39.2953 1138.49 39.2953C1137.67 39.2953 1137.06 39.542 1136.63 40.0353C1136.21 40.5209 1135.99 41.2153 1135.99 42.1184C1135.99 43.0215 1136.21 43.7197 1136.63 44.2129C1137.06 44.7062 1137.67 44.9529 1138.49 44.9529C1138.9 44.9529 1139.28 44.8883 1139.64 44.7593C1139.99 44.6227 1140.34 44.4102 1140.68 44.1219L1141.16 45.283C1140.85 45.5865 1140.45 45.8256 1139.97 46.0001C1139.49 46.1671 1138.98 46.2506 1138.44 46.2506ZM1142.55 46.1367V38.1115H1144V44.8959H1147.85V46.1367H1142.55ZM1149.05 46.1367V38.1115H1150.51V46.1367H1149.05ZM1158.14 48.5614L1157.04 46.7742C1156.81 46.4251 1156.45 46.2506 1155.95 46.2506C1155.18 46.2506 1154.5 46.0798 1153.93 45.7383C1153.35 45.3968 1152.9 44.9187 1152.58 44.304C1152.27 43.6817 1152.11 42.9532 1152.11 42.1184C1152.11 41.276 1152.27 40.5475 1152.58 39.9328C1152.9 39.3181 1153.35 38.8438 1153.93 38.5099C1154.5 38.1684 1155.18 37.9976 1155.97 37.9976C1156.75 37.9976 1157.43 38.1684 1158 38.5099C1158.58 38.8438 1159.03 39.3181 1159.35 39.9328C1159.66 40.5475 1159.82 41.2722 1159.82 42.107C1159.82 43.0177 1159.63 43.7993 1159.25 44.452C1158.88 45.1046 1158.37 45.5827 1157.71 45.8863C1158.03 45.9925 1158.31 46.2468 1158.55 46.649L1159.38 47.9694L1158.14 48.5614ZM1155.97 44.9984C1156.7 44.9984 1157.27 44.7442 1157.68 44.2357C1158.09 43.7272 1158.3 43.0215 1158.3 42.1184C1158.3 41.2077 1158.09 40.502 1157.68 40.0011C1157.28 39.5002 1156.71 39.2498 1155.97 39.2498C1155.23 39.2498 1154.66 39.5002 1154.25 40.0011C1153.84 40.502 1153.63 41.2077 1153.63 42.1184C1153.63 43.0215 1153.84 43.7272 1154.25 44.2357C1154.66 44.7442 1155.23 44.9984 1155.97 44.9984ZM1164.75 46.2506C1163.65 46.2506 1162.81 45.966 1162.23 45.3968C1161.65 44.82 1161.36 43.9701 1161.36 42.8469V38.1115H1162.82V42.8356C1162.82 43.5565 1162.98 44.0991 1163.31 44.4634C1163.64 44.82 1164.12 44.9984 1164.75 44.9984C1166.04 44.9984 1166.68 44.2774 1166.68 42.8356V38.1115H1168.12V42.8469C1168.12 43.9701 1167.84 44.82 1167.27 45.3968C1166.7 45.966 1165.86 46.2506 1164.75 46.2506ZM1169.94 46.1367V38.1115H1175.28V39.2726H1171.34V41.4809H1175.03V42.642H1171.34V44.9756H1175.28V46.1367H1169.94ZM1180.03 46.1367V38.1115H1185.36V39.2726H1181.43V41.4809H1185.11V42.642H1181.43V44.9756H1185.36V46.1367H1180.03ZM1186.95 46.1367V38.1115H1188.17L1191.02 43.3592L1193.85 38.1115H1195.05V46.1367H1193.73V40.7296L1191.43 44.9187H1190.57L1188.27 40.7524V46.1367H1186.95ZM1200.13 46.1367V38.1115H1201.35L1204.2 43.3592L1207.03 38.1115H1208.23V46.1367H1206.91V40.7296L1204.61 44.9187H1203.75L1201.45 40.7524V46.1367H1200.13ZM1210.11 46.1367V38.1115H1211.56V46.1367H1210.11ZM1213.44 46.1367V38.1115H1214.66L1217.51 43.3592L1220.34 38.1115H1221.54V46.1367H1220.22V40.7296L1217.92 44.9187H1217.06L1214.76 40.7524V46.1367H1213.44ZM1223.85 47.6507L1223.27 47.1954C1223.46 47.0056 1223.6 46.8235 1223.69 46.649C1223.79 46.482 1223.86 46.3113 1223.9 46.1367H1223.16V44.5544H1224.75V45.6017C1224.75 45.9887 1224.68 46.3416 1224.55 46.6604C1224.42 46.9867 1224.18 47.3168 1223.85 47.6507ZM1163.91 62.1367V54.1115H1165.12L1167.97 59.3592L1170.8 54.1115H1172V62.1367H1170.68V56.7296L1168.38 60.9187H1167.53L1165.23 56.7524V62.1367H1163.91ZM1173.88 62.1367V54.1115H1175.34V62.1367H1173.88ZM1176.33 62.1367L1179.96 54.1115H1181.16L1184.79 62.1367H1183.31L1182.51 60.2812H1178.6L1177.81 62.1367H1176.33ZM1180.54 55.6938L1179.1 59.1201H1182.01L1180.56 55.6938H1180.54ZM1189.06 62.2506C1187.96 62.2506 1187.12 61.966 1186.53 61.3968C1185.96 60.82 1185.67 59.9701 1185.67 58.8469V54.1115H1187.12V58.8356C1187.12 59.5565 1187.29 60.0991 1187.61 60.4634C1187.95 60.82 1188.43 60.9984 1189.06 60.9984C1190.34 60.9984 1190.98 60.2774 1190.98 58.8356V54.1115H1192.43V58.8469C1192.43 59.9701 1192.14 60.82 1191.57 61.3968C1191.01 61.966 1190.17 62.2506 1189.06 62.2506ZM1194.34 59.7576L1193.9 54.1115H1195.65L1195.21 59.7576H1194.34ZM1193.98 62.1367V60.5544H1195.57V62.1367H1193.98Z" fill="#434343"/>
</svg>
