<svg width="47" height="47" viewBox="0 0 47 47" fill="none" xmlns="http://www.w3.org/2000/svg">
<ellipse cx="22.5" cy="25" rx="16.5" ry="15" fill="white"/>
<path fill-rule="evenodd" clip-rule="evenodd" d="M23.5 0C10.5216 0 0 10.5216 0 23.5C0 36.4784 10.5216 47 23.5 47C36.4784 47 47 36.4784 47 23.5C47 10.5216 36.4784 0 23.5 0ZM25.6364 32.0455C25.6364 32.6121 25.4113 33.1554 25.0106 33.5561C24.61 33.9567 24.0666 34.1818 23.5 34.1818C22.9334 34.1818 22.39 33.9567 21.9894 33.5561C21.5887 33.1554 21.3636 32.6121 21.3636 32.0455V25.6364H14.9545C14.3879 25.6364 13.8446 25.4113 13.4439 25.0106C13.0433 24.61 12.8182 24.0666 12.8182 23.5C12.8182 22.9334 13.0433 22.39 13.4439 21.9894C13.8446 21.5887 14.3879 21.3636 14.9545 21.3636H21.3636V14.9545C21.3636 14.3879 21.5887 13.8446 21.9894 13.4439C22.39 13.0433 22.9334 12.8182 23.5 12.8182C24.0666 12.8182 24.61 13.0433 25.0106 13.4439C25.4113 13.8446 25.6364 14.3879 25.6364 14.9545V21.3636H32.0455C32.6121 21.3636 33.1554 21.5887 33.5561 21.9894C33.9567 22.39 34.1818 22.9334 34.1818 23.5C34.1818 24.0666 33.9567 24.61 33.5561 25.0106C33.1554 25.4113 32.6121 25.6364 32.0455 25.6364H25.6364V32.0455Z" fill="#8F7FAC"/>
</svg>
