<svg width="212" height="57" viewBox="0 0 212 57" fill="none" xmlns="http://www.w3.org/2000/svg">
<path d="M73.6827 10.6236C73.3777 10.4883 71.2682 10.8339 69.991 12.6053C68.4531 14.7384 63.875 20.6566 65.5007 22.4748C66.596 23.6999 72.071 23.8385 75.6549 23.2674C75.5981 24.6671 75.2699 25.5472 75.1129 25.8123L78.2988 22.5194C78.5889 22.3559 78.7718 22.1761 78.8188 21.9818C79.2388 20.2457 81.0397 16.4936 73.6827 10.6236Z" fill="#A6744A"/>
<path d="M78.8188 21.9818C79.2388 20.2457 81.0397 16.4936 73.6827 10.6236C73.3777 10.4883 71.2682 10.8339 69.991 12.6053C68.4531 14.7384 63.875 20.6566 65.5007 22.4748C66.596 23.6999 72.071 23.8385 75.6549 23.2674M78.8188 21.9818L75.1129 25.8123C75.2699 25.5472 75.5981 24.6671 75.6549 23.2674M78.8188 21.9818C78.6818 22.5481 77.39 22.9909 75.6549 23.2674" stroke="#5F2E30" stroke-width="0.955999"/>
<path d="M5.41361 26.585C3.46312 24.9873 2.28528 23.6732 1.67537 22.587C1.03665 21.4494 1.0283 20.5779 1.38491 19.8851C1.74793 19.1798 2.50601 18.6243 3.47744 18.1658C4.36096 17.7489 5.40082 17.4213 6.43351 17.1337C5.73798 18.8469 4.74631 22.657 5.41361 26.585Z" fill="#A88183" stroke="#A88183" stroke-width="0.296613"/>
<path d="M17.4319 42.9451L17.7794 42.7735L17.4061 42.6693L17.372 42.6598C16.4446 42.4009 15.2591 42.0699 14.1384 41.6674C13.0137 41.2635 11.9719 40.7936 11.3222 40.2631C10.6581 39.7209 9.87194 38.5927 9.13435 37.2523C8.39973 35.9174 7.72382 34.3916 7.27504 33.0722C2.54003 19.1517 9.7408 10.5749 13.9065 8.03203C16.5971 6.41423 21.127 4.74291 25.9609 4.98894C30.7738 5.2339 35.8953 7.37909 39.817 13.393C38.1531 24.097 44.0591 32.8745 47.2492 35.9571C51.1736 44.4342 59.057 45.0743 62.5521 44.3261C62.6884 44.3617 62.7676 44.4289 62.8158 44.5088C62.8705 44.5994 62.8947 44.7224 62.8895 44.8709C62.8793 45.1641 62.7567 45.5031 62.6403 45.7323C60.1659 48.7709 55.8816 51.1569 51.5092 52.9049C47.1506 54.6474 42.7267 55.7474 39.9752 56.2283C34.4145 55.0321 24.9611 51.7517 17.4649 46.0976C17.1061 45.724 16.688 45.1234 16.5671 44.5232C16.5069 44.2242 16.5218 43.9328 16.6462 43.6688C16.7702 43.4056 17.0107 43.1532 17.4319 42.9451Z" fill="#F6BB62" stroke="#EAEAEA" stroke-width="0.296613"/>
<path d="M18.2258 37.2108C17.9411 38.9191 16.6209 38.7496 15.2627 38.4407C15.6501 39.8006 18.0368 39.773 18.4374 38.4407C20.6242 38.6077 23.4227 38.8586 23.5171 35.981C22.4342 36.5832 21.9824 38.0289 20.5256 38.1152C19.8832 38.1533 18.9918 37.6886 18.9901 37.0011C18.9888 36.4672 19.2593 35.9183 19.284 35.3661C18.7746 35.3677 18.1045 35.2849 17.6584 35.5768C16.7411 36.1765 17.5077 36.9997 18.2258 37.2108Z" fill="#5F2E30"/>
<path d="M5.63212 26.9528C-2.93976 20.0862 2.17373 18.139 6.69037 16.9092" stroke="#5F2E30" stroke-width="0.955999"/>
<path d="M23.8098 19.2674C20.9525 15.1338 17.1427 6.86663 31.1117 10.3512" stroke="#5F2E30" stroke-width="0.955999"/>
<path d="M24.1276 12.4007L30.0538 15.3728C30.5829 15.6803 30.7066 15.9877 30.5829 16.2305C29.819 17.73 23.2693 19.7969 23.4205 13.3231C23.428 13.002 23.3868 12.2982 24.1276 12.4007Z" fill="#FFCCCC" stroke="#5F2E30" stroke-width="0.955999"/>
<path d="M26.0929 29.0543C25.2042 32.3266 21.0083 31.704 20.9052 31.6809C20.8708 31.6733 20.3926 31.6493 20.6196 31.5119C20.7466 31.4351 21.1035 31.3046 21.5398 31.2969C23.9638 31.334 25.3669 29.5581 25.8641 28.6876C25.9113 28.628 26.0263 28.5135 26.1088 28.5319C26.2119 28.555 26.1258 28.9565 26.0929 29.0543Z" fill="#5F2E30" stroke="#5F2E30" stroke-width="0.296613"/>
<path d="M12.5087 34.3164C10.1154 36.7814 7.42787 34.6054 7.34861 34.5375L7.40237 34.1832C9.51434 35.3359 11.6224 34.4236 12.4883 33.8883C12.5591 33.8578 12.7167 33.8103 12.7801 33.8647C12.8593 33.9326 12.5858 34.2456 12.5087 34.3164Z" fill="#5F2E30" stroke="#5F2E30" stroke-width="0.296613"/>
<path d="M42.3478 28.8548L42.3447 28.8451L42.3403 28.836C41.8339 27.7875 40.9496 25.4743 40.2662 22.7987C39.5823 20.1212 39.1042 17.0987 39.3973 14.6254C39.6863 12.1863 41.4884 10.1262 43.6606 8.53484C45.8276 6.94735 48.3348 5.84735 49.9808 5.32133C53.2716 4.40689 61.3206 3.94422 67.1928 9.38741C70.8799 12.8051 72.8728 16.1632 73.7375 19.5765C74.6027 22.9914 74.3423 26.4759 73.4986 30.1526C72.656 33.8247 71.2859 36.7404 69.8404 38.883C68.3928 41.0288 66.8756 42.3908 65.7448 42.9669C64.6075 43.5463 62.4339 44.132 60.0156 44.2142C57.598 44.2964 54.9597 43.8745 52.8788 42.4638C49.4515 40.1404 47.5979 37.9118 47.2937 35.9493L47.285 35.8931L47.2409 35.8571C46.6279 35.3567 45.5942 34.1953 44.6146 32.856C43.6349 31.5165 42.7253 30.0204 42.3478 28.8548Z" fill="#D79863" stroke="#D79863" stroke-width="0.296613"/>
<path d="M44.3566 54.8029C46.302 54.8607 47.8087 54.4407 46.1106 53.2145C39.1358 45.9009 44.3853 54.5144 44.3566 54.8029Z" fill="#7B7B7B" fill-opacity="0.29"/>
<path d="M49.0119 53.3674C50.9573 53.4252 52.464 53.0052 50.7659 51.7789C43.7911 44.4654 49.0405 53.0788 49.0119 53.3674Z" fill="#7B7B7B" fill-opacity="0.29"/>
<path d="M53.2453 51.7287C55.1907 51.7865 56.6974 51.3665 54.9993 50.1403C48.0245 42.8267 53.2739 51.4402 53.2453 51.7287Z" fill="#7B7B7B" fill-opacity="0.29"/>
<path d="M56.4201 49.6789C58.3655 49.7367 59.8722 49.3167 58.1741 48.0905C51.1993 40.7769 56.4487 49.3904 56.4201 49.6789Z" fill="#7B7B7B" fill-opacity="0.29"/>
<path d="M33.7655 48.9317C34.7969 51.5862 29.9099 49.3191 28.0619 48.0894C27.8152 47.9252 19.9236 42.765 29.91 40.4029C31.8407 39.559 34.3485 41.6527 33.3531 43.2725C32.3577 44.8923 33.2022 47.1256 33.7655 48.9317Z" fill="#A88183"/>
<path d="M58.4815 36.0974C57.127 39.1309 59.0459 40.9825 60.1747 41.5291C60.6686 41.8366 62.3124 42.1235 64.9368 40.8117C67.5613 39.4999 66.0304 38.2154 64.9368 37.7372C64.9368 37.7372 64.313 37.2707 63.0766 37.9726C63.0766 36.6513 61.9737 36.0974 61.9737 36.0974C59.9205 34.5104 58.8343 35.2092 58.4815 36.0974Z" fill="#5F2E30" stroke="#5F2E30" stroke-width="0.296613"/>
<path d="M60.9186 30.0909C57.4491 30.4894 56.5094 26.4804 56.4938 26.3791C56.4886 26.3453 56.3364 25.9056 56.5515 26.0599C56.6719 26.1461 56.9281 26.4199 57.0953 26.8102C57.9481 29.0079 60.1685 29.6214 61.1871 29.7503C61.2616 29.771 61.4138 29.8327 61.4263 29.9138C61.4419 30.0151 61.0247 30.0847 60.9186 30.0909Z" fill="#5F2E30" stroke="#5F2E30" stroke-width="0.296613"/>
<path d="M68.9392 33.7511C69.0595 33.8373 69.3157 34.1111 69.4829 34.5014C69.8107 35.3461 70.5521 36.1478 71.138 36.5869L70.8205 37.2018C69.5221 36.1235 68.8918 34.1377 68.8814 34.0703C68.8762 34.0366 68.724 33.5969 68.9392 33.7511Z" fill="#5F2E30" stroke="#5F2E30" stroke-width="0.296613"/>
<path d="M43.4128 31.3604C43.1306 32.1119 42.0582 33.861 40.0264 34.8449" stroke="#5F2E30" stroke-width="0.955999"/>
<path d="M11.3711 40.5842C17.0857 44.2737 25.7633 43.6588 32.5361 39.0469" stroke="#5F2E30" stroke-width="0.955999"/>
<path d="M15.7388 37.8174C12.1831 38.5553 11.6469 39.1497 11.8233 39.3547" stroke="#5F2E30" stroke-width="0.296613"/>
<path d="M16.2391 44.4624C16.5919 44.155 17.509 43.663 18.3556 44.155" stroke="#5F2E30" stroke-width="0.296613"/>
<path d="M16.6623 43.4106C17.0925 43.2164 18.1181 43.0057 18.7792 43.7158" stroke="#5F2E30" stroke-width="0.296613"/>
<path d="M15.1846 36.8836C11.5615 36.5824 10.8693 36.9991 10.976 37.245" stroke="#5F2E30" stroke-width="0.296613"/>
<path d="M24.5529 35.6288C28.159 35.1749 28.8693 35.5619 28.7737 35.8121" stroke="#5F2E30" stroke-width="0.296613"/>
<path d="M24.2811 34.7865C27.5794 33.3034 28.377 33.4656 28.3635 33.7321" stroke="#5F2E30" stroke-width="0.296613"/>
<path d="M37.6155 46.0156C38.5679 50.2859 40.5786 56.3872 35.499 55.2394" stroke="#5F2E30" stroke-width="0.955999"/>
<path d="M29.3615 45.8104C28.6913 43.8974 28.4726 41.3626 31.2664 39.9688" stroke="#5F2E30" stroke-width="0.955999"/>
<path d="M41.831 27.2137C40.8081 25.0956 38.9103 19.6092 39.5029 14.6079C40.0955 9.6066 46.8753 6.23822 50.1912 5.1792C53.507 4.25683 61.6203 3.78539 67.5465 9.27864C74.9543 16.1452 75.5892 22.8068 73.896 30.1858C72.2028 37.5648 68.3867 41.9162 66.065 43.099C63.7432 44.2818 57.2815 45.4562 53.0485 42.5866C49.6161 40.2597 47.7144 38.0002 47.4 35.972M51.5669 30.4932C49.3446 29.9808 47.9689 32.2355 47.4397 34.5927C47.3397 35.0385 47.3267 35.499 47.4 35.972M47.4 35.972C46.1446 34.9472 43.4412 32.303 42.6712 29.9254" stroke="#5F2E30" stroke-width="0.955999"/>
<ellipse cx="51.4545" cy="33.7176" rx="0.423298" ry="0.409943" fill="#5F2E30"/>
<ellipse cx="51.4545" cy="36.5867" rx="0.423298" ry="0.409943" fill="#5F2E30"/>
<ellipse cx="53.5708" cy="35.3572" rx="0.423302" ry="0.409939" fill="#5F2E30"/>
<path d="M39.8824 13.3569C31.9759 1.17146 19.1596 4.64321 13.7398 7.90227C9.52443 10.4752 2.28386 19.1203 7.04478 33.1171C7.94827 35.7733 9.76281 39.2518 11.1385 40.375C12.4883 41.4771 15.4248 42.2923 17.2764 42.8092M17.3822 42.8388C17.3474 42.829 17.3121 42.8192 17.2764 42.8092M17.2764 42.8092C15.4985 43.6875 16.5356 45.4397 17.2764 46.206C24.8087 51.8905 34.3089 55.1817 39.8824 56.3764C45.3988 55.4167 57.6804 51.96 62.6754 45.8109C62.9223 45.3326 63.2256 44.3351 62.4637 44.1711" stroke="#5F2E30" stroke-width="0.955999"/>
<path d="M57.7905 2.36923C58.0605 2.56191 58.7711 4.51629 57.7905 6.45691C56.6097 8.79368 53.4843 15.5406 51.0542 15.0452C49.4167 14.7113 46.6373 10.141 45.4155 6.82852C44.1789 7.55522 43.5432 8.25989 43.3799 8.5214L44.8093 4.22645C44.8163 3.90145 44.89 3.65935 45.0426 3.52535C46.407 2.32794 48.9224 -1.01653 57.7905 2.36923Z" fill="#A6744A"/>
<path d="M45.0426 3.52535C46.407 2.32794 48.9224 -1.01653 57.7905 2.36923C58.0605 2.56191 58.7711 4.51629 57.7905 6.45691C56.6097 8.79369 53.4843 15.5406 51.0542 15.0452C49.4167 14.7113 46.6373 10.141 45.4155 6.82852M45.0426 3.52535L43.3799 8.5214C43.5432 8.25989 44.1789 7.55522 45.4155 6.82852M45.0426 3.52535C44.5976 3.91595 44.824 5.22483 45.4155 6.82852" stroke="#5F2E30" stroke-width="0.955999"/>
<path d="M174.897 31.0238C174.897 29.6391 173.785 28.5163 172.413 28.5163C171.041 28.5163 169.929 29.6391 169.929 31.0238C169.929 32.4094 171.041 33.5317 172.413 33.5317C173.785 33.5317 174.897 32.4094 174.897 31.0238Z" fill="#434343"/>
<path d="M184.803 29.0061C183.431 29.0061 182.319 30.1289 182.319 31.5136C182.319 32.8992 183.431 34.021 184.803 34.021C186.175 34.021 187.287 32.8992 187.287 31.5136C187.287 30.1289 186.175 29.0061 184.803 29.0061Z" fill="#434343"/>
<path d="M182.547 34.3049C182.374 34.09 182.13 33.8413 181.849 33.5804C181.1 32.6005 179.929 31.9666 178.608 31.9666C177.433 31.9666 176.376 32.469 175.629 33.2696C175.205 33.6422 174.828 34.006 174.588 34.3051L174.427 34.5032C173.678 35.4257 172.745 36.5735 172.752 38.5212C172.758 40.3299 174.217 41.8023 176.004 41.8023C176.5 41.8034 176.989 41.6888 177.434 41.4675C177.878 41.2463 178.266 40.9243 178.567 40.5267C178.869 40.9244 179.257 41.2465 179.702 41.4678C180.146 41.6891 180.636 41.8035 181.132 41.8023C182.917 41.8023 184.376 40.3301 184.383 38.5212C184.39 36.5735 183.457 35.4257 182.708 34.5032L182.547 34.3049Z" fill="#434343"/>
<path d="M178.78 30.3671C180.292 30.3671 181.517 29.13 181.517 27.6039C181.517 26.0779 180.292 24.8408 178.78 24.8408C177.269 24.8408 176.043 26.0779 176.043 27.6039C176.043 29.13 177.269 30.3671 178.78 30.3671Z" fill="#434343"/>
<path d="M110.854 25.6923C111.134 25.6923 111.348 25.7816 111.496 25.9604C111.658 26.1242 111.739 26.3477 111.739 26.6307V40.7734C111.739 41.0415 111.665 41.2575 111.518 41.4213C111.37 41.5852 111.164 41.6671 110.898 41.6671C110.633 41.6671 110.433 41.5852 110.301 41.4213C110.168 41.2575 110.102 41.0415 110.102 40.7734V29.3564L105.299 38.6509C105.093 39.0828 104.79 39.2988 104.392 39.2988C104.008 39.2988 103.706 39.0828 103.484 38.6509L98.6598 29.4681V40.7734C98.6598 41.0415 98.5861 41.2575 98.4385 41.4213C98.3057 41.5852 98.1065 41.6671 97.841 41.6671C97.5754 41.6671 97.3688 41.5852 97.2213 41.4213C97.0738 41.2575 97 41.0415 97 40.7734V26.6307C97 26.3477 97.0811 26.1242 97.2434 25.9604C97.4057 25.7816 97.627 25.6923 97.9074 25.6923C98.2762 25.6923 98.5713 25.9083 98.7926 26.3402L104.414 37.221L109.969 26.3402C110.087 26.1019 110.212 25.938 110.345 25.8487C110.493 25.7444 110.662 25.6923 110.854 25.6923Z" fill="#434343"/>
<path d="M116.737 41.6671C116.457 41.6671 116.235 41.5852 116.073 41.4213C115.911 41.2426 115.829 41.0117 115.829 40.7287V26.6307C115.829 26.3477 115.911 26.1242 116.073 25.9604C116.235 25.7816 116.457 25.6923 116.737 25.6923C117.017 25.6923 117.238 25.7816 117.401 25.9604C117.563 26.1242 117.644 26.3477 117.644 26.6307V40.7287C117.644 41.0117 117.563 41.2426 117.401 41.4213C117.238 41.5852 117.017 41.6671 116.737 41.6671Z" fill="#434343"/>
<path d="M135.147 40.5053C135.206 40.6245 135.235 40.7511 135.235 40.8851C135.235 41.1085 135.147 41.2947 134.97 41.4437C134.807 41.5926 134.608 41.6671 134.372 41.6671C134.003 41.6671 133.745 41.4884 133.597 41.1309L132.026 37.5114H123.683L122.089 41.1309C121.942 41.4884 121.684 41.6671 121.315 41.6671C121.079 41.6671 120.872 41.5926 120.695 41.4437C120.518 41.2798 120.43 41.0862 120.43 40.8628C120.43 40.7436 120.459 40.6245 120.518 40.5053L126.848 26.2955C126.936 26.087 127.069 25.9306 127.246 25.8263C127.423 25.7221 127.615 25.6699 127.821 25.6699C128.043 25.6699 128.242 25.7295 128.419 25.8487C128.596 25.9529 128.729 26.1019 128.817 26.2955L135.147 40.5053ZM124.347 35.9921H131.362L127.843 27.9712L124.347 35.9921Z" fill="#434343"/>
<path d="M143.992 41.7341C141.956 41.7341 140.414 41.1979 139.367 40.1255C138.319 39.053 137.795 37.4742 137.795 35.3889V26.6307C137.795 26.3477 137.876 26.1242 138.039 25.9604C138.201 25.7816 138.422 25.6923 138.703 25.6923C138.968 25.6923 139.182 25.7816 139.344 25.9604C139.507 26.1242 139.588 26.3477 139.588 26.6307V35.5453C139.588 37.0795 139.957 38.2338 140.694 39.0083C141.447 39.7829 142.546 40.1702 143.992 40.1702C145.438 40.1702 146.53 39.7829 147.267 39.0083C148.005 38.2338 148.374 37.0795 148.374 35.5453V26.6307C148.374 26.3477 148.455 26.1242 148.617 25.9604C148.794 25.7816 149.016 25.6923 149.281 25.6923C149.562 25.6923 149.783 25.7816 149.945 25.9604C150.107 26.1242 150.189 26.3477 150.189 26.6307V35.3889C150.189 37.4593 149.657 39.0381 148.595 40.1255C147.548 41.1979 146.013 41.7341 143.992 41.7341Z" fill="#434343"/>
<path d="M155.071 41.5554C154.791 41.5554 154.562 41.4735 154.385 41.3096C154.223 41.1458 154.142 40.9298 154.142 40.6617V26.6977C154.142 26.4296 154.223 26.2136 154.385 26.0498C154.562 25.8859 154.791 25.804 155.071 25.804H159.387C161.88 25.804 163.806 26.4892 165.163 27.8595C166.535 29.2149 167.221 31.1513 167.221 33.6685C167.221 36.1858 166.535 38.1296 165.163 39.4999C163.791 40.8702 161.866 41.5554 159.387 41.5554H155.071ZM159.276 39.9914C163.319 39.9914 165.34 37.8838 165.34 33.6685C165.34 29.4681 163.319 27.368 159.276 27.368H155.957V39.9914H159.276Z" fill="#434343"/>
<path d="M193.196 41.6671C192.916 41.6671 192.687 41.5852 192.51 41.4213C192.348 41.2426 192.267 41.0117 192.267 40.7287V27.368H187.509C187.243 27.368 187.037 27.3009 186.889 27.1669C186.741 27.0328 186.668 26.8392 186.668 26.586C186.668 26.3328 186.741 26.1391 186.889 26.0051C187.037 25.871 187.243 25.804 187.509 25.804H198.862C199.127 25.804 199.334 25.871 199.481 26.0051C199.629 26.1391 199.703 26.3328 199.703 26.586C199.703 26.8392 199.629 27.0328 199.481 27.1669C199.334 27.3009 199.127 27.368 198.862 27.368H194.104V40.7287C194.104 41.0117 194.023 41.2426 193.86 41.4213C193.698 41.5852 193.477 41.6671 193.196 41.6671Z" fill="#434343"/>
<path d="M202.882 41.5554C202.602 41.5554 202.373 41.4735 202.196 41.3096C202.034 41.1458 201.953 40.9298 201.953 40.6617V26.6977C201.953 26.4296 202.034 26.2136 202.196 26.0498C202.373 25.8859 202.602 25.804 202.882 25.804H211.159C211.425 25.804 211.631 25.871 211.779 26.0051C211.926 26.1391 212 26.3253 212 26.5636C212 26.8019 211.926 26.9881 211.779 27.1222C211.631 27.2562 211.425 27.3233 211.159 27.3233H203.745V32.7972H210.716C210.982 32.7972 211.189 32.8642 211.336 32.9982C211.484 33.1323 211.557 33.3185 211.557 33.5568C211.557 33.7951 211.484 33.9813 211.336 34.1154C211.189 34.2494 210.982 34.3164 210.716 34.3164H203.745V40.0361H211.159C211.425 40.0361 211.631 40.1031 211.779 40.2372C211.926 40.3563 212 40.5425 212 40.7957C212 41.0341 211.926 41.2202 211.779 41.3543C211.631 41.4884 211.425 41.5554 211.159 41.5554H202.882Z" fill="#434343"/>
</svg>
