<svg width="14" height="13" viewBox="0 0 14 13" fill="none" xmlns="http://www.w3.org/2000/svg">
<path d="M11.9947 2.37061H2.54436C2.3355 2.37061 2.13519 2.45358 1.9875 2.60127C1.83981 2.74896 1.75684 2.94927 1.75684 3.15813V9.45834C1.75684 9.66721 1.83981 9.86752 1.9875 10.0152C2.13519 10.1629 2.3355 10.2459 2.54436 10.2459H11.9947C12.2035 10.2459 12.4039 10.1629 12.5515 10.0152C12.6992 9.86752 12.7822 9.66721 12.7822 9.45834V3.15813C12.7822 2.94927 12.6992 2.74896 12.5515 2.60127C12.4039 2.45358 12.2035 2.37061 11.9947 2.37061ZM11.1284 3.15813L7.26952 5.82785L3.41064 3.15813H11.1284ZM2.54436 9.45834V3.51646L7.04507 6.63112C7.11099 6.67685 7.1893 6.70135 7.26952 6.70135C7.34974 6.70135 7.42805 6.67685 7.49396 6.63112L11.9947 3.51646V9.45834H2.54436Z" fill="white"/>
</svg>
