<svg width="66" height="60" viewBox="0 0 66 60" fill="none" xmlns="http://www.w3.org/2000/svg">
<path fill-rule="evenodd" clip-rule="evenodd" d="M32.6278 9.07227L58.7287 35.1732V53.4743C58.7287 55.2049 58.0412 56.8646 56.8175 58.0883C55.5938 59.312 53.934 59.9995 52.2034 59.9995H13.0521C11.3215 59.9995 9.66177 59.312 8.43805 58.0883C7.21433 56.8646 6.52686 55.2049 6.52686 53.4743V35.1732L32.6278 9.07227Z" fill="#434343"/>
<path fill-rule="evenodd" clip-rule="evenodd" d="M29.5533 1.27367C30.3691 0.458138 31.4754 0 32.6289 0C33.7824 0 34.8887 0.458138 35.7044 1.27367L64.6199 30.1848C65.0283 30.5932 65.2578 31.1471 65.2578 31.7247C65.2578 32.3023 65.0283 32.8563 64.6199 33.2647C64.2115 33.6731 63.6575 33.9025 63.0799 33.9025C62.5023 33.9025 61.9484 33.6731 61.54 33.2647L32.6289 4.34922L3.71778 33.2647C3.30936 33.6731 2.75542 33.9025 2.17782 33.9025C1.60023 33.9025 1.04629 33.6731 0.63787 33.2647C0.229449 32.8563 0 32.3023 0 31.7247C0 31.1471 0.229449 30.5932 0.63787 30.1848L29.5533 1.27367Z" fill="#434343"/>
<path d="M26.4161 36.8721C26.4161 34.5267 24.5319 32.6249 22.2084 32.6249C19.8849 32.6249 18.0015 34.5267 18.0015 36.8721C18.0015 39.219 19.8844 41.12 22.2084 41.12C24.5323 41.12 26.4161 39.219 26.4161 36.8721Z" fill="white"/>
<path d="M43.1943 33.4546C40.8712 33.4546 38.9874 35.3564 38.9874 37.7017C38.9874 40.0487 40.8712 41.9488 43.1943 41.9488C45.5179 41.9488 47.4017 40.0487 47.4017 37.7017C47.4017 35.3564 45.5183 33.4546 43.1943 33.4546Z" fill="white"/>
<path d="M39.3731 42.4296C39.0806 42.0657 38.6666 41.6443 38.1912 41.2025C36.9226 39.5428 34.9385 38.469 32.7016 38.469C30.7108 38.469 28.9212 39.32 27.6563 40.6761C26.9378 41.3072 26.299 41.9233 25.8924 42.43L25.6203 42.7655C24.3508 44.328 22.7707 46.2721 22.7823 49.5711C22.7935 52.6346 25.2648 55.1286 28.2906 55.1286C29.1303 55.1305 29.9591 54.9364 30.7123 54.5616C31.4655 54.1868 32.1227 53.6415 32.6328 52.968C33.1428 53.6417 33.8003 54.1872 34.5537 54.562C35.3071 54.9368 36.1362 55.1307 36.9761 55.1286C40.0008 55.1286 42.4716 52.6351 42.4832 49.5711C42.4948 46.2721 40.9142 44.328 39.6452 42.7655L39.3731 42.4296Z" fill="white"/>
<path d="M32.9934 35.7597C35.5537 35.7597 37.6292 33.6643 37.6292 31.0796C37.6292 28.4948 35.5537 26.3994 32.9934 26.3994C30.4331 26.3994 28.3575 28.4948 28.3575 31.0796C28.3575 33.6643 30.4331 35.7597 32.9934 35.7597Z" fill="white"/>
</svg>
