<svg width="27" height="23" viewBox="0 0 27 23" fill="none" xmlns="http://www.w3.org/2000/svg">
<path d="M7.6448 8.23028C7.6448 6.38714 5.93298 4.89255 3.82203 4.89255C1.71108 4.89255 0 6.38714 0 8.23028C0 10.0747 1.7107 11.5687 3.82203 11.5687C5.93336 11.5687 7.6448 10.0747 7.6448 8.23028Z" fill="#8675A5"/>
<path d="M22.888 5.54453C20.7774 5.54453 19.066 7.03912 19.066 8.88226C19.066 10.7267 20.7774 12.22 22.888 12.22C24.9989 12.22 26.7104 10.7267 26.7104 8.88226C26.7104 7.03912 24.9993 5.54453 22.888 5.54453Z" fill="#8675A5"/>
<path d="M19.4164 12.5979C19.1507 12.3119 18.7745 11.9807 18.3426 11.6335C17.1901 10.3292 15.3874 9.48526 13.3553 9.48526C11.5466 9.48526 9.92066 10.1541 8.77153 11.2198C8.11876 11.7158 7.53836 12.1999 7.16901 12.5982L6.92176 12.8618C5.76848 14.0898 4.33292 15.6177 4.34348 18.2102C4.35365 20.6178 6.59877 22.5778 9.34779 22.5778C10.1107 22.5793 10.8636 22.4268 11.5479 22.1322C12.2322 21.8377 12.8293 21.4091 13.2927 20.8798C13.7561 21.4093 14.3534 21.838 15.0379 22.1326C15.7224 22.4271 16.4756 22.5795 17.2387 22.5778C19.9866 22.5778 22.2313 20.6182 22.2419 18.2102C22.2524 15.6177 20.8165 14.0898 19.6636 12.8618L19.4164 12.5979Z" fill="#8675A5"/>
<path d="M13.6203 7.35611C15.9464 7.35611 17.832 5.70939 17.832 3.67806C17.832 1.64672 15.9464 0 13.6203 0C11.2942 0 9.40859 1.64672 9.40859 3.67806C9.40859 5.70939 11.2942 7.35611 13.6203 7.35611Z" fill="#8675A5"/>
</svg>
