<svg width="47" height="43" viewBox="0 0 47 43" fill="none" xmlns="http://www.w3.org/2000/svg">
<path d="M36.5771 38.4495C36.4743 37.8016 36.3234 37.1638 36.1672 36.5408L36.1673 36.5408L36.1657 36.5347C36.0718 36.1802 35.9789 35.8223 35.894 35.4658L35.8941 35.4657L35.8911 35.4542C35.8534 35.3117 35.821 35.1645 35.787 35.0093C35.7814 34.9841 35.7759 34.9588 35.7703 34.9332L35.7694 34.9294C35.7603 34.8899 35.7523 34.8468 35.7423 34.7923L35.74 34.7795C35.7316 34.7335 35.7218 34.6795 35.7102 34.6245L35.7066 34.6036L35.6944 34.5346C35.6898 34.5092 35.6845 34.4809 35.6796 34.4564C35.6786 34.4515 35.6775 34.4462 35.6764 34.4409C35.6749 34.4337 35.6733 34.4263 35.6717 34.4191C35.6284 34.0861 35.6009 33.7615 35.6009 33.4421C35.6009 33.2729 35.6149 33.0933 35.6307 32.8996L35.6316 32.889L35.6332 32.8756C35.6343 32.866 35.6358 32.8518 35.6372 32.8366C35.6568 32.7467 35.6765 32.6605 35.6968 32.572C35.8806 31.8915 36.2381 31.3524 36.7052 30.648C36.7366 30.6006 36.7686 30.5524 36.801 30.5034L36.8017 30.5023C37.2729 29.7853 37.7059 29.0517 38.0917 28.2879C38.0916 28.2883 38.0914 28.2886 38.0912 28.2889L36.5771 38.4495ZM36.5771 38.4495C39.1171 37.4465 41.3404 36.0242 42.9511 34.0768C44.3673 32.3629 45.2341 30.3041 45.6847 28.2083C46.1441 25.998 46.2224 23.7121 46.06 21.4406C45.9749 20.2813 45.8277 19.1256 45.6486 17.9645C45.4383 16.6067 45.1833 15.2689 44.7994 13.9571C44.0835 11.5343 42.812 9.31637 40.973 7.38731C39.2701 5.60346 37.1111 4.12047 34.7248 3.07708C29.5299 0.806238 23.1968 0.524662 17.7797 2.39328C16.889 2.70118 16.0285 3.06277 15.1984 3.47149L15.1816 3.47976L15.1642 3.48668C12.8294 4.41535 10.9071 6.02346 9.18987 7.74386L9.18918 7.74454C5.40087 11.5244 1.91375 15.8643 1.09279 20.8007C0.713641 23.0811 0.910692 25.3931 1.69156 27.5938C2.45968 29.7549 3.72548 31.753 5.35239 33.5323C5.58723 33.7891 5.83044 34.0405 6.08092 34.2856C6.20801 32.8989 6.41407 31.5172 6.70335 30.1443C7.22037 27.6829 8.00776 25.2704 9.05741 22.9483L9.05765 22.9477C9.59625 21.7602 10.1841 20.5896 10.853 19.4443L10.8533 19.4437C11.4281 18.4624 12.1082 17.4641 13.0314 16.6304L13.0314 16.6303C13.9699 15.7831 15.1933 15.132 16.5648 14.9464L16.565 14.9464C17.867 14.7706 19.1429 14.9552 20.3383 15.372L20.3393 15.3723C21.2874 15.7052 22.1897 16.1239 23.0676 16.5314C23.2606 16.6209 23.4523 16.7099 23.6432 16.7973L23.6485 16.7998L23.6485 16.7998C23.9173 16.927 24.1843 17.0466 24.4577 17.1592L24.4667 17.1629L24.4667 17.163C24.5833 17.2139 24.6926 17.2584 24.8095 17.303C24.8399 17.3139 24.9033 17.3374 24.9567 17.3575C24.9867 17.3689 25.017 17.3805 25.0401 17.3896C25.0507 17.3937 25.0638 17.3989 25.0755 17.4039C25.1386 17.4257 25.2018 17.4468 25.2648 17.4672C27.1299 14.3268 29.51 11.4199 32.3035 8.85771C33.0453 8.17672 33.9164 7.44452 35.2008 7.32625L35.2024 7.32611C36.2837 7.23026 37.3373 7.69019 38.0225 8.38941C39.3327 9.71858 39.752 11.5665 40.085 13.0783C40.8382 16.4735 40.7899 19.9664 39.9568 23.3461L36.5771 38.4495ZM24.6459 17.7483C24.6693 17.7564 24.7566 17.7888 24.8218 17.8137L24.8969 17.3697C24.8816 17.3697 24.8389 17.37 24.7852 17.3831L24.6459 17.7483ZM24.6459 17.7483L24.7721 17.3864C24.769 17.3873 24.766 17.3881 24.7629 17.389C24.7167 17.4027 24.5342 17.4651 24.4547 17.6728C24.5178 17.6986 24.5808 17.7234 24.6459 17.7483Z" fill="#8675A5" stroke="black" stroke-width="0.948611"/>
<mask id="path-2-outside-1" maskUnits="userSpaceOnUse" x="5.46191" y="6.80078" width="36" height="36" fill="black">
<rect fill="white" x="5.46191" y="6.80078" width="36" height="36"/>
<path d="M35.4173 35.5886C35.3781 35.4108 35.331 35.2262 35.2918 35.0484C35.2683 34.939 35.2447 34.8295 35.2291 34.727C35.2291 34.727 35.1977 34.5423 35.1898 34.5218C35.1349 34.1662 35.1114 33.8106 35.1114 33.455C35.1114 33.2567 35.1271 33.0653 35.1428 32.8738C35.1428 32.8601 35.1506 32.8122 35.1506 32.7849C35.1663 32.6823 35.1898 32.5729 35.2212 32.4703C35.433 31.6429 35.888 31.0138 36.3901 30.2547C36.8529 29.5504 37.2766 28.8255 37.6531 28.087C38.4454 26.5279 39.073 24.914 39.481 23.2455C40.2968 19.9358 40.3439 16.5166 39.6065 13.1932C39.2692 11.6615 38.8691 9.94505 37.6688 8.73467C37.0726 8.12607 36.1548 7.72945 35.2291 7.81151C34.1151 7.90724 33.3463 8.54321 32.6089 9.2202C29.7612 11.8393 27.345 14.8207 25.47 18.0416C25.2739 17.9869 25.0778 17.9253 24.8817 17.8569C24.8895 17.8569 24.6777 17.7817 24.6306 17.7612C24.5051 17.7133 24.3874 17.6655 24.2619 17.6108C23.9795 17.4945 23.7049 17.3714 23.4304 17.2415C22.3556 16.7491 21.2966 16.2294 20.1669 15.8328C19.0294 15.4362 17.8291 15.2652 16.6132 15.4294C15.3502 15.5935 14.2126 16.2021 13.334 16.9953C12.4711 17.7817 11.8121 18.7322 11.2473 19.6964C10.5962 20.8247 10.0078 21.9804 9.47434 23.1566C8.43882 25.4474 7.66218 27.834 7.15226 30.2547C6.79924 31.9301 6.57174 33.6192 6.46191 35.3151C9.84305 38.3102 14.3225 40.2455 19.0922 40.9635C24.8189 41.8251 30.8202 41.1208 36.1626 39.1377C36.0841 38.3171 35.8959 37.4965 35.6841 36.6896C35.5978 36.3066 35.5036 35.951 35.4173 35.5886ZM35.4409 9.91085C35.5036 9.93137 35.5978 9.95872 35.4409 9.91085V9.91085Z"/>
</mask>
<path d="M35.4173 35.5886C35.3781 35.4108 35.331 35.2262 35.2918 35.0484C35.2683 34.939 35.2447 34.8295 35.2291 34.727C35.2291 34.727 35.1977 34.5423 35.1898 34.5218C35.1349 34.1662 35.1114 33.8106 35.1114 33.455C35.1114 33.2567 35.1271 33.0653 35.1428 32.8738C35.1428 32.8601 35.1506 32.8122 35.1506 32.7849C35.1663 32.6823 35.1898 32.5729 35.2212 32.4703C35.433 31.6429 35.888 31.0138 36.3901 30.2547C36.8529 29.5504 37.2766 28.8255 37.6531 28.087C38.4454 26.5279 39.073 24.914 39.481 23.2455C40.2968 19.9358 40.3439 16.5166 39.6065 13.1932C39.2692 11.6615 38.8691 9.94505 37.6688 8.73467C37.0726 8.12607 36.1548 7.72945 35.2291 7.81151C34.1151 7.90724 33.3463 8.54321 32.6089 9.2202C29.7612 11.8393 27.345 14.8207 25.47 18.0416C25.2739 17.9869 25.0778 17.9253 24.8817 17.8569C24.8895 17.8569 24.6777 17.7817 24.6306 17.7612C24.5051 17.7133 24.3874 17.6655 24.2619 17.6108C23.9795 17.4945 23.7049 17.3714 23.4304 17.2415C22.3556 16.7491 21.2966 16.2294 20.1669 15.8328C19.0294 15.4362 17.8291 15.2652 16.6132 15.4294C15.3502 15.5935 14.2126 16.2021 13.334 16.9953C12.4711 17.7817 11.8121 18.7322 11.2473 19.6964C10.5962 20.8247 10.0078 21.9804 9.47434 23.1566C8.43882 25.4474 7.66218 27.834 7.15226 30.2547C6.79924 31.9301 6.57174 33.6192 6.46191 35.3151C9.84305 38.3102 14.3225 40.2455 19.0922 40.9635C24.8189 41.8251 30.8202 41.1208 36.1626 39.1377C36.0841 38.3171 35.8959 37.4965 35.6841 36.6896C35.5978 36.3066 35.5036 35.951 35.4173 35.5886ZM35.4409 9.91085C35.5036 9.93137 35.5978 9.95872 35.4409 9.91085V9.91085Z" fill="#F2EBC7"/>
<path d="M35.4173 35.5886L34.491 35.7929L34.4927 35.8006L34.4945 35.8083L35.4173 35.5886ZM35.2918 35.0484L34.3644 35.2479L34.3655 35.2527L35.2918 35.0484ZM35.2291 34.727L36.1668 34.5835L36.1656 34.5758L36.1643 34.568L35.2291 34.727ZM35.1898 34.5218L34.2523 34.6666L34.2677 34.7664L34.3038 34.8606L35.1898 34.5218ZM35.1428 32.8738L36.0882 32.9513L36.0914 32.9126V32.8738H35.1428ZM35.1506 32.7849L34.2129 32.6415L34.202 32.7128V32.7849H35.1506ZM35.2212 32.4703L36.1283 32.7478L36.1347 32.7269L36.1402 32.7056L35.2212 32.4703ZM36.3901 30.2547L37.1813 30.7781L37.1829 30.7757L36.3901 30.2547ZM37.6531 28.087L38.4982 28.5179L38.4988 28.5168L37.6531 28.087ZM39.481 23.2455L38.5599 23.0185L38.5595 23.0202L39.481 23.2455ZM39.6065 13.1932L38.6801 13.3972L38.6804 13.3987L39.6065 13.1932ZM37.6688 8.73467L36.9912 9.39852L36.9952 9.40262L37.6688 8.73467ZM35.2291 7.81151L35.3103 8.75664L35.3128 8.75641L35.2291 7.81151ZM32.6089 9.2202L31.9673 8.52141L31.9667 8.52199L32.6089 9.2202ZM25.47 18.0416L25.2152 18.9553L25.9211 19.1522L26.2899 18.5188L25.47 18.0416ZM24.8817 17.8569V16.9083L24.5694 18.7527L24.8817 17.8569ZM24.6306 17.7612L25.0096 16.8916L24.9893 16.8827L24.9687 16.8749L24.6306 17.7612ZM24.2619 17.6108L24.6409 16.7412L24.632 16.7373L24.623 16.7336L24.2619 17.6108ZM23.4304 17.2415L23.8362 16.384L23.8255 16.3791L23.4304 17.2415ZM20.1669 15.8328L20.4812 14.9378L20.4792 14.9371L20.1669 15.8328ZM16.6132 15.4294L16.7354 16.3701L16.7401 16.3694L16.6132 15.4294ZM13.334 16.9953L12.6983 16.2912L12.6951 16.2942L13.334 16.9953ZM11.2473 19.6964L10.4288 19.2169L10.4257 19.2223L11.2473 19.6964ZM9.47434 23.1566L8.61043 22.7648L8.60994 22.7659L9.47434 23.1566ZM7.15226 30.2547L8.08049 30.4503L8.0805 30.4503L7.15226 30.2547ZM6.46191 35.3151L5.51529 35.2537L5.48527 35.7172L5.8329 36.0251L6.46191 35.3151ZM19.0922 40.9635L18.9509 41.9015L18.951 41.9015L19.0922 40.9635ZM36.1626 39.1377L36.4927 40.027L37.1763 39.7732L37.1069 39.0474L36.1626 39.1377ZM35.6841 36.6896L34.7587 36.8981L34.7623 36.9143L34.7665 36.9304L35.6841 36.6896ZM35.4409 9.91085L35.7177 9.00353L35.1461 10.8125L35.4409 9.91085ZM36.3437 35.3842C36.3221 35.2863 36.2986 35.188 36.2774 35.0988C36.2555 35.0067 36.2358 34.9239 36.2181 34.844L34.3655 35.2527C34.3871 35.3506 34.4105 35.449 34.4318 35.5382C34.4537 35.6302 34.4734 35.7131 34.491 35.7929L36.3437 35.3842ZM36.2192 34.8489C36.1943 34.7332 36.1773 34.6527 36.1668 34.5835L34.2914 34.8704C34.3121 35.0064 34.3422 35.1447 34.3644 35.2479L36.2192 34.8489ZM35.2291 34.727C36.1643 34.568 36.1643 34.568 36.1643 34.568C36.1643 34.568 36.1642 34.568 36.1642 34.568C36.1642 34.568 36.1642 34.5679 36.1642 34.5679C36.1642 34.5679 36.1642 34.5678 36.1642 34.5677C36.1642 34.5676 36.1641 34.5674 36.1641 34.5672C36.164 34.5667 36.1639 34.566 36.1638 34.5652C36.1635 34.5636 36.1631 34.5614 36.1626 34.5585C36.1617 34.5529 36.1603 34.5449 36.1586 34.5353C36.1553 34.5164 36.1508 34.4903 36.1458 34.463C36.141 34.4367 36.1352 34.405 36.1294 34.3762C36.1266 34.3624 36.1228 34.3438 36.1184 34.3244C36.1162 34.3149 36.1127 34.3002 36.1082 34.2832C36.1056 34.2735 36.0948 34.2324 36.0759 34.183L34.3038 34.8606C34.2859 34.8138 34.2762 34.7765 34.275 34.7718C34.2717 34.7598 34.2698 34.7512 34.2692 34.7487C34.268 34.7433 34.2679 34.7425 34.2691 34.7488C34.2715 34.7605 34.2749 34.7788 34.279 34.8012C34.2828 34.8226 34.2866 34.844 34.2894 34.8603C34.2908 34.8683 34.292 34.8749 34.2928 34.8795C34.2931 34.8817 34.2934 34.8834 34.2936 34.8845C34.2937 34.8851 34.2938 34.8855 34.2938 34.8857C34.2938 34.8858 34.2939 34.8859 34.2939 34.886C34.2939 34.886 34.2939 34.886 34.2939 34.886C34.2939 34.886 34.2939 34.886 34.2939 34.8859C34.2939 34.8859 34.2939 34.8859 34.2939 34.8859C34.2939 34.8859 34.2939 34.8859 35.2291 34.727ZM36.1273 34.377C36.0808 34.0755 36.06 33.7688 36.06 33.455H34.1628C34.1628 33.8525 34.1891 34.257 34.2523 34.6666L36.1273 34.377ZM36.06 33.455C36.06 33.3017 36.0721 33.1483 36.0882 32.9513L34.1973 32.7963C34.1821 32.9823 34.1628 33.2118 34.1628 33.455H36.06ZM36.0914 32.8738C36.0914 32.8942 36.0907 32.9105 36.0902 32.92C36.0897 32.9301 36.0891 32.9381 36.0887 32.9431C36.0879 32.9526 36.0872 32.9591 36.0872 32.9595C36.0871 32.9603 36.0871 32.96 36.0875 32.9565C36.0878 32.9543 36.0885 32.9478 36.0891 32.9426C36.0904 32.9317 36.0926 32.912 36.0945 32.8897C36.0955 32.8782 36.0966 32.8637 36.0975 32.8474C36.0984 32.8315 36.0992 32.81 36.0992 32.7849H34.202C34.202 32.7666 34.2026 32.7526 34.2031 32.7446C34.2035 32.7362 34.204 32.73 34.2043 32.727C34.2047 32.7219 34.205 32.7201 34.2043 32.7263C34.2039 32.7297 34.2037 32.7315 34.203 32.7373C34.2025 32.7416 34.2017 32.7488 34.2008 32.7565C34.2 32.7637 34.1987 32.7763 34.1975 32.7912C34.1969 32.7989 34.1961 32.8094 34.1955 32.8217C34.1949 32.8334 34.1941 32.8516 34.1941 32.8738H36.0914ZM36.0883 32.9283C36.0982 32.8635 36.1124 32.7997 36.1283 32.7478L34.3141 32.1928C34.2672 32.3461 34.2344 32.5011 34.2129 32.6415L36.0883 32.9283ZM36.1402 32.7056C36.3033 32.0684 36.6446 31.5895 37.1813 30.7781L35.5989 29.7314C35.1315 30.4381 34.5628 31.2174 34.3022 32.2351L36.1402 32.7056ZM37.1829 30.7757C37.6638 30.0439 38.1051 29.289 38.4982 28.5179L36.808 27.6561C36.4481 28.3621 36.0421 29.0569 35.5973 29.7338L37.1829 30.7757ZM38.4988 28.5168C39.3191 26.9026 39.9747 25.2203 40.4024 23.4708L38.5595 23.0202C38.1714 24.6078 37.5718 26.1531 36.8074 27.6572L38.4988 28.5168ZM40.402 23.4725C41.2525 20.0224 41.302 16.4552 40.5326 12.9877L38.6804 13.3987C39.3859 16.578 39.3412 19.8491 38.5599 23.0185L40.402 23.4725ZM40.5329 12.9892C40.2048 11.4993 39.7659 9.5022 38.3424 8.06672L36.9952 9.40262C37.9723 10.3879 38.3335 11.8236 38.6801 13.3972L40.5329 12.9892ZM38.3464 8.07084C37.5723 7.28055 36.3825 6.75692 35.1453 6.8666L35.3128 8.75641C35.927 8.70197 36.5729 8.97158 36.9912 9.39851L38.3464 8.07084ZM35.1478 6.86638C33.6865 6.99197 32.709 7.8405 31.9673 8.52141L33.2504 9.91899C33.9835 9.24592 34.5437 8.82252 35.3103 8.75663L35.1478 6.86638ZM31.9667 8.52199C29.0523 11.2024 26.5751 14.2577 24.6502 17.5643L26.2899 18.5188C28.1148 15.3838 30.4701 12.4761 33.251 9.91841L31.9667 8.52199ZM25.7249 17.1278C25.5485 17.0786 25.3715 17.0231 25.194 16.9612L24.5694 18.7527C24.7841 18.8275 24.9993 18.8951 25.2152 18.9553L25.7249 17.1278ZM24.8817 18.8056C24.915 18.8056 25.0085 18.8045 25.1233 18.7743C25.1946 18.7555 25.5575 18.6552 25.7426 18.2556C25.9493 17.8095 25.7409 17.4381 25.6778 17.3407C25.6007 17.2218 25.5151 17.1496 25.4879 17.127C25.4217 17.0721 25.3627 17.0389 25.3502 17.0318C25.3275 17.0189 25.3088 17.0095 25.2989 17.0047C25.2657 16.9883 25.237 16.9768 25.2339 16.9755C25.2163 16.9683 25.1983 16.9615 25.188 16.9576C25.1642 16.9486 25.1327 16.937 25.1055 16.9269C25.0287 16.8986 25.001 16.8878 25.0096 16.8916L24.2516 18.6308C24.3074 18.6551 24.409 18.6922 24.448 18.7066C24.4787 18.7179 24.5016 18.7264 24.5167 18.7321C24.5259 18.7356 24.5236 18.7348 24.5163 18.7318C24.5138 18.7308 24.5086 18.7286 24.5017 18.7257C24.4966 18.7235 24.4816 18.7169 24.4624 18.7075C24.4531 18.7029 24.4349 18.6938 24.4125 18.6811C24.4004 18.6742 24.3416 18.6412 24.2757 18.5865C24.2485 18.5639 24.163 18.4918 24.0859 18.3729C24.0228 18.2756 23.8145 17.9042 24.0211 17.4581C24.2063 17.0586 24.5691 16.9583 24.6404 16.9396C24.7551 16.9094 24.8485 16.9083 24.8817 16.9083V18.8056ZM24.9687 16.8749C24.8563 16.832 24.7523 16.7897 24.6409 16.7412L23.8829 18.4804C24.0226 18.5412 24.154 18.5947 24.2926 18.6475L24.9687 16.8749ZM24.623 16.7336C24.3585 16.6247 24.099 16.5085 23.8361 16.384L23.0246 18.099C23.3109 18.2344 23.6005 18.3643 23.9008 18.488L24.623 16.7336ZM23.8255 16.3791C22.782 15.901 21.6644 15.3532 20.4812 14.9378L19.8527 16.7279C20.9287 17.1057 21.9293 17.5973 23.0353 18.1039L23.8255 16.3791ZM20.4792 14.9371C19.2259 14.5001 17.8743 14.3019 16.4863 14.4893L16.7401 16.3694C17.784 16.2285 18.8329 16.3723 19.8546 16.7285L20.4792 14.9371ZM16.4909 14.4887C15.0043 14.6818 13.6938 15.3925 12.6983 16.2912L13.9697 17.6994C14.7315 17.0116 15.696 16.5051 16.7354 16.3701L16.4909 14.4887ZM12.6951 16.2942C11.7314 17.1724 11.0158 18.2148 10.4288 19.2169L12.0658 20.1759C12.6084 19.2496 13.2108 18.391 13.973 17.6965L12.6951 16.2942ZM10.4257 19.2223C9.75803 20.3792 9.15571 21.5625 8.61043 22.7648L10.3383 23.5484C10.8599 22.3983 11.4343 21.2703 12.0689 20.1706L10.4257 19.2223ZM8.60994 22.7659C7.54598 25.1196 6.74801 27.5716 6.22402 30.0592L8.0805 30.4503C8.57635 28.0963 9.33166 25.7753 10.3387 23.5473L8.60994 22.7659ZM6.22403 30.0591C5.86142 31.78 5.62795 33.514 5.51529 35.2537L7.40854 35.3764C7.51553 33.7243 7.73706 32.0802 8.08049 30.4503L6.22403 30.0591ZM5.8329 36.0251C9.37025 39.1587 14.027 41.1603 18.9509 41.9015L19.2334 40.0254C14.618 39.3306 10.3159 37.4618 7.09093 34.605L5.8329 36.0251ZM18.951 41.9015C24.8443 42.7882 31.0076 42.0631 36.4927 40.027L35.8325 38.2483C30.6329 40.1784 24.7935 40.862 19.2333 40.0254L18.951 41.9015ZM37.1069 39.0474C37.021 38.1491 36.817 37.2692 36.6016 36.4487L34.7665 36.9304C34.9748 37.7237 35.1473 38.4851 35.2183 39.2279L37.1069 39.0474ZM36.6095 36.481C36.5234 36.0991 36.4173 35.693 36.3401 35.3689L34.4945 35.8083C34.5899 36.2091 34.6721 36.5141 34.7587 36.8981L36.6095 36.481ZM35.164 10.8182C35.2029 10.83 35.2234 10.8364 35.2319 10.839C35.2469 10.8438 35.2275 10.8379 35.2059 10.8301C35.2032 10.8292 35.1838 10.8223 35.1597 10.8122C35.1551 10.8102 35.1116 10.7924 35.0601 10.7634C35.0532 10.7595 34.9502 10.7045 34.849 10.6012C34.7828 10.526 34.6395 10.2732 34.5902 10.0885C34.5899 9.78839 34.8254 9.29867 35.0158 9.13819C35.1343 9.07381 35.3312 9.0092 35.4028 8.99696C35.4462 8.99227 35.5182 8.98888 35.5468 8.98905C35.6004 8.99019 35.6419 8.99575 35.6566 8.99778C35.6912 9.00256 35.7179 9.00829 35.7251 9.00982C35.7447 9.01401 35.7598 9.01792 35.7631 9.01879C35.7734 9.02143 35.7812 9.02364 35.7825 9.024C35.7852 9.02478 35.7872 9.02535 35.7879 9.02556C35.79 9.02616 35.7834 9.02422 35.7697 9.01999C35.7573 9.01615 35.7448 9.01221 35.7356 9.00919L35.1461 10.8125C35.1867 10.8258 35.236 10.8409 35.2586 10.8474C35.2608 10.8481 35.264 10.849 35.2678 10.8501C35.2701 10.8507 35.2787 10.8531 35.2895 10.8559C35.2931 10.8569 35.3084 10.8608 35.3281 10.865C35.3354 10.8666 35.3621 10.8723 35.3968 10.8771C35.4115 10.8792 35.4531 10.8847 35.5067 10.8859C35.5352 10.886 35.6072 10.8826 35.6506 10.8779C35.7222 10.8657 35.9191 10.8011 36.0376 10.7367C36.228 10.5762 36.4636 10.0865 36.4632 9.78635C36.4139 9.60171 36.2707 9.3489 36.2044 9.27367C36.1032 9.17038 36.0002 9.11543 35.9933 9.11152C35.9418 9.08241 35.8983 9.0646 35.8936 9.06263C35.8694 9.05247 35.8498 9.04552 35.8468 9.04446C35.8349 9.04018 35.8253 9.037 35.8231 9.03628C35.8191 9.03497 35.8157 9.03387 35.8134 9.03313C35.8087 9.03161 35.804 9.03013 35.7999 9.02884C35.7839 9.0238 35.7573 9.01562 35.7177 9.00353L35.164 10.8182Z" fill="black" mask="url(#path-2-outside-1)"/>
<path d="M35.4409 9.91113C35.5031 9.93147 35.5965 9.95859 35.4409 9.91113V9.91113Z" fill="#F2EBC7"/>
<path d="M27.0208 34.5927L27.0203 34.5912C26.6719 33.5509 26.1234 32.5482 25.5614 31.5209L25.5399 31.4816L25.5398 31.4815C25.0659 30.6147 24.5615 29.7555 24.0265 28.9174L24.0264 28.9173C22.9111 27.1688 21.6359 25.4987 20.1626 23.9724C18.7318 22.4905 17.0878 21.1717 15.2388 20.1084L15.2369 20.1073L15.2369 20.1073C14.7808 19.8423 14.3005 19.5963 13.8191 19.3765L13.8164 19.3753L13.8164 19.3753L13.7952 19.3654C13.17 19.0752 12.6146 18.8174 12.0469 18.8444C11.5052 18.872 11.1099 19.0914 10.8118 19.4162L10.7294 19.506L10.6138 19.545C10.3595 19.6306 10.2339 19.7708 10.2007 19.9017C9.32628 23.4086 9.72783 27.1343 11.262 30.4744L27.0208 34.5927ZM27.0208 34.5927C27.7024 36.6051 27.3315 38.7908 25.3594 40.0287C24.3787 40.6414 23.2725 40.6876 22.1401 40.419C21.0009 40.1489 19.8762 39.5686 18.9138 38.9858L18.9136 38.9856M27.0208 34.5927L18.9136 38.9856M18.9136 38.9856C15.4339 36.8811 12.8309 33.8834 11.262 30.4745L18.9136 38.9856Z" fill="#BA6A51" stroke="black" stroke-width="0.948611"/>
<path d="M22.701 20.0939C22.6461 19.9161 22.5363 19.7588 22.3872 19.6289C22.3088 19.5742 22.2225 19.5195 22.1441 19.4648C21.9558 19.369 21.7518 19.3212 21.5322 19.3212H21.2733C21.1085 19.3143 20.9516 19.3485 20.8026 19.4101C20.6535 19.4511 20.5202 19.5263 20.4103 19.6289C20.2927 19.7246 20.2064 19.8409 20.1593 19.9708C20.0809 20.0939 20.0495 20.2307 20.0573 20.3811C20.073 20.4768 20.0887 20.5657 20.1044 20.6615C20.1593 20.8393 20.2691 20.9965 20.4182 21.1265C20.4966 21.1812 20.5829 21.2359 20.6614 21.2906C20.8497 21.3863 21.0536 21.4342 21.2733 21.4342H21.5243C21.6891 21.441 21.846 21.4069 21.995 21.3453C22.1441 21.3043 22.2774 21.229 22.3872 21.1265C22.5049 21.0307 22.5912 20.9145 22.6383 20.7846C22.7167 20.6615 22.7481 20.5247 22.7403 20.3743C22.7324 20.2785 22.7167 20.1828 22.701 20.0939Z" fill="#281911"/>
<path d="M36.1075 6.76494C35.6211 6.64869 35.0798 6.72391 34.5934 6.78546C34.1776 6.83332 33.7776 6.92222 33.3853 7.03847C32.844 7.20259 32.5302 7.56503 32.491 8.05738C32.4753 8.26253 32.4596 8.46767 32.4439 8.67966C32.4361 8.76855 32.4518 8.86429 32.4753 8.95319C32.3812 9.37032 32.5695 9.81482 33.0401 10.061C34.5071 10.82 36.7351 10.3208 37.2999 8.82327C37.6137 7.95481 37.1352 7.01795 36.1075 6.76494Z" fill="#281911"/>
<path d="M38.1233 17.9952C37.7546 17.8379 37.2526 17.7627 36.8995 17.9952C36.5151 18.2413 36.2484 18.508 36.0837 18.9046C35.9503 19.2192 35.966 19.5543 36.0444 19.8757C36.0601 19.9236 36.0758 19.9714 36.0915 20.0193C36.1856 20.5048 36.7191 20.9219 37.2918 20.9014C38.092 20.8672 38.7431 20.4022 38.9392 19.7252C39.1196 19.0824 38.8372 18.296 38.1233 17.9952Z" fill="#281911"/>
</svg>
