<svg width="14" height="14" viewBox="0 0 14 14" fill="none" xmlns="http://www.w3.org/2000/svg">
<g clip-path="url(#clip0)">
<path d="M11.7734 2.68945H1.81115C1.59097 2.68945 1.3798 2.77692 1.22411 2.93261C1.06842 3.0883 0.980957 3.29946 0.980957 3.51964V10.1612C0.980957 10.3813 1.06842 10.5925 1.22411 10.7482C1.3798 10.9039 1.59097 10.9913 1.81115 10.9913H11.7734C11.9936 10.9913 12.2048 10.9039 12.3604 10.7482C12.5161 10.5925 12.6036 10.3813 12.6036 10.1612V3.51964C12.6036 3.29946 12.5161 3.0883 12.3604 2.93261C12.2048 2.77692 11.9936 2.68945 11.7734 2.68945ZM10.8602 3.51964L6.79228 6.33398L2.72435 3.51964H10.8602ZM1.81115 10.1612V3.89738L6.55567 7.18077C6.62516 7.22898 6.70771 7.25481 6.79228 7.25481C6.87685 7.25481 6.9594 7.22898 7.02888 7.18077L11.7734 3.89738V10.1612H1.81115Z" fill="#8675A5"/>
</g>
<defs>
<clipPath id="clip0">
<rect width="13.283" height="13.283" fill="white" transform="translate(0.150879 0.19873)"/>
</clipPath>
</defs>
</svg>
