<svg width="202" height="54" viewBox="0 0 202 54" fill="none" xmlns="http://www.w3.org/2000/svg">
<path d="M70.3783 9.76492C70.089 9.63658 68.0879 9.96444 66.8763 11.6448C65.4174 13.6683 61.0746 19.2824 62.6167 21.0071C63.6558 22.1693 68.8495 22.3007 72.2492 21.759C72.1953 23.0868 71.884 23.9217 71.735 24.1731L74.7572 21.0494C75.0324 20.8943 75.2059 20.7238 75.2505 20.5394C75.6489 18.8925 77.3572 15.3333 70.3783 9.76492Z" fill="#A6744A"/>
<path d="M75.2505 20.5394C75.6489 18.8925 77.3572 15.3333 70.3783 9.76492C70.089 9.63658 68.0879 9.96444 66.8763 11.6448C65.4174 13.6683 61.0746 19.2824 62.6167 21.0071C63.6558 22.1693 68.8495 22.3007 72.2492 21.759M75.2505 20.5394L71.735 24.1731C71.884 23.9217 72.1953 23.0868 72.2492 21.759M75.2505 20.5394C75.1205 21.0767 73.8951 21.4967 72.2492 21.759" stroke="#5F2E30" stroke-width="0.906871"/>
<path d="M5.61734 24.9061C3.76709 23.3905 2.64977 22.144 2.07121 21.1136C1.46531 20.0345 1.45739 19.2078 1.79568 18.5505C2.14004 17.8815 2.85916 17.3545 3.78067 16.9196C4.61878 16.5241 5.60521 16.2133 6.58483 15.9405C5.92504 17.5657 4.98433 21.18 5.61734 24.9061Z" fill="#A88183" stroke="#A88183" stroke-width="0.28137"/>
<path d="M17.0171 40.4262L17.3467 40.2633L16.9926 40.1645L16.9602 40.1555C16.0805 39.9099 14.9559 39.5959 13.8928 39.2141C12.826 38.831 11.8377 38.3852 11.2214 37.882C10.5914 37.3676 9.84564 36.2974 9.14595 35.0259C8.44909 33.7596 7.80791 32.3122 7.38218 31.0606C2.89051 17.8554 9.72123 9.71944 13.6729 7.30722C16.2252 5.77255 20.5223 4.18712 25.1078 4.4205C29.6734 4.65288 34.5317 6.68782 38.2518 12.3927C36.6734 22.5466 42.276 30.873 45.3022 33.7973C49.0248 41.8387 56.5031 42.4459 59.8186 41.7361C59.9479 41.77 60.0231 41.8337 60.0688 41.9095C60.1206 41.9954 60.1436 42.1121 60.1387 42.253C60.129 42.5311 60.0127 42.8526 59.9023 43.0701C57.555 45.9526 53.4909 48.216 49.3432 49.8741C45.2086 51.5271 41.012 52.5705 38.4019 53.0267C33.127 51.892 24.1594 48.7801 17.0484 43.4166C16.7081 43.0622 16.3114 42.4925 16.1968 41.9232C16.1396 41.6395 16.1538 41.3631 16.2718 41.1127C16.3894 40.863 16.6176 40.6235 17.0171 40.4262Z" fill="#F6BB62" stroke="#EAEAEA" stroke-width="0.28137"/>
<path d="M17.7712 34.9866C17.5011 36.6071 16.2487 36.4463 14.9603 36.1533C15.3278 37.4434 17.5919 37.4171 17.9719 36.1533C20.0463 36.3117 22.701 36.5497 22.7905 33.82C21.7633 34.3913 21.3347 35.7626 19.9528 35.8445C19.3434 35.8807 18.4978 35.4399 18.4962 34.7877C18.4949 34.2812 18.7515 33.7605 18.775 33.2367C18.2918 33.2382 17.6561 33.1597 17.2329 33.4366C16.3627 34.0055 17.0899 34.7864 17.7712 34.9866Z" fill="#5F2E30"/>
<path d="M5.82462 25.255C-2.30676 18.7413 2.54396 16.8942 6.82849 15.7275" stroke="#5F2E30" stroke-width="0.906871"/>
<path d="M23.0676 17.9655C20.3571 14.0443 16.7431 6.20192 29.9942 9.50739" stroke="#5F2E30" stroke-width="0.906871"/>
<path d="M23.3692 11.4529L28.9909 14.2723C29.4928 14.564 29.6101 14.8556 29.4928 15.0859C28.7681 16.5084 22.5551 18.469 22.6985 12.3279C22.7056 12.0233 22.6665 11.3557 23.3692 11.4529Z" fill="#FFCCCC" stroke="#5F2E30" stroke-width="0.906871"/>
<path d="M25.2336 27.2489C24.3908 30.3524 20.4113 29.7619 20.3135 29.74C20.2809 29.7328 19.8274 29.71 20.0427 29.5797C20.1631 29.5069 20.5017 29.3831 20.9154 29.3758C23.2143 29.411 24.5451 27.7267 25.0166 26.9011C25.0614 26.8446 25.1705 26.736 25.2487 26.7535C25.3465 26.7754 25.2648 27.1561 25.2336 27.2489Z" fill="#5F2E30" stroke="#5F2E30" stroke-width="0.28137"/>
<path d="M12.3475 32.2411C10.0777 34.579 7.52885 32.5153 7.45368 32.4509L7.50466 32.1148C9.50767 33.2081 11.507 32.3429 12.3281 31.8352C12.3953 31.8062 12.5448 31.7612 12.6049 31.8127C12.6801 31.8771 12.4207 32.174 12.3475 32.2411Z" fill="#5F2E30" stroke="#5F2E30" stroke-width="0.28137"/>
<path d="M40.6538 27.0611L40.6508 27.0519L40.6466 27.0433C40.1662 26.0487 39.3275 23.8543 38.6792 21.3162C38.0304 18.7763 37.5769 15.9092 37.8549 13.5629C38.1291 11.2492 39.8386 9.29491 41.8991 7.78536C43.9547 6.27945 46.3331 5.23598 47.8945 4.737C51.0162 3.86955 58.6516 3.43065 64.222 8.59412C67.7197 11.8362 69.6101 15.0217 70.4304 18.2596C71.2511 21.499 71.0041 24.8044 70.2038 28.2922C69.4045 31.7756 68.1047 34.5415 66.7336 36.574C65.3604 38.6094 63.9211 39.9015 62.8484 40.448C61.7695 40.9976 59.7077 41.5533 57.4136 41.6312C55.1203 41.7092 52.6175 41.3089 50.6436 39.9708C47.3924 37.7667 45.6341 35.6526 45.3455 33.791L45.3372 33.7377L45.2955 33.7036C44.714 33.2289 43.7333 32.1272 42.8041 30.8567C41.8747 29.586 41.0118 28.1668 40.6538 27.0611Z" fill="#D79863" stroke="#D79863" stroke-width="0.28137"/>
<path d="M42.5589 51.6743C44.4043 51.7292 45.8336 51.3307 44.2228 50.1675C37.6064 43.2298 42.5861 51.4006 42.5589 51.6743Z" fill="#7B7B7B" fill-opacity="0.29"/>
<path d="M46.9753 50.313C48.8207 50.3678 50.25 49.9694 48.6391 48.8062C42.0228 41.8685 47.0025 50.0393 46.9753 50.313Z" fill="#7B7B7B" fill-opacity="0.29"/>
<path d="M50.9911 48.7593C52.8366 48.8141 54.2659 48.4157 52.655 47.2525C46.0387 40.3147 51.0183 48.4856 50.9911 48.7593Z" fill="#7B7B7B" fill-opacity="0.29"/>
<path d="M54.0027 46.815C55.8482 46.8698 57.2775 46.4714 55.6666 45.3082C49.0503 38.3704 54.0299 46.5413 54.0027 46.815Z" fill="#7B7B7B" fill-opacity="0.29"/>
<path d="M32.512 46.1058C33.4904 48.6239 28.8546 46.4733 27.1015 45.3068C26.8675 45.1511 19.3814 40.256 28.8547 38.0153C30.6861 37.2148 33.065 39.2009 32.1208 40.7374C31.1766 42.274 31.9777 44.3925 32.512 46.1058Z" fill="#A88183"/>
<path d="M55.9579 33.9306C54.673 36.8083 56.4933 38.5647 57.5641 39.0832C58.0326 39.3749 59.5919 39.6471 62.0815 38.4027C64.5711 37.1583 63.1189 35.9398 62.0815 35.4861C62.0815 35.4861 61.4897 35.0436 60.3169 35.7095C60.3169 34.4561 59.2707 33.9306 59.2707 33.9306C57.323 32.4252 56.2926 33.088 55.9579 33.9306Z" fill="#5F2E30" stroke="#5F2E30" stroke-width="0.28137"/>
<path d="M58.2698 28.2323C54.9793 28.6102 54.0881 24.8081 54.0733 24.712C54.0683 24.6799 53.924 24.2629 54.128 24.4092C54.2421 24.491 54.4852 24.7506 54.6438 25.1208C55.4525 27.2051 57.5584 27.7869 58.5244 27.9092C58.5951 27.9289 58.7394 27.9874 58.7513 28.0643C58.7661 28.1604 58.3704 28.2263 58.2698 28.2323Z" fill="#5F2E30" stroke="#5F2E30" stroke-width="0.28137"/>
<path d="M65.8785 31.7038C65.9926 31.7856 66.2357 32.0452 66.3943 32.4154C66.7051 33.2165 67.4082 33.9769 67.9639 34.3933L67.6628 34.9765C66.4314 33.9538 65.8336 32.0705 65.8238 32.0066C65.8188 31.9745 65.6744 31.5575 65.8785 31.7038Z" fill="#5F2E30" stroke="#5F2E30" stroke-width="0.28137"/>
<path d="M41.663 29.4385C41.3953 30.1513 40.3783 31.8101 38.4513 32.7432" stroke="#5F2E30" stroke-width="0.906871"/>
<path d="M11.2687 38.1868C16.6896 41.6867 24.9213 41.1034 31.3461 36.7285" stroke="#5F2E30" stroke-width="0.906871"/>
<path d="M15.4115 35.5625C12.0392 36.2623 11.5307 36.8261 11.698 37.0205" stroke="#5F2E30" stroke-width="0.28137"/>
<path d="M15.8869 41.8655C16.2213 41.5741 17.0908 41.1077 17.8934 41.5741" stroke="#5F2E30" stroke-width="0.28137"/>
<path d="M16.289 40.8678C16.6968 40.6837 17.669 40.4839 18.2957 41.1572" stroke="#5F2E30" stroke-width="0.28137"/>
<path d="M14.8848 34.6775C11.4487 34.3919 10.7922 34.787 10.8934 35.0203" stroke="#5F2E30" stroke-width="0.28137"/>
<path d="M23.7741 33.4878C27.1941 33.0573 27.8678 33.4243 27.7771 33.6617" stroke="#5F2E30" stroke-width="0.28137"/>
<path d="M23.5163 32.6864C26.6444 31.2799 27.4009 31.4337 27.3881 31.6865" stroke="#5F2E30" stroke-width="0.28137"/>
<path d="M36.1642 43.3398C37.0677 47.3906 38.9751 53.1784 34.1565 52.0896" stroke="#5F2E30" stroke-width="0.906871"/>
<path d="M28.3342 43.145C27.6984 41.3303 27.491 38.9257 30.1412 37.6035" stroke="#5F2E30" stroke-width="0.906871"/>
<path d="M40.1634 25.5043C39.193 23.4951 37.3927 18.2906 37.9549 13.5463C38.517 8.80204 44.9485 5.60677 48.0939 4.60217C51.2394 3.7272 58.9357 3.27999 64.5574 8.49094C71.5845 15.0046 72.1868 21.3239 70.5806 28.3237C68.9744 35.3235 65.3544 39.4513 63.152 40.5733C60.9495 41.6953 54.8198 42.8094 50.8044 40.0872C47.5483 37.8799 45.7444 35.7365 45.4462 33.8126M49.399 28.6153C47.2908 28.1292 45.9858 30.2681 45.4839 32.5041C45.3889 32.927 45.3766 33.3638 45.4462 33.8126M45.4462 33.8126C44.2552 32.8404 41.6908 30.3321 40.9604 28.0766" stroke="#5F2E30" stroke-width="0.906871"/>
<ellipse cx="49.2928" cy="31.6742" rx="0.401709" ry="0.389035" fill="#5F2E30"/>
<ellipse cx="49.2928" cy="34.3949" rx="0.401709" ry="0.389035" fill="#5F2E30"/>
<ellipse cx="51.2998" cy="33.2289" rx="0.401713" ry="0.389032" fill="#5F2E30"/>
<path d="M38.3133 12.3593C30.8131 0.800024 18.6555 4.09337 13.5142 7.18494C9.5154 9.62566 2.64691 17.8265 7.16318 31.104C8.02024 33.6237 9.74153 36.9234 11.0466 37.989C12.3269 39.0344 15.1125 39.8077 16.869 40.2981M16.9694 40.3261C16.9363 40.3169 16.9028 40.3075 16.869 40.2981M16.869 40.2981C15.1825 41.1312 16.1663 42.7933 16.869 43.5203C24.0142 48.9127 33.0262 52.0347 38.3133 53.1681C43.5463 52.2577 55.1967 48.9786 59.935 43.1455C60.1692 42.6918 60.457 41.7455 59.7342 41.59" stroke="#5F2E30" stroke-width="0.906871"/>
<path d="M55.302 1.93607C55.5582 2.11886 56.2322 3.9728 55.302 5.81369C54.1819 8.03038 51.2172 14.4306 48.9119 13.9606C47.3586 13.6439 44.7219 9.30847 43.563 6.16621C42.3899 6.85556 41.7869 7.52402 41.632 7.77209L42.9879 3.69785C42.9946 3.38955 43.0644 3.1599 43.2093 3.03278C44.5035 1.89691 46.8897 -1.27569 55.302 1.93607Z" fill="#A6744A"/>
<path d="M43.2093 3.03278C44.5035 1.89691 46.8897 -1.27569 55.302 1.93607C55.5582 2.11886 56.2322 3.9728 55.302 5.81369C54.1819 8.03038 51.2172 14.4306 48.9119 13.9606C47.3586 13.6439 44.7219 9.30847 43.563 6.16621M43.2093 3.03278L41.632 7.77209C41.7869 7.52402 42.3899 6.85556 43.563 6.16621M43.2093 3.03278C42.7871 3.40331 43.0019 4.64492 43.563 6.16621" stroke="#5F2E30" stroke-width="0.906871"/>
<path d="M166.392 29.1172C166.392 27.8037 165.336 26.7386 164.035 26.7386C162.734 26.7386 161.679 27.8037 161.679 29.1172C161.679 30.4316 162.734 31.4962 164.035 31.4962C165.337 31.4962 166.392 30.4316 166.392 29.1172Z" fill="#434343"/>
<path d="M175.788 27.2032C174.487 27.2032 173.432 28.2683 173.432 29.5818C173.432 30.8962 174.487 31.9604 175.788 31.9604C177.09 31.9604 178.145 30.8962 178.145 29.5818C178.145 28.2683 177.09 27.2032 175.788 27.2032Z" fill="#434343"/>
<path d="M173.648 32.2297C173.484 32.0259 173.253 31.7899 172.986 31.5424C172.276 30.6129 171.165 30.0115 169.912 30.0115C168.797 30.0115 167.795 30.4881 167.086 31.2476C166.684 31.6011 166.326 31.9461 166.098 32.2299L165.946 32.4178C165.235 33.2929 164.35 34.3817 164.356 36.2293C164.363 37.945 165.747 39.3418 167.441 39.3418C167.912 39.3428 168.376 39.2341 168.798 39.0242C169.22 38.8143 169.588 38.5089 169.873 38.1317C170.159 38.509 170.527 38.8146 170.949 39.0245C171.371 39.2344 171.835 39.343 172.306 39.3418C174 39.3418 175.383 37.9453 175.39 36.2293C175.396 34.3817 174.511 33.2929 173.801 32.4178L173.648 32.2297Z" fill="#434343"/>
<path d="M170.075 28.4942C171.509 28.4942 172.672 27.3207 172.672 25.8731C172.672 24.4255 171.509 23.252 170.075 23.252C168.641 23.252 167.479 24.4255 167.479 25.8731C167.479 27.3207 168.641 28.4942 170.075 28.4942Z" fill="#434343"/>
<path d="M105.639 24.0597C105.905 24.0597 106.108 24.1444 106.248 24.314C106.402 24.4694 106.479 24.6814 106.479 24.9498V38.3658C106.479 38.6201 106.409 38.825 106.269 38.9804C106.129 39.1358 105.933 39.2135 105.681 39.2135C105.43 39.2135 105.241 39.1358 105.115 38.9804C104.989 38.825 104.926 38.6201 104.926 38.3658V27.5355L100.37 36.3523C100.174 36.7621 99.8872 36.967 99.5093 36.967C99.1454 36.967 98.8585 36.7621 98.6486 36.3523L94.072 27.6415V38.3658C94.072 38.6201 94.002 38.825 93.862 38.9804C93.7361 39.1358 93.5471 39.2135 93.2952 39.2135C93.0433 39.2135 92.8473 39.1358 92.7074 38.9804C92.5674 38.825 92.4974 38.6201 92.4974 38.3658V24.9498C92.4974 24.6814 92.5744 24.4694 92.7284 24.314C92.8823 24.1444 93.0923 24.0597 93.3582 24.0597C93.7081 24.0597 93.988 24.2645 94.1979 24.6743L99.5303 34.9959L104.8 24.6743C104.912 24.4482 105.031 24.2928 105.157 24.208C105.297 24.1091 105.458 24.0597 105.639 24.0597Z" fill="#434343"/>
<path d="M111.22 39.2135C110.954 39.2135 110.744 39.1358 110.59 38.9804C110.436 38.8109 110.359 38.5918 110.359 38.3234V24.9498C110.359 24.6814 110.436 24.4694 110.59 24.314C110.744 24.1444 110.954 24.0597 111.22 24.0597C111.486 24.0597 111.696 24.1444 111.85 24.314C112.004 24.4694 112.081 24.6814 112.081 24.9498V38.3234C112.081 38.5918 112.004 38.8109 111.85 38.9804C111.696 39.1358 111.486 39.2135 111.22 39.2135Z" fill="#434343"/>
<path d="M128.684 38.1114C128.74 38.2245 128.768 38.3446 128.768 38.4717C128.768 38.6837 128.684 38.8603 128.516 39.0016C128.362 39.1429 128.173 39.2135 127.949 39.2135C127.599 39.2135 127.354 39.044 127.214 38.7049L125.724 35.2714H117.809L116.298 38.7049C116.158 39.044 115.913 39.2135 115.563 39.2135C115.339 39.2135 115.143 39.1429 114.975 39.0016C114.807 38.8462 114.723 38.6625 114.723 38.4506C114.723 38.3375 114.751 38.2245 114.807 38.1114L120.811 24.6319C120.895 24.4341 121.021 24.2857 121.189 24.1868C121.357 24.0879 121.539 24.0385 121.735 24.0385C121.945 24.0385 122.134 24.095 122.302 24.208C122.47 24.3069 122.596 24.4482 122.68 24.6319L128.684 38.1114ZM118.439 33.8302H125.094L121.756 26.2215L118.439 33.8302Z" fill="#434343"/>
<path d="M137.075 39.2771C135.143 39.2771 133.681 38.7685 132.687 37.7511C131.693 36.7338 131.196 35.2361 131.196 33.258V24.9498C131.196 24.6814 131.273 24.4694 131.427 24.314C131.581 24.1444 131.791 24.0597 132.057 24.0597C132.309 24.0597 132.512 24.1444 132.666 24.314C132.82 24.4694 132.897 24.6814 132.897 24.9498V33.4063C132.897 34.8617 133.247 35.9567 133.946 36.6914C134.66 37.4262 135.703 37.7935 137.075 37.7935C138.446 37.7935 139.482 37.4262 140.182 36.6914C140.881 35.9567 141.231 34.8617 141.231 33.4063V24.9498C141.231 24.6814 141.308 24.4694 141.462 24.314C141.63 24.1444 141.84 24.0597 142.092 24.0597C142.358 24.0597 142.568 24.1444 142.722 24.314C142.876 24.4694 142.953 24.6814 142.953 24.9498V33.258C142.953 35.222 142.449 36.7197 141.441 37.7511C140.448 38.7685 138.992 39.2771 137.075 39.2771Z" fill="#434343"/>
<path d="M147.585 39.1076C147.319 39.1076 147.102 39.0299 146.934 38.8744C146.78 38.719 146.703 38.5141 146.703 38.2598V25.0134C146.703 24.7591 146.78 24.5542 146.934 24.3988C147.102 24.2433 147.319 24.1656 147.585 24.1656H151.678C154.044 24.1656 155.87 24.8156 157.158 26.1155C158.459 27.4013 159.11 29.2381 159.11 31.626C159.11 34.0139 158.459 35.8578 157.158 37.1577C155.856 38.4576 154.03 39.1076 151.678 39.1076H147.585ZM151.573 37.624C155.408 37.624 157.326 35.6247 157.326 31.626C157.326 27.6415 155.408 25.6492 151.573 25.6492H148.424V37.624H151.573Z" fill="#434343"/>
<path d="M183.75 39.2135C183.484 39.2135 183.267 39.1358 183.1 38.9804C182.946 38.8109 182.869 38.5918 182.869 38.3234V25.6492H178.355C178.103 25.6492 177.907 25.5856 177.767 25.4585C177.627 25.3313 177.557 25.1476 177.557 24.9074C177.557 24.6672 177.627 24.4835 177.767 24.3564C177.907 24.2292 178.103 24.1656 178.355 24.1656H189.125C189.377 24.1656 189.573 24.2292 189.713 24.3564C189.852 24.4835 189.922 24.6672 189.922 24.9074C189.922 25.1476 189.852 25.3313 189.713 25.4585C189.573 25.5856 189.377 25.6492 189.125 25.6492H184.611V38.3234C184.611 38.5918 184.534 38.8109 184.38 38.9804C184.226 39.1358 184.016 39.2135 183.75 39.2135Z" fill="#434343"/>
<path d="M192.938 39.1076C192.672 39.1076 192.455 39.0299 192.288 38.8744C192.134 38.719 192.057 38.5141 192.057 38.2598V25.0134C192.057 24.7591 192.134 24.5542 192.288 24.3988C192.455 24.2433 192.672 24.1656 192.938 24.1656H200.79C201.042 24.1656 201.238 24.2292 201.378 24.3564C201.518 24.4835 201.588 24.6602 201.588 24.8862C201.588 25.1123 201.518 25.2889 201.378 25.4161C201.238 25.5433 201.042 25.6068 200.79 25.6068H193.757V30.7994H200.37C200.622 30.7994 200.818 30.863 200.958 30.9902C201.098 31.1173 201.168 31.294 201.168 31.52C201.168 31.7461 201.098 31.9227 200.958 32.0499C200.818 32.1771 200.622 32.2406 200.37 32.2406H193.757V37.6664H200.79C201.042 37.6664 201.238 37.7299 201.378 37.8571C201.518 37.9702 201.588 38.1468 201.588 38.387C201.588 38.613 201.518 38.7897 201.378 38.9168C201.238 39.044 201.042 39.1076 200.79 39.1076H192.938Z" fill="#434343"/>
</svg>
