<svg width="460" height="406" viewBox="0 0 460 406" fill="none" xmlns="http://www.w3.org/2000/svg">
<path d="M270.858 158.817C272.711 158.009 274.525 156.313 276.521 156.662C283.287 157.818 290.256 156.962 297.095 157.209C299.699 157.308 301.351 158.183 300.679 161.114C300.131 163.408 298.282 163.492 296.447 163.843C290.287 165.015 284.717 162.392 278.621 162.936C276.205 163.137 273.609 163.396 271.398 162.409C269.784 161.699 269.186 160.503 270.858 158.817Z" fill="#FABF4B"/>
<path d="M82.9763 186.42C71.9647 189.335 63.7291 184.077 54.8979 180.756C52.3248 179.781 52.3109 177.318 53.374 175.303C54.4058 173.334 56.6796 173.64 58.1464 174.556C65.2916 178.904 73.6509 180.893 81.3652 184.104C82.1977 184.452 82.8564 184.918 82.9763 186.42Z" fill="#FABF4B"/>
<path d="M37.9892 152.032C39.4436 153.812 40.9998 155.556 42.3138 157.454C43.3499 159.003 43.2352 160.577 41.3632 162.088C39.6242 163.517 38.1886 163.665 36.5778 162.373C32.5132 159.169 29.6402 155.087 27.5621 150.408C26.9793 149.037 26.8194 147.421 28.4439 146.206C30.0959 144.975 31.5487 145.534 32.6597 146.622C34.4547 148.405 36.1092 150.306 37.8489 152.15C37.8944 152.121 37.9437 152.061 37.9892 152.032Z" fill="#FABF4B"/>
<path d="M323.362 161.395C324.284 160.714 325.602 160.474 326.972 160.453C332.152 160.411 337.006 161.497 341.899 162.561C344.495 163.131 345.441 164.633 344.55 167.312C343.47 170.478 341.543 170.087 339.194 169.38C335.276 168.165 331.353 166.892 326.987 167.018C325.036 167.082 323.607 166.172 322.741 164.597C322.235 163.647 322.085 162.579 323.362 161.395Z" fill="#FABF4B"/>
<path d="M21.2126 128.329C17.84 124.817 16.454 120.077 14.1193 115.869C13.8421 115.327 13.7017 114.67 13.725 114.018C13.8057 112.3 13.6778 110.194 15.5375 109.297C17.6185 108.318 18.8915 110.047 19.6451 111.446C22.0806 115.814 24.176 120.367 26.5481 124.776C27.6395 126.762 27.6922 128.308 25.332 129.72C23.1802 131.024 21.9313 130.305 21.2126 128.329Z" fill="#FABF4B"/>
<path d="M442.89 394.45C442.245 393.477 441.645 392.616 441.108 391.714C440.46 390.579 439.915 389.32 441.309 388.174C442.538 387.159 443.819 386.221 445.503 387.44C448.927 389.916 452.56 392.18 456.017 394.612C457.476 395.668 458.21 397.077 457.498 399.119C456.581 401.762 455.233 403.217 452.632 401.423C449.286 399.173 446.077 396.747 442.89 394.45Z" fill="#FABF4B"/>
<path d="M401.022 197.247C402.432 201.885 406.111 206.225 408.915 211.132C409.399 211.954 409.223 213.235 409.156 214.302C409.075 215.439 408.526 216.567 407.256 216.887C406.332 217.122 405.543 216.493 405.107 215.751C401.844 210.365 398.585 204.977 395.478 199.494C394.674 198.071 393.969 195.971 395.969 194.769C397.938 193.608 399.207 195.286 401.022 197.247Z" fill="#FABF4B"/>
<path d="M123.35 192.77C122.69 193.085 121.675 193.714 120.612 194.121C114.789 196.322 109.026 195.49 103.295 195.245C101.742 195.166 99.4661 194.664 99.9875 192.22C100.534 189.728 102.344 190.17 104.253 190.326C110.053 190.778 115.904 189.555 121.751 188.612C123.25 188.368 124.956 187.128 125.637 189.241C126.164 190.762 124.73 191.605 123.35 192.77Z" fill="#FABF4B"/>
<path d="M200.828 171.553C195.668 175.489 189.683 176.795 184.204 179.246C182.594 179.955 181.582 179.221 181.307 177.704C180.986 176.027 180.62 174.124 183.19 173.438C188.357 172.045 192.971 169.239 197.873 167.186C199.551 166.493 201.501 165.208 202.674 167.169C203.807 169.076 201.732 170.304 200.828 171.553Z" fill="#FABF4B"/>
<path d="M421.742 365.218C419.455 361.089 416.756 357.281 415.412 352.794C414.758 350.582 415.041 348.403 418.124 347.603C420.774 346.893 421.045 348.69 421.268 350.459C421.783 354.203 424.426 356.8 425.927 360.02C426.106 360.405 426.437 360.689 426.746 360.989C428.603 362.871 429.334 365.255 426.849 367.25C423.92 369.611 423.528 365.672 421.742 365.218Z" fill="#FABF4B"/>
<path d="M226.916 163.149C232.125 160.121 237.829 158.856 243.73 158.49C245.092 158.415 245.833 159.104 245.81 160.338C245.784 161.912 245.3 163.97 243.786 164.335C238.355 165.648 232.975 168.255 227.414 167.458C224.913 167.13 224.721 164.922 226.916 163.149Z" fill="#FABF4B"/>
<path d="M11.7039 67.7545C13.1613 67.0937 14.564 67.1334 14.7033 68.8193C15.1339 74.5331 15.8944 80.2287 14.4589 86.0934C14.0717 87.6734 12.6017 89.0389 10.9717 89.0366C8.927 89.0502 8.97443 87.0238 9.14443 85.6377C9.76091 80.6613 8.25465 75.7806 10.174 70.7383C10.5934 69.6909 10.7704 68.6076 11.7039 67.7545Z" fill="#FABF4B"/>
<path d="M375.203 173.608C377.282 175.401 379.682 176.93 379.105 180.357C378.647 183.037 377.017 184.057 375.092 182.36C371.637 179.345 368.682 175.815 365.055 172.911C363.907 172.014 362.795 170.098 364.575 168.342C366.051 166.887 367.479 167.991 368.894 168.439C371.747 169.372 373.174 171.837 375.203 173.608Z" fill="#FABF4B"/>
<path d="M417.616 307.301C418.834 308.653 418.761 320.294 417.492 321.834C415.895 323.78 414.107 323.714 413.21 321.849C411.479 318.22 410.917 314.147 411.95 310.038C412.668 307.078 416.192 305.667 417.616 307.301Z" fill="#FABF4B"/>
<path d="M422.748 265.967C424.127 265.185 425.246 264.772 426.269 265.333C427.4 265.959 428.371 266.917 427.968 268.423C426.763 272.947 425.534 277.429 424.212 281.914C423.898 282.924 423.318 284.1 421.948 284.21C420.561 284.297 420.275 283.066 419.83 282.161C419.133 280.809 418.76 279.136 419.441 277.782C420.926 274.827 421.085 271.809 421.65 268.808C421.852 267.766 422.442 266.747 422.748 265.967Z" fill="#FABF4B"/>
<path d="M23.2601 31.8155C25.2317 31.1007 26.5259 29.0147 28.4965 30.1036C30.8068 31.3906 29.0246 33.0396 28.2816 34.5428C26.7013 37.7822 25.578 41.1684 23.5229 44.2443C22.4365 45.8303 21.0789 46.5967 19.5329 45.9864C18.2588 45.4748 18.1079 43.9612 18.665 42.6041C20.1683 38.9443 21.772 35.3004 23.2601 31.8155Z" fill="#FABF4B"/>
<path d="M55.3418 8.60408C53.0658 10.5454 49.8878 11.3447 48.3566 14.2751C47.931 15.1036 46.7639 15.497 46.0424 14.8784C45.4495 14.3741 44.973 13.5163 44.9024 12.7285C44.5173 8.84316 51.2156 2.13566 55.3037 2.24894C56.7747 2.29838 57.9687 2.82907 58.2287 4.27279C58.5968 6.36742 56.611 7.31127 55.3418 8.60408Z" fill="#FABF4B"/>
<path d="M416.288 243.763C412.94 239.457 412.682 234.993 412.309 230.598C412.118 228.587 412.705 226.489 415.35 226.17C417.504 225.892 418.632 227.439 418.607 229.255C418.546 233.789 420.142 238.475 416.288 243.763Z" fill="#FABF4B"/>
<path d="M162.363 180.887C158.884 187.596 153.016 188.94 147.45 190.671C146.527 190.96 145.863 190.194 145.504 189.375C144.764 187.716 146.274 186.6 147.317 186.263C152.084 184.771 156.219 181.352 162.363 180.887Z" fill="#FABF4B"/>
</svg>
