<svg width="1366" height="500" viewBox="0 0 1366 500" fill="none" xmlns="http://www.w3.org/2000/svg">
<path d="M1079.51 86.3434C1084.08 60.8528 1098.15 36.0594 1120.96 23.6672C1150.55 7.59343 1204.96 -4.55173 1254.08 1.6516C1293.3 6.61724 1330.21 21.7688 1366 39.0145V499.286C1353.61 500.232 1341.1 499.782 1328.82 497.878C1298.31 493.152 1268.69 479.45 1247.82 456.744C1227.6 434.721 1216.56 405.401 1213.04 375.793C1209.1 342.802 1212.5 305.22 1189.69 280.932C1173.16 263.329 1147.24 258.163 1127.85 243.747C1102.86 225.166 1091.6 193.592 1084.61 163.343C1078.77 138.102 1074.94 111.823 1079.51 86.3434Z" fill="#FFA8A1" fill-opacity="0.33"/>
<path d="M88.8513 453.87C78.6854 291.565 307.304 326.233 394.161 234.708C468.294 156.591 187.569 -72.9719 0 23.1195L1.78767e-05 466.863C48.5792 509.764 92.7376 515.918 88.8513 453.87Z" fill="#FABF4B" fill-opacity="0.3"/>
<path d="M723.007 190.413C722.448 191.809 722.534 193.637 721.083 194.52C716.185 197.524 712.566 201.662 708.257 205.168C706.614 206.501 705.004 206.932 703.367 205.082C702.099 203.621 703.159 202.596 704.024 201.443C706.933 197.574 712.131 195.952 715.439 192.437C716.76 191.051 718.15 189.541 720.176 188.869C721.646 188.374 722.842 188.666 723.007 190.413Z" fill="#FFD0B9"/>
<path d="M817.451 76.6C822.08 69.2648 830.727 67.5706 838.385 64.573C840.621 63.7032 842.347 64.9514 843.109 66.5437C843.857 68.0951 842.269 69.1473 840.743 69.4592C833.389 71.0377 826.946 74.4641 820.04 76.9248C819.294 77.1894 818.57 77.3018 817.451 76.6Z" fill="#FFD0B9"/>
<path d="M868.651 70.2387C866.53 70.104 864.372 70.0412 862.255 69.7719C860.547 69.5321 859.519 68.6688 859.598 66.9039C859.654 65.2518 860.419 64.4135 862.295 64.2168C866.988 63.6908 871.572 64.2458 876.092 65.5276C877.4 65.9167 878.624 66.6556 878.488 68.1383C878.347 69.6434 877.078 70.1301 875.648 70.1658C873.318 70.2101 870.992 70.1199 868.654 70.1041C868.646 70.1428 868.659 70.2 868.651 70.2387Z" fill="#FFD0B9"/>
<path d="M689.44 216.982C689.357 217.819 688.727 218.642 687.913 219.379C684.809 222.152 681.115 224.177 677.415 226.233C675.446 227.322 673.827 227.058 672.498 225.22C670.945 223.032 672.382 222.208 674.296 221.321C677.514 219.859 680.774 218.424 683.327 216.041C684.463 214.972 685.961 214.677 687.583 215.019C688.552 215.235 689.387 215.7 689.44 216.982Z" fill="#FFD0B9"/>
<path d="M895.336 73.4073C899.825 73.4064 903.968 75.0866 908.315 75.9918C908.86 76.1208 909.403 76.3812 909.844 76.7263C910.993 77.6449 912.539 78.6508 912.039 80.0956C911.462 81.7002 909.487 81.4951 908.055 81.182C903.536 80.249 899.094 79.0411 894.585 78.0531C892.54 77.6204 891.43 76.8604 891.874 74.8867C892.266 73.0788 893.523 72.7816 895.336 73.4073Z" fill="#FFD0B9"/>
<path d="M454.582 161.673C455.65 161.827 456.614 161.946 457.568 162.121C458.751 162.356 459.959 162.708 459.914 164.032C459.878 165.203 459.758 166.362 457.889 166.635C454.091 167.191 450.315 167.967 446.528 168.564C444.909 168.8 443.483 168.471 442.49 167.052C441.201 165.218 441.003 163.76 443.826 163.293C447.42 162.663 451.052 162.195 454.582 161.673Z" fill="#FFD0B9"/>
<path d="M617.445 239.949C613.359 238.334 608.106 238.075 602.988 237.063C602.122 236.901 601.336 236.155 600.632 235.575C599.888 234.952 599.434 234.086 599.98 233.248C600.375 232.637 601.29 232.538 602.072 232.685C607.801 233.698 613.53 234.714 619.233 235.859C620.711 236.157 622.602 236.853 622.231 238.528C621.849 240.166 619.912 239.985 617.445 239.949Z" fill="#FFD0B9"/>
<path d="M788.592 94.8022C788.772 94.2912 788.947 93.4311 789.307 92.6592C791.294 88.4445 795.36 85.8075 798.998 82.889C799.992 82.1041 801.719 81.1518 803.107 82.6742C804.513 84.2347 803.111 84.9707 801.847 85.9053C798.024 88.755 795.338 92.4861 792.458 96.072C791.722 96.9923 791.554 98.5308 789.669 97.8153C788.29 97.3202 788.57 96.1288 788.592 94.8022Z" fill="#FFD0B9"/>
<path d="M756.506 146.751C756.884 142.004 759.592 138.161 761.198 134.002C761.678 132.785 762.801 132.622 764.025 133.249C765.389 133.933 766.936 134.709 765.86 136.423C763.706 139.877 762.871 143.758 761.337 147.408C760.805 148.652 760.522 150.343 758.445 149.966C756.431 149.596 756.83 147.867 756.506 146.751Z" fill="#FFD0B9"/>
<path d="M487.767 165.345C492.03 166.235 496.317 166.743 500.259 168.317C502.198 169.097 503.546 170.358 502.238 172.404C501.13 174.173 499.713 173.401 498.345 172.618C495.423 170.982 492.013 171.062 488.859 170.218C488.483 170.117 488.084 170.148 487.688 170.159C485.253 170.186 483.148 169.359 483.26 167.022C483.387 164.262 486.37 166.062 487.767 165.345Z" fill="#FFD0B9"/>
<path d="M746.577 164.882C745.537 169.192 742.969 172.866 739.655 176.186C738.883 176.948 737.955 176.99 737.108 176.349C736.027 175.533 734.885 174.227 735.546 173.237C737.916 169.683 739.353 165.497 743.272 162.95C745.013 161.788 746.669 162.812 746.577 164.882Z" fill="#FFD0B9"/>
<path d="M943.331 99.2334C942.911 100.344 942.034 101.069 940.775 100.284C936.531 97.5996 932.1 95.1001 928.88 91.3478C928.012 90.3367 927.95 88.8597 928.937 87.9951C930.164 86.9021 931.549 87.9604 932.412 88.7573C935.508 91.6216 939.822 93.3097 942.177 96.8996C942.653 97.6564 943.301 98.3026 943.331 99.2334Z" fill="#FFD0B9"/>
<path d="M968.941 123.09C968.52 124.201 967.644 124.926 966.385 124.14C962.141 121.456 957.71 118.956 954.49 115.204C953.622 114.193 953.559 112.716 954.547 111.852C955.774 110.759 957.158 111.817 958.022 112.614C961.118 115.478 965.432 117.166 967.787 120.756C968.263 121.513 968.911 122.159 968.941 123.09Z" fill="#FFD0B9"/>
<path d="M996.715 146.081C996.295 147.192 995.418 147.917 994.159 147.131C989.915 144.447 985.484 141.948 982.264 138.195C981.396 137.184 981.334 135.707 982.321 134.843C983.549 133.75 984.933 134.808 985.796 135.605C988.893 138.469 993.206 140.157 995.561 143.747C996.037 144.504 996.685 145.15 996.715 146.081Z" fill="#FFD0B9"/>
<path d="M649.556 238.286C647.047 238.476 644.53 238.971 642.489 236.917C640.898 235.308 641.172 233.922 643.52 233.764C647.713 233.466 651.962 233.697 656.181 233.25C657.5 233.098 659.509 233.484 659.657 235.325C659.778 236.85 658.145 237.046 656.977 237.569C654.6 238.609 652.018 238.111 649.556 238.286Z" fill="#FFD0B9"/>
<path d="M530.652 192.671C528.973 192.628 520.901 186.655 520.595 185.196C520.205 183.356 521.332 182.44 523.175 182.914C526.752 183.845 529.931 185.623 532.171 188.266C533.801 190.156 532.652 192.747 530.652 192.671Z" fill="#FFD0B9"/>
<path d="M556.373 216.462C556.084 217.593 555.695 218.398 554.685 218.655C553.564 218.937 552.309 218.965 551.502 217.983C549.077 215.037 546.696 212.099 544.369 209.111C543.855 208.429 543.386 207.522 544.138 206.738C544.916 205.957 545.947 206.432 546.848 206.657C548.212 206.977 549.604 207.631 550.136 208.683C551.298 210.978 553.305 212.601 555.056 214.431C555.66 215.069 556.014 215.902 556.373 216.462Z" fill="#FFD0B9"/>
<path d="M414.448 173.091C415.922 173.175 417.395 173.012 418.062 174.413C418.679 175.711 418.044 176.806 416.853 177.479C414.338 178.922 412.018 180.842 408.671 180.718C407.258 180.66 405.967 180.276 405.421 178.933C404.896 177.609 405.463 176.526 406.718 175.881C409.159 174.617 411.662 173.367 414.448 173.091Z" fill="#FFD0B9"/>
<path d="M382.15 193.662C383.624 193.746 385.098 193.583 385.765 194.985C386.382 196.283 385.747 197.378 384.556 198.05C382.04 199.493 379.721 201.413 376.374 201.29C374.96 201.232 373.67 200.848 373.124 199.505C372.599 198.18 373.166 197.098 374.421 196.452C376.862 195.189 379.365 193.939 382.15 193.662Z" fill="#FFD0B9"/>
<path d="M773.27 121.57C770.698 116.302 773.31 112.501 775.47 108.663C775.827 108.026 776.762 108.064 777.551 108.29C779.154 108.743 779.019 110.114 778.623 110.839C776.78 114.131 776.662 118.07 773.27 121.57Z" fill="#FFD0B9"/>
<path d="M570.736 227.877C571.265 227.453 572.831 227.224 574.541 227.315C575.693 227.379 579.097 227.558 580.687 224.912C580.728 224.861 580.763 224.811 580.792 224.752C580.806 224.723 580.817 224.697 580.83 224.669C580.841 224.643 580.86 224.619 580.874 224.591C580.903 224.531 580.922 224.473 580.935 224.414C582.081 221.587 579.685 219.389 578.873 218.65C577.668 217.548 576.826 216.334 576.824 215.695C576.831 212.961 574.781 210.483 571.836 209.665C569.138 208.915 566.495 209.786 564.938 211.939C564.757 212.19 564.598 212.455 564.46 212.727C564.091 213.472 563.89 214.288 563.874 215.125C563.869 215.494 563.9 215.839 563.935 216.174C563.99 216.755 564.033 217.262 563.869 217.726C563.592 218.144 563.14 218.451 562.623 218.797C562.325 218.995 562.014 219.201 561.715 219.45C561.027 220.013 560.484 220.686 560.11 221.431C559.975 221.706 559.859 221.987 559.772 222.278C559.012 224.755 560.032 227.128 562.437 228.466C565.062 229.924 568.473 229.68 570.736 227.877Z" fill="#FFD0B9"/>
<path d="M581.935 216.595C584.617 217.31 587.339 216.445 588.268 214.585C588.342 214.436 588.405 214.278 588.456 214.123C589.128 211.979 587.296 209.603 584.37 208.825C581.69 208.112 578.966 208.975 578.037 210.835C577.963 210.984 577.9 211.142 577.849 211.298C577.18 213.443 579.012 215.82 581.935 216.595Z" fill="#FFD0B9"/>
<path d="M583.862 220.233C582.847 222.258 584.285 224.834 587.061 225.97C589.841 227.109 592.928 226.384 593.94 224.357C594.954 222.327 593.517 219.755 590.738 218.616C587.961 217.48 584.876 218.203 583.862 220.233Z" fill="#FFD0B9"/>
<path d="M574.346 238.232C575.717 238.027 576.793 237.371 577.379 236.39C578.553 234.426 577.301 231.774 574.621 230.481C573.357 229.869 571.947 229.637 570.659 229.835C569.287 230.04 568.208 230.693 567.625 231.677C567.584 231.743 567.542 231.815 567.511 231.886C566.535 233.833 567.799 236.337 570.383 237.586C571.65 238.196 573.054 238.428 574.346 238.232Z" fill="#FFD0B9"/>
<path d="M579.207 229.547C578.193 231.577 579.627 234.151 582.409 235.287C585.186 236.424 588.27 235.701 589.285 233.676C590.299 231.646 588.862 229.07 586.085 227.933C583.306 226.794 580.222 227.522 579.207 229.547Z" fill="#FFD0B9"/>
<path d="M687.368 222.187C687.161 221.57 687.587 220.22 688.4 218.906C688.949 218.021 690.563 215.405 688.553 212.906C688.519 212.851 688.483 212.799 688.435 212.748C688.412 212.724 688.39 212.703 688.367 212.679C688.345 212.659 688.329 212.632 688.306 212.608C688.258 212.557 688.207 212.515 688.153 212.477C685.773 210.246 682.54 211.12 681.449 211.418C679.827 211.859 678.243 211.96 677.595 211.663C674.83 210.38 671.458 210.848 669.391 212.802C667.496 214.592 667.266 217.096 668.79 219.338C668.969 219.599 669.169 219.849 669.388 220.086C669.986 220.727 670.728 221.268 671.568 221.671C671.941 221.847 672.303 221.984 672.657 222.113C673.268 222.341 673.799 222.543 674.2 222.891C674.506 223.306 674.627 223.808 674.76 224.38C674.835 224.709 674.913 225.052 675.039 225.406C675.319 226.215 675.772 226.96 676.369 227.605C676.59 227.84 676.826 228.064 677.085 228.269C679.273 230.03 682.104 230.33 684.471 229.047C687.052 227.646 688.241 224.826 687.368 222.187Z" fill="#FFD0B9"/>
<path d="M680.662 208.03C682.515 206.236 682.784 203.672 681.292 202.066C681.172 201.937 681.039 201.813 680.903 201.701C679.015 200.165 675.838 200.508 673.82 202.466C671.97 204.259 671.698 206.825 673.189 208.43C673.309 208.559 673.443 208.683 673.579 208.796C675.47 210.33 678.647 209.987 680.662 208.03Z" fill="#FFD0B9"/>
<path d="M685.156 208.196C686.78 209.948 689.993 210.012 692.312 208.34C694.635 206.667 695.2 203.879 693.573 202.128C691.945 200.374 688.736 200.312 686.414 201.986C684.094 203.658 683.528 206.443 685.156 208.196Z" fill="#FFD0B9"/>
<path d="M699.368 224.158C699.737 222.973 699.526 221.813 698.779 220.89C697.284 219.04 694.073 218.794 691.635 220.315C690.483 221.033 689.656 222.043 689.313 223.158C688.944 224.342 689.152 225.503 689.902 226.425C689.952 226.49 690.007 226.556 690.066 226.614C691.626 228.299 694.694 228.467 697.046 227C698.196 226.279 699.022 225.273 699.368 224.158Z" fill="#FFD0B9"/>
<path d="M692.627 216.242C694.256 217.996 697.465 218.061 699.787 216.385C702.106 214.713 702.672 211.928 701.049 210.176C699.42 208.422 696.207 208.358 693.888 210.03C691.565 211.704 691.003 214.491 692.627 216.242Z" fill="#FFD0B9"/>
<path d="M780.656 120.34C780.241 119.807 780.159 118.396 780.452 116.911C780.653 115.911 781.234 112.954 778.45 111.13C778.398 111.087 778.346 111.048 778.283 111.012C778.253 110.996 778.225 110.982 778.194 110.966C778.166 110.952 778.142 110.931 778.111 110.915C778.048 110.88 777.985 110.854 777.921 110.832C774.884 109.369 772.157 111.116 771.238 111.708C769.87 112.587 768.416 113.129 767.701 113.028C764.643 112.58 761.639 113.977 760.393 116.428C759.253 118.673 759.932 121.133 762.167 122.847C762.428 123.047 762.706 123.229 762.996 123.394C763.788 123.839 764.68 124.147 765.614 124.297C766.027 124.36 766.417 124.389 766.796 124.413C767.452 124.458 768.024 124.502 768.525 124.721C768.962 125.033 769.255 125.479 769.585 125.988C769.773 126.282 769.969 126.588 770.214 126.891C770.767 127.585 771.459 128.17 772.251 128.619C772.544 128.782 772.845 128.929 773.162 129.052C775.849 130.12 778.619 129.61 780.386 127.716C782.312 125.649 782.421 122.617 780.656 120.34Z" fill="#FFD0B9"/>
<path d="M769.275 108.686C770.376 106.449 769.712 103.921 767.735 102.806C767.576 102.716 767.406 102.635 767.238 102.566C764.914 101.629 762.049 102.852 760.852 105.293C759.754 107.528 760.415 110.058 762.392 111.173C762.551 111.263 762.721 111.344 762.889 111.413C765.216 112.348 768.081 111.125 769.275 108.686Z" fill="#FFD0B9"/>
<path d="M773.559 107.59C775.713 108.807 778.757 107.964 780.34 105.712C781.925 103.458 781.459 100.632 779.303 99.4168C777.144 98.1985 774.105 99.0426 772.52 101.297C770.937 103.549 771.401 106.371 773.559 107.59Z" fill="#FFD0B9"/>
<path d="M792.646 118.857C792.569 117.62 791.956 116.57 790.923 115.898C788.856 114.55 785.748 115.219 784 117.36C783.174 118.371 782.757 119.57 782.834 120.732C782.911 121.968 783.521 123.02 784.556 123.691C784.626 123.738 784.702 123.786 784.778 123.825C786.848 124.997 789.792 124.293 791.479 122.229C792.303 121.215 792.72 120.021 792.646 118.857Z" fill="#FFD0B9"/>
<path d="M783.468 113.184C785.627 114.402 788.668 113.561 790.251 111.304C791.834 109.052 791.37 106.229 789.217 105.011C787.058 103.793 784.014 104.637 782.432 106.889C780.846 109.143 781.315 111.966 783.468 113.184Z" fill="#FFD0B9"/>
</svg>
