<svg width="49" height="44" viewBox="0 0 49 44" fill="none" xmlns="http://www.w3.org/2000/svg">
<path d="M38.1035 39.8077C37.9952 39.1246 37.8361 38.4523 37.6715 37.7955L37.6715 37.7955L37.6698 37.7891C37.5709 37.4154 37.4729 37.0382 37.3834 36.6623L37.3836 36.6623L37.3804 36.6502C37.3406 36.4998 37.3065 36.3446 37.2706 36.1809C37.2648 36.1545 37.2589 36.1278 37.253 36.1009L37.2521 36.0968C37.2425 36.0553 37.234 36.0098 37.2236 35.9524L37.2211 35.9388C37.2123 35.8903 37.2019 35.8334 37.1897 35.7755L37.1859 35.7535C37.1825 35.7342 37.1779 35.7079 37.173 35.6807C37.1682 35.654 37.1626 35.6241 37.1574 35.5983C37.155 35.5862 37.1521 35.5723 37.1491 35.559C37.1035 35.2079 37.0745 34.8658 37.0745 34.529C37.0745 34.3507 37.0892 34.1613 37.1059 33.9571L37.1068 33.946L37.1085 33.9318C37.1096 33.9217 37.1113 33.9068 37.1127 33.8908C37.1334 33.7959 37.1542 33.7051 37.1756 33.6118C37.3694 32.8944 37.7462 32.3261 38.2386 31.5835C38.2717 31.5335 38.3054 31.4828 38.3395 31.4312L38.3404 31.4299C38.8368 30.6744 39.2931 29.9014 39.6997 29.0966C39.6999 29.0963 39.7001 29.0959 39.7002 29.0956L38.1035 39.8077ZM38.1035 39.8077C40.7812 38.7503 43.125 37.251 44.823 35.1979C46.3158 33.3913 47.2295 31.2212 47.7044 29.012C48.1888 26.6822 48.2713 24.2727 48.1002 21.8782C48.0105 20.6559 47.8554 19.4372 47.6665 18.2129C47.4448 16.7815 47.1759 15.3712 46.7712 13.9881C46.0165 11.4342 44.6762 9.09624 42.7375 7.06276C40.9424 5.18229 38.6665 3.61896 36.151 2.51905C30.6747 0.125172 23.9984 -0.171665 18.2878 1.79818C17.3488 2.12277 16.4418 2.50394 15.5667 2.9348L15.549 2.94352L15.5306 2.95082C13.0694 3.9298 11.0429 5.62502 9.23269 7.43862L9.23196 7.43934C5.23842 11.4239 1.56239 15.999 0.696958 21.2028C0.297264 23.6068 0.505019 26.0441 1.32826 28.3641C2.138 30.6423 3.47234 32.7484 5.18732 34.6241C5.43488 34.8948 5.69126 35.1598 5.95532 35.4182C6.08931 33.9563 6.30654 32.4997 6.61153 31.0522C7.15656 28.4576 7.98658 25.9145 9.09305 23.4667L9.09331 23.4661C9.66108 22.2143 10.2808 20.9802 10.9859 19.7729L10.9862 19.7723C11.5922 18.7379 12.3091 17.6855 13.2823 16.8065L13.2824 16.8065C14.2717 15.9133 15.5613 15.227 17.0072 15.0313L17.0073 15.0313C18.3799 14.846 19.7249 15.0406 20.9851 15.48L20.9861 15.4804C21.9856 15.8313 22.9367 16.2727 23.8622 16.7022C24.0656 16.7966 24.2678 16.8904 24.469 16.9825L24.4746 16.9851L24.4746 16.9852C24.7579 17.1192 25.0394 17.2454 25.3276 17.364L25.3371 17.3679L25.3371 17.368C25.4601 17.4216 25.5753 17.4685 25.6985 17.5156C25.7306 17.5271 25.7974 17.5519 25.8536 17.5731C25.8852 17.585 25.9172 17.5973 25.9416 17.6068C25.9528 17.6112 25.9666 17.6167 25.9789 17.622C26.0455 17.645 26.112 17.6672 26.1785 17.6887L38.1035 39.8077ZM41.8014 13.0619C42.5954 16.6408 42.5446 20.3226 41.6665 23.8851L33.5983 8.61297C33.5984 8.61292 33.5984 8.61286 33.5985 8.61281C34.3804 7.89493 35.2988 7.12307 36.6527 6.99839L36.6544 6.99824C37.7945 6.89718 38.9054 7.38223 39.6277 8.11957C41.0085 9.52069 41.4505 11.4685 41.8014 13.0619ZM41.8014 13.0619C41.8014 13.0619 41.8014 13.062 41.8015 13.062L41.3132 13.1695L41.8013 13.0612C41.8013 13.0615 41.8014 13.0617 41.8014 13.0619ZM25.526 17.985C25.5506 17.9936 25.6427 18.0277 25.7114 18.0539L25.7906 17.5859C25.7745 17.5859 25.7295 17.5863 25.6728 17.6L25.526 17.985ZM25.526 17.985L25.659 17.6036C25.6558 17.6044 25.6526 17.6053 25.6493 17.6063C25.6006 17.6207 25.4083 17.6865 25.3245 17.9055C25.391 17.9326 25.4574 17.9588 25.526 17.985Z" fill="#8675A5" stroke="black"/>
<mask id="path-2-outside-1" maskUnits="userSpaceOnUse" x="4.35645" y="6.49902" width="39" height="38" fill="black">
<rect fill="white" x="4.35645" y="6.49902" width="39" height="38"/>
<path d="M36.8805 36.7922C36.8391 36.6047 36.7895 36.4101 36.7481 36.2227C36.7233 36.1073 36.6985 35.992 36.682 35.8839C36.682 35.8839 36.6489 35.6892 36.6406 35.6676C36.5827 35.2928 36.5579 34.9179 36.5579 34.543C36.5579 34.334 36.5745 34.1322 36.591 33.9303C36.591 33.9159 36.5993 33.8654 36.5993 33.8366C36.6158 33.7285 36.6406 33.6131 36.6737 33.505C36.897 32.6327 37.3767 31.9695 37.9059 31.1694C38.3938 30.4269 38.8404 29.6627 39.2374 28.8842C40.0726 27.2406 40.7342 25.5393 41.1642 23.7804C42.0243 20.2914 42.0739 16.687 41.2966 13.1836C40.941 11.5688 40.5192 9.75945 39.2539 8.48351C38.6254 7.84193 37.6578 7.42382 36.682 7.51033C35.5077 7.61125 34.6972 8.28167 33.9199 8.99533C30.9179 11.7563 28.3708 14.8993 26.3943 18.2946C26.1875 18.2369 25.9808 18.172 25.7741 18.1C25.7823 18.1 25.559 18.0206 25.5094 17.999C25.3771 17.9486 25.253 17.8981 25.1207 17.8404C24.823 17.7179 24.5336 17.5881 24.2441 17.4512C23.1112 16.9321 21.9947 16.3843 20.8039 15.9662C19.6047 15.5481 18.3395 15.3679 17.0576 15.5409C15.7262 15.7139 14.5271 16.3554 13.6008 17.1917C12.6911 18.0207 11.9965 19.0227 11.4011 20.0391C10.7147 21.2285 10.0944 22.4468 9.53207 23.6867C8.44045 26.1016 7.62173 28.6175 7.08419 31.1694C6.71205 32.9355 6.47222 34.7161 6.35645 36.5038C9.92075 39.6612 14.6428 41.7013 19.6709 42.4582C25.7079 43.3665 32.0343 42.624 37.6661 40.5335C37.5834 39.6685 37.3849 38.8034 37.1616 37.9528C37.0707 37.5491 36.9714 37.1742 36.8805 36.7922ZM36.9053 9.7234C36.9714 9.74503 37.0707 9.77387 36.9053 9.7234V9.7234Z"/>
</mask>
<path d="M36.8805 36.7922C36.8391 36.6047 36.7895 36.4101 36.7481 36.2227C36.7233 36.1073 36.6985 35.992 36.682 35.8839C36.682 35.8839 36.6489 35.6892 36.6406 35.6676C36.5827 35.2928 36.5579 34.9179 36.5579 34.543C36.5579 34.334 36.5745 34.1322 36.591 33.9303C36.591 33.9159 36.5993 33.8654 36.5993 33.8366C36.6158 33.7285 36.6406 33.6131 36.6737 33.505C36.897 32.6327 37.3767 31.9695 37.9059 31.1694C38.3938 30.4269 38.8404 29.6627 39.2374 28.8842C40.0726 27.2406 40.7342 25.5393 41.1642 23.7804C42.0243 20.2914 42.0739 16.687 41.2966 13.1836C40.941 11.5688 40.5192 9.75945 39.2539 8.48351C38.6254 7.84193 37.6578 7.42382 36.682 7.51033C35.5077 7.61125 34.6972 8.28167 33.9199 8.99533C30.9179 11.7563 28.3708 14.8993 26.3943 18.2946C26.1875 18.2369 25.9808 18.172 25.7741 18.1C25.7823 18.1 25.559 18.0206 25.5094 17.999C25.3771 17.9486 25.253 17.8981 25.1207 17.8404C24.823 17.7179 24.5336 17.5881 24.2441 17.4512C23.1112 16.9321 21.9947 16.3843 20.8039 15.9662C19.6047 15.5481 18.3395 15.3679 17.0576 15.5409C15.7262 15.7139 14.5271 16.3554 13.6008 17.1917C12.6911 18.0207 11.9965 19.0227 11.4011 20.0391C10.7147 21.2285 10.0944 22.4468 9.53207 23.6867C8.44045 26.1016 7.62173 28.6175 7.08419 31.1694C6.71205 32.9355 6.47222 34.7161 6.35645 36.5038C9.92075 39.6612 14.6428 41.7013 19.6709 42.4582C25.7079 43.3665 32.0343 42.624 37.6661 40.5335C37.5834 39.6685 37.3849 38.8034 37.1616 37.9528C37.0707 37.5491 36.9714 37.1742 36.8805 36.7922ZM36.9053 9.7234C36.9714 9.74503 37.0707 9.77387 36.9053 9.7234V9.7234Z" fill="#F2EBC7"/>
<path d="M36.8805 36.7922L35.9039 37.0076L35.9057 37.0157L35.9077 37.0238L36.8805 36.7922ZM36.7481 36.2227L35.7705 36.433L35.7716 36.4381L36.7481 36.2227ZM36.682 35.8839L37.6705 35.7327L37.6692 35.7245L37.6678 35.7163L36.682 35.8839ZM36.6406 35.6676L35.6524 35.8202L35.6686 35.9254L35.7066 36.0248L36.6406 35.6676ZM36.591 33.9303L37.5877 34.012L37.591 33.9712V33.9303H36.591ZM36.5993 33.8366L35.6108 33.6854L35.5993 33.7606V33.8366H36.5993ZM36.6737 33.505L37.63 33.7975L37.6367 33.7754L37.6425 33.753L36.6737 33.505ZM37.9059 31.1694L38.74 31.721L38.7416 31.7185L37.9059 31.1694ZM39.2374 28.8842L40.1283 29.3384L40.1289 29.3372L39.2374 28.8842ZM41.1642 23.7804L40.1933 23.5411L40.1929 23.5429L41.1642 23.7804ZM41.2966 13.1836L40.32 13.3987L40.3203 13.4002L41.2966 13.1836ZM39.2539 8.48351L38.5396 9.18331L38.5438 9.18764L39.2539 8.48351ZM36.682 7.51033L36.7676 8.50666L36.7703 8.50642L36.682 7.51033ZM33.9199 8.99533L33.2436 8.25869L33.2429 8.2593L33.9199 8.99533ZM26.3943 18.2946L26.1256 19.2578L26.8698 19.4654L27.2585 18.7977L26.3943 18.2946ZM25.7741 18.1V17.1L25.4448 19.0442L25.7741 18.1ZM25.5094 17.999L25.909 17.0823L25.8876 17.073L25.8657 17.0647L25.5094 17.999ZM25.1207 17.8404L25.5203 16.9237L25.5109 16.9196L25.5014 16.9157L25.1207 17.8404ZM24.2441 17.4512L24.6719 16.5472L24.6606 16.542L24.2441 17.4512ZM20.8039 15.9662L21.1351 15.0226L21.1331 15.0219L20.8039 15.9662ZM17.0576 15.5409L17.1865 16.5325L17.1914 16.5319L17.0576 15.5409ZM13.6008 17.1917L12.9307 16.4494L12.9273 16.4525L13.6008 17.1917ZM11.4011 20.0391L10.5382 19.5336L10.5349 19.5393L11.4011 20.0391ZM9.53207 23.6867L8.62136 23.2737L8.62084 23.2748L9.53207 23.6867ZM7.08419 31.1694L8.0627 31.3755L8.06272 31.3755L7.08419 31.1694ZM6.35645 36.5038L5.35854 36.4392L5.3269 36.9277L5.69336 37.2524L6.35645 36.5038ZM19.6709 42.4582L19.522 43.4471L19.5221 43.4471L19.6709 42.4582ZM37.6661 40.5335L38.0141 41.471L38.7347 41.2035L38.6616 40.4383L37.6661 40.5335ZM37.1616 37.9528L36.1861 38.1726L36.19 38.1897L36.1944 38.2067L37.1616 37.9528ZM36.9053 9.7234L37.1971 8.76693L36.5946 10.6739L36.9053 9.7234ZM37.857 36.5767C37.8342 36.4735 37.8095 36.3698 37.7871 36.2758C37.764 36.1788 37.7432 36.0915 37.7247 36.0072L35.7716 36.4381C35.7944 36.5413 35.8191 36.645 35.8415 36.739C35.8646 36.836 35.8854 36.9234 35.9039 37.0076L37.857 36.5767ZM37.7258 36.0124C37.6996 35.8905 37.6816 35.8056 37.6705 35.7327L35.6935 36.0351C35.7154 36.1784 35.7471 36.3242 35.7705 36.433L37.7258 36.0124ZM36.682 35.8839C37.6678 35.7163 37.6678 35.7163 37.6678 35.7163C37.6678 35.7163 37.6678 35.7163 37.6678 35.7163C37.6678 35.7162 37.6678 35.7162 37.6678 35.7162C37.6678 35.7161 37.6678 35.7161 37.6678 35.716C37.6678 35.7158 37.6677 35.7156 37.6677 35.7154C37.6676 35.7149 37.6675 35.7142 37.6673 35.7134C37.6671 35.7117 37.6666 35.7093 37.6661 35.7063C37.6651 35.7004 37.6637 35.692 37.6619 35.6819C37.6584 35.6619 37.6536 35.6344 37.6484 35.6056C37.6434 35.5778 37.6372 35.5444 37.6311 35.5141C37.6282 35.4995 37.6241 35.4799 37.6195 35.4595C37.6172 35.4495 37.6135 35.434 37.6087 35.4161C37.606 35.4059 37.5946 35.3625 37.5747 35.3104L35.7066 36.0248C35.6877 35.9754 35.6775 35.9361 35.6762 35.9311C35.6728 35.9184 35.6707 35.9094 35.6701 35.9067C35.6688 35.9011 35.6687 35.9003 35.6701 35.9069C35.6725 35.9192 35.6762 35.9385 35.6804 35.9621C35.6845 35.9847 35.6885 36.0072 35.6915 36.0244C35.6929 36.0329 35.6941 36.0399 35.695 36.0446C35.6954 36.047 35.6957 36.0488 35.6959 36.05C35.696 36.0506 35.696 36.051 35.6961 36.0512C35.6961 36.0514 35.6961 36.0514 35.6961 36.0515C35.6961 36.0515 35.6961 36.0515 35.6961 36.0515C35.6961 36.0515 35.6961 36.0515 35.6961 36.0515C35.6961 36.0515 35.6961 36.0515 35.6961 36.0515C35.6961 36.0514 35.6961 36.0514 36.682 35.8839ZM37.6289 35.515C37.5798 35.1971 37.5579 34.8738 37.5579 34.543H35.5579C35.5579 34.962 35.5857 35.3884 35.6524 35.8202L37.6289 35.515ZM37.5579 34.543C37.5579 34.3814 37.5707 34.2197 37.5877 34.012L35.5944 33.8486C35.5783 34.0446 35.5579 34.2866 35.5579 34.543H37.5579ZM37.591 33.9303C37.591 33.9519 37.5903 33.969 37.5898 33.979C37.5892 33.9896 37.5886 33.9981 37.5882 34.0034C37.5874 34.0134 37.5866 34.0202 37.5866 34.0206C37.5865 34.0215 37.5865 34.0212 37.5869 34.0175C37.5872 34.0152 37.588 34.0083 37.5886 34.0029C37.5899 33.9914 37.5923 33.9706 37.5943 33.9471C37.5954 33.935 37.5965 33.9197 37.5975 33.9025C37.5984 33.8858 37.5993 33.863 37.5993 33.8366H35.5993C35.5993 33.8174 35.5999 33.8025 35.6004 33.7941C35.6009 33.7852 35.6014 33.7788 35.6017 33.7756C35.6021 33.7701 35.6024 33.7683 35.6017 33.7748C35.6013 33.7784 35.601 33.7803 35.6003 33.7864C35.5998 33.791 35.5989 33.7985 35.598 33.8067C35.5972 33.8143 35.5958 33.8276 35.5946 33.8432C35.5939 33.8513 35.5931 33.8624 35.5924 33.8754C35.5918 33.8877 35.591 33.9069 35.591 33.9303H37.591ZM37.5878 33.9878C37.5982 33.9195 37.6132 33.8522 37.63 33.7975L35.7175 33.2125C35.668 33.374 35.6334 33.5375 35.6108 33.6854L37.5878 33.9878ZM37.6425 33.753C37.8144 33.0813 38.1742 32.5764 38.74 31.721L37.0719 30.6177C36.5791 31.3627 35.9796 32.1842 35.705 33.257L37.6425 33.753ZM38.7416 31.7185C39.2486 30.9471 39.7138 30.1513 40.1283 29.3384L38.3465 28.43C37.967 29.1742 37.5391 29.9067 37.0702 30.6202L38.7416 31.7185ZM40.1289 29.3372C40.9936 27.6357 41.6847 25.8622 42.1356 24.0179L40.1929 23.5429C39.7837 25.2165 39.1517 26.8456 38.3459 28.4312L40.1289 29.3372ZM42.1352 24.0198C43.0317 20.3827 43.0839 16.6223 42.2728 12.967L40.3203 13.4002C41.064 16.7518 41.0169 20.2001 40.1933 23.5411L42.1352 24.0198ZM42.2732 12.9685C41.9273 11.3979 41.4646 9.29262 39.964 7.77937L38.5438 9.18764C39.5738 10.2263 39.9546 11.7398 40.32 13.3987L42.2732 12.9685ZM39.9683 7.78371C39.1521 6.95061 37.898 6.39862 36.5937 6.51424L36.7703 8.50642C37.4177 8.44903 38.0987 8.73325 38.5396 9.1833L39.9683 7.78371ZM36.5964 6.514C35.0558 6.6464 34.0254 7.54089 33.2436 8.25869L34.5961 9.73198C35.369 9.02245 35.9595 8.57611 36.7676 8.50666L36.5964 6.514ZM33.2429 8.2593C30.1706 11.085 27.5592 14.3057 25.5301 17.7915L27.2585 18.7977C29.1824 15.4928 31.6652 12.4276 34.5968 9.73137L33.2429 8.2593ZM26.663 17.3314C26.477 17.2795 26.2904 17.221 26.1033 17.1557L25.4448 19.0442C25.6712 19.1231 25.8981 19.1944 26.1256 19.2578L26.663 17.3314ZM25.7741 19.1C25.8092 19.1 25.9077 19.0989 26.0287 19.067C26.1039 19.0472 26.4865 18.9415 26.6816 18.5203C26.8995 18.05 26.6799 17.6584 26.6133 17.5558C26.532 17.4304 26.4418 17.3543 26.4131 17.3305C26.3434 17.2726 26.2811 17.2376 26.268 17.2301C26.244 17.2165 26.2243 17.2066 26.2139 17.2015C26.1789 17.1843 26.1486 17.1721 26.1453 17.1708C26.1268 17.1632 26.1079 17.156 26.097 17.1519C26.0719 17.1424 26.0387 17.1302 26.01 17.1196C25.9291 17.0897 25.8998 17.0783 25.909 17.0823L25.1099 18.9157C25.1687 18.9414 25.2758 18.9805 25.3169 18.9956C25.3492 19.0076 25.3734 19.0165 25.3893 19.0225C25.399 19.0262 25.3966 19.0254 25.3889 19.0222C25.3862 19.0211 25.3807 19.0189 25.3735 19.0158C25.3681 19.0134 25.3523 19.0065 25.3321 18.9966C25.3222 18.9918 25.3031 18.9822 25.2795 18.9688C25.2667 18.9615 25.2048 18.9267 25.1352 18.869C25.1066 18.8452 25.0165 18.7692 24.9352 18.6439C24.8687 18.5413 24.6491 18.1498 24.8669 17.6795C25.062 17.2583 25.4446 17.1526 25.5197 17.1329C25.6406 17.101 25.739 17.1 25.7741 17.1V19.1ZM25.8657 17.0647C25.7473 17.0195 25.6377 16.9749 25.5203 16.9237L24.7212 18.7571C24.8684 18.8213 25.0069 18.8776 25.1531 18.9334L25.8657 17.0647ZM25.5014 16.9157C25.2225 16.8009 24.949 16.6784 24.6719 16.5473L23.8164 18.3551C24.1181 18.4979 24.4235 18.6348 24.7401 18.7652L25.5014 16.9157ZM24.6606 16.542C23.5606 16.0381 22.3825 15.4606 21.1351 15.0226L20.4726 16.9097C21.6069 17.308 22.6617 17.8262 23.8276 18.3603L24.6606 16.542ZM21.1331 15.0219C19.8118 14.5612 18.3871 14.3524 16.9239 14.5498L17.1914 16.5319C18.2918 16.3833 19.3976 16.5349 20.4746 16.9104L21.1331 15.0219ZM16.9288 14.5492C15.3616 14.7528 13.9801 15.502 12.9307 16.4494L14.271 17.9339C15.0741 17.2088 16.0908 16.6749 17.1865 16.5325L16.9288 14.5492ZM12.9273 16.4525C11.9113 17.3783 11.157 18.4772 10.5382 19.5336L12.2639 20.5446C12.8359 19.5681 13.471 18.663 14.2744 17.9308L12.9273 16.4525ZM10.5349 19.5393C9.83113 20.7589 9.19617 22.0063 8.62136 23.2737L10.4428 24.0998C10.9927 22.8873 11.5982 21.6982 12.2672 20.5389L10.5349 19.5393ZM8.62084 23.2748C7.49924 25.7561 6.65804 28.3409 6.10566 30.9632L8.06272 31.3755C8.58542 28.894 9.38165 26.4472 10.4433 24.0986L8.62084 23.2748ZM6.10568 30.9632C5.72343 32.7773 5.47731 34.6052 5.35854 36.4392L7.35435 36.5684C7.46714 34.8269 7.70067 33.0937 8.0627 31.3755L6.10568 30.9632ZM5.69336 37.2524C9.42233 40.5557 14.3313 42.6657 19.522 43.4471L19.8198 41.4694C14.9543 40.7369 10.4192 38.7668 7.01954 35.7553L5.69336 37.2524ZM19.5221 43.4471C25.7347 44.3818 32.2318 43.6174 38.0141 41.471L37.3181 39.596C31.8368 41.6307 25.6811 42.3512 19.8197 41.4694L19.5221 43.4471ZM38.6616 40.4383C38.571 39.4914 38.3559 38.5638 38.1289 37.6989L36.1944 38.2067C36.4139 39.043 36.5958 39.8456 36.6706 40.6287L38.6616 40.4383ZM38.1372 37.7329C38.0464 37.3303 37.9346 36.9022 37.8533 36.5605L35.9077 37.0238C36.0082 37.4463 36.0949 37.7679 36.1861 38.1726L38.1372 37.7329ZM36.6135 10.6799C36.6544 10.6924 36.676 10.6991 36.6849 10.7019C36.7008 10.7068 36.6804 10.7007 36.6576 10.6925C36.6547 10.6915 36.6343 10.6842 36.6089 10.6736C36.604 10.6715 36.5582 10.6528 36.5039 10.6221C36.4966 10.618 36.388 10.5601 36.2814 10.4512C36.2115 10.3719 36.0605 10.1054 36.0085 9.91073C36.0082 9.59431 36.2565 9.07805 36.4572 8.90888C36.5821 8.84102 36.7897 8.77291 36.8652 8.76001C36.9109 8.75505 36.9868 8.75148 37.0169 8.75167C37.0734 8.75286 37.1172 8.75873 37.1327 8.76086C37.1692 8.76591 37.1973 8.77194 37.2049 8.77356C37.2255 8.77797 37.2414 8.7821 37.245 8.78301C37.2558 8.7858 37.264 8.78812 37.2654 8.78851C37.2683 8.78933 37.2704 8.78993 37.2711 8.79015C37.2733 8.79078 37.2664 8.78874 37.2519 8.78428C37.2389 8.78024 37.2257 8.77608 37.216 8.7729L36.5946 10.6739C36.6373 10.6879 36.6893 10.7038 36.7131 10.7107C36.7154 10.7114 36.7188 10.7124 36.7228 10.7135C36.7252 10.7142 36.7343 10.7167 36.7457 10.7197C36.7495 10.7207 36.7656 10.7248 36.7864 10.7293C36.7941 10.7309 36.8223 10.737 36.8588 10.742C36.8743 10.7442 36.9181 10.75 36.9746 10.7512C37.0047 10.7514 37.0807 10.7478 37.1264 10.7429C37.2019 10.73 37.4095 10.6619 37.5344 10.594C37.7351 10.4248 37.9834 9.90858 37.983 9.59215C37.9311 9.39752 37.78 9.13101 37.7102 9.0517C37.6035 8.94281 37.4949 8.88489 37.4877 8.88077C37.4333 8.85009 37.3875 8.83131 37.3825 8.82923C37.357 8.81852 37.3363 8.81119 37.3332 8.81007C37.3207 8.80557 37.3105 8.80221 37.3082 8.80146C37.304 8.80008 37.3004 8.79891 37.298 8.79813C37.293 8.79653 37.2881 8.79497 37.2838 8.79361C37.2668 8.7883 37.2389 8.77968 37.1971 8.76693L36.6135 10.6799Z" fill="black" mask="url(#path-2-outside-1)"/>
<path d="M36.9053 9.72363C36.9712 9.74518 37.0701 9.77392 36.9053 9.72363V9.72363Z" fill="#F2EBC7"/>
<path d="M28.0292 35.7406L28.0297 35.7422C28.7482 37.8635 28.3572 40.1676 26.2784 41.4726C25.2446 42.1185 24.0785 42.1672 22.8846 41.8841C21.6837 41.5993 20.4981 40.9876 19.4836 40.3732L19.4833 40.373C15.8151 38.1545 13.0711 34.9943 11.4172 31.4007C9.79994 27.8797 9.37664 23.9522 10.2984 20.2553C10.3335 20.1173 10.4659 19.9695 10.7339 19.8792L10.8557 19.8382L10.9427 19.7435C11.2569 19.4011 11.6736 19.1698 12.2446 19.1407C12.8431 19.1122 13.4286 19.384 14.0876 19.6899L14.11 19.7003L14.11 19.7003L14.1128 19.7016C14.6203 19.9333 15.1266 20.1926 15.6075 20.4721L15.6075 20.4721L15.6094 20.4732C17.5586 21.5941 19.2917 22.9843 20.8 24.5465C22.3531 26.1555 23.6974 27.9161 24.8731 29.7593L24.8732 29.7594C25.4371 30.6429 25.969 31.5486 26.4685 32.4624L26.4686 32.4625L26.4913 32.5039C27.0837 33.5869 27.6619 34.6439 28.0292 35.7406Z" fill="#BA6A51" stroke="black"/>
<path d="M23.4757 20.4581C23.4178 20.2707 23.302 20.1048 23.1449 19.9679C23.0622 19.9102 22.9712 19.8525 22.8885 19.7949C22.69 19.694 22.475 19.6435 22.2435 19.6435H21.9706C21.7969 19.6363 21.6315 19.6723 21.4744 19.7372C21.3172 19.7805 21.1767 19.8597 21.0609 19.9679C20.9368 20.0688 20.8459 20.1914 20.7962 20.3283C20.7135 20.4581 20.6805 20.6022 20.6887 20.7608C20.7053 20.8618 20.7218 20.9555 20.7384 21.0564C20.7962 21.2438 20.912 21.4096 21.0691 21.5466C21.1518 21.6043 21.2428 21.6619 21.3255 21.7196C21.524 21.8205 21.739 21.871 21.9706 21.871H22.2352C22.4089 21.8782 22.5743 21.8422 22.7314 21.7773C22.8885 21.734 23.0291 21.6547 23.1449 21.5466C23.2689 21.4457 23.3599 21.3231 23.4095 21.1861C23.4922 21.0564 23.5253 20.9122 23.517 20.7536C23.5088 20.6527 23.4922 20.5518 23.4757 20.4581Z" fill="#281911"/>
<path d="M37.6083 6.40691C37.0956 6.28436 36.525 6.36366 36.0122 6.42854C35.5739 6.479 35.1522 6.57271 34.7387 6.69525C34.1681 6.86826 33.8373 7.25034 33.7959 7.76937C33.7794 7.98563 33.7628 8.20188 33.7463 8.42535C33.738 8.51906 33.7546 8.61998 33.7794 8.7137C33.6801 9.15343 33.8786 9.62201 34.3748 9.88153C35.9213 10.6817 38.2699 10.1554 38.8653 8.57674C39.1961 7.66123 38.6917 6.67363 37.6083 6.40691Z" fill="#281911"/>
<path d="M39.7333 18.2453C39.3447 18.0795 38.8154 18.0002 38.4432 18.2453C38.038 18.5049 37.7568 18.786 37.5832 19.2041C37.4426 19.5357 37.4591 19.8889 37.5418 20.2277C37.5584 20.2782 37.5749 20.3286 37.5915 20.3791C37.6907 20.8909 38.253 21.3307 38.8567 21.309C39.7003 21.273 40.3867 20.7828 40.5934 20.0691C40.7836 19.3915 40.4859 18.5625 39.7333 18.2453Z" fill="#281911"/>
</svg>
