<svg width="142" height="292" viewBox="0 0 142 292" fill="none" xmlns="http://www.w3.org/2000/svg">
<ellipse cx="70.5763" cy="284.5" rx="70.5763" ry="7.32959" fill="#7D7D7D"/>
<path d="M127.958 107.802L130.099 107.322C130.099 107.322 133.426 110.519 129.605 113.829L127.958 107.802" fill="#FFB27D"/>
<path d="M127.959 107.8C127.959 107.8 126.044 107.612 124.271 106.936C122.499 106.26 119.919 106.185 118.452 105.299C116.985 104.415 117.333 105.907 118.007 106.834C118.681 107.763 121.905 109.01 121.072 109.353C120.238 109.698 116.657 109.077 115.409 108.281C112.832 106.638 113.671 112.811 115.494 114.405C116.983 115.708 122.142 116.349 123.548 115.94C124.954 115.532 129.606 113.827 129.606 113.827L127.959 107.8Z" fill="#FFB27D"/>
<path d="M40.6441 263.111C40.6441 263.111 35.9824 267.358 36.8919 270.372C37.8016 273.39 42.0086 275.4 42.577 279.086C43.1454 282.772 45.4195 284.782 47.4661 284.782C49.5128 284.782 57.2234 284.782 57.2234 284.782C57.2234 284.782 58.7299 282.188 55.0916 281.407C51.453 280.623 50.0813 276.294 50.3086 272.27C50.5362 268.249 49.9676 262.888 49.9676 262.888L42.2359 261.101L40.6441 263.111Z" fill="#6C4F54"/>
<path d="M80.1013 265.352C80.1013 265.352 78.4244 283.335 80.4709 284.339L106.663 284.286C106.663 284.286 106.663 281.269 102.456 280.598C98.249 279.93 90.8584 277.471 89.6077 271.997C88.3572 266.524 80.1013 265.352 80.1013 265.352" fill="#6C4F54"/>
<path d="M101.488 117.341C101.488 117.341 109.039 140.792 109.524 148.777C110.009 156.762 95.0895 262.201 94.4892 265.882C93.9233 269.347 89.6072 271.558 89.6072 271.558C89.6072 271.558 87.6221 272.728 84.7891 271.929C80.8584 270.822 79.6159 269.495 79.6159 269.495C79.6159 269.495 73.7383 194.297 77.3757 167.433C81.013 140.572 81.0557 117.341 81.0557 117.341H101.488" fill="#4B3539"/>
<path d="M69.4943 116.642C69.4943 116.642 57.9755 132.061 56.9016 142.485C55.8278 152.911 55.217 189.525 52.9293 199.688C50.6416 209.849 42.2359 229.406 42.2359 261.1C42.2359 261.1 43.1094 262.918 45.8072 263.884C46.67 264.195 47.8259 264.495 48.9481 264.751C51.1728 265.261 53.4555 264.175 54.4709 262.137C60.1538 250.719 78.2558 213.9 79.1839 206.258C79.8406 200.85 85.5561 165.052 98.0237 144.047C101.017 139.004 96.1868 118.949 96.1868 118.949L69.4943 116.642Z" fill="#704E55"/>
<path d="M67.8008 5.04643C67.5245 4.3779 64.2952 -2.72554 53.3323 1.15042C53.3323 1.15042 58.8962 -0.289278 60.7111 1.75387C60.7111 1.75387 55.9814 0.20648 53.3867 2.32474C50.7921 4.44049 51.0378 10.4397 51.6712 12.1949C52.3046 13.9501 56.0416 18.9403 58.0926 18.6824C58.8696 18.5848 59.6684 18.2142 60.3618 17.7935C60.1612 18.7901 60.0014 19.8642 59.9013 21.0335C58.9762 31.8452 66.7445 39.0012 70.0335 36.5774C72.1428 35.0251 74.3374 38.876 74.3374 38.876L90.0559 10.953C90.0559 10.953 75.0646 -3.5543 67.8008 5.04643" fill="#86482A"/>
<path d="M97.2866 70.8165C82.3992 77.6595 71.2072 53.5097 72.1791 53.2618C73.6675 51.5292 75.2024 45.3621 74.1117 36.4809L74.8839 36.536L87.8304 37.5225C87.8304 37.5225 88.0321 41.6539 88.4786 45.5049C88.7745 48.0388 89.1795 50.4525 89.7048 51.5041C89.8598 51.8171 92.665 52.2327 92.6718 52.2403C92.8899 52.4856 101.258 68.9936 97.2866 70.8165" fill="#FFB27D"/>
<path d="M107.841 78.321C108.805 81.9516 109.597 85.2041 109.986 87.395C111.779 97.4955 110.878 148.847 110.878 148.847C84.6079 158.843 53.1543 145.975 53.1543 145.975C52.1783 136.401 55.917 115.108 58.1871 96.161C58.744 91.5163 59.212 87.0194 59.5029 82.8655C59.7566 79.2449 60.1697 76.0274 60.7022 73.168C64.4776 52.9193 74.1887 50.6959 74.1887 50.6959C78.7293 59.7623 93.0572 62.2036 93.0572 62.2036C93.2349 57.1007 91.6286 50.6007 91.6286 50.6007C93.4427 50.8236 99.5607 51.5947 101.214 52.416C106.12 54.8573 117.75 75.3213 117.75 75.3213C117.75 75.3213 120.762 73.9542 107.841 78.321Z" fill="#FEA273"/>
<path d="M87.832 37.5258C87.832 37.5258 88.0307 41.6522 88.4802 45.5081C81.3817 46.1917 76.8537 40.0272 74.8845 36.5393L87.832 37.5258" fill="#ED985F"/>
<path d="M90.6286 40.878C90.6286 40.878 73.9253 43.2642 72.6395 32.5452C71.3536 21.8262 68.3318 14.9156 78.9422 12.9375C89.5525 10.9595 92.119 14.7879 93.3946 18.2582C94.67 21.7285 94.9405 39.9791 90.6286 40.878Z" fill="#FFB27D"/>
<path d="M92.1878 12.3606C89.2173 9.46111 87.3464 10.4151 86.3662 11.5218C76.6031 7.50059 71.6171 15.8885 71.6171 15.8885C71.4121 23.7206 66.5413 28.8059 66.5413 28.8059C66.5413 28.8059 69.8223 30.3583 76.6342 27.6166C78.7149 26.7778 80.4462 24.9675 81.85 22.8568C79.5872 28.1199 76.1335 32.1436 76.1335 32.1436C84.0594 27.0933 86.0046 14.6541 86.1895 13.3421C87.3236 14.1584 89.5812 15.9536 90.4339 17.8866C91.5928 20.5106 92.636 26.0842 94.2063 25.6911C94.2063 25.6911 96.6428 16.7098 92.1878 12.3606Z" fill="#86482A"/>
<path d="M74.1189 47.5113C74.1189 47.5113 72.1594 49.1663 72.1541 51.6227C72.1541 51.6227 75.2105 60.211 93.0571 62.2041C93.0571 62.2041 76.0033 53.8987 74.1189 47.5113" fill="#EDEDED"/>
<path d="M89.2783 51.0068C89.2783 51.0068 93.1852 58.0602 93.0567 62.2041C93.0567 62.2041 93.3626 52.787 92.7247 50.6012C92.0867 48.4153 88.612 46.5774 88.612 46.5774L89.2783 51.0068" fill="#EDEDED"/>
<path d="M85.3745 35.2529C85.5276 35.2529 86.9555 36.5649 88.8422 36.1994C90.7289 35.8313 90.7113 34.309 90.7113 34.309C90.7113 34.309 89.4234 34.1011 88.2913 34.309C87.1593 34.5193 85.3745 35.2529 85.3745 35.2529Z" fill="white"/>
<path d="M90.939 24.2508C90.7227 24.3744 90.6107 24.616 90.562 24.8848C90.538 24.9274 90.5189 24.982 90.5185 25.0482C90.5096 25.2033 90.5179 25.3746 90.5504 25.5288C90.5546 25.5558 90.5588 25.5828 90.559 25.6084C90.5698 25.6683 90.5896 25.716 90.6181 25.7515C90.7042 25.9346 90.8451 26.0654 91.0817 26.0918C91.6158 26.1403 91.7902 25.4867 91.7624 25.033C91.7356 24.5899 91.4396 23.9661 90.939 24.2508ZM91.1429 25.3324C91.136 25.2483 91.1331 25.1656 91.1439 25.0826C91.1489 25.0946 91.1497 25.1051 91.1481 25.1096C91.1599 25.1801 91.1563 25.2554 91.1429 25.3324Z" fill="black"/>
<path d="M82.3548 24.8025C82.1385 24.9261 82.0265 25.1677 81.9778 25.4365C81.9538 25.4792 81.9346 25.5338 81.9342 25.6C81.9254 25.7551 81.9337 25.9264 81.9662 26.0806C81.9704 26.1076 81.9746 26.1346 81.9747 26.1601C81.9856 26.2201 82.0053 26.2678 82.0339 26.3033C82.12 26.4864 82.2608 26.6172 82.4975 26.6436C83.0315 26.6921 83.2059 26.0384 83.1782 25.5848C83.1513 25.1416 82.8553 24.5178 82.3548 24.8025ZM82.5587 25.8841C82.5517 25.8 82.5488 25.7174 82.5597 25.6344C82.5646 25.6463 82.5655 25.6568 82.5639 25.6614C82.5756 25.7318 82.572 25.8071 82.5587 25.8841Z" fill="black"/>
<path d="M119.123 67.4746C119.123 67.4746 121.944 62.6722 120.445 58.5133C119.897 56.991 119.076 55.386 118.256 53.9614C117.381 52.444 116.882 52.7921 116.188 54.4045C115.648 55.659 114.468 57.0185 114.223 57.9249C113.464 60.7317 112.655 62.6171 114.615 65.1836C116.574 67.7525 119.123 67.4746 119.123 67.4746" fill="#0D0D0D"/>
<path d="M124.664 110.27C124.664 110.27 135.88 98.6967 122.73 88.2281C119.515 85.6692 108.727 74.875 115.241 72.7668C118.557 71.6927 120.151 69.4843 120.917 67.5713C121.023 67.3034 121.116 67.043 121.193 66.7901C121.192 66.7876 121.192 66.7876 121.192 66.7876C121.649 65.3053 121.625 64.1611 121.625 64.1611C121.625 64.1611 121.952 61.7524 118.599 59.1333C117.676 58.4147 116.478 57.6811 114.919 56.9775C114.916 56.975 114.913 56.9725 114.908 56.9725C114.571 56.8173 114.218 56.667 113.845 56.5168C110.185 55.0495 108.972 56.4642 107.425 55.5904C106.014 54.7891 104.245 53.715 103.949 53.5322C103.922 53.5172 103.907 53.5072 103.907 53.5072C103.907 53.5072 102.129 51.8847 101.28 53.8077C101.189 54.013 101.102 54.2083 101.022 54.3961C100.435 55.7431 100.145 56.5769 100.389 57.3406C100.576 57.919 101.842 59.1233 102.87 59.8244C103.67 60.3727 105.609 61.5521 105.7 61.6422C105.949 61.8901 104.124 61.8475 99.9255 59.4839C99.8497 59.4413 99.7721 59.4012 99.6953 59.3587C99.4926 59.2435 99.2366 59.3061 99.1056 59.4964C98.8674 59.8444 98.6117 60.4629 98.9488 61.2791C99.4853 62.5836 103.275 64.6118 102.16 65.3579C101.925 65.5182 101.598 65.5983 101.211 65.6459C101.209 65.6434 101.209 65.6433 101.209 65.6433C99.7759 65.8136 97.5442 65.4781 96.1825 66.6724C96.1825 66.6724 97.8508 66.8502 98.7465 67.5388C98.7465 67.5388 94.9812 66.8352 93.9957 68.3926C93.9957 68.3926 94.607 68.2699 95.3363 68.7131C95.3363 68.7131 91.3692 69.7772 89.5731 73.5856C89.4163 73.9186 89.2757 74.2691 89.1563 74.6447C87.8435 78.7535 88.4877 76.3924 92.4227 84.7102C94.6208 89.3548 106.255 101.701 113.027 103.386C121.424 105.477 124.664 110.27 124.664 110.27" fill="#3D3D3E"/>
<path d="M102.586 60.1087C102.586 60.1087 99.9192 58.9143 99.6068 59.6154C99.2938 60.314 106.784 63.1159 106.955 62.6552C107.126 62.192 103.538 60.5293 102.586 60.1087" fill="#E57970"/>
<path d="M118.52 65.2285C118.52 65.2285 122.176 65.1384 123.224 61.0595C123.626 59.4946 122.916 57.6618 122.59 56.0518C122.242 54.3366 121.658 54.5094 120.488 55.8189C119.578 56.8405 118.027 57.7569 117.507 58.5381C115.898 60.9619 118.52 65.2285 118.52 65.2285" fill="#3D3D3E"/>
<path d="M100.802 72.5678C100.802 72.5678 88.6164 71.5062 85.6448 68.3038C85.6448 68.3038 85.7894 65.7048 85.292 64.8059C84.7943 63.907 82.6554 63.251 81.5623 63.8144C80.4689 64.3802 82.9099 69.8462 83.4525 70.3845C83.9953 70.9228 92.8123 85.6981 97.2768 87.631C99.1311 88.4348 97.0494 81.464 99.0985 79.9517C101.147 78.4394 100.802 72.5678 100.802 72.5678" fill="#3D3D3E"/>
<path d="M108.363 67.7036C108.363 67.7036 96.2515 65.9885 93.4578 62.6283C93.4578 62.6283 93.7422 60.0442 93.2942 59.1178C92.846 58.1939 90.7458 57.4227 89.6235 57.9285C88.5013 58.4342 90.6434 64.0229 91.1561 64.5888C91.6691 65.1572 99.6745 80.3858 104.028 82.5567C105.836 83.4581 104.134 76.3846 106.262 74.9849C108.39 73.5853 108.363 67.7036 108.363 67.7036Z" fill="#3D3D3E"/>
<path d="M103.949 53.532C103.371 54.0352 102.164 54.8789 101.022 54.3957C101.103 54.208 101.189 54.0127 101.28 53.8074C102.13 51.8845 103.907 53.5069 103.907 53.5069C103.907 53.5069 103.922 53.5169 103.949 53.532Z" fill="black"/>
<path d="M117.898 59.211C117.898 59.211 118.211 58.7403 119.141 58.0843C120.071 57.4283 120.89 55.9085 121.063 56.0462C121.238 56.1839 120.918 60.826 119.144 61.2441C119.144 61.2441 117.935 61.0113 117.898 59.211" fill="#0D0D0D"/>
<path d="M101.917 108.083C104.759 107.017 117.533 113.329 123.239 109.994C126.23 108.246 127.429 102.455 127.892 97.3394C128.38 91.9636 122.9 88.0075 117.939 90.1583C115.309 91.3001 112.453 93.168 109.741 96.1951C105.513 100.915 101.511 101.751 98.4364 101.789C97.6271 101.048 96.5023 100.291 95.3095 100.347C93.01 100.454 92.6805 102.62 92.6805 102.62C91.689 105.745 99.0748 109.15 101.917 108.083Z" fill="#3D3D3E"/>
<path d="M112.298 58.1486C112.11 57.9856 111.844 57.9599 111.574 58.0028C111.526 57.9942 111.468 57.9942 111.405 58.0156C111.255 58.0585 111.096 58.1229 110.961 58.2044C110.937 58.2173 110.913 58.2301 110.888 58.2387C110.835 58.2687 110.797 58.3031 110.773 58.3417C110.628 58.4832 110.55 58.6591 110.604 58.8908C110.734 59.4099 111.41 59.3584 111.83 59.1825C112.24 59.0109 112.733 58.5261 112.298 58.1486ZM111.342 58.6977C111.42 58.6634 111.497 58.6334 111.579 58.6162C111.569 58.6248 111.56 58.6291 111.555 58.6291C111.492 58.6634 111.42 58.6849 111.342 58.6977Z" fill="#FEFEF8"/>
<path d="M77.7515 121.244H130.74V79.6544H77.7515V121.244Z" fill="#946D46"/>
<path d="M71.661 68.2768C67.6205 64.1298 62.3246 67.2483 61.1209 72.9056C57.781 88.6049 55.3869 112.092 59.7423 115.572C66.2839 120.795 99.9099 114.372 99.9099 114.372L97.9575 108.44C97.9575 108.44 72.9983 106.345 73.018 105.128C73.0379 103.912 76.0633 72.7946 76.0633 72.7946L71.661 68.2768" fill="#FFB27D"/>
<path d="M97.9584 108.439C97.9584 108.439 99.4527 107.229 100.558 105.69C101.663 104.152 103.775 102.67 104.511 101.125C105.247 99.5815 105.781 101.016 105.73 102.161C105.68 103.306 103.677 106.12 104.563 105.948C105.448 105.778 108.632 102.55 109.395 101.52C110.275 100.331 113.109 104.261 112.007 107.098C110.904 109.934 107.533 112.375 106.134 112.807C104.735 113.238 99.9107 114.371 99.9107 114.371L97.9584 108.439" fill="#FFB27D"/>
<path d="M78.3851 57.9238C78.3851 57.9238 70.7919 57.8012 67.1169 60.3151C63.4417 62.829 58.7688 73.6712 56.621 89.3339C56.621 89.3339 71.9442 90.4617 81.8833 85.9733C81.8833 85.9733 86.4485 58.7519 78.3851 57.9238Z" fill="#FEA273"/>
</svg>
