<svg width="657" height="450" viewBox="0 0 657 450" fill="none" xmlns="http://www.w3.org/2000/svg">
<path d="M497.556 257.835C556.167 211.713 608.873 191.43 656.365 193.379V450H397.201C409.767 389.401 413.351 324.091 497.556 257.835Z" fill="#FFA8A1" fill-opacity="0.33"/>
<path d="M423.249 129.692C416.641 128.374 411.683 126.724 404.744 128.042C396.486 129.361 388.886 131.998 381.285 135.295C366.746 142.215 357.164 154.081 349.564 167.922C343.948 178.14 340.314 190.334 352.869 196.597C362.122 201.21 379.633 199.234 386.572 190.992C387.233 190.663 387.565 189.676 388.225 189.345" fill="#7386AE"/>
<path d="M498.585 124.748C502.879 125.737 506.185 124.087 507.174 119.474C508.827 113.212 505.193 108.928 504.2 103.325C503.872 100.689 504.532 97.7229 501.558 96.7335C498.585 95.4151 496.271 99.0413 494.619 101.017C491.974 105.301 491.974 111.235 486.69 113.212" fill="#F7BD4F"/>
<path d="M471.309 114.684C472.961 111.06 474.282 106.773 473.622 102.821C472.959 98.5343 470.977 87.3296 466.351 95.2397C464.698 98.2054 464.369 100.842 462.056 103.15C459.414 105.458 456.769 106.776 455.777 110.4C454.127 116.991 458.751 120.946 463.709 124.244" fill="#F7BD4F"/>
<path d="M496.6 146.621C504.664 139.732 504.087 134.591 503.672 127.538C502.424 116.336 498.264 112.602 487.865 110.526C467.483 106.792 455.006 118.824 457.084 131.835C457.837 136.532 436.705 150.718 454.173 155.307C471.643 159.898 488.536 153.512 496.6 146.621Z" fill="#F7BD4F"/>
<path d="M479.486 134.27C479.375 134.27 479.27 134.216 479.205 134.116C479.108 133.963 479.154 133.761 479.308 133.663C480.92 132.639 485.201 129.921 488.151 130.83C489.2 131.151 489.981 131.898 490.472 133.043C490.545 133.211 490.467 133.402 490.3 133.475C490.132 133.548 489.936 133.469 489.866 133.302C489.448 132.329 488.822 131.725 487.954 131.458C485.301 130.641 481.206 133.24 479.664 134.219C479.607 134.254 479.545 134.27 479.486 134.27Z" fill="#592423"/>
<path d="M464.617 131.194C464.445 131.194 464.302 131.062 464.288 130.889C464.178 129.471 463.568 128.344 462.657 127.878C461.87 127.476 460.932 127.581 459.942 128.18C459.786 128.277 459.584 128.226 459.489 128.069C459.392 127.916 459.443 127.714 459.6 127.616C460.775 126.902 461.967 126.786 462.956 127.293C464.075 127.865 464.819 129.191 464.946 130.841C464.959 131.022 464.825 131.181 464.641 131.194C464.633 131.194 464.625 131.194 464.617 131.194Z" fill="#592423"/>
<path d="M463.625 134.709C465.828 134.709 470.894 135.367 473.207 136.357C472.217 137.565 468.141 139.654 466.378 139.654C463.957 139.654 462.525 137.128 461.533 135.367C461.533 135.038 461.865 134.928 462.083 134.709H463.625Z" fill="#F7817F"/>
<path d="M381.355 245.848C379.201 239.645 379.223 232.185 378.543 225.76C376.095 202.536 372.302 174.956 388.503 155.612C393.01 150.233 397.96 144.906 404.245 141.579C411.368 137.81 420.054 137.627 427.935 138.093C433.666 138.43 439.242 139.414 444.329 141.008C464.665 147.368 469.893 170.235 472.554 187.573C474.352 199.296 473.969 212.097 472.301 223.803C470.764 234.587 475.846 249.663 463.261 255.265C454.995 258.943 443.642 257.215 434.952 256.678C421.443 255.842 407.909 253.443 394.385 253.106C388.548 252.96 384.41 253.295 381.892 247.261C381.7 246.797 381.52 246.328 381.355 245.848Z" fill="#7386AE"/>
<path d="M461.376 148.457C462.865 146.971 464.186 145.31 465.043 143.472C465.903 141.646 466.307 139.643 465.976 137.473C465.598 135.003 463.986 133.326 462.519 131.501C462.131 131.027 461.759 130.539 461.417 130.018C459.459 127.058 461.034 124.686 460.392 121.51C458.265 110.871 445.774 107.021 434.613 108.768C427.9 109.814 418.251 116.164 415.811 122.688C405.04 151.5 445.524 164.269 461.376 148.457Z" fill="#BA6A51"/>
<path d="M416.339 132.458C413.4 129.525 407.898 132.585 409.483 137.319C411.519 142.959 419.658 141.153 423.503 139.349" fill="#BA6A51"/>
<path d="M417.41 223.026C417.949 220.956 418.655 218.904 419.081 217.249C420.052 213.482 421.769 210.961 425.49 209.422C432.594 206.483 440.124 203.623 444.839 197.198C446.61 194.783 448.508 190.048 451.913 189.585C455.321 189.118 458.473 193.219 461.075 194.845C485.161 209.891 474.239 250.377 457.721 249.299C441.199 248.223 432.823 241.103 425.452 236.584C422.591 234.835 417.507 232.775 416.803 229.257C416.447 227.475 416.833 225.24 417.41 223.026Z" fill="#BA6A51"/>
<path d="M503.232 137.422C504.432 157.909 533.563 175.533 542.403 187.223C547.914 194.513 553.724 202.393 557.824 210.573C562.769 220.438 567.713 236.878 558.374 245.646C549.583 253.866 532.552 252.224 521.563 251.127C493.543 247.29 479.807 228.658 474.862 201.806C473.368 193.691 468.675 183.613 460.508 180.151C451.711 176.417 441.119 177.256 432.707 172.074C428.959 169.766 425.821 166.935 422.532 164.129C418.572 160.748 415.592 158.774 410.581 157.963C407.55 157.472 406.415 157.658 403.962 156.345C402.075 155.337 403.134 153.841 400.12 153.738C397.103 153.636 400.147 148.076 404.302 147.804C410.481 147.4 419.043 147.543 423.096 148.767C441.302 154.267 453.205 150.249 470.476 144.259C484.239 139.484 502.844 130.752 503.232 137.422Z" fill="#F7BD4F"/>
<path d="M461.075 194.845C470.956 178.585 501.127 150.5 502.642 151.193C504.128 151.873 502.879 154.857 501.906 156.362C503.257 155.96 504.492 155.491 505.042 154.682C507.686 150.789 508.263 152.951 508.676 153.156C509.088 153.361 509.841 151.819 510.784 152.339C511.941 152.978 511.032 153.938 511.526 153.835C512.022 153.733 512.518 153.671 512.849 155.073C513.014 155.979 512.93 156.885 512.93 157.79C514.623 156.947 514.499 160.015 514.335 160.84C514.046 162.43 512.812 163.792 511.892 164.97C508.84 169.324 501.558 175.121 498.404 187.816C495.247 200.514 494.514 207.915 491.526 218.192C484.158 243.546 461.91 257.476 448.026 244.573C434.144 231.672 451.191 211.102 461.075 194.845Z" fill="#BA6A51"/>
<path d="M431.106 130.291C434.761 128.789 441.855 131.876 442.739 130.399C445.033 126.284 434.869 126.554 432.702 127.482C428.569 129.245 429.976 130.755 431.106 130.291Z" fill="#592423"/>
<path d="M459.484 126.139C455.879 125.859 451.482 130.623 450.126 129.569C446.497 126.584 454.828 123.915 456.979 124.112C461.082 124.487 460.597 126.225 459.484 126.139Z" fill="#592423"/>
<path d="M449.034 139.039C448.934 139.039 448.837 138.996 448.773 138.915C448.659 138.772 448.684 138.565 448.829 138.451C449.525 137.907 450.269 137.031 450.269 136.214C450.269 135.788 450.067 135.424 449.654 135.098C448.543 134.211 447.527 132.871 446.543 131.571L446.114 131.013C446.004 130.868 446.031 130.66 446.176 130.549C446.322 130.439 446.53 130.466 446.64 130.611L447.069 131.175C448.028 132.439 449.021 133.747 450.064 134.58C450.638 135.033 450.929 135.583 450.929 136.214C450.929 137.54 449.633 138.659 449.236 138.969C449.177 139.018 449.104 139.039 449.034 139.039Z" fill="#592423"/>
<path d="M452.997 134.014C452.973 134.014 452.949 134.012 452.924 134.006C452.746 133.966 452.636 133.791 452.676 133.613C453.008 132.146 455.418 128.973 457.316 128.892C457.923 128.865 458.729 129.132 459.176 130.536C459.233 130.709 459.136 130.895 458.963 130.949C458.788 131.006 458.602 130.909 458.548 130.736C458.157 129.517 457.548 129.542 457.343 129.55C455.833 129.614 453.604 132.51 453.321 133.758C453.286 133.909 453.148 134.014 452.997 134.014Z" fill="#592423"/>
<path d="M458.861 130.739C458.867 131.954 457.521 132.766 456.424 132.89C455.008 133.046 454.539 131.644 454.968 130.625C455.31 129.811 455.661 129.404 457.025 129.191C458.387 128.978 458.858 129.965 458.861 130.739Z" fill="#592423"/>
<path d="M434.403 135.052C434.327 135.052 434.254 135.025 434.192 134.974C434.052 134.858 434.033 134.65 434.149 134.51C435.109 133.353 438.695 131.606 440.423 132.386C440.97 132.634 441.577 133.235 441.342 134.691C441.312 134.869 441.143 134.99 440.962 134.963C440.784 134.936 440.66 134.766 440.69 134.586C440.892 133.321 440.334 133.07 440.15 132.987C438.773 132.367 435.476 133.947 434.659 134.931C434.591 135.009 434.497 135.052 434.403 135.052Z" fill="#592423"/>
<path d="M440.968 134.731C440.426 135.818 438.857 135.936 437.821 135.554C436.487 135.057 436.702 133.596 437.546 132.876C438.218 132.305 438.716 132.097 440.029 132.523C441.34 132.944 441.315 134.038 440.968 134.731Z" fill="#592423"/>
<path d="M445.823 142.763C443.243 142.763 440.509 142.204 439.126 141.021C438.986 140.902 438.973 140.695 439.091 140.554C439.21 140.417 439.417 140.401 439.555 140.519C441.822 142.458 448.368 142.579 450.619 141.15C450.773 141.053 450.975 141.099 451.075 141.253C451.172 141.406 451.126 141.609 450.973 141.706C449.881 142.399 447.902 142.763 445.823 142.763Z" fill="#592423"/>
<path d="M429.93 135.75C438.717 135.75 438.717 147.939 429.93 147.939C421.141 147.942 421.141 135.75 429.93 135.75Z" fill="#F7817F" fill-opacity="0.4"/>
<path d="M464.31 143.499C464.563 143.499 464.806 143.485 465.043 143.472C465.903 141.647 466.307 139.643 465.976 137.473C465.598 135.004 463.986 133.327 462.52 131.501C455.569 133.03 456.17 143.499 464.31 143.499Z" fill="#F7817F" fill-opacity="0.4"/>
<path d="M467.37 145.804C467.232 145.804 467.105 145.72 467.057 145.583C466.998 145.41 467.089 145.224 467.262 145.165C470.567 144.03 474.908 142.73 479.154 142.73C481.602 142.73 483.961 143.224 486.245 143.704C488 144.073 489.814 144.453 491.626 144.596C491.809 144.612 491.944 144.771 491.93 144.952C491.914 145.133 491.763 145.267 491.575 145.254C489.717 145.108 487.884 144.723 486.11 144.348C483.859 143.876 481.532 143.388 479.154 143.388C475.005 143.388 470.734 144.669 467.477 145.785C467.442 145.801 467.405 145.804 467.37 145.804Z" fill="#592423"/>
<path d="M414.061 138.336C413.975 138.336 413.886 138.298 413.821 138.231C412.991 137.338 413.317 136.743 413.498 136.527C413.851 136.104 414.592 135.936 415.317 136.044C414.571 135.203 413.36 134.446 412.578 134.572C412.063 134.653 411.745 135.12 411.637 135.961C411.613 136.141 411.451 136.268 411.268 136.244C411.087 136.222 410.958 136.058 410.982 135.877C411.171 134.421 411.899 134.009 412.476 133.92C413.942 133.693 415.9 135.357 416.455 136.548C416.517 136.681 416.485 136.837 416.374 136.934C416.264 137.031 416.102 137.042 415.978 136.966C415.323 136.548 414.293 136.602 414.007 136.947C413.81 137.182 414.11 137.57 414.304 137.781C414.428 137.915 414.42 138.123 414.288 138.247C414.223 138.306 414.142 138.336 414.061 138.336Z" fill="#592423"/>
<path d="M472.104 210.646L471.446 210.6C471.905 204.213 466.62 199.681 461.956 197.743L462.21 197.136C467.076 199.158 472.587 203.909 472.104 210.646Z" fill="#592423"/>
<path d="M503.57 159.774L503.257 159.192L503.473 159.076C504.621 158.47 505.81 157.839 506.621 156.806C507.023 156.288 507.236 155.698 507.463 155.075C507.67 154.501 507.886 153.905 508.263 153.363L508.805 153.738C508.479 154.21 508.288 154.741 508.083 155.299C507.851 155.943 507.608 156.607 507.145 157.213C506.241 158.356 504.993 159.02 503.783 159.659L503.57 159.774Z" fill="#592423"/>
<path d="M506.775 161.538L506.328 161.053C506.605 160.797 506.888 160.559 507.166 160.322C507.961 159.651 508.711 159.017 509.237 158.084C509.703 157.386 509.981 156.631 510.253 155.903C510.461 155.343 510.676 154.766 510.968 154.218L511.553 154.531C511.28 155.038 511.083 155.569 510.873 156.132C510.59 156.898 510.296 157.688 509.8 158.429C509.229 159.443 508.398 160.147 507.595 160.826C507.322 161.055 507.047 161.29 506.775 161.538Z" fill="#592423"/>
<path d="M509.11 163.74L508.619 163.301C509.051 162.818 509.522 162.425 509.981 162.042C511.056 161.141 511.986 160.365 512.256 158.688L512.909 158.793C512.598 160.713 511.482 161.646 510.404 162.546C509.964 162.913 509.512 163.293 509.11 163.74Z" fill="#592423"/>
<path d="M404.04 153.549C403.913 153.549 403.792 153.476 403.738 153.355C403.663 153.188 403.738 152.994 403.905 152.918C405.496 152.215 407.566 152.234 408.909 152.571C409.087 152.616 409.195 152.794 409.149 152.97C409.106 153.148 408.925 153.255 408.75 153.21C407.556 152.913 405.614 152.883 404.172 153.522C404.129 153.541 404.083 153.549 404.04 153.549Z" fill="#592423"/>
<path d="M402.552 150.255C402.423 150.255 402.298 150.177 402.247 150.048C402.177 149.878 402.261 149.686 402.431 149.619C403.393 149.236 404.455 149.112 405.415 149.271C405.596 149.301 405.717 149.471 405.687 149.649C405.658 149.829 405.488 149.951 405.307 149.921C404.463 149.781 403.531 149.891 402.676 150.231C402.635 150.247 402.592 150.255 402.552 150.255Z" fill="#592423"/>
<path d="M536.957 213.539C527.044 205.629 511.515 201.674 500.612 209.915C494.993 214.199 492.351 219.144 492.02 226.065C491.691 233.643 500.013 238.574 500.612 242.872C501.558 249.658 494.004 243.201 490.699 244.19C488.717 244.519 482.438 247.156 483.098 250.124C484.091 255.066 499.291 254.079 502.925 253.748C509.533 253.09 516.141 252.1 522.749 252.1C529.028 252.1 536.628 254.408 542.576 252.761C548.523 251.111 552.157 247.487 552.486 241.553C552.818 235.951 552.486 230.02 546.87 227.383" fill="#F7BD4F"/>
<path d="M527.386 203.973C519.002 201.679 508.773 205.173 503.3 211.848C497.517 218.899 497.722 230.413 501.577 238.305C501.785 238.725 502.38 238.356 502.197 237.943C498.62 229.853 498.132 219.133 503.99 211.948C509.266 205.472 519.233 202.477 527.276 204.38C527.54 204.442 527.65 204.046 527.386 203.973Z" fill="#592423"/>
<path d="M588.788 186.05C598.041 192.642 596.717 205.165 593.083 213.404C588.459 223.622 577.225 228.567 566.651 229.224C563.346 229.553 556.406 229.553 556.077 225.269C555.746 221.643 560.704 221.975 563.677 220.656C571.275 217.359 575.572 210.438 576.562 202.528C576.893 199.892 576.893 197.255 576.893 194.618C580.196 193.96 582.509 199.892 583.501 202.528C587.467 200.881 586.146 188.358 575.947 186.708C575.947 186.708 579.536 179.458 588.788 186.05Z" fill="#F7BD4F"/>
<path d="M501.054 110.618C501.512 108.545 501.928 105.962 499.304 105.42C499.21 105.401 499.102 105.431 499.056 105.522C497.795 107.997 497.458 110.707 495.498 112.821C494.6 113.786 493.524 114.538 492.694 115.571C492.003 116.428 491.602 117.563 490.817 118.318C490.623 118.501 490.879 118.841 491.106 118.69C492.289 117.892 492.775 116.309 493.745 115.252C494.996 113.888 496.376 112.883 497.355 111.273C498.215 109.855 498.533 108.121 499.097 106.579C499.585 105.242 500.59 106.302 500.89 107.059C501.051 107.466 501.027 107.935 501.016 108.364C501.003 109.105 500.825 109.839 500.733 110.575C500.712 110.758 501.014 110.796 501.054 110.618Z" fill="#592423"/>
<path d="M465.647 115.789C463.39 110.618 468.305 106.617 469.095 101.745C469.125 101.562 468.982 101.368 468.777 101.43C467.443 101.821 466.561 102.586 466.014 103.872C465.903 104.128 466.232 104.339 466.391 104.093C467.076 103.042 467.653 102.298 468.915 101.926C468.807 101.821 468.702 101.713 468.596 101.608C467.793 106.598 462.878 110.65 465.437 115.91C465.507 116.053 465.709 115.929 465.647 115.789Z" fill="#592423"/>
<path d="M415.566 233.037C410.896 236.134 406.849 230.13 403.719 227.388C400.716 224.757 397.297 222.797 393.18 223.045C392.865 223.064 392.86 223.547 393.18 223.541C398.567 223.417 402.544 226.679 406.154 230.322C408.737 232.926 412.104 235.878 415.733 233.325C415.908 233.201 415.746 232.915 415.566 233.037Z" fill="#592423"/>
<path d="M452.156 187.131C452.949 185.953 451.509 184.845 450.649 184.236C449.749 183.602 448.743 183.109 447.753 182.629C447.042 182.284 446.182 181.712 445.386 181.612C445.249 181.596 445.195 181.788 445.279 181.871C446.125 182.726 447.829 183.141 448.894 183.696C449.897 184.222 452.534 185.465 451.835 186.945C451.733 187.161 452.021 187.333 452.156 187.131Z" fill="#592423"/>
<path d="M409.985 168.087C402.735 169.227 396.723 174.314 391.808 179.464C388.861 182.551 386.133 185.948 383.442 189.188C383.259 189.407 383.572 189.722 383.755 189.501C386.365 186.358 389.039 183.219 391.8 180.203C396.666 174.889 402.775 169.68 410.076 168.418C410.297 168.38 410.203 168.052 409.985 168.087Z" fill="#592423"/>
<path d="M394.127 153.258C389.045 155.383 384.348 157.96 380.177 161.578C375.101 165.983 371.895 171.853 367.395 176.765C365.689 178.631 363.715 180.456 361.31 181.364C358.709 182.343 357.212 180.822 357.072 178.24C356.894 174.986 358.097 172.006 360.065 169.478C361.701 167.372 363.707 165.582 365.257 163.403C365.384 163.228 365.101 163.012 364.958 163.174C362.985 165.371 360.844 167.453 359.081 169.825C357.323 172.192 356.59 174.883 356.498 177.797C356.449 179.307 356.813 181.44 358.455 182.036C360.227 182.68 362.133 181.747 363.618 180.825C369.412 177.221 372.723 170.359 377.063 165.328C381.676 159.982 387.874 156.394 394.256 153.566C394.428 153.49 394.302 153.185 394.127 153.258Z" fill="#592423"/>
<path d="M278.462 0C346.632 193.195 104.641 266.69 104.641 266.69C64.3727 289.227 30.8572 298.209 0 296.596V0H278.462Z" fill="#FFA8A1" fill-opacity="0.33"/>
<path d="M182.449 128.128L273.039 124.233C272.32 144.289 256.625 149.236 248.868 149.203C238.001 163.745 222.101 164.85 215.509 163.585L221.901 189.753L215.209 262.865H98.6507C98.9503 254.275 98.6507 244.387 109.937 227.008C95.9539 210.029 93.8564 160.489 100.049 148.204C104.204 175.77 119.092 202.837 126.017 212.925L169.864 170.976L172.561 156.993L182.449 128.128Z" fill="#D79863"/>
<path d="M240.273 161.288V148.304C236.118 147.665 231.151 145.175 229.187 144.009V161.288C229.819 162.587 231.883 165.184 235.079 165.184C238.275 165.184 239.874 162.587 240.273 161.288Z" fill="#FF7F76"/>
<path d="M248.962 149.302C242.437 149.735 227.628 147.285 220.597 134.021" stroke="black" stroke-width="0.690184"/>
<path d="M254.955 125.032L273.233 124.233C273.233 127.862 272.953 135.639 269.837 137.717C259.749 138.416 255.088 128.628 254.955 125.032Z" fill="#6B383D"/>
<path d="M198.923 151.999V124.233C195.894 124.666 188.776 125.711 184.541 126.43C180.306 127.149 177.183 129.993 176.151 131.324C173.021 134.953 165.624 143.529 161.069 148.803C177.449 160.149 193.13 155.661 198.923 151.999Z" fill="#6B383D"/>
<path d="M100.094 146.207C102.091 161.088 107.235 176.37 107.734 176.67C103.579 178.427 98.8446 177.835 96.847 177.369C96.4475 173.873 96.148 155.895 100.094 146.207Z" fill="#6B383D"/>
<path d="M132.104 207.132L162.767 177.768C167.162 180.365 177.449 195.646 162.767 209.929C149.983 220.476 134.701 212.426 132.104 207.132Z" fill="#6B383D"/>
<path d="M218.499 175.271L215.503 163.785C205.116 163.286 201.52 161.588 197.425 159.99C201.58 169.179 210.709 173.773 218.499 175.271Z" fill="#6B383D"/>
<circle cx="208.165" cy="133.222" r="1.59806" fill="#6B383D"/>
</svg>
