<svg width="1366" height="307" viewBox="0 0 1366 307" fill="none" xmlns="http://www.w3.org/2000/svg">
<path d="M570.944 270.607C564.736 280.411 552.769 283.276 552.769 283.276C552.769 283.276 564.318 286.258 561.155 295.865C558.76 303.154 553.293 303.346 540.412 303.255C534.709 303.216 529.973 302.952 526.237 301.826C521.078 300.288 517.837 297.11 516.602 290.638C514.289 278.555 519.995 269.924 524.486 253.898C524.885 252.465 525.146 250.917 525.333 249.263C526.27 240.886 525.313 229.833 531.299 217.966L569.406 227.996C569.406 227.996 574.901 239.214 575.387 251.792C575.632 258.139 574.598 264.832 570.944 270.607Z" fill="#D5CFD1"/>
<path d="M754.771 271.623C760.979 281.426 772.946 284.292 772.946 284.292C772.946 284.292 761.397 287.273 764.56 296.88C766.955 304.17 772.422 304.362 785.303 304.271C791.006 304.231 795.742 303.967 799.478 302.842C804.637 301.304 807.878 298.126 809.113 291.653C811.426 279.57 805.72 270.94 801.228 254.914C800.83 253.481 800.569 251.933 800.381 250.279C799.445 241.902 800.402 230.848 794.415 218.981L756.309 229.012C756.309 229.012 750.813 240.229 750.328 252.808C750.083 259.155 751.117 265.848 754.771 271.623Z" fill="#D79863"/>
<path d="M486.741 209.897C486.741 209.897 459.198 217.431 455.489 201.982C450.545 181.388 468.598 163.588 460.201 139.733C445.844 98.939 369.089 121.405 383.978 172.051C388.134 186.188 396.434 188.673 402.738 186.909C412.591 184.153 415.293 175.008 413.429 164.814C410.019 146.172 435.359 139.023 442.392 155.617C448.1 169.084 422.529 201.392 442.341 222.284C456.016 236.704 476.762 233.943 488.774 229.18C491.186 228.224 486.741 209.897 486.741 209.897Z" fill="#D5CFD1"/>
<path d="M388.718 138.186C382.562 147.023 380.003 158.532 383.978 172.051C388.134 186.188 396.434 188.673 402.738 186.909C412.591 184.153 415.293 175.009 413.429 164.814C412.406 159.225 413.97 154.671 416.848 151.479C410.32 123.615 388.91 138.055 388.718 138.186Z" fill="#B4B3B2"/>
<path d="M607.059 143.577V167.497C607.059 167.497 599.029 176.49 584.696 178.24C582.878 178.466 580.96 178.571 578.946 178.529C565.52 178.245 557.48 171.859 557.48 171.859L558.399 167.773L563.179 146.563C563.179 146.563 569.929 148.794 578.657 149.641C585.158 150.27 592.749 150.126 599.462 147.717C602.183 146.741 604.76 145.394 607.059 143.577Z" fill="#D5CFD1"/>
<path d="M718.656 144.592V168.513C718.656 168.513 726.686 177.506 741.019 179.256C742.836 179.482 744.755 179.587 746.769 179.544C760.194 179.26 768.234 172.875 768.234 172.875L767.315 168.788L762.535 147.578C762.535 147.578 755.785 149.809 747.058 150.656C740.557 151.285 732.965 151.142 726.252 148.733C723.531 147.757 720.954 146.41 718.656 144.592Z" fill="#D79863"/>
<path d="M872.46 208.298C866.409 218.795 856.27 228.244 839.596 233.515L832.307 210.886C832.307 210.886 844.158 207.347 851.575 194.077C854.929 188.072 857.375 180.067 857.408 169.5C857.427 163.386 862.212 158.351 868.307 157.93C868.582 157.911 868.856 157.904 869.131 157.904C875.334 157.904 880.522 162.779 880.822 169.071C881.314 179.377 880.311 194.716 872.46 208.298Z" fill="#A6744A"/>
<path d="M872.459 208.299C861.701 206.115 855.324 200.46 851.574 194.078C854.928 188.072 857.375 180.067 857.408 169.501C857.427 163.387 862.212 158.351 868.306 157.931C868.581 157.911 868.855 157.905 869.13 157.905C875.334 157.905 880.522 162.779 880.822 169.072C881.313 179.377 880.311 194.716 872.459 208.299Z" fill="#D79863"/>
<path d="M558.12 264.692C521.572 281.3 469.99 267.173 474.562 226.442C476.485 209.296 492.371 194.761 500.728 181.715C505.07 174.936 508.196 168.614 510.417 163.3C514.326 153.948 515.437 147.73 515.437 147.73L576.949 143.817C576.949 143.817 577.642 145.942 578.656 149.64C579.386 152.294 580.286 155.766 581.214 159.842C581.537 161.257 581.863 162.737 582.186 164.285C583.074 168.517 583.95 173.224 584.695 178.24C585.835 185.903 586.671 194.285 586.802 202.761C587.196 228.048 581.267 254.176 558.12 264.692Z" fill="#D5CFD1"/>
<path d="M767.594 265.708C804.142 282.316 855.724 268.19 851.152 227.458C849.229 210.313 833.343 195.777 824.986 182.732C820.644 175.952 817.518 169.63 815.297 164.317C811.388 154.965 810.277 148.747 810.277 148.747L748.765 144.833C748.765 144.833 748.072 146.959 747.058 150.657C746.328 153.31 745.428 156.782 744.5 160.859C744.178 162.273 743.851 163.754 743.528 165.302C742.64 169.534 741.765 174.24 741.019 179.256C739.88 186.92 739.043 195.301 738.912 203.778C738.518 229.065 744.447 255.193 767.594 265.708Z" fill="#D79863"/>
<path d="M524.588 271.483C521.715 271.483 518.868 271.323 516.075 271.004C516.453 270.307 516.796 269.598 517.106 268.88C517.108 268.874 517.111 268.868 517.113 268.862C517.116 268.858 517.117 268.854 517.119 268.85C517.125 268.837 517.129 268.825 517.135 268.813L517.136 268.81C522.151 257.122 518.574 243.04 515.879 235.44C526.954 247.753 520.788 263.879 518.416 270.045C521.461 271.573 531.223 270.045 536.914 269.571C544.977 268.148 557.641 263.385 563.475 260.085C571.255 255.686 581.025 245.381 581.807 234.477C583.724 236.414 582.622 235.174 582.774 235.44C578.744 251.091 568.3 259.23 555.874 264.876C546.121 269.308 535.188 271.483 524.588 271.483Z" fill="#B2B2D4"/>
<path d="M801.127 272.498C804 272.498 806.847 272.339 809.639 272.02C809.262 271.322 808.919 270.613 808.609 269.895C808.607 269.89 808.604 269.883 808.601 269.877C808.599 269.873 808.598 269.869 808.596 269.865C808.59 269.853 808.586 269.84 808.58 269.828L808.579 269.826C803.564 258.137 807.141 244.055 809.836 236.455C797.941 243.883 803.449 263.255 806.794 269.895C803.749 271.423 795.41 270.519 789.244 269.826C782.114 269.827 764.106 260.923 756.992 255.816C749.877 250.709 746.557 243.01 743.908 235.493C741.991 237.429 743.093 236.189 742.941 236.455C746.971 252.106 757.415 260.246 769.841 265.892C779.594 270.323 790.527 272.498 801.127 272.498Z" fill="#8B5C35"/>
<path d="M515.087 227.995C515.087 227.995 527.532 253.379 516.624 270.608C510.417 280.412 498.453 283.274 498.453 283.274C498.453 283.274 509.997 286.257 506.837 295.865C504.439 303.156 498.975 303.348 486.091 303.255C472.508 303.159 464.414 301.795 462.282 290.639C459.971 278.555 465.679 269.923 470.17 253.901C472.603 245.222 469.813 232.174 476.981 217.966L515.087 227.995Z" fill="#D5CFD1"/>
<path d="M810.627 229.01C810.627 229.01 798.183 254.395 809.09 271.624C815.297 281.427 827.262 284.29 827.262 284.29C827.262 284.29 815.717 287.272 818.877 296.88C821.275 304.172 826.739 304.364 839.623 304.271C853.207 304.174 861.301 302.81 863.433 291.654C865.743 279.57 860.036 270.939 855.544 254.916C853.111 246.237 855.902 233.189 848.734 218.981L810.627 229.01Z" fill="#D79863"/>
<path d="M461.836 282.859C461.878 282.321 461.931 281.785 461.999 281.252C461.999 281.253 461.999 281.254 461.999 281.255C461.931 281.789 461.878 282.322 461.836 282.859Z" fill="#B27E88"/>
<path d="M863.879 283.875C863.837 283.337 863.783 282.802 863.716 282.268C863.716 282.269 863.716 282.27 863.716 282.271C863.783 282.805 863.837 283.339 863.879 283.875Z" fill="#B27E88"/>
<path d="M500.379 282.688C501.722 282.225 503.647 281.464 505.779 280.318C504.623 281.501 502.68 282.244 500.379 282.688Z" fill="#B27E88"/>
<path d="M825.335 283.703C823.993 283.24 822.067 282.48 819.935 281.334C821.091 282.517 823.035 283.259 825.335 283.703Z" fill="#B27E88"/>
<path d="M517.525 269.071C517.902 268.374 518.245 267.666 518.555 266.947C518.245 267.665 517.902 268.374 517.525 269.071ZM518.563 266.929C518.565 266.925 518.566 266.921 518.568 266.917C518.566 266.921 518.565 266.925 518.563 266.929ZM518.584 266.88C518.584 266.878 518.584 266.879 518.585 266.877C518.585 266.879 518.584 266.88 518.584 266.88Z" fill="#7C7CB6"/>
<path d="M808.19 270.087C807.812 269.389 807.47 268.682 807.16 267.963C807.47 268.68 807.812 269.389 808.19 270.087ZM807.152 267.945C807.149 267.94 807.148 267.937 807.146 267.932C807.148 267.937 807.149 267.94 807.152 267.945ZM807.13 267.895C807.13 267.894 807.13 267.894 807.129 267.893C807.129 267.894 807.13 267.895 807.13 267.895Z" fill="#7C7CB6"/>
<path d="M516.127 271.359C516.131 271.355 516.133 271.35 516.136 271.346C516.133 271.352 516.131 271.355 516.127 271.359ZM516.141 271.339C516.306 271.1 516.467 270.856 516.624 270.608C516.944 270.102 517.244 269.589 517.525 269.071C517.244 269.59 516.945 270.101 516.625 270.607C516.468 270.855 516.306 271.1 516.141 271.339Z" fill="#000072"/>
<path d="M809.587 272.375C809.583 272.371 809.581 272.366 809.578 272.362C809.581 272.368 809.583 272.371 809.587 272.375ZM809.573 272.355C809.408 272.116 809.247 271.872 809.09 271.624C808.77 271.118 808.47 270.605 808.189 270.087C808.47 270.606 808.769 271.117 809.089 271.623C809.246 271.871 809.408 272.116 809.573 272.355Z" fill="#000072"/>
<path d="M481.367 282.363C482.776 282.068 484.208 281.863 485.647 281.694C487.088 281.529 488.536 281.404 489.991 281.328C491.446 281.26 492.909 281.21 494.375 281.228C495.842 281.23 497.31 281.296 498.785 281.38C499.853 281.44 500.669 282.356 500.608 283.423C500.546 284.491 499.632 285.307 498.565 285.246C498.421 285.238 498.282 285.215 498.149 285.177L498.12 285.168C496.774 284.781 495.417 284.408 494.042 284.094C492.67 283.765 491.28 283.497 489.881 283.249C488.482 283.006 487.072 282.811 485.652 282.655C484.233 282.504 482.804 282.387 481.367 282.363Z" fill="#B2B2D4"/>
<path d="M844.347 283.379C842.938 283.084 841.506 282.879 840.067 282.71C838.627 282.545 837.179 282.421 835.723 282.344C834.268 282.276 832.806 282.226 831.34 282.244C829.872 282.246 828.404 282.312 826.929 282.396C825.861 282.457 825.045 283.372 825.106 284.439C825.168 285.508 826.082 286.323 827.149 286.262C827.293 286.255 827.433 286.231 827.565 286.193L827.594 286.184C828.94 285.797 830.297 285.424 831.672 285.11C833.045 284.781 834.434 284.513 835.833 284.265C837.233 284.022 838.643 283.827 840.062 283.671C841.481 283.52 842.91 283.404 844.347 283.379Z" fill="#8B5C35"/>
<path d="M536.061 282.363C537.471 282.068 538.903 281.863 540.342 281.694C541.781 281.529 543.231 281.404 544.686 281.328C546.141 281.26 547.604 281.21 549.069 281.228C550.536 281.23 552.005 281.296 553.48 281.38C554.547 281.44 555.364 282.356 555.302 283.423C555.241 284.491 554.326 285.307 553.259 285.246C553.115 285.238 552.977 285.215 552.843 285.177L552.815 285.168C551.469 284.781 550.112 284.408 548.737 284.094C547.364 283.765 545.975 283.497 544.576 283.249C543.177 283.006 541.767 282.811 540.347 282.655C538.927 282.504 537.499 282.387 536.061 282.363Z" fill="#B2B2D4"/>
<path d="M789.653 283.379C788.243 283.084 786.811 282.879 785.372 282.71C783.933 282.545 782.484 282.421 781.028 282.344C779.573 282.276 778.111 282.226 776.646 282.244C775.179 282.246 773.709 282.312 772.234 282.396C771.167 282.457 770.35 283.372 770.412 284.439C770.473 285.508 771.388 286.323 772.456 286.262C772.599 286.255 772.738 286.231 772.871 286.193L772.899 286.184C774.245 285.797 775.602 285.424 776.977 285.11C778.35 284.781 779.739 284.513 781.138 284.265C782.538 284.022 783.948 283.827 785.367 283.671C786.787 283.52 788.215 283.404 789.653 283.379Z" fill="#8B5C35"/>
<path d="M494.152 290.873C495.475 291.281 496.786 292.169 497.49 293.621C497.845 294.324 497.983 295.208 497.983 295.899C498.004 296.633 497.994 297.384 497.866 298.153C497.741 298.915 497.541 299.705 497.165 300.452C496.799 301.199 496.289 301.896 495.69 302.485C494.476 303.672 493.013 304.387 491.596 304.948C490.688 305.306 489.661 304.861 489.301 303.953C488.943 303.045 489.388 302.017 490.297 301.658C490.392 301.62 490.501 301.589 490.599 301.569C491.814 301.323 492.97 300.967 493.875 300.351C494.78 299.746 495.456 298.846 495.843 297.672C496.051 297.098 496.172 296.464 496.267 295.821L496.383 294.884C496.41 294.592 496.403 294.295 496.356 293.998C496.18 292.803 495.315 291.633 494.152 290.873Z" fill="#B2B2D4"/>
<path d="M831.562 291.889C830.239 292.297 828.928 293.184 828.225 294.637C827.87 295.34 827.731 296.224 827.731 296.915C827.71 297.648 827.72 298.4 827.848 299.168C827.973 299.931 828.173 300.721 828.549 301.468C828.915 302.215 829.425 302.911 830.024 303.501C831.238 304.687 832.701 305.403 834.118 305.963C835.026 306.322 836.053 305.877 836.413 304.968C836.771 304.06 836.326 303.033 835.417 302.673C835.322 302.636 835.213 302.605 835.115 302.584C833.9 302.338 832.744 301.982 831.839 301.367C830.934 300.761 830.258 299.861 829.871 298.687C829.664 298.113 829.542 297.48 829.447 296.836L829.331 295.899C829.304 295.607 829.311 295.311 829.358 295.014C829.534 293.819 830.399 292.648 831.562 291.889Z" fill="#8B5C35"/>
<path d="M481.368 291.194C481.953 291.506 482.492 291.941 482.957 292.492C483.184 292.772 483.388 293.087 483.555 293.436C483.728 293.784 483.84 294.192 483.861 294.525C484.009 295.926 483.895 297.345 483.508 298.739C483.118 300.123 482.428 301.519 481.257 302.65C480.668 303.202 479.968 303.689 479.187 304.008C478.411 304.335 477.576 304.517 476.756 304.57L476.683 304.574C475.707 304.636 474.866 303.896 474.804 302.919C474.741 301.944 475.481 301.102 476.458 301.04C476.555 301.033 476.662 301.037 476.756 301.046C477.694 301.146 478.582 300.967 479.388 300.427C480.193 299.885 480.881 298.999 481.359 297.965C481.838 296.933 482.133 295.76 482.197 294.586C482.208 294.446 482.195 294.28 482.222 294.159C482.247 294.031 482.257 293.899 482.262 293.762C482.268 293.488 482.237 293.198 482.169 292.905C482.025 292.322 481.756 291.725 481.368 291.194Z" fill="#B2B2D4"/>
<path d="M844.347 292.209C843.761 292.521 843.222 292.956 842.757 293.507C842.53 293.787 842.327 294.102 842.159 294.451C841.986 294.799 841.874 295.207 841.854 295.54C841.706 296.942 841.819 298.36 842.207 299.754C842.596 301.138 843.286 302.534 844.458 303.665C845.046 304.218 845.746 304.704 846.527 305.023C847.303 305.35 848.138 305.532 848.958 305.585L849.031 305.589C850.007 305.651 850.849 304.911 850.91 303.934C850.973 302.959 850.233 302.117 849.257 302.055C849.159 302.048 849.052 302.052 848.958 302.061C848.02 302.161 847.132 301.982 846.326 301.442C845.522 300.9 844.833 300.014 844.356 298.98C843.876 297.948 843.582 296.775 843.518 295.601C843.506 295.461 843.52 295.295 843.493 295.175C843.467 295.046 843.457 294.914 843.452 294.777C843.447 294.503 843.477 294.213 843.546 293.92C843.689 293.337 843.958 292.74 844.347 292.209Z" fill="#8B5C35"/>
<path d="M536.061 291.598C536.525 292.046 536.942 292.56 537.307 293.139C537.488 293.429 537.659 293.738 537.797 294.07C537.871 294.408 537.932 294.751 537.963 295.093C538.096 296.465 537.929 297.851 537.48 299.186C537.026 300.511 536.268 301.814 535.091 302.831C533.93 303.861 532.323 304.481 530.75 304.569L530.665 304.573C529.688 304.627 528.854 303.879 528.8 302.903C528.746 301.927 529.494 301.092 530.469 301.038C530.561 301.034 530.661 301.037 530.75 301.045C531.646 301.139 532.519 300.981 533.318 300.495C534.118 300.017 534.817 299.221 535.319 298.277C535.821 297.332 536.14 296.242 536.208 295.143C536.227 294.869 536.223 294.595 536.21 294.323C536.249 294.045 536.276 293.752 536.277 293.451C536.28 292.85 536.212 292.22 536.061 291.598Z" fill="#B2B2D4"/>
<path d="M789.653 292.614C789.189 293.062 788.773 293.576 788.408 294.155C788.227 294.445 788.056 294.754 787.918 295.086C787.844 295.424 787.783 295.767 787.752 296.11C787.619 297.481 787.785 298.867 788.235 300.202C788.688 301.527 789.447 302.831 790.624 303.847C791.784 304.877 793.392 305.497 794.965 305.585L795.05 305.59C796.026 305.643 796.861 304.895 796.915 303.919C796.969 302.943 796.221 302.108 795.245 302.054C795.153 302.05 795.053 302.053 794.965 302.061C794.068 302.155 793.195 301.997 792.397 301.511C791.597 301.033 790.898 300.237 790.396 299.293C789.894 298.348 789.575 297.258 789.506 296.159C789.487 295.885 789.492 295.611 789.505 295.339C789.466 295.061 789.439 294.768 789.438 294.467C789.434 293.866 789.503 293.236 789.653 292.614Z" fill="#8B5C35"/>
<path d="M549.049 291.266C550.253 291.894 551.375 292.796 552.169 294.091C552.357 294.417 552.534 294.774 552.65 295.143C552.755 295.505 552.822 295.883 552.869 296.265C552.954 297.031 552.912 297.832 552.719 298.606C552.345 300.166 551.401 301.551 550.242 302.594C549.079 303.648 547.712 304.404 546.292 304.948L546.261 304.959C545.348 305.309 544.325 304.851 543.975 303.938C543.626 303.026 544.083 302.003 544.996 301.653C545.092 301.617 545.197 301.588 545.294 301.569C546.439 301.348 547.546 300.962 548.498 300.363C549.449 299.768 550.24 298.955 550.683 297.951C550.907 297.451 551.038 296.903 551.076 296.331C551.091 296.044 551.093 295.752 551.06 295.458L551.031 295.027C551.013 294.883 550.987 294.738 550.961 294.59C550.701 293.415 549.991 292.229 549.049 291.266Z" fill="#B2B2D4"/>
<path d="M776.665 292.281C775.462 292.909 774.339 293.811 773.545 295.106C773.358 295.432 773.18 295.789 773.064 296.159C772.959 296.521 772.892 296.898 772.845 297.28C772.76 298.046 772.803 298.847 772.995 299.621C773.369 301.182 774.314 302.567 775.472 303.609C776.635 304.664 778.003 305.42 779.423 305.964L779.453 305.975C780.366 306.324 781.39 305.867 781.739 304.954C782.088 304.042 781.631 303.018 780.718 302.669C780.622 302.633 780.517 302.604 780.42 302.585C779.275 302.363 778.168 301.978 777.216 301.378C776.265 300.784 775.474 299.971 775.031 298.966C774.807 298.466 774.676 297.918 774.638 297.346C774.624 297.06 774.621 296.768 774.654 296.474L774.683 296.042C774.701 295.898 774.727 295.754 774.753 295.605C775.013 294.43 775.723 293.245 776.665 292.281Z" fill="#8B5C35"/>
<path d="M751.367 191.324C751.367 240.643 691.74 284.027 669.818 298.31C664.976 301.465 658.735 301.465 653.893 298.311C631.97 284.027 572.341 240.644 572.341 191.324C572.341 165.294 593.441 144.192 619.471 144.192C638.101 144.192 654.206 155.003 661.856 170.692C669.506 155.003 685.61 144.192 704.238 144.192C730.268 144.192 751.367 165.294 751.367 191.324Z" fill="#FF72A8"/>
<path d="M577.186 210.346C577.165 210.274 577.143 210.202 577.121 210.131C577.672 210.07 578.235 210.015 578.812 209.965C578.256 210.084 577.716 210.213 577.186 210.346ZM598.622 202.086C597.791 200.035 597.044 197.983 596.368 195.947C596.452 195.727 596.525 195.509 596.589 195.293C597.404 192.562 596.765 190.192 596.765 190.192C596.765 190.192 600.446 188.141 600.806 184.027C601.121 180.428 598.746 177.464 598.746 177.464C598.746 177.464 598.819 176.804 598.736 175.814C601.628 178.888 601.15 183.235 601.15 183.235C601.15 183.235 603.525 186.197 603.208 189.799C602.847 193.909 599.168 195.963 599.168 195.963C599.168 195.963 599.974 198.953 598.622 202.086Z" fill="#FF5F9C"/>
<path d="M748.529 211.363C748.55 211.291 748.572 211.219 748.594 211.147C748.043 211.086 747.481 211.031 746.903 210.982C747.459 211.101 748 211.229 748.529 211.363ZM727.093 203.103C727.924 201.052 728.671 198.999 729.347 196.964C729.263 196.743 729.19 196.526 729.126 196.31C728.312 193.579 728.95 191.209 728.95 191.209C728.95 191.209 725.27 189.157 724.909 185.044C724.594 181.444 726.969 178.481 726.969 178.481C726.969 178.481 726.896 177.821 726.979 176.831C724.087 179.904 724.565 184.252 724.565 184.252C724.565 184.252 722.19 187.214 722.507 190.816C722.868 194.926 726.547 196.979 726.547 196.979C726.547 196.979 725.741 199.97 727.093 203.103Z" fill="#FF5F9C"/>
<path d="M623.12 165.316C618.458 165.316 617.059 163.055 617.059 163.055C617.059 163.055 614.889 163.852 612.758 163.852C611.94 163.852 611.127 163.734 610.445 163.408C604.054 160.354 605.031 152.649 605.031 152.649C605.106 152.365 605.189 152.086 605.281 151.815C605.597 153.267 606.222 154.896 607.426 156.305C608.181 157.191 609.166 157.988 610.445 158.6C610.973 158.852 611.579 158.98 612.206 159.024C612.39 159.037 612.576 159.044 612.763 159.044C614.87 159.044 617.015 158.264 617.06 158.248C617.071 158.266 617.272 158.579 617.755 158.968C618.577 159.63 620.214 160.508 623.118 160.508C623.655 160.508 624.237 160.478 624.864 160.41C625.056 160.39 625.248 160.362 625.441 160.327C627.573 159.941 629.717 158.72 631.117 157.782C632.076 157.14 632.688 156.63 632.715 156.608C632.745 156.617 633.728 156.902 635.082 156.902C636.176 156.902 637.513 156.717 638.788 156.048C638.931 155.974 639.074 155.892 639.217 155.804C639.82 155.432 640.353 154.934 640.81 154.344C641.377 154.633 641.939 154.933 642.493 155.244C642.053 157.536 640.907 159.563 639.215 160.614C637.817 161.481 636.299 161.71 635.082 161.71C633.706 161.71 632.714 161.416 632.714 161.416C632.714 161.416 628.666 164.813 624.865 165.218C624.238 165.286 623.658 165.316 623.12 165.316Z" fill="#FF5F9C"/>
<path d="M702.595 166.332C707.257 166.332 708.656 164.071 708.656 164.071C708.656 164.071 710.825 164.868 712.956 164.868C713.775 164.868 714.588 164.75 715.269 164.425C721.661 161.37 720.684 153.665 720.684 153.665C720.609 153.381 720.526 153.102 720.433 152.832C720.118 154.283 719.493 155.912 718.289 157.322C717.534 158.207 716.549 159.004 715.269 159.617C714.741 159.868 714.136 159.996 713.509 160.04C713.325 160.054 713.138 160.06 712.952 160.06C710.844 160.06 708.7 159.28 708.655 159.264C708.644 159.282 708.443 159.595 707.96 159.984C707.137 160.646 705.501 161.524 702.597 161.524C702.06 161.524 701.478 161.494 700.851 161.426C700.659 161.406 700.467 161.378 700.274 161.343C698.142 160.957 695.998 159.736 694.597 158.798C693.639 158.156 693.027 157.646 693 157.624C692.97 157.633 691.987 157.918 690.633 157.918C689.539 157.918 688.202 157.733 686.927 157.064C686.783 156.99 686.641 156.908 686.498 156.821C685.895 156.448 685.362 155.95 684.905 155.36C684.338 155.649 683.776 155.949 683.222 156.26C683.662 158.552 684.807 160.579 686.5 161.63C687.898 162.497 689.415 162.726 690.633 162.726C692.009 162.726 693.001 162.432 693.001 162.432C693.001 162.432 697.049 165.829 700.85 166.234C701.477 166.302 702.056 166.332 702.595 166.332Z" fill="#FF5F9C"/>
<path d="M642.492 155.244C641.939 154.932 641.377 154.633 640.81 154.344C641.316 153.69 641.728 152.923 642.037 152.087C642.251 152.209 642.462 152.333 642.673 152.46C642.729 153.4 642.665 154.342 642.492 155.244Z" fill="#FF5F9C"/>
<path d="M683.222 156.26C683.776 155.949 684.337 155.649 684.905 155.36C684.398 154.706 683.986 153.939 683.677 153.103C683.463 153.226 683.252 153.349 683.041 153.476C682.985 154.416 683.049 155.358 683.222 156.26Z" fill="#FF5F9C"/>
<path d="M545.243 217.431C543.826 217.431 542.305 217.351 540.65 217.176C516.057 214.578 515.162 189.643 515.855 179.368C516.335 183.357 517.345 188.431 519.459 193.31C523.05 201.606 529.833 209.329 542.603 210.167C544.525 210.293 546.299 210.351 547.953 210.35C559.561 210.35 566.983 207.123 573.835 205.006C574.21 206.763 574.771 208.551 575.285 210.321C562.881 212.426 556.098 217.431 545.243 217.431Z" fill="#B2B2D4"/>
<path d="M780.471 218.446C781.889 218.446 783.41 218.367 785.064 218.191C809.657 215.594 810.552 190.659 809.859 180.384C809.379 184.373 808.369 189.447 806.255 194.326C802.664 202.622 795.881 210.345 783.111 211.183C781.189 211.308 779.415 211.367 777.761 211.366C766.153 211.366 756.787 207.608 749.934 205.492C749.559 207.249 748.757 209.413 748.243 211.183C760.647 213.288 769.616 218.446 780.471 218.446Z" fill="#8B5C35"/>
<path d="M578.812 209.966C578.818 209.965 578.824 209.963 578.829 209.962C578.831 209.965 578.829 209.962 578.831 209.964C578.826 209.965 578.82 209.965 578.815 209.965C578.814 209.965 578.813 209.966 578.812 209.966Z" fill="#B21473"/>
<path d="M746.903 210.982C746.896 210.981 746.89 210.979 746.885 210.978C746.884 210.981 746.885 210.978 746.884 210.98C746.888 210.981 746.895 210.981 746.899 210.981C746.9 210.981 746.901 210.982 746.903 210.982Z" fill="#B21473"/>
<path d="M575.285 210.324C574.709 208.393 573.996 206.68 573.594 204.768C573.99 204.676 576.449 204.185 576.859 204.101C577.437 206.07 578.096 208.025 578.83 209.962C578.824 209.963 578.818 209.965 578.812 209.966C578.234 210.016 575.836 210.263 575.285 210.324Z" fill="#FF5F9C"/>
<path d="M748.593 211.147C749.17 209.216 749.659 207.293 750.062 205.381C749.666 205.289 749.265 205.201 748.855 205.117C748.278 207.086 747.618 209.041 746.885 210.977C746.89 210.978 746.896 210.981 746.903 210.982C747.48 211.031 748.043 211.086 748.593 211.147Z" fill="#FF5F9C"/>
<path d="M582.09 209.386C586.732 208.089 589.447 205.018 590.987 201.416C594.074 199.964 595.623 197.906 596.368 195.948C597.044 197.983 597.791 200.035 598.622 202.087C597.28 205.198 593.811 208.449 585.316 209.051C584.178 209.131 583.108 209.245 582.09 209.386Z" fill="#FF5F9C"/>
<path d="M743.625 210.402C738.984 209.104 736.268 206.033 734.728 202.432C731.641 200.979 730.092 198.921 729.347 196.963C728.671 198.999 727.924 201.051 727.093 203.102C728.435 206.214 731.904 209.465 740.399 210.067C741.537 210.147 742.607 210.26 743.625 210.402Z" fill="#FF5F9C"/>
<path d="M578.831 209.963C578.83 209.961 578.831 209.965 578.83 209.961C579.859 209.74 580.941 209.545 582.09 209.386C581.095 209.665 580.012 209.861 578.831 209.963Z" fill="#FF5F9C"/>
<path d="M746.883 210.979C746.885 210.977 746.883 210.981 746.885 210.977C745.856 210.756 744.774 210.562 743.625 210.402C744.62 210.681 745.703 210.877 746.883 210.979Z" fill="#FF5F9C"/>
<path d="M578.83 209.961C578.096 208.025 577.437 206.07 576.859 204.101C578.683 203.728 580.669 203.44 582.912 203.281C586.372 203.036 588.998 202.352 590.987 201.416C589.447 205.018 586.731 208.089 582.09 209.386C580.941 209.546 579.859 209.74 578.83 209.961Z" fill="#FF5F9C"/>
<path d="M746.885 210.977C747.619 209.04 748.278 207.086 748.855 205.117C747.032 204.744 745.046 204.456 742.803 204.296C739.343 204.052 736.717 203.367 734.728 202.432C736.268 206.033 738.983 209.104 743.625 210.402C744.774 210.561 745.856 210.756 746.885 210.977Z" fill="#FF5F9C"/>
<path d="M593.401 124.773C593.406 124.535 593.417 124.35 593.428 124.222L593.401 124.773Z" fill="#D5CFD1"/>
<path d="M732.313 125.789C732.308 125.551 732.298 125.366 732.287 125.237L732.313 125.789Z" fill="#D79863"/>
<path d="M477.402 135.787C477.42 135.819 477.444 135.847 477.463 135.879L477.383 135.767L477.402 135.787Z" fill="#000072"/>
<path d="M477.465 135.879L479.825 139.077C479.016 138.046 478.223 136.987 477.465 135.879Z" fill="#000072"/>
<path d="M621.1 124.463L621.035 124.594C621.048 124.559 621.067 124.52 621.085 124.485L621.1 124.463Z" fill="#000072"/>
<path d="M704.614 125.479L704.679 125.609C704.666 125.575 704.647 125.535 704.629 125.501L704.614 125.479Z" fill="#000072"/>
<path d="M477.425 135.545L479.708 137.928C478.925 137.162 478.158 136.372 477.425 135.545Z" fill="#D5CFD1"/>
<path d="M621.023 124.25C620.429 125.181 619.794 126.08 619.14 126.96L621.023 124.25Z" fill="#D5CFD1"/>
<path d="M704.692 125.267C705.286 126.197 705.921 127.097 706.575 127.977L704.692 125.267Z" fill="#D79863"/>
<path d="M636.931 108.389C636.808 111.85 629.555 109.153 627.971 108.521C627.84 108.47 627.723 108.607 627.767 108.748C627.952 109.334 628.437 110.636 629.561 112.687C630.943 115.217 632.07 117.179 631.643 118.602C631.184 120.111 628.853 120.862 625.861 120.763C624.19 120.705 622.519 122.293 621.077 124.168L621.062 124.186C620.361 125.097 619.71 126.071 619.14 126.96L619.101 127.019C616.678 130.266 613.885 133.203 610.803 135.84C606.811 139.144 602.334 141.854 597.569 144.073C597.569 144.073 575.168 154.399 551.302 156.276C527.436 158.154 503.697 151.457 503.697 151.457C498.637 150.009 493.796 148.034 489.338 145.396C485.876 143.272 482.658 140.808 479.757 137.979L479.739 137.959C479.727 137.949 479.721 137.938 479.708 137.928C479.007 137.138 478.212 136.278 477.377 135.488C475.654 133.857 473.75 132.539 472.102 132.858C469.162 133.422 466.743 133.045 466.053 131.627C465.409 130.289 466.216 128.175 467.185 125.458C467.974 123.257 468.25 121.896 468.341 121.288C468.363 121.142 468.225 121.026 468.104 121.096C466.644 121.967 459.902 125.765 459.234 122.366C458.863 120.477 461.493 114.491 462.108 108.525C463.876 91.2241 464.511 87.7844 464.511 87.7844C464.524 87.672 466.579 75.2073 470.382 65.8486C465.825 59.3444 446.444 30.3371 454.748 18.0634C455.968 16.2615 459.322 15.5976 463.772 15.6526C476.648 15.7964 498.684 21.8873 504.724 23.6408C513.035 18.8688 522.618 15.5763 533.456 14.2507C534.617 14.1036 537.094 13.7205 540.016 13.4958C542.612 13.297 545.681 13.2397 546.718 13.2082C557.629 12.8218 567.615 14.5765 576.564 17.9903C584.228 14.3922 619.283 -1.51447 625.054 4.66736C625.132 4.75049 625.206 4.83363 625.285 4.92125C634.952 15.9762 620.543 47.2245 617.082 54.3095C622.304 62.9583 626.28 74.9489 626.312 75.0579C626.312 75.0579 627.477 78.3561 631.933 95.166C633.468 100.965 637.002 106.466 636.931 108.389Z" fill="#D5CFD1"/>
<path d="M600.342 79.6826C609.532 79.6826 618.15 77.2292 625.575 72.9425C624.191 69.1006 620.984 60.7732 617.084 54.3094C620.544 47.2244 634.952 15.9761 625.285 4.92113C625.207 4.8335 625.134 4.75036 625.054 4.66723C619.283 -1.51459 584.228 14.3921 576.564 17.9902C569.18 15.1728 561.089 13.4901 552.355 13.2025C550.693 18.2115 549.791 23.5654 549.791 29.1317C549.791 57.0504 572.423 79.6826 600.342 79.6826Z" fill="#B4B3B2"/>
<path d="M477.374 135.489C477.388 135.501 477.401 135.514 477.41 135.522C477.429 135.544 477.448 135.565 477.466 135.587L477.374 135.489Z" fill="#000072"/>
<path d="M479.696 137.919C478.931 137.17 478.186 136.397 477.468 135.588L479.696 137.919Z" fill="#000072"/>
<path d="M619.146 126.95L620.98 124.314C620.401 125.219 619.789 126.095 619.146 126.95Z" fill="#000072"/>
<path d="M706.569 127.966L704.735 125.329C705.314 126.235 705.926 127.111 706.569 127.966Z" fill="#000072"/>
<path d="M621.169 125.566L621.184 125.552L621.101 125.674C621.122 125.636 621.147 125.603 621.169 125.566Z" fill="#D5CFD1"/>
<path d="M704.546 126.582L704.531 126.568L704.615 126.689C704.593 126.652 704.568 126.619 704.546 126.582Z" fill="#D79863"/>
<path d="M607.38 47.2316C601.462 37.6044 595.295 31.809 592.421 29.3994C591.601 28.7119 591.57 27.319 592.369 26.6382C600.19 19.9734 610.91 16.2573 614.998 15.0082C616.543 14.5363 618.164 15.6069 618.566 17.3941C619.016 19.3971 619.055 22.7863 617.788 28.512C615.946 36.8304 611.91 44.0008 609.843 47.2967C609.243 48.2538 607.983 48.2145 607.38 47.2316Z" fill="#FFA8A1"/>
<path d="M478.872 57.3405C483.213 46.9068 488.397 40.2183 490.859 37.3886C491.562 36.5809 491.374 35.2014 490.479 34.6532C481.712 29.2937 470.543 27.2998 466.31 26.7044C464.71 26.4797 463.277 27.7907 463.159 29.6195C463.026 31.6685 463.519 35.0217 465.666 40.4778C468.786 48.4065 473.893 54.8579 476.449 57.7899C477.192 58.6414 478.43 58.4055 478.872 57.3405Z" fill="#FFA8A1"/>
<path d="M475.192 127.059C475.22 127.091 475.252 127.117 475.279 127.149L475.174 127.048L475.192 127.059Z" fill="#000072"/>
<path d="M850.522 128.075C850.495 128.107 850.463 128.134 850.435 128.166L850.54 128.064L850.522 128.075Z" fill="#000072"/>
<path d="M618.875 115.757L618.892 115.744L618.792 115.873C618.823 115.833 618.85 115.797 618.875 115.757Z" fill="#000072"/>
<path d="M706.84 116.773L706.823 116.76L706.923 116.89C706.892 116.85 706.865 116.813 706.84 116.773Z" fill="#000072"/>
<path d="M475.82 133.975L475.71 133.87L475.727 133.881C475.758 133.911 475.789 133.945 475.82 133.975Z" fill="#000072"/>
<path d="M849.895 134.989L850.004 134.884L849.988 134.895C849.957 134.925 849.926 134.959 849.895 134.989Z" fill="#000072"/>
<path d="M478.091 136.142L478.07 136.127C477.297 135.436 476.545 134.718 475.822 133.975L478.091 136.142Z" fill="#000072"/>
<path d="M475.186 126.95C475.216 126.981 475.247 127.014 475.278 127.044L475.164 126.936L475.182 126.947L475.186 126.95Z" fill="#0F2675"/>
<path d="M850.528 127.967C850.498 127.998 850.467 128.031 850.436 128.061L850.55 127.952L850.532 127.963L850.528 127.967Z" fill="#0F2675"/>
<path d="M618.843 115.675L618.865 115.649L618.792 115.747C618.81 115.722 618.825 115.701 618.843 115.675Z" fill="#0F2675"/>
<path d="M706.872 116.691L706.85 116.665L706.923 116.763C706.905 116.737 706.89 116.716 706.872 116.691Z" fill="#0F2675"/>
<path d="M554.369 106.305C554.497 107.934 552.485 109.541 550.611 110.672C548.651 111.855 546.365 112.034 544.244 111.172C542.216 110.348 539.979 109.075 539.851 107.447C539.464 102.533 553.982 101.391 554.369 106.305Z" fill="#434343"/>
<path d="M536.452 115.036C536.87 115.577 537.393 116.189 537.921 116.657C538.455 117.138 539.028 117.53 539.611 117.771C540.191 118.028 540.776 118.121 541.371 118.119C541.674 118.065 541.974 118.078 542.281 117.961C542.434 117.912 542.59 117.889 542.744 117.832L543.203 117.64C544.43 117.127 545.302 116.187 545.873 114.932C546.438 113.69 546.646 112.092 546.643 110.641V110.544C546.642 110.012 547.072 109.581 547.603 109.58C548.051 109.579 548.427 109.885 548.535 110.299C548.786 111.256 548.86 112.125 548.851 113.068C548.825 113.996 548.711 114.951 548.381 115.881C547.802 117.747 546.294 119.523 544.425 120.309L543.733 120.608C543.498 120.7 543.24 120.755 542.991 120.82C542.504 120.974 541.957 120.99 541.433 121.037C540.354 121.044 539.279 120.745 538.365 120.253C537.453 119.751 536.705 119.075 536.11 118.329C535.514 117.565 535.057 116.803 534.714 115.859C534.532 115.36 534.79 114.808 535.288 114.626C535.693 114.479 536.131 114.619 536.379 114.942L536.452 115.036Z" fill="#434343"/>
<path d="M561.363 113.764C561.171 114.749 560.839 115.572 560.371 116.421C559.899 117.25 559.265 118.036 558.442 118.674C557.619 119.302 556.603 119.766 555.536 119.929C555.011 119.964 554.469 120.034 553.962 119.958C553.707 119.932 553.444 119.919 553.197 119.864L552.466 119.677C550.498 119.193 548.731 117.674 547.867 115.922C547.395 115.055 547.133 114.129 546.964 113.218C546.806 112.288 546.744 111.416 546.841 110.433C546.894 109.904 547.365 109.518 547.894 109.57C548.339 109.614 548.683 109.955 548.75 110.378L548.764 110.475C548.989 111.908 549.444 113.455 550.197 114.592C550.956 115.743 551.964 116.534 553.257 116.85L553.74 116.969C553.9 117 554.059 116.998 554.217 117.023C554.539 117.09 554.834 117.031 555.14 117.036C555.728 116.945 556.293 116.762 556.825 116.418C557.362 116.088 557.867 115.612 558.32 115.053C558.769 114.508 559.189 113.823 559.517 113.222L559.573 113.119C559.828 112.652 560.413 112.481 560.88 112.736C561.256 112.942 561.44 113.364 561.363 113.764Z" fill="#434343"/>
<path d="M599.048 117.225C599.219 119.415 595.663 121.48 591.103 121.838C586.543 122.197 582.707 120.713 582.535 118.524C582.362 116.336 585.92 114.271 590.48 113.912C595.039 113.553 598.875 115.037 599.048 117.225Z" fill="#E48780"/>
<path d="M515 123.769C515.172 125.957 511.615 128.022 507.055 128.381C502.496 128.74 498.66 127.256 498.488 125.067C498.316 122.878 501.872 120.813 506.432 120.455C510.992 120.095 514.827 121.579 515 123.769Z" fill="#E48780"/>
<path d="M522.647 98.4077C522.993 102.856 520.953 106.647 518.093 106.873C515.233 107.101 512.633 103.68 512.289 99.2335C511.943 94.7849 513.982 90.9945 516.843 90.7682C519.703 90.5401 522.302 93.9608 522.647 98.4077Z" fill="#434343"/>
<path d="M587.222 87.9986C585.543 88.6321 583.841 89.3533 582.275 90.1543C580.698 90.9608 579.218 91.8674 577.851 92.8717C577.153 93.3569 576.529 93.9186 575.882 94.4477L574.985 95.3172C574.84 95.4655 574.678 95.5969 574.541 95.7508L574.13 96.217C572.979 97.4145 572.096 98.821 571.226 100.243L567.834 96.891C567.991 96.8113 568.089 96.7686 568.196 96.7203C568.306 96.6708 568.408 96.6259 568.508 96.5877C568.713 96.5057 568.917 96.4248 569.117 96.3586C569.518 96.2103 569.919 96.0934 570.32 95.9732C571.122 95.7418 571.937 95.5834 572.751 95.4565C574.383 95.2105 576.044 95.1813 577.671 95.3756C579.297 95.5733 580.898 95.953 582.377 96.5956C583.873 97.1887 585.223 98.0694 586.445 99.0299C586.818 99.3231 586.883 99.8646 586.588 100.238C586.375 100.512 586.027 100.619 585.71 100.543L585.61 100.518C584.901 100.346 584.242 100.107 583.558 99.9567C582.869 99.8185 582.207 99.6477 581.524 99.5803C580.182 99.3658 578.84 99.331 577.523 99.4085C576.206 99.4691 574.908 99.6848 573.649 100.015C573.333 100.091 573.024 100.195 572.713 100.282L571.798 100.594C571.501 100.708 571.201 100.819 570.919 100.949C570.773 101.009 570.639 101.076 570.505 101.141C570.436 101.172 570.37 101.202 570.313 101.233L570.179 101.304L570.128 101.329C568.909 101.963 567.407 101.489 566.774 100.27C566.383 99.5197 566.42 98.648 566.786 97.9515C567.773 96.1013 568.888 94.2702 570.38 92.7582C571.064 91.946 571.911 91.3035 572.699 90.6081C573.558 90.0037 574.393 89.3657 575.321 88.8894C577.134 87.8694 579.071 87.1201 581.053 86.6764C583.047 86.2427 585.032 86.0518 587.104 86.2955C587.579 86.3517 587.919 86.782 587.862 87.2571C587.824 87.5885 587.602 87.8548 587.31 87.966L587.222 87.9986Z" fill="#434343"/>
<path d="M515.449 171.86C515.449 171.86 513.992 208.286 542.605 210.165C564.205 211.584 567.495 204.374 582.911 203.281C599.961 202.072 596.765 190.193 596.765 190.193C596.765 190.193 600.446 188.142 600.806 184.028C601.121 180.429 598.746 177.465 598.746 177.465C598.746 177.465 599.256 172.843 596.048 169.758C589.355 163.323 575.679 161.114 564.31 171.176C560.247 174.771 555.535 176.273 550.648 175.38L515.449 171.86Z" fill="#D5CFD1"/>
<path d="M810.266 172.875C810.266 172.875 811.723 209.301 783.11 211.18C764.998 212.37 759.76 207.493 749.451 205.242C747.466 204.809 745.293 204.473 742.804 204.296C725.754 203.087 728.95 191.208 728.95 191.208C728.95 191.208 725.269 189.157 724.909 185.043C724.594 181.444 726.969 178.48 726.969 178.48C726.969 178.48 726.459 173.858 729.667 170.773C736.36 164.338 750.036 162.129 761.406 172.191C765.468 175.787 770.18 177.288 775.067 176.395L810.266 172.875Z" fill="#D79863"/>
<path d="M783.417 211.388C812.03 209.509 810.573 173.083 810.573 173.083L775.374 176.603C770.487 177.496 765.774 175.994 761.712 172.399C756.497 176.763 746.739 189.527 749.693 205.493C759.773 208.434 765.305 212.578 783.417 211.388Z" fill="#A6744A"/>
<path d="M596.368 195.948C596.452 195.728 596.525 195.51 596.589 195.294C596.525 195.51 596.452 195.728 596.368 195.948Z" fill="#7C0E73"/>
<path d="M729.347 196.963C729.263 196.743 729.19 196.525 729.126 196.309C729.19 196.525 729.263 196.743 729.347 196.963Z" fill="#7C0E73"/>
<path d="M547.953 210.351C546.299 210.352 544.526 210.293 542.603 210.167C529.833 209.329 523.05 201.606 519.459 193.31C523.051 201.603 529.833 209.326 542.605 210.165C544.526 210.291 546.304 210.349 547.957 210.349C559.566 210.349 565.085 207.494 571.936 205.379C565.084 207.495 559.562 210.351 547.953 210.351Z" fill="#7C7CB6"/>
<path d="M777.761 211.366C779.415 211.367 781.189 211.308 783.111 211.183C795.881 210.345 802.664 202.622 806.255 194.326C802.663 202.618 795.881 210.341 783.11 211.18C781.189 211.306 779.411 211.365 777.757 211.365C766.148 211.365 760.629 208.509 753.778 206.394C760.63 208.51 766.153 211.366 777.761 211.366Z" fill="#7C7CB6"/>
<path d="M575.653 204.365C575.653 204.363 575.654 204.366 575.653 204.364C576.047 204.273 576.449 204.184 576.859 204.101C576.449 204.185 576.048 204.273 575.653 204.365Z" fill="#570A73"/>
<path d="M590.986 201.417V201.415C594.072 199.963 595.622 197.905 596.367 195.948C595.622 197.906 594.073 199.964 590.986 201.417Z" fill="#570A73"/>
<path d="M734.728 202.432V202.431C731.642 200.979 730.092 198.921 729.347 196.964C730.092 198.922 731.641 200.98 734.728 202.432Z" fill="#570A73"/>
<path d="M576.859 204.101C578.683 203.728 580.668 203.441 582.911 203.281C586.372 203.036 588.998 202.351 590.987 201.415V201.416C588.998 202.352 586.372 203.036 582.912 203.281C580.669 203.441 578.683 203.728 576.859 204.101Z" fill="#3D0773"/>
<path d="M748.855 205.117C747.032 204.744 745.047 204.456 742.804 204.297C739.343 204.052 736.717 203.367 734.728 202.431V202.432C736.717 203.368 739.343 204.052 742.803 204.297C745.046 204.456 747.032 204.744 748.855 205.117Z" fill="#3D0773"/>
<path d="M571.937 205.378C573.123 205.012 574.347 204.668 575.653 204.364C575.654 204.366 575.653 204.362 575.653 204.365C574.349 204.667 573.122 205.012 571.937 205.378Z" fill="#000072"/>
<path d="M605.031 147.841C605.031 147.841 604.054 155.545 610.445 158.601C612.901 159.773 617.059 158.247 617.059 158.247C617.059 158.247 618.799 161.058 624.865 160.41C628.666 160.005 632.714 156.608 632.714 156.608C632.714 156.608 636.235 157.652 639.215 155.806C643.398 153.212 644.24 144.651 639.338 140.867C634.614 137.222 608.854 133.289 605.031 147.841Z" fill="#D5CFD1"/>
<path d="M623.118 160.508C620.214 160.508 618.577 159.63 617.755 158.968C618.577 159.63 620.215 160.507 623.12 160.507C623.658 160.507 624.238 160.478 624.864 160.411C625.057 160.39 625.249 160.362 625.441 160.327C625.247 160.362 625.055 160.39 624.863 160.411C624.236 160.478 623.655 160.508 623.118 160.508ZM612.763 159.045C612.576 159.045 612.39 159.038 612.205 159.024C612.388 159.038 612.573 159.043 612.758 159.043C614.889 159.043 617.058 158.247 617.058 158.247C617.058 158.247 617.058 158.247 617.059 158.248C617.014 158.264 614.87 159.045 612.763 159.045ZM631.117 157.782C632.097 157.126 632.713 156.608 632.713 156.608H632.714C632.687 156.63 632.075 157.14 631.117 157.782Z" fill="#7C0E73"/>
<path d="M702.597 161.523C705.5 161.523 707.137 160.645 707.959 159.983C707.137 160.645 705.499 161.522 702.594 161.522C702.056 161.522 701.477 161.493 700.85 161.426C700.658 161.405 700.466 161.377 700.273 161.343C700.467 161.377 700.659 161.405 700.851 161.426C701.478 161.493 702.06 161.523 702.597 161.523ZM712.952 160.06C713.138 160.06 713.325 160.053 713.509 160.039C713.326 160.053 713.141 160.059 712.956 160.059C710.825 160.059 708.656 159.262 708.656 159.262C708.656 159.262 708.656 159.262 708.655 159.263C708.7 159.279 710.844 160.06 712.952 160.06ZM694.597 158.797C693.618 158.141 693.001 157.623 693.001 157.623H693C693.027 157.646 693.639 158.156 694.597 158.797Z" fill="#7C0E73"/>
<path d="M605.281 151.815C605.254 151.691 605.229 151.566 605.206 151.445C605.207 151.444 605.206 151.445 605.207 151.444C605.23 151.566 605.254 151.688 605.281 151.813C605.281 151.814 605.281 151.814 605.281 151.815Z" fill="#B21473"/>
<path d="M720.433 152.831C720.46 152.706 720.486 152.582 720.509 152.46C720.507 152.459 720.509 152.46 720.507 152.459C720.485 152.582 720.46 152.704 720.433 152.829C720.433 152.83 720.433 152.83 720.433 152.831Z" fill="#B21473"/>
<path d="M605.206 151.444C604.976 150.213 604.961 149.143 604.985 148.496C604.986 148.494 604.985 148.496 604.986 148.494C604.962 149.141 604.977 150.212 605.207 151.443C605.206 151.444 605.207 151.443 605.206 151.444Z" fill="#B2539A"/>
<path d="M720.509 152.461C720.739 151.23 720.754 150.159 720.73 149.512C720.729 149.511 720.73 149.512 720.729 149.511C720.753 150.158 720.738 151.229 720.508 152.46C720.509 152.461 720.508 152.46 720.509 152.461Z" fill="#B2539A"/>
<path d="M607.426 156.305C606.222 154.895 605.597 153.266 605.281 151.815C605.281 151.814 605.281 151.814 605.281 151.813C605.597 153.264 606.222 154.895 607.426 156.305Z" fill="#7C0E73"/>
<path d="M718.289 157.321C719.493 155.911 720.117 154.282 720.433 152.831C720.433 152.83 720.433 152.83 720.433 152.829C720.117 154.28 719.493 155.911 718.289 157.321Z" fill="#7C0E73"/>
<path d="M604.985 148.496C604.999 148.083 605.03 147.842 605.03 147.842C605.198 147.202 605.406 146.6 605.658 146.031C605.408 146.601 605.199 147.203 605.031 147.841C605.031 147.841 605.001 148.083 604.986 148.495C604.985 148.496 604.986 148.495 604.985 148.496Z" fill="#000072"/>
<path d="M720.73 149.512C720.716 149.098 720.685 148.858 720.685 148.858C720.517 148.218 720.309 147.616 720.057 147.047C720.307 147.617 720.516 148.219 720.684 148.857C720.684 148.857 720.715 149.098 720.729 149.511C720.73 149.512 720.729 149.511 720.73 149.512Z" fill="#000072"/>
<path d="M638.787 156.048C638.931 155.974 639.072 155.893 639.214 155.806C639.817 155.432 640.351 154.933 640.808 154.343C640.809 154.344 640.808 154.344 640.809 154.344C640.352 154.934 639.819 155.432 639.216 155.805C639.074 155.892 638.931 155.974 638.787 156.048Z" fill="#7C0E73"/>
<path d="M686.927 157.064C686.783 156.99 686.642 156.909 686.5 156.822C685.897 156.448 685.363 155.949 684.906 155.359C684.905 155.36 684.906 155.36 684.905 155.36C685.362 155.95 685.895 156.448 686.498 156.821C686.641 156.908 686.783 156.99 686.927 157.064Z" fill="#7C0E73"/>
<path d="M640.809 154.345C640.808 154.345 640.809 154.345 640.808 154.344C641.315 153.69 641.727 152.923 642.036 152.087L642.037 152.088C641.728 152.924 641.316 153.691 640.809 154.345Z" fill="#FF5F9C"/>
<path d="M684.905 155.36C684.906 155.36 684.905 155.36 684.906 155.359C684.4 154.705 683.988 153.938 683.679 153.102L683.678 153.103C683.986 153.939 684.399 154.706 684.905 155.36Z" fill="#7C3A8E"/>
<path d="M642.037 152.087L642.036 152.086C642.483 150.874 642.713 149.516 642.691 148.147C642.713 149.516 642.485 150.874 642.037 152.087Z" fill="#000072"/>
<path d="M683.677 153.103L683.678 153.101C683.231 151.889 683.002 150.531 683.024 149.162C683.002 150.531 683.23 151.889 683.677 153.103Z" fill="#000072"/>
<path d="M720.684 148.857C720.684 148.857 721.661 156.561 715.269 159.616C712.814 160.789 708.656 159.262 708.656 159.262C708.656 159.262 706.916 162.074 700.85 161.426C697.049 161.02 693.001 157.623 693.001 157.623C693.001 157.623 689.479 158.668 686.5 156.821C682.317 154.227 681.474 145.666 686.377 141.883C691.1 138.238 716.861 134.305 720.684 148.857Z" fill="#D79863"/>
<path d="M764.729 153.728C674.927 142.701 691.404 104.438 697.868 93.4133C698.554 92.2407 699.226 90.9817 699.87 89.66C703.209 82.8574 705.967 74.512 707.604 69.0697C708.46 66.2197 709.183 63.328 709.833 60.422C723.397 0.037329 782.369 10.0597 782.369 10.0597C782.369 10.0597 842.014 14.6016 840.567 76.4742C840.494 79.451 840.497 82.4317 840.638 85.4042C840.963 92.1811 841.835 103.365 844.195 111.38C847.8 123.641 854.531 164.754 764.729 153.728Z" fill="#A6744A"/>
<path d="M722.449 145.404C719.421 143.759 716.634 142.056 714.082 140.345C714.255 139.986 714.425 139.643 714.593 139.314C717.127 140.555 719.86 141.725 722.789 142.823C722.649 143.703 722.537 144.564 722.449 145.404Z" fill="#8B5C35"/>
<path d="M753.234 156.636C741.03 154.048 730.818 149.947 722.45 145.403C722.537 144.564 722.649 143.702 722.789 142.822C729.523 145.346 737.292 147.488 746.097 149.247C746.217 149.485 746.342 149.72 746.473 149.952C748.015 152.678 750.314 154.932 753.234 156.636Z" fill="#8B5C35"/>
<path d="M807.766 155.879C807.884 155.044 807.984 154.181 808.061 153.293C811.174 152.935 814.117 152.459 816.881 151.866C816.965 152.225 817.047 152.599 817.129 152.988C814.233 154.033 811.109 155.014 807.766 155.879Z" fill="#8B5C35"/>
<path d="M775.18 159.331C778.424 158.384 781.2 156.753 783.356 154.481C783.539 154.288 783.718 154.09 783.892 153.888C792.86 154.312 800.917 154.112 808.061 153.293C807.984 154.18 807.885 155.044 807.766 155.879C798.548 158.264 787.647 159.772 775.18 159.331Z" fill="#8B5C35"/>
<path d="M698.471 104.858C672.907 99.9255 670.963 86.3832 676.137 73.3728C680.101 63.3829 688.259 53.7036 693.15 48.4628C695.73 45.6995 697.805 42.5121 699.351 39.0599C719.932 -6.9363 750.264 12.3216 750.264 12.3216C750.264 12.3216 750.28 12.9641 750.289 14.1374C750.356 27.8716 748.802 114.569 698.471 104.858Z" fill="#A6744A"/>
<path d="M692.001 100.964C683.643 98.3245 678.532 94.2643 676.768 88.8487C675.455 84.815 676.011 80.2725 677.609 75.7042C679.606 78.1907 682.399 79.5975 685.307 79.9546C690.282 80.5654 695.593 78.1018 697.833 72.7073C699.849 67.8483 701.953 62.1124 703.567 56.1105C706.58 44.898 718.706 21.5654 738.567 15.5304C725.93 22.5205 713.139 35.5836 707.67 59.9361C706.939 63.1942 706.243 65.8938 705.48 68.4314C703.724 74.2694 700.153 85.1323 695.955 92.2912C694.648 94.5203 693.147 97.498 692.001 100.964Z" fill="#8B5C35"/>
<path d="M840.842 122.339C866.84 123.737 872.002 111.067 870.129 97.1918C868.7 86.5397 863.125 75.1743 859.647 68.9058C857.813 65.6006 856.571 62.0059 855.905 58.2822C847.064 8.67334 812.973 20.021 812.973 20.021C812.973 20.021 812.803 20.6407 812.51 21.7769C809.122 35.0869 789.656 119.585 840.842 122.339Z" fill="#A6744A"/>
<path d="M848.061 120.126C847.787 116.485 847.051 113.232 846.322 110.753C843.982 102.793 843.144 91.3874 842.853 85.2973C842.726 82.6511 842.705 79.8635 842.783 76.5251C843.368 51.573 834.118 35.8036 823.546 25.9638C841.359 36.6246 847.479 62.1975 847.69 73.8059C847.804 80.0201 848.457 86.0944 849.238 91.2969C850.106 97.073 854.663 100.749 859.639 101.359C862.547 101.716 865.597 101.027 868.137 99.0975C868.582 103.917 868.023 108.459 865.772 112.055C862.751 116.883 856.809 119.586 848.061 120.126Z" fill="#8B5C35"/>
<path d="M844.195 111.38C843.813 110.076 843.466 108.692 843.161 107.254C838.623 104.243 830.659 101.03 819.258 103.846C808.928 106.397 798.074 102.46 791.79 93.8725C791.235 93.1141 790.675 92.3192 790.111 91.4854C788.234 88.7108 786.483 86.265 784.883 84.1293C779.447 76.8672 769.043 75.5897 762.011 81.3209C759.942 83.0062 757.651 84.9557 755.158 87.1938C754.41 87.8664 753.674 88.5022 752.952 89.1039C744.778 95.9158 733.293 97.11 723.887 92.1359C713.506 86.6449 705.001 87.8367 699.87 89.66C699.226 90.9817 698.554 92.2407 697.868 93.4133C691.404 104.438 674.927 142.701 764.729 153.728C854.531 164.754 847.8 123.641 844.195 111.38Z" fill="#D79863"/>
<path d="M697.904 98.1152C698.532 96.7663 699.181 95.5612 699.782 94.5354C699.81 94.4882 699.838 94.441 699.865 94.3937C699.83 94.4671 699.794 94.5403 699.758 94.6136C699.159 95.8414 698.538 97.014 697.904 98.1152Z" fill="#D79863"/>
<path d="M781.517 99.7982C781.396 100.783 776.814 101.031 771.283 100.352C765.752 99.6726 761.366 98.3233 761.487 97.3388C761.608 96.3544 766.19 96.107 771.721 96.7862C777.252 97.4653 781.638 98.8137 781.517 99.7982Z" fill="#D79863"/>
<path d="M740.939 106.76C740.932 110.256 741.732 113.889 743.581 116.557C744.524 117.875 745.685 118.979 747.089 119.725L747.615 120.002L748.164 120.239C748.521 120.415 748.92 120.518 749.291 120.664C749.686 120.769 750.072 120.89 750.475 120.976C750.884 121.043 751.274 121.162 751.693 121.202C752.507 121.325 753.38 121.398 754.228 121.43C754.653 121.45 755.077 121.461 755.497 121.446C755.92 121.448 756.336 121.414 756.751 121.383C757.169 121.361 757.573 121.292 757.985 121.248C758.385 121.168 758.795 121.119 759.184 121.011C759.977 120.831 760.738 120.579 761.473 120.278C762.948 119.686 764.308 118.863 765.55 117.805C766.17 117.274 766.756 116.684 767.317 116.046C767.592 115.723 767.865 115.391 768.13 115.048C768.386 114.709 768.648 114.324 768.872 114.004L768.94 113.906C769.176 113.568 769.64 113.486 769.977 113.721C770.2 113.876 770.312 114.132 770.295 114.384C770.256 114.951 770.169 115.426 770.039 115.93C769.916 116.426 769.748 116.909 769.553 117.383C769.157 118.329 768.639 119.236 768.001 120.066C766.734 121.729 765.004 123.09 763.076 123.957C762.114 124.391 761.112 124.732 760.095 124.949C759.59 125.08 759.079 125.144 758.57 125.236C758.061 125.29 757.55 125.371 757.042 125.391C756.534 125.418 756.026 125.444 755.522 125.431C755.016 125.437 754.515 125.413 754.017 125.379C753.016 125.32 752.046 125.189 751.035 125.002C749.038 124.63 747.025 123.925 745.248 122.754C744.362 122.176 743.528 121.499 742.81 120.717C742.083 119.946 741.447 119.09 740.956 118.17C740.456 117.256 740.061 116.302 739.763 115.333C739.471 114.361 739.287 113.373 739.177 112.39C739.062 111.407 739.045 110.423 739.091 109.45C739.137 108.469 739.25 107.531 739.476 106.537C739.566 106.139 739.964 105.888 740.363 105.979C740.707 106.058 740.939 106.364 740.939 106.703L740.939 106.76Z" fill="#434343"/>
<path d="M772.048 114.153C772.048 114.125 772.049 114.146 772.05 114.158L772.055 114.204L772.068 114.317L772.104 114.569C772.131 114.744 772.167 114.924 772.205 115.104C772.285 115.465 772.386 115.827 772.496 116.186C772.728 116.903 773.029 117.597 773.388 118.255C774.118 119.563 775.095 120.716 776.298 121.648C776.899 122.112 777.543 122.537 778.24 122.9C778.577 123.098 778.95 123.245 779.306 123.42C779.682 123.562 780.044 123.73 780.434 123.852C780.818 123.981 781.204 124.113 781.605 124.212C781.998 124.334 782.403 124.429 782.812 124.518C783.624 124.703 784.478 124.839 785.275 124.923C786.894 125.093 788.482 125.026 789.956 124.633C791.439 124.257 792.774 123.504 793.956 122.485C796.324 120.445 798.028 117.255 799.179 113.911L799.198 113.854C799.332 113.465 799.755 113.259 800.145 113.392C800.437 113.493 800.626 113.758 800.645 114.049C800.712 115.079 800.642 116.034 800.5 117.02C800.359 117.998 800.128 118.97 799.807 119.926C799.173 121.836 798.146 123.696 796.684 125.271C795.96 126.061 795.106 126.753 794.187 127.34C793.271 127.939 792.267 128.403 791.238 128.756C790.21 129.131 789.147 129.322 788.088 129.48C787.562 129.527 787.029 129.582 786.504 129.591C785.983 129.582 785.45 129.616 784.937 129.567C783.889 129.509 782.905 129.398 781.902 129.225C781.4 129.142 780.9 129.049 780.399 128.924C779.898 128.814 779.401 128.665 778.905 128.514C778.406 128.372 777.917 128.173 777.423 127.998C776.938 127.785 776.445 127.6 775.971 127.349C775.009 126.889 774.086 126.313 773.218 125.653C772.35 124.994 771.533 124.247 770.81 123.412C770.09 122.576 769.461 121.659 768.932 120.693C768.401 119.726 767.993 118.701 767.679 117.649C767.525 117.121 767.396 116.586 767.303 116.038C767.257 115.763 767.216 115.486 767.184 115.2L767.144 114.763L767.129 114.53L767.118 114.235C767.096 112.873 768.181 111.751 769.542 111.729C770.904 111.706 772.025 112.792 772.048 114.153Z" fill="#434343"/>
<path d="M749.653 73.3257C749.188 77.1114 746.396 79.8839 743.415 79.5179C740.435 79.1521 738.396 75.7863 738.861 72.0006C739.326 68.2149 742.119 65.4411 745.098 65.807C748.079 66.173 750.118 69.54 749.653 73.3257Z" fill="#434343"/>
<path d="M807.519 79.9663C807.054 83.752 804.261 86.5246 801.28 86.1586C798.301 85.7927 796.262 82.4269 796.727 78.6412C797.192 74.8555 799.984 72.0817 802.964 72.4476C805.945 72.8136 807.983 76.1806 807.519 79.9663Z" fill="#434343"/>
<path d="M763.774 161.543C779.805 163.511 786.928 153.235 785.082 142.789C784.223 137.931 786.099 127.3 786.099 127.3C786.099 127.3 768.845 126.558 769.757 112.779C767.308 126.37 750.387 122.915 750.387 122.915C750.387 122.915 749.635 133.684 747.627 138.19C743.308 147.879 747.734 159.573 763.765 161.542L763.774 161.543Z" fill="#FF9FCF"/>
<path d="M771.959 113.049C771.856 115.844 771.564 118.616 771.246 121.385C770.911 124.15 770.505 126.908 770.043 129.659C769.579 132.41 769.075 135.156 768.418 137.883C767.757 140.609 767.02 143.327 765.979 146.006C765.917 146.165 765.738 146.244 765.58 146.182C765.47 146.139 765.399 146.042 765.384 145.933C765.023 143.081 764.965 140.266 764.984 137.461C765.005 134.656 765.181 131.87 765.396 129.089C765.613 126.308 765.886 123.534 766.23 120.769C766.592 118.006 766.979 115.246 767.555 112.509C767.808 111.305 768.989 110.534 770.192 110.787C771.27 111.014 772 111.985 771.959 113.049Z" fill="#F274B4"/>
<path d="M762.102 105.184C762.102 105.184 753.727 117.037 740.207 106.649C740.207 106.649 737.05 121.376 752.641 123.291C768.231 125.205 770.123 109.79 770.123 109.79L762.102 105.184Z" fill="#D79863"/>
<path d="M779.021 107.262C779.021 107.262 784.279 120.789 799.911 113.98C799.911 113.98 799.411 129.034 783.821 127.119C768.231 125.205 770.123 109.79 770.123 109.79L779.021 107.262Z" fill="#D79863"/>
<path d="M748.057 124.178C747.083 123.809 746.136 123.34 745.248 122.754C744.362 122.176 743.528 121.499 742.809 120.717C742.083 119.946 741.447 119.091 740.956 118.171C740.455 117.257 740.061 116.302 739.763 115.334C739.47 114.361 739.287 113.373 739.176 112.39C739.061 111.407 739.044 110.423 739.091 109.451C739.114 108.952 739.155 108.464 739.219 107.974C739.528 107.121 739.83 106.435 740.046 105.976C740.124 105.961 740.205 105.957 740.287 105.967C740.312 105.97 740.337 105.974 740.362 105.98C740.435 105.996 740.502 106.023 740.563 106.057C740.65 106.32 740.772 106.644 740.939 107.012C740.94 107.073 740.941 107.134 740.942 107.196C740.699 107.02 740.453 106.838 740.207 106.649C740.207 106.649 737.697 118.361 748.209 122.254L748.173 122.76C748.147 123.145 748.108 123.626 748.057 124.178Z" fill="#434343"/>
<path d="M787.993 129.488C788.101 128.771 788.202 128.155 788.285 127.685L788.371 127.185C799.515 125.952 799.912 113.98 799.912 113.98C799.612 114.11 799.316 114.233 799.024 114.349C799.044 114.292 799.064 114.236 799.084 114.179C799.319 113.886 799.507 113.62 799.652 113.396C799.759 113.357 799.876 113.343 799.992 113.357C800.043 113.363 800.094 113.376 800.145 113.392C800.176 113.403 800.206 113.417 800.235 113.431C800.357 114.05 800.515 115.012 800.602 116.182C800.575 116.461 800.541 116.739 800.5 117.02C800.359 117.998 800.128 118.971 799.807 119.926C799.173 121.837 798.146 123.696 796.684 125.271C795.96 126.062 795.106 126.754 794.187 127.341C793.271 127.94 792.267 128.404 791.238 128.757C790.21 129.131 789.147 129.323 788.088 129.48C788.056 129.482 788.024 129.485 787.993 129.488Z" fill="#434343"/>
<path d="M783.589 107.843C784.08 103.846 778.846 98.8983 771.746 98.0266C764.647 97.1549 758.371 100.689 757.88 104.686C757.389 108.684 762.747 112.631 769.846 113.503C776.946 114.374 783.099 111.841 783.589 107.843Z" fill="#434343"/>
<path d="M771.965 114.829L771.883 115.113L771.812 115.336L771.667 115.75C771.567 116.02 771.461 116.278 771.349 116.534C771.126 117.044 770.871 117.532 770.595 118.006C770.035 118.951 769.391 119.847 768.643 120.656C767.896 121.466 767.063 122.204 766.162 122.841C765.258 123.476 764.285 124.003 763.284 124.433C762.282 124.863 761.247 125.199 760.202 125.412C759.682 125.541 759.159 125.601 758.636 125.69C758.115 125.741 757.592 125.816 757.074 125.833C756.556 125.859 756.037 125.884 755.525 125.869C755.009 125.869 754.5 125.838 753.994 125.798C752.978 125.723 751.997 125.593 750.966 125.396C750.457 125.318 749.947 125.157 749.44 125.039C748.932 124.903 748.429 124.721 747.93 124.548C746.94 124.14 745.955 123.697 745.048 123.084C744.135 122.493 743.273 121.8 742.529 120.997C741.779 120.205 741.119 119.327 740.607 118.385C739.569 116.503 739.023 114.45 738.87 112.443C738.789 111.438 738.801 110.439 738.9 109.456C739.002 108.465 739.164 107.521 739.478 106.538C739.603 106.146 740.023 105.929 740.415 106.054C740.709 106.149 740.905 106.409 740.93 106.699L740.935 106.759C741.243 110.282 742.124 113.79 743.929 116.342C744.828 117.616 745.941 118.67 747.289 119.393C748.625 120.132 750.149 120.581 751.761 120.808C752.555 120.919 753.417 120.993 754.249 121.01C754.667 121.023 755.084 121.029 755.494 121.006C755.908 121.007 756.314 120.972 756.718 120.94C757.126 120.915 757.518 120.84 757.917 120.794C758.304 120.709 758.702 120.657 759.077 120.547C759.841 120.363 760.569 120.107 761.265 119.801C762.657 119.188 763.884 118.306 764.908 117.213C765.416 116.662 765.875 116.061 766.274 115.421C766.468 115.1 766.653 114.772 766.82 114.442C766.899 114.276 766.977 114.11 767.046 113.948L767.141 113.712L767.182 113.605L767.197 113.561C767.201 113.55 767.207 113.53 767.201 113.557C767.552 112.242 768.903 111.46 770.219 111.812C771.534 112.162 772.316 113.514 771.965 114.829Z" fill="#434343"/>
<path d="M772.048 114.153C772.048 114.125 772.049 114.146 772.05 114.158L772.055 114.204L772.068 114.317L772.104 114.569C772.131 114.744 772.167 114.924 772.204 115.104C772.285 115.465 772.386 115.827 772.496 116.186C772.728 116.903 773.029 117.597 773.388 118.255C774.118 119.563 775.095 120.716 776.298 121.648C776.899 122.112 777.543 122.537 778.24 122.9C778.577 123.098 778.95 123.245 779.306 123.42C779.682 123.562 780.044 123.73 780.434 123.852C780.818 123.981 781.204 124.113 781.605 124.212C781.999 124.334 782.403 124.429 782.812 124.518C783.624 124.703 784.478 124.839 785.275 124.923C786.894 125.093 788.482 125.026 789.956 124.633C791.439 124.257 792.774 123.504 793.956 122.485C796.324 120.445 798.028 117.255 799.179 113.911L799.198 113.854C799.332 113.465 799.755 113.259 800.145 113.392C800.437 113.493 800.626 113.758 800.645 114.049C800.712 115.079 800.642 116.034 800.5 117.02C800.359 117.998 800.128 118.97 799.807 119.926C799.173 121.836 798.146 123.696 796.684 125.271C795.96 126.061 795.106 126.753 794.187 127.34C793.271 127.939 792.267 128.403 791.238 128.756C790.21 129.131 789.147 129.322 788.088 129.48C787.562 129.527 787.029 129.582 786.504 129.591C785.983 129.582 785.45 129.616 784.937 129.567C783.889 129.509 782.905 129.398 781.902 129.225C781.4 129.142 780.9 129.049 780.399 128.924C779.898 128.814 779.401 128.665 778.905 128.514C778.406 128.372 777.917 128.173 777.423 127.997C776.939 127.785 776.445 127.6 775.971 127.349C775.009 126.889 774.086 126.313 773.218 125.653C772.35 124.994 771.533 124.247 770.81 123.412C770.09 122.576 769.462 121.659 768.932 120.693C768.401 119.726 767.993 118.701 767.679 117.649C767.525 117.121 767.396 116.586 767.303 116.038C767.257 115.763 767.216 115.486 767.184 115.2L767.144 114.763L767.129 114.53L767.118 114.235C767.095 112.874 768.181 111.751 769.542 111.729C770.904 111.706 772.025 112.792 772.048 114.153Z" fill="#434343"/>
<path d="M518.758 154.521C516.717 154.296 514.851 154.051 513.204 153.798C515.167 154.057 517.016 154.297 518.758 154.521C535.443 156.36 563.85 156.911 580.201 150.57C580.986 150.252 581.686 149.956 582.29 149.691C581.619 149.998 580.922 150.291 580.201 150.57C573.352 153.344 560.089 157.768 548.472 157.421C546.887 157.421 544.667 157.846 518.758 154.521Z" fill="#B2B2D4"/>
<path d="M513.204 153.798C528.905 156.214 564.511 157.808 582.29 149.691C576.412 152.268 561.419 157.808 548.472 157.421C546.781 157.421 544.365 157.905 513.204 153.798Z" stroke="#B2B2D4" stroke-width="0.483124"/>
<path d="M47.9997 217.253C48.7327 218.126 48.9034 219.473 50.4275 219.75C55.5746 220.705 59.6433 222.801 64.2915 224.266C66.0635 224.822 67.6778 224.733 69.0018 222.981C70.0234 221.605 68.8574 221.127 67.8621 220.507C64.516 218.428 59.2714 218.551 55.5889 216.829C54.1207 216.154 52.5689 215.406 50.5196 215.426C49.0304 215.434 47.9166 215.945 47.9997 217.253Z" fill="#FEA273"/>
<path d="M84.1026 228.127C84.299 228.713 85.021 229.152 85.9097 229.484C89.2925 230.719 93.1403 231.264 96.9994 231.83C99.0513 232.128 100.578 231.532 101.607 229.866C102.804 227.892 101.301 227.653 99.3293 227.488C96.0189 227.233 92.6718 227.007 89.8752 225.917C88.6301 225.425 87.1421 225.586 85.623 226.24C84.7176 226.638 83.9761 227.184 84.1026 228.127Z" fill="#FEA273"/>
<path d="M303.236 129.322C302.225 129.7 301.311 130.028 300.414 130.393C299.305 130.859 298.187 131.416 298.414 132.366C298.611 133.206 298.888 134.016 300.73 133.747C304.476 133.201 308.23 132.819 311.97 132.306C313.567 132.073 314.898 131.477 315.66 130.2C316.65 128.548 316.64 127.441 313.848 127.808C310.29 128.25 306.717 128.818 303.236 129.322Z" fill="#FEA273"/>
<path d="M156.816 226.787C160.539 224.594 165.575 223.094 170.377 221.081C171.191 220.747 171.847 220.009 172.446 219.413C173.078 218.775 173.396 218.033 172.753 217.562C172.287 217.218 171.389 217.375 170.655 217.677C165.263 219.843 159.871 222.012 154.522 224.268C153.136 224.853 151.406 225.831 151.998 226.953C152.594 228.045 154.44 227.429 156.816 226.787Z" fill="#FEA273"/>
<path d="M9.58867 193.961C8.56546 190.613 5.41603 188.502 3.28857 185.887C2.65597 185.125 1.54848 185.288 0.453555 186.049C-0.767999 186.885 -2.15477 187.835 -0.877998 188.809C1.68176 190.775 3.02669 193.38 5.01448 195.644C5.70045 196.413 6.20899 197.569 8.16243 196.776C10.0563 196.004 9.43087 194.851 9.58867 193.961Z" fill="#FEA273"/>
<path d="M271.697 140.276C267.704 141.987 263.634 143.426 260.045 145.553C258.282 146.603 257.155 147.855 258.702 149.011C260.017 150.018 261.279 149.103 262.491 148.193C265.086 146.277 268.39 145.483 271.318 144.083C271.668 143.915 272.057 143.838 272.441 143.747C274.797 143.158 276.715 142.032 276.282 140.365C275.777 138.396 273.146 140.447 271.697 140.276Z" fill="#FEA273"/>
<path d="M21.6938 204.627C23.2961 207.492 26.2862 209.514 29.9474 211.094C30.7987 211.454 31.7009 211.252 32.4293 210.576C33.3602 209.714 34.2821 208.481 33.5056 207.928C30.7242 205.944 28.7557 203.267 24.6175 202.4C22.7748 201.993 21.3179 203.149 21.6938 204.627Z" fill="#FEA273"/>
<path d="M125.576 233.607C128.024 233.118 130.524 232.847 132.21 230.848C133.524 229.283 133.066 228.347 130.776 228.819C126.686 229.651 122.615 230.88 118.479 231.611C117.183 231.83 115.297 232.612 115.409 233.984C115.504 235.121 117.109 234.854 118.31 234.942C120.749 235.102 123.174 234.095 125.576 233.607Z" fill="#FEA273"/>
<path d="M234.074 170.812C235.69 170.362 242.656 164.013 242.749 162.878C242.871 161.446 241.655 161.064 239.941 161.868C236.616 163.437 233.792 165.521 231.996 167.998C230.685 169.775 232.153 171.367 234.074 170.812Z" fill="#FEA273"/>
<path d="M212.537 194.492C212.973 195.24 213.46 195.726 214.471 195.66C215.593 195.584 216.808 195.291 217.452 194.377C219.384 191.635 221.276 188.909 223.109 186.16C223.511 185.538 223.837 184.763 223.002 184.382C222.143 184.01 221.213 184.613 220.375 185.001C219.102 185.573 217.848 186.396 217.481 187.292C216.677 189.246 214.963 190.925 213.526 192.69C213.031 193.304 212.806 193.996 212.537 194.492Z" fill="#FEA273"/>
<path d="M343.579 127.568C342.167 127.998 340.722 128.248 340.272 129.431C339.856 130.526 340.621 131.162 341.865 131.352C344.494 131.769 347 132.582 350.216 131.656C351.573 131.26 352.766 130.66 353.107 129.549C353.43 128.457 352.733 127.814 351.431 127.659C348.898 127.354 346.307 127.073 343.579 127.568Z" fill="#FEA273"/>
<path d="M194.896 205.056C190.099 206.615 187.239 208.983 184.345 211.286C183.008 212.335 182.13 213.614 183.677 214.407C184.927 215.062 186.602 214.484 187.68 213.491C190.372 211.01 194.245 208.834 194.896 205.056Z" fill="#FEA273"/>
<path d="M1240.46 98.8869C1239.73 98.0142 1239.56 96.6671 1238.04 96.3901C1232.89 95.4355 1228.82 93.3395 1224.17 91.8738C1222.4 91.3182 1220.79 91.4075 1219.46 93.1588C1218.44 94.5348 1219.61 95.013 1220.6 95.6334C1223.95 97.7121 1229.19 97.5888 1232.87 99.3111C1234.34 99.9858 1235.89 100.734 1237.94 100.714C1239.43 100.706 1240.55 100.195 1240.46 98.8869Z" fill="#FEA273"/>
<path d="M1347.46 157.817C1352.95 161.98 1361.54 161.047 1369.35 161.307C1371.63 161.379 1373.12 160.042 1373.64 158.697C1374.15 157.385 1372.47 157.019 1370.95 157.174C1363.63 157.867 1356.93 156.993 1349.92 156.935C1349.16 156.929 1348.45 157.029 1347.46 157.817Z" fill="#FEA273"/>
<path d="M1204.36 88.0131C1204.16 87.4271 1203.44 86.9877 1202.55 86.6562C1199.17 85.4211 1195.32 84.8762 1191.46 84.3098C1189.41 84.0124 1187.88 84.6082 1186.86 86.2738C1185.66 88.2485 1187.16 88.4869 1189.13 88.6516C1192.44 88.9076 1195.79 89.1331 1198.59 90.2229C1199.83 90.7148 1201.32 90.5542 1202.84 89.9002C1203.75 89.5017 1204.49 88.9559 1204.36 88.0131Z" fill="#FEA273"/>
<path d="M985.227 186.819C986.237 186.44 987.151 186.113 988.048 185.747C989.158 185.282 990.275 184.724 990.049 183.775C989.851 182.935 989.575 182.125 987.732 182.394C983.987 182.94 980.232 183.321 976.492 183.835C974.896 184.068 973.564 184.663 972.802 185.94C971.812 187.592 971.823 188.7 974.615 188.332C978.172 187.891 981.745 187.323 985.227 186.819Z" fill="#FEA273"/>
<path d="M1131.65 89.3531C1127.92 91.5457 1122.89 93.0463 1118.09 95.0591C1117.27 95.3933 1116.62 96.131 1116.02 96.7272C1115.38 97.3651 1115.07 98.1067 1115.71 98.5782C1116.18 98.922 1117.07 98.765 1117.81 98.463C1123.2 96.2968 1128.59 94.1284 1133.94 91.8725C1135.33 91.2869 1137.06 90.3094 1136.46 89.1873C1135.87 88.0951 1134.02 88.7108 1131.65 89.3531Z" fill="#FEA273"/>
<path d="M1317.07 151.831C1317.31 152.157 1317.6 152.737 1318.06 153.207C1320.56 155.766 1324.85 156.662 1328.77 157.869C1329.84 158.19 1331.64 158.449 1332.77 156.998C1333.91 155.515 1332.45 155.332 1331.1 154.97C1327.02 153.859 1323.9 151.825 1320.63 149.944C1319.79 149.461 1319.41 148.387 1317.69 149.377C1316.43 150.081 1316.86 150.875 1317.07 151.831Z" fill="#FEA273"/>
<path d="M1278.87 122.18C1279.9 125.528 1283.05 127.638 1285.17 130.253C1285.81 131.015 1286.91 130.853 1288.01 130.092C1289.23 129.255 1290.62 128.306 1289.34 127.332C1286.78 125.365 1285.44 122.76 1283.45 120.497C1282.76 119.727 1282.25 118.572 1280.3 119.364C1278.41 120.136 1279.03 121.29 1278.87 122.18Z" fill="#FEA273"/>
<path d="M1016.77 175.864C1020.76 174.153 1024.83 172.713 1028.42 170.587C1030.18 169.537 1031.31 168.285 1029.76 167.129C1028.45 166.122 1027.18 167.036 1025.97 167.946C1023.38 169.863 1020.07 170.657 1017.14 172.057C1016.79 172.225 1016.41 172.302 1016.02 172.392C1013.67 172.982 1011.75 174.108 1012.18 175.774C1012.69 177.744 1015.32 175.693 1016.77 175.864Z" fill="#FEA273"/>
<path d="M1266.77 111.514C1265.17 108.649 1262.18 106.626 1258.52 105.047C1257.66 104.687 1256.76 104.889 1256.03 105.565C1255.1 106.427 1254.18 107.659 1254.96 108.212C1257.74 110.197 1259.71 112.874 1263.85 113.741C1265.69 114.148 1267.14 112.992 1266.77 111.514Z" fill="#FEA273"/>
<path d="M1162.89 82.534C1160.44 83.023 1157.94 83.2932 1156.25 85.2927C1154.94 86.8574 1155.4 87.7939 1157.69 87.3212C1161.78 86.4897 1165.85 85.2604 1169.98 84.5299C1171.28 84.3106 1173.17 83.5285 1173.05 82.1565C1172.96 81.0198 1171.35 81.2863 1170.15 81.1987C1167.71 81.039 1165.29 82.0458 1162.89 82.534Z" fill="#FEA273"/>
<path d="M1054.39 145.328C1052.77 145.779 1045.81 152.128 1045.71 153.263C1045.59 154.694 1046.81 155.077 1048.52 154.272C1051.85 152.704 1054.67 150.62 1056.47 148.143C1057.78 146.365 1056.31 144.773 1054.39 145.328Z" fill="#FEA273"/>
<path d="M1075.93 121.649C1075.49 120.901 1075 120.414 1073.99 120.48C1072.87 120.556 1071.65 120.85 1071.01 121.764C1069.08 124.506 1067.19 127.231 1065.35 129.98C1064.95 130.603 1064.63 131.378 1065.46 131.758C1066.32 132.13 1067.25 131.528 1068.09 131.14C1069.36 130.567 1070.61 129.745 1070.98 128.849C1071.79 126.894 1073.5 125.216 1074.94 123.451C1075.43 122.837 1075.66 122.145 1075.93 121.649Z" fill="#FEA273"/>
<path d="M944.884 188.572C946.295 188.143 947.741 187.893 948.19 186.71C948.607 185.614 947.841 184.979 946.598 184.789C943.968 184.371 941.462 183.558 938.247 184.485C936.89 184.88 935.697 185.481 935.356 186.591C935.032 187.683 935.73 188.326 937.032 188.481C939.565 188.787 942.155 189.068 944.884 188.572Z" fill="#FEA273"/>
<path d="M1093.57 111.084C1098.36 109.525 1101.22 107.157 1104.12 104.854C1105.45 103.805 1106.33 102.526 1104.79 101.734C1103.54 101.078 1101.86 101.656 1100.78 102.649C1098.09 105.13 1094.22 107.306 1093.57 111.084Z" fill="#FEA273"/>
<path d="M1298.56 136.25C1296.81 140.712 1299.85 142.816 1302.47 145.059C1302.91 145.432 1303.8 145.171 1304.53 144.809C1306.02 144.08 1305.7 143.12 1305.22 142.693C1302.98 140.766 1302.32 137.94 1298.56 136.25Z" fill="#FEA273"/>
</svg>
