<svg width="1366" height="600" viewBox="0 0 1366 600" fill="none" xmlns="http://www.w3.org/2000/svg">
<path d="M1366 513.043L1290.11 527.205C1214.22 542.436 1062.44 569.157 910.667 555.796C671.142 639.793 572.961 355.834 421.183 299.72C269.406 243.606 75.8888 327.243 -4.19617e-05 299.72V256.521V0H75.8888C151.778 0 303.556 0 455.333 0C607.111 0 758.889 0 910.667 0C1062.44 0 1214.22 0 1290.11 0H1366V513.043Z" fill="#FFA8A1"/>
<path d="M1062.45 560.074C1238.29 547.897 1289.35 606.101 1364.01 569.407C1364.67 569.079 1365.34 568.747 1366 568.409V253.997C1354.81 250.547 1346.47 248.914 1344.55 248.552C1264.76 233.527 1210.6 276.249 1178.66 253.647C1157.92 238.965 1174.89 216.788 1158.19 184.891C1130.85 132.688 1045.84 116.5 1026.1 112.741L1026.1 112.74C899.706 88.6733 704.007 163.47 660.538 306.274C623.345 428.482 708.882 565.283 816.185 594.877C889.011 614.959 915.904 570.219 1062.45 560.074Z" fill="#FF7D73"/>
</svg>
