<svg width="574" height="645" viewBox="0 0 574 645" fill="none" xmlns="http://www.w3.org/2000/svg">
<path d="M278.632 32.7295C258.235 35.4869 238.82 43.5902 225.515 55.9172C211.494 68.9077 195.456 93.0307 216.366 108.183C225.22 114.599 233.189 116.432 238.502 126.513C244.701 139.347 248.243 146.678 260.642 154.011C275.696 162.26 296.95 164.093 313.776 160.426C329.715 156.759 349.198 145.76 359.824 133.846C380.808 110.317 375.391 81.5104 356.463 59.6654C336.273 36.3579 308.4 28.7056 278.632 32.7295Z" fill="#231F20"/>
<path d="M499.558 464.289C554.628 468.2 576.729 425.873 557.829 375.97C545.425 343.219 461.057 192.294 325.956 211.4C256.518 221.22 444.488 460.378 499.558 464.289Z" fill="#FBAF89"/>
<path d="M532.184 500.886C516.364 471.041 503.045 475.696 494.4 469.207C481.289 459.368 468.754 447.035 459.464 433.269C440.97 405.865 439.799 374.984 469.654 347.959C482.336 336.48 560.747 370.425 549.45 342.424C538.153 314.424 481.005 252.016 473.538 241.802C447.775 214.497 404.105 167.368 295.944 169.57C271.09 170.075 236.498 194.928 211.72 195.44C192.503 195.834 175.392 198.872 156.751 204.39C33.452 240.88 0.499176 356.123 0.260163 389.259C0.021149 422.395 107.769 425.709 128.369 453.24C134.011 460.781 162.699 502.001 176.246 536.787C189.794 571.574 158.878 606.61 179.815 620.902C231.861 656.426 347.385 643.321 420.396 633.823C467.27 627.727 574 606.356 574 574.907C574.001 543.458 548.002 530.731 532.184 500.886Z" fill="#7386AE"/>
<path d="M335.22 262.561C337.321 275.291 325.872 287.661 320.963 304.814C316.052 322.603 310.528 341.027 304.391 358.816C292.729 389.312 270.016 431.243 281.066 464.917C292.727 501.13 343.061 520.824 376.82 511.294C397.077 505.576 416.105 494.141 432.064 480.165C446.182 468.094 454.161 445.857 458.457 427.432C466.437 394.395 479.941 356.277 473.189 322.603C469.507 306.084 467.052 293.379 459.686 278.766C454.775 267.331 443.277 253.404 444.347 238.92" fill="#DBD5DD"/>
<path d="M447.151 230.73C443.553 212.875 438.259 183.465 434.525 181.23C431.593 179.472 423.958 189.05 417.257 196.193C403.934 190.416 388.044 188.425 373.421 190.409C370.65 190.784 367.927 191.312 365.271 191.976C360.676 183.78 355.924 174.306 352.918 175.24C349.056 176.438 340.312 209.733 336.52 219.568C332.835 229.126 320.444 252.438 337.028 266.483C353.551 280.164 471.809 313.623 463.233 286.552C454.664 259.478 450.748 248.584 447.151 230.73Z" fill="#DBD5DD"/>
<path d="M435.664 443.794C434.357 462.44 458.384 473.67 471.815 478.502C490.52 485.604 509.425 479.861 522.696 464.972C530.724 455.813 539.468 425.979 553.125 446.249C562.664 460.307 553.083 478.814 543.307 489.882C521.628 513.196 488.649 510.218 461.409 499.821C441.617 492.379 423.987 471.473 420.399 451.292" fill="#DBD5DD"/>
<path d="M411.681 286.495C411.221 286.495 410.825 286.138 410.767 285.656C410.706 285.135 411.067 284.659 411.572 284.597C417.772 283.827 423.663 280.5 427.513 277.843C432.702 274.351 438.652 268.588 440.271 263.564C440.431 263.064 440.948 262.794 441.435 262.962C441.918 263.129 442.177 263.667 442.016 264.167C440.137 270.001 433.575 276.039 428.524 279.436C424.516 282.201 418.35 285.676 411.789 286.491C411.755 286.494 411.719 286.495 411.681 286.495Z" fill="#231F20"/>
<path d="M163.915 225.008C174.808 242.727 193.82 254.339 213.168 259.53C232.753 264.787 254.193 263.237 273.657 258.003C291.09 253.317 308.626 245.338 321.191 231.587C330.457 221.445 347.211 190.917 335.841 177.191C327.247 167.026 302.696 178.463 306.378 153.048L233.948 139.072C237.63 161.944 236.403 178.463 214.305 188.627C195.845 196.673 175.853 198.368 156.75 204.386C157.679 211.684 160.047 218.716 163.915 225.008Z" fill="#FBAF89"/>
<path d="M382.617 257.681C381.625 257.052 373.093 251.947 376.084 250.152C379.075 248.357 389.582 249.638 390.039 251.229C391.017 254.626 383.61 258.308 382.617 257.681Z" fill="#231F20"/>
<path d="M369.929 262.432C372.472 268.374 380.341 266.217 383.353 261.961C382.915 261.961 382.475 261.961 382.036 261.961C384.804 267.184 391.271 269.311 395.858 265.147C396.666 264.412 395.477 263.182 394.678 263.925C390.89 267.449 385.644 265.32 383.353 261.165C383.05 260.614 382.355 260.699 382.036 261.165C379.553 264.797 373.325 266.543 370.798 261.906C370.472 261.307 369.672 261.831 369.929 262.432Z" fill="#231F20"/>
<path d="M421.543 206.614C421.344 206.614 421.144 206.547 420.974 206.41C420.575 206.087 420.505 205.487 420.82 205.073C421.376 204.339 421.945 203.529 422.533 202.691C424.365 200.081 426.44 197.126 428.924 195.409C430.565 194.328 432.154 194.12 433.297 194.822C433.888 195.184 434.861 196.135 434.714 198.414C434.679 198.939 434.238 199.338 433.734 199.302C433.227 199.266 432.843 198.812 432.876 198.288C432.911 197.744 432.891 196.785 432.359 196.459C431.856 196.15 430.9 196.364 429.93 197.005C427.736 198.518 425.762 201.329 424.023 203.809C423.42 204.667 422.837 205.498 422.268 206.248C422.086 206.49 421.815 206.614 421.543 206.614Z" fill="#231F20"/>
<path d="M362.017 202.259C361.971 202.259 361.925 202.255 361.878 202.247C358.188 201.662 357.729 198.019 357.359 195.09C357.141 193.368 356.918 191.589 356.13 190.647C355.368 189.777 354.502 189.314 353.939 189.471C353.343 189.641 353.078 190.559 352.972 191.09C352.871 191.607 352.381 191.937 351.885 191.834C351.386 191.729 351.066 191.226 351.167 190.709C351.608 188.47 352.788 187.819 353.453 187.631C354.736 187.266 356.215 187.904 357.507 189.381C358.672 190.77 358.932 192.84 359.185 194.841C359.589 198.047 359.989 200.018 362.155 200.361C362.658 200.441 363.002 200.927 362.925 201.447C362.856 201.921 362.464 202.259 362.017 202.259Z" fill="#231F20"/>
<path d="M232.739 109.761C232.951 97.7732 216.159 92.4891 209.696 105.282C202.291 120.824 221.665 134.105 232.728 138.465" fill="#FBAF89"/>
<path d="M328.871 140.353C332.812 129.059 350.322 130.312 351.944 144.669C353.495 161.942 330.812 167.218 318.972 167.214" fill="#FBAF89"/>
<path d="M224.622 113.63C223.762 116.735 223.254 119.743 223.132 122.54C222.76 131.334 224.185 139.524 227.001 146.931C239.57 179.92 280.058 196.984 314.848 180.057C327.621 173.84 339.122 155.738 335.287 144.307C333.211 138.119 337.258 128.289 339.464 121.219C345.221 102.673 342.23 95.8568 330.382 81.7827C319.769 69.1761 303.988 60.7107 287.025 60.3577C274.379 60.0948 261.187 64.3224 249.194 74.4254C239.402 82.6666 228.55 99.2494 224.622 113.63Z" fill="#FBAF89"/>
<path opacity="0.3" d="M242.413 112.073C265.26 112.073 265.26 144.955 242.413 144.955C219.566 144.955 219.567 112.073 242.413 112.073Z" fill="#F26538"/>
<path opacity="0.3" d="M318.971 133.554C341.818 133.554 341.818 166.436 318.971 166.436C296.124 166.436 296.124 133.554 318.971 133.554Z" fill="#F26538"/>
<path d="M248.861 95.0774C248.681 96.1881 253.152 96.0438 255.785 96.7319C264.641 99.0473 272.911 111.435 275.912 109.172C280.553 105.438 274.768 96.9677 266.232 93.6459C257.848 90.3861 249.042 93.9668 248.861 95.0774Z" fill="#231F20"/>
<path d="M286.863 156.123C274.528 156.123 264.254 148.468 255.274 140.782C254.884 140.447 254.828 139.846 255.152 139.441C255.475 139.036 256.055 138.975 256.448 139.314C271.125 151.877 284.229 158.663 300.484 150.951C300.95 150.735 301.494 150.943 301.705 151.42C301.917 151.898 301.714 152.465 301.252 152.684C296.157 155.1 291.373 156.123 286.863 156.123Z" fill="#F26538"/>
<path d="M281.588 143.351C280.596 143.351 279.502 143.299 278.294 143.2C277.787 143.157 277.41 142.699 277.451 142.173C277.492 141.649 277.924 141.263 278.443 141.301C283.364 141.713 286.358 141.236 287.336 139.892C288.311 138.551 287.38 135.991 286.394 133.281C285.138 129.828 283.715 125.915 285.626 122.771C285.896 122.326 286.467 122.195 286.897 122.472C287.327 122.752 287.458 123.342 287.186 123.785C285.763 126.127 286.96 129.423 288.12 132.607C289.289 135.821 290.392 138.856 288.808 141.035C287.662 142.606 285.387 143.351 281.588 143.351Z" fill="#F26538"/>
<path d="M223.877 118.817C223.85 118.817 223.827 118.817 223.799 118.813C223.391 118.778 223.055 118.468 222.974 118.054C222.582 116.057 220.518 114.345 219.177 114.404C218.521 114.453 218.156 115.064 218.097 116.217C218.069 116.743 217.627 117.145 217.128 117.116C216.62 117.088 216.232 116.638 216.259 116.114C216.429 112.948 218.434 112.551 219.045 112.506C220.61 112.367 222.369 113.44 223.538 114.984C223.818 111.711 223.003 107.598 221.21 106.191C220.05 105.28 218.5 105.562 216.599 107.024C216.188 107.337 215.614 107.249 215.311 106.828C215.007 106.405 215.092 105.809 215.5 105.494C218.786 102.969 221.025 103.653 222.324 104.672C225.609 107.253 226.051 114.662 224.737 118.206C224.599 118.577 224.256 118.817 223.877 118.817Z" fill="#F26538"/>
<path d="M341.2 153.04C341.108 153.04 341.012 153.024 340.92 152.994C340.435 152.835 340.168 152.299 340.323 151.797C340.665 150.696 340.535 149.991 339.939 149.702C338.739 149.121 336.188 149.99 335.132 151.715C334.913 152.073 334.495 152.237 334.098 152.121C333.706 152.002 333.434 151.631 333.433 151.207C333.428 147.401 336.4 140.633 340.362 139.434C341.931 138.965 344.253 139.151 346.448 142.724C346.721 143.168 346.595 143.757 346.167 144.039C345.736 144.322 345.168 144.19 344.896 143.748C343.627 141.68 342.278 140.845 340.88 141.265C338.718 141.919 336.533 145.468 335.665 148.635C337.287 147.621 339.284 147.283 340.718 147.976C341.275 148.245 343.012 149.356 342.077 152.379C341.952 152.783 341.591 153.04 341.2 153.04Z" fill="#F26538"/>
<path d="M285.598 188.516C269.324 188.516 253.047 182.306 240.683 170.26C240.313 169.899 240.296 169.296 240.645 168.912C240.994 168.53 241.576 168.512 241.947 168.873C262.923 189.307 295.488 192.466 319.381 176.392C319.807 176.106 320.377 176.232 320.656 176.672C320.932 177.112 320.81 177.703 320.385 177.991C309.875 185.059 297.736 188.516 285.598 188.516Z" fill="#F26538"/>
<path d="M349.346 299.173C341.98 296.632 334.614 292.821 327.248 287.738C312.516 277.573 299.013 278.842 284.282 294.09C268.321 310.61 285.808 315.327 295.944 311.244C306.081 307.161 308.834 314.62 319.882 323.514C326.019 327.325 327.564 327.275 339.525 323.316C351.484 319.356 356.712 301.716 349.346 299.173Z" fill="#DBD5DD"/>
<path d="M295.33 338.564C281.827 329.668 254.819 337.292 244.998 348.729C231.495 366.517 254.819 362.705 265.867 361.436C278.144 360.164 291.73 357.637 300.241 369.06C308.75 380.482 308.833 347.459 295.33 338.564Z" fill="#DBD5DD"/>
<path d="M359.165 433.863C354.254 410.991 333.385 395.743 312.515 393.202C301.467 391.93 282.84 394.605 269.749 410.104C256.658 425.604 270.107 385.578 263.967 383.037C257.83 380.496 250.16 381.51 245.635 395.108C232.74 433.862 259.986 476.949 301.715 501.377C328.193 516.879 362.271 520.597 399.678 502.263" fill="#DBD5DD"/>
<path d="M509.966 464.889C495.311 463.898 455.03 457.758 406.304 439.421C330.65 410.951 258.734 337.316 255.613 326.652C249.564 305.982 242.863 289.442 251.75 284.18C260.637 278.918 263.182 300.001 263.182 300.001C263.182 300.001 272.282 305.86 266.791 308.951C261.3 312.042 250.244 271.694 268.519 289.551C273.347 294.73 280.565 304.24 290.347 303.619C300.129 302.996 286.697 289.263 292.485 285.169C298.275 281.076 309.76 294.757 314.637 306.231C319.514 317.705 318.522 317.235 325.93 319.104C333.339 320.974 414.093 313.181 467.563 339.371C521.034 365.561 524.621 465.88 509.966 464.889Z" fill="#FBAF89"/>
<path d="M269.751 318.732C269.697 318.732 269.641 318.729 269.586 318.717C266.135 318.068 264 314.935 262.119 312.171C261.784 311.679 261.454 311.196 261.123 310.735C258.256 304.957 257.873 300.235 257.387 294.256L257.272 292.856C257.227 292.331 257.603 291.869 258.109 291.825C258.625 291.776 259.062 292.168 259.105 292.692L259.221 294.097C259.709 300.093 260.061 304.422 262.681 309.734C262.941 310.072 263.279 310.57 263.623 311.075C265.386 313.66 267.204 316.333 269.916 316.845C270.416 316.938 270.749 317.436 270.656 317.952C270.574 318.41 270.187 318.732 269.751 318.732Z" fill="#F26538"/>
<path d="M499.19 371.359C495.454 361.417 487.158 352.196 477 346.689L477.854 345C488.397 350.714 497.012 360.309 500.905 370.665L499.19 371.359Z" fill="#F26538"/>
<path d="M0.262497 389.258C10.0185 428.254 71.2246 447.037 120.682 463.144C197.47 488.152 297.819 474.952 306.562 468.449C323.507 455.845 338.543 446.93 334.58 437.161C330.618 427.39 316.21 442.528 316.21 442.528C316.21 442.528 305.543 441.451 308.087 447.361C310.632 453.272 343.11 428.197 318.112 430.873C311.237 431.946 299.918 434.953 292.52 428.303C285.121 421.654 303.852 419.203 301.661 412.311C299.47 405.417 282.315 409.05 271.702 415.09C261.09 421.13 262.154 421.379 255.173 418.203C248.192 415.026 188.659 358.016 130.822 345.159C72.9836 332.298 -5.10535 367.803 0.262497 389.258Z" fill="#FBAF89"/>
<path d="M303.681 454.192C302.47 454.192 301.271 453.962 300.13 453.356L300.97 451.659C303.421 452.959 306.439 451.981 309.356 451.038C309.924 450.854 310.486 450.672 311.034 450.51C316.09 448.001 318.914 444.784 322.821 440.332L323.74 439.287L325.099 440.572L324.184 441.613C320.285 446.054 317.207 449.559 311.682 452.287C311.005 452.501 310.46 452.677 309.906 452.856C307.928 453.497 305.783 454.192 303.681 454.192Z" fill="#F26538"/>
<path d="M345.029 230.877C345.455 235.696 347.53 239.46 352.365 240.241C354.374 240.564 356.422 240.44 358.425 240.826C361.964 241.505 362.299 244.477 363.778 247.258C363.911 247.509 364.363 247.487 364.409 247.171C365.05 242.774 361.62 239.738 357.758 239.162C355.74 238.861 353.696 238.96 351.686 238.549C347.887 237.769 346.915 234.154 346.271 230.702C346.137 229.982 344.964 230.141 345.029 230.877Z" fill="#231F20"/>
<path d="M420.831 234.346C419.934 237.794 418.829 240.851 415.155 241.675C413.061 242.144 410.791 241.758 408.665 241.869C404.834 242.069 401.306 245.048 401.583 249.279C401.606 249.634 402.033 249.768 402.225 249.461C403.877 246.805 404.324 244.246 407.692 243.52C409.78 243.07 412.047 243.476 414.166 243.35C418.945 243.067 421.293 239.248 422.051 234.696C422.186 233.877 421.046 233.516 420.831 234.346Z" fill="#231F20"/>
<path d="M313.437 43.1378C304.23 40.2786 286.736 31.7024 288.577 18.3602C291.339 -0.699147 321.723 -1.65263 335.534 1.20652C343.082 3.04519 367.771 13.9535 356.711 34.5616C350.266 46.9504 333.693 51.7152 323.565 54.5744" fill="#231F20"/>
<path d="M248.292 104.836C247.604 108.983 249.195 112.898 252.523 115.372C255.363 117.482 261.699 120.487 265.028 118.119C265.45 117.817 265.612 116.986 265.028 116.73C263.888 116.229 262.856 116.312 261.62 116.265C259.528 116.182 257.449 115.506 255.578 114.568C251.892 112.719 249.813 109.231 249.704 105.034C249.684 104.224 248.434 103.979 248.292 104.836Z" fill="#231F20"/>
<path d="M329.239 121.753C328.747 122.758 325.234 119.888 322.722 118.823C314.273 115.236 300.506 120.106 299.393 116.438C297.806 110.58 307.323 107.329 316.095 109.912C324.709 112.449 329.733 120.749 329.239 121.753Z" fill="#231F20"/>
<path d="M320.064 129.15C317.381 132.637 313.828 133.932 309.602 133.252C306.277 132.716 304.091 130.244 301.076 129.23C300.366 128.992 299.938 129.822 300.199 130.412C301.849 134.154 307.599 135.527 311.167 135.808C315.398 136.139 319.273 133.91 321.193 130.054C321.55 129.339 320.597 128.458 320.064 129.15Z" fill="#231F20"/>
<path d="M278.451 55.5268C277.236 60.7168 273.604 65.019 272.805 70.508C272.206 74.6273 272.86 78.8007 273.615 82.853C275.094 90.7824 278.256 100.487 287.198 102.223C294.564 104.129 292.723 94.1221 296.866 89.834C296.889 89.8095 311.764 110.093 312.866 111.286C320.053 119.084 341.815 135.245 350.268 118.424C363.158 92.2177 330.012 60.2916 308.835 53.6211" fill="#231F20"/>
<path d="M222.056 92.3079C220.675 98.9784 222.286 104.131 225.049 108.896C225.049 109.849 229.882 111.278 230.804 115.328C231.725 119.378 233.796 108.419 232.875 104.607C231.034 90.7888 242.082 82.6881 250.369 71.2515" fill="#231F20"/>
<path d="M336.455 116.019C334.153 122.689 332.312 130.337 329.089 135.578C327.248 137.96 325.791 143.438 328.628 142.249C331.465 141.059 341.058 137.484 345.201 132.242C347.963 128.431 349.804 116.041 344.74 114.612" fill="#231F20"/>
<path d="M170.423 357.926C169.959 357.078 169.494 356.218 169.026 355.35C165.097 348.065 161.034 340.532 154.411 335.597L155.354 334.218C162.271 339.374 166.424 347.073 170.441 354.52C170.907 355.384 171.37 356.242 171.831 357.087L170.423 357.926Z" fill="#592423"/>
</svg>
