<svg width="377" height="606" viewBox="0 0 377 606" fill="none" xmlns="http://www.w3.org/2000/svg">
<path d="M251.181 252.192C252.644 253.072 254.699 253.4 255.435 255.066C257.947 260.695 261.944 265.288 265.118 270.436C266.324 272.398 266.529 274.121 264.18 275.355C262.331 276.305 261.37 275.001 260.23 273.866C256.411 270.051 255.494 264.433 252.139 260.294C250.818 258.646 249.371 256.899 248.97 254.701C248.67 253.103 249.202 251.962 251.181 252.192Z" fill="#FABF4B"/>
<path d="M140.345 130.988C132.951 124.65 132.547 115.531 130.517 107.116C129.931 104.661 131.621 103.201 133.53 102.792C135.391 102.388 136.293 104.231 136.379 105.843C136.876 113.629 139.594 120.914 141.153 128.447C141.32 129.261 141.321 130.017 140.345 130.988Z" fill="#FABF4B"/>
<path d="M142.05 77.8305C141.535 79.942 141.093 82.1075 140.428 84.1857C139.867 85.8559 138.726 86.6985 136.769 86.2186C134.934 85.7874 134.13 84.8245 134.233 82.8853C134.453 78.0261 135.861 73.5214 138.07 69.2466C138.729 68.0134 139.765 66.9452 141.397 67.418C143.053 67.9021 143.378 69.294 143.172 70.747C142.821 73.1098 142.32 75.4393 141.9 77.7972C141.942 77.8138 142.008 77.8139 142.05 77.8305Z" fill="#FABF4B"/>
<path d="M275.067 292.12C275.987 292.394 276.797 293.216 277.481 294.206C280.043 297.97 281.668 302.16 283.328 306.364C284.205 308.599 283.632 310.175 281.35 311.1C278.64 312.173 277.967 310.534 277.306 308.4C276.227 304.818 275.186 301.2 272.965 298.081C271.966 296.691 271.894 295.111 272.556 293.55C272.964 292.621 273.626 291.883 275.067 292.12Z" fill="#FABF4B"/>
<path d="M150.177 51.5953C150.948 47.0606 153.537 43.2565 155.296 39.0713C155.534 38.5496 155.918 38.0602 156.379 37.693C157.602 36.7408 158.991 35.4074 160.518 36.2402C162.211 37.1863 161.642 39.1352 161.046 40.5102C159.227 44.8631 157.114 49.0759 155.235 53.4068C154.401 55.3744 153.361 56.3227 151.234 55.4274C149.283 54.6209 149.167 53.2843 150.177 51.5953Z" fill="#FABF4B"/>
<path d="M172.916 516.802C173.272 515.758 173.571 514.812 173.93 513.887C174.396 512.746 174.997 511.606 176.468 511.951C177.769 512.253 179.042 512.637 179.025 514.586C178.993 518.549 179.21 522.539 179.225 526.5C179.21 528.189 178.597 529.555 176.842 530.236C174.573 531.121 172.91 530.992 172.875 528.033C172.789 524.261 172.892 520.486 172.916 516.802Z" fill="#FABF4B"/>
<path d="M288.325 370.046C285.819 373.807 284.626 379.054 282.616 383.994C282.286 384.832 281.318 385.457 280.55 386.037C279.726 386.646 278.68 386.909 277.838 386.168C277.225 385.63 277.272 384.683 277.57 383.927C279.687 378.37 281.806 372.814 284.066 367.312C284.653 365.887 285.756 364.135 287.562 364.89C289.325 365.647 288.79 367.563 288.325 370.046Z" fill="#FABF4B"/>
<path d="M155.704 164.265C155.164 163.967 154.234 163.596 153.434 163.057C149.07 160.094 146.825 155.389 144.192 151.053C143.486 149.871 142.72 147.911 144.659 146.854C146.643 145.787 147.224 147.371 148.05 148.859C150.574 153.367 154.278 156.926 157.786 160.648C158.687 161.601 160.376 162.118 159.253 163.86C158.463 165.141 157.181 164.588 155.704 164.265Z" fill="#FABF4B"/>
<path d="M208.187 208.453C202.952 206.996 199.126 203.388 194.758 200.823C193.483 200.062 193.494 198.891 194.404 197.797C195.403 196.575 196.535 195.188 198.264 196.663C201.75 199.622 205.939 201.345 209.751 203.722C211.048 204.541 212.888 205.211 212.11 207.224C211.35 209.174 209.489 208.379 208.187 208.453Z" fill="#FABF4B"/>
<path d="M182.722 484.115C184.449 480.011 185.753 475.796 188.188 472.171C189.393 470.39 191.033 469.315 193.092 471.099C194.878 472.619 193.772 473.876 192.662 475.08C190.333 477.661 189.836 481.123 188.351 484.117C188.173 484.475 188.139 484.884 188.083 485.286C187.694 487.753 186.409 489.691 183.819 489.048C180.759 488.294 183.282 485.689 182.722 484.115Z" fill="#FABF4B"/>
<path d="M226.723 222.594C231.356 224.622 235.017 228.049 238.154 232.149C238.872 233.102 238.759 234.049 237.898 234.758C236.801 235.666 235.146 236.523 234.154 235.63C230.594 232.431 226.167 230.031 223.997 225.495C223 223.472 224.428 222.032 226.723 222.594Z" fill="#FABF4B"/>
<path d="M187.269 8.972C188.437 9.64897 189.096 10.6984 188.002 11.7926C184.275 15.4707 180.722 19.3794 175.979 21.7814C174.701 22.4282 173.041 22.1567 172.245 20.9631C171.236 19.4755 172.656 18.3175 173.694 17.626C177.425 15.1478 180.052 11.1732 184.465 9.6092C185.392 9.29946 186.225 8.79128 187.269 8.972Z" fill="#FABF4B"/>
<path d="M291.992 337.235C291.773 339.812 291.893 342.467 289.249 344.062C287.178 345.305 285.678 344.713 285.906 342.306C286.294 338.003 287.282 333.764 287.509 329.401C287.566 328.034 288.343 326.092 290.424 326.36C292.148 326.584 292.085 328.278 292.469 329.577C293.221 332.213 292.22 334.708 291.992 337.235Z" fill="#FABF4B"/>
<path d="M220.611 446.996C220.274 448.682 212.217 455.481 210.534 455.459C208.413 455.436 207.584 454.09 208.431 452.336C210.085 448.934 212.617 446.126 215.954 444.462C218.344 443.245 221.04 444.993 220.611 446.996Z" fill="#FABF4B"/>
<path d="M251.597 426.409C252.811 426.958 253.642 427.533 253.756 428.612C253.877 429.808 253.692 431.081 252.457 431.674C248.751 433.455 245.061 435.194 241.324 436.867C240.474 437.232 239.381 437.499 238.635 436.562C237.897 435.599 238.605 434.666 239.011 433.807C239.602 432.502 240.573 431.244 241.839 430.945C244.601 430.292 246.758 428.632 249.103 427.279C249.919 426.813 250.91 426.645 251.597 426.409Z" fill="#FABF4B"/>
<path d="M178.759 559.93C179.106 558.46 179.178 556.935 180.857 556.579C182.413 556.249 183.526 557.139 184.072 558.495C185.25 561.363 186.996 564.141 186.282 567.494C185.974 568.908 185.323 570.125 183.73 570.372C182.161 570.602 181.049 569.784 180.544 568.37C179.554 565.618 178.589 562.806 178.759 559.93Z" fill="#FABF4B"/>
<path d="M185.604 582.267C186.958 581.645 188.187 580.768 189.493 581.899C190.703 582.946 190.694 584.386 189.976 585.656C188.471 588.361 187.383 591.466 184.34 592.949C183.053 593.569 181.709 593.792 180.54 592.663C179.399 591.544 179.353 590.15 180.142 588.876C181.672 586.394 183.265 583.894 185.604 582.267Z" fill="#FABF4B"/>
<path d="M263.735 408.601C265.065 403.618 268.016 400.801 270.862 397.941C272.154 396.618 273.888 395.812 275.401 397.559C276.646 398.971 276.132 400.707 274.868 401.758C271.713 404.382 269.264 408.307 263.735 408.601Z" fill="#FABF4B"/>
<path d="M182.956 185.811C176.633 187.214 172.838 183.714 168.924 180.662C168.274 180.157 168.477 179.221 168.865 178.476C169.647 176.959 171.154 177.406 171.896 177.97C175.255 180.579 179.632 181.591 182.956 185.811Z" fill="#FABF4B"/>
</svg>
