<svg width="376" height="606" viewBox="0 0 376 606" fill="none" xmlns="http://www.w3.org/2000/svg">
<path d="M125.584 252.193C124.131 253.073 122.089 253.401 121.358 255.067C118.862 260.696 114.891 265.289 111.738 270.437C110.54 272.399 110.337 274.122 112.67 275.356C114.506 276.305 115.462 275.002 116.594 273.867C120.389 270.052 121.299 264.434 124.633 260.295C125.945 258.647 127.382 256.9 127.781 254.702C128.079 253.104 127.551 251.963 125.584 252.193Z" fill="#FABF4B"/>
<path d="M235.7 130.989C243.046 124.651 243.447 115.532 245.464 107.117C246.046 104.661 244.367 103.201 242.47 102.793C240.621 102.389 239.726 104.232 239.641 105.844C239.146 113.63 236.446 120.915 234.897 128.448C234.731 129.262 234.73 130.018 235.7 130.989Z" fill="#FABF4B"/>
<path d="M234.006 77.8315C234.518 79.943 234.957 82.1085 235.617 84.1866C236.175 85.8569 237.309 86.6995 239.253 86.2196C241.076 85.7884 241.875 84.8255 241.773 82.8863C241.554 78.027 240.155 73.5224 237.961 69.2475C237.305 68.0144 236.277 66.9461 234.655 67.419C233.01 67.9031 232.687 69.295 232.892 70.748C233.241 73.1108 233.738 75.4403 234.155 77.7982C234.114 77.8147 234.048 77.8149 234.006 77.8315Z" fill="#FABF4B"/>
<path d="M101.854 292.121C100.94 292.395 100.135 293.217 99.4553 294.207C96.9097 297.971 95.2952 302.161 93.6463 306.365C92.7753 308.6 93.3444 310.176 95.6111 311.101C98.3034 312.174 98.9721 310.535 99.6288 308.401C100.701 304.819 101.735 301.201 103.942 298.082C104.934 296.692 105.006 295.112 104.348 293.551C103.943 292.622 103.285 291.884 101.854 292.121Z" fill="#FABF4B"/>
<path d="M225.932 51.5962C225.165 47.0615 222.594 43.2575 220.846 39.0722C220.61 38.5506 220.229 38.0612 219.77 37.694C218.555 36.7418 217.175 35.4084 215.658 36.2412C213.976 37.1873 214.541 39.1362 215.133 40.5112C216.941 44.8641 219.04 49.0769 220.906 53.4078C221.736 55.3753 222.768 56.3237 224.882 55.4284C226.82 54.6218 226.935 53.2853 225.932 51.5962Z" fill="#FABF4B"/>
<path d="M203.341 516.803C202.988 515.759 202.69 514.813 202.333 513.888C201.871 512.747 201.273 511.607 199.812 511.952C198.519 512.254 197.255 512.638 197.271 514.587C197.303 518.55 197.088 522.54 197.073 526.501C197.088 528.19 197.696 529.556 199.44 530.237C201.695 531.122 203.346 530.993 203.382 528.034C203.467 524.262 203.365 520.487 203.341 516.803Z" fill="#FABF4B"/>
<path d="M88.6817 370.047C91.1717 373.808 92.3568 379.055 94.3536 383.995C94.6817 384.833 95.6439 385.458 96.4071 386.038C97.2256 386.647 98.264 386.91 99.1006 386.169C99.7101 385.631 99.6635 384.684 99.3668 383.928C97.2645 378.371 95.1586 372.815 92.9138 367.313C92.3305 365.888 91.2349 364.136 89.44 364.891C87.6884 365.648 88.2206 367.564 88.6817 370.047Z" fill="#FABF4B"/>
<path d="M220.441 164.266C220.977 163.968 221.902 163.596 222.696 163.058C227.032 160.095 229.262 155.39 231.878 151.054C232.579 149.872 233.34 147.912 231.414 146.855C229.443 145.788 228.866 147.372 228.045 148.86C225.538 153.368 221.858 156.927 218.372 160.649C217.477 161.602 215.799 162.119 216.915 163.861C217.7 165.142 218.973 164.589 220.441 164.266Z" fill="#FABF4B"/>
<path d="M168.299 208.454C173.5 206.996 177.301 203.389 181.64 200.824C182.908 200.063 182.897 198.892 181.992 197.798C181 196.576 179.875 195.189 178.157 196.664C174.694 199.623 170.532 201.346 166.745 203.723C165.456 204.542 163.629 205.212 164.402 207.225C165.157 209.175 167.006 208.38 168.299 208.454Z" fill="#FABF4B"/>
<path d="M193.599 484.116C191.884 480.012 190.588 475.797 188.168 472.172C186.972 470.391 185.342 469.316 183.296 471.1C181.522 472.62 182.621 473.877 183.724 475.081C186.038 477.662 186.532 481.124 188.007 484.118C188.184 484.476 188.217 484.885 188.272 485.287C188.659 487.754 189.936 489.692 192.509 489.049C195.549 488.295 193.043 485.69 193.599 484.116Z" fill="#FABF4B"/>
<path d="M149.884 222.595C145.281 224.623 141.644 228.05 138.527 232.15C137.813 233.103 137.926 234.05 138.781 234.759C139.871 235.667 141.515 236.524 142.501 235.631C146.038 232.432 150.436 230.032 152.592 225.495C153.582 223.473 152.164 222.033 149.884 222.595Z" fill="#FABF4B"/>
<path d="M189.081 8.97298C187.921 9.64994 187.267 10.6993 188.353 11.7936C192.056 15.4717 195.586 19.3804 200.298 21.7824C201.568 22.4292 203.217 22.1577 204.007 20.9641C205.01 19.4765 203.6 18.3185 202.568 17.627C198.862 15.1488 196.252 11.1742 191.867 9.61017C190.946 9.30044 190.119 8.79226 189.081 8.97298Z" fill="#FABF4B"/>
<path d="M85.0386 337.236C85.2563 339.813 85.1372 342.468 87.7645 344.063C89.8216 345.306 91.3122 344.714 91.0855 342.307C90.7 338.004 89.7179 333.765 89.4926 329.402C89.4362 328.035 88.6644 326.093 86.5969 326.361C84.8838 326.585 84.946 328.279 84.565 329.578C83.8182 332.214 84.8123 334.709 85.0386 337.236Z" fill="#FABF4B"/>
<path d="M155.956 446.997C156.291 448.683 164.296 455.482 165.967 455.46C168.075 455.437 168.898 454.091 168.057 452.337C166.413 448.935 163.898 446.127 160.583 444.463C158.208 443.246 155.53 444.994 155.956 446.997Z" fill="#FABF4B"/>
<path d="M125.171 426.41C123.966 426.959 123.139 427.534 123.027 428.613C122.906 429.809 123.09 431.082 124.317 431.675C127.999 433.456 131.665 435.195 135.378 436.868C136.222 437.233 137.308 437.5 138.049 436.563C138.783 435.6 138.079 434.667 137.675 433.808C137.088 432.503 136.124 431.245 134.866 430.946C132.122 430.293 129.979 428.633 127.65 427.28C126.838 426.814 125.854 426.646 125.171 426.41Z" fill="#FABF4B"/>
<path d="M197.536 559.931C197.191 558.461 197.12 556.936 195.451 556.58C193.906 556.25 192.8 557.14 192.257 558.496C191.087 561.364 189.353 564.142 190.062 567.495C190.368 568.909 191.015 570.125 192.598 570.373C194.156 570.603 195.26 569.785 195.762 568.37C196.746 565.619 197.705 562.807 197.536 559.931Z" fill="#FABF4B"/>
<path d="M190.736 582.268C189.39 581.646 188.169 580.769 186.872 581.9C185.67 582.947 185.678 584.387 186.392 585.657C187.888 588.362 188.969 591.467 191.991 592.95C193.271 593.57 194.605 593.793 195.767 592.664C196.901 591.545 196.946 590.151 196.162 588.877C194.642 586.395 193.06 583.895 190.736 582.268Z" fill="#FABF4B"/>
<path d="M113.112 408.602C111.791 403.619 108.86 400.802 106.032 397.942C104.748 396.619 103.026 395.813 101.522 397.56C100.285 398.972 100.796 400.708 102.052 401.759C105.186 404.383 107.619 408.308 113.112 408.602Z" fill="#FABF4B"/>
<path d="M193.367 185.812C199.649 187.215 203.419 183.715 207.307 180.663C207.953 180.158 207.752 179.222 207.366 178.477C206.589 176.96 205.092 177.407 204.355 177.971C201.018 180.58 196.669 181.592 193.367 185.812Z" fill="#FABF4B"/>
</svg>
