<svg width="1366" height="115" viewBox="0 0 1366 115" fill="none" xmlns="http://www.w3.org/2000/svg">
<path d="M951.835 64.1926C1048.97 41.3891 1144.66 -4.21793 1241.79 7.18383C1284.78 12.2293 1327.48 28.438 1366 47.9062L1366 114.75L-1.11235e-05 114.75L-9.60407e-07 9.90746C26.4994 6.14445 54.1698 3.11379 81.9589 1.48287C179.095 -4.218 274.781 7.18376 371.918 24.2864C469.054 41.389 564.74 64.1925 661.877 75.5943C759.013 86.996 854.699 86.9961 951.835 64.1926Z" fill="#FFBF41"/>
<path d="M965.432 79.1112C1055.36 54.7148 1143.96 5.92201 1233.89 18.1202C1280.17 24.3979 1326.1 46.8293 1366 72.1131L1366 114.75L-1.0112e-05 114.75L-2.69228e-06 38.2081C45.5408 27.3136 102.526 15.9229 160.061 12.021C249.994 5.92194 338.585 18.1201 428.518 36.4174C518.451 54.7147 607.042 79.1111 696.975 91.3093C786.908 103.508 875.499 103.508 965.432 79.1112Z" fill="#FBCF78"/>
</svg>
