<svg width="1365" height="138" viewBox="0 0 1365 138" fill="none" xmlns="http://www.w3.org/2000/svg">
<path d="M897.278 92.4459C991.563 108.628 1084.44 140.992 1178.72 132.901C1247.27 127.019 1315.06 99.7588 1365.36 75.9855L1365.36 -0.000335693L-1.82975e-05 -0.000333286L-5.97158e-07 133.495C17.4006 134.987 35.1447 136.183 52.9388 136.947C147.224 140.992 240.101 132.901 334.385 120.765C428.67 108.628 521.547 92.4459 615.832 84.3548C710.117 76.2638 802.994 76.2638 897.278 92.4459Z" fill="#FFBF41"/>
<path d="M888.113 78.9987C975.357 96.3707 1061.3 131.115 1148.54 122.429C1235.36 113.785 1320.9 62.1291 1365.36 35.9481L1365.36 -0.000266992L-1.69586e-05 -0.000272214L-1.58739e-06 115.929C33.3475 120.777 69.9706 124.937 106.826 126.772C194.07 131.115 280.011 122.429 367.255 109.4C454.499 96.3707 540.44 78.9987 627.684 70.3128C714.928 61.6268 800.869 61.6268 888.113 78.9987Z" fill="#FBCF78"/>
</svg>
