<svg width="21" height="19" viewBox="0 0 21 19" fill="none" xmlns="http://www.w3.org/2000/svg">
<path d="M20.4068 4.25072C20.0881 3.52597 19.6287 2.86921 19.0541 2.3172C18.4792 1.76354 17.8012 1.32356 17.0572 1.02118C16.2858 0.706378 15.4583 0.545247 14.623 0.547136C13.451 0.547136 12.3075 0.862384 11.3139 1.45785C11.0761 1.6003 10.8503 1.75676 10.6363 1.92722C10.4224 1.75676 10.1966 1.6003 9.95883 1.45785C8.96515 0.862384 7.8217 0.547136 6.64973 0.547136C5.80581 0.547136 4.98804 0.705927 4.21544 1.02118C3.46899 1.32475 2.79623 1.76143 2.21856 2.3172C1.64327 2.86858 1.1837 3.5255 0.865918 4.25072C0.535483 5.00498 0.366699 5.80595 0.366699 6.63026C0.366699 7.40788 0.528351 8.21818 0.849278 9.0425C1.1179 9.73137 1.50302 10.4459 1.9951 11.1675C2.77484 12.3094 3.84697 13.5003 5.17822 14.7076C7.38429 16.7089 9.56897 18.0913 9.66168 18.1473L10.2251 18.5023C10.4747 18.6587 10.7956 18.6587 11.0452 18.5023L11.6086 18.1473C11.7013 18.089 13.8836 16.7089 16.0921 14.7076C17.4233 13.5003 18.4955 12.3094 19.2752 11.1675C19.7673 10.4459 20.1548 9.73137 20.421 9.0425C20.742 8.21818 20.9036 7.40788 20.9036 6.63026C20.906 5.80595 20.7372 5.00498 20.4068 4.25072Z" fill="#A5A5A5"/>
</svg>
