<svg width="547" height="336" viewBox="0 0 547 336" fill="none" xmlns="http://www.w3.org/2000/svg">
<path d="M214.6 211.349C215.372 212.269 215.552 213.689 217.159 213.981C222.585 214.988 226.874 217.197 231.774 218.742C233.642 219.328 235.344 219.234 236.74 217.388C237.817 215.937 236.587 215.433 235.538 214.779C232.011 212.588 226.482 212.718 222.6 210.902C221.052 210.191 219.416 209.402 217.256 209.423C215.686 209.432 214.512 209.97 214.6 211.349Z" fill="#FABF4B"/>
<path d="M101.801 149.226C96.016 144.838 86.9646 145.821 78.7301 145.548C76.3264 145.472 74.7522 146.881 74.2091 148.299C73.6746 149.682 75.4454 150.068 77.0449 149.904C84.7625 149.173 91.8231 150.095 99.213 150.156C100.012 150.162 100.764 150.057 101.801 149.226Z" fill="#FABF4B"/>
<path d="M48.7477 157.853C50.8869 157.191 53.0746 156.575 55.1913 155.811C56.8945 155.178 57.8147 154.247 57.4762 152.919C57.1775 151.671 56.276 151.231 54.3377 151.575C49.4833 152.409 44.8975 154.042 40.4835 156.212C39.2086 156.854 38.0711 157.742 38.4258 158.839C38.7899 159.953 40.1527 159.99 41.6143 159.641C43.9921 159.061 46.3473 158.379 48.7251 157.751C48.7387 157.779 48.7341 157.826 48.7477 157.853Z" fill="#FABF4B"/>
<path d="M252.658 222.811C252.866 223.429 253.627 223.892 254.563 224.242C258.13 225.544 262.186 226.118 266.254 226.715C268.417 227.029 270.027 226.401 271.111 224.645C272.373 222.563 270.788 222.312 268.71 222.138C265.22 221.869 261.692 221.631 258.744 220.482C257.431 219.963 255.863 220.133 254.261 220.822C253.307 221.242 252.525 221.818 252.658 222.811Z" fill="#FABF4B"/>
<path d="M22.0455 167.306C17.4751 168.488 13.5029 170.864 9.21013 172.702C8.67374 172.944 8.15907 173.286 7.76058 173.666C6.72532 174.671 5.29866 175.847 6.01924 176.82C6.84079 177.895 8.82196 177.217 10.2336 176.601C14.6975 174.697 19.0429 172.603 23.4893 170.66C25.5079 169.79 26.5263 168.917 25.7862 167.525C25.122 166.246 23.7993 166.35 22.0455 167.306Z" fill="#FABF4B"/>
<path d="M483.663 118.654C482.598 119.053 481.634 119.398 480.688 119.783C479.519 120.274 478.341 120.862 478.58 121.863C478.787 122.748 479.079 123.602 481.022 123.318C484.97 122.743 488.928 122.341 492.871 121.799C494.553 121.554 495.957 120.926 496.76 119.58C497.804 117.838 497.793 116.671 494.85 117.059C491.099 117.524 487.333 118.123 483.663 118.654Z" fill="#FABF4B"/>
<path d="M329.311 221.399C333.235 219.088 338.544 217.506 343.607 215.384C344.464 215.032 345.156 214.254 345.788 213.625C346.454 212.953 346.789 212.171 346.111 211.674C345.62 211.312 344.674 211.477 343.899 211.796C338.215 214.079 332.532 216.365 326.892 218.743C325.431 219.36 323.608 220.391 324.231 221.574C324.86 222.725 326.806 222.076 329.311 221.399Z" fill="#FABF4B"/>
<path d="M133.843 155.536C133.585 155.193 133.281 154.582 132.802 154.086C130.162 151.388 125.637 150.444 121.507 149.171C120.38 148.833 118.483 148.56 117.293 150.089C116.089 151.653 117.625 151.846 119.047 152.228C123.357 153.399 126.637 155.543 130.093 157.526C130.978 158.035 131.373 159.167 133.188 158.123C134.519 157.382 134.06 156.545 133.843 155.536Z" fill="#FABF4B"/>
<path d="M174.108 186.795C173.029 183.265 169.709 181.041 167.466 178.284C166.799 177.481 165.632 177.652 164.478 178.454C163.19 179.336 161.728 180.337 163.074 181.364C165.772 183.437 167.19 186.183 169.286 188.569C170.009 189.38 170.545 190.598 172.604 189.763C174.601 188.949 173.941 187.733 174.108 186.795Z" fill="#FABF4B"/>
<path d="M450.415 130.202C446.206 132.005 441.915 133.523 438.132 135.765C436.273 136.872 435.086 138.192 436.716 139.411C438.103 140.472 439.433 139.508 440.711 138.549C443.446 136.528 446.929 135.691 450.016 134.215C450.385 134.038 450.795 133.957 451.2 133.861C453.683 133.24 455.705 132.053 455.249 130.296C454.716 128.22 451.942 130.382 450.415 130.202Z" fill="#FABF4B"/>
<path d="M186.869 198.038C188.558 201.059 191.71 203.191 195.569 204.856C196.467 205.235 197.418 205.023 198.186 204.31C199.167 203.401 200.139 202.102 199.32 201.519C196.388 199.427 194.313 196.605 189.951 195.691C188.008 195.262 186.472 196.481 186.869 198.038Z" fill="#FABF4B"/>
<path d="M296.378 228.588C298.96 228.073 301.595 227.788 303.372 225.68C304.757 224.03 304.275 223.043 301.861 223.542C297.549 224.418 293.257 225.714 288.897 226.484C287.531 226.715 285.542 227.54 285.661 228.986C285.761 230.184 287.453 229.903 288.719 229.996C291.29 230.164 293.846 229.103 296.378 228.588Z" fill="#FABF4B"/>
<path d="M410.754 162.392C412.458 161.917 419.801 155.224 419.9 154.028C420.028 152.519 418.746 152.115 416.939 152.964C413.434 154.617 410.457 156.814 408.564 159.425C407.181 161.299 408.729 162.977 410.754 162.392Z" fill="#FABF4B"/>
<path d="M388.05 187.354C388.51 188.143 389.024 188.656 390.09 188.586C391.272 188.506 392.553 188.197 393.231 187.234C395.269 184.343 397.263 181.469 399.195 178.572C399.619 177.915 399.963 177.098 399.083 176.697C398.177 176.305 397.197 176.94 396.313 177.35C394.971 177.953 393.649 178.82 393.262 179.764C392.414 181.825 390.608 183.595 389.093 185.455C388.572 186.102 388.334 186.832 388.05 187.354Z" fill="#FABF4B"/>
<path d="M526.192 116.806C524.703 117.258 523.179 117.522 522.706 118.769C522.267 119.924 523.074 120.594 524.385 120.794C527.156 121.234 529.798 122.091 533.188 121.114C534.619 120.698 535.876 120.064 536.235 118.894C536.577 117.743 535.841 117.065 534.468 116.902C531.799 116.579 529.068 116.283 526.192 116.806Z" fill="#FABF4B"/>
<path d="M369.454 198.491C364.397 200.135 361.382 202.631 358.332 205.059C356.922 206.165 355.996 207.513 357.628 208.348C358.945 209.039 360.71 208.43 361.847 207.383C364.685 204.768 368.768 202.474 369.454 198.491Z" fill="#FABF4B"/>
<path d="M153.358 171.961C155.205 167.257 151.991 165.04 149.23 162.675C148.773 162.282 147.827 162.557 147.057 162.938C145.491 163.706 145.829 164.719 146.338 165.169C148.696 167.2 149.393 170.18 153.358 171.961Z" fill="#FABF4B"/>
</svg>
