<svg width="534" height="113" viewBox="0 0 534 113" fill="none" xmlns="http://www.w3.org/2000/svg">
<path d="M305.74 92.5496C305.007 93.4223 304.836 94.7694 303.312 95.0464C298.165 96.001 294.096 98.097 289.448 99.5627C287.676 100.118 286.062 100.029 284.738 98.2777C283.716 96.9017 284.882 96.4235 285.878 95.8031C289.224 93.7245 294.468 93.8477 298.151 92.1255C299.619 91.4507 301.171 90.7029 303.22 90.7223C304.709 90.7308 305.823 91.2412 305.74 92.5496Z" fill="#FABF4B"/>
<path d="M412.742 33.6193C418.23 29.4569 426.817 30.3897 434.628 30.1298C436.908 30.058 438.401 31.3945 438.917 32.7397C439.424 34.0516 437.744 34.4177 436.227 34.2624C428.906 33.5691 422.208 34.4434 415.198 34.5019C414.44 34.5072 413.726 34.4079 412.742 33.6193Z" fill="#FABF4B"/>
<path d="M463.07 41.802C461.041 41.1743 458.965 40.5894 456.957 39.8648C455.342 39.2642 454.469 38.3812 454.79 37.1211C455.073 35.9371 455.929 35.5204 457.767 35.8465C462.372 36.6381 466.722 38.1863 470.909 40.2455C472.119 40.8546 473.198 41.6962 472.861 42.7376C472.516 43.7937 471.223 43.8295 469.837 43.4978C467.581 42.9478 465.347 42.3009 463.091 41.7051C463.078 41.7312 463.083 41.7759 463.07 41.802Z" fill="#FABF4B"/>
<path d="M269.637 103.422C269.44 104.008 268.718 104.448 267.83 104.779C264.447 106.014 260.599 106.559 256.74 107.126C254.688 107.423 253.161 106.827 252.132 105.162C250.936 103.187 252.439 102.949 254.41 102.784C257.72 102.528 261.067 102.302 263.864 101.213C265.109 100.721 266.597 100.881 268.116 101.535C269.022 101.934 269.763 102.48 269.637 103.422Z" fill="#FABF4B"/>
<path d="M488.399 50.7703C492.735 51.8916 496.503 54.1456 500.575 55.8885C501.084 56.1183 501.572 56.4428 501.95 56.8033C502.932 57.7566 504.285 58.8725 503.602 59.7952C502.822 60.8147 500.943 60.1722 499.604 59.5874C495.369 57.7813 491.247 55.7952 487.03 53.9516C485.115 53.1267 484.149 52.2983 484.851 50.9779C485.481 49.765 486.735 49.8635 488.399 50.7703Z" fill="#FABF4B"/>
<path d="M50.5051 4.6178C51.5153 4.9962 52.4293 5.32391 53.3265 5.68911C54.4361 6.15486 55.5535 6.71223 55.3269 7.66151C55.1298 8.50144 54.8528 9.31153 53.0103 9.0425C49.2652 8.49663 45.5108 8.11533 41.7703 7.60156C40.174 7.36841 38.8423 6.77336 38.0805 5.49635C37.0908 3.84402 37.1011 2.73694 39.893 3.10433C43.4507 3.54546 47.0237 4.1138 50.5051 4.6178Z" fill="#FABF4B"/>
<path d="M196.923 102.082C193.201 99.8898 188.165 98.3892 183.363 96.3764C182.549 96.0423 181.892 95.3045 181.293 94.7083C180.662 94.0705 180.343 93.3289 180.986 92.8574C181.452 92.5135 182.35 92.6705 183.085 92.9726C188.477 95.1387 193.868 97.3071 199.218 99.563C200.604 100.149 202.333 101.126 201.742 102.248C201.146 103.34 199.3 102.725 196.923 102.082Z" fill="#FABF4B"/>
<path d="M382.348 39.6049C382.593 39.2793 382.881 38.6993 383.335 38.2294C385.84 35.6697 390.132 34.7738 394.05 33.5665C395.119 33.2458 396.919 32.9869 398.048 34.4378C399.19 35.9209 397.733 36.104 396.384 36.4661C392.295 37.5769 389.184 39.6111 385.905 41.4918C385.066 41.9751 384.691 43.049 382.97 42.059C381.707 41.3552 382.143 40.5613 382.348 39.6049Z" fill="#FABF4B"/>
<path d="M344.151 69.2565C345.175 65.9084 348.324 63.7981 350.451 61.1834C351.084 60.4212 352.192 60.5838 353.286 61.3444C354.508 62.1814 355.895 63.1307 354.618 64.1048C352.058 66.071 350.713 68.6763 348.726 70.9397C348.04 71.7091 347.531 72.8644 345.578 72.0721C343.684 71.3001 344.309 70.1466 344.151 69.2565Z" fill="#FABF4B"/>
<path d="M82.0418 15.5727C86.0348 17.2835 90.1049 18.7232 93.6934 20.8497C95.4569 21.8999 96.5836 23.1517 95.037 24.308C93.7216 25.3146 92.4599 24.4003 91.2477 23.4903C88.6525 21.5738 85.3486 20.7798 82.4203 19.3797C82.0704 19.2118 81.6817 19.1348 81.2975 19.0441C78.9418 18.4548 77.0241 17.329 77.4568 15.6623C77.9618 13.6925 80.5933 15.7434 82.0418 15.5727Z" fill="#FABF4B"/>
<path d="M332.047 79.9225C330.445 82.7879 327.455 84.8104 323.794 86.3899C322.942 86.7495 322.04 86.5478 321.312 85.8718C320.381 85.0097 319.459 83.7771 320.235 83.2242C323.017 81.2396 324.985 78.5629 329.123 77.6954C330.966 77.2885 332.423 78.4448 332.047 79.9225Z" fill="#FABF4B"/>
<path d="M531.167 81.4937C530.606 82.1941 529.659 82.5007 528.552 81.6164C524.826 78.6092 520.894 75.6892 518.304 72.1634C517.607 71.2134 517.751 70.1267 518.825 69.7466C520.162 69.2608 521.352 70.3741 522.075 71.1678C524.668 74.0188 528.6 76.3211 530.375 79.5128C530.731 80.1806 531.267 80.8112 531.167 81.4937Z" fill="#FABF4B"/>
<path d="M228.164 108.903C225.716 108.414 223.216 108.143 221.53 106.144C220.216 104.579 220.674 103.643 222.964 104.115C227.054 104.947 231.125 106.176 235.261 106.907C236.557 107.126 238.443 107.908 238.331 109.28C238.236 110.417 236.631 110.15 235.43 110.238C232.991 110.398 230.566 109.391 228.164 108.903Z" fill="#FABF4B"/>
<path d="M119.666 46.1083C118.05 45.6575 111.085 39.3088 110.991 38.1738C110.87 36.7421 112.085 36.3596 113.799 37.1642C117.124 38.733 119.948 40.8167 121.745 43.2937C123.056 45.0712 121.587 46.6633 119.666 46.1083Z" fill="#FABF4B"/>
<path d="M141.202 69.7876C140.766 70.5357 140.279 71.0223 139.268 70.9561C138.146 70.8802 136.931 70.5867 136.288 69.673C134.355 66.9307 132.463 64.205 130.63 61.4563C130.228 60.8335 129.902 60.0586 130.737 59.6781C131.596 59.3061 132.526 59.9086 133.365 60.2969C134.637 60.8693 135.891 61.6919 136.259 62.5875C137.063 64.5424 138.776 66.2209 140.213 67.9854C140.708 68.5994 140.933 69.2916 141.202 69.7876Z" fill="#FABF4B"/>
<path d="M10.1615 2.86432C11.5733 3.29362 13.0189 3.54386 13.4682 4.72676C13.8848 5.82222 13.1193 6.45766 11.8756 6.64753C9.24618 7.06508 6.74 7.87803 3.52445 6.95154C2.16755 6.55628 0.974938 5.9554 0.633959 4.84511C0.310127 3.75339 1.00784 3.11003 2.30993 2.95539C4.84245 2.64957 7.43302 2.36867 10.1615 2.86432Z" fill="#FABF4B"/>
<path d="M158.843 80.3527C163.64 81.9113 166.5 84.2792 169.394 86.5824C170.731 87.6316 171.609 88.9105 170.062 89.703C168.812 90.3583 167.137 89.7807 166.059 88.787C163.367 86.3062 159.494 84.1307 158.843 80.3527Z" fill="#FABF4B"/>
<path d="M363.836 55.1849C362.084 50.7228 365.133 48.6189 367.753 46.3756C368.186 46.0026 369.083 46.2637 369.813 46.6252C371.299 47.3542 370.978 48.3146 370.496 48.7417C368.259 50.6684 367.598 53.4948 363.836 55.1849Z" fill="#FABF4B"/>
</svg>
