<svg width="506" height="113" viewBox="0 0 506 113" fill="none" xmlns="http://www.w3.org/2000/svg">
<path d="M199.572 92.6619C200.305 93.5346 200.476 94.8817 202 95.1587C207.147 96.1133 211.216 98.2093 215.864 99.675C217.636 100.231 219.25 100.141 220.574 98.39C221.596 97.014 220.43 96.5358 219.434 95.9154C216.088 93.8368 210.844 93.96 207.161 92.2378C205.693 91.563 204.141 90.8152 202.092 90.8347C200.603 90.8431 199.489 91.3535 199.572 92.6619Z" fill="#FABF4B"/>
<path d="M92.57 33.7306C87.0821 29.5683 78.4959 30.501 70.6845 30.2411C68.4043 30.1693 66.911 31.5058 66.3958 32.851C65.8888 34.1629 67.5686 34.529 69.0859 34.3737C76.4069 33.6804 83.1046 34.5547 90.1148 34.6132C90.8724 34.6185 91.5865 34.5193 92.57 33.7306Z" fill="#FABF4B"/>
<path d="M42.2431 41.9143C44.2724 41.2866 46.3476 40.7017 48.3556 39.9771C49.9712 39.3765 50.8442 38.4935 50.523 37.2334C50.2396 36.0494 49.3845 35.6327 47.5458 35.9589C42.9408 36.7504 38.5907 38.2986 34.4035 40.3578C33.1942 40.9669 32.1152 41.8085 32.4516 42.8499C32.797 43.906 34.0898 43.9418 35.4762 43.6101C37.7318 43.0601 39.9661 42.4132 42.2217 41.8174C42.2345 41.8435 42.2302 41.8882 42.2431 41.9143Z" fill="#FABF4B"/>
<path d="M235.675 103.535C235.871 104.121 236.593 104.56 237.482 104.892C240.865 106.127 244.713 106.672 248.572 107.238C250.624 107.535 252.151 106.94 253.179 105.274C254.376 103.299 252.873 103.061 250.902 102.896C247.591 102.64 244.244 102.415 241.447 101.325C240.202 100.833 238.714 100.994 237.195 101.648C236.29 102.046 235.548 102.592 235.675 103.535Z" fill="#FABF4B"/>
<path d="M16.9124 50.8816C12.5769 52.0029 8.80877 54.2569 4.73665 55.9998C4.22782 56.2297 3.73959 56.5541 3.36158 56.9147C2.37953 57.868 1.02618 58.9838 1.70973 59.9065C2.48906 60.926 4.36842 60.2835 5.70749 59.6987C9.94207 57.8926 14.0642 55.9065 18.282 54.063C20.1969 53.238 21.1629 52.4097 20.4609 51.0892C19.8308 49.8763 18.5761 49.9748 16.9124 50.8816Z" fill="#FABF4B"/>
<path d="M454.807 4.7301C453.797 5.10851 452.883 5.43622 451.986 5.80142C450.876 6.26716 449.759 6.82454 449.986 7.77382C450.183 8.61375 450.46 9.42383 452.302 9.1548C456.047 8.60893 459.802 8.22763 463.542 7.71387C465.139 7.48071 466.47 6.88567 467.232 5.60866C468.222 3.95633 468.211 2.84925 465.419 3.21663C461.862 3.65777 458.289 4.22611 454.807 4.7301Z" fill="#FABF4B"/>
<path d="M308.388 102.196C312.111 100.003 317.147 98.5025 321.949 96.4897C322.763 96.1555 323.419 95.4178 324.018 94.8216C324.65 94.1838 324.968 93.4422 324.325 92.9707C323.859 92.6268 322.961 92.7838 322.226 93.0858C316.834 95.252 311.443 97.4204 306.094 99.6763C304.708 100.262 302.978 101.239 303.569 102.361C304.166 103.454 306.011 102.838 308.388 102.196Z" fill="#FABF4B"/>
<path d="M122.965 39.7172C122.721 39.3916 122.432 38.8116 121.978 38.3417C119.474 35.782 115.181 34.8861 111.263 33.6789C110.194 33.3581 108.394 33.0992 107.265 34.5501C106.124 36.0332 107.58 36.2163 108.93 36.5784C113.018 37.6892 116.13 39.7234 119.408 41.6041C120.247 42.0874 120.622 43.1613 122.343 42.1713C123.607 41.4675 123.171 40.6736 122.965 39.7172Z" fill="#FABF4B"/>
<path d="M161.16 69.3688C160.137 66.0207 156.988 63.9104 154.86 61.2957C154.227 60.5335 153.12 60.6961 152.025 61.4567C150.804 62.2937 149.417 63.243 150.694 64.2171C153.253 66.1833 154.598 68.7886 156.586 71.052C157.272 71.8214 157.781 72.9767 159.734 72.1844C161.628 71.4124 161.002 70.2589 161.16 69.3688Z" fill="#FABF4B"/>
<path d="M423.269 15.685C419.276 17.3958 415.206 18.8355 411.618 20.962C409.854 22.0122 408.727 23.264 410.274 24.4203C411.589 25.4269 412.851 24.5127 414.063 23.6026C416.658 21.6861 419.962 20.8921 422.891 19.492C423.241 19.3241 423.629 19.2471 424.013 19.1564C426.369 18.5671 428.287 17.4413 427.854 15.7746C427.349 13.8048 424.718 15.8557 423.269 15.685Z" fill="#FABF4B"/>
<path d="M173.266 80.0348C174.868 82.9002 177.858 84.9227 181.519 86.5022C182.371 86.8618 183.273 86.6601 184.001 85.9841C184.932 85.122 185.854 83.8894 185.078 83.3365C182.296 81.3519 180.328 78.6752 176.189 77.8078C174.347 77.4008 172.89 78.5571 173.266 80.0348Z" fill="#FABF4B"/>
<path d="M277.148 109.015C279.596 108.526 282.096 108.256 283.782 106.256C285.096 104.691 284.638 103.755 282.348 104.228C278.258 105.059 274.187 106.288 270.051 107.019C268.755 107.238 266.869 108.02 266.981 109.392C267.076 110.529 268.681 110.263 269.882 110.35C272.321 110.51 274.746 109.503 277.148 109.015Z" fill="#FABF4B"/>
<path d="M385.647 46.2196C387.263 45.7688 394.228 39.4201 394.322 38.2851C394.443 36.8534 393.228 36.4709 391.514 37.2756C388.189 38.8443 385.365 40.928 383.568 43.4051C382.257 45.1825 383.726 46.7747 385.647 46.2196Z" fill="#FABF4B"/>
<path d="M364.109 69.8999C364.545 70.648 365.032 71.1346 366.044 71.0684C367.165 70.9925 368.381 70.699 369.024 69.7853C370.957 67.043 372.848 64.3173 374.681 61.5686C375.083 60.9458 375.41 60.1709 374.575 59.7905C373.715 59.4184 372.785 60.0209 371.947 60.4092C370.674 60.9816 369.42 61.8042 369.053 62.6998C368.249 64.6547 366.536 66.3332 365.099 68.0978C364.604 68.7117 364.378 69.4039 364.109 69.8999Z" fill="#FABF4B"/>
<path d="M495.151 2.97663C493.739 3.40592 492.294 3.65616 491.844 4.83907C491.428 5.93452 492.193 6.56997 493.437 6.75983C496.066 7.17738 498.572 7.99034 501.788 7.06385C503.145 6.66858 504.338 6.06771 504.679 4.95742C505.002 3.8657 504.305 3.22233 503.003 3.06769C500.47 2.76187 497.879 2.48098 495.151 2.97663Z" fill="#FABF4B"/>
<path d="M346.468 80.465C341.671 82.0236 338.811 84.3915 335.917 86.6947C334.58 87.7439 333.702 89.0228 335.249 89.8153C336.499 90.4706 338.174 89.893 339.252 88.8993C341.944 86.4185 345.817 84.243 346.468 80.465Z" fill="#FABF4B"/>
<path d="M141.477 55.2981C143.229 50.836 140.18 48.7322 137.561 46.4889C137.128 46.1159 136.23 46.377 135.5 46.7385C134.015 47.4675 134.335 48.4278 134.818 48.855C137.055 50.7817 137.716 53.6081 141.477 55.2981Z" fill="#FABF4B"/>
</svg>
