<svg width="568" height="336" viewBox="0 0 568 336" fill="none" xmlns="http://www.w3.org/2000/svg">
<path d="M331.662 211.349C330.889 212.269 330.709 213.689 329.103 213.981C323.677 214.988 319.388 217.197 314.488 218.742C312.62 219.328 310.918 219.234 309.522 217.388C308.445 215.937 309.674 215.433 310.724 214.779C314.251 212.588 319.78 212.718 323.662 210.902C325.209 210.191 326.845 209.402 329.006 209.423C330.575 209.432 331.75 209.97 331.662 211.349Z" fill="#FABF4B"/>
<path d="M444.461 149.226C450.246 144.838 459.297 145.821 467.532 145.548C469.935 145.472 471.51 146.881 472.053 148.299C472.587 149.682 470.816 150.068 469.217 149.904C461.499 149.173 454.439 150.095 447.049 150.156C446.25 150.162 445.497 150.057 444.461 149.226Z" fill="#FABF4B"/>
<path d="M497.514 157.853C495.375 157.191 493.187 156.575 491.07 155.811C489.367 155.178 488.447 154.247 488.786 152.919C489.084 151.671 489.986 151.231 491.924 151.575C496.778 152.409 501.364 154.042 505.778 156.212C507.053 156.854 508.191 157.742 507.836 158.839C507.472 159.953 506.109 159.99 504.647 159.641C502.27 159.061 499.914 158.379 497.537 157.751C497.523 157.779 497.528 157.826 497.514 157.853Z" fill="#FABF4B"/>
<path d="M293.603 222.811C293.396 223.429 292.635 223.892 291.698 224.242C288.132 225.544 284.076 226.118 280.008 226.715C277.845 227.029 276.235 226.401 275.151 224.645C273.889 222.563 275.474 222.312 277.552 222.138C281.041 221.869 284.57 221.631 287.518 220.482C288.83 219.963 290.399 220.133 292 220.822C292.955 221.242 293.737 221.818 293.603 222.811Z" fill="#FABF4B"/>
<path d="M524.216 167.306C528.787 168.488 532.759 170.864 537.052 172.702C537.588 172.944 538.103 173.286 538.501 173.666C539.536 174.671 540.963 175.847 540.242 176.82C539.421 177.895 537.44 177.217 536.028 176.601C531.564 174.697 527.219 172.603 522.772 170.66C520.754 169.79 519.735 168.917 520.476 167.525C521.14 166.246 522.462 166.35 524.216 167.306Z" fill="#FABF4B"/>
<path d="M62.599 118.654C63.6639 119.053 64.6274 119.398 65.5733 119.783C66.743 120.274 67.9209 120.862 67.682 121.863C67.4743 122.748 67.1823 123.602 65.2399 123.318C61.2919 122.743 57.3341 122.341 53.3911 121.799C51.7082 121.554 50.3044 120.926 49.5014 119.58C48.458 117.838 48.4689 116.671 51.4121 117.059C55.1625 117.524 58.929 118.123 62.599 118.654Z" fill="#FABF4B"/>
<path d="M216.951 221.399C213.026 219.088 207.718 217.506 202.655 215.384C201.797 215.032 201.105 214.254 200.474 213.625C199.808 212.953 199.473 212.171 200.15 211.674C200.642 211.312 201.588 211.477 202.363 211.796C208.047 214.079 213.73 216.365 219.37 218.743C220.83 219.36 222.654 220.391 222.031 221.574C221.402 222.725 219.456 222.076 216.951 221.399Z" fill="#FABF4B"/>
<path d="M412.419 155.536C412.677 155.193 412.98 154.582 413.459 154.086C416.099 151.388 420.625 150.444 424.755 149.171C425.882 148.833 427.779 148.56 428.969 150.089C430.173 151.653 428.637 151.846 427.214 152.228C422.905 153.399 419.624 155.543 416.168 157.526C415.284 158.035 414.889 159.167 413.074 158.123C411.743 157.382 412.202 156.545 412.419 155.536Z" fill="#FABF4B"/>
<path d="M372.154 186.795C373.233 183.265 376.553 181.041 378.795 178.284C379.462 177.481 380.63 177.652 381.784 178.454C383.072 179.336 384.534 180.337 383.188 181.364C380.489 183.437 379.071 186.183 376.976 188.569C376.253 189.38 375.717 190.598 373.658 189.763C371.661 188.949 372.32 187.733 372.154 186.795Z" fill="#FABF4B"/>
<path d="M95.8465 130.202C100.056 132.005 104.346 133.523 108.129 135.765C109.988 136.872 111.176 138.192 109.546 139.411C108.159 140.472 106.829 139.508 105.551 138.549C102.815 136.528 99.3325 135.691 96.2455 134.215C95.8767 134.038 95.4668 133.957 95.0619 133.861C92.5786 133.24 90.5569 132.053 91.0131 130.296C91.5455 128.22 94.3195 130.382 95.8465 130.202Z" fill="#FABF4B"/>
<path d="M359.393 198.038C357.704 201.059 354.552 203.191 350.693 204.856C349.795 205.235 348.844 205.023 348.076 204.31C347.095 203.401 346.123 202.102 346.942 201.519C349.874 199.427 351.949 196.605 356.311 195.691C358.254 195.262 359.79 196.481 359.393 198.038Z" fill="#FABF4B"/>
<path d="M569.3 199.694C568.709 200.432 567.711 200.755 566.543 199.823C562.616 196.653 558.47 193.575 555.741 189.858C555.006 188.856 555.158 187.711 556.29 187.31C557.699 186.798 558.954 187.972 559.716 188.808C562.449 191.814 566.594 194.241 568.466 197.605C568.84 198.309 569.406 198.974 569.3 199.694Z" fill="#FABF4B"/>
<path d="M249.884 228.588C247.302 228.073 244.667 227.788 242.89 225.68C241.505 224.03 241.987 223.043 244.401 223.542C248.712 224.418 253.005 225.714 257.365 226.484C258.731 226.715 260.719 227.54 260.601 228.986C260.501 230.184 258.809 229.903 257.543 229.996C254.971 230.164 252.416 229.103 249.884 228.588Z" fill="#FABF4B"/>
<path d="M135.507 162.392C133.804 161.917 126.461 155.224 126.362 154.028C126.234 152.519 127.515 152.115 129.322 152.964C132.828 154.617 135.804 156.814 137.698 159.425C139.08 161.299 137.532 162.977 135.507 162.392Z" fill="#FABF4B"/>
<path d="M158.211 187.354C157.752 188.143 157.238 188.656 156.172 188.586C154.99 188.506 153.708 188.197 153.03 187.234C150.993 184.343 148.999 181.469 147.066 178.572C146.643 177.915 146.299 177.098 147.179 176.697C148.085 176.305 149.065 176.94 149.949 177.35C151.291 177.953 152.612 178.82 153 179.764C153.847 181.825 155.653 183.595 157.168 185.455C157.69 186.102 157.928 186.832 158.211 187.354Z" fill="#FABF4B"/>
<path d="M20.0701 116.806C21.5584 117.258 23.0824 117.522 23.556 118.769C23.9951 119.924 23.1882 120.594 21.8772 120.794C19.1053 121.234 16.4633 122.091 13.0736 121.114C11.6432 120.698 10.3859 120.064 10.0265 118.894C9.68512 117.743 10.4206 117.065 11.7933 116.902C14.463 116.579 17.1939 116.283 20.0701 116.806Z" fill="#FABF4B"/>
<path d="M176.808 198.491C181.865 200.135 184.88 202.631 187.93 205.059C189.339 206.165 190.266 207.513 188.634 208.348C187.316 209.039 185.551 208.43 184.415 207.383C181.577 204.768 177.494 202.474 176.808 198.491Z" fill="#FABF4B"/>
<path d="M392.904 171.961C391.056 167.257 394.271 165.04 397.032 162.675C397.488 162.282 398.435 162.557 399.204 162.938C400.77 163.706 400.432 164.719 399.924 165.169C397.565 167.2 396.869 170.18 392.904 171.961Z" fill="#FABF4B"/>
</svg>
