<svg width="1440" height="270" viewBox="0 0 1440 270" fill="none" xmlns="http://www.w3.org/2000/svg">
<path d="M402.86 233.894C224.922 281.297 60.1458 272.047 0 261.478V0H1440V180.878C1387.52 216.222 1292.05 267.679 1207.58 262.482C1123.11 257.284 1065.13 229.736 999.153 209.465C933.176 189.195 874.196 178.28 804.721 177.76C735.245 177.24 625.283 174.641 402.86 233.894Z" fill="#FFBF41"/>
<path d="M0 0V223.481C26.9813 237.48 105.926 254.479 270.312 241.48C434.698 228.481 659.542 128.489 820.93 151.987C982.318 175.485 1095.74 237.48 1203.66 241.48C1290 244.679 1396.86 161.486 1439.5 119.49V0H0Z" fill="#FBCF78"/>
</svg>
