<svg width="1440" height="258" viewBox="0 0 1440 258" fill="none" xmlns="http://www.w3.org/2000/svg">
<path fill-rule="evenodd" clip-rule="evenodd" d="M1551 94.1746L1502.02 130.233C1451.56 166.291 1353.61 238.408 1254.17 250.427C1154.73 262.446 1056.77 214.369 957.333 190.33C857.894 166.291 759.939 166.291 660.5 178.311C561.061 190.33 463.106 214.369 363.667 232.398C264.228 250.427 166.273 262.447 66.8334 256.437C-32.6058 250.427 -130.561 226.388 -181.022 214.369L-230 202.349L-230 -14L-181.022 -14C-130.561 -14 -32.6059 -14 66.8333 -14C166.273 -14 264.228 -14 363.667 -14.0001C463.106 -14.0001 561.061 -14.0001 660.5 -14.0001C759.939 -14.0001 857.894 -14.0001 957.333 -14.0001C1056.77 -14.0001 1154.73 -14.0001 1254.17 -14.0001C1353.61 -14.0001 1451.56 -14.0001 1502.02 -14.0001L1551 -14.0002L1551 94.1746Z" fill="#FFBF41"/>
<path fill-rule="evenodd" clip-rule="evenodd" d="M1497 67.1286L1451.68 105.838C1404.99 144.548 1314.35 221.967 1222.33 234.87C1130.32 247.773 1039.68 196.161 947.667 170.354C855.653 144.548 765.013 144.548 673 157.451C580.987 170.354 490.347 196.161 398.333 215.515C306.32 234.87 215.68 247.773 123.667 241.322C31.6533 234.87 -58.9867 209.064 -105.68 196.161L-151 183.258L-151 -49L-105.68 -49C-58.9867 -49 31.6533 -49 123.667 -49C215.68 -49 306.32 -49 398.333 -49C490.347 -49 580.987 -49 673 -49.0001C765.013 -49.0001 855.653 -49.0001 947.667 -49.0001C1039.68 -49.0001 1130.32 -49.0001 1222.33 -49.0001C1314.35 -49.0001 1404.99 -49.0001 1451.68 -49.0001L1497 -49.0001L1497 67.1286Z" fill="#FBCF78"/>
</svg>
