<svg width="256" height="201" viewBox="0 0 256 201" fill="none" xmlns="http://www.w3.org/2000/svg">
<path d="M124.349 5.64381L255.604 0C254.562 29.0584 231.822 36.2265 220.583 36.1783C204.838 57.2485 181.8 58.85 172.249 57.017L181.511 94.9319L171.815 200.862H2.9345C3.36864 188.417 2.93451 174.09 19.287 148.91C-0.972837 124.309 -4.01181 52.5309 4.9604 34.7312C10.9805 74.672 32.5524 113.889 42.5858 128.505L106.115 67.7258L110.022 47.4659L124.349 5.64381Z" fill="#D79863"/>
<path d="M208.129 53.6887V34.876C202.109 33.9498 194.911 30.3416 192.065 28.6533V53.6887C192.982 55.57 195.973 59.3325 200.604 59.3325C205.234 59.3325 207.55 55.57 208.129 53.6887Z" fill="#FF7F76"/>
<path d="M220.719 36.3228C211.264 36.9498 189.808 33.3996 179.62 14.1816" stroke="black"/>
<path d="M229.401 1.15771L255.884 0C255.884 5.25791 255.479 16.5262 250.964 19.5363C236.348 20.5493 229.594 6.36738 229.401 1.15771Z" fill="#6B383D"/>
<path d="M148.217 40.2303V0C143.828 0.62709 133.515 2.14176 127.379 3.18369C121.243 4.22562 116.718 8.34513 115.223 10.2746C110.688 15.5325 99.97 27.9586 93.3711 35.5994C117.104 52.0389 139.824 45.5364 148.217 40.2303Z" fill="#6B383D"/>
<path d="M5.0248 31.8369C7.91906 53.3992 15.371 75.5403 16.0945 75.9744C10.0746 78.5214 3.21485 77.6628 0.320549 76.9874C-0.258209 71.9225 -0.692187 45.8741 5.0248 31.8369Z" fill="#6B383D"/>
<path d="M51.4043 120.112L95.8313 77.5664C102.199 81.3289 117.104 103.47 95.8313 124.164C77.308 139.446 55.1668 127.782 51.4043 120.112Z" fill="#6B383D"/>
<path d="M176.581 73.9482L172.24 57.3062C157.19 56.5827 151.98 54.1225 146.047 51.8071C152.067 65.1207 165.294 71.7775 176.581 73.9482Z" fill="#6B383D"/>
<circle cx="161.607" cy="13.0239" r="2.31541" fill="#6B383D"/>
</svg>
