<svg width="614" height="498" viewBox="0 0 614 498" fill="none" xmlns="http://www.w3.org/2000/svg">
<path d="M282.254 212.149C281.934 210.044 280.696 207.737 281.595 205.804C284.611 199.246 285.631 191.93 287.74 185.049C288.548 182.43 289.889 180.991 292.697 182.477C294.888 183.662 294.471 185.564 294.331 187.525C293.854 194.105 289.665 199.046 288.565 205.389C288.114 207.9 287.673 210.608 286.065 212.584C284.903 214.029 283.521 214.309 282.254 212.149Z" fill="#FABF4B"/>
<path d="M259.12 410.557C259.104 422.548 251.502 429.478 245.713 437.544C244.02 439.892 241.502 439.231 239.734 437.597C238.006 436.009 238.935 433.782 240.269 432.542C246.647 426.471 250.947 418.52 256.32 411.559C256.901 410.809 257.556 410.267 259.12 410.557Z" fill="#FABF4B"/>
<path d="M211.765 446.871C213.977 445.88 216.181 444.776 218.475 443.96C220.338 443.331 221.913 443.88 222.947 446.198C223.932 448.358 223.694 449.858 221.937 451.142C217.562 454.396 212.614 456.198 207.273 457.028C205.716 457.245 204.023 456.965 203.224 454.979C202.417 452.962 203.382 451.638 204.794 450.807C207.103 449.47 209.493 448.309 211.847 447.046C211.831 446.992 211.782 446.925 211.765 446.871Z" fill="#FABF4B"/>
<path d="M299.207 159.51C298.763 158.387 298.875 156.981 299.226 155.584C300.591 150.307 303.017 145.672 305.431 140.992C306.718 138.509 308.508 137.96 310.999 139.599C313.936 141.565 313.014 143.416 311.654 145.609C309.35 149.259 306.986 152.896 305.928 157.367C305.464 159.368 304.148 160.571 302.305 161.02C301.198 161.273 300.068 161.132 299.207 159.51Z" fill="#FABF4B"/>
<path d="M183.002 457.465C178.5 459.932 173.285 460.041 168.355 461.261C167.727 461.395 167.018 461.357 166.358 461.155C164.627 460.602 162.442 460.154 162.033 458.017C161.599 455.633 163.71 454.812 165.343 454.43C170.463 453.151 175.68 452.268 180.825 451.065C183.149 450.5 184.741 450.87 185.541 453.658C186.287 456.203 185.214 457.276 183.002 457.465Z" fill="#FABF4B"/>
<path d="M569.66 101.675C568.492 102.063 567.45 102.438 566.383 102.737C565.049 103.084 563.616 103.293 562.825 101.562C562.123 100.033 561.513 98.4744 563.215 97.0965C566.673 94.2944 569.971 91.2217 573.392 88.3732C574.867 87.1795 576.504 86.8205 578.394 88.1039C580.843 89.7604 581.962 91.5303 579.424 93.6821C576.218 96.467 572.871 99.0647 569.66 101.675Z" fill="#FABF4B"/>
<path d="M356.97 90.3855C362.088 90.2228 367.519 87.6724 373.29 86.1656C374.261 85.8992 375.52 86.4288 376.592 86.7896C377.73 87.1845 378.732 88.0517 378.714 89.4315C378.702 90.435 377.846 91.0655 376.969 91.3055C370.585 93.1466 364.199 94.9833 357.756 96.6403C356.086 97.0675 353.75 97.2085 353.066 94.8452C352.417 92.524 354.474 91.6939 356.97 90.3855Z" fill="#FABF4B"/>
<path d="M276.62 371.273C276.762 372.029 277.128 373.233 277.254 374.425C277.918 380.944 275.504 386.572 273.698 392.327C273.196 393.883 272.065 396.057 269.715 394.858C267.322 393.62 268.264 391.902 268.941 390.005C270.978 384.237 271.319 377.957 271.945 371.758C272.103 370.169 271.301 368.096 273.642 367.983C275.336 367.864 275.806 369.552 276.62 371.273Z" fill="#FABF4B"/>
<path d="M276.112 286.77C278.724 293.09 278.431 299.527 279.443 305.763C279.728 307.593 278.705 308.42 277.083 308.284C275.286 308.15 273.247 308 273.245 305.203C273.228 299.573 271.62 294.118 270.858 288.576C270.606 286.682 269.825 284.349 272.144 283.694C274.396 283.066 275.084 285.511 276.112 286.77Z" fill="#FABF4B"/>
<path d="M534.05 115.189C529.214 116.382 524.594 118.082 519.649 118.219C517.213 118.278 515.066 117.392 515.087 114.038C515.082 111.149 516.991 111.365 518.857 111.624C522.819 112.127 526.187 110.152 529.882 109.508C530.324 109.432 530.704 109.173 531.094 108.941C533.52 107.569 536.152 107.479 537.513 110.553C539.126 114.179 534.999 113.498 534.05 115.189Z" fill="#FABF4B"/>
<path d="M274.677 257.972C273.004 251.851 273.263 245.71 274.492 239.615C274.786 238.21 275.69 237.647 276.941 238.007C278.539 238.465 280.507 239.521 280.468 241.159C280.332 247.036 281.53 253.216 279.207 258.647C278.194 261.098 275.889 260.688 274.677 257.972Z" fill="#FABF4B"/>
<path d="M118.589 450.573C118.31 448.911 118.732 447.496 120.49 447.816C126.436 448.945 132.454 449.733 138.048 452.8C139.555 453.626 140.549 455.495 140.104 457.15C139.562 459.232 137.507 458.629 136.139 458.076C131.229 456.085 125.84 456.278 121.217 452.945C120.263 452.232 119.205 451.755 118.589 450.573Z" fill="#FABF4B"/>
<path d="M325.798 110.172C328.193 108.55 330.406 106.529 333.748 108.056C336.358 109.256 336.957 111.193 334.701 112.685C330.685 115.372 326.278 117.408 322.329 120.3C321.101 121.221 318.843 121.827 317.534 119.535C316.451 117.635 317.966 116.486 318.807 115.17C320.535 112.525 323.439 111.75 325.798 110.172Z" fill="#FABF4B"/>
<path d="M473.815 103.557C475.525 102.69 487.383 105.955 488.61 107.667C490.161 109.823 489.609 111.622 487.462 112.023C483.289 112.787 478.981 112.242 475.068 110.066C472.244 108.525 471.761 104.557 473.815 103.557Z" fill="#FABF4B"/>
<path d="M433.036 87.0641C432.613 85.4484 432.495 84.1978 433.346 83.3124C434.292 82.3344 435.532 81.6103 436.96 82.4322C441.248 84.8963 445.487 87.3744 449.703 89.9468C450.649 90.5428 451.69 91.4544 451.43 92.8768C451.143 94.3099 449.809 94.2632 448.765 94.4675C447.196 94.8047 445.388 94.7259 444.192 93.6625C441.58 91.3439 438.545 90.3548 435.636 88.9586C434.628 88.4678 433.749 87.5889 433.036 87.0641Z" fill="#FABF4B"/>
<path d="M602.741 64.9292C601.21 65.6301 599.836 66.6487 598.284 65.209C596.846 63.8761 596.793 62.1163 597.563 60.5962C599.176 57.3566 600.29 53.6094 603.725 51.9316C605.178 51.2304 606.714 51.017 608.108 52.4474C609.47 53.8652 609.584 55.5712 608.732 57.0925C607.081 60.0596 605.36 63.0439 602.741 64.9292Z" fill="#FABF4B"/>
<path d="M85.0676 429.032C84.8739 426.833 83.0978 424.947 84.7436 423.243C86.6836 421.249 87.8814 423.511 89.2127 424.678C92.0875 427.171 95.2361 429.24 97.8152 432.171C99.1377 433.709 99.5508 435.298 98.5085 436.702C97.6407 437.856 96.056 437.594 94.8232 436.657C91.4987 434.127 88.2177 431.499 85.0676 429.032Z" fill="#FABF4B"/>
<path d="M70.1204 390.114C71.4819 392.958 71.4341 396.405 74.0063 398.763C74.7356 399.422 74.8198 400.715 73.9931 401.279C73.3179 401.743 72.3139 401.992 71.4915 401.848C67.4252 401.175 62.4045 392.533 63.63 388.412C64.0798 386.931 64.9451 385.864 66.4878 385.995C68.7235 386.195 69.1467 388.471 70.1204 390.114Z" fill="#FABF4B"/>
<path d="M408.607 87.5908C403.304 89.8134 398.678 88.8519 394.092 88.0265C391.988 87.6688 390.006 86.4971 390.399 83.7214C390.701 81.4552 392.586 80.7326 394.432 81.2558C399.043 82.5611 404.258 82.224 408.607 87.5908Z" fill="#FABF4B"/>
<path d="M275.148 328.391C281.042 333.763 280.82 340.091 281.072 346.219C281.116 347.235 280.156 347.7 279.223 347.841C277.331 348.138 276.603 346.298 276.542 345.147C276.316 339.896 273.953 334.76 275.148 328.391Z" fill="#FABF4B"/>
</svg>
