<svg width="527" height="679" viewBox="0 0 527 679" fill="none" xmlns="http://www.w3.org/2000/svg">
<path d="M322.426 267.937C324.38 267.086 326.292 265.298 328.397 265.666C335.529 266.884 342.875 265.982 350.085 266.243C352.83 266.346 354.572 267.269 353.864 270.359C353.286 272.777 351.336 272.865 349.402 273.236C342.909 274.471 337.037 271.706 330.61 272.28C328.063 272.492 325.327 272.765 322.996 271.724C321.295 270.976 320.664 269.715 322.426 267.937Z" fill="#FABF4B"/>
<path d="M124.367 297.036C112.758 300.11 104.077 294.567 94.767 291.066C92.0546 290.039 92.0399 287.442 93.1606 285.317C94.2483 283.242 96.6453 283.564 98.1915 284.53C105.724 289.114 114.536 291.21 122.668 294.595C123.546 294.963 124.24 295.454 124.367 297.036Z" fill="#FABF4B"/>
<path d="M76.9434 260.786C78.4766 262.661 80.117 264.501 81.5023 266.501C82.5944 268.135 82.4736 269.794 80.5002 271.387C78.667 272.892 77.1535 273.049 75.4555 271.686C71.1707 268.309 68.1421 264.006 65.9515 259.073C65.337 257.629 65.1684 255.925 66.8809 254.644C68.6225 253.346 70.154 253.936 71.3252 255.082C73.2173 256.962 74.9616 258.966 76.7955 260.91C76.8435 260.88 76.8954 260.815 76.9434 260.786Z" fill="#FABF4B"/>
<path d="M377.775 270.656C378.747 269.938 380.137 269.684 381.58 269.663C387.042 269.619 392.158 270.764 397.316 271.884C400.053 272.486 401.05 274.069 400.111 276.893C398.972 280.231 396.941 279.819 394.465 279.073C390.334 277.792 386.199 276.451 381.597 276.583C379.539 276.651 378.033 275.692 377.12 274.031C376.587 273.03 376.429 271.904 377.775 270.656Z" fill="#FABF4B"/>
<path d="M59.2568 235.798C55.7015 232.096 54.2404 227.1 51.7792 222.663C51.4871 222.092 51.3391 221.4 51.3636 220.712C51.4486 218.901 51.3139 216.681 53.2742 215.736C55.468 214.704 56.81 216.526 57.6044 218.001C60.1719 222.606 62.3808 227.405 64.8813 232.053C66.0319 234.147 66.0874 235.776 63.5994 237.264C61.331 238.639 60.0144 237.882 59.2568 235.798Z" fill="#FABF4B"/>
<path d="M503.778 516.335C503.098 515.31 502.465 514.402 501.899 513.451C501.217 512.255 500.642 510.927 502.111 509.72C503.407 508.65 504.757 507.66 506.532 508.945C510.142 511.556 513.971 513.942 517.616 516.506C519.154 517.62 519.927 519.105 519.177 521.257C518.211 524.044 516.789 525.578 514.048 523.686C510.52 521.314 507.137 518.757 503.778 516.335Z" fill="#FABF4B"/>
<path d="M459.643 308.45C461.129 313.338 465.007 317.914 467.963 323.086C468.473 323.953 468.288 325.303 468.218 326.428C468.132 327.627 467.553 328.816 466.214 329.153C465.241 329.401 464.409 328.739 463.949 327.955C460.509 322.278 457.074 316.598 453.798 310.818C452.951 309.319 452.208 307.104 454.316 305.837C456.392 304.614 457.729 306.382 459.643 308.45Z" fill="#FABF4B"/>
<path d="M166.928 303.728C166.232 304.06 165.162 304.724 164.042 305.152C157.903 307.473 151.827 306.596 145.786 306.337C144.149 306.254 141.75 305.724 142.3 303.148C142.876 300.522 144.784 300.987 146.796 301.151C152.911 301.629 159.078 300.339 165.242 299.345C166.822 299.088 168.621 297.78 169.339 300.008C169.895 301.611 168.383 302.5 166.928 303.728Z" fill="#FABF4B"/>
<path d="M248.604 281.362C243.163 285.512 236.855 286.889 231.079 289.473C229.381 290.22 228.315 289.446 228.025 287.847C227.686 286.079 227.301 284.073 230.01 283.35C235.457 281.882 240.321 278.924 245.489 276.76C247.257 276.029 249.313 274.674 250.55 276.742C251.744 278.752 249.556 280.047 248.604 281.362Z" fill="#FABF4B"/>
<path d="M481.485 485.519C479.073 481.166 476.229 477.153 474.812 472.422C474.122 470.09 474.421 467.793 477.671 466.95C480.464 466.201 480.75 468.096 480.985 469.961C481.527 473.908 484.314 476.645 485.897 480.04C486.085 480.446 486.434 480.745 486.76 481.061C488.717 483.045 489.488 485.558 486.868 487.661C483.78 490.15 483.367 485.998 481.485 485.519Z" fill="#FABF4B"/>
<path d="M276.104 272.504C281.595 269.312 287.608 267.979 293.828 267.593C295.265 267.514 296.045 268.241 296.022 269.541C295.994 271.2 295.484 273.37 293.887 273.755C288.162 275.139 282.491 277.887 276.628 277.047C273.992 276.701 273.79 274.373 276.104 272.504Z" fill="#FABF4B"/>
<path d="M49.2335 171.941C50.7697 171.244 52.2485 171.286 52.3953 173.063C52.8492 179.086 53.6509 185.091 52.1377 191.273C51.7295 192.939 50.1798 194.378 48.4616 194.376C46.3061 194.39 46.3561 192.254 46.5353 190.793C47.1852 185.547 45.5973 180.401 47.6206 175.086C48.0627 173.982 48.2493 172.84 49.2335 171.941Z" fill="#FABF4B"/>
<path d="M432.424 283.53C434.616 285.421 437.146 287.033 436.537 290.646C436.054 293.47 434.337 294.546 432.307 292.757C428.665 289.579 425.55 285.857 421.726 282.796C420.516 281.851 419.344 279.831 421.22 277.979C422.776 276.446 424.281 277.61 425.773 278.082C428.78 279.066 430.285 281.664 432.424 283.53Z" fill="#FABF4B"/>
<path d="M477.136 424.465C478.419 425.891 478.342 438.162 477.004 439.786C475.321 441.837 473.437 441.768 472.491 439.801C470.666 435.976 470.074 431.683 471.163 427.351C471.919 424.231 475.634 422.744 477.136 424.465Z" fill="#FABF4B"/>
<path d="M482.546 380.892C484 380.068 485.179 379.632 486.258 380.224C487.45 380.885 488.474 381.894 488.049 383.482C486.779 388.251 485.483 392.976 484.09 397.704C483.759 398.769 483.147 400.007 481.703 400.123C480.241 400.216 479.94 398.918 479.47 397.964C478.736 396.539 478.342 394.775 479.06 393.348C480.625 390.232 480.793 387.051 481.388 383.887C481.601 382.789 482.223 381.715 482.546 380.892Z" fill="#FABF4B"/>
<path d="M61.416 134.056C63.4943 133.303 64.8587 131.104 66.936 132.252C69.3714 133.608 67.4927 135.347 66.7094 136.931C65.0435 140.346 63.8594 143.916 61.6929 147.158C60.5477 148.83 59.1166 149.638 57.4868 148.995C56.1437 148.456 55.9846 146.86 56.5719 145.429C58.1567 141.571 59.8472 137.73 61.416 134.056Z" fill="#FABF4B"/>
<path d="M95.2359 109.587C92.8366 111.633 89.4865 112.476 87.8723 115.565C87.4236 116.439 86.1933 116.853 85.4328 116.201C84.8078 115.669 84.3054 114.765 84.231 113.935C83.825 109.839 90.8862 102.768 95.1958 102.887C96.7465 102.94 98.0051 103.499 98.2792 105.021C98.6673 107.229 96.5739 108.224 95.2359 109.587Z" fill="#FABF4B"/>
<path d="M475.735 357.485C472.205 352.946 471.933 348.24 471.54 343.607C471.339 341.487 471.958 339.274 474.745 338.938C477.017 338.645 478.206 340.276 478.18 342.19C478.115 346.97 479.797 351.91 475.735 357.485Z" fill="#FABF4B"/>
<path d="M208.055 291.204C204.387 298.275 198.202 299.693 192.334 301.517C191.361 301.821 190.661 301.014 190.282 300.151C189.503 298.402 191.094 297.225 192.193 296.87C197.219 295.297 201.578 291.693 208.055 291.204Z" fill="#FABF4B"/>
</svg>
