<svg width="555" height="241" viewBox="0 0 555 241" fill="none" xmlns="http://www.w3.org/2000/svg">
<path d="M318.204 159.23C317.793 160.865 318.067 162.909 316.715 164.07C312.153 168.019 308.981 173.091 305.057 177.535C303.56 179.224 302.004 179.897 300.184 178.008C298.773 176.514 299.721 175.239 300.462 173.841C302.956 169.154 307.959 166.725 310.886 162.388C312.057 160.676 313.283 158.816 315.229 157.826C316.641 157.097 317.86 157.286 318.204 159.23Z" fill="#FFD0B9"/>
<path d="M400.389 20.2909C404.236 11.5066 412.662 8.59331 419.969 4.33058C422.104 3.09206 423.949 4.29361 424.872 5.99427C425.776 7.65056 424.305 9.01847 422.819 9.54715C415.667 12.1795 409.612 16.7823 402.998 20.3537C402.283 20.7382 401.575 20.9489 400.389 20.2909Z" fill="#FFD0B9"/>
<path d="M450.659 7.16611C448.535 7.26223 446.382 7.44339 444.248 7.38794C442.525 7.31769 441.413 6.46734 441.31 4.47457C441.195 2.6112 441.869 1.57969 443.714 1.13973C448.328 0.00100714 452.945 0.0897389 457.573 1.00294C458.914 1.28762 460.208 1.97529 460.226 3.6575C460.241 5.36559 459.029 6.06066 457.61 6.2677C455.298 6.58935 452.974 6.75942 450.647 7.01452C450.644 7.05889 450.662 7.12174 450.659 7.16611Z" fill="#FFD0B9"/>
<path d="M287.561 193.005C287.564 193.955 287.023 194.954 286.29 195.878C283.488 199.357 280.024 202.063 276.555 204.806C274.71 206.259 273.072 206.152 271.56 204.241C269.789 201.963 271.134 200.869 272.946 199.649C275.996 197.63 279.09 195.638 281.384 192.661C282.403 191.327 283.863 190.82 285.512 191.016C286.497 191.146 287.376 191.571 287.561 193.005Z" fill="#FFD0B9"/>
<path d="M477.528 7.613C481.993 7.08802 486.287 8.49291 490.704 9.00311C491.26 9.08444 491.827 9.31366 492.301 9.6501C493.539 10.5485 495.181 11.4986 494.832 13.1808C494.425 15.0515 492.439 15.0515 490.982 14.8667C486.391 14.3454 481.848 13.5062 477.261 12.922C475.182 12.6743 474 11.9497 474.237 9.67968C474.441 7.60191 475.66 7.12129 477.528 7.613Z" fill="#FFD0B9"/>
<path d="M48.2469 158.251C49.3252 158.299 50.2961 158.321 51.2632 158.406C52.4638 158.532 53.7014 158.787 53.7941 160.281C53.8793 161.6 53.8793 162.917 52.0488 163.442C48.3285 164.51 44.6526 165.822 40.9471 166.935C39.3611 167.39 37.9086 167.187 36.7747 165.708C35.3036 163.797 34.9553 162.181 37.7159 161.327C41.225 160.199 44.7897 159.249 48.2469 158.251Z" fill="#FFD0B9"/>
<path d="M218.323 227.219C214.091 225.88 208.841 226.202 203.645 225.662C202.767 225.581 201.908 224.834 201.148 224.265C200.344 223.651 199.803 222.73 200.259 221.725C200.588 220.993 201.489 220.775 202.282 220.849C208.085 221.318 213.887 221.791 219.679 222.412C221.18 222.575 223.133 223.137 222.936 225.063C222.725 226.949 220.78 226.971 218.323 227.219Z" fill="#FFD0B9"/>
<path d="M373.565 44.1154C373.691 43.5202 373.776 42.533 374.054 41.6235C375.595 36.6546 379.368 33.2163 382.684 29.5118C383.592 28.5136 385.211 27.2418 386.749 28.7908C388.309 30.3806 386.99 31.3714 385.83 32.5693C382.321 36.2184 380.035 40.7251 377.541 45.0914C376.903 46.2117 376.896 47.9604 374.947 47.3763C373.524 46.9807 373.68 45.609 373.565 44.1154Z" fill="#FFD0B9"/>
<path d="M347.015 106.246C346.9 100.866 349.198 96.2302 350.365 91.3685C350.717 89.9451 351.817 89.6308 353.1 90.1928C354.526 90.8028 356.146 91.4942 355.252 93.5461C353.466 97.6795 353.037 102.138 351.888 106.42C351.488 107.88 351.38 109.813 349.276 109.632C347.234 109.451 347.452 107.462 347.015 106.246Z" fill="#FFD0B9"/>
<path d="M81.6336 158.504C85.9653 159.007 90.2822 159.077 94.3657 160.386C96.3741 161.036 97.8452 162.297 96.7558 164.748C95.8368 166.867 94.3472 166.164 92.9057 165.443C89.8302 163.946 86.447 164.434 83.2232 163.854C82.8379 163.783 82.4451 163.865 82.0523 163.924C79.6326 164.238 77.4538 163.554 77.3241 160.914C77.1647 157.798 80.3181 159.473 81.6336 158.504Z" fill="#FFD0B9"/>
<path d="M339.011 127.781C338.422 132.746 336.247 137.175 333.294 141.294C332.605 142.24 331.686 142.396 330.778 141.775C329.618 140.983 328.347 139.649 328.903 138.458C330.893 134.188 331.889 129.315 335.525 125.995C337.137 124.487 338.889 125.444 339.011 127.781Z" fill="#FFD0B9"/>
<path d="M527.934 31.0375C527.63 32.3352 526.833 33.2521 525.499 32.5164C521.001 29.9949 516.336 27.7027 512.745 23.8613C511.778 22.8261 511.563 21.1734 512.456 20.0864C513.564 18.7148 515.05 19.7426 515.991 20.5375C519.367 23.3954 523.832 24.7893 526.544 28.5493C527.096 29.3442 527.808 29.9949 527.934 31.0375Z" fill="#FFD0B9"/>
<path d="M250.09 221.603C247.615 222.11 245.161 222.96 242.92 220.889C241.171 219.266 241.3 217.677 243.62 217.226C247.759 216.401 252.009 216.165 256.159 215.17C257.456 214.845 259.494 215.044 259.832 217.096C260.11 218.797 258.505 219.207 257.397 219.932C255.14 221.377 252.521 221.119 250.09 221.603Z" fill="#FFD0B9"/>
<path d="M127.111 184.214C125.437 184.362 116.792 178.591 116.336 176.987C115.758 174.964 116.784 173.803 118.667 174.121C122.32 174.75 125.666 176.377 128.168 179.087C129.983 181.02 129.109 184.066 127.111 184.214Z" fill="#FFD0B9"/>
<path d="M155.151 207.949C154.981 209.254 154.677 210.204 153.699 210.61C152.613 211.058 151.368 211.235 150.464 210.226C147.748 207.198 145.076 204.174 142.452 201.087C141.871 200.381 141.311 199.416 141.978 198.447C142.671 197.479 143.746 197.893 144.665 198.041C146.054 198.24 147.507 198.813 148.144 199.933C149.537 202.377 151.701 203.967 153.632 205.819C154.299 206.466 154.736 207.361 155.151 207.949Z" fill="#FFD0B9"/>
<path d="M9.50593 175.765C10.9807 175.688 12.4296 175.333 13.2374 176.83C13.9859 178.216 13.4671 179.521 12.3518 180.416C9.99876 182.331 7.89033 184.76 4.54796 185.012C3.13616 185.112 1.81329 184.831 1.13148 183.385C0.471896 181.958 0.923968 180.675 2.10603 179.802C4.40344 178.098 6.76385 176.401 9.50593 175.765Z" fill="#FFD0B9"/>
<path d="M548.432 56.4093C547.888 58.0767 548.736 59.9659 546.846 60.746C544.623 61.6555 544.367 59.6553 543.652 58.4205C542.1 55.7734 540.188 53.3592 539.017 50.4754C538.427 48.9707 538.598 47.6878 539.898 46.9558C540.977 46.3569 542.188 47.0002 542.896 48.039C544.805 50.8414 546.646 53.703 548.432 56.4093Z" fill="#FFD0B9"/>
<path d="M548.21 89.2236C548.006 86.7503 549.147 84.2362 547.798 81.774C547.413 81.0826 547.757 80.1103 548.613 79.9328C549.314 79.7849 550.214 79.8884 550.84 80.2286C553.949 81.8812 555.291 89.6488 552.971 92.3218C552.13 93.2793 551.081 93.8154 549.862 93.2793C548.098 92.4955 548.48 90.7061 548.21 89.2236Z" fill="#FFD0B9"/>
<path d="M361.088 75.9891C357.987 70.3695 360.191 65.7925 361.944 61.2266C362.233 60.4687 363.167 60.4021 363.975 60.5648C365.616 60.8864 365.624 62.4429 365.305 63.3043C363.812 67.2196 364.101 71.6598 361.088 75.9891Z" fill="#FFD0B9"/>
<path d="M170.927 222.474C171.41 221.936 172.943 221.495 174.654 221.398C175.806 221.335 179.21 221.139 180.519 217.98C180.554 217.918 180.584 217.858 180.607 217.788C180.617 217.754 180.625 217.724 180.636 217.69C180.644 217.66 180.66 217.63 180.671 217.597C180.694 217.527 180.706 217.459 180.714 217.391C181.562 214.08 178.951 211.89 178.068 211.153C176.755 210.056 175.792 208.789 175.724 208.072C175.449 204.999 173.154 202.452 170.14 201.876C167.379 201.348 164.84 202.636 163.514 205.237C163.36 205.541 163.228 205.856 163.12 206.179C162.829 207.059 162.714 208 162.784 208.942C162.818 209.358 162.884 209.742 162.954 210.115C163.068 210.761 163.164 211.325 163.049 211.866C162.815 212.368 162.398 212.766 161.92 213.215C161.643 213.473 161.356 213.74 161.084 214.056C160.458 214.768 159.987 215.588 159.692 216.468C159.586 216.793 159.5 217.123 159.444 217.46C158.943 220.333 160.202 222.881 162.733 224.103C165.494 225.436 168.862 224.764 170.927 222.474Z" fill="#FFD0B9"/>
<path d="M180.901 208.485C183.643 208.976 186.261 207.686 186.992 205.488C187.051 205.311 187.097 205.126 187.131 204.946C187.579 202.458 185.511 200.001 182.521 199.469C179.782 198.98 177.161 200.268 176.429 202.466C176.37 202.643 176.324 202.828 176.29 203.008C175.846 205.498 177.913 207.955 180.901 208.485Z" fill="#FFD0B9"/>
<path d="M183.193 212.349C182.393 214.744 184.089 217.472 186.968 218.425C189.85 219.38 192.846 218.205 193.643 215.808C194.442 213.408 192.748 210.686 189.865 209.73C186.986 208.777 183.993 209.949 183.193 212.349Z" fill="#FFD0B9"/>
<path d="M175.587 233.688C176.93 233.297 177.932 232.435 178.413 231.264C179.378 228.919 177.859 226.085 175.06 224.944C173.739 224.404 172.313 224.308 171.052 224.68C169.709 225.071 168.704 225.931 168.225 227.104C168.191 227.184 168.157 227.269 168.133 227.353C167.363 229.655 168.879 232.322 171.578 233.425C172.902 233.961 174.322 234.058 175.587 233.688Z" fill="#FFD0B9"/>
<path d="M179.525 223.363C178.726 225.763 180.418 228.488 183.303 229.441C186.182 230.394 189.176 229.222 189.976 226.827C190.775 224.427 189.079 221.699 186.2 220.746C183.318 219.791 180.325 220.968 179.525 223.363Z" fill="#FFD0B9"/>
<path d="M286.347 202.468C286.078 201.798 286.362 200.231 287.035 198.659C287.49 197.601 288.824 194.472 286.567 191.898C286.528 191.84 286.486 191.786 286.434 191.735C286.408 191.71 286.385 191.69 286.359 191.665C286.335 191.644 286.316 191.617 286.291 191.593C286.238 191.541 286.182 191.499 286.125 191.463C283.527 189.233 280.402 190.593 279.348 191.055C277.78 191.74 276.214 192.038 275.54 191.78C272.657 190.661 269.352 191.58 267.497 194.018C265.797 196.251 265.828 199.092 267.575 201.433C267.779 201.706 268.004 201.964 268.246 202.204C268.907 202.855 269.701 203.376 270.579 203.732C270.967 203.886 271.342 203.998 271.707 204.102C272.338 204.286 272.888 204.452 273.323 204.795C273.67 205.227 273.842 205.777 274.034 206.404C274.142 206.765 274.255 207.141 274.417 207.524C274.779 208.4 275.307 209.185 275.966 209.84C276.211 210.079 276.469 210.303 276.748 210.503C279.105 212.227 281.953 212.234 284.174 210.516C286.597 208.64 287.488 205.331 286.347 202.468Z" fill="#FFD0B9"/>
<path d="M278.215 187.338C279.873 185.105 279.876 182.192 278.227 180.561C278.094 180.43 277.948 180.307 277.801 180.196C275.765 178.691 272.641 179.447 270.836 181.883C269.181 184.114 269.175 187.029 270.824 188.659C270.957 188.79 271.102 188.914 271.25 189.025C273.289 190.528 276.413 189.772 278.215 187.338Z" fill="#FFD0B9"/>
<path d="M282.702 187C284.498 188.78 287.701 188.476 289.835 186.327C291.973 184.175 292.247 180.975 290.447 179.198C288.647 177.417 285.449 177.722 283.312 179.873C281.177 182.023 280.902 185.22 282.702 187Z" fill="#FFD0B9"/>
<path d="M298.486 203.282C298.731 201.908 298.402 200.629 297.563 199.678C295.885 197.773 292.666 197.872 290.398 199.866C289.327 200.807 288.608 202.039 288.382 203.331C288.138 204.706 288.464 205.986 289.305 206.935C289.362 207.002 289.423 207.07 289.488 207.128C291.214 208.839 294.282 208.67 296.47 206.747C297.54 205.803 298.258 204.576 298.486 203.282Z" fill="#FFD0B9"/>
<path d="M290.964 195.171C292.765 196.952 295.965 196.651 298.1 194.496C300.234 192.346 300.51 189.15 298.714 187.37C296.913 185.59 293.711 185.893 291.577 188.043C289.439 190.194 289.168 193.392 290.964 195.171Z" fill="#FFD0B9"/>
<path d="M368.618 77.1192C368.15 76.5692 367.922 74.993 368.061 73.2895C368.157 72.1415 368.43 68.7503 365.473 67.0259C365.417 66.9829 365.361 66.9452 365.294 66.9129C365.262 66.8981 365.233 66.8857 365.201 66.8709C365.172 66.8586 365.145 66.8384 365.114 66.8235C365.047 66.7912 364.981 66.7694 364.915 66.7529C361.744 65.4629 359.211 67.7443 358.359 68.5172C357.089 69.6645 355.699 70.4436 354.977 70.4128C351.889 70.2662 349.045 72.1869 348.06 75.0868C347.157 77.7439 348.087 80.4289 350.487 82.0947C350.767 82.2887 351.063 82.4614 351.368 82.6129C352.202 83.02 353.12 83.2627 354.065 83.3216C354.483 83.3447 354.873 83.3319 355.252 83.3141C355.91 83.289 356.483 83.2714 357.004 83.4591C357.471 83.7581 357.808 84.2252 358.189 84.7592C358.407 85.0673 358.633 85.3883 358.908 85.7001C359.53 86.4161 360.279 86.9928 361.113 87.405C361.421 87.5539 361.736 87.6842 362.064 87.7855C364.847 88.6724 367.549 87.7752 369.111 85.4408C370.813 82.8935 370.608 79.473 368.618 77.1192Z" fill="#FFD0B9"/>
<path d="M356.095 65.3485C356.959 62.7055 356.037 59.9419 353.955 58.919C353.788 58.837 353.611 58.7658 353.436 58.7076C351.028 57.926 348.305 59.6344 347.366 62.5174C346.504 65.1577 347.424 67.924 349.505 68.9469C349.673 69.0289 349.85 69.1001 350.024 69.1583C352.435 69.9372 355.158 68.2288 356.095 65.3485Z" fill="#FFD0B9"/>
<path d="M360.243 63.6152C362.51 64.7326 365.451 63.4291 366.793 60.7134C368.137 57.9951 367.382 54.8741 365.111 53.7593C362.838 52.642 359.903 53.9454 358.559 56.6637C357.217 59.3794 357.97 62.4979 360.243 63.6152Z" fill="#FFD0B9"/>
<path d="M380.391 74.0518C380.187 72.6711 379.468 71.5628 378.372 70.9272C376.176 69.6536 373.154 70.7683 371.637 73.3788C370.92 74.611 370.628 76.0073 370.825 77.3045C371.029 78.6852 371.745 79.7962 372.844 80.4291C372.918 80.4742 372.998 80.5192 373.078 80.5537C375.258 81.629 378.114 80.4951 379.579 77.9775C380.293 76.7428 380.584 75.3517 380.391 74.0518Z" fill="#FFD0B9"/>
<path d="M370.676 68.7477C372.949 69.8651 375.887 68.5642 377.229 65.8432C378.57 63.1275 377.818 60.0089 375.55 58.8915C373.277 57.7741 370.336 59.0777 368.995 61.7934C367.65 64.5118 368.408 67.6303 370.676 68.7477Z" fill="#FFD0B9"/>
</svg>
