<svg width="594" height="301" viewBox="0 0 594 301" fill="none" xmlns="http://www.w3.org/2000/svg">
<path d="M227.878 93.7342C228.305 91.6495 227.94 89.0593 229.453 87.5541C234.554 82.4353 238.042 75.921 242.404 70.1877C244.068 68.0077 245.826 67.1176 247.949 69.4753C249.598 71.34 248.549 72.9815 247.739 74.7732C245.015 80.7838 239.372 83.9828 236.144 89.5573C234.853 91.7579 233.502 94.1476 231.308 95.4504C229.717 96.4076 228.321 96.196 227.878 93.7342Z" fill="#FABF4B"/>
<path d="M137.682 272.056C133.522 283.301 123.987 287.193 115.762 292.773C113.36 294.395 111.224 292.911 110.128 290.771C109.054 288.688 110.696 286.917 112.377 286.212C120.466 282.706 127.253 276.722 134.705 272.036C135.511 271.531 136.313 271.247 137.682 272.056Z" fill="#FABF4B"/>
<path d="M80.6798 289.872C83.0993 289.701 85.5503 289.422 87.9864 289.444C89.9536 289.494 91.2434 290.548 91.4129 293.077C91.5918 295.441 90.849 296.767 88.7554 297.368C83.5223 298.92 78.2535 298.912 72.9509 297.858C71.4135 297.527 69.9207 296.683 69.8564 294.547C69.7957 292.378 71.16 291.467 72.7735 291.172C75.4027 290.711 78.0485 290.442 80.6964 290.064C80.6995 290.008 80.6767 289.928 80.6798 289.872Z" fill="#FABF4B"/>
<path d="M261.97 50.1447C261.941 48.938 262.533 47.6579 263.346 46.4673C266.452 41.985 270.334 38.4688 274.22 34.9056C276.288 33.0181 278.158 33.1169 279.932 35.5099C282.011 38.3618 280.504 39.7823 278.469 41.3732C275.042 44.0065 271.564 46.608 269.025 50.4402C267.896 52.1585 266.244 52.8351 264.358 52.624C263.231 52.4821 262.218 51.9622 261.97 50.1447Z" fill="#FABF4B"/>
<path d="M50.0194 289.922C44.9396 290.691 40.0048 289.004 34.9534 288.457C34.3173 288.367 33.6647 288.088 33.1151 287.672C31.6803 286.559 29.7834 285.39 30.1376 283.245C30.5545 280.86 32.82 280.814 34.4859 281.016C39.7362 281.573 44.9397 282.535 50.1874 283.172C52.565 283.439 53.9319 284.333 53.7197 287.222C53.5405 289.865 52.1623 290.504 50.0194 289.922Z" fill="#FABF4B"/>
<path d="M535.844 88.7975C534.613 88.7611 533.505 88.7551 532.399 88.6692C531.027 88.537 529.608 88.2413 529.464 86.3464C529.333 84.672 529.299 83.0003 531.374 82.2917C535.59 80.8497 539.749 79.0988 543.947 77.6007C545.745 76.987 547.407 77.212 548.738 79.0644C550.465 81.4584 550.904 83.5024 547.777 84.6502C543.803 86.1625 539.762 87.4507 535.844 88.7975Z" fill="#FABF4B"/>
<path d="M340.071 5.11055C344.932 6.71429 350.913 6.18594 356.853 6.7532C357.857 6.83651 358.857 7.76565 359.738 8.47164C360.671 9.23296 361.312 10.3901 360.818 11.678C360.46 12.6155 359.439 12.9132 358.532 12.8373C351.901 12.3731 345.27 11.9043 338.648 11.2473C336.932 11.0749 334.69 10.4055 334.864 7.95398C335.057 5.5538 337.275 5.48126 340.071 5.11055Z" fill="#FABF4B"/>
<path d="M167.673 241.188C167.545 241.947 167.473 243.203 167.179 244.364C165.549 250.709 161.334 255.162 157.647 259.942C156.637 261.231 154.823 262.883 153.029 260.951C151.209 258.967 152.688 257.679 153.98 256.131C157.889 251.417 160.381 245.641 163.113 240.039C163.811 238.602 163.775 236.381 166.013 237.079C167.646 237.549 167.504 239.294 167.673 241.188Z" fill="#FABF4B"/>
<path d="M196.368 161.682C196.637 168.511 194.136 174.451 192.929 180.652C192.564 182.467 191.317 182.892 189.84 182.207C188.198 181.465 186.333 180.624 187.299 177.998C189.23 172.708 189.606 167.036 190.806 161.573C191.225 159.709 191.298 157.251 193.703 157.433C196.036 157.617 195.838 160.148 196.368 161.682Z" fill="#FABF4B"/>
<path d="M497.752 89.2431C492.799 88.7035 487.873 88.7129 483.181 87.1439C480.874 86.3633 479.163 84.7957 480.343 81.6575C481.337 78.9458 483.054 79.804 484.717 80.6867C488.263 82.5182 492.11 81.8211 495.802 82.4847C496.243 82.5651 496.689 82.4528 497.136 82.3687C499.888 81.9143 502.391 82.7332 502.606 86.083C502.868 90.0379 499.228 87.9828 497.752 89.2431Z" fill="#FABF4B"/>
<path d="M204.949 134.151C205.494 127.832 207.861 122.157 211.123 116.859C211.885 115.642 212.929 115.423 213.981 116.191C215.324 117.17 216.808 118.836 216.204 120.36C214.044 125.829 213.033 132.04 208.972 136.339C207.172 138.291 205.149 137.115 204.949 134.151Z" fill="#FABF4B"/>
<path d="M-8.0783 261.328C-7.76503 259.673 -6.87986 258.491 -5.33942 259.394C-0.143684 262.494 5.23636 265.298 9.43047 270.095C10.5602 271.387 10.8477 273.481 9.85701 274.882C8.62848 276.649 6.90726 275.378 5.81332 274.39C1.88959 270.838 -3.23917 269.169 -6.42949 264.456C-7.07965 263.459 -7.90784 262.649 -8.0783 261.328Z" fill="#FABF4B"/>
<path d="M303.977 12.9709C306.788 12.271 309.564 11.1349 312.175 13.7133C314.211 15.7348 314.104 17.7569 311.47 18.3828C306.77 19.5245 301.928 19.9221 297.219 21.2801C295.748 21.7229 293.418 21.5159 292.981 18.9175C292.62 16.7638 294.44 16.2059 295.685 15.2603C298.222 13.3727 301.217 13.6415 303.977 12.9709Z" fill="#FABF4B"/>
<path d="M445.217 57.6341C447.124 57.408 457.133 64.5399 457.694 66.5672C458.405 69.1224 457.264 70.6201 455.109 70.2594C450.925 69.5446 447.067 67.5551 444.144 64.1706C442.024 61.7564 442.943 57.8675 445.217 57.6341Z" fill="#FABF4B"/>
<path d="M412.625 28.1346C412.786 26.4733 413.108 25.2596 414.214 24.7208C415.441 24.1279 416.856 23.8741 417.913 25.1352C421.089 28.9186 424.214 32.6983 427.286 36.5589C427.967 37.4424 428.63 38.6551 427.894 39.9005C427.129 41.1465 425.892 40.6452 424.841 40.4784C423.25 40.2566 421.579 39.562 420.823 38.1539C419.171 35.0821 416.662 33.1126 414.413 30.8044C413.635 29.9979 413.114 28.8717 412.625 28.1346Z" fill="#FABF4B"/>
<path d="M579.588 65.6709C577.907 65.8032 576.264 66.287 575.304 64.4038C574.415 62.6601 574.973 60.9908 576.222 59.829C578.857 57.343 581.2 54.2099 585.006 53.8143C586.613 53.6552 588.129 53.9819 588.944 55.8022C589.733 57.5996 589.25 59.2392 587.925 60.3744C585.348 62.5915 582.699 64.8006 579.588 65.6709Z" fill="#FABF4B"/>
<path d="M389.517 20.2212C383.768 20.4867 379.756 17.9976 375.734 15.6495C373.881 14.5921 372.425 12.8128 373.753 10.3435C374.82 8.32099 376.841 8.28992 378.394 9.41438C382.273 12.2209 387.288 13.6941 389.517 20.2212Z" fill="#FABF4B"/>
<path d="M181.089 200.427C184.771 207.492 182.374 213.355 180.492 219.194C180.182 220.163 179.119 220.269 178.193 220.081C176.313 219.71 176.264 217.733 176.606 216.632C178.208 211.626 177.765 205.993 181.089 200.427Z" fill="#FABF4B"/>
</svg>
