<svg width="430" height="744" viewBox="0 0 430 744" fill="none" xmlns="http://www.w3.org/2000/svg">
<path d="M3.90775 129.067C10.713 91.1556 31.6387 54.2808 65.5544 35.8502C109.57 11.944 190.493 -6.11926 263.545 3.10683C321.87 10.4921 376.764 33.0268 430 58.6759L430 743.229C411.566 744.636 392.97 743.966 374.699 741.134C329.324 734.106 285.266 713.727 254.232 679.957C224.155 647.203 207.738 603.595 202.499 559.56C196.64 510.494 201.701 454.598 167.778 418.475C143.199 392.294 104.648 384.612 75.8041 363.17C38.6418 335.535 21.896 288.576 11.4904 243.587C2.80501 206.047 -2.88876 166.962 3.90775 129.067Z" fill="#FFA8A1" fill-opacity="0.33"/>
</svg>
