<svg width="841" height="831" viewBox="0 0 841 831" fill="none" xmlns="http://www.w3.org/2000/svg">
<path d="M173.508 219.03C179.964 183.067 199.814 148.087 231.987 130.603C273.74 107.926 350.505 90.7906 419.803 99.5426C475.131 106.548 527.204 127.925 577.704 152.256L577.704 801.631C560.218 802.965 542.577 802.33 525.245 799.644C482.202 792.977 440.408 773.645 410.969 741.61C382.437 710.539 366.864 669.172 361.894 627.401C356.336 580.855 361.137 527.833 328.957 493.565C305.642 468.73 269.072 461.442 241.71 441.102C206.457 414.888 190.572 370.341 180.701 327.665C172.462 292.054 167.061 254.977 173.508 219.03Z" fill="#FFA8A1" fill-opacity="0.33"/>
</svg>
