<svg width="314" height="421" viewBox="0 0 314 421" fill="none" xmlns="http://www.w3.org/2000/svg">
<ellipse cx="213.895" cy="409.949" rx="99.8945" ry="10.3744" fill="#7D7D7D"/>
<path d="M68.3937 101.931C68.3937 101.931 64.3615 95.0668 66.5035 89.1225C67.2872 86.9467 68.4601 84.6527 69.6329 82.6164C70.8829 80.4477 71.596 80.9451 72.5877 83.2498C73.3596 85.0428 75.0465 86.986 75.3965 88.2815C76.4815 92.2933 77.6372 94.9881 74.8367 98.6563C72.0368 102.328 68.3937 101.931 68.3937 101.931Z" fill="black"/>
<path d="M52.3896 158.891C52.3896 158.891 48.8817 177.872 31.0805 187.23C31.0805 187.23 27.8345 188.01 27.1028 189.746C26.3747 191.482 22.3108 203.875 20.1229 203.85C16.1846 203.807 17.6121 196.943 18.5447 193.332C19.2047 190.791 19.4127 184.045 20.2197 183.054C21.0232 182.063 25.6107 174.666 23.6989 170.25C21.7872 165.837 21.3209 155.169 32.2678 151.34C43.2111 147.511 52.3896 158.891 52.3896 158.891Z" fill="#F2CCAA"/>
<path d="M21.7691 196.621C21.7691 196.621 27.4506 198.321 27.5295 200.307C27.6084 202.293 26.6651 203.925 26.6651 203.925L19.5776 203.85L21.7691 196.621Z" fill="#F2CCAA"/>
<path d="M266.773 379.702C266.773 379.702 273.666 386.079 272.321 390.606C270.976 395.136 264.755 398.157 263.915 403.689C263.074 409.226 259.712 412.246 256.686 412.246C253.659 412.246 242.258 412.246 242.258 412.246C242.258 412.246 240.03 408.349 245.41 407.175C250.79 406.001 252.819 399.499 252.482 393.458C252.146 387.421 252.986 379.369 252.986 379.369L264.419 376.685L266.773 379.702Z" fill="#2C3A64"/>
<path d="M182.206 396.228C182.206 396.228 183.813 410.736 180.785 412.246H141.758C141.758 412.246 141.686 407.637 147.909 406.631C154.128 405.622 165.057 401.932 166.905 393.712C168.755 385.492 182.206 396.228 182.206 396.228Z" fill="#2C3A64"/>
<path d="M149.509 191.31C149.509 191.31 151.55 216.74 153.953 247.305C157.213 288.828 161.137 339.831 161.528 349.493C162.199 366.27 164.893 393.107 164.893 393.107C164.893 393.107 171.277 399.484 184.057 396.796C184.057 396.796 195.445 358.483 198.7 317.948C198.75 317.286 198.801 316.616 198.851 315.947C201.877 274.682 206.583 187.788 206.583 187.788L149.509 191.31Z" fill="#35488B"/>
<path d="M149.509 191.31C149.509 191.31 151.55 216.74 153.953 247.305L198.7 317.948C198.75 317.286 198.801 316.617 198.851 315.948C201.877 274.682 206.583 187.789 206.583 187.789L149.509 191.31Z" fill="#2C3A64"/>
<path d="M158.835 194.33C158.835 194.33 195.657 286.423 219.866 329.7C244.077 372.977 251.642 385.055 251.642 385.055C251.642 385.055 265.513 379.522 266.773 375.747C266.773 375.747 257.515 292.196 241.302 271.83C232.141 260.321 221.379 225.783 220.875 213.705C220.37 201.627 217.596 177.722 217.596 177.722L158.835 194.33Z" fill="#35488B"/>
<path d="M50.7361 154.292C48.4119 150.123 48.5948 149.346 48.5948 149.346C48.5948 149.346 83.817 119.794 86.9985 116.877C90.1836 113.96 122.156 62.0161 122.156 62.0161L166.507 64.9005C166.507 64.9005 111.772 127.634 103.566 134.867C90.0007 146.816 55.4097 159.123 55.4097 159.123C55.4097 159.123 52.5618 157.566 50.7361 154.292Z" fill="#2F567A"/>
<path d="M142.615 49.3487C142.615 49.3487 127.594 75.7234 112.909 79.166C112.909 79.166 113.358 72.6851 115.721 67.02C116.478 65.2092 116.138 63.1265 114.897 61.602C114.305 60.8755 113.749 60.1812 113.232 59.5228C109.538 54.7989 107.78 51.9038 107.78 51.9038L112.762 38.5376L116.145 29.4692C117.77 32.4109 119.559 34.9195 121.428 37.0667C131.051 48.1033 142.615 49.3487 142.615 49.3487Z" fill="#FFB27D"/>
<path d="M121.428 37.0664C121.428 37.0664 123.221 50.2788 113.232 59.5225C109.537 54.7986 107.78 51.9035 107.78 51.9035L112.762 38.5372C118.106 36.9125 121.428 37.0664 121.428 37.0664Z" fill="#ED975D"/>
<path d="M103.821 53.8533C103.821 53.8533 126.267 45.1215 120.603 31.2614C114.936 17.3978 114.018 6.93389 99.4485 11.9225C84.879 16.9111 84.2728 23.324 85.0368 28.4128C85.7972 33.4981 97.8344 55.7679 103.821 53.8533Z" fill="#FFB27D"/>
<path d="M219.773 184.683C210.716 197.673 143.017 215.026 143.82 206.036C144.129 202.597 144.541 196.528 143.813 188.304C143.641 186.375 143.404 184.336 143.092 182.178C141.371 170.364 137.285 155.173 128.175 137.591C127.493 136.274 126.78 134.946 126.044 133.601C122.292 126.794 119.097 119.598 116.654 112.558C111.966 99.0346 110.076 86.0978 112.443 77.6378C112.45 77.5949 114.653 68.7019 114.667 68.6626C128.817 62.1315 132.113 45.6697 132.113 45.6697C132.113 45.6697 180.395 54.3157 207.438 118.524C207.438 118.524 227.651 173.378 219.773 184.683Z" fill="#F99746"/>
<path d="M143.813 188.304C143.641 186.375 143.405 184.335 143.093 182.177C141.371 170.364 137.286 155.172 128.175 137.59C129.739 128.128 131.898 120.259 134.269 116.72C143.9 102.319 149.506 100.068 149.506 100.068C149.506 100.068 163.946 160.827 143.813 188.304Z" fill="#2F567A"/>
<path d="M123.824 5.50961C123.982 5.19826 124.438 4.86544 125.553 4.52547C125.553 4.52547 124.509 4.17835 123.293 4.44317C122.662 2.90792 121.131 0.295479 118.258 0.277588C118.258 0.277588 119.904 0.703465 120.514 2.34965C116.575 -0.141102 109.276 -0.863979 91.059 5.19112C67.049 13.1716 79.0432 27.0782 82.6838 28.1948C86.3208 29.3078 93.0209 22.154 99.0467 21.177C105.073 20.2 108.333 28.5741 110.628 29.2684C112.928 29.9626 111.622 28.0588 114.025 26.1478C116.432 24.2404 117.813 28.7316 117.763 31.8844C117.709 35.0372 122.4 38.0254 122.4 38.0254C122.4 38.0254 122.4 38.0254 125.151 32.9902C127.902 27.955 127.153 9.67877 124.524 6.38998C124.294 6.10011 124.061 5.80305 123.824 5.50961Z" fill="#FF8B82"/>
<path d="M104.581 44.2122C104.581 44.2122 104.513 46.4596 103.717 47.1896C102.924 47.9161 99.9398 49.1723 99.2081 48.9754C98.4799 48.7786 96.9556 47.5869 96.9556 47.5869C96.9556 47.5869 101.396 44.6094 104.581 44.2122Z" fill="white"/>
<path d="M86.2054 121.182C86.2054 121.182 105.614 126.829 117.568 122.495C117.568 122.495 121.991 115.667 124.419 117.288C126.847 118.913 125.893 124.539 121.299 127.516C116.704 130.494 91.6286 137.569 89.9894 136.91C88.3539 136.248 86.2054 121.182 86.2054 121.182Z" fill="#F2CCAA"/>
<path d="M91.3926 103.017C91.3926 103.017 87.4866 109.738 88.7742 116.287C89.8502 121.737 95.2591 130.763 92.404 138.017C89.5525 145.271 66.4429 151.036 60.5641 157.484C54.6818 163.93 30.1841 175.227 25.9122 167.272C20.9768 158.071 19.2372 144.923 38.9358 135.612C55.1086 127.968 76.9809 97.7817 76.9809 97.7817L91.3926 103.017Z" fill="#F9DDBF"/>
<path d="M68.0856 89.6723C68.0856 89.6723 74.5741 85.4423 79.7355 86.8344C84.8969 88.2229 91.5253 80.2317 94.7319 83.0124C97.9349 85.793 101.45 93.4657 93.9428 100.931C86.4392 108.396 80.1767 112.615 74.7642 110.221C69.3517 107.823 62.0096 92.3241 68.0856 89.6723Z" fill="#F9DDBF"/>
<path d="M76.3134 128.457C76.3134 128.457 102.192 144.322 104.796 144.683C107.4 145.041 110.811 141.323 113.064 144.368C115.313 147.417 108.15 151.923 105.449 153C102.748 154.077 73.9749 146.408 73.9749 146.408L76.3134 128.457Z" fill="#F9DDBF"/>
<path d="M53.2225 154.574C53.2225 154.574 54.7289 173.817 39.937 187.426C39.937 187.426 37.003 189.019 36.7412 190.88C36.4829 192.744 36.8201 203.588 32.6092 203.899C28.6781 204.189 29.4241 200.27 29.399 196.545C29.3775 193.918 27.8424 187.348 28.3624 186.181C28.8861 185.018 31.4112 176.69 28.427 172.915C25.4428 169.139 22.2398 158.951 31.8309 152.441C41.4184 145.932 53.2225 154.574 53.2225 154.574Z" fill="#F9DDBF"/>
<path d="M88.5159 113.636C88.5159 113.636 77.9385 117.497 64.9615 111.868C64.9615 111.868 61.4357 114.917 61.7406 116.359C61.7406 116.359 76.7297 123.219 89.3229 118.374C89.3229 118.374 91.7978 115.747 88.5159 113.636Z" fill="#35488B"/>
<path d="M64.1586 156.468C63.9003 153.873 66.6263 151.114 66.6263 151.114C66.6263 151.114 105.701 140.389 108.932 137.132C112.168 133.876 127.15 82.0317 127.15 82.0317C127.15 82.0317 132.304 61.0465 144.381 58.7347C154.872 56.7235 162.125 61.9018 166.87 67.9748C172.523 75.2108 173.079 85.1881 168.383 93.079C157.849 110.79 136.601 145.946 130.396 151.951C116.583 165.318 66.6801 162.562 66.6801 162.562C66.6801 162.562 64.675 161.674 64.1586 156.468Z" fill="#F99746"/>
<path d="M34.3195 196.645C34.3195 196.645 40.0189 198.288 40.1193 200.271C40.2198 202.257 39.2944 203.899 39.2944 203.899H32.2033L34.3195 196.645Z" fill="#F9DDBF"/>
<path d="M78.8852 90.1517C79.1544 89.9188 79.5341 89.882 79.9206 89.9433C79.9896 89.931 80.0725 89.931 80.1622 89.9617C80.3762 90.023 80.6039 90.1149 80.7972 90.2314C80.8317 90.2498 80.8662 90.2682 80.9008 90.2804C80.9767 90.3234 81.0319 90.3724 81.0664 90.4276C81.2735 90.6299 81.3839 90.8812 81.308 91.2123C81.1216 91.954 80.1553 91.8805 79.5548 91.6291C78.968 91.3839 78.264 90.6912 78.8852 90.1517ZM80.2519 90.9364C80.1415 90.8874 80.031 90.8444 79.9137 90.8199C79.9275 90.8322 79.9413 90.8383 79.9482 90.8383C80.0379 90.8873 80.1415 90.918 80.2519 90.9364Z" fill="black"/>
<path d="M102.354 31.2479C102.705 31.1837 103.05 31.3445 103.352 31.5932C103.418 31.6177 103.489 31.6597 103.551 31.7316C103.704 31.8928 103.853 32.0875 103.96 32.2858C103.981 32.3192 104.001 32.3525 104.024 32.3806C104.068 32.456 104.091 32.5263 104.092 32.5913C104.168 32.8705 104.135 33.143 103.901 33.3897C103.362 33.9341 102.567 33.3808 102.178 32.8599C101.798 32.3512 101.544 31.3976 102.354 31.2479ZM103.131 32.6166C103.061 32.5184 102.988 32.4255 102.9 32.3448C102.905 32.3624 102.914 32.3747 102.92 32.3782C102.972 32.4659 103.046 32.5448 103.131 32.6166Z" fill="black"/>
<path d="M90.9781 36.1423C91.3287 36.0781 91.6744 36.2389 91.9761 36.4877C92.0418 36.5121 92.1131 36.5541 92.1748 36.626C92.3278 36.7873 92.4772 36.982 92.5843 37.1804C92.6047 37.2137 92.625 37.247 92.6485 37.2751C92.692 37.3506 92.7146 37.4208 92.7162 37.4858C92.7915 37.7651 92.7586 38.0376 92.5246 38.2843C91.9862 38.8288 91.1914 38.2755 90.8022 37.7545C90.4218 37.2458 90.1683 36.2921 90.9781 36.1423ZM91.7555 37.5112C91.6854 37.413 91.6121 37.32 91.5236 37.2394C91.5292 37.2569 91.538 37.2692 91.5439 37.2727C91.5962 37.3605 91.6698 37.4394 91.7555 37.5112Z" fill="black"/>
<path d="M52.3896 158.891C52.3896 158.891 48.8818 177.872 31.0806 187.23C31.0806 187.23 27.8345 188.01 27.1028 189.746C26.3747 191.482 22.3109 203.875 20.1229 203.85C16.1846 203.807 17.6122 196.943 18.5448 193.332C19.2047 190.791 19.4128 184.045 20.2198 183.054C21.0232 182.063 25.6107 174.666 23.699 170.25C21.7872 165.837 21.3209 155.169 32.2678 151.34C43.2111 147.511 52.3896 158.891 52.3896 158.891Z" fill="black"/>
<path d="M21.7691 196.621C21.7691 196.621 27.4506 198.321 27.5295 200.307C27.6084 202.293 26.6651 203.925 26.6651 203.925L19.5776 203.85L21.7691 196.621Z" fill="black"/>
<path d="M266.773 379.702C266.773 379.702 273.666 386.079 272.321 390.606C270.976 395.136 264.755 398.157 263.915 403.689C263.074 409.226 259.712 412.246 256.686 412.246C253.659 412.246 242.258 412.246 242.258 412.246C242.258 412.246 240.03 408.349 245.41 407.175C250.79 406.001 252.819 399.499 252.482 393.458C252.146 387.421 252.986 379.369 252.986 379.369L264.419 376.685L266.773 379.702Z" fill="#2C3A64"/>
<path d="M182.206 396.228C182.206 396.228 183.813 410.736 180.785 412.246H141.757C141.757 412.246 141.686 407.637 147.909 406.631C154.128 405.622 165.057 401.932 166.904 393.712C168.755 385.492 182.206 396.228 182.206 396.228Z" fill="#2C3A64"/>
<path d="M149.509 191.31C149.509 191.31 151.55 216.74 153.953 247.305C157.213 288.828 161.137 339.831 161.528 349.493C162.199 366.27 164.893 393.107 164.893 393.107C164.893 393.107 171.277 399.484 184.057 396.796C184.057 396.796 195.445 358.483 198.7 317.948C198.75 317.286 198.801 316.616 198.851 315.947C201.877 274.682 206.583 187.788 206.583 187.788L149.509 191.31Z" fill="#35488B"/>
<path d="M149.509 191.31C149.509 191.31 151.55 216.74 153.953 247.305L198.7 317.948C198.75 317.286 198.801 316.617 198.851 315.948C201.877 274.682 206.583 187.789 206.583 187.789L149.509 191.31Z" fill="#2C3A64"/>
<path d="M158.835 194.33C158.835 194.33 195.657 286.423 219.866 329.7C244.077 372.977 251.642 385.055 251.642 385.055C251.642 385.055 265.513 379.522 266.773 375.747C266.773 375.747 257.515 292.196 241.302 271.83C232.141 260.321 221.379 225.783 220.875 213.705C220.37 201.627 217.596 177.722 217.596 177.722L158.835 194.33Z" fill="#35488B"/>
<path d="M50.7361 154.292C48.4119 150.123 48.5948 149.346 48.5948 149.346C48.5948 149.346 83.817 119.794 86.9985 116.877C90.1836 113.96 122.156 62.0161 122.156 62.0161L166.507 64.9005C166.507 64.9005 111.772 127.634 103.566 134.867C90.0007 146.816 55.4097 159.123 55.4097 159.123C55.4097 159.123 52.5618 157.566 50.7361 154.292Z" fill="#FF8B82"/>
<path d="M142.615 49.3487C142.615 49.3487 127.594 75.7234 112.909 79.166C112.909 79.166 113.358 72.6851 115.721 67.02C116.478 65.2092 116.138 63.1265 114.897 61.602C114.305 60.8755 113.749 60.1812 113.232 59.5228C109.538 54.7989 107.78 51.9038 107.78 51.9038L112.762 38.5376L116.145 29.4692C117.77 32.4109 119.559 34.9195 121.428 37.0667C131.051 48.1033 142.615 49.3487 142.615 49.3487Z" fill="#FFB27D"/>
<path d="M121.428 37.0664C121.428 37.0664 123.221 50.2788 113.232 59.5225C109.537 54.7986 107.78 51.9035 107.78 51.9035L112.762 38.5372C118.106 36.9125 121.428 37.0664 121.428 37.0664Z" fill="#ED975D"/>
<path d="M103.821 53.8533C103.821 53.8533 126.267 45.1215 120.603 31.2614C114.936 17.3978 114.018 6.93389 99.4485 11.9225C84.879 16.9111 84.2728 23.324 85.0368 28.4128C85.7972 33.4981 97.8344 55.7679 103.821 53.8533Z" fill="#FFB27D"/>
<path d="M219.773 184.683C210.716 197.673 143.017 215.026 143.82 206.036C144.129 202.597 144.541 196.528 143.813 188.304C143.641 186.375 143.404 184.336 143.092 182.178C141.371 170.364 137.285 155.173 128.175 137.591C127.493 136.274 126.78 134.946 126.044 133.601C122.292 126.794 119.097 119.598 116.654 112.558C111.966 99.0346 110.076 86.0978 112.443 77.6378C112.45 77.5949 114.653 68.7019 114.667 68.6626C128.817 62.1315 132.113 45.6697 132.113 45.6697C132.113 45.6697 180.395 54.3157 207.438 118.524C207.438 118.524 227.651 173.378 219.773 184.683Z" fill="#FFA8A1"/>
<path d="M143.813 188.304C143.641 186.375 143.405 184.335 143.093 182.177C141.371 170.364 137.286 155.172 128.175 137.59C129.739 128.128 131.898 120.259 134.269 116.72C143.9 102.319 149.506 100.068 149.506 100.068C149.506 100.068 163.946 160.827 143.813 188.304Z" fill="#FF8B82"/>
<path d="M123.824 5.50961C123.982 5.19826 124.438 4.86544 125.553 4.52547C125.553 4.52547 124.509 4.17835 123.293 4.44317C122.662 2.90792 121.131 0.295479 118.258 0.277588C118.258 0.277588 119.904 0.703465 120.514 2.34965C116.575 -0.141102 109.276 -0.863979 91.0589 5.19112C67.0489 13.1716 79.0432 27.0782 82.6838 28.1948C86.3208 29.3078 93.0209 22.154 99.0467 21.177C105.072 20.2 108.333 28.5741 110.628 29.2684C112.928 29.9626 111.622 28.0588 114.025 26.1478C116.432 24.2404 117.813 28.7316 117.763 31.8844C117.709 35.0372 122.4 38.0254 122.4 38.0254C122.4 38.0254 122.4 38.0254 125.151 32.9902C127.902 27.955 127.153 9.67877 124.524 6.38998C124.294 6.10011 124.061 5.80305 123.824 5.50961Z" fill="black"/>
<path d="M104.581 44.2122C104.581 44.2122 104.513 46.4596 103.717 47.1896C102.924 47.9161 99.9397 49.1723 99.208 48.9754C98.4799 48.7786 96.9555 47.5869 96.9555 47.5869C96.9555 47.5869 101.396 44.6094 104.581 44.2122Z" fill="white"/>
<path d="M86.2054 121.182C86.2054 121.182 105.614 126.829 117.568 122.495C117.568 122.495 121.991 115.667 124.419 117.288C126.847 118.913 125.893 124.539 121.299 127.516C116.704 130.494 91.6287 137.569 89.9895 136.91C88.3539 136.248 86.2054 121.182 86.2054 121.182Z" fill="black"/>
<path d="M91.3926 103.017C91.3926 103.017 87.4866 109.738 88.7742 116.287C89.8502 121.737 95.2591 130.763 92.404 138.017C89.5525 145.271 66.4429 151.036 60.5641 157.484C54.6818 163.93 30.1841 175.227 25.9122 167.272C20.9768 158.071 19.2372 144.923 38.9358 135.612C55.1086 127.968 76.9809 97.7817 76.9809 97.7817L91.3926 103.017Z" fill="#3D3D3E"/>
<path d="M27.5049 142.847C27.5049 142.847 22.2506 142.94 18.3306 141.659C13.5326 140.092 11.5591 133.314 22.021 128.103C22.021 128.103 17.5831 125.555 12.3956 129.688C12.3956 129.688 11.9978 128.375 12.4508 127.037C12.4508 127.037 5.17643 130.877 6.30125 137.59C6.30125 137.59 3.18507 135.192 2.85114 133.278C2.85114 133.278 -2.49604 140.478 3.85113 146.504C3.85113 146.504 1.8124 146.694 0 145.102C0 145.102 7.5638 157.995 25.6315 149.536L27.5049 142.847Z" fill="#3D3D3E"/>
<path d="M68.0856 89.6723C68.0856 89.6723 74.5741 85.4423 79.7355 86.8344C84.8969 88.2229 91.5253 80.2317 94.7319 83.0124C97.9349 85.793 101.45 93.4657 93.9428 100.931C86.4392 108.396 80.1767 112.615 74.7642 110.221C69.3517 107.823 62.0096 92.3241 68.0856 89.6723Z" fill="#3D3D3E"/>
<path d="M76.3134 128.457C76.3134 128.457 102.192 144.322 104.796 144.683C107.4 145.041 110.811 141.323 113.064 144.368C115.313 147.417 108.15 151.923 105.449 153C102.748 154.077 73.9749 146.408 73.9749 146.408L76.3134 128.457Z" fill="#3D3D3E"/>
<path d="M53.2225 154.574C53.2225 154.574 54.7289 173.817 39.937 187.426C39.937 187.426 37.003 189.019 36.7412 190.88C36.4829 192.744 36.8201 203.588 32.6092 203.899C28.6781 204.189 29.4241 200.27 29.399 196.545C29.3775 193.918 27.8424 187.348 28.3624 186.181C28.8861 185.018 31.4112 176.69 28.427 172.915C25.4428 169.139 22.2398 158.951 31.8309 152.441C41.4184 145.932 53.2225 154.574 53.2225 154.574Z" fill="#3D3D3E"/>
<path d="M88.5159 113.636C88.5159 113.636 77.9384 117.497 64.9614 111.868C64.9614 111.868 61.4356 114.917 61.7405 116.359C61.7405 116.359 76.7297 123.219 89.3229 118.374C89.3229 118.374 91.7978 115.747 88.5159 113.636Z" fill="#DFD46C"/>
<path d="M64.1586 156.468C63.9003 153.873 66.6263 151.114 66.6263 151.114C66.6263 151.114 105.701 140.389 108.932 137.132C112.168 133.876 127.15 82.0317 127.15 82.0317C127.15 82.0317 132.304 61.0465 144.381 58.7347C154.872 56.7235 162.125 61.9018 166.87 67.9748C172.523 75.2108 173.079 85.1881 168.383 93.079C157.849 110.79 136.601 145.946 130.396 151.951C116.583 165.318 66.6801 162.562 66.6801 162.562C66.6801 162.562 64.6751 161.674 64.1586 156.468Z" fill="#FFA8A1"/>
<path d="M34.3195 196.645C34.3195 196.645 40.0189 198.288 40.1193 200.271C40.2198 202.257 39.2944 203.899 39.2944 203.899H32.2033L34.3195 196.645Z" fill="#3D3D3E"/>
<path d="M78.8852 90.1517C79.1544 89.9188 79.534 89.882 79.9206 89.9433C79.9896 89.931 80.0724 89.931 80.1622 89.9617C80.3761 90.023 80.6039 90.1149 80.7972 90.2314C80.8317 90.2498 80.8662 90.2682 80.9007 90.2804C80.9767 90.3234 81.0319 90.3724 81.0664 90.4276C81.2735 90.6299 81.3839 90.8812 81.308 91.2123C81.1216 91.954 80.1553 91.8805 79.5547 91.6291C78.968 91.3839 78.2639 90.6912 78.8852 90.1517ZM80.2519 90.9364C80.1415 90.8874 80.031 90.8444 79.9137 90.8199C79.9275 90.8322 79.9413 90.8383 79.9482 90.8383C80.0379 90.8873 80.1415 90.918 80.2519 90.9364Z" fill="white"/>
<path d="M102.354 31.2479C102.705 31.1837 103.05 31.3445 103.352 31.5932C103.418 31.6177 103.489 31.6597 103.551 31.7316C103.704 31.8928 103.853 32.0875 103.96 32.2858C103.981 32.3192 104.001 32.3525 104.024 32.3806C104.068 32.456 104.091 32.5263 104.092 32.5913C104.168 32.8705 104.135 33.143 103.901 33.3897C103.362 33.9341 102.567 33.3808 102.178 32.8599C101.798 32.3512 101.544 31.3976 102.354 31.2479ZM103.131 32.6166C103.061 32.5184 102.988 32.4255 102.9 32.3448C102.905 32.3624 102.914 32.3747 102.92 32.3782C102.972 32.4659 103.046 32.5448 103.131 32.6166Z" fill="black"/>
<path d="M90.9781 36.1423C91.3287 36.0781 91.6744 36.2389 91.9761 36.4877C92.0418 36.5121 92.1131 36.5541 92.1748 36.626C92.3278 36.7873 92.4772 36.982 92.5843 37.1804C92.6047 37.2137 92.625 37.247 92.6485 37.2751C92.692 37.3506 92.7146 37.4208 92.7162 37.4858C92.7915 37.7651 92.7586 38.0376 92.5246 38.2843C91.9862 38.8288 91.1914 38.2755 90.8022 37.7545C90.4218 37.2458 90.1683 36.2921 90.9781 36.1423ZM91.7555 37.5112C91.6854 37.413 91.6121 37.32 91.5236 37.2394C91.5292 37.2569 91.538 37.2692 91.5439 37.2727C91.5962 37.3605 91.6698 37.4394 91.7555 37.5112Z" fill="black"/>
<path d="M68.4653 99.1162C68.4653 99.1162 63.2393 98.9874 61.7422 93.1577C61.1673 90.921 62.1812 88.3014 62.6479 86.0004C63.1457 83.549 63.9797 83.7959 65.6518 85.6675C66.9527 87.1276 69.1693 88.4374 69.9122 89.554C72.2127 93.0181 68.4653 99.1162 68.4653 99.1162Z" fill="#3D3D3E"/>
<path d="M69.3516 90.5161C69.3516 90.5161 68.9046 89.8433 67.5754 88.9057C66.2458 87.9681 65.0761 85.7959 64.8279 85.9928C64.579 86.1896 65.0359 92.8243 67.5707 93.4219C67.5707 93.4219 69.2999 93.0891 69.3516 90.5161Z" fill="black"/>
</svg>
