<svg width="365" height="240" viewBox="0 0 365 240" fill="none" xmlns="http://www.w3.org/2000/svg">
<path d="M114.241 53.9103C104.667 52.0001 97.4832 49.6095 87.4285 51.5196C75.4637 53.4298 64.452 57.2501 53.4403 62.0274C32.3739 72.0548 18.491 89.2462 7.47932 109.301C-0.657396 124.106 -5.92302 141.774 12.2684 150.848C25.6746 157.531 51.0457 154.668 61.1004 142.727C62.0574 142.25 62.5379 140.82 63.4949 140.34" fill="#7386AE"/>
<path d="M223.394 46.7462C229.616 48.1798 234.405 45.7892 235.839 39.1056C238.233 30.0314 232.968 23.8243 231.53 15.7071C231.054 11.8868 232.011 7.58996 227.702 6.15637C223.394 4.24621 220.042 9.50012 217.647 12.3634C213.815 18.5704 213.815 27.1681 206.159 30.0314" fill="#F7BD4F"/>
<path d="M183.874 32.1641C186.269 26.9141 188.183 20.7032 187.226 14.9766C186.265 8.76566 183.394 -7.46872 176.69 3.99222C174.296 8.2891 173.819 12.1094 170.468 15.4532C166.64 18.7969 162.808 20.7071 161.37 25.9571C158.98 35.5079 165.679 41.2383 172.862 46.0157" fill="#F7BD4F"/>
<path d="M220.518 78.4374C232.201 68.4569 231.365 61.0077 230.764 50.789C228.955 34.5585 222.928 29.1483 207.862 26.1405C178.33 20.7304 160.252 38.164 163.264 57.0155C164.354 63.8202 133.737 84.3749 159.045 91.0233C184.358 97.6757 208.834 88.4218 220.518 78.4374Z" fill="#F7BD4F"/>
<path d="M195.722 60.5429C195.562 60.5429 195.41 60.4648 195.316 60.3203C195.175 60.0976 195.242 59.8047 195.464 59.664C197.8 58.1797 204.003 54.2422 208.277 55.5586C209.796 56.0234 210.929 57.1054 211.64 58.7656C211.746 59.0078 211.632 59.2851 211.39 59.3906C211.148 59.4961 210.863 59.3828 210.761 59.1406C210.156 57.7304 209.25 56.8554 207.992 56.4687C204.148 55.2851 198.214 59.0508 195.98 60.4687C195.898 60.5195 195.808 60.5429 195.722 60.5429Z" fill="#592423"/>
<path d="M174.179 56.0859C173.929 56.0859 173.722 55.8945 173.702 55.6445C173.542 53.5898 172.659 51.957 171.339 51.2812C170.198 50.6992 168.839 50.8515 167.405 51.7187C167.179 51.8593 166.886 51.7851 166.749 51.5586C166.609 51.3359 166.683 51.0429 166.909 50.9023C168.612 49.8672 170.339 49.6992 171.773 50.4336C173.394 51.2617 174.472 53.1836 174.655 55.5742C174.675 55.8359 174.48 56.0664 174.214 56.0859C174.202 56.0859 174.191 56.0859 174.179 56.0859Z" fill="#592423"/>
<path d="M172.741 61.1797C175.933 61.1797 183.272 62.1328 186.624 63.5664C185.19 65.3164 179.284 68.3438 176.729 68.3438C173.222 68.3438 171.147 64.6836 169.71 62.1328C169.71 61.6563 170.19 61.4961 170.507 61.1797H172.741Z" fill="#F7817F"/>
<path d="M53.5411 222.207C50.42 213.219 50.4513 202.41 49.4669 193.102C45.92 159.453 40.4239 119.492 63.8966 91.465C70.4278 83.672 77.5997 75.9532 86.7052 71.1329C97.0255 65.672 109.611 65.4064 121.029 66.0821C129.334 66.5704 137.412 67.9962 144.783 70.3048C174.248 79.5196 181.822 112.652 185.678 137.774C188.283 154.758 187.729 173.305 185.311 190.266C183.084 205.891 190.447 227.734 172.213 235.852C160.236 241.18 143.787 238.676 131.197 237.899C111.623 236.688 92.0138 233.211 72.42 232.723C63.963 232.512 57.9669 232.996 54.3185 224.254C54.0411 223.582 53.7794 222.902 53.5411 222.207Z" fill="#7386AE"/>
<path d="M169.484 81.0979C171.64 78.9455 173.554 76.5393 174.796 73.8752C176.042 71.2307 176.628 68.3284 176.148 65.1838C175.601 61.6057 173.265 59.176 171.14 56.5315C170.577 55.844 170.038 55.137 169.542 54.383C166.706 50.094 168.988 46.6565 168.058 42.0549C164.976 26.6409 146.878 21.0627 130.706 23.594C120.98 25.1096 106.999 34.3088 103.464 43.762C87.8587 85.508 146.515 104.008 169.484 81.0979Z" fill="#BA6A51"/>
<path d="M104.23 57.9181C99.9719 53.6681 91.9993 58.1017 94.2962 64.961C97.2454 73.1329 109.038 70.5157 114.609 67.9024" fill="#BA6A51"/>
<path d="M105.78 189.141C106.562 186.141 107.585 183.168 108.202 180.77C109.609 175.312 112.097 171.66 117.488 169.43C127.78 165.172 138.691 161.027 145.523 151.719C148.089 148.219 150.839 141.359 155.773 140.687C160.71 140.012 165.277 145.953 169.046 148.309C203.945 170.109 188.12 228.77 164.187 227.207C140.249 225.648 128.113 215.332 117.433 208.785C113.288 206.25 105.921 203.266 104.902 198.168C104.386 195.586 104.945 192.348 105.78 189.141Z" fill="#BA6A51"/>
<path d="M230.127 65.1093C231.865 94.7929 274.072 120.328 286.881 137.266C294.865 147.828 303.283 159.246 309.225 171.098C316.389 185.391 323.553 209.211 310.022 221.914C297.283 233.824 272.608 231.445 256.686 229.855C216.088 224.297 196.186 197.301 189.022 158.394C186.858 146.637 180.057 132.035 168.225 127.019C155.479 121.609 140.131 122.824 127.944 115.316C122.514 111.973 117.967 107.871 113.201 103.805C107.463 98.9062 103.147 96.0468 95.8849 94.871C91.4943 94.1601 89.8498 94.4296 86.2951 92.5273C83.5607 91.0664 85.0959 88.8984 80.7287 88.7499C76.3576 88.6015 80.7677 80.5468 86.7873 80.1523C95.7404 79.5664 108.147 79.7734 114.018 81.5468C140.397 89.5156 157.643 83.6953 182.666 75.0156C202.608 68.0976 229.565 55.4453 230.127 65.1093Z" fill="#F7BD4F"/>
<path d="M169.046 148.309C183.363 124.75 227.078 84.0588 229.273 85.0627C231.425 86.047 229.617 90.3713 228.207 92.5509C230.164 91.9689 231.953 91.2892 232.75 90.1174C236.582 84.4767 237.418 87.6095 238.015 87.9064C238.613 88.2033 239.703 85.9689 241.07 86.7228C242.746 87.6486 241.429 89.0392 242.144 88.8908C242.863 88.7424 243.582 88.6525 244.062 90.6838C244.3 91.9963 244.179 93.3088 244.179 94.6213C246.632 93.3986 246.453 97.8439 246.214 99.0392C245.796 101.344 244.007 103.317 242.675 105.024C238.253 111.332 227.703 119.731 223.132 138.125C218.558 156.524 217.496 167.246 213.168 182.137C202.492 218.871 170.257 239.055 150.14 220.36C130.027 201.668 154.726 171.863 169.046 148.309Z" fill="#BA6A51"/>
<path d="M125.624 54.7775C130.921 52.6017 141.198 57.0744 142.479 54.9338C145.804 48.9728 131.077 49.3634 127.936 50.7072C121.948 53.2619 123.987 55.4494 125.624 54.7775Z" fill="#592423"/>
<path d="M166.741 48.7619C161.518 48.3557 155.147 55.258 153.182 53.7307C147.924 49.4064 159.995 45.5393 163.112 45.8244C169.057 46.3674 168.354 48.8869 166.741 48.7619Z" fill="#592423"/>
<path d="M151.6 67.4529C151.456 67.4529 151.315 67.3904 151.221 67.2732C151.057 67.0662 151.093 66.7654 151.303 66.6013C152.311 65.8123 153.389 64.5428 153.389 63.3592C153.389 62.742 153.096 62.2146 152.499 61.742C150.889 60.4568 149.417 58.5154 147.991 56.6326L147.37 55.824C147.21 55.6131 147.249 55.3123 147.46 55.1521C147.671 54.992 147.971 55.031 148.132 55.242L148.753 56.0584C150.143 57.8904 151.581 59.7849 153.093 60.992C153.925 61.6482 154.346 62.4451 154.346 63.3592C154.346 65.281 152.468 66.9021 151.893 67.3513C151.807 67.4217 151.702 67.4529 151.6 67.4529Z" fill="#592423"/>
<path d="M157.342 60.172C157.307 60.172 157.272 60.1681 157.237 60.1603C156.979 60.1017 156.819 59.8478 156.877 59.59C157.358 57.465 160.85 52.8673 163.6 52.7501C164.479 52.7111 165.647 53.0978 166.295 55.133C166.377 55.383 166.237 55.6525 165.987 55.7306C165.733 55.8126 165.463 55.672 165.385 55.422C164.819 53.6564 163.936 53.6915 163.639 53.7033C161.452 53.797 158.221 57.9923 157.811 59.8009C157.76 60.0197 157.561 60.172 157.342 60.172Z" fill="#592423"/>
<path d="M165.839 55.4259C165.846 57.1877 163.897 58.3634 162.307 58.5431C160.257 58.7697 159.577 56.7384 160.198 55.2619C160.694 54.0822 161.202 53.4924 163.179 53.1838C165.151 52.8752 165.835 54.3049 165.839 55.4259Z" fill="#592423"/>
<path d="M130.401 61.6757C130.292 61.6757 130.186 61.6366 130.096 61.5624C129.893 61.3944 129.866 61.0936 130.034 60.8905C131.424 59.2147 136.62 56.6835 139.124 57.8124C139.917 58.1718 140.795 59.0429 140.456 61.1522C140.413 61.41 140.167 61.5858 139.905 61.5468C139.647 61.5077 139.467 61.2616 139.51 60.9999C139.803 59.1679 138.995 58.8046 138.729 58.6835C136.733 57.785 131.956 60.0741 130.772 61.4999C130.674 61.6132 130.538 61.6757 130.401 61.6757Z" fill="#592423"/>
<path d="M139.912 61.2107C139.127 62.785 136.854 62.9568 135.354 62.4021C133.42 61.6834 133.733 59.5662 134.955 58.5232C135.928 57.6951 136.651 57.3943 138.553 58.0115C140.451 58.6209 140.416 60.2068 139.912 61.2107Z" fill="#592423"/>
<path d="M146.949 72.8476C143.21 72.8476 139.249 72.039 137.245 70.3241C137.042 70.1523 137.023 69.8515 137.195 69.6484C137.366 69.4491 137.667 69.4257 137.866 69.5976C141.152 72.4062 150.636 72.582 153.898 70.5116C154.12 70.371 154.413 70.4374 154.558 70.6601C154.699 70.8827 154.632 71.1757 154.409 71.3163C152.827 72.3202 149.96 72.8476 146.949 72.8476Z" fill="#592423"/>
<path d="M123.921 62.6875C136.651 62.6875 136.651 80.3477 123.921 80.3477C111.187 80.3516 111.187 62.6875 123.921 62.6875Z" fill="#F7817F" fill-opacity="0.4"/>
<path d="M173.733 73.9141C174.1 73.9141 174.451 73.8945 174.795 73.875C176.041 71.2305 176.627 68.3281 176.147 65.1836C175.6 61.6055 173.264 59.1758 171.139 56.5312C161.069 58.7461 161.94 73.9141 173.733 73.9141Z" fill="#F7817F" fill-opacity="0.4"/>
<path d="M178.167 77.2539C177.968 77.2539 177.784 77.1328 177.714 76.9336C177.628 76.6836 177.761 76.4141 178.011 76.3281C182.8 74.6836 189.089 72.8008 195.241 72.8008C198.788 72.8008 202.206 73.5156 205.514 74.2109C208.057 74.7461 210.686 75.2969 213.311 75.5039C213.577 75.5273 213.772 75.7578 213.753 76.0195C213.729 76.2813 213.511 76.4766 213.237 76.457C210.546 76.2461 207.889 75.6875 205.319 75.1445C202.057 74.4609 198.686 73.7539 195.241 73.7539C189.229 73.7539 183.042 75.6094 178.323 77.2266C178.272 77.25 178.218 77.2539 178.167 77.2539Z" fill="#592423"/>
<path d="M100.928 66.4336C100.803 66.4336 100.674 66.3789 100.58 66.2812C99.3773 64.9883 99.8499 64.125 100.112 63.8125C100.623 63.1992 101.698 62.957 102.748 63.1133C101.666 61.8945 99.9124 60.7969 98.7796 60.9805C98.0335 61.0977 97.5726 61.7734 97.4163 62.9922C97.3812 63.2539 97.1468 63.4375 96.8812 63.4023C96.6195 63.3711 96.432 63.1328 96.4671 62.8711C96.7406 60.7617 97.7953 60.1641 98.6312 60.0352C100.756 59.707 103.592 62.1172 104.397 63.8437C104.487 64.0352 104.44 64.2617 104.28 64.4023C104.119 64.543 103.885 64.5586 103.705 64.4492C102.756 63.8437 101.264 63.9219 100.85 64.4219C100.565 64.7617 100.998 65.3242 101.28 65.6289C101.459 65.8242 101.448 66.125 101.256 66.3047C101.162 66.3906 101.045 66.4336 100.928 66.4336Z" fill="#592423"/>
<path d="M185.026 171.203L184.073 171.137C184.737 161.883 177.081 155.316 170.323 152.508L170.69 151.629C177.741 154.559 185.726 161.441 185.026 171.203Z" fill="#592423"/>
<path d="M230.616 97.4961L230.163 96.6523L230.476 96.4844C232.14 95.6055 233.862 94.6914 235.038 93.1953C235.62 92.4453 235.929 91.5898 236.257 90.6875C236.558 89.8555 236.87 88.9922 237.417 88.207L238.202 88.75C237.729 89.4336 237.452 90.2031 237.155 91.0117C236.819 91.9453 236.468 92.9062 235.796 93.7852C234.487 95.4414 232.679 96.4023 230.925 97.3281L230.616 97.4961Z" fill="#592423"/>
<path d="M235.261 100.051L234.612 99.3477C235.015 98.9766 235.425 98.6328 235.827 98.2891C236.979 97.3164 238.065 96.3984 238.827 95.0469C239.503 94.0352 239.905 92.9414 240.3 91.8867C240.601 91.0742 240.913 90.2383 241.335 89.4453L242.183 89.8984C241.788 90.6328 241.503 91.4023 241.198 92.2188C240.788 93.3281 240.362 94.4727 239.644 95.5469C238.815 97.0156 237.612 98.0352 236.448 99.0195C236.054 99.3516 235.655 99.6914 235.261 100.051Z" fill="#592423"/>
<path d="M238.644 103.242L237.933 102.605C238.558 101.906 239.241 101.336 239.905 100.781C241.464 99.4766 242.812 98.3516 243.202 95.9219L244.147 96.0742C243.698 98.8555 242.081 100.207 240.519 101.512C239.882 102.043 239.226 102.594 238.644 103.242Z" fill="#592423"/>
<path d="M86.4097 88.4763C86.2261 88.4763 86.0503 88.3709 85.9722 88.1951C85.8628 87.9529 85.9722 87.6717 86.2143 87.5623C88.519 86.5427 91.519 86.5701 93.4643 87.0584C93.7222 87.1248 93.8784 87.3826 93.812 87.6365C93.7495 87.8943 93.4878 88.0506 93.2339 87.9842C91.5034 87.5545 88.6909 87.5115 86.6011 88.4373C86.5386 88.4646 86.4722 88.4763 86.4097 88.4763Z" fill="#592423"/>
<path d="M84.2528 83.7034C84.0653 83.7034 83.8856 83.5901 83.8114 83.4026C83.7098 83.1565 83.8309 82.8792 84.077 82.7815C85.4715 82.2268 87.0106 82.0471 88.4012 82.2776C88.663 82.3206 88.8387 82.5667 88.7958 82.8245C88.7528 83.0862 88.5067 83.262 88.245 83.219C87.0223 83.0159 85.6708 83.176 84.4325 83.6682C84.3739 83.6917 84.3114 83.7034 84.2528 83.7034Z" fill="#592423"/>
<path d="M278.991 175.394C264.628 163.934 242.128 158.203 226.331 170.144C218.19 176.352 214.362 183.516 213.882 193.543C213.405 204.523 225.464 211.668 226.331 217.894C227.702 227.727 216.757 218.371 211.968 219.805C209.097 220.281 199.999 224.102 200.956 228.402C202.393 235.562 224.417 234.133 229.682 233.652C239.257 232.699 248.831 231.266 258.405 231.266C267.503 231.266 278.515 234.609 287.132 232.223C295.749 229.832 301.015 224.582 301.491 215.984C301.972 207.867 301.491 199.273 293.354 195.453" fill="#F7BD4F"/>
<path d="M265.124 161.535C252.976 158.211 238.155 163.274 230.226 172.946C221.847 183.16 222.144 199.844 227.729 211.278C228.03 211.887 228.894 211.352 228.628 210.754C223.444 199.031 222.737 183.5 231.226 173.09C238.87 163.707 253.311 159.367 264.964 162.125C265.347 162.215 265.507 161.641 265.124 161.535Z" fill="#592423"/>
<path d="M354.089 135.566C367.496 145.117 365.578 163.262 360.312 175.199C353.613 190.004 337.335 197.168 322.015 198.121C317.226 198.597 307.171 198.597 306.695 192.39C306.214 187.137 313.398 187.617 317.707 185.707C328.714 180.929 334.941 170.902 336.374 159.441C336.855 155.621 336.855 151.801 336.855 147.98C341.64 147.027 344.992 155.621 346.429 159.441C352.175 157.054 350.261 138.91 335.484 136.519C335.484 136.519 340.683 126.015 354.089 135.566Z" fill="#F7BD4F"/>
<path d="M226.972 26.2735C227.636 23.2696 228.237 19.5274 224.436 18.7422C224.3 18.7149 224.143 18.7578 224.077 18.8906C222.249 22.4766 221.761 26.4024 218.921 29.4649C217.62 30.8633 216.061 31.9531 214.858 33.4492C213.858 34.6914 213.276 36.336 212.14 37.4297C211.858 37.6953 212.229 38.1875 212.557 37.9688C214.272 36.8125 214.975 34.5196 216.382 32.9883C218.194 31.0117 220.194 29.5547 221.612 27.2227C222.858 25.168 223.319 22.6563 224.136 20.4219C224.843 18.4844 226.3 20.0196 226.733 21.1172C226.968 21.7071 226.932 22.3867 226.917 23.0078C226.897 24.0821 226.64 25.1446 226.507 26.211C226.475 26.4766 226.913 26.5313 226.972 26.2735Z" fill="#592423"/>
<path d="M175.671 33.7656C172.401 26.2734 179.522 20.4765 180.667 13.418C180.71 13.1523 180.503 12.8711 180.206 12.9609C178.272 13.5273 176.995 14.6367 176.202 16.5C176.042 16.8711 176.518 17.1758 176.749 16.8203C177.741 15.2969 178.577 14.2187 180.405 13.6797C180.249 13.5273 180.096 13.3711 179.944 13.2187C178.78 20.4492 171.659 26.3203 175.366 33.9414C175.468 34.1484 175.761 33.9687 175.671 33.7656Z" fill="#592423"/>
<path d="M103.108 203.644C96.3428 208.133 90.4795 199.434 85.9443 195.461C81.5928 191.648 76.6397 188.809 70.6748 189.168C70.2178 189.195 70.21 189.894 70.6748 189.887C78.4795 189.707 84.2412 194.434 89.4717 199.711C93.2139 203.484 98.0928 207.762 103.351 204.062C103.604 203.883 103.37 203.469 103.108 203.644Z" fill="#592423"/>
<path d="M156.124 137.133C157.272 135.426 155.187 133.82 153.94 132.937C152.636 132.019 151.179 131.305 149.745 130.609C148.714 130.109 147.468 129.281 146.315 129.137C146.116 129.113 146.038 129.391 146.159 129.512C147.386 130.75 149.854 131.351 151.397 132.156C152.851 132.918 156.671 134.719 155.659 136.863C155.511 137.176 155.929 137.426 156.124 137.133Z" fill="#592423"/>
<path d="M95.0221 109.539C84.5182 111.191 75.8072 118.562 68.6861 126.023C64.4166 130.496 60.4635 135.418 56.565 140.113C56.2994 140.43 56.7525 140.887 57.0182 140.566C60.7994 136.012 64.6744 131.465 68.6744 127.094C75.7252 119.394 84.5768 111.848 95.1549 110.019C95.4752 109.965 95.3385 109.488 95.0221 109.539Z" fill="#592423"/>
<path d="M72.045 88.0547C64.6818 91.1329 57.8771 94.8672 51.8341 100.109C44.4786 106.492 39.8341 114.996 33.3146 122.113C30.8419 124.816 27.9825 127.461 24.4982 128.777C20.7286 130.195 18.5607 127.992 18.3575 124.25C18.0997 119.535 19.8419 115.219 22.6935 111.555C25.0646 108.504 27.9708 105.91 30.2169 102.754C30.4005 102.5 29.9903 102.188 29.7833 102.422C26.9239 105.606 23.8224 108.621 21.2677 112.059C18.7208 115.488 17.6583 119.387 17.5255 123.609C17.4552 125.797 17.9825 128.887 20.3614 129.75C22.9278 130.684 25.6896 129.332 27.8419 127.996C36.2364 122.773 41.0333 112.832 47.3224 105.543C54.006 97.7969 62.9864 92.5977 72.2325 88.5C72.4825 88.3907 72.2989 87.9493 72.045 88.0547Z" fill="#592423"/>
</svg>
