<svg width="299" height="400" viewBox="0 0 299 400" fill="none" xmlns="http://www.w3.org/2000/svg">
<ellipse cx="203.783" cy="389.235" rx="94.7611" ry="9.84126" fill="#7D7D7D"/>
<path d="M65.7592 97.0457C65.7592 97.0457 61.9342 90.5344 63.9661 84.8956C64.7095 82.8316 65.8222 80.6555 66.9348 78.7238C68.1205 76.6666 68.7969 77.1385 69.7377 79.3247C70.4699 81.0255 72.0701 82.8689 72.4022 84.0978C73.4314 87.9034 74.5277 90.4597 71.871 93.9394C69.2151 97.4225 65.7592 97.0457 65.7592 97.0457Z" fill="black"/>
<path d="M50.5773 151.077C50.5773 151.077 47.2496 169.083 30.3632 177.96C30.3632 177.96 27.284 178.7 26.5899 180.347C25.8992 181.993 22.0442 193.749 19.9687 193.726C16.2327 193.685 17.5869 187.174 18.4716 183.748C19.0976 181.338 19.295 174.939 20.0605 173.999C20.8227 173.058 25.1744 166.041 23.3609 161.852C21.5474 157.666 21.1051 147.547 31.4894 143.914C41.8704 140.282 50.5773 151.077 50.5773 151.077Z" fill="#F2CCAA"/>
<path d="M21.5295 186.869C21.5295 186.869 26.919 188.482 26.9938 190.366C27.0687 192.25 26.1739 193.798 26.1739 193.798L19.4506 193.727L21.5295 186.869Z" fill="#F2CCAA"/>
<path d="M253.943 360.544C253.943 360.544 260.482 366.593 259.206 370.888C257.931 375.186 252.029 378.051 251.232 383.299C250.435 388.551 247.245 391.416 244.374 391.416C241.503 391.416 230.688 391.416 230.688 391.416C230.688 391.416 228.574 387.719 233.678 386.606C238.782 385.492 240.706 379.324 240.387 373.593C240.068 367.867 240.865 360.228 240.865 360.228L251.711 357.682L253.943 360.544Z" fill="#2C3A64"/>
<path d="M173.722 376.221C173.722 376.221 175.247 389.983 172.375 391.416H135.353C135.353 391.416 135.285 387.044 141.188 386.09C147.088 385.132 157.455 381.632 159.207 373.834C160.963 366.037 173.722 376.221 173.722 376.221Z" fill="#2C3A64"/>
<path d="M142.705 181.833C142.705 181.833 144.641 205.956 146.921 234.951C150.013 274.34 153.736 322.722 154.107 331.888C154.743 347.803 157.298 373.26 157.298 373.26C157.298 373.26 163.354 379.309 175.477 376.76C175.477 376.76 186.28 340.416 189.368 301.963C189.416 301.335 189.464 300.7 189.511 300.066C192.382 260.921 196.846 178.493 196.846 178.493L142.705 181.833Z" fill="#35488B"/>
<path d="M142.705 181.832C142.705 181.832 144.641 205.956 146.921 234.95L189.368 301.963C189.416 301.335 189.464 300.7 189.511 300.065C192.382 260.92 196.846 178.492 196.846 178.492L142.705 181.832Z" fill="#2C3A64"/>
<path d="M151.553 184.698C151.553 184.698 186.482 272.058 209.448 313.111C232.414 354.164 239.591 365.621 239.591 365.621C239.591 365.621 252.749 360.373 253.945 356.791C253.945 356.791 245.162 277.534 229.782 258.215C221.092 247.297 210.883 214.534 210.405 203.077C209.926 191.62 207.295 168.943 207.295 168.943L151.553 184.698Z" fill="#35488B"/>
<path d="M49.0082 146.719C46.8034 142.764 46.9769 142.027 46.9769 142.027C46.9769 142.027 80.3891 113.993 83.4071 111.227C86.4285 108.46 116.758 59.185 116.758 59.185L158.83 61.9212C158.83 61.9212 106.908 121.431 99.1231 128.292C86.255 139.627 53.4416 151.302 53.4416 151.302C53.4416 151.302 50.74 149.825 49.0082 146.719Z" fill="#2F567A"/>
<path d="M136.166 47.1651C136.166 47.1651 121.917 72.1844 107.987 75.4502C107.987 75.4502 108.412 69.3023 110.655 63.9284C111.372 62.2107 111.049 60.2349 109.872 58.7888C109.311 58.0996 108.783 57.441 108.293 56.8164C104.789 52.3353 103.121 49.589 103.121 49.589L107.848 36.9096L111.056 28.3073C112.597 31.0978 114.295 33.4775 116.068 35.5143C125.197 45.9837 136.166 47.1651 136.166 47.1651Z" fill="#FFB27D"/>
<path d="M116.067 35.5143C116.067 35.5143 117.768 48.0478 108.292 56.8164C104.788 52.3353 103.121 49.589 103.121 49.589L107.847 36.9096C112.916 35.3684 116.067 35.5143 116.067 35.5143Z" fill="#ED975D"/>
<path d="M99.3646 51.4394C99.3646 51.4394 120.657 43.1563 115.285 30.0085C109.909 16.8573 109.038 6.93109 95.217 11.6633C81.3962 16.3956 80.8212 22.4789 81.5459 27.3063C82.2672 32.1302 93.6859 53.2556 99.3646 51.4394Z" fill="#FFB27D"/>
<path d="M209.359 175.545C200.767 187.868 136.547 204.329 137.309 195.802C137.602 192.539 137.993 186.782 137.302 178.981C137.139 177.151 136.914 175.216 136.618 173.169C134.985 161.963 131.11 147.552 122.468 130.874C121.821 129.624 121.144 128.365 120.447 127.089C116.888 120.632 113.856 113.805 111.539 107.127C107.092 94.2986 105.299 82.0265 107.544 74.0013C107.551 73.9606 109.64 65.5246 109.654 65.4873C123.077 59.2919 126.203 43.676 126.203 43.676C126.203 43.676 172.004 51.8777 197.657 112.786C197.657 112.786 216.832 164.821 209.359 175.545Z" fill="#F99746"/>
<path d="M137.303 178.98C137.139 177.151 136.915 175.216 136.619 173.169C134.986 161.963 131.11 147.552 122.468 130.873C123.951 121.898 126 114.432 128.249 111.075C137.384 97.4145 142.702 95.2792 142.702 95.2792C142.702 95.2792 156.401 152.915 137.303 178.98Z" fill="#2F567A"/>
<path d="M118.34 5.57899C118.49 5.28365 118.922 4.96794 119.98 4.64543C119.98 4.64543 118.99 4.31615 117.837 4.56736C117.238 3.11101 115.785 0.632816 113.06 0.615845C113.06 0.615845 114.621 1.01983 115.2 2.58142C111.464 0.21867 104.54 -0.46706 87.2588 5.27688C64.4827 12.8472 75.8605 26.0392 79.314 27.0984C82.7641 28.1542 89.1199 21.368 94.8361 20.4413C100.552 19.5145 103.645 27.4583 105.823 28.1168C108.004 28.7754 106.765 26.9694 109.045 25.1566C111.328 23.3472 112.638 27.6076 112.59 30.5984C112.539 33.5892 116.99 36.4238 116.99 36.4238C116.99 36.4238 116.99 36.4238 119.599 31.6474C122.209 26.871 121.498 9.53391 119.004 6.41413C118.786 6.13915 118.565 5.85736 118.34 5.57899Z" fill="#FF8B82"/>
<path d="M100.086 42.2939C100.086 42.2939 100.022 44.4259 99.2662 45.1184C98.5143 45.8076 95.6834 46.9991 94.9893 46.8124C94.2986 46.6257 92.8526 45.4952 92.8526 45.4952C92.8526 45.4952 97.0648 42.6708 100.086 42.2939Z" fill="white"/>
<path d="M82.6552 115.309C82.6552 115.309 101.066 120.666 112.406 116.555C112.406 116.555 116.602 110.078 118.905 111.615C121.209 113.157 120.304 118.493 115.945 121.318C111.586 124.142 87.7997 130.853 86.2448 130.229C84.6932 129.601 82.6552 115.309 82.6552 115.309Z" fill="#F2CCAA"/>
<path d="M87.5747 98.077C87.5747 98.077 83.8694 104.452 85.0909 110.665C86.1116 115.835 91.2426 124.397 88.5342 131.278C85.8292 138.159 63.9072 143.628 58.3305 149.745C52.7505 155.859 29.5116 166.576 25.4593 159.03C20.7775 150.302 19.1273 137.83 37.8136 128.996C53.1554 121.745 73.9036 93.1105 73.9036 93.1105L87.5747 98.077Z" fill="#F9DDBF"/>
<path d="M65.4663 85.418C65.4663 85.418 71.6213 81.4054 76.5175 82.726C81.4136 84.0432 87.7014 76.4626 90.7432 79.1004C93.7816 81.7381 97.116 89.0165 89.9947 96.098C82.8767 103.18 76.936 107.182 71.8017 104.911C66.6673 102.636 59.7025 87.9336 65.4663 85.418Z" fill="#F9DDBF"/>
<path d="M73.2717 122.209C73.2717 122.209 97.8205 137.258 100.291 137.601C102.761 137.941 105.997 134.413 108.133 137.302C110.267 140.195 103.472 144.469 100.91 145.49C98.3479 146.512 71.0533 139.237 71.0533 139.237L73.2717 122.209Z" fill="#F9DDBF"/>
<path d="M51.367 146.985C51.367 146.985 52.7961 165.238 38.7643 178.149C38.7643 178.149 35.9811 179.659 35.7327 181.425C35.4877 183.193 35.8076 193.479 31.8131 193.775C28.084 194.05 28.7917 190.332 28.7678 186.798C28.7474 184.307 27.2912 178.074 27.7845 176.967C28.2813 175.864 30.6766 167.964 27.8458 164.383C25.0149 160.801 21.9765 151.137 31.0747 144.961C40.1695 138.786 51.367 146.985 51.367 146.985Z" fill="#F9DDBF"/>
<path d="M84.8468 108.15C84.8468 108.15 74.8129 111.813 62.5028 106.473C62.5028 106.473 59.1582 109.365 59.4474 110.733C59.4474 110.733 73.6663 117.241 85.6123 112.644C85.6123 112.644 87.96 110.153 84.8468 108.15Z" fill="#35488B"/>
<path d="M61.7403 148.781C61.4953 146.32 64.0812 143.703 64.0812 143.703C64.0812 143.703 101.148 133.529 104.213 130.439C107.282 127.35 121.494 78.1704 121.494 78.1704C121.494 78.1704 126.384 58.2636 137.84 56.0706C147.792 54.1628 154.672 59.075 159.173 64.8359C164.536 71.7 165.063 81.1646 160.609 88.65C150.616 105.451 130.46 138.801 124.574 144.497C111.471 157.176 64.1322 154.562 64.1322 154.562C64.1322 154.562 62.2303 153.72 61.7403 148.781Z" fill="#F99746"/>
<path d="M33.4351 186.892C33.4351 186.892 38.8416 188.45 38.9369 190.331C39.0321 192.215 38.1543 193.773 38.1543 193.773H31.4276L33.4351 186.892Z" fill="#F9DDBF"/>
<path d="M75.711 85.872C75.9664 85.6511 76.3264 85.6162 76.693 85.6743C76.7585 85.6627 76.837 85.6627 76.9221 85.6918C77.1251 85.7499 77.3411 85.8371 77.5244 85.9476C77.5571 85.965 77.5899 85.9825 77.6226 85.9941C77.6946 86.0348 77.747 86.0813 77.7797 86.1337C77.9761 86.3255 78.0808 86.5639 78.0088 86.8779C77.8321 87.5814 76.9156 87.5116 76.346 87.2732C75.7896 87.0406 75.1219 86.3837 75.711 85.872ZM77.0072 86.6162C76.9025 86.5697 76.7977 86.529 76.6865 86.5058C76.6996 86.5174 76.7126 86.5232 76.7192 86.5232C76.8043 86.5697 76.9025 86.5988 77.0072 86.6162Z" fill="black"/>
<path d="M97.9741 29.9948C98.3065 29.9339 98.6344 30.0864 98.9206 30.3223C98.9829 30.3455 99.0505 30.3853 99.109 30.4535C99.2542 30.6065 99.3958 30.7911 99.4974 30.9792C99.5167 31.0108 99.536 31.0424 99.5583 31.069C99.5996 31.1406 99.621 31.2072 99.6226 31.2689C99.694 31.5337 99.6628 31.7921 99.4408 32.0261C98.9302 32.5424 98.1764 32.0177 97.8073 31.5237C97.4465 31.0412 97.206 30.1368 97.9741 29.9948ZM98.7114 31.2929C98.6449 31.1998 98.5754 31.1116 98.4914 31.0352C98.4968 31.0518 98.5051 31.0635 98.5107 31.0668C98.5603 31.15 98.6301 31.2248 98.7114 31.2929Z" fill="black"/>
<path d="M87.1829 34.6383C87.5153 34.5774 87.8432 34.7299 88.1293 34.9659C88.1916 34.989 88.2593 35.0289 88.3178 35.097C88.4629 35.25 88.6046 35.4347 88.7062 35.6228C88.7255 35.6544 88.7448 35.686 88.7671 35.7126C88.8083 35.7842 88.8298 35.8508 88.8313 35.9125C88.9027 36.1773 88.8715 36.4358 88.6496 36.6697C88.139 37.1861 87.3852 36.6614 87.0161 36.1673C86.6553 35.6848 86.4148 34.7803 87.1829 34.6383ZM87.9202 35.9365C87.8537 35.8434 87.7842 35.7552 87.7002 35.6787C87.7055 35.6954 87.7138 35.707 87.7195 35.7104C87.7691 35.7936 87.8388 35.8684 87.9202 35.9365Z" fill="black"/>
<path d="M50.578 151.078C50.578 151.078 47.2504 169.084 30.364 177.961C30.364 177.961 27.2848 178.701 26.5906 180.348C25.9 181.994 22.0449 193.75 19.9694 193.727C16.2335 193.686 17.5877 187.175 18.4724 183.749C19.0984 181.339 19.2958 174.94 20.0613 174C20.8235 173.059 25.1752 166.042 23.3617 161.853C21.5482 157.667 21.1059 147.548 31.4902 143.915C41.8711 140.283 50.578 151.078 50.578 151.078Z" fill="black"/>
<path d="M21.5307 186.87C21.5307 186.87 26.9202 188.483 26.9951 190.367C27.0699 192.251 26.1751 193.799 26.1751 193.799L19.4518 193.728L21.5307 186.87Z" fill="black"/>
<path d="M253.945 360.543C253.945 360.543 260.483 366.592 259.207 370.887C257.932 375.185 252.031 378.05 251.233 383.298C250.436 388.55 247.246 391.415 244.375 391.415C241.504 391.415 230.689 391.415 230.689 391.415C230.689 391.415 228.576 387.718 233.679 386.605C238.783 385.491 240.707 379.323 240.388 373.592C240.069 367.866 240.866 360.227 240.866 360.227L251.712 357.681L253.945 360.543Z" fill="#2C3A64"/>
<path d="M173.723 376.22C173.723 376.22 175.248 389.982 172.376 391.415H135.354C135.354 391.415 135.286 387.043 141.189 386.089C147.089 385.131 157.456 381.631 159.208 373.834C160.964 366.036 173.723 376.22 173.723 376.22Z" fill="#2C3A64"/>
<path d="M142.706 181.833C142.706 181.833 144.642 205.956 146.922 234.951C150.015 274.34 153.737 322.722 154.108 331.888C154.744 347.803 157.299 373.26 157.299 373.26C157.299 373.26 163.356 379.309 175.479 376.76C175.479 376.76 186.281 340.416 189.369 301.963C189.417 301.335 189.465 300.7 189.512 300.066C192.383 260.921 196.847 178.493 196.847 178.493L142.706 181.833Z" fill="#35488B"/>
<path d="M142.706 181.831C142.706 181.831 144.642 205.955 146.922 234.949L189.369 301.962C189.417 301.334 189.465 300.699 189.512 300.064C192.383 260.919 196.847 178.491 196.847 178.491L142.706 181.831Z" fill="#2C3A64"/>
<path d="M151.552 184.697C151.552 184.697 186.482 272.057 209.447 313.11C232.414 354.163 239.59 365.62 239.59 365.62C239.59 365.62 252.748 360.372 253.944 356.79C253.944 356.79 245.162 277.533 229.782 258.214C221.091 247.296 210.883 214.533 210.404 203.076C209.926 191.619 207.294 168.942 207.294 168.942L151.552 184.697Z" fill="#35488B"/>
<path d="M49.0089 146.719C46.8041 142.764 46.9777 142.027 46.9777 142.027C46.9777 142.027 80.3899 113.993 83.4078 111.227C86.4292 108.46 116.759 59.185 116.759 59.185L158.83 61.9212C158.83 61.9212 106.909 121.431 99.1238 128.292C86.2557 139.627 53.4424 151.302 53.4424 151.302C53.4424 151.302 50.7408 149.825 49.0089 146.719Z" fill="#FF8B82"/>
<path d="M136.167 47.1661C136.167 47.1661 121.918 72.1854 107.988 75.4512C107.988 75.4512 108.413 69.3033 110.656 63.9294C111.373 62.2116 111.05 60.2359 109.873 58.7897C109.312 58.1006 108.784 57.442 108.294 56.8174C104.79 52.3363 103.122 49.59 103.122 49.59L107.849 36.9106L111.057 28.3083C112.598 31.0987 114.296 33.4785 116.069 35.5153C125.198 45.9847 136.167 47.1661 136.167 47.1661Z" fill="#FFB27D"/>
<path d="M116.068 35.5143C116.068 35.5143 117.769 48.0478 108.293 56.8164C104.789 52.3353 103.121 49.589 103.121 49.589L107.847 36.9096C112.917 35.3684 116.068 35.5143 116.068 35.5143Z" fill="#ED975D"/>
<path d="M99.3656 51.4394C99.3656 51.4394 120.658 43.1563 115.286 30.0085C109.91 16.8573 109.039 6.93109 95.218 11.6633C81.3972 16.3956 80.8221 22.4789 81.5469 27.3063C82.2682 32.1302 93.6868 53.2556 99.3656 51.4394Z" fill="#FFB27D"/>
<path d="M209.36 175.544C200.769 187.867 136.548 204.328 137.31 195.801C137.603 192.538 137.994 186.781 137.304 178.98C137.14 177.15 136.916 175.215 136.62 173.168C134.986 161.962 131.111 147.551 122.469 130.873C121.822 129.623 121.145 128.364 120.448 127.088C116.889 120.631 113.857 113.804 111.54 107.126C107.093 94.2976 105.3 82.0256 107.546 74.0004C107.552 73.9596 109.641 65.5237 109.655 65.4863C123.078 59.2909 126.205 43.675 126.205 43.675C126.205 43.675 172.005 51.8768 197.659 112.785C197.659 112.785 216.833 164.82 209.36 175.544Z" fill="#FFA8A1"/>
<path d="M137.302 178.98C137.139 177.151 136.914 175.216 136.618 173.169C134.985 161.963 131.11 147.552 122.467 130.873C123.951 121.898 125.999 114.432 128.248 111.075C137.384 97.4145 142.702 95.2792 142.702 95.2792C142.702 95.2792 156.4 152.915 137.302 178.98Z" fill="#FF8B82"/>
<path d="M118.341 5.57997C118.491 5.28463 118.923 4.96891 119.981 4.64641C119.981 4.64641 118.991 4.31712 117.837 4.56834C117.239 3.11198 115.786 0.633793 113.06 0.616821C113.06 0.616821 114.622 1.02081 115.201 2.5824C111.465 0.219646 104.541 -0.466084 87.2595 5.27786C64.4834 12.8482 75.8612 26.0402 79.3147 27.0994C82.7648 28.1552 89.1206 21.369 94.8368 20.4422C100.553 19.5155 103.646 27.4592 105.823 28.1178C108.004 28.7764 106.766 26.9704 109.045 25.1576C111.329 23.3482 112.638 27.6086 112.591 30.5994C112.54 33.5902 116.99 36.4248 116.99 36.4248C116.99 36.4248 116.99 36.4248 119.6 31.6484C122.21 26.8719 121.499 9.53489 119.005 6.4151C118.787 6.14013 118.566 5.85834 118.341 5.57997Z" fill="black"/>
<path d="M100.087 42.2959C100.087 42.2959 100.022 44.4278 99.2669 45.1204C98.515 45.8095 95.6841 47.0011 94.99 46.8144C94.2993 46.6277 92.8532 45.4972 92.8532 45.4972C92.8532 45.4972 97.0655 42.6727 100.087 42.2959Z" fill="white"/>
<path d="M82.6555 115.309C82.6555 115.309 101.066 120.666 112.407 116.555C112.407 116.555 116.602 110.078 118.905 111.615C121.209 113.157 120.304 118.493 115.945 121.318C111.587 124.142 87.8 130.853 86.2451 130.229C84.6935 129.601 82.6555 115.309 82.6555 115.309Z" fill="black"/>
<path d="M87.5759 98.077C87.5759 98.077 83.8706 104.452 85.0921 110.665C86.1129 115.835 91.2438 124.397 88.5354 131.278C85.8305 138.159 63.9084 143.628 58.3317 149.745C52.7517 155.859 29.5129 166.576 25.4605 159.03C20.7787 150.302 19.1285 137.83 37.8149 128.996C53.1566 121.745 73.9048 93.1105 73.9048 93.1105L87.5759 98.077Z" fill="#3D3D3E"/>
<path d="M26.9717 135.858C26.9717 135.858 21.9874 135.946 18.2689 134.731C13.7174 133.244 11.8453 126.815 21.7696 121.872C21.7696 121.872 17.5598 119.455 12.6388 123.376C12.6388 123.376 12.2615 122.13 12.6912 120.86C12.6912 120.86 5.79066 124.503 6.85768 130.871C6.85768 130.871 3.90164 128.597 3.58487 126.781C3.58487 126.781 -1.48753 133.611 4.53347 139.328C4.53347 139.328 2.5995 139.507 0.880241 137.997C0.880241 137.997 8.05535 150.228 25.1946 142.203L26.9717 135.858Z" fill="#3D3D3E"/>
<path d="M65.4665 85.418C65.4665 85.418 71.6216 81.4054 76.5177 82.726C81.4139 84.0432 87.7017 76.4626 90.7435 79.1004C93.7819 81.7381 97.1163 89.0165 89.9949 96.098C82.8769 103.18 76.9362 107.182 71.8019 104.911C66.6676 102.636 59.7027 87.9336 65.4665 85.418Z" fill="#3D3D3E"/>
<path d="M73.2727 122.209C73.2727 122.209 97.8215 137.258 100.292 137.601C102.762 137.941 105.998 134.413 108.134 137.302C110.268 140.195 103.473 144.469 100.911 145.49C98.3489 146.512 71.0543 139.237 71.0543 139.237L73.2727 122.209Z" fill="#3D3D3E"/>
<path d="M51.3668 146.986C51.3668 146.986 52.7958 165.239 38.764 178.15C38.764 178.15 35.9808 179.66 35.7325 181.426C35.4875 183.194 35.8073 193.48 31.8128 193.776C28.0837 194.051 28.7914 190.333 28.7676 186.799C28.7472 184.308 27.2909 178.075 27.7843 176.968C28.281 175.865 30.6764 167.965 27.8455 164.384C25.0147 160.802 21.9763 151.138 31.0745 144.962C40.1693 138.787 51.3668 146.986 51.3668 146.986Z" fill="#3D3D3E"/>
<path d="M84.8468 108.15C84.8468 108.15 74.8129 111.813 62.5027 106.473C62.5027 106.473 59.1581 109.365 59.4473 110.733C59.4473 110.733 73.6662 117.241 85.6123 112.644C85.6123 112.644 87.96 110.153 84.8468 108.15Z" fill="#DFD46C"/>
<path d="M61.7415 148.78C61.4965 146.319 64.0824 143.702 64.0824 143.702C64.0824 143.702 101.149 133.528 104.215 130.438C107.284 127.349 121.496 78.1694 121.496 78.1694C121.496 78.1694 126.385 58.2626 137.841 56.0696C147.793 54.1618 154.673 59.074 159.175 64.8349C164.537 71.6991 165.064 81.1636 160.61 88.649C150.617 105.45 130.461 138.8 124.575 144.496C111.472 157.175 64.1335 154.561 64.1335 154.561C64.1335 154.561 62.2315 153.719 61.7415 148.78Z" fill="#FFA8A1"/>
<path d="M33.4363 186.894C33.4363 186.894 38.8428 188.452 38.9381 190.333C39.0334 192.217 38.1555 193.775 38.1555 193.775H31.4289L33.4363 186.894Z" fill="#3D3D3E"/>
<path d="M75.7121 85.872C75.9674 85.6511 76.3275 85.6162 76.6941 85.6743C76.7595 85.6627 76.8381 85.6627 76.9232 85.6918C77.1261 85.7499 77.3422 85.8371 77.5255 85.9476C77.5582 85.965 77.591 85.9825 77.6237 85.9941C77.6957 86.0348 77.7481 86.0813 77.7808 86.1337C77.9772 86.3255 78.0819 86.5639 78.0099 86.8779C77.8332 87.5814 76.9167 87.5116 76.3471 87.2732C75.7906 87.0406 75.1229 86.3837 75.7121 85.872ZM77.0083 86.6162C76.9036 86.5697 76.7988 86.529 76.6875 86.5058C76.7006 86.5174 76.7137 86.5232 76.7203 86.5232C76.8054 86.5697 76.9036 86.5988 77.0083 86.6162Z" fill="white"/>
<path d="M97.9748 29.9958C98.3073 29.9349 98.6352 30.0874 98.9213 30.3233C98.9836 30.3465 99.0513 30.3863 99.1097 30.4545C99.2549 30.6075 99.3966 30.7921 99.4982 30.9802C99.5175 31.0118 99.5368 31.0434 99.559 31.07C99.6003 31.1416 99.6217 31.2082 99.6233 31.2699C99.6947 31.5347 99.6635 31.7931 99.4415 32.0271C98.9309 32.5434 98.1771 32.0187 97.808 31.5246C97.4472 31.0422 97.2068 30.1378 97.9748 29.9958ZM98.7121 31.2939C98.6456 31.2008 98.5761 31.1126 98.4921 31.0362C98.4975 31.0528 98.5058 31.0644 98.5114 31.0678C98.561 31.151 98.6308 31.2258 98.7121 31.2939Z" fill="black"/>
<path d="M87.1831 34.6393C87.5156 34.5784 87.8434 34.7309 88.1296 34.9668C88.1919 34.99 88.2595 35.0298 88.318 35.098C88.4632 35.251 88.6048 35.4356 88.7064 35.6237C88.7257 35.6554 88.745 35.687 88.7673 35.7136C88.8086 35.7852 88.83 35.8518 88.8315 35.9134C88.903 36.1783 88.8717 36.4367 88.6498 36.6707C88.1392 37.1871 87.3854 36.6623 87.0163 36.1682C86.6555 35.6858 86.4151 34.7813 87.1831 34.6393ZM87.9204 35.9375C87.8539 35.8443 87.7844 35.7562 87.7004 35.6797C87.7058 35.6964 87.7141 35.708 87.7197 35.7113C87.7693 35.7945 87.8391 35.8694 87.9204 35.9375Z" fill="black"/>
<path d="M65.827 94.377C65.827 94.377 60.8697 94.2547 59.4495 88.7247C58.9041 86.6029 59.8659 84.1179 60.3086 81.9351C60.7809 79.6097 61.5719 79.8439 63.1582 81.6194C64.3922 83.0045 66.4949 84.2469 67.1996 85.3061C69.3819 88.5923 65.827 94.377 65.827 94.377Z" fill="#3D3D3E"/>
<path d="M66.6678 86.2181C66.6678 86.2181 66.2439 85.5799 64.9829 84.6905C63.7216 83.8011 62.6121 81.7406 62.3766 81.9273C62.1405 82.114 62.574 88.4077 64.9785 88.9746C64.9785 88.9746 66.6189 88.6589 66.6678 86.2181Z" fill="black"/>
</svg>
