<svg width="643" height="699" viewBox="0 0 643 699" fill="none" xmlns="http://www.w3.org/2000/svg">
<path d="M271.453 512.371C255.078 521.456 240.524 546.89 231.426 563.244C220.508 585.046 218.688 595.947 240.524 610.484C273.274 632.286 320.582 646.82 358.793 652.272C395.184 657.721 589.871 672.258 566.219 601.399C558.938 585.046 540.746 574.145 537.106 555.979" fill="#F2EBC7"/>
<path d="M550.75 225.304C549.84 210.767 543.473 202.594 538.016 189.873C533.465 179.88 533.465 168.979 532.559 158.078C530.739 144.453 531.649 139.004 539.836 128.099C548.024 118.107 548.934 109.934 550.754 97.2126C552.571 88.1278 553.481 77.2267 548.934 69.0539C543.477 59.061 530.739 59.061 525.282 49.068C520.731 38.1631 526.192 31.8065 512.543 25.4459C503.446 20.9055 490.711 23.6297 481.61 19.0893C473.426 13.6368 476.844 7.28015 450.461 1.82769C431.453 -2.10089 420.743 4.34541 413.516 10.9749C403.77 6.62928 393.828 5.76406 380.578 12.7287C360.977 23.0334 371.532 30.8984 347.875 33.6227C336.957 35.4388 326.043 36.3469 318.762 46.3399C311.485 55.4247 314.215 65.4176 311.485 75.4106C303.297 99.0327 273.274 91.764 255.989 103.573C231.426 119.923 256.899 142.637 241.434 158.986C225.965 175.34 198.676 168.071 192.305 194.418C186.848 218.944 215.051 229.845 186.848 248.015C169.563 258.008 153.188 281.63 173.2 297.979C182.297 305.248 189.578 307.972 185.028 321.601C182.297 330.682 174.11 338.859 178.661 349.76C182.297 362.477 197.766 366.114 208.68 368.838C224.149 373.382 239.614 378.831 255.078 384.279C280.551 393.364 306.024 390.64 332.411 390.64C357.883 390.64 384.266 390.64 409.739 387.916C435.211 386.099 462.504 383.371 484.336 369.746C507.993 355.213 530.735 332.499 544.383 307.972C557.121 284.354 551.661 251.651 550.75 225.304Z" fill="#592423"/>
<path d="M380.625 117.202C383.356 127.195 390.633 147.181 381.535 154.446C374.258 159.898 360.613 149.905 355.152 155.358C348.785 161.714 366.981 181.7 371.531 186.245C386.086 202.594 413.211 237.437 435.957 235.621C444.145 234.713 491.098 241.658 482 230.757C474.719 222.584 433.227 196.035 435.957 180.593C436.867 174.233 437.942 163.534 441.578 158.082" fill="#BA6A51"/>
<path d="M277.981 171.786C231.426 209.859 246.305 296.491 245.395 323.745C244.485 352.816 276.005 459.682 266.907 474.22C261.45 484.213 245.071 501.474 249.622 514.191C254.169 525.092 276.005 535.085 284.192 541.446C302.383 554.163 322.399 564.156 341.505 575.057C383.352 598.675 428.84 607.76 477.059 612.305C499.805 614.121 540.743 607.76 558.938 593.227C578.044 578.69 560.758 553.255 554.387 537.814C546.2 517.828 548.02 492.389 548.02 470.587C548.02 446.969 554.387 423.347 559.848 400.637C562.575 385.195 566.216 369.75 568.946 354.305C573.493 334.319 569.856 318.877 568.036 298.891C563.485 248.019 525.485 223.492 470.899 222.58C445.426 221.672 424.544 217.401 399.731 188.061C384.731 170.324 380.575 161.052 367.473 154.863C367.477 154.859 324.532 133.712 277.981 171.786Z" fill="#7386AE"/>
<path d="M509.391 140.17C471.113 180.656 485.68 231.759 488.813 243.502C490.383 251.328 497.438 256.024 500.574 263.07C505.278 274.03 500.172 276.509 490.762 275.725C483.707 275.725 478.078 280.402 481.996 290.578C485.133 297.621 497.742 298.509 504.793 299.293C528.313 301.643 535.067 281.856 550.742 266.987C565.637 252.894 582.098 236.459 584.453 215.323C586.02 198.105 580.532 169.139 560.934 164.443L509.391 140.17Z" fill="#F2EBC7"/>
<path d="M503.59 148.818C510.098 142.025 516.352 125.142 515.465 119.163C514.453 112.35 513.023 106.142 508.012 99.4226C502.219 91.659 506.981 84.7255 505.262 75.968C499.547 46.644 466.008 36.0314 436.035 40.8447C418.008 43.7366 392.098 61.232 385.551 79.2185C356.629 158.636 461.441 192.832 503.59 148.818Z" fill="#BA6A51"/>
<path d="M387.133 106.146C379.039 98.0624 363.891 106.492 368.25 119.549C373.852 135.088 396.266 130.115 406.852 125.145" fill="#BA6A51"/>
<path d="M427.785 100.17C437.852 96.0312 457.379 104.543 459.817 100.47C466.129 89.1289 438.153 89.8772 432.176 92.4261C420.801 97.2862 424.672 101.453 427.785 100.17Z" fill="#592423"/>
<path d="M502.2 89.5625C493.489 88.8025 482.969 100.245 479.668 97.6574C470.832 90.3459 490.899 84.0633 496.106 84.5894C506.024 85.595 504.895 89.8002 502.2 89.5625Z" fill="#592423"/>
<path d="M477.591 124.172L476.704 122.581C478.56 121.549 483.532 118.236 484.247 115.406C484.411 114.752 484.325 114.175 483.989 113.649C482.993 112.086 481.075 110.811 479.056 109.463C475.739 107.257 471.981 104.751 471.31 100.206L473.106 99.9375C473.661 103.687 476.915 105.858 480.063 107.954C482.251 109.412 484.317 110.788 485.521 112.67C486.134 113.633 486.298 114.705 486.009 115.851C484.958 120.021 477.892 124.004 477.591 124.172Z" fill="#592423"/>
<path d="M468.31 134.549C461.208 134.549 453.681 133.006 449.868 129.744L451.052 128.364C457.294 133.708 475.31 134.047 481.513 130.106L482.489 131.638C479.485 133.548 474.032 134.549 468.31 134.549Z" fill="#592423"/>
<path d="M424.548 113.242C448.743 113.242 448.743 146.838 424.548 146.838C400.349 146.838 400.349 113.242 424.548 113.242Z" fill="#D44E48" fill-opacity="0.498"/>
<path d="M509.392 140.17C513.294 132.574 516.064 123.29 515.458 119.167C514.821 114.86 514.021 110.807 512.247 106.703C511.466 106.613 510.65 106.574 509.798 106.574C486.341 106.574 486.196 139.768 509.392 140.17Z" fill="#D44E48" fill-opacity="0.498"/>
<path d="M380.195 122.054C378.133 119.841 379.238 118.149 379.625 117.685C380.625 116.489 382.555 115.939 384.41 116.134C382.355 113.768 378.965 111.625 376.773 111.968C375.355 112.19 374.48 113.476 374.184 115.799L372.379 115.565C372.895 111.559 374.902 110.421 376.492 110.175C380.516 109.544 385.914 114.135 387.445 117.416L388.766 120.238L386.133 118.566C384.492 117.522 381.863 117.841 381.023 118.847C380.605 119.346 380.773 120.008 381.523 120.815L380.195 122.054Z" fill="#592423"/>
<path d="M265.177 217.767C267.313 193.042 281.571 175.503 306.411 167.065C313.165 164.77 320.052 163.604 326.88 163.604C364.192 163.604 396.458 197.009 430.618 232.37C451.458 253.946 473.005 276.251 495.946 290.597C534.22 314.535 538.841 354.176 531.165 380.853C523.696 406.81 522.446 443.59 502.474 443.59C460.2 452.047 458.477 440.772 382.849 393.941C307.22 347.11 260.02 277.447 265.177 217.767Z" fill="#7386AE"/>
<path d="M494.977 292.137C522.188 247.321 605.254 169.911 609.43 171.821C613.52 173.692 610.082 181.923 607.399 186.07C611.125 184.963 614.52 183.673 616.035 181.436C623.313 170.702 624.906 176.665 626.043 177.23C627.18 177.799 629.25 173.547 631.844 174.982C635.027 176.739 632.527 179.39 633.891 179.105C635.254 178.824 636.617 178.653 637.527 182.511C637.984 185.01 637.758 187.508 637.758 190.01C642.422 187.679 643.945 198.409 641.625 198.409C634.836 198.409 637.434 206.551 634.895 209.797C626.492 221.797 606.445 237.776 597.758 272.767C589.07 307.77 587.047 328.169 578.824 356.495C558.539 426.379 497.277 464.776 459.051 429.213C420.828 393.649 467.766 336.954 494.977 292.137Z" fill="#BA6A51"/>
<path d="M480.758 311.188C485.258 304.219 489.512 297.636 493.422 291.194C497.852 283.894 504.001 275.339 511.692 265.771C512.161 265.191 512.938 264.953 513.649 265.175C517.93 266.496 522.321 267.767 526.571 268.994C535.313 271.516 544.352 274.123 553.032 277.386C565.938 282.23 582.075 289.351 592.419 301.51C592.778 301.935 592.926 302.504 592.813 303.054C592.087 306.597 591.399 310.022 590.727 313.374C587.852 327.728 585.133 341.287 580.571 357.006C565.852 407.715 528.766 444.518 492.387 444.522C479.594 444.522 467.641 439.689 457.813 430.546C423.989 399.07 454.145 352.379 480.758 311.188Z" fill="#7386AE"/>
<path d="M524.445 336.54C524.422 336.54 524.399 336.54 524.379 336.536C523.879 336.501 523.5 336.069 523.535 335.566C524.793 317.961 510.246 305.474 497.406 300.131C496.942 299.94 496.723 299.406 496.918 298.942C497.11 298.482 497.645 298.264 498.11 298.455C511.504 304.028 526.68 317.127 525.352 335.695C525.313 336.174 524.914 336.54 524.445 336.54Z" fill="#592423"/>
<path d="M611.98 195.474L611.121 193.868L611.715 193.552C614.879 191.876 618.148 190.142 620.387 187.293C621.488 185.859 622.074 184.237 622.699 182.522C623.27 180.936 623.863 179.299 624.902 177.803L626.395 178.836C625.492 180.137 624.965 181.595 624.406 183.138C623.766 184.912 623.102 186.743 621.82 188.411C619.34 191.564 615.895 193.392 612.566 195.158L611.98 195.474Z" fill="#592423"/>
<path d="M620.809 200.333L619.574 199C620.34 198.295 621.117 197.636 621.887 196.985C624.074 195.13 626.141 193.384 627.586 190.82C628.867 188.894 629.641 186.813 630.387 184.802C630.957 183.259 631.551 181.665 632.352 180.164L633.961 181.018C633.215 182.417 632.668 183.882 632.094 185.437C631.312 187.542 630.5 189.724 629.137 191.77C627.566 194.561 625.277 196.498 623.066 198.373C622.316 199.004 621.555 199.647 620.809 200.333Z" fill="#592423"/>
<path d="M627.243 206.406L625.884 205.194C627.071 203.869 628.376 202.777 629.634 201.725C632.595 199.246 635.153 197.103 635.9 192.48L637.696 192.769C636.841 198.058 633.771 200.63 630.802 203.116C629.591 204.13 628.341 205.174 627.243 206.406Z" fill="#592423"/>
<path d="M432.938 112.557C438.106 113.18 442.36 117.062 447.528 117.171C451.512 117.257 455.747 116.088 459.254 114.229C459.934 113.866 459.614 112.79 458.864 112.798C453.754 112.864 449.958 115.608 444.61 114.299C440.215 113.215 437.524 110.21 432.723 110.97C431.743 111.122 432.118 112.459 432.938 112.557Z" fill="#592423"/>
<path d="M487.301 107.56C490.715 108.811 494.028 107.853 496.899 105.803C499.157 104.189 502.813 100.736 503.247 97.8637C503.337 97.2791 502.762 96.6399 502.161 97.0296C500.2 98.2924 499.047 100.904 497.458 102.611C494.782 105.479 491.614 106.738 487.747 105.947C486.68 105.725 486.29 107.19 487.301 107.56Z" fill="#592423"/>
<path d="M527.7 81.482C514.262 86.1901 503.302 94.8696 504.962 111.445C505.567 117.502 507.993 122.95 507.387 129.011C507.387 135.063 504.352 140.516 506.173 147.177C512.235 167.77 568.036 174.256 582.591 162.143C601.075 146.767 616.274 101.203 587.544 83.7386C578.876 78.4693 563.7 75.3163 553.649 76.3219C545.731 77.113 536.22 78.5005 527.7 81.482Z" fill="#F2EBC7"/>
<path d="M577.133 90.2518C579.559 81.7711 588.656 74.5024 596.543 71.4781C603.215 69.6619 623.23 70.8701 626.262 79.3469C628.688 86.0114 621.41 83.5873 617.164 85.4034C611.102 89.0397 614.738 90.8559 612.313 96.3045C609.887 101.757 592.902 107.209 586.84 102.361" fill="#F2EBC7"/>
<path d="M587.544 83.7386C586.345 83.0098 580.954 83.988 578.813 86.2524C575.079 90.2044 567.243 95.6296 569.06 102.544C570.005 106.149 572.759 109.754 572.38 113.589C571.907 118.367 567.009 119.98 564.341 123.352C564.411 123.258 565.536 124.614 565.595 124.829C565.903 125.873 565.493 126.329 564.931 127.117C564.263 128.052 562.345 129.786 561.364 130.371C561.298 130.41 561.196 130.457 561.079 130.503C563.778 132.756 567.333 132.643 570.813 132.121C572.739 131.532 574.634 130.796 576.185 129.736C580.005 127.109 579.923 123.991 581.548 120.132C582.724 117.338 584.97 115.506 587.696 114.341C591.431 112.743 595.505 114.107 597.149 110.615C598.79 107.123 597.86 104.442 601.942 102.89C606.02 101.343 596.989 89.4795 587.544 83.7386Z" fill="#BA6A51"/>
<path d="M577.133 90.2518C579.559 81.7711 588.656 74.5024 596.543 71.4781C603.215 69.6619 623.23 70.8701 626.262 79.3469C628.688 86.0114 621.41 83.5873 617.164 85.4034C611.102 89.0397 614.738 90.8559 612.313 96.3045C609.887 101.757 592.902 107.209 586.84 102.361" fill="#BA6A51"/>
<path d="M520.731 90.8558C523.157 82.983 519.517 72.6861 514.06 67.2375C509.813 62.9972 492.224 55.1244 488.587 63.6013C486.161 69.6578 493.438 72.082 495.864 75.7144C499.501 81.7709 495.864 83.5871 496.47 89.6437C497.075 97.5164 512.239 104.785 518.306 98.1244" fill="#F2EBC7"/>
<path d="M514.059 136.881C494.044 142.937 469.176 163.531 470.997 186.545C471.602 196.234 484.946 207.743 494.044 198.655C501.321 191.39 496.469 179.277 510.419 177.457" fill="#F2EBC7"/>
<path d="M591.692 115.078C610.493 118.714 617.164 147.177 611.703 161.714C605.032 179.88 592.903 191.389 574.707 196.838C566.215 199.262 545.598 213.191 538.926 204.71C527.403 189.573 558.332 185.937 562.579 176.852C562.579 176.248 562.579 175.64 562.579 175.036" fill="#F2EBC7"/>
<path d="M369.582 188.525C410.844 198.678 434.164 238.805 463.774 265.647C464.516 266.317 465.625 265.222 464.879 264.54C435.27 237.574 411.528 197.045 369.84 187.594C369.235 187.453 368.973 188.377 369.582 188.525Z" fill="#592423"/>
<path d="M283.504 345.598C296.266 340.068 308.911 335.597 323.047 336.825C337.083 338.049 349.481 345.711 360.528 353.9C371.141 361.768 380.797 370.865 390.907 379.35C400.231 387.176 410.083 394.413 420.426 400.84C439.962 412.969 461.852 421.414 484.926 422.989C496.672 423.788 508.485 422.478 519.907 419.734C530.848 417.108 541.169 413.549 549.395 405.684C555.032 400.294 559.501 393.661 563.532 387.043C564.294 385.796 562.337 384.662 561.583 385.905C554.887 396.9 546.794 408.07 534.368 412.863C522.188 417.564 509.305 420.292 496.266 420.896C471.618 422.034 447.77 414.107 426.544 402.103C403.891 389.292 385.563 371.227 365.258 355.268C355.876 347.894 345.739 341.136 334.301 337.429C322.715 333.68 310.465 334.479 298.946 337.955C293.411 339.627 288.102 342.04 283.059 344.838C282.551 345.123 283.001 345.82 283.504 345.598Z" fill="#592423"/>
<path d="M394.013 141.081C405.395 153.397 418.099 163.191 435.021 166.052C435.942 166.208 436.337 164.801 435.407 164.641C418.763 161.823 406.099 152.36 394.536 140.555C394.2 140.216 393.688 140.731 394.013 141.081Z" fill="#592423"/>
<path d="M486.16 33.623C487.976 46.3403 476.152 53.6089 466.144 56.3332C457.047 58.1494 445.219 55.4251 436.121 59.9695C423.387 67.2381 434.305 77.231 427.933 85.4039C421.566 94.4887 407.008 88.1282 401.551 99.0331C395.183 111.75 408.828 112.658 411.558 121.743C415.199 135.369 397.914 135.369 393.363 125.376C391.547 121.743 396.094 118.107 393.363 114.475C390.637 110.842 383.355 111.75 378.808 109.026C348.785 90.8563 378.808 51.7927 400.64 41.7998" fill="#592423"/>
<path d="M533.013 140.821C537.56 143.997 540.747 148.542 546.657 145.813C550.298 143.997 554.403 141.787 552.692 140.166C550.981 138.549 535.286 138.549 533.013 140.821Z" fill="#592423"/>
<path d="M533.391 151.113C534.825 152.964 536.661 152.925 538.825 152.341C540.965 151.764 542.266 149.16 544.196 150.579C547.458 152.976 553.852 155.817 556.262 150.883C556.544 150.314 555.801 149.636 555.337 150.17C551.911 154.079 546.719 151.199 543.751 148.264C543.458 147.976 543.036 148.011 542.739 148.264C540.118 150.493 537.372 152.177 533.907 150.443C533.454 150.217 533.102 150.735 533.391 151.113Z" fill="#592423"/>
<path d="M513.922 126.404C514.575 129.545 518.723 132.815 521.418 134.245C524.411 135.828 528.614 135.052 530.293 132.008C530.575 131.502 530.032 131.057 529.555 131.272C527.836 132.032 526.621 133.166 524.633 133.248C522.926 133.314 521.247 132.168 519.969 131.178C518.055 129.689 516.747 126.938 514.59 125.893C514.223 125.714 513.84 126.002 513.922 126.404Z" fill="#592423"/>
<path d="M561.293 131.658C564.485 134.285 569.18 133.927 572.789 132.344C575.789 131.027 581.801 127.519 581.36 123.559C581.301 123.037 580.774 122.815 580.364 123.15C579.258 124.043 578.739 125.403 577.829 126.502C576.664 127.905 575.133 128.95 573.582 129.869C569.832 132.083 565.809 132.204 561.813 130.766C561.321 130.59 560.883 131.323 561.293 131.658Z" fill="#592423"/>
<path d="M509.875 153.643C515.109 169.342 533.359 173.376 548.035 171.555C565.214 169.428 584.074 160.132 593.453 145.104C593.867 144.441 592.882 143.666 592.359 144.262C586.339 151.133 580.382 157.139 572.371 161.734C565.687 165.565 558.289 168.067 550.73 169.49C535.89 172.28 516.925 169.143 510.66 153.429C510.468 152.957 509.711 153.14 509.875 153.643Z" fill="#BA6A51"/>
<path d="M484.778 193.377C483.918 197.017 486.508 198.654 489.817 199.496C492.926 200.291 495.16 197.337 496.086 194.811C497.844 190.025 498.938 185.294 501.403 180.737C502.797 178.161 504.547 175.819 506.641 173.769C509.289 171.173 512.102 170.951 515.446 170.059C516.094 169.883 516.024 169.018 515.446 168.811C508.7 166.422 502.551 174.942 499.809 179.81C498.071 182.889 496.801 186.268 495.785 189.643C495.313 191.214 495.028 192.816 494.489 194.371C493.957 195.898 493.078 197.301 491.492 197.917C488.821 198.95 485.785 195.969 485.739 193.505C485.731 192.964 484.907 192.831 484.778 193.377Z" fill="#BA6A51"/>
<path d="M579.449 157.584C569.692 163.352 568.465 172.991 564.281 182.477C562.754 185.938 560.465 189.204 560.227 193.078C560.004 196.663 563.992 197.953 566.86 197.373C567.578 197.225 567.5 196.192 566.86 196.005C564.465 195.299 561.793 195.268 562.367 191.858C562.641 190.201 563.473 188.635 564.184 187.138C565.231 184.948 566.324 182.843 567.078 180.532C569.918 171.849 572.332 164.276 579.961 158.453C580.461 158.071 580.028 157.241 579.449 157.584Z" fill="#BA6A51"/>
<path d="M568.11 190.68C567.852 192.566 567.199 194.433 567.571 196.351C567.934 198.233 570.414 199.118 571.981 198.112C572.402 197.84 572.356 197.161 571.836 197.025C570.36 196.635 569.039 197.282 568.903 195.259C568.805 193.763 569.055 192.286 568.895 190.785C568.848 190.376 568.172 190.197 568.11 190.68Z" fill="#BA6A51"/>
<path d="M501.168 257.365C503.258 260.342 509.012 264.041 512.691 261.901C512.933 261.761 512.848 261.445 512.621 261.356C510.937 260.697 509.039 260.841 507.305 260.229C505.207 259.489 503.695 257.852 501.89 256.648C501.461 256.363 500.867 256.936 501.168 257.365Z" fill="#BA6A51"/>
<path d="M499.484 71.9337C500.859 69.4081 502.488 74.806 502.883 76.0259C503.609 78.2669 503.644 80.3559 503.402 82.6905C502.984 86.7048 502.652 91.8416 507.75 92.6522C508.769 92.812 509.371 91.5726 508.461 90.9647C504.273 88.178 506.019 84.1559 506.121 79.9155C506.172 77.6044 505.34 75.2776 504.488 73.1691C503.168 69.8914 499.859 66.0954 497.394 70.7138C496.668 72.0857 498.738 73.3016 499.484 71.9337Z" fill="#D44E48" fill-opacity="0.498"/>
<path d="M616.06 79.0079C612.009 77.8854 607.677 78.2401 605.177 82.0673C603.774 84.2148 603.052 86.6351 602.384 89.0905C601.755 91.4172 600.036 92.7072 598.22 94.1961C596.524 95.5835 598.954 98.0194 600.63 96.6046C603.185 94.4494 604.728 92.5903 605.466 89.3321C606.743 83.7042 609.2 79.8458 615.54 80.902C616.763 81.1008 617.302 79.3547 616.06 79.0079Z" fill="#D44E48" fill-opacity="0.498"/>
<path d="M393.863 617.375C392.704 629.159 384.019 639.001 381.776 650.637C380.794 655.722 380.973 661.299 378.032 665.563C374.936 670.054 369.196 671.855 363.782 672.614C360.038 673.139 356.039 673.272 352.658 671.588C349.283 669.904 346.818 665.885 348.031 662.328C349.806 657.1 356.671 656.998 362.1 655.008C367.179 646.553 370.661 636.915 367.836 627.748C365.892 621.448 361.222 616.316 357.415 610.856C348.948 598.724 344.5 584.119 344.573 569.549C339.066 576.921 333.238 584.082 327.018 590.916C327.536 597.676 327.346 604.484 326.445 611.207C325.825 615.83 324.841 620.493 322.545 624.608C319.001 630.967 312.634 635.481 308.614 641.57C304.871 647.236 302.815 654.567 296.623 657.703C293.076 659.498 288.857 659.483 284.851 659.357C281.651 659.261 277.832 658.76 276.433 656.002C274.745 652.694 278.007 648.936 281.503 647.401C283.321 646.6 285.31 646.067 287.178 645.372C290.833 640.396 293.846 634.853 293.771 628.862C293.742 626.433 293.189 624.042 292.732 621.646C291.021 622.876 289.274 624.065 287.515 625.235C256.423 645.793 216.336 657.067 178.986 649.665C151.16 669.12 119.311 683.561 85.1908 686.037C69.0619 687.204 52.0186 685.839 37.585 692.821C34.1922 694.461 30.9827 696.551 27.3228 697.541C23.6584 698.533 19.2697 698.175 16.7052 695.477C15.6166 694.333 14.9104 692.829 13.5795 691.961C11.6126 690.659 8.8445 691.106 6.76445 689.976C3.50291 688.216 3.61834 683.318 6.04243 680.583C7.06548 679.422 8.35108 678.554 9.76117 677.866C8.23791 677.426 6.76445 676.837 5.40189 676.03C1.83932 673.914 -0.806584 669.823 0.225521 665.93C1.25763 662.052 5.51732 659.687 9.65479 659.059C13.7809 658.432 18.0022 659.105 22.1849 659.005C40.2965 658.573 54.368 644.439 70.7572 637.065C81.6758 632.16 93.7577 630.248 105.251 626.763C110.174 625.263 115.104 623.377 119.626 620.943C114.809 619.17 110.387 616.409 106.849 612.824C103.85 609.781 101.36 605.474 102.909 601.569C104.024 598.766 106.915 596.993 108.576 594.449C111.509 589.942 110.065 584.011 111.713 578.941C114.375 570.723 124.402 566.397 129.051 559.338C128.292 553.821 127.921 548.251 127.964 542.68C127.98 540.494 128.734 537.617 131.013 537.58C132.846 537.541 133.928 539.453 134.802 540.993C137.129 545.069 140.945 548.344 145.438 550.108C149.718 551.784 154.444 552.09 158.875 553.376C161.711 554.197 164.552 555.607 166.535 557.637C167.116 557.324 167.707 557.027 168.296 556.736C170.213 555.803 172.472 554.989 174.472 555.759C176.593 556.571 177.616 558.845 178.279 560.929C178.626 562.025 178.936 563.131 179.189 564.243C191.156 569.878 204.385 574.412 216.524 569.907C225.704 566.499 232.112 558.537 237.338 550.555C247.231 535.455 254.653 519.025 262.819 503.011C270.585 487.803 279.831 472.112 295.287 463.872C311.161 455.4 330.411 456.413 348.592 457.993C354.156 447.55 350.462 433.401 341.393 425.096C331.284 415.825 316.387 412.808 302.406 413.468C269.953 414.987 239.305 435.562 226.754 464.23C225.025 468.189 223.561 472.373 220.596 475.593C217.637 478.805 212.651 480.81 208.588 479.003C204.023 476.956 202.74 471.324 202.821 466.505C203.129 448.922 213.919 432.897 227.155 420.705C245.52 403.782 269.775 392.207 295.231 390.868C320.687 389.529 347.069 399.119 363.314 417.925C377.697 434.577 382.989 458.434 376.007 478.792C389.795 490.448 395.406 512.482 393.645 529.281C391.694 547.999 384.216 566.53 387.582 585.538C389.483 596.253 394.931 606.554 393.863 617.375Z" fill="#D5CFD1"/>
<path d="M129.726 609.117C129.357 611.144 127.709 612.743 125.989 613.989C122.626 616.404 118.61 617.984 114.45 618.575C111.648 617.008 109.075 615.079 106.85 612.824C103.851 609.781 101.361 605.473 102.909 601.569C104.025 598.765 106.916 596.992 108.577 594.449C108.799 594.11 108.996 593.757 109.165 593.407C111.827 593.639 114.455 594.197 116.981 595.074C122.157 596.879 127.021 600.252 129.095 605.135C129.629 606.398 129.973 607.776 129.726 609.117Z" fill="#EBE3CB"/>
<path d="M220.596 475.593C223.561 472.373 225.026 468.188 226.755 464.23C226.805 464.122 226.855 464.022 226.902 463.909C224.118 461.81 221.044 460.055 217.785 458.716C213.526 456.96 208.965 455.91 204.343 455.597C203.419 459.145 202.888 462.791 202.822 466.504C202.74 471.324 204.024 476.956 208.589 479.002C212.652 480.81 217.638 478.805 220.596 475.593ZM217.991 569.312C219.17 571.983 219.098 575.015 219.424 577.917C219.856 581.74 221.022 585.484 222.848 588.917C223.939 590.979 225.438 593.054 227.712 593.822C230.236 594.668 233.136 593.633 235.021 591.808C236.895 589.989 237.92 587.522 238.64 585.063C241.619 574.907 240.091 563.648 234.645 554.485C230.227 560.623 224.926 566.28 217.991 569.312ZM227.156 420.705C224.994 422.695 222.896 424.798 220.897 426.981C229.424 429.288 237.28 433.83 243.472 439.911C246.741 436.619 250.278 433.579 254.056 430.814C247.698 424.553 239.631 419.876 230.883 417.424C229.616 418.489 228.369 419.585 227.156 420.705ZM276.719 411.712C278.292 413.444 279.752 415.293 281.054 417.235C285.517 415.855 290.089 414.831 294.725 414.179C291.612 406.037 286.278 398.689 279.431 393.022C273.107 394.405 266.93 396.386 260.968 398.886C266.733 402.576 272.183 406.712 276.719 411.712ZM320.219 480.821C319.936 473.981 314.857 468 308.705 464.508C306.297 463.145 303.74 462.092 301.096 461.231C299.113 461.99 297.18 462.861 295.288 463.872C279.831 472.112 270.586 487.802 262.82 503.011C260.688 507.18 258.617 511.379 256.537 515.568C258.044 517.332 259.699 518.964 261.582 520.37C266.391 523.96 273.066 525.856 278.718 523.654C283.772 521.681 288.392 516.62 293.561 518.304C297.608 519.619 299 524.266 300.252 528.168C301.506 532.078 304.296 536.551 308.556 536.193C309.835 536.082 311.041 535.503 312.058 534.758C316.756 531.31 317.544 524.808 316.731 519.196C315.914 513.595 313.907 508.048 314.495 502.412C315.283 494.986 320.534 488.278 320.219 480.821ZM352.242 407.621C351.782 415.113 349.127 422.487 344.714 428.689C343.707 427.407 342.602 426.2 341.393 425.095C338.815 422.728 335.916 420.77 332.804 419.171C333.385 411.226 332.222 403.164 329.461 395.655C337.686 398.47 345.424 402.48 352.242 407.621Z" fill="#B4B3B2"/>
<path d="M111.485 602.511C109.528 605.168 105.958 606.546 102.669 605.984C102.319 604.517 102.334 603.013 102.909 601.57C103.222 600.78 103.679 600.066 104.211 599.399C106.456 599.81 108.699 600.209 110.944 600.615C111.214 600.662 111.492 600.725 111.689 600.903C112.115 601.32 111.836 602.034 111.485 602.511Z" fill="#3E393A"/>
<path d="M169.394 581.158C168.95 581.968 168.364 582.821 167.445 583.061C166.454 583.313 165.444 582.788 164.593 582.248C162.482 580.915 160.49 579.42 158.638 577.775C157.206 576.49 157.249 574.303 158.747 573.081C161.671 570.683 164.67 568.372 167.724 566.136C168.353 565.683 169.075 565.208 169.853 565.301C171.092 565.448 171.623 566.874 171.795 568.057C172.418 572.515 171.574 577.161 169.394 581.158Z" fill="#F49274"/>
<path d="M141.382 579.296C140.927 581.796 136.986 583.226 132.586 582.49C128.184 581.757 124.986 579.133 125.445 576.631C125.9 574.131 129.841 572.698 134.241 573.436C138.643 574.172 141.841 576.796 141.382 579.296Z" fill="#B4B3B2"/>
<path d="M9.14484 665.486C5.02774 665.588 1.84089 669.173 2.57423 673.049C2.68739 673.642 3.88699 673.744 3.973 673.092C4.34872 670.213 6.65737 667.693 9.56809 666.936C10.702 666.638 10.1181 665.464 9.14484 665.486ZM129.238 559.849C133.726 556.472 138.642 554.844 144.26 554.202C145.15 554.102 145.353 553.032 144.364 552.891C138.31 552.027 132.083 554.773 128.543 559.478C128.247 559.87 128.973 560.046 129.238 559.849ZM216.476 627.358C209.283 624.65 201.08 628.611 195.347 632.667C192.158 634.926 189.29 637.575 186.407 640.175C183.107 643.146 179.062 646 176.642 649.698C176.07 650.573 177.541 650.946 178.145 650.612C184.587 647.033 189.532 640.683 195.213 636.095C201.585 630.948 207.963 628.45 216.279 628.027C216.668 628.009 216.921 627.525 216.476 627.358ZM101.36 603.866C95.3799 605.027 90.4978 609.094 87.4218 614.012C86.8967 614.854 88.463 615.184 88.9405 614.537C92.279 609.995 96.8692 607.189 102.089 604.951C103.028 604.55 102.041 603.734 101.36 603.866ZM83.359 605.283C90.8644 597.831 101.118 597.883 110.074 602.818C110.375 602.987 111.21 602.723 110.798 602.341C102.575 594.76 89.3389 596.789 82.0825 604.474C81.365 605.233 82.7524 605.887 83.359 605.283ZM122.882 605.763C122.002 605.813 122.104 606.824 122.962 606.82C132.588 606.792 141.299 611.11 147.757 617.792C148.273 618.328 149.57 617.825 149.029 617.093C143.051 609.025 133.056 605.199 122.882 605.763ZM104.599 607.356C104.286 606.844 103.182 607.017 103.401 607.688C105.984 615.642 117.545 612.768 119.555 605.967C119.829 605.036 118.283 605.066 117.878 605.589C116.3 607.61 114.257 609.88 111.525 610.39C108.788 610.898 105.995 609.652 104.599 607.356ZM137.549 632.905C131.931 640.627 123.102 645.019 114.091 648.162C103.567 651.834 92.5688 654.336 81.795 657.237C57.6017 663.752 33.2929 669.974 9.215 676.877C7.69174 677.311 8.45224 679.317 9.9325 678.945C35.6378 672.513 61.1665 665.319 86.7451 658.437C97.5935 655.516 108.797 653.062 119.222 648.891C127.257 645.677 135.182 641.158 139.041 633.424C139.477 632.543 138.015 632.263 137.549 632.905ZM168.564 605.845C172.199 605.787 176.332 605.047 178.627 602.757C181.509 599.88 178.487 595.029 176.036 592.833C180.27 583.885 182.276 574.25 180.295 564.512C180.141 563.744 178.688 563.831 178.731 564.636C179.236 574.256 178.138 583.629 174.354 592.601C174.334 592.655 174.325 592.705 174.318 592.751C174.13 592.911 174.062 593.139 174.232 593.443C175.649 595.96 178.322 600.019 175.354 602.156C172.815 603.986 168.478 603.996 165.518 603.682C164.413 603.565 163.417 604.782 164.495 605.522C165.529 606.227 169.012 608.714 168.836 610.16C168.551 612.54 165.792 611.52 164.284 611.306C160.421 610.752 156.711 609.626 153.103 608.213C152.331 607.909 151.118 608.981 152.091 609.444C155.332 610.987 158.651 612.158 162.202 612.87C164.486 613.328 167.795 614.305 170.065 613.298C173.634 611.711 171.079 608.207 168.564 605.845ZM144.729 618.608C142.311 619.431 139.953 619.999 137.626 620.368C133.674 616.514 128.921 613.411 123.679 611.125C122.785 610.737 121.848 611.913 122.898 612.382C127.588 614.476 131.732 617.297 135.335 620.663C129.521 621.254 123.806 620.631 117.622 619.42C117.244 619.346 116.957 619.767 117.348 619.971C123.154 622.966 130.288 623.424 136.922 622.211C139.627 624.984 142.01 628.074 144.056 631.41C144.405 631.981 145.738 631.731 145.396 631.024C143.724 627.606 141.558 624.513 139 621.77C141.243 621.23 143.407 620.511 145.412 619.635C146.227 619.277 145.426 618.369 144.729 618.608ZM141.223 590.711C141.444 589.365 139.265 589.348 138.71 590.264C137.531 592.21 135.971 594.044 133.518 594.448C130.551 594.936 127.891 593.007 126.685 590.544C126.284 589.725 124.625 590.142 124.951 591.084C127.411 598.243 139.864 598.905 141.223 590.711ZM360.76 660.134C359.449 661.489 358.643 663.398 357.892 665.069C357.057 666.921 355.835 669.323 356.428 671.315C356.595 671.882 357.691 671.877 358.021 671.48C359.49 669.709 359.78 667.144 360.665 665.056C361.099 664.041 361.543 662.975 362.136 662.035C363.569 659.787 366.364 660.49 368.349 661.853C368.548 661.99 369.062 661.803 368.826 661.554C366.624 659.255 363.494 657.315 360.76 660.134ZM289.271 647.76C285.681 650.087 284.137 654.327 283.805 658.288C283.753 658.93 284.993 658.936 285.233 658.47C286.582 655.822 287.399 652.66 289.504 650.434C291.76 648.047 294.155 648.246 297.186 648.188C297.394 648.181 297.77 647.958 297.618 647.702C296.034 645.019 291.342 646.415 289.271 647.76ZM17.5669 682.385C14.7196 684.725 13.0152 688.323 14.1266 691.871C14.3506 692.581 15.72 692.283 15.7087 691.574C15.6566 688.423 16.2858 685.406 18.676 683.104C19.3437 682.459 18.1305 681.921 17.5669 682.385ZM326.186 590.635C316.879 603.276 305.893 614.198 291.477 621.505C290.287 622.109 291.69 623.168 292.65 622.732C307.289 616.095 320.643 605.292 327.85 591.197C328.348 590.218 326.705 589.934 326.186 590.635ZM148.782 571.613C154.887 567.21 161.088 562.887 166.885 558.113C167.478 557.622 166.466 557.197 165.995 557.514C159.764 561.748 153.888 566.455 147.963 571.06C147.415 571.485 148.339 571.934 148.782 571.613ZM371.438 471.321C367.19 462.02 356.457 456.978 346.136 457.94C345.443 458.005 345.491 458.801 346.186 458.786C356.131 458.543 364.607 463.905 369.623 471.898C370.11 472.679 371.889 472.306 371.438 471.321ZM349.069 514.169C345.217 532.541 345.237 550.875 347.005 569.469C347.13 570.788 344.644 571.123 344.416 569.816C341.175 551.383 342.816 532.11 347.107 513.958C347.331 513.008 349.291 513.116 349.069 514.169Z" fill="#3E393A"/>
</svg>
