<svg width="191" height="393" viewBox="0 0 191 393" fill="none" xmlns="http://www.w3.org/2000/svg">
<ellipse cx="95.3708" cy="382.236" rx="94.761" ry="9.84126" fill="#7D7D7D"/>
<path d="M172.416 144.987L175.291 144.342C175.291 144.342 179.757 148.635 174.627 153.079L172.416 144.987Z" fill="#FFB27D"/>
<path d="M172.417 144.986C172.417 144.986 169.846 144.733 167.466 143.826C165.086 142.918 161.622 142.817 159.653 141.627C157.683 140.44 158.15 142.444 159.055 143.688C159.96 144.935 164.289 146.609 163.17 147.07C162.051 147.534 157.242 146.7 155.566 145.631C152.107 143.426 153.234 151.713 155.681 153.854C157.68 155.602 164.606 156.463 166.494 155.915C168.382 155.367 174.628 153.078 174.628 153.078L172.417 144.986Z" fill="#FFB27D"/>
<path d="M55.1816 353.517C55.1816 353.517 48.9225 359.219 50.1436 363.267C51.365 367.318 57.0136 370.017 57.7768 374.966C58.54 379.915 61.5935 382.614 64.3413 382.614C67.0895 382.614 77.4423 382.614 77.4423 382.614C77.4423 382.614 79.465 379.131 74.5799 378.082C69.6944 377.03 67.8527 371.217 68.1579 365.815C68.4636 360.416 67.7 353.218 67.7 353.218L57.3189 350.817L55.1816 353.517Z" fill="#6C4F54"/>
<path d="M108.16 356.525C108.16 356.525 105.908 380.67 108.656 382.019L143.824 381.948C143.824 381.948 143.824 377.897 138.175 376.996C132.526 376.098 122.603 372.797 120.924 365.448C119.245 358.099 108.16 356.525 108.16 356.525Z" fill="#6C4F54"/>
<path d="M136.875 157.795C136.875 157.795 147.014 189.282 147.665 200.003C148.317 210.724 128.284 352.296 127.478 357.238C126.718 361.891 120.923 364.859 120.923 364.859C120.923 364.859 118.258 366.429 114.454 365.357C109.176 363.871 107.508 362.089 107.508 362.089C107.508 362.089 99.6165 261.122 104.5 225.053C109.384 188.986 109.441 157.795 109.441 157.795H136.875Z" fill="#4B3539"/>
<path d="M93.918 156.857C93.918 156.857 78.452 177.56 77.0102 191.555C75.5684 205.554 74.7483 254.714 71.6766 268.36C68.605 282.003 57.3188 308.262 57.3188 350.817C57.3188 350.817 58.4918 353.258 62.114 354.555C63.2724 354.972 64.8244 355.376 66.3312 355.719C69.3183 356.404 72.3832 354.945 73.7465 352.209C81.3768 336.879 105.682 287.442 106.928 277.182C107.81 269.92 115.484 221.856 132.224 193.653C136.243 186.882 129.757 159.953 129.757 159.953L93.918 156.857Z" fill="#704E55"/>
<path d="M91.6442 7.02027C91.2733 6.12265 86.9374 -3.41497 72.2177 1.78919C72.2177 1.78919 79.6882 -0.143856 82.1251 2.59942C82.1251 2.59942 75.7746 0.521786 72.2908 3.36592C68.8071 6.2067 69.137 14.2617 69.9874 16.6184C70.8379 18.9751 75.8554 25.6752 78.6093 25.329C79.6525 25.1978 80.725 24.7003 81.656 24.1355C81.3868 25.4735 81.1722 26.9158 81.0377 28.4858C79.7957 43.0023 90.226 52.6105 94.6421 49.3562C97.4742 47.2718 100.421 52.4424 100.421 52.4424L121.526 14.9509C121.526 14.9509 101.397 -4.52773 91.6442 7.02027Z" fill="#86482A"/>
<path d="M131.234 95.3279C111.245 104.516 96.2179 72.0905 97.5229 71.7577C99.5214 69.4313 101.582 61.151 100.118 49.2264L101.155 49.3003L118.537 50.6249C118.537 50.6249 118.808 56.172 119.408 61.3426C119.805 64.7448 120.349 67.9857 121.054 69.3977C121.262 69.8179 125.029 70.376 125.038 70.386C125.331 70.7155 136.567 92.8804 131.234 95.3279Z" fill="#FFB27D"/>
<path d="M145.405 105.404C146.7 110.279 147.763 114.646 148.285 117.587C150.693 131.149 149.483 200.098 149.483 200.098C114.211 213.518 71.9786 196.242 71.9786 196.242C70.6682 183.386 75.6881 154.796 78.7362 129.357C79.4839 123.121 80.1123 117.083 80.5028 111.506C80.8435 106.644 81.3981 102.324 82.1131 98.485C87.1822 71.2975 100.221 68.3122 100.221 68.3122C106.318 80.4855 125.555 83.7634 125.555 83.7634C125.794 76.9119 123.637 68.1845 123.637 68.1845C126.073 68.4837 134.287 69.5191 136.507 70.6218C143.095 73.8996 158.71 101.376 158.71 101.376C158.71 101.376 162.754 99.5407 145.405 105.404Z" fill="#FEA273"/>
<path d="M118.54 50.6289C118.54 50.6289 118.807 56.1693 119.41 61.3466C109.879 62.2644 103.799 53.9875 101.155 49.3044L118.54 50.6289Z" fill="#ED985F"/>
<path d="M122.295 55.1305C122.295 55.1305 99.8675 58.3344 98.1409 43.9422C96.4144 29.5501 92.3572 20.2713 106.603 17.6154C120.85 14.9596 124.296 20.0999 126.008 24.7594C127.721 29.4189 128.084 53.9236 122.295 55.1305Z" fill="#FFB27D"/>
<path d="M124.388 16.8402C120.4 12.9472 117.888 14.228 116.572 15.714C103.463 10.3148 96.7683 21.5771 96.7683 21.5771C96.493 32.093 89.9531 38.921 89.9531 38.921C89.9531 38.921 94.3584 41.0053 103.505 37.3241C106.298 36.1979 108.623 33.7672 110.508 30.9332C107.469 37.9998 102.832 43.4023 102.832 43.4023C113.474 36.6215 116.086 19.9197 116.334 18.1581C117.857 19.254 120.888 21.6645 122.033 24.2599C123.589 27.7831 124.99 35.2666 127.098 34.7388C127.098 34.7388 130.37 22.6798 124.388 16.8402Z" fill="#86482A"/>
<path d="M100.127 64.036C100.127 64.036 97.4965 66.2582 97.4894 69.5562C97.4894 69.5562 101.593 81.0876 125.555 83.7637C125.555 83.7637 102.658 72.6122 100.127 64.036Z" fill="#EDEDED"/>
<path d="M120.482 68.7293C120.482 68.7293 125.727 78.1998 125.555 83.7637C125.555 83.7637 125.965 71.1196 125.109 68.1847C124.252 65.2498 119.587 62.7821 119.587 62.7821L120.482 68.7293Z" fill="#EDEDED"/>
<path d="M115.24 47.5774C115.446 47.5774 117.363 49.339 119.896 48.8482C122.429 48.354 122.406 46.31 122.406 46.31C122.406 46.31 120.676 46.031 119.156 46.31C117.636 46.5924 115.24 47.5774 115.24 47.5774Z" fill="white"/>
<path d="M122.711 32.8049C122.421 32.9708 122.271 33.2952 122.205 33.6561C122.173 33.7134 122.147 33.7866 122.147 33.8755C122.135 34.0838 122.146 34.3138 122.19 34.5209C122.195 34.5571 122.201 34.5933 122.201 34.6277C122.216 34.7081 122.242 34.7722 122.281 34.8198C122.396 35.0657 122.585 35.2413 122.903 35.2768C123.62 35.3419 123.854 34.4643 123.817 33.8551C123.781 33.2601 123.383 32.4226 122.711 32.8049ZM122.985 34.2571C122.976 34.1442 122.972 34.0332 122.987 33.9218C122.993 33.9378 122.994 33.9519 122.992 33.958C123.008 34.0526 123.003 34.1537 122.985 34.2571Z" fill="black"/>
<path d="M111.186 33.5461C110.895 33.712 110.745 34.0364 110.679 34.3973C110.647 34.4546 110.621 34.5279 110.621 34.6167C110.609 34.825 110.62 35.055 110.664 35.2621C110.669 35.2983 110.675 35.3345 110.675 35.3689C110.69 35.4493 110.716 35.5134 110.755 35.561C110.87 35.8069 111.059 35.9825 111.377 36.018C112.094 36.0831 112.328 35.2055 112.291 34.5963C112.255 34.0013 111.858 33.1638 111.186 33.5461ZM111.459 34.9983C111.45 34.8854 111.446 34.7744 111.461 34.663C111.467 34.679 111.468 34.6931 111.466 34.6992C111.482 34.7938 111.477 34.8949 111.459 34.9983Z" fill="black"/>
<path d="M160.553 90.8407C160.553 90.8407 164.341 84.3927 162.329 78.8087C161.593 76.7647 160.491 74.6097 159.389 72.6968C158.215 70.6595 157.545 71.1268 156.613 73.2919C155.888 74.9762 154.303 76.8016 153.975 78.0186C152.955 81.7873 151.87 84.3187 154.5 87.7646C157.131 91.2139 160.553 90.8407 160.553 90.8407Z" fill="#0D0D0D"/>
<path d="M167.993 148.3C167.993 148.3 183.052 132.761 165.396 118.705C161.08 115.269 146.595 100.776 155.341 97.9458C159.793 96.5036 161.934 93.5384 162.962 90.9699C163.104 90.6102 163.229 90.2606 163.332 89.9211C163.331 89.9177 163.331 89.9177 163.331 89.9177C163.945 87.9275 163.913 86.3911 163.913 86.3911C163.913 86.3911 164.352 83.157 159.85 79.6405C158.611 78.6756 157.002 77.6906 154.909 76.7459C154.905 76.7425 154.9 76.7392 154.895 76.7392C154.442 76.5307 153.968 76.329 153.467 76.1273C148.553 74.1573 146.924 76.0567 144.847 74.8834C142.952 73.8076 140.577 72.3654 140.18 72.12C140.143 72.0998 140.123 72.0864 140.123 72.0864C140.123 72.0864 137.736 69.9079 136.595 72.4898C136.474 72.7655 136.358 73.0277 136.249 73.2798C135.461 75.0885 135.072 76.208 135.4 77.2334C135.651 78.01 137.351 79.627 138.731 80.5684C139.805 81.3046 142.408 82.888 142.53 83.0091C142.865 83.3419 140.414 83.2847 134.777 80.1111C134.675 80.054 134.571 80.0002 134.468 79.943C134.196 79.7884 133.852 79.8724 133.676 80.1279C133.357 80.5952 133.013 81.4256 133.466 82.5216C134.186 84.2731 139.275 86.9962 137.778 87.9981C137.462 88.2132 137.023 88.3208 136.503 88.3847C136.5 88.3813 136.5 88.3813 136.5 88.3813C134.576 88.6099 131.58 88.1594 129.752 89.763C129.752 89.763 131.992 90.0017 133.194 90.9262C133.194 90.9262 128.139 89.9816 126.815 92.0727C126.815 92.0727 127.636 91.9079 128.615 92.503C128.615 92.503 123.289 93.9317 120.877 99.0451C120.667 99.4923 120.478 99.9629 120.318 100.467C118.555 105.984 119.42 102.814 124.703 113.982C127.655 120.218 143.275 136.795 152.368 139.058C163.643 141.865 167.993 148.3 167.993 148.3Z" fill="#3D3D3E"/>
<path d="M138.35 80.951C138.35 80.951 134.769 79.3474 134.349 80.2887C133.929 81.2267 143.986 84.9888 144.216 84.3702C144.445 83.7482 139.627 81.5158 138.35 80.951Z" fill="#E57970"/>
<path d="M159.743 87.8242C159.743 87.8242 164.653 87.7032 166.059 82.2266C166.599 80.1254 165.647 77.6645 165.208 75.5028C164.741 73.1999 163.957 73.4319 162.386 75.1902C161.164 76.5618 159.082 77.7923 158.384 78.8412C156.223 82.0955 159.743 87.8242 159.743 87.8242Z" fill="#3D3D3E"/>
<path d="M135.955 97.6789C135.955 97.6789 119.593 96.2535 115.603 91.9537C115.603 91.9537 115.797 88.4641 115.129 87.2572C114.461 86.0502 111.589 85.1694 110.121 85.9259C108.653 86.6856 111.931 94.0246 112.659 94.7474C113.388 95.4702 125.227 115.309 131.221 117.904C133.711 118.983 130.916 109.624 133.667 107.593C136.418 105.563 135.955 97.6789 135.955 97.6789Z" fill="#3D3D3E"/>
<path d="M146.106 91.1483C146.106 91.1483 129.844 88.8454 126.093 84.3337C126.093 84.3337 126.475 80.8642 125.874 79.6203C125.272 78.3797 122.452 77.3443 120.945 78.0234C119.438 78.7025 122.314 86.2063 123.003 86.9661C123.692 87.7292 134.44 108.176 140.286 111.091C142.713 112.301 140.429 102.804 143.285 100.925C146.142 99.0454 146.106 91.1483 146.106 91.1483Z" fill="#3D3D3E"/>
<path d="M140.18 72.1201C139.403 72.7958 137.784 73.9287 136.25 73.2799C136.358 73.0278 136.474 72.7655 136.596 72.4899C137.737 69.9082 140.123 72.0865 140.123 72.0865C140.123 72.0865 140.143 72.0999 140.18 72.1201Z" fill="black"/>
<path d="M158.909 79.7458C158.909 79.7458 159.329 79.1138 160.578 78.233C161.827 77.3522 162.926 75.3116 163.159 75.4965C163.393 75.6813 162.963 81.9142 160.582 82.4756C160.582 82.4756 158.958 82.1629 158.909 79.7458Z" fill="#0D0D0D"/>
<path d="M137.451 145.366C141.267 143.933 158.418 152.409 166.08 147.931C170.095 145.584 171.705 137.808 172.328 130.94C172.982 123.722 165.625 118.41 158.964 121.298C155.432 122.831 151.598 125.339 147.957 129.403C142.28 135.74 136.907 136.863 132.778 136.914C131.691 135.919 130.181 134.903 128.58 134.977C125.492 135.122 125.05 138.03 125.05 138.03C123.718 142.226 133.635 146.798 137.451 145.366Z" fill="#3D3D3E"/>
<path d="M151.39 78.3192C151.137 78.1003 150.781 78.0657 150.418 78.1233C150.353 78.1118 150.275 78.1118 150.191 78.1406C149.99 78.1982 149.776 78.2846 149.594 78.394C149.562 78.4113 149.529 78.4286 149.497 78.4401C149.426 78.4804 149.374 78.5265 149.341 78.5784C149.147 78.7684 149.043 79.0046 149.114 79.3156C149.29 80.0126 150.197 79.9435 150.761 79.7073C151.312 79.4769 151.973 78.826 151.39 78.3192ZM150.106 79.0564C150.21 79.0104 150.314 78.97 150.424 78.947C150.411 78.9585 150.398 78.9643 150.392 78.9643C150.307 79.0104 150.21 79.0392 150.106 79.0564Z" fill="#FEFEF8"/>
<path d="M105.005 163.035H176.151V107.194H105.005V163.035Z" fill="#946D46"/>
<path d="M96.8272 91.918C91.4022 86.35 84.2914 90.5371 82.6753 98.133C78.1909 119.212 74.9763 150.748 80.8242 155.42C89.6074 162.433 134.756 153.809 134.756 153.809L132.135 145.844C132.135 145.844 98.6227 143.031 98.6492 141.398C98.6759 139.765 102.738 97.9841 102.738 97.9841L96.8272 91.918Z" fill="#FFB27D"/>
<path d="M132.136 145.842C132.136 145.842 134.143 144.217 135.627 142.152C137.111 140.086 139.946 138.096 140.935 136.021C141.922 133.95 142.639 135.876 142.571 137.413C142.504 138.95 139.814 142.729 141.004 142.498C142.193 142.269 146.467 137.935 147.491 136.552C148.673 134.956 152.479 140.233 150.999 144.041C149.518 147.85 144.991 151.127 143.113 151.707C141.235 152.286 134.757 153.808 134.757 153.808L132.136 145.842Z" fill="#FFB27D"/>
<path d="M105.856 78.0171C105.856 78.0171 95.6604 77.8524 90.7261 81.2278C85.7915 84.6031 79.5173 99.1607 76.6334 120.191C76.6334 120.191 97.2075 121.705 110.553 115.678C110.553 115.678 116.682 79.1288 105.856 78.0171Z" fill="#FEA273"/>
</svg>
