<svg width="201" height="414" viewBox="0 0 201 414" fill="none" xmlns="http://www.w3.org/2000/svg">
<ellipse cx="100.844" cy="402.949" rx="99.8945" ry="10.3744" fill="#7D7D7D"/>
<path d="M182.062 152.846L185.093 152.166C185.093 152.166 189.802 156.692 184.394 161.377L182.062 152.846Z" fill="#FFB27D"/>
<path d="M182.063 152.846C182.063 152.846 179.353 152.581 176.844 151.624C174.335 150.667 170.684 150.561 168.608 149.306C166.531 148.055 167.023 150.167 167.977 151.478C168.931 152.793 173.495 154.558 172.315 155.044C171.136 155.533 166.066 154.654 164.3 153.527C160.653 151.202 161.841 159.938 164.421 162.196C166.528 164.039 173.83 164.946 175.82 164.368C177.81 163.791 184.394 161.377 184.394 161.377L182.063 152.846Z" fill="#FFB27D"/>
<path d="M58.4775 372.672C58.4775 372.672 51.8793 378.683 53.1665 382.95C54.4541 387.22 60.4088 390.066 61.2133 395.283C62.0179 400.5 65.2367 403.346 68.1334 403.346C71.0304 403.346 81.9441 403.346 81.9441 403.346C81.9441 403.346 84.0764 399.674 78.9266 398.568C73.7765 397.459 71.835 391.331 72.1568 385.636C72.479 379.945 71.6741 372.357 71.6741 372.357L60.7306 369.826L58.4775 372.672Z" fill="#6C4F54"/>
<path d="M114.326 375.844C114.326 375.844 111.952 401.297 114.849 402.718L151.921 402.644C151.921 402.644 151.921 398.373 145.967 397.424C140.012 396.477 129.551 392.997 127.781 385.25C126.011 377.503 114.326 375.844 114.326 375.844Z" fill="#6C4F54"/>
<path d="M144.596 166.35C144.596 166.35 155.284 199.543 155.971 210.845C156.657 222.146 135.54 371.387 134.69 376.597C133.889 381.502 127.78 384.631 127.78 384.631C127.78 384.631 124.97 386.286 120.96 385.156C115.397 383.589 113.638 381.711 113.638 381.711C113.638 381.711 105.319 275.274 110.467 237.251C115.616 199.231 115.676 166.35 115.676 166.35H144.596Z" fill="#4B3539"/>
<path d="M99.3123 165.36C99.3123 165.36 83.0085 187.184 81.4886 201.938C79.9687 216.695 79.1041 268.519 75.866 282.904C72.628 297.285 60.7305 324.968 60.7305 369.827C60.7305 369.827 61.9669 372.4 65.7854 373.768C67.0066 374.208 68.6426 374.633 70.2311 374.995C73.38 375.718 76.6109 374.179 78.0481 371.295C86.0917 355.134 111.714 303.02 113.027 292.203C113.957 284.548 122.046 233.88 139.693 204.149C143.93 197.012 137.093 168.624 137.093 168.624L99.3123 165.36Z" fill="#704E55"/>
<path d="M96.9152 7.40436C96.5242 6.45811 91.9534 -3.59619 76.4363 1.8899C76.4363 1.8899 84.3115 -0.147869 86.8804 2.74402C86.8804 2.74402 80.1859 0.553829 76.5134 3.55204C72.841 6.54671 73.1887 15.0381 74.0852 17.5224C74.9818 20.0068 80.2711 27.0699 83.1742 26.7049C84.2739 26.5667 85.4045 26.0422 86.3859 25.4468C86.1021 26.8573 85.8759 28.3777 85.7341 30.0327C84.4249 45.3356 95.4202 55.4643 100.075 52.0337C103.061 49.8365 106.167 55.2871 106.167 55.2871L128.415 15.7646C128.415 15.7646 107.197 -4.76923 96.9152 7.40436Z" fill="#86482A"/>
<path d="M138.65 100.499C117.578 110.185 101.737 76.0027 103.113 75.6518C105.219 73.1993 107.392 64.4705 105.848 51.8999L106.941 51.9778L125.265 53.3742C125.265 53.3742 125.551 59.2218 126.183 64.6725C126.602 68.259 127.175 71.6755 127.919 73.1639C128.138 73.6069 132.108 74.1952 132.118 74.2059C132.427 74.5532 144.271 97.9188 138.65 100.499Z" fill="#FFB27D"/>
<path d="M153.589 111.118C154.953 116.257 156.075 120.861 156.625 123.962C159.162 138.258 157.887 210.942 157.887 210.942C120.704 225.09 76.1843 206.877 76.1843 206.877C74.8029 193.325 80.0947 163.187 83.3079 136.369C84.0961 129.795 84.7586 123.43 85.1702 117.551C85.5294 112.426 86.114 107.872 86.8678 103.825C92.2114 75.1645 105.957 72.0175 105.957 72.0175C112.383 84.8503 132.663 88.3057 132.663 88.3057C132.915 81.083 130.641 71.8828 130.641 71.8828C133.209 72.1982 141.869 73.2898 144.209 74.4522C151.153 77.9076 167.614 106.873 167.614 106.873C167.614 106.873 171.877 104.938 153.589 111.118Z" fill="#FEA273"/>
<path d="M125.268 53.3775C125.268 53.3775 125.55 59.218 126.186 64.6758C116.139 65.6433 109.73 56.918 106.942 51.9812L125.268 53.3775Z" fill="#ED985F"/>
<path d="M129.225 58.1218C129.225 58.1218 105.583 61.4993 103.763 46.3275C101.943 31.1557 97.6664 21.3742 112.684 18.5745C127.702 15.7747 131.335 21.1935 133.141 26.1055C134.946 31.0174 135.329 56.8496 129.225 58.1218Z" fill="#FFB27D"/>
<path d="M131.433 17.7567C127.229 13.6528 124.581 15.0031 123.193 16.5695C109.374 10.8779 102.317 22.7502 102.317 22.7502C102.027 33.8359 95.1328 41.0337 95.1328 41.0337C95.1328 41.0337 99.7767 43.231 109.418 39.3503C112.363 38.163 114.814 35.6008 116.801 32.6132C113.598 40.0626 108.71 45.7578 108.71 45.7578C119.928 38.6096 122.681 21.003 122.943 19.146C124.548 20.3013 127.744 22.8424 128.951 25.5783C130.591 29.2924 132.068 37.1814 134.29 36.625C134.29 36.625 137.739 23.9127 131.433 17.7567Z" fill="#86482A"/>
<path d="M105.858 67.5103C105.858 67.5103 103.085 69.8528 103.077 73.3295C103.077 73.3295 107.403 85.4856 132.663 88.3066C132.663 88.3066 108.525 76.5511 105.858 67.5103Z" fill="#EDEDED"/>
<path d="M127.315 72.4578C127.315 72.4578 132.845 82.4413 132.663 88.3066C132.663 88.3066 133.096 74.9776 132.193 71.8837C131.29 68.7898 126.372 66.1885 126.372 66.1885L127.315 72.4578Z" fill="#EDEDED"/>
<path d="M121.789 50.1592C122.006 50.1592 124.027 52.0162 126.697 51.4988C129.368 50.9778 129.343 48.8231 129.343 48.8231C129.343 48.8231 127.52 48.529 125.918 48.8231C124.315 49.1208 121.789 50.1592 121.789 50.1592Z" fill="white"/>
<path d="M129.666 34.5866C129.36 34.7615 129.201 35.1036 129.132 35.4841C129.098 35.5445 129.071 35.6218 129.071 35.7155C129.058 35.9351 129.07 36.1776 129.116 36.3959C129.122 36.4342 129.128 36.4724 129.128 36.5085C129.143 36.5934 129.171 36.6609 129.212 36.7112C129.334 36.9704 129.533 37.1556 129.868 37.193C130.624 37.2616 130.871 36.3363 130.832 35.694C130.794 35.0666 130.375 34.1835 129.666 34.5866ZM129.955 36.1178C129.945 35.9988 129.941 35.8817 129.956 35.7643C129.963 35.7811 129.964 35.796 129.962 35.8025C129.979 35.9022 129.974 36.0088 129.955 36.1178Z" fill="black"/>
<path d="M117.516 35.3678C117.209 35.5428 117.051 35.8848 116.982 36.2654C116.948 36.3258 116.921 36.403 116.92 36.4967C116.908 36.7164 116.92 36.9589 116.966 37.1772C116.971 37.2154 116.977 37.2536 116.978 37.2898C116.993 37.3746 117.021 37.4422 117.061 37.4924C117.183 37.7517 117.383 37.9368 117.718 37.9742C118.474 38.0429 118.721 37.1175 118.681 36.4752C118.643 35.8479 118.224 34.9647 117.516 35.3678ZM117.804 36.899C117.795 36.78 117.79 36.663 117.806 36.5455C117.813 36.5624 117.814 36.5773 117.812 36.5837C117.828 36.6834 117.823 36.79 117.804 36.899Z" fill="black"/>
<path d="M169.558 95.7668C169.558 95.7668 173.551 88.9695 171.43 83.083C170.654 80.9282 169.493 78.6566 168.331 76.64C167.093 74.4924 166.387 74.985 165.405 77.2673C164.64 79.0429 162.97 80.9672 162.623 82.2501C161.549 86.2229 160.404 88.8915 163.178 92.5241C165.95 96.1602 169.558 95.7668 169.558 95.7668Z" fill="#0D0D0D"/>
<path d="M177.401 156.34C177.401 156.34 193.276 139.96 174.664 125.142C170.114 121.52 154.844 106.242 164.064 103.258C168.757 101.738 171.014 98.6119 172.097 95.9043C172.248 95.525 172.379 95.1565 172.488 94.7986C172.487 94.795 172.487 94.795 172.487 94.795C173.133 92.697 173.1 91.0774 173.1 91.0774C173.1 91.0774 173.563 87.668 168.817 83.961C167.511 82.9439 165.814 81.9055 163.608 80.9097C163.604 80.9061 163.599 80.9026 163.593 80.9026C163.116 80.6828 162.616 80.4702 162.088 80.2576C156.908 78.1808 155.19 80.1831 153.001 78.9463C151.004 77.8122 148.5 76.2919 148.081 76.0332C148.042 76.0119 148.022 75.9977 148.022 75.9977C148.022 75.9977 145.505 73.7012 144.303 76.423C144.174 76.7136 144.052 76.99 143.938 77.2558C143.107 79.1625 142.697 80.3426 143.043 81.4235C143.307 82.2422 145.099 83.9469 146.554 84.9392C147.686 85.7153 150.43 87.3845 150.559 87.5121C150.912 87.863 148.328 87.8027 142.386 84.4572C142.279 84.3969 142.169 84.3402 142.06 84.28C141.773 84.117 141.411 84.2056 141.226 84.4749C140.888 84.9675 140.526 85.8429 141.004 86.9982C141.763 88.8446 147.127 91.7153 145.549 92.7714C145.216 92.9982 144.753 93.1116 144.205 93.179C144.202 93.1754 144.202 93.1754 144.202 93.1754C142.174 93.4164 139.015 92.9415 137.088 94.632C137.088 94.632 139.449 94.8836 140.717 95.8582C140.717 95.8582 135.388 94.8624 133.993 97.0667C133.993 97.0667 134.858 96.893 135.89 97.5203C135.89 97.5203 130.275 99.0265 127.733 104.417C127.511 104.888 127.312 105.384 127.143 105.916C125.285 111.732 126.197 108.39 131.766 120.163C134.878 126.737 151.344 144.212 160.929 146.597C172.816 149.557 177.401 156.34 177.401 156.34Z" fill="#3D3D3E"/>
<path d="M146.152 85.3431C146.152 85.3431 142.377 83.6526 141.934 84.645C141.491 85.6338 152.093 89.5996 152.335 88.9475C152.577 88.2919 147.498 85.9386 146.152 85.3431Z" fill="#E57970"/>
<path d="M168.704 92.5879C168.704 92.5879 173.879 92.4603 175.362 86.6871C175.931 84.4721 174.927 81.8778 174.465 79.599C173.972 77.1714 173.146 77.4159 171.49 79.2694C170.202 80.7154 168.007 82.0125 167.271 83.1182C164.993 86.5489 168.704 92.5879 168.704 92.5879Z" fill="#3D3D3E"/>
<path d="M143.627 102.975C143.627 102.975 126.379 101.472 122.173 96.9397C122.173 96.9397 122.377 93.261 121.673 91.9887C120.969 90.7164 117.942 89.7879 116.394 90.5853C114.847 91.3863 118.302 99.1228 119.07 99.8848C119.838 100.647 132.318 121.56 138.637 124.296C141.261 125.433 138.315 115.567 141.215 113.426C144.115 111.286 143.627 102.975 143.627 102.975Z" fill="#3D3D3E"/>
<path d="M154.327 96.0924C154.327 96.0924 137.185 93.6648 133.231 88.9087C133.231 88.9087 133.633 85.2512 132.999 83.9399C132.365 82.6322 129.392 81.5406 127.804 82.2565C126.215 82.9724 129.247 90.8827 129.973 91.6837C130.699 92.4882 142.03 114.043 148.192 117.116C150.751 118.391 148.343 108.38 151.354 106.398C154.366 104.417 154.327 96.0924 154.327 96.0924Z" fill="#3D3D3E"/>
<path d="M148.082 76.0328C147.263 76.7453 145.555 77.9397 143.938 77.2557C144.052 76.9898 144.175 76.7134 144.303 76.4227C145.506 73.7005 148.022 75.9974 148.022 75.9974C148.022 75.9974 148.043 76.0115 148.082 76.0328Z" fill="black"/>
<path d="M167.825 84.0715C167.825 84.0715 168.268 83.4053 169.584 82.4768C170.901 81.5483 172.059 79.3971 172.305 79.592C172.552 79.7869 172.099 86.3574 169.589 86.9492C169.589 86.9492 167.876 86.6196 167.825 84.0715Z" fill="#0D0D0D"/>
<path d="M145.204 153.246C149.226 151.736 167.306 160.671 175.384 155.95C179.616 153.476 181.314 145.279 181.97 138.039C182.66 130.43 174.904 124.83 167.882 127.874C164.159 129.49 160.117 132.134 156.279 136.419C150.294 143.099 144.63 144.283 140.278 144.336C139.132 143.287 137.54 142.217 135.852 142.295C132.597 142.447 132.131 145.513 132.131 145.513C130.727 149.936 141.181 154.756 145.204 153.246Z" fill="#3D3D3E"/>
<path d="M159.899 82.5685C159.632 82.3377 159.256 82.3012 158.873 82.362C158.805 82.3498 158.723 82.3498 158.634 82.3802C158.422 82.4409 158.197 82.532 158.005 82.6474C157.971 82.6656 157.937 82.6839 157.903 82.696C157.827 82.7385 157.773 82.7871 157.739 82.8418C157.534 83.0422 157.424 83.2912 157.499 83.6191C157.684 84.354 158.641 84.2811 159.236 84.0321C159.817 83.7892 160.514 83.1029 159.899 82.5685ZM158.545 83.3458C158.655 83.2973 158.764 83.2547 158.88 83.2305C158.867 83.2426 158.853 83.2487 158.846 83.2487C158.757 83.2973 158.655 83.3276 158.545 83.3458Z" fill="#FEFEF8"/>
<path d="M111 171.872H186V113.005H111V171.872Z" fill="#946D46"/>
<path d="M102.379 96.9017C96.6601 91.0321 89.1642 95.446 87.4605 103.453C82.7331 125.675 79.3444 158.918 85.5091 163.844C94.7682 171.237 142.363 162.146 142.363 162.146L139.599 153.749C139.599 153.749 104.272 150.784 104.3 149.062C104.328 147.34 108.61 103.296 108.61 103.296L102.379 96.9017Z" fill="#FFB27D"/>
<path d="M139.601 153.749C139.601 153.749 141.716 152.035 143.28 149.858C144.845 147.681 147.834 145.583 148.876 143.396C149.916 141.212 150.673 143.242 150.601 144.863C150.53 146.483 147.694 150.467 148.949 150.223C150.202 149.982 154.708 145.413 155.787 143.955C157.033 142.273 161.045 147.835 159.485 151.85C157.925 155.865 153.152 159.32 151.172 159.931C149.192 160.541 142.364 162.145 142.364 162.145L139.601 153.749Z" fill="#FFB27D"/>
<path d="M111.897 82.2481C111.897 82.2481 101.149 82.0745 95.9475 85.6328C90.7455 89.191 84.1315 104.537 81.0913 126.706C81.0913 126.706 102.78 128.303 116.848 121.95C116.848 121.95 123.31 83.4201 111.897 82.2481Z" fill="#FEA273"/>
</svg>
