<svg width="611" height="662" viewBox="0 0 611 662" fill="none" xmlns="http://www.w3.org/2000/svg">
<path d="M258.404 485.72C242.871 494.338 229.064 518.465 220.434 533.978C210.077 554.66 208.35 565.001 229.064 578.791C260.131 599.473 305.008 613.259 341.256 618.431C375.776 623.6 560.459 637.39 538.022 570.173C531.115 554.66 513.858 544.319 510.405 527.087" fill="#F2EBC7"/>
<path d="M523.349 213.403C522.485 199.613 516.445 191.86 511.269 179.793C506.952 170.313 506.952 159.973 506.092 149.632C504.365 136.707 505.229 131.538 512.996 121.194C520.762 111.714 521.626 103.961 523.353 91.8939C525.076 83.2759 525.939 72.9351 521.626 65.1822C516.449 55.7028 504.365 55.7028 499.189 46.2234C494.872 35.8789 500.052 29.8489 487.105 23.8152C478.475 19.5081 466.395 22.0924 457.761 17.7852C449.998 12.613 453.241 6.58298 428.214 1.41072C410.182 -2.31597 400.022 3.79905 393.167 10.0878C383.922 5.96556 374.491 5.1448 361.922 11.7515C343.328 21.5267 353.34 28.9875 330.899 31.5718C320.542 33.2946 310.189 34.1561 303.282 43.6355C296.379 52.2534 298.969 61.7328 296.379 71.2122C288.612 93.6204 260.131 86.7253 243.735 97.9276C220.434 113.437 244.598 134.984 229.928 150.493C215.254 166.006 189.367 159.111 183.324 184.104C178.147 207.37 204.901 217.71 178.147 234.946C161.75 244.426 146.217 266.834 165.2 282.343C173.83 289.238 180.737 291.823 176.42 304.752C173.83 313.366 166.063 321.122 170.38 331.463C173.83 343.527 188.504 346.976 198.857 349.561C213.531 353.871 228.201 359.04 242.871 364.209C267.035 372.827 291.199 370.242 316.229 370.242C340.393 370.242 365.42 370.242 389.584 367.658C413.747 365.935 439.638 363.347 460.348 350.422C482.788 336.635 504.362 315.089 517.309 291.823C529.393 269.418 524.212 238.396 523.349 213.403Z" fill="#592423"/>
<path d="M361.965 110.856C364.555 120.336 371.459 139.295 362.829 146.186C355.925 151.358 342.982 141.879 337.802 147.051C331.762 153.081 349.022 172.04 353.339 176.351C367.145 191.86 392.877 224.912 414.454 223.19C422.221 222.328 466.761 228.916 458.131 218.576C451.224 210.823 411.864 185.638 414.454 170.99C415.317 164.956 416.336 154.808 419.786 149.635" fill="#BA6A51"/>
<path d="M264.597 162.636C220.434 198.753 234.549 280.933 233.685 306.787C232.822 334.364 262.722 435.739 254.092 449.529C248.915 459.008 233.378 475.383 237.695 487.446C242.008 497.787 262.722 507.267 270.488 513.3C287.745 525.364 306.732 534.843 324.856 545.184C364.553 567.589 407.704 576.207 453.444 580.518C475.022 582.24 513.855 576.207 531.116 562.42C549.239 548.63 532.842 524.503 526.799 509.855C519.032 490.896 520.759 466.765 520.759 446.083C520.759 423.679 526.799 401.27 531.979 379.727C534.566 365.079 538.019 350.428 540.609 335.776C544.922 316.817 541.473 302.169 539.746 283.21C535.429 234.952 499.382 211.686 447.601 210.821C423.437 209.959 403.628 205.907 380.09 178.075C365.861 161.25 361.918 152.454 349.49 146.583C349.494 146.58 308.755 126.519 264.597 162.636Z" fill="#7386AE"/>
<path d="M484.115 132.646C447.805 171.051 461.622 219.528 464.594 230.667C466.084 238.091 472.776 242.546 475.752 249.23C480.213 259.627 475.37 261.978 466.443 261.235C459.751 261.235 454.412 265.671 458.128 275.325C461.104 282.005 473.065 282.848 479.754 283.591C502.064 285.821 508.471 267.05 523.341 252.946C537.471 239.577 553.086 223.986 555.32 203.937C556.806 187.603 551.6 160.126 533.009 155.671L484.115 132.646Z" fill="#F2EBC7"/>
<path d="M478.612 140.848C484.785 134.404 490.718 118.388 489.877 112.717C488.917 106.254 487.561 100.365 482.807 93.9908C477.311 86.6262 481.828 80.049 480.198 71.7416C474.777 43.9245 442.961 33.8572 414.529 38.4232C397.428 41.1664 372.849 57.7628 366.639 74.825C339.203 150.161 438.63 182.6 478.612 140.848Z" fill="#BA6A51"/>
<path d="M368.14 100.369C360.462 92.7016 346.092 100.698 350.227 113.084C355.541 127.824 376.803 123.107 386.845 118.393" fill="#BA6A51"/>
<path d="M406.702 94.7002C416.252 90.7739 434.775 98.8484 437.088 94.9849C443.076 84.2263 416.537 84.9361 410.867 87.3541C400.077 91.9644 403.749 95.9166 406.702 94.7002Z" fill="#592423"/>
<path d="M477.293 84.6374C469.03 83.9165 459.051 94.7712 455.92 92.3163C447.538 85.3805 466.573 79.4208 471.512 79.9199C480.921 80.8737 479.85 84.8629 477.293 84.6374Z" fill="#592423"/>
<path d="M453.948 117.468L453.107 115.96C454.867 114.98 459.584 111.837 460.262 109.153C460.418 108.532 460.337 107.985 460.018 107.486C459.073 106.003 457.254 104.794 455.338 103.515C452.192 101.423 448.627 99.0454 447.99 94.7346L449.694 94.4795C450.22 98.0361 453.307 100.095 456.294 102.084C458.369 103.467 460.329 104.772 461.47 106.558C462.052 107.471 462.208 108.488 461.934 109.575C460.937 113.531 454.234 117.309 453.948 117.468Z" fill="#592423"/>
<path d="M445.144 127.314C438.407 127.314 431.266 125.85 427.65 122.755L428.773 121.446C434.694 126.515 451.784 126.837 457.668 123.099L458.595 124.552C455.745 126.363 450.572 127.314 445.144 127.314Z" fill="#592423"/>
<path d="M403.631 107.101C426.583 107.101 426.583 138.97 403.631 138.97C380.675 138.97 380.675 107.101 403.631 107.101Z" fill="#D44E48" fill-opacity="0.498"/>
<path d="M484.115 132.646C487.817 125.44 490.444 116.633 489.87 112.722C489.266 108.636 488.506 104.791 486.824 100.898C486.083 100.813 485.308 100.776 484.5 100.776C462.249 100.776 462.112 132.265 484.115 132.646Z" fill="#D44E48" fill-opacity="0.498"/>
<path d="M361.558 115.461C359.602 113.361 360.65 111.757 361.017 111.317C361.966 110.182 363.796 109.661 365.557 109.845C363.607 107.601 360.391 105.568 358.312 105.893C356.967 106.104 356.137 107.324 355.856 109.527L354.144 109.306C354.633 105.505 356.537 104.425 358.045 104.192C361.862 103.594 366.983 107.949 368.436 111.062L369.688 113.738L367.191 112.152C365.634 111.162 363.141 111.465 362.344 112.419C361.947 112.892 362.107 113.52 362.818 114.286L361.558 115.461Z" fill="#592423"/>
<path d="M252.451 206.253C254.478 182.798 268.003 166.161 291.566 158.157C297.973 155.979 304.506 154.874 310.983 154.874C346.378 154.874 376.986 186.562 409.39 220.106C429.159 240.573 449.599 261.732 471.361 275.341C507.668 298.049 512.052 335.652 504.77 360.959C497.685 385.581 496.5 420.471 477.553 420.471C437.452 428.494 435.818 417.798 364.076 373.374C292.333 328.949 247.56 262.867 252.451 206.253Z" fill="#7386AE"/>
<path d="M470.441 276.803C496.254 234.29 575.052 160.858 579.013 162.67C582.892 164.444 579.632 172.253 577.086 176.186C580.621 175.136 583.841 173.913 585.279 171.79C592.182 161.609 593.694 167.265 594.772 167.801C595.851 168.341 597.815 164.307 600.275 165.668C603.295 167.335 600.923 169.849 602.217 169.58C603.51 169.313 604.803 169.151 605.667 172.811C606.1 175.181 605.885 177.551 605.885 179.924C610.31 177.713 611.755 187.891 609.554 187.891C603.113 187.891 605.578 195.615 603.169 198.694C595.198 210.078 576.182 225.236 567.941 258.429C559.7 291.632 557.78 310.983 549.98 337.854C530.737 404.147 472.624 440.571 436.362 406.834C400.103 373.098 444.629 319.316 470.441 276.803Z" fill="#BA6A51"/>
<path d="M456.953 294.875C461.222 288.264 465.257 282.02 468.966 275.908C473.168 268.984 479.001 260.869 486.297 251.792C486.742 251.241 487.479 251.016 488.154 251.226C492.215 252.48 496.38 253.685 500.411 254.85C508.704 257.242 517.279 259.715 525.513 262.809C537.756 267.405 553.063 274.16 562.875 285.695C563.216 286.098 563.357 286.637 563.25 287.159C562.56 290.519 561.908 293.769 561.271 296.949C558.544 310.565 555.964 323.427 551.636 338.338C537.674 386.441 502.494 421.353 467.984 421.357C455.849 421.357 444.51 416.772 435.187 408.099C403.101 378.241 431.707 333.949 456.953 294.875Z" fill="#7386AE"/>
<path d="M498.395 318.923C498.373 318.923 498.351 318.923 498.332 318.92C497.858 318.886 497.499 318.476 497.532 317.999C498.725 301.299 484.926 289.454 472.746 284.385C472.305 284.204 472.097 283.697 472.283 283.257C472.464 282.821 472.972 282.614 473.413 282.795C486.119 288.082 500.515 300.508 499.255 318.121C499.218 318.576 498.84 318.923 498.395 318.923Z" fill="#592423"/>
<path d="M581.432 185.106L580.616 183.583L581.18 183.284C584.181 181.694 587.283 180.049 589.406 177.346C590.451 175.986 591.007 174.448 591.6 172.821C592.141 171.316 592.704 169.763 593.69 168.344L595.105 169.323C594.249 170.558 593.749 171.941 593.219 173.405C592.611 175.087 591.981 176.825 590.766 178.407C588.413 181.398 585.145 183.132 581.987 184.807L581.432 185.106Z" fill="#592423"/>
<path d="M589.806 189.717L588.635 188.452C589.362 187.783 590.099 187.158 590.829 186.541C592.904 184.781 594.864 183.125 596.235 180.692C597.451 178.866 598.184 176.891 598.892 174.984C599.433 173.519 599.996 172.007 600.756 170.584L602.283 171.394C601.575 172.721 601.056 174.111 600.511 175.586C599.77 177.583 599 179.653 597.706 181.594C596.217 184.241 594.045 186.079 591.948 187.857C591.237 188.456 590.514 189.066 589.806 189.717Z" fill="#592423"/>
<path d="M595.911 195.477L594.621 194.328C595.748 193.071 596.985 192.035 598.178 191.037C600.987 188.686 603.414 186.652 604.122 182.268L605.827 182.541C605.015 187.558 602.103 189.998 599.286 192.357C598.138 193.318 596.952 194.309 595.911 195.477Z" fill="#592423"/>
<path d="M411.59 106.451C416.492 107.043 420.528 110.725 425.43 110.829C429.21 110.91 433.227 109.801 436.554 108.037C437.199 107.693 436.895 106.673 436.184 106.68C431.337 106.743 427.735 109.346 422.662 108.104C418.493 107.076 415.94 104.226 411.386 104.947C410.456 105.091 410.812 106.359 411.59 106.451Z" fill="#592423"/>
<path d="M463.16 101.711C466.398 102.898 469.541 101.989 472.264 100.044C474.406 98.5133 477.874 95.2377 478.286 92.5129C478.371 91.9583 477.826 91.352 477.256 91.7217C475.395 92.9196 474.302 95.3967 472.794 97.016C470.256 99.7371 467.251 100.931 463.582 100.181C462.571 99.97 462.2 101.36 463.16 101.711Z" fill="#592423"/>
<path d="M501.482 76.9729C488.735 81.439 478.338 89.6725 479.913 105.396C480.487 111.142 482.788 116.31 482.214 122.059C482.214 127.801 479.335 132.973 481.061 139.291C486.812 158.827 539.746 164.979 553.552 153.488C571.087 138.903 585.505 95.6803 558.251 79.1135C550.028 74.115 535.632 71.1241 526.098 72.0779C518.587 72.8284 509.564 74.1446 501.482 76.9729Z" fill="#F2EBC7"/>
<path d="M548.375 85.2916C550.676 77.2467 559.307 70.3515 566.788 67.4826C573.117 65.7597 592.104 66.9058 594.979 74.947C597.281 81.2691 590.377 78.9695 586.349 80.6924C580.598 84.1418 584.048 85.8646 581.747 91.0332C579.446 96.2054 563.334 101.378 557.583 96.7785" fill="#F2EBC7"/>
<path d="M558.251 79.1141C557.114 78.4227 552 79.3507 549.969 81.4987C546.427 85.2476 538.994 90.394 540.717 96.9527C541.614 100.372 544.226 103.792 543.867 107.43C543.418 111.963 538.771 113.494 536.241 116.692C536.307 116.603 537.374 117.889 537.43 118.093C537.723 119.084 537.334 119.516 536.8 120.263C536.166 121.15 534.347 122.795 533.417 123.35C533.354 123.387 533.258 123.431 533.146 123.476C535.707 125.613 539.079 125.505 542.381 125.01C544.207 124.452 546.005 123.753 547.476 122.747C551.1 120.256 551.022 117.298 552.563 113.638C553.679 110.987 555.809 109.249 558.396 108.144C561.938 106.628 565.803 107.922 567.363 104.609C568.919 101.297 568.038 98.7532 571.91 97.2817C575.778 95.814 567.211 84.5599 558.251 79.1141Z" fill="#BA6A51"/>
<path d="M548.375 85.2916C550.676 77.2467 559.307 70.3515 566.788 67.4826C573.117 65.7597 592.104 66.9058 594.979 74.947C597.281 81.2691 590.377 78.9695 586.349 80.6924C580.598 84.1418 584.048 85.8646 581.747 91.0332C579.446 96.2054 563.334 101.378 557.583 96.7785" fill="#BA6A51"/>
<path d="M494.872 85.864C497.173 78.3958 493.719 68.628 488.543 63.4595C484.515 59.437 467.829 51.9688 464.379 60.0101C462.078 65.7554 468.981 68.055 471.283 71.5007C474.732 77.246 471.283 78.9689 471.857 84.7142C472.431 92.1823 486.816 99.0775 492.571 92.7591" fill="#F2EBC7"/>
<path d="M488.542 129.525C469.555 135.271 445.966 154.806 447.693 176.638C448.267 185.829 460.925 196.746 469.555 188.125C476.459 181.233 471.857 169.743 485.089 168.016" fill="#F2EBC7"/>
<path d="M562.186 108.843C580.02 112.292 586.349 139.292 581.169 153.082C574.84 170.315 563.334 181.232 546.074 186.401C538.018 188.7 518.461 201.914 512.131 193.869C501.2 179.509 530.54 176.06 534.568 167.442C534.568 166.869 534.568 166.292 534.568 165.719" fill="#F2EBC7"/>
<path d="M351.49 178.515C390.632 188.145 412.754 226.211 440.841 251.673C441.546 252.309 442.598 251.27 441.89 250.623C413.802 225.043 391.28 186.596 351.735 177.631C351.161 177.498 350.912 178.374 351.49 178.515Z" fill="#592423"/>
<path d="M269.836 327.516C281.942 322.27 293.937 318.029 307.347 319.194C320.661 320.355 332.422 327.623 342.901 335.391C352.969 342.856 362.129 351.485 371.719 359.533C380.564 366.957 389.91 373.823 399.722 379.919C418.253 391.425 439.019 399.436 460.907 400.93C472.05 401.688 483.255 400.446 494.09 397.843C504.469 395.351 514.259 391.975 522.063 384.515C527.41 379.402 531.649 373.109 535.473 366.831C536.196 365.648 534.339 364.572 533.624 365.752C527.273 376.181 519.595 386.777 507.808 391.325C496.254 395.784 484.033 398.371 471.664 398.945C448.282 400.024 425.66 392.504 405.525 381.117C384.036 368.965 366.65 351.828 347.389 336.689C338.488 329.694 328.872 323.283 318.023 319.767C307.032 316.21 295.412 316.968 284.484 320.266C279.233 321.852 274.197 324.141 269.414 326.795C268.932 327.065 269.358 327.727 269.836 327.516Z" fill="#592423"/>
<path d="M374.665 133.51C385.463 145.192 397.513 154.483 413.566 157.197C414.44 157.345 414.815 156.01 413.933 155.859C398.143 153.186 386.13 144.209 375.162 133.01C374.843 132.689 374.358 133.177 374.665 133.51Z" fill="#592423"/>
<path d="M462.077 31.5742C463.8 43.6379 452.583 50.533 443.089 53.1173C434.459 54.8402 423.239 52.2559 414.609 56.5667C402.529 63.4618 412.886 72.9412 406.842 80.6941C400.802 89.3121 386.992 83.2784 381.815 93.6229C375.775 105.687 388.718 106.548 391.309 115.166C394.762 128.091 378.365 128.091 374.048 118.612C372.325 115.166 376.638 111.717 374.048 108.271C371.462 104.825 364.555 105.687 360.242 103.102C331.761 85.8664 360.242 48.8102 380.952 39.3308" fill="#592423"/>
<path d="M506.522 133.263C510.835 136.276 513.859 140.587 519.466 137.999C522.919 136.276 526.814 134.18 525.191 132.642C523.568 131.107 508.679 131.107 506.522 133.263Z" fill="#592423"/>
<path d="M506.881 143.024C508.241 144.781 509.982 144.744 512.035 144.189C514.066 143.642 515.3 141.172 517.13 142.518C520.225 144.792 526.29 147.487 528.577 142.806C528.844 142.267 528.139 141.623 527.699 142.13C524.449 145.838 519.524 143.106 516.708 140.322C516.43 140.048 516.03 140.082 515.748 140.322C513.262 142.437 510.657 144.034 507.37 142.389C506.94 142.174 506.607 142.666 506.881 143.024Z" fill="#592423"/>
<path d="M488.412 119.587C489.031 122.567 492.967 125.668 495.523 127.025C498.362 128.526 502.349 127.791 503.942 124.903C504.209 124.422 503.694 124.001 503.242 124.204C501.611 124.925 500.459 126.001 498.573 126.079C496.954 126.142 495.36 125.055 494.149 124.116C492.333 122.703 491.092 120.093 489.046 119.102C488.698 118.932 488.335 119.206 488.412 119.587Z" fill="#592423"/>
<path d="M533.35 124.57C536.377 127.062 540.831 126.722 544.255 125.221C547.101 123.971 552.804 120.644 552.385 116.888C552.329 116.392 551.829 116.182 551.44 116.499C550.391 117.346 549.899 118.636 549.035 119.679C547.931 121.01 546.478 122.001 545.007 122.873C541.45 124.973 537.633 125.088 533.843 123.724C533.376 123.557 532.961 124.252 533.35 124.57Z" fill="#592423"/>
<path d="M484.573 145.426C489.539 160.318 506.851 164.145 520.773 162.418C537.069 160.4 554.96 151.582 563.857 137.326C564.249 136.698 563.316 135.962 562.819 136.527C557.109 143.045 551.458 148.743 543.858 153.102C537.518 156.736 530.5 159.109 523.329 160.459C509.252 163.106 491.262 160.13 485.318 145.223C485.137 144.776 484.418 144.949 484.573 145.426Z" fill="#BA6A51"/>
<path d="M460.766 183.118C459.951 186.571 462.408 188.123 465.547 188.922C468.496 189.676 470.616 186.874 471.494 184.478C473.161 179.938 474.199 175.45 476.537 171.128C477.86 168.684 479.52 166.462 481.506 164.517C484.019 162.055 486.687 161.844 489.858 160.998C490.474 160.831 490.407 160.011 489.858 159.815C483.459 157.548 477.627 165.63 475.025 170.248C473.376 173.169 472.172 176.374 471.209 179.576C470.76 181.066 470.49 182.585 469.978 184.06C469.474 185.51 468.641 186.84 467.136 187.425C464.602 188.404 461.722 185.576 461.678 183.24C461.671 182.726 460.889 182.6 460.766 183.118Z" fill="#BA6A51"/>
<path d="M550.573 149.164C541.316 154.636 540.153 163.779 536.184 172.777C534.735 176.06 532.564 179.159 532.338 182.834C532.127 186.235 535.91 187.459 538.63 186.908C539.312 186.767 539.238 185.788 538.63 185.61C536.358 184.941 533.824 184.911 534.368 181.676C534.628 180.105 535.417 178.619 536.092 177.199C537.085 175.121 538.122 173.125 538.837 170.933C541.531 162.695 543.821 155.512 551.058 149.988C551.532 149.626 551.121 148.839 550.573 149.164Z" fill="#BA6A51"/>
<path d="M539.815 180.56C539.571 182.349 538.952 184.12 539.304 185.939C539.648 187.725 542.001 188.564 543.487 187.61C543.887 187.351 543.843 186.708 543.35 186.579C541.949 186.209 540.697 186.823 540.567 184.904C540.475 183.484 540.712 182.083 540.56 180.659C540.515 180.271 539.874 180.101 539.815 180.56Z" fill="#BA6A51"/>
<path d="M476.314 243.817C478.296 246.642 483.754 250.15 487.245 248.12C487.475 247.987 487.393 247.688 487.178 247.603C485.581 246.978 483.78 247.115 482.135 246.534C480.145 245.832 478.711 244.279 476.999 243.137C476.592 242.867 476.028 243.41 476.314 243.817Z" fill="#BA6A51"/>
<path d="M474.717 67.9151C476.021 65.5193 477.566 70.6398 477.941 71.797C478.63 73.9229 478.663 75.9045 478.434 78.1191C478.037 81.9271 477.722 86.7999 482.558 87.5689C483.525 87.7205 484.096 86.5448 483.232 85.9681C479.26 83.3246 480.916 79.5092 481.013 75.4868C481.061 73.2944 480.272 71.0872 479.464 69.0871C478.211 65.9778 475.073 62.3768 472.734 66.7579C472.045 68.0593 474.009 69.2128 474.717 67.9151Z" fill="#D44E48" fill-opacity="0.498"/>
<path d="M585.302 74.6266C581.459 73.5619 577.349 73.8983 574.978 77.5289C573.648 79.566 572.962 81.8619 572.329 84.1911C571.732 86.3983 570.102 87.622 568.378 89.0343C566.77 90.3505 569.075 92.6612 570.665 91.3191C573.088 89.2746 574.552 87.5111 575.252 84.4203C576.464 79.0817 578.795 75.4215 584.809 76.4234C585.968 76.612 586.48 74.9557 585.302 74.6266Z" fill="#D44E48" fill-opacity="0.498"/>
<path d="M374.523 585.326C373.424 596.505 365.186 605.841 363.058 616.879C362.126 621.702 362.296 626.993 359.507 631.038C356.569 635.298 351.125 637.006 345.989 637.727C342.437 638.225 338.644 638.351 335.436 636.753C332.235 635.156 329.896 631.343 331.047 627.969C332.731 623.01 339.243 622.913 344.393 621.025C349.211 613.005 352.514 603.862 349.834 595.166C347.99 589.19 343.56 584.322 339.949 579.142C331.917 567.634 327.698 553.779 327.766 539.958C322.543 546.951 317.014 553.744 311.114 560.227C311.605 566.64 311.425 573.098 310.571 579.475C309.982 583.86 309.048 588.284 306.871 592.188C303.509 598.219 297.469 602.501 293.656 608.278C290.105 613.653 288.155 620.607 282.281 623.582C278.916 625.285 274.914 625.27 271.114 625.151C268.078 625.06 264.456 624.585 263.129 621.968C261.527 618.831 264.621 615.265 267.938 613.81C269.662 613.05 271.55 612.544 273.321 611.885C276.789 607.164 279.646 601.907 279.575 596.223C279.548 593.919 279.024 591.65 278.59 589.378C276.967 590.545 275.309 591.673 273.641 592.783C244.147 612.284 206.12 622.979 170.689 615.957C144.293 634.413 114.081 648.111 81.7139 650.46C66.4139 651.567 50.2464 650.272 36.5545 656.895C33.3361 658.451 30.2915 660.434 26.8197 661.373C23.3436 662.313 19.1804 661.974 16.7478 659.415C15.715 658.33 15.0451 656.903 13.7827 656.08C11.9169 654.845 9.29099 655.269 7.31783 654.196C4.2239 652.527 4.3334 647.88 6.63291 645.286C7.60339 644.185 8.82293 643.362 10.1606 642.709C8.71558 642.291 7.31783 641.733 6.02529 640.967C2.6458 638.96 0.135866 635.08 1.11493 631.386C2.094 627.708 6.13479 625.464 10.0596 624.869C13.9738 624.274 17.9781 624.912 21.9458 624.817C39.1267 624.408 52.4751 611 68.0221 604.004C78.3795 599.352 89.8406 597.538 100.743 594.232C105.413 592.809 110.09 591.02 114.38 588.711C109.811 587.029 105.615 584.41 102.259 581.009C99.4144 578.123 97.0526 574.037 98.5212 570.333C99.5798 567.673 102.322 565.991 103.898 563.579C106.68 559.303 105.31 553.676 106.873 548.867C109.398 541.071 118.91 536.969 123.32 530.272C122.601 525.039 122.249 519.754 122.289 514.47C122.304 512.396 123.019 509.667 125.181 509.632C126.921 509.595 127.947 511.408 128.776 512.87C130.983 516.736 134.603 519.843 138.865 521.516C142.925 523.106 147.408 523.396 151.612 524.617C154.302 525.395 156.997 526.733 158.878 528.658C159.429 528.361 159.99 528.079 160.548 527.803C162.367 526.918 164.509 526.146 166.407 526.877C168.419 527.647 169.39 529.804 170.019 531.781C170.347 532.82 170.641 533.87 170.882 534.924C182.234 540.271 194.783 544.571 206.298 540.297C215.006 537.065 221.085 529.512 226.042 521.94C235.427 507.616 242.468 492.03 250.214 476.84C257.581 462.413 266.352 447.528 281.014 439.712C296.071 431.675 314.332 432.636 331.58 434.135C336.857 424.229 333.353 410.806 324.75 402.928C315.161 394.133 301.029 391.272 287.767 391.898C256.982 393.339 227.908 412.857 216.003 440.051C214.362 443.806 212.973 447.776 210.161 450.831C207.354 453.877 202.624 455.78 198.77 454.065C194.44 452.123 193.222 446.781 193.3 442.209C193.592 425.53 203.827 410.329 216.383 398.763C233.804 382.71 256.812 371.729 280.96 370.459C305.108 369.189 330.135 378.286 345.544 396.126C359.189 411.922 364.209 434.553 357.585 453.865C370.665 464.922 375.988 485.823 374.317 501.759C372.466 519.515 365.372 537.094 368.565 555.126C370.369 565.289 375.537 575.062 374.523 585.326Z" fill="#D5CFD1"/>
<path d="M123.96 577.493C123.61 579.416 122.047 580.933 120.415 582.115C117.224 584.406 113.415 585.905 109.469 586.465C106.811 584.979 104.37 583.148 102.259 581.01C99.4143 578.123 97.0525 574.037 98.5211 570.333C99.5796 567.674 102.321 565.992 103.897 563.579C104.108 563.258 104.295 562.922 104.456 562.591C106.981 562.811 109.473 563.34 111.869 564.172C116.78 565.885 121.394 569.084 123.361 573.716C123.867 574.914 124.194 576.221 123.96 577.493Z" fill="#EBE3CB"/>
<path d="M210.161 450.831C212.973 447.776 214.362 443.807 216.003 440.052C216.05 439.949 216.097 439.855 216.142 439.748C213.502 437.757 210.586 436.091 207.494 434.821C203.453 433.156 199.127 432.159 194.743 431.863C193.867 435.229 193.362 438.687 193.3 442.21C193.222 446.782 194.44 452.124 198.77 454.065C202.624 455.78 207.354 453.878 210.161 450.831ZM207.689 539.734C208.808 542.268 208.739 545.144 209.048 547.897C209.459 551.524 210.564 555.075 212.297 558.332C213.332 560.288 214.753 562.256 216.911 562.984C219.305 563.787 222.055 562.805 223.844 561.074C225.622 559.349 226.594 557.008 227.277 554.676C230.103 545.041 228.653 534.361 223.488 525.669C219.296 531.491 214.268 536.858 207.689 539.734ZM216.383 398.764C214.332 400.652 212.342 402.647 210.446 404.718C218.534 406.906 225.987 411.215 231.861 416.983C234.962 413.86 238.317 410.976 241.901 408.353C235.87 402.414 228.218 397.978 219.919 395.651C218.717 396.662 217.534 397.702 216.383 398.764ZM263.4 390.233C264.892 391.876 266.277 393.63 267.511 395.472C271.745 394.163 276.082 393.191 280.48 392.574C277.527 384.85 272.467 377.879 265.972 372.504C259.973 373.815 254.113 375.695 248.458 378.066C253.927 381.566 259.097 385.49 263.4 390.233ZM304.664 455.791C304.396 449.302 299.578 443.628 293.742 440.316C291.458 439.023 289.031 438.025 286.524 437.207C284.643 437.928 282.809 438.753 281.014 439.713C266.352 447.529 257.581 462.413 250.214 476.84C248.192 480.795 246.227 484.778 244.254 488.752C245.684 490.425 247.254 491.973 249.04 493.307C253.602 496.712 259.934 498.512 265.295 496.422C270.09 494.551 274.472 489.75 279.376 491.348C283.215 492.595 284.535 497.003 285.723 500.704C286.912 504.414 289.559 508.657 293.6 508.317C294.813 508.212 295.958 507.662 296.922 506.956C301.379 503.685 302.126 497.517 301.356 492.194C300.58 486.88 298.676 481.618 299.234 476.272C299.981 469.227 304.963 462.864 304.664 455.791ZM335.041 386.352C334.605 393.459 332.087 400.454 327.9 406.338C326.944 405.121 325.897 403.977 324.75 402.929C322.305 400.683 319.554 398.826 316.602 397.309C317.154 389.772 316.05 382.124 313.431 375.001C321.233 377.671 328.574 381.475 335.041 386.352Z" fill="#B4B3B2"/>
<path d="M106.656 571.227C104.799 573.746 101.413 575.054 98.2935 574.52C97.9607 573.129 97.9757 571.702 98.5211 570.333C98.8174 569.584 99.2511 568.906 99.7557 568.274C101.886 568.663 104.013 569.042 106.143 569.427C106.399 569.473 106.663 569.532 106.85 569.701C107.253 570.096 106.989 570.774 106.656 571.227Z" fill="#3E393A"/>
<path d="M161.59 550.972C161.169 551.74 160.613 552.549 159.741 552.777C158.801 553.016 157.843 552.518 157.036 552.005C155.033 550.741 153.143 549.323 151.387 547.762C150.028 546.544 150.069 544.468 151.49 543.309C154.264 541.035 157.109 538.842 160.005 536.722C160.602 536.292 161.287 535.841 162.026 535.929C163.2 536.069 163.705 537.422 163.868 538.544C164.458 542.772 163.657 547.18 161.59 550.972Z" fill="#F49274"/>
<path d="M135.017 549.203C134.586 551.575 130.848 552.931 126.674 552.234C122.498 551.538 119.464 549.049 119.9 546.675C120.331 544.304 124.069 542.945 128.243 543.645C132.419 544.343 135.453 546.832 135.017 549.203Z" fill="#B4B3B2"/>
<path d="M9.57605 630.966C5.67052 631.063 2.64744 634.464 3.3431 638.14C3.45045 638.702 4.5884 638.799 4.66999 638.181C5.0264 635.45 7.21642 633.06 9.97756 632.341C11.0532 632.059 10.4993 630.945 9.57605 630.966ZM123.498 530.757C127.755 527.554 132.419 526.01 137.748 525.4C138.592 525.306 138.785 524.291 137.847 524.157C132.103 523.338 126.197 525.942 122.839 530.405C122.557 530.778 123.246 530.944 123.498 530.757ZM206.252 594.797C199.429 592.228 191.648 595.985 186.209 599.833C183.184 601.976 180.464 604.49 177.728 606.956C174.598 609.774 170.761 612.481 168.466 615.989C167.923 616.819 169.318 617.173 169.892 616.856C176.002 613.461 180.694 607.438 186.083 603.086C192.127 598.202 198.177 595.833 206.066 595.432C206.435 595.415 206.675 594.956 206.252 594.797ZM97.0521 572.513C91.3796 573.614 86.7483 577.472 83.8305 582.137C83.3323 582.936 84.8181 583.248 85.2711 582.635C88.4381 578.326 92.7924 575.664 97.7435 573.542C98.6345 573.161 97.6984 572.387 97.0521 572.513ZM79.9765 573.857C87.0962 566.788 96.8224 566.837 105.318 571.518C105.604 571.679 106.396 571.428 106.005 571.065C98.2051 563.875 85.649 565.799 78.7655 573.089C78.0849 573.81 79.4011 574.429 79.9765 573.857ZM117.469 574.312C116.633 574.359 116.73 575.319 117.544 575.314C126.675 575.288 134.939 579.384 141.065 585.723C141.555 586.231 142.785 585.754 142.272 585.06C136.601 577.406 127.12 573.777 117.469 574.312ZM100.125 575.823C99.8283 575.337 98.7805 575.502 98.9888 576.138C101.439 583.683 112.406 580.957 114.312 574.505C114.572 573.622 113.106 573.651 112.721 574.147C111.225 576.064 109.286 578.217 106.695 578.701C104.099 579.183 101.449 578.001 100.125 575.823ZM131.382 600.059C126.053 607.384 117.677 611.551 109.129 614.532C99.1455 618.015 88.7129 620.389 78.4928 623.141C55.5428 629.321 32.4832 635.223 9.64261 641.772C8.19763 642.183 8.91905 644.086 10.3232 643.734C34.7076 637.632 58.9244 630.807 83.1885 624.279C93.4794 621.508 104.107 619.18 113.997 615.223C121.619 612.175 129.136 607.888 132.797 600.551C133.211 599.716 131.824 599.45 131.382 600.059ZM160.803 574.39C164.251 574.335 168.172 573.633 170.349 571.461C173.082 568.731 170.216 564.13 167.891 562.046C171.908 553.559 173.81 544.418 171.931 535.181C171.785 534.452 170.407 534.535 170.448 535.298C170.927 544.424 169.885 553.316 166.295 561.826C166.276 561.878 166.267 561.925 166.261 561.968C166.083 562.121 166.018 562.337 166.179 562.625C167.523 565.013 170.059 568.863 167.244 570.89C164.835 572.626 160.721 572.636 157.913 572.338C156.865 572.226 155.921 573.381 156.943 574.083C157.924 574.752 161.228 577.112 161.061 578.483C160.79 580.741 158.173 579.773 156.743 579.57C153.078 579.045 149.559 577.976 146.136 576.636C145.404 576.348 144.253 577.365 145.177 577.803C148.251 579.267 151.399 580.379 154.768 581.054C156.934 581.488 160.073 582.415 162.227 581.46C165.613 579.955 163.188 576.63 160.803 574.39ZM138.192 586.497C135.899 587.277 133.662 587.817 131.455 588.167C127.706 584.51 123.197 581.567 118.224 579.399C117.376 579.03 116.487 580.146 117.484 580.591C121.932 582.577 125.864 585.254 129.282 588.447C123.766 589.007 118.345 588.416 112.479 587.267C112.12 587.197 111.848 587.596 112.219 587.79C117.726 590.631 124.494 591.065 130.787 589.914C133.353 592.545 135.614 595.477 137.555 598.641C137.885 599.182 139.15 598.946 138.826 598.275C137.239 595.032 135.184 592.099 132.758 589.496C134.886 588.984 136.938 588.302 138.841 587.471C139.614 587.131 138.854 586.271 138.192 586.497ZM134.866 560.033C135.077 558.757 133.009 558.74 132.483 559.609C131.365 561.456 129.885 563.195 127.558 563.578C124.743 564.041 122.22 562.211 121.076 559.875C120.696 559.098 119.122 559.494 119.431 560.387C121.765 567.179 133.578 567.807 134.866 560.033ZM343.122 625.889C341.879 627.174 341.114 628.985 340.402 630.571C339.609 632.327 338.45 634.606 339.012 636.495C339.171 637.033 340.21 637.029 340.524 636.652C341.917 634.972 342.192 632.539 343.032 630.558C343.444 629.595 343.865 628.584 344.427 627.693C345.786 625.56 348.438 626.227 350.321 627.52C350.51 627.649 350.997 627.472 350.774 627.236C348.685 625.055 345.716 623.215 343.122 625.889ZM275.307 614.151C271.901 616.358 270.437 620.38 270.121 624.137C270.072 624.747 271.249 624.753 271.476 624.31C272.756 621.799 273.531 618.799 275.528 616.687C277.668 614.423 279.94 614.612 282.815 614.556C283.012 614.55 283.369 614.338 283.225 614.095C281.722 611.551 277.271 612.874 275.307 614.151ZM17.5653 646.997C14.8643 649.216 13.2476 652.629 14.3018 655.995C14.5143 656.668 15.8133 656.386 15.8026 655.713C15.7532 652.724 16.3501 649.862 18.6174 647.678C19.2508 647.067 18.0999 646.556 17.5653 646.997ZM310.325 559.961C301.497 571.953 291.075 582.314 277.4 589.245C276.271 589.818 277.602 590.822 278.512 590.408C292.399 584.113 305.067 573.865 311.903 560.494C312.376 559.566 310.817 559.296 310.325 559.961ZM142.038 541.917C147.828 537.74 153.711 533.639 159.21 529.11C159.772 528.645 158.813 528.241 158.366 528.542C152.455 532.558 146.881 537.024 141.26 541.392C140.741 541.796 141.617 542.222 142.038 541.917ZM353.252 446.779C349.222 437.955 339.04 433.173 329.25 434.085C328.593 434.147 328.638 434.902 329.297 434.888C338.731 434.657 346.772 439.744 351.53 447.326C351.991 448.067 353.679 447.713 353.252 446.779ZM332.032 487.425C328.378 504.853 328.397 522.245 330.074 539.883C330.192 541.135 327.835 541.452 327.618 540.212C324.543 522.726 326.1 504.443 330.171 487.225C330.383 486.323 332.243 486.426 332.032 487.425Z" fill="#3E393A"/>
</svg>
